<?xml version="1.0" encoding="utf-8"?>
<!-- Generator: Adobe Illustrator 25.2.3, SVG Export Plug-In . SVG Version: 6.00 Build 0)  -->
<svg version="1.1" id="Layer_1" xmlns="http://www.w3.org/2000/svg" xmlns:xlink="http://www.w3.org/1999/xlink" x="0px" y="0px"
	 viewBox="0 0 700 395" style="enable-background:new 0 0 700 395;" xml:space="preserve">
<style type="text/css">
	.st0{fill:#000222;}
	.st1{fill:#FFFFFF;}
</style>
<g id="Layer_1_1_">
	<rect y="-0.5" class="st0" width="700" height="395"/>
</g>
<g id="Layer_3">
	<g>
		<path class="st1" d="M273.5,368.6l1.1,4.2c0.2,0.9,0.5,1.8,0.6,2.6h0.1c0.2-0.8,0.5-1.7,0.7-2.6l1.3-4.2h1.3l1.3,4.1
			c0.3,1,0.5,1.9,0.7,2.7h0.1c0.1-0.8,0.4-1.7,0.6-2.7l1.2-4.1h1.5l-2.7,8.2H280l-1.3-3.9c-0.3-0.9-0.5-1.7-0.7-2.7l0,0
			c-0.2,1-0.5,1.8-0.7,2.7l-1.3,3.9h-1.4l-2.5-8.2H273.5z"/>
		<path class="st1" d="M286.3,368.6l1.1,4.2c0.2,0.9,0.5,1.8,0.6,2.6h0.1c0.2-0.8,0.5-1.7,0.7-2.6l1.3-4.2h1.3l1.3,4.1
			c0.3,1,0.5,1.9,0.7,2.7h0.1c0.1-0.8,0.4-1.7,0.6-2.7l1.2-4.1h1.5l-2.7,8.2h-1.4l-1.3-3.9c-0.3-0.9-0.5-1.7-0.7-2.7l0,0
			c-0.2,1-0.5,1.8-0.7,2.7l-1.3,3.9h-1.4l-2.5-8.2H286.3z"/>
		<path class="st1" d="M299,368.6l1.1,4.2c0.2,0.9,0.5,1.8,0.6,2.6h0.1c0.2-0.8,0.5-1.7,0.7-2.6l1.3-4.2h1.3l1.3,4.1
			c0.3,1,0.5,1.9,0.7,2.7h0.1c0.1-0.8,0.4-1.7,0.6-2.7l1.2-4.1h1.5l-2.7,8.2h-1.4l-1.3-3.9c-0.3-0.9-0.5-1.7-0.7-2.7l0,0
			c-0.2,1-0.5,1.8-0.7,2.7l-1.3,3.9H300l-2.5-8.2H299z"/>
		<path class="st1" d="M309.9,375.9c0-0.6,0.4-1.1,1-1.1s1,0.4,1,1.1c0,0.6-0.4,1.1-1,1.1S309.9,376.5,309.9,375.9z"/>
		<path class="st1" d="M313.5,375.3c0.4,0.3,1.2,0.6,2,0.6c1.1,0,1.6-0.5,1.6-1.2s-0.4-1.1-1.5-1.5c-1.5-0.5-2.2-1.3-2.2-2.3
			c0-1.3,1.1-2.4,2.8-2.4c0.8,0,1.6,0.2,2,0.5l-0.4,1.1c-0.3-0.2-0.9-0.5-1.7-0.5c-0.9,0-1.4,0.5-1.4,1.1c0,0.7,0.5,1,1.6,1.4
			c1.4,0.5,2.2,1.3,2.2,2.5c0,1.4-1.1,2.5-3.1,2.5c-0.9,0-1.7-0.2-2.3-0.6L313.5,375.3z"/>
		<path class="st1" d="M327.4,374.6c0,0.9,0,1.6,0.1,2.2h-1.3l-0.1-1.3l0,0c-0.4,0.7-1.3,1.5-2.7,1.5c-1.3,0-2.8-0.7-2.8-3.6v-4.8
			h1.5v4.6c0,1.6,0.5,2.6,1.8,2.6c1,0,1.7-0.7,2-1.4c0.1-0.2,0.1-0.5,0.1-0.8v-5h1.5v6H327.4z"/>
		<path class="st1" d="M329.8,371.1c0-1,0-1.8-0.1-2.6h1.3l0.1,1.6h0.1c0.4-1.1,1.3-1.8,2.3-1.8c0.2,0,0.3,0,0.4,0.1v1.4
			c-0.2,0-0.3-0.1-0.5-0.1c-1.1,0-1.8,0.8-2,1.9c0,0.2-0.1,0.4-0.1,0.7v4.4h-1.5L329.8,371.1L329.8,371.1z"/>
		<path class="st1" d="M339.9,376.8l-0.1-1h-0.1c-0.5,0.6-1.3,1.2-2.5,1.2c-1.7,0-2.5-1.2-2.5-2.4c0-2,1.8-3.1,4.9-3.1v-0.2
			c0-0.7-0.2-1.9-1.9-1.9c-0.8,0-1.6,0.2-2.1,0.6l-0.3-1c0.7-0.4,1.7-0.7,2.7-0.7c2.5,0,3.1,1.7,3.1,3.4v3.1c0,0.7,0,1.4,0.1,2
			H339.9z M339.7,372.6c-1.6,0-3.5,0.3-3.5,1.9c0,1,0.6,1.4,1.4,1.4c1.1,0,1.8-0.7,2-1.4c0.1-0.2,0.1-0.3,0.1-0.5V372.6z"/>
		<path class="st1" d="M343.5,364.7h1.5v5.1l0,0c0.2-0.4,0.6-0.8,1.1-1.1c0.4-0.3,1-0.4,1.5-0.4c1.1,0,2.9,0.7,2.9,3.5v4.9H349V372
			c0-1.3-0.5-2.4-1.9-2.4c-1,0-1.7,0.7-2,1.5c-0.1,0.2-0.1,0.4-0.1,0.7v5h-1.5V364.7z"/>
		<path class="st1" d="M358.6,375.5L358.6,375.5c-0.5,0.8-1.4,1.5-2.7,1.5c-1.9,0-3.5-1.7-3.5-4.2c0-3.1,2-4.4,3.7-4.4
			c1.3,0,2.1,0.6,2.5,1.4l0,0l0.1-1.2h1.4c0,0.7-0.1,1.4-0.1,2.3v9.3h-1.5v-4.7H358.6z M358.6,371.9c0-0.2,0-0.4-0.1-0.6
			c-0.2-0.9-1-1.7-2.1-1.7c-1.5,0-2.5,1.3-2.5,3.2c0,1.6,0.8,3.1,2.4,3.1c1,0,1.8-0.6,2.1-1.6c0.1-0.2,0.1-0.5,0.1-0.7v-1.7H358.6z"
			/>
		<path class="st1" d="M369.4,374.6c0,0.9,0,1.6,0.1,2.2h-1.3l-0.1-1.3l0,0c-0.4,0.7-1.3,1.5-2.7,1.5c-1.3,0-2.8-0.7-2.8-3.6v-4.8
			h1.5v4.6c0,1.6,0.5,2.6,1.8,2.6c1,0,1.7-0.7,2-1.4c0.1-0.2,0.1-0.5,0.1-0.8v-5h1.5v6H369.4z"/>
		<path class="st1" d="M371.9,371.1c0-1,0-1.8-0.1-2.6h1.3l0.1,1.6h0.1c0.4-1.1,1.3-1.8,2.3-1.8c0.2,0,0.3,0,0.4,0.1v1.4
			c-0.2,0-0.3-0.1-0.5-0.1c-1.1,0-1.8,0.8-2,1.9c0,0.2-0.1,0.4-0.1,0.7v4.4h-1.5L371.9,371.1L371.9,371.1z"/>
		<path class="st1" d="M381.9,376.8l-0.1-1h-0.1c-0.5,0.6-1.3,1.2-2.5,1.2c-1.7,0-2.5-1.2-2.5-2.4c0-2,1.8-3.1,4.9-3.1v-0.2
			c0-0.7-0.2-1.9-1.9-1.9c-0.8,0-1.6,0.2-2.1,0.6l-0.3-1c0.7-0.4,1.7-0.7,2.7-0.7c2.5,0,3.1,1.7,3.1,3.4v3.1c0,0.7,0,1.4,0.1,2
			H381.9z M381.7,372.6c-1.6,0-3.5,0.3-3.5,1.9c0,1,0.6,1.4,1.4,1.4c1.1,0,1.8-0.7,2-1.4c0.1-0.2,0.1-0.3,0.1-0.5V372.6z"/>
		<path class="st1" d="M385.6,370.8c0-0.9,0-1.5-0.1-2.2h1.3l0.1,1.4l0,0c0.4-0.8,1.4-1.5,2.7-1.5c1.1,0,2.9,0.7,2.9,3.5v4.9H391
			v-4.7c0-1.3-0.5-2.4-1.9-2.4c-1,0-1.8,0.7-2,1.5c-0.1,0.2-0.1,0.4-0.1,0.7v4.9h-1.5v-6.1H385.6z"/>
		<path class="st1" d="M394.6,375.9c0-0.6,0.4-1.1,1-1.1s1,0.4,1,1.1c0,0.6-0.4,1.1-1,1.1S394.6,376.5,394.6,375.9z"/>
		<path class="st1" d="M404.4,376.5c-0.4,0.2-1.3,0.5-2.4,0.5c-2.5,0-4.1-1.7-4.1-4.2s1.7-4.4,4.4-4.4c0.9,0,1.7,0.2,2.1,0.4
			l-0.3,1.2c-0.4-0.2-0.9-0.4-1.7-0.4c-1.9,0-2.9,1.4-2.9,3.1c0,1.9,1.2,3.1,2.9,3.1c0.8,0,1.4-0.2,1.8-0.4L404.4,376.5z"/>
		<path class="st1" d="M413.5,372.6c0,3-2.1,4.4-4.1,4.4c-2.2,0-3.9-1.6-3.9-4.2c0-2.8,1.8-4.4,4.1-4.4
			C411.9,368.4,413.5,370.1,413.5,372.6z M406.9,372.7c0,1.8,1,3.2,2.5,3.2c1.4,0,2.5-1.3,2.5-3.2c0-1.4-0.7-3.2-2.5-3.2
			S406.9,371.1,406.9,372.7z"/>
		<path class="st1" d="M415.4,370.8c0-0.9,0-1.5-0.1-2.2h1.3l0.1,1.3h0.1c0.5-0.8,1.2-1.5,2.6-1.5c1.1,0,2,0.7,2.3,1.6l0,0
			c0.3-0.5,0.6-0.8,0.9-1.1c0.5-0.4,1-0.6,1.8-0.6c1.1,0,2.7,0.7,2.7,3.6v4.8h-1.5V372c0-1.6-0.6-2.5-1.8-2.5
			c-0.9,0-1.5,0.6-1.8,1.4c-0.1,0.2-0.1,0.5-0.1,0.7v5.1h-1.5v-4.9c0-1.3-0.6-2.3-1.7-2.3c-0.9,0-1.6,0.7-1.9,1.5
			c-0.1,0.2-0.1,0.5-0.1,0.7v5h-1.5v-5.9H415.4z"/>
	</g>
	<path class="st1" d="M552.1,90.1c5,1.9,7.5,4.9,7.5,9v0.7l-0.7,3.8h-2.3c-2.6-2.5-4.8-3.8-6.7-3.8h-1.5c-2,0.8-3,2.6-3,5.3v5.2
		c0,20.5-1.5,30.7-4.5,30.7c-6.8-15-14.3-22.5-22.5-22.5c-4-3.2-6-6-6-8.5s1.2-4.6,3.7-6.4c5.1,0,13.1,7,23.9,21l0.8-0.8v-12
		C540.9,102.3,544.6,95.1,552.1,90.1z M212.3,90.8c3.9,0,6.4,6.3,7.5,18.8c3.5,2.4,5.3,5.1,5.3,8.2c-0.8,2-1.6,3-2.3,3l-3.7-2.2h-3
		c-18.5,21.9-32,33.6-40.4,35.1h-0.8V153c23.9-22.6,35.9-35.1,35.9-37.4v-0.8c-5-2.9-7.5-5.9-7.5-9v-0.7
		C203.3,98.4,206.3,93.7,212.3,90.8z M608.2,90.8c5,0,8,8,9,23.9c1.5,0.5,3.3,3,5.2,7.5c-0.5,2-1.5,3-3,3c-3-2-5.2-3-6.7-3
		c-27.1,24.9-45.4,37.4-54.7,37.4c0,1-1.5,1.5-4.5,1.5v-0.7l47.9-33.7l5.3-6c0-1.8-2.3-4.8-6.8-9l-1.5-4.5
		C598.5,100.2,601.7,94.8,608.2,90.8z M384.4,95.3c3,0,4.5,3.5,4.5,10.5v1.5l-0.7,9c5.5,4.5,8.2,7.8,8.2,9.8
		c-0.7,2.5-1.4,3.7-2.2,3.7c-4.3-3-7.8-4.5-10.5-4.5c-8.2,10.6-20.7,20.1-37.4,28.4h-1.5l-1.5-1.5v-0.7
		c21.4-14.2,33.4-24.2,35.9-29.9c-3.5-4.5-5.3-7.5-5.3-9v-0.8C373.9,102.7,377.4,97.2,384.4,95.3z M486.2,95.3l1.5,2.3
		c0,4.3-10.7,12.3-32.1,23.9c-23.9,15.4-36.9,23.1-38.9,23.1v-1.5c0-5.1,5.5-10.1,16.5-15C437.6,124.7,455.3,113.7,486.2,95.3z
		 M311.1,98.3c4.5,1.8,6.8,6.8,6.8,15v3c5,4.5,7.5,8.5,7.5,12v0.8l-1.5,1.5h-0.8l-4.5-3h-2.2c-14,20.7-28.9,33.9-44.9,39.6
		l32.1-32.1l6.8-8.3v-2.2c-6-5.5-9-8.9-9-10.5C302.5,103.6,305.8,98.3,311.1,98.3z M603,102.8v2.3c0,1.8,3,3.5,9,5.2v-4.5
		c0-2.7-1.2-4.7-3.7-6C605.5,99.8,603.8,100.8,603,102.8z M209.3,102.1v0.7c0.8,2,2.6,3,5.3,3h0.7v-0.7c0-2.6-0.7-4.1-2.2-4.5h-2.3
		L209.3,102.1z M377.7,107.3c0.8,2.3,2.3,4,4.5,5.3h1.5l1.5-1.5v-2.3c0-2.6-0.8-4.1-2.3-4.5h-2.2L377.7,107.3z M262.5,104.3h0.7v0.8
		l-1.5,13.5c0,3.3,1.8,6.3,5.3,9h1.5c1.1-0.3,2.4-2.3,3.7-6h0.8l0.7,0.7v0.8c-1.6,9.4-3.8,14.2-6.7,14.2c-5.5-1.7-8.3-7-8.3-15.7
		v-0.8C258.7,117.4,260,111.9,262.5,104.3z M102.3,105.8h3c3.5,2.6,5.2,5.4,5.2,8.3l-2.2,3h-1.5c-1.9-1.5-3.6-2.3-5.3-2.3l-1.5,2.3
		v12.7c-0.4,12.5-1.6,18.8-3.7,18.8h-0.8c-5.3-13.5-12.3-20.3-21-20.3c-2.5-2-3.7-4.5-3.7-7.5c0.5-4,1.7-6,3.7-6
		c3.5,0,10.5,6.3,21,18.8H97v-12.8C98.2,110.8,99.9,105.8,102.3,105.8z M307.4,110.3v0.8c0,1.3,2,2.3,6,3h0.7v-0.8
		c0-2.7-1-4.4-3-5.2h-1.5L307.4,110.3z M186.2,114.8l0.7,0.8v2.2c0,4.5-9,9.9-26.9,16.5c-37.9,19.2-59.5,31.2-65.1,35.9
		c-2,2.1-3,4.1-3,6c4,2.5,6,5,6,7.5v1.5l-1.5,1.5h-3c-4-2.1-6-4.9-6-8.2c0-10.3,5.7-17.8,17.2-22.5
		C133.4,139.2,160.6,125.5,186.2,114.8z M217.6,130.5h2.2c6.5,4.1,9.8,7.6,9.8,10.5c-3.2,5.8-5.5,8.8-6.8,9
		c-7-4.2-10.5-7.5-10.5-9.8C213.3,136.6,215.1,133.4,217.6,130.5z M496.7,143.2v1.5c-1.5,2.5-2.2,5.7-2.2,9.8v4.5
		c0,5.8,2.2,9,6.7,9.7c1.2-0.2,2.5-2.2,3.8-6h0.7l0.8,0.8v0.7c0,6.3-2,11.1-6,14.3h-0.8c-5.4,0-8.4-5-9-15V162
		C492.7,149.5,494.7,143.2,496.7,143.2z M611.9,146.2h1.5v1.5c-2.5,3.9-3.7,7.8-3.7,12c0.6,6.5,1.8,9.8,3.7,9.8h2.3
		c2-1.1,3-2.3,3-3.8h0.7l0.8,0.8h0.7c-1.6,8.4-4.3,12.7-8.2,12.7c-3.4,0-5.7-4.7-6.8-14.2C607.5,158.1,609.5,151.9,611.9,146.2z
		 M397.2,150.7c3.9,2.2,7.6,5.5,11.2,9.8v0.7c0,3.5-2,7.3-6,11.3h-1.5c-5.2-5-8.9-7.5-11.2-7.5c-3.1,6.1-5.3,9.5-6.8,10.5
		c-5.9-2.1-10.4-5.6-13.5-10.5c1.7-5.4,4-9.1,6.8-11.3l12,6c1.9-0.9,3.9-3.6,6-8.2l0.7-0.8H397.2z M226.6,156.7
		c10.4,9.3,15.7,15.3,15.7,18v0.8h-6v1.5c9,14.2,13.5,24.2,13.5,29.9l0.8,10.5c0,7.1-5,12.6-15,16.5c-1.4,0-2.7,7-3.8,21v5.2
		c0,6,4.3,11.7,12.8,17.3l8.2,2.2h9c20.1-5.9,37.8-19.4,53.2-40.4v-3l-1.5-1.5l-18.8,3.8c-10-2-15-7-15-15c0-10.1,5-17.9,15-23.2
		h0.8c6.5,0,13.9,5.5,22.5,16.5h1.5c3.3-0.2,7.5-2.7,12.7-7.5v-0.7l-15.7-25.4l-4.5-9l2.2-12.8h1.5c11,9.4,16.5,14.9,16.5,16.5
		l-4.5,1.5v2.3c7.5,8,11.3,17.3,11.3,27.6v2.3c0,6.9-5.5,13.3-16.5,19.5c0,19.2-14.7,37.9-44.2,56.1c-7.1,5-14.5,7.5-22.5,7.5H255
		c-14.8,0-24.2-9-28.4-26.9v-6l3.7-29.1l-11.2-6.8c-1.3,0-3.8,3.5-7.5,10.5l-8.3,3c-4.8-0.8-9.5-3.5-14.2-8.2c-7.1,6-13.5,9-19.5,9
		l-0.8,0.7v2.3l0.8,2.2c0,15.6-6.5,27.4-19.5,35.2c-18,14.4-36.4,21.7-55.4,21.7c-21.1,0-33.6-10.5-37.4-31.4l-0.8-6.7
		c0-9.2,2.3-20.5,6.8-33.7C57.8,220,55,212.3,55,207.4v-3c0-7.6,3-21.6,9-41.9h1.5C62,183,60.3,196.1,60.3,202s2.7,11.1,8.2,15.9
		h0.8c1.7,0,3.4-3.3,5.2-9.8H76v1.5h0.8c0,8.1-3.8,16.6-11.3,25.4c-2,6.5-3,12.4-3,18v6c0,12.6,6.8,21.1,20.3,25.4
		c3.1,1.5,8.1,2.3,15,2.3h1.5c22.6,0,44.1-11.2,64.4-33.7v-3.7c0-2.9-3.5-11.4-10.5-25.4v-5.3c0.3-3,1-4.5,2.2-4.5h0.8
		c4.4,7.5,8.1,11.3,11.2,11.3l5.3,0.7c10.4-3.1,15.7-6.3,15.7-9.7l6-6.8h1.5l-0.7,9c3.1,3.5,5.9,5.3,8.2,5.3h1.5
		c5.8,0,10.3-5.5,13.5-16.5l0.8-0.8h1.5c0,6.3,5.2,10,15.7,11.3c4.4,0,7.2-1.3,8.3-3.8v-1.5c-10.2-16.6-17.4-30.8-21.8-42.6
		C223.6,160.9,224.8,156.7,226.6,156.7z M158.4,161.2h0.8l-1.5,9v6c0,4.2,1.7,7.5,5.2,9.8h1.5c2-0.8,3-2.6,3-5.3h1.5v1.5
		c-0.7,9-2.7,13.5-6,13.5c-6-3-9-8.7-9-17.2C155.5,166.9,157,161.2,158.4,161.2z M442.8,165.7c11.5,10.7,17.3,17,17.3,18.8l-0.8,0.7
		h-5.2v1.5l12,23.2l1.5,7.5c0,14.2-4.8,24.4-14.3,30.6c-5.5,4.5-8.2,9.2-8.2,14.3v4.5c0,10.6,5.7,18.1,17.2,22.5l9.8,0.7
		c18,0,39.6-15.2,65.1-45.6v-3l-2.2-2.3l-21,3.8h-0.8c-11.4,0-17.2-5.3-17.2-15.8c2.1-16,8.6-23.9,19.5-23.9
		c6.9,0,14.8,5.8,23.9,17.3h0.7c3.3,0,11.6-5.5,24.7-16.5h3.7c0,10.8,3.3,17.6,9.8,20.2l6,1.5h4.5c9.9,0,18.6-8.7,26.1-26.1l0.8-0.8
		h2.2l-3,11.3v0.7c3.5,5.5,9.2,8.3,17.3,8.3h0.7c2.7,0,4.4-1,5.3-3v-2.3l-3.8-5.2l2.3-12.8h1.5c2.6,0,4.8,6,6.7,18
		c0,11.4-4.2,18.1-12.7,20.3h-4.5c-5.1,0-11.1-3.3-18-9.8h-0.8c-7.2,10.5-14.9,15.8-23.1,15.8h-2.3c-9.2,0-15.7-5.3-19.5-15.8
		c0-2-0.5-3-1.5-3h-0.7c-12,8-18,13.7-18,17.3c0,19.4-17.2,39.8-51.7,61.4c-8.9,3.5-15.4,5.2-19.5,5.2h-5.2
		c-12.6,0-21.6-8.2-26.9-24.6l-0.8-6.8l0.8-12.7H439c-33.2,23.5-58.1,36-74.8,37.4l-29.9,6.7l-0.8-0.7v-0.8
		c2.5-2.3,17.2-9,44.2-20.2c28.1-15.4,49.6-29.2,64.4-41.2c5.9-3.5,12.1-9.2,18.7-17.2V224c0-3.3-5.2-13.8-15.7-31.4l-6-15
		C440.2,169.7,441.5,165.7,442.8,165.7z M412.2,178.4v0.7c0,5.9-4.3,15.4-12.8,28.4v1.5c11,7.8,16.5,14.6,16.5,20.3
		c-1.9,13-4.4,19.5-7.5,19.5c-9,8.4-17,12.7-23.9,12.7c-6.5-2.9-9.7-7.9-9.7-15c0-7.2,2.5-16.8,7.5-29.1c-14-11.6-21-19.4-21-23.2
		l-0.8-4.5l1.5-5.2h2.3c2.5,1.9,8.7,4.4,18.7,7.5l0.8,0.7v0.8l-3.8,3.7v0.8c0.5,1.2,3.3,3.2,8.3,6h2.2l20.3-25.4h1.4V178.4z
		 M116.5,206.9v0.7c-2,8.8-3,15.8-3,21v3.8c1.1,8,3.6,12,7.5,12c3-1.9,4.5-4.7,4.5-8.3h0.8c1,0,1.5,0.8,1.5,2.3
		c-1.9,12-4.4,18-7.5,18h-3c-6-4.7-9-11-9-18.8C111.3,217.1,114,206.9,116.5,206.9z M289.4,218.9v1.5c0.5,1.5,2,2.2,4.5,2.2h5.2
		l3.8-0.7v-3l-7.5-2.3C291.7,216.6,289.7,217.3,289.4,218.9z M505.7,223.3v1.5c0,1.3,2.8,2.3,8.3,3c7-0.5,10.5-1.5,10.5-3
		c-2.7-3.5-5.5-5.3-8.3-5.3h-6.7L505.7,223.3z M380.7,237.5v2.3c0,4,2,6,6,6h1.5c13.4-4.1,20.2-8.5,20.2-13.5
		c-4.9-5.1-11.1-8.5-18.7-10.5C385.4,226.1,382.4,231.3,380.7,237.5z M627.7,252.5v1.5c0,8.4-3.3,14.2-9.8,17.3l-7.5-1.5l-9.7,5.2
		l-9.8-3.7c-3.5,0-14.2,6.2-32.1,18.7l-10.5,3h-0.8v-1.5c3.8-1.3,16.8-10,38.9-26.1l6-2.3c5.3,2.5,8.9,3.8,10.8,3.8s5.5-3,11-9
		c0.7,3,2.5,4.5,5.2,4.5h2.3c1.1-0.4,2.6-3.7,4.5-9.8L627.7,252.5L627.7,252.5z M192.8,259.3h0.8l-1.5,14.2c1.5,5.5,3,8.3,4.5,8.3
		h2.2c1,0,2-1.5,3-4.5h1.5c-1.5,9-4,13.5-7.5,13.5c-3.9,0-6.4-5.5-7.5-16.5C190.1,264.3,191.6,259.3,192.8,259.3z M344,265.3
		c7.5,4.2,11.3,7.9,11.3,11.2v0.8c-2.9,4.5-5.1,7.2-6.8,8.2H347l-9-6h-1.5l-7.5,8.3l-12-6.8v-2.2c0-3.3,2.3-6.8,6.8-10.5h1.5
		c5,3.5,8.5,5.2,10.5,5.2C339.8,268,342.5,265.3,344,265.3z"/>
</g>
</svg>
