<?xml version="1.0" encoding="utf-8"?>
<!-- Generator: Adobe Illustrator 25.2.3, SVG Export Plug-In . SVG Version: 6.00 Build 0)  -->
<svg version="1.1" id="Layer_1" xmlns="http://www.w3.org/2000/svg" xmlns:xlink="http://www.w3.org/1999/xlink" x="0px" y="0px"
	 viewBox="0 0 700 395" style="enable-background:new 0 0 700 395;" xml:space="preserve">
<style type="text/css">
	.st0{fill:#000222;}
	.st1{fill:#FFFFFF;}
</style>
<g id="Layer_1_1_">
	<rect y="-0.5" class="st0" width="700" height="395"/>
</g>
<g id="Layer_3">
	<g>
		<path class="st1" d="M273.5,368.6l1.1,4.2c0.2,0.9,0.5,1.8,0.6,2.6h0.1c0.2-0.8,0.5-1.7,0.7-2.6l1.3-4.2h1.3l1.3,4.1
			c0.3,1,0.5,1.9,0.7,2.7h0.1c0.1-0.8,0.4-1.7,0.6-2.7l1.2-4.1h1.5l-2.7,8.2H280l-1.3-3.9c-0.3-0.9-0.5-1.7-0.7-2.7l0,0
			c-0.2,1-0.5,1.8-0.7,2.7l-1.3,3.9h-1.4l-2.5-8.2H273.5z"/>
		<path class="st1" d="M286.3,368.6l1.1,4.2c0.2,0.9,0.5,1.8,0.6,2.6h0.1c0.2-0.8,0.5-1.7,0.7-2.6l1.3-4.2h1.3l1.3,4.1
			c0.3,1,0.5,1.9,0.7,2.7h0.1c0.1-0.8,0.4-1.7,0.6-2.7l1.2-4.1h1.5l-2.7,8.2h-1.4l-1.3-3.9c-0.3-0.9-0.5-1.7-0.7-2.7l0,0
			c-0.2,1-0.5,1.8-0.7,2.7l-1.3,3.9h-1.4l-2.5-8.2H286.3z"/>
		<path class="st1" d="M299,368.6l1.1,4.2c0.2,0.9,0.5,1.8,0.6,2.6h0.1c0.2-0.8,0.5-1.7,0.7-2.6l1.3-4.2h1.3l1.3,4.1
			c0.3,1,0.5,1.9,0.7,2.7h0.1c0.1-0.8,0.4-1.7,0.6-2.7l1.2-4.1h1.5l-2.7,8.2h-1.4l-1.3-3.9c-0.3-0.9-0.5-1.7-0.7-2.7l0,0
			c-0.2,1-0.5,1.8-0.7,2.7l-1.3,3.9H300l-2.5-8.2H299z"/>
		<path class="st1" d="M309.9,375.9c0-0.6,0.4-1.1,1-1.1s1,0.4,1,1.1c0,0.6-0.4,1.1-1,1.1S309.9,376.5,309.9,375.9z"/>
		<path class="st1" d="M313.5,375.3c0.4,0.3,1.2,0.6,2,0.6c1.1,0,1.6-0.5,1.6-1.2s-0.4-1.1-1.5-1.5c-1.5-0.5-2.2-1.3-2.2-2.3
			c0-1.3,1.1-2.4,2.8-2.4c0.8,0,1.6,0.2,2,0.5l-0.4,1.1c-0.3-0.2-0.9-0.5-1.7-0.5c-0.9,0-1.4,0.5-1.4,1.1c0,0.7,0.5,1,1.6,1.4
			c1.4,0.5,2.2,1.3,2.2,2.5c0,1.4-1.1,2.5-3.1,2.5c-0.9,0-1.7-0.2-2.3-0.6L313.5,375.3z"/>
		<path class="st1" d="M327.4,374.6c0,0.9,0,1.6,0.1,2.2h-1.3l-0.1-1.3l0,0c-0.4,0.7-1.3,1.5-2.7,1.5c-1.3,0-2.8-0.7-2.8-3.6v-4.8
			h1.5v4.6c0,1.6,0.5,2.6,1.8,2.6c1,0,1.7-0.7,2-1.4c0.1-0.2,0.1-0.5,0.1-0.8v-5h1.5v6H327.4z"/>
		<path class="st1" d="M329.8,371.1c0-1,0-1.8-0.1-2.6h1.3l0.1,1.6h0.1c0.4-1.1,1.3-1.8,2.3-1.8c0.2,0,0.3,0,0.4,0.1v1.4
			c-0.2,0-0.3-0.1-0.5-0.1c-1.1,0-1.8,0.8-2,1.9c0,0.2-0.1,0.4-0.1,0.7v4.4h-1.5L329.8,371.1L329.8,371.1z"/>
		<path class="st1" d="M339.9,376.8l-0.1-1h-0.1c-0.5,0.6-1.3,1.2-2.5,1.2c-1.7,0-2.5-1.2-2.5-2.4c0-2,1.8-3.1,4.9-3.1v-0.2
			c0-0.7-0.2-1.9-1.9-1.9c-0.8,0-1.6,0.2-2.1,0.6l-0.3-1c0.7-0.4,1.7-0.7,2.7-0.7c2.5,0,3.1,1.7,3.1,3.4v3.1c0,0.7,0,1.4,0.1,2
			H339.9z M339.7,372.6c-1.6,0-3.5,0.3-3.5,1.9c0,1,0.6,1.4,1.4,1.4c1.1,0,1.8-0.7,2-1.4c0.1-0.2,0.1-0.3,0.1-0.5V372.6z"/>
		<path class="st1" d="M343.5,364.7h1.5v5.1l0,0c0.2-0.4,0.6-0.8,1.1-1.1c0.4-0.3,1-0.4,1.5-0.4c1.1,0,2.9,0.7,2.9,3.5v4.9H349V372
			c0-1.3-0.5-2.4-1.9-2.4c-1,0-1.7,0.7-2,1.5c-0.1,0.2-0.1,0.4-0.1,0.7v5h-1.5V364.7z"/>
		<path class="st1" d="M358.6,375.5L358.6,375.5c-0.5,0.8-1.4,1.5-2.7,1.5c-1.9,0-3.5-1.7-3.5-4.2c0-3.1,2-4.4,3.7-4.4
			c1.3,0,2.1,0.6,2.5,1.4l0,0l0.1-1.2h1.4c0,0.7-0.1,1.4-0.1,2.3v9.3h-1.5v-4.7H358.6z M358.6,371.9c0-0.2,0-0.4-0.1-0.6
			c-0.2-0.9-1-1.7-2.1-1.7c-1.5,0-2.5,1.3-2.5,3.2c0,1.6,0.8,3.1,2.4,3.1c1,0,1.8-0.6,2.1-1.6c0.1-0.2,0.1-0.5,0.1-0.7v-1.7H358.6z"
			/>
		<path class="st1" d="M369.4,374.6c0,0.9,0,1.6,0.1,2.2h-1.3l-0.1-1.3l0,0c-0.4,0.7-1.3,1.5-2.7,1.5c-1.3,0-2.8-0.7-2.8-3.6v-4.8
			h1.5v4.6c0,1.6,0.5,2.6,1.8,2.6c1,0,1.7-0.7,2-1.4c0.1-0.2,0.1-0.5,0.1-0.8v-5h1.5v6H369.4z"/>
		<path class="st1" d="M371.9,371.1c0-1,0-1.8-0.1-2.6h1.3l0.1,1.6h0.1c0.4-1.1,1.3-1.8,2.3-1.8c0.2,0,0.3,0,0.4,0.1v1.4
			c-0.2,0-0.3-0.1-0.5-0.1c-1.1,0-1.8,0.8-2,1.9c0,0.2-0.1,0.4-0.1,0.7v4.4h-1.5L371.9,371.1L371.9,371.1z"/>
		<path class="st1" d="M381.9,376.8l-0.1-1h-0.1c-0.5,0.6-1.3,1.2-2.5,1.2c-1.7,0-2.5-1.2-2.5-2.4c0-2,1.8-3.1,4.9-3.1v-0.2
			c0-0.7-0.2-1.9-1.9-1.9c-0.8,0-1.6,0.2-2.1,0.6l-0.3-1c0.7-0.4,1.7-0.7,2.7-0.7c2.5,0,3.1,1.7,3.1,3.4v3.1c0,0.7,0,1.4,0.1,2
			H381.9z M381.7,372.6c-1.6,0-3.5,0.3-3.5,1.9c0,1,0.6,1.4,1.4,1.4c1.1,0,1.8-0.7,2-1.4c0.1-0.2,0.1-0.3,0.1-0.5V372.6z"/>
		<path class="st1" d="M385.6,370.8c0-0.9,0-1.5-0.1-2.2h1.3l0.1,1.4l0,0c0.4-0.8,1.4-1.5,2.7-1.5c1.1,0,2.9,0.7,2.9,3.5v4.9H391
			v-4.7c0-1.3-0.5-2.4-1.9-2.4c-1,0-1.8,0.7-2,1.5c-0.1,0.2-0.1,0.4-0.1,0.7v4.9h-1.5v-6.1H385.6z"/>
		<path class="st1" d="M394.6,375.9c0-0.6,0.4-1.1,1-1.1s1,0.4,1,1.1c0,0.6-0.4,1.1-1,1.1S394.6,376.5,394.6,375.9z"/>
		<path class="st1" d="M404.4,376.5c-0.4,0.2-1.3,0.5-2.4,0.5c-2.5,0-4.1-1.7-4.1-4.2s1.7-4.4,4.4-4.4c0.9,0,1.7,0.2,2.1,0.4
			l-0.3,1.2c-0.4-0.2-0.9-0.4-1.7-0.4c-1.9,0-2.9,1.4-2.9,3.1c0,1.9,1.2,3.1,2.9,3.1c0.8,0,1.4-0.2,1.8-0.4L404.4,376.5z"/>
		<path class="st1" d="M413.5,372.6c0,3-2.1,4.4-4.1,4.4c-2.2,0-3.9-1.6-3.9-4.2c0-2.8,1.8-4.4,4.1-4.4
			C411.9,368.4,413.5,370.1,413.5,372.6z M406.9,372.7c0,1.8,1,3.2,2.5,3.2c1.4,0,2.5-1.3,2.5-3.2c0-1.4-0.7-3.2-2.5-3.2
			S406.9,371.1,406.9,372.7z"/>
		<path class="st1" d="M415.4,370.8c0-0.9,0-1.5-0.1-2.2h1.3l0.1,1.3h0.1c0.5-0.8,1.2-1.5,2.6-1.5c1.1,0,2,0.7,2.3,1.6l0,0
			c0.3-0.5,0.6-0.8,0.9-1.1c0.5-0.4,1-0.6,1.8-0.6c1.1,0,2.7,0.7,2.7,3.6v4.8h-1.5V372c0-1.6-0.6-2.5-1.8-2.5
			c-0.9,0-1.5,0.6-1.8,1.4c-0.1,0.2-0.1,0.5-0.1,0.7v5.1h-1.5v-4.9c0-1.3-0.6-2.3-1.7-2.3c-0.9,0-1.6,0.7-1.9,1.5
			c-0.1,0.2-0.1,0.5-0.1,0.7v5h-1.5v-5.9H415.4z"/>
	</g>
	<path class="st1" d="M275.7,76.7h0.9c6.4,1.6,9.6,6.2,9.6,13.7c0,5.4-1.1,10.5-3.2,15.2l6.4,12.1l0.7,4c-0.5,4.9-1.6,7.3-3.2,7.3
		l-8-7.3h-1.6c-22.5,26.3-37.3,39.4-44.1,39.4c-3.7,3.2-9.1,5.6-16.1,7.2v-0.7c25.5-20.4,42.9-35.7,52.1-45.8l2.5-4.8l-10.5-10.4
		l-0.7-4.1C263.5,86.1,268.6,77.5,275.7,76.7z M200.3,78.3h1.6c3.3,2.4,5.7,5.9,7.3,10.5c-1,3.7-2.1,5.6-3.2,5.6l-8-6.4
		c-2.5,0-4.1,8.3-4.8,24.9l-4.1,12.8h-0.7c-1.3-0.2-4.2-5-8.9-14.5l-7.2-7.3h-0.9l-9.6,13.7c-10.1,7.9-18.9,12.5-26.4,13.6h-0.9
		v-0.7c19.3-12.9,29.7-21.8,31.4-26.5v-0.7c-5.4-5.4-8-8.9-8-10.5c1.1-5.4,2.5-8,4-8c6.3,0,14.8,8.6,25.7,25.7v1.6h2.5
		C189.9,89.5,193.3,78.3,200.3,78.3z M364,82.3c2.3,0.3,4.2,2.7,5.7,7.2l-0.9,15.3l7.3,8l0.7,4.8c-0.8,2.1-1.6,3.2-2.4,3.2
		c-5.4-3.8-8.8-5.7-10.5-5.7h-0.7c-14,14.3-23.4,21.5-28.2,21.7c-0.9,1.5-5.9,3.9-15.2,7.2h-0.9v-1.6c0.9-1.6,9.2-7.2,24.9-16.8
		c9.6-8.1,14.5-13,14.5-14.5l-6.4-10.5C355,88.5,359,82.3,364,82.3z M544.7,83.1c4.3,0,7,3.2,8,9.6c-0.6,3.2-1.4,4.8-2.5,4.8h-0.7
		c-3.3-3.2-6-4.8-8-4.8c-3.8,0-5.7,11-5.7,33l-2.4,10.4h-1.6c-8.5-16.1-16.3-24.1-23.3-24.1c-4.3-2.4-6.4-5.3-6.4-8.8h-0.7
		c1.1-4.9,2.7-7.3,4.8-7.3c5.6,1,13.8,8.5,24.8,22.5h0.9c0-19.1,3.7-30.8,11.2-35.3C543.1,83.1,544.7,83.1,544.7,83.1z M605.7,85.5
		h1.6c3.2,0,5.6,8.6,7.2,25.7c3.2,2.1,4.8,4.8,4.8,8c-0.5,2.1-1.6,3.2-3.2,3.2c-3.2-2.1-5.6-3.2-7.2-3.2
		c-20.4,19.6-40.5,32.9-60.3,40.1h-4v-1.6l48.2-31.4l9.6-8.8V115c-5.4-5.1-8-9.3-8-12.8C596.7,91.1,600.4,85.5,605.7,85.5z
		 M474.8,87.1v1.6h0.9c0,4.4-10.2,11.6-30.5,21.6c-25.8,15.7-41.3,24.5-46.6,26.5l-0.9-2.5c0-4.7,12.1-13.3,36.2-25.7
		C458.1,94.3,471.7,87.1,474.8,87.1z M267.7,94.3v1.6c0.5,1.4,3.2,3.8,8,7.3h1.6l1.6-1.6c-0.4-8.6-2-12.8-4.8-12.8h-0.7
		C269.6,88.7,267.7,90.6,267.7,94.3z M92.7,89.5h1.6v0.9c-3.7,11.5-5.6,20.1-5.6,25.9s2.1,10.2,6.4,13.4h2.4l4.1-4h0.7v2.4
		c-1.4,6.4-3.6,10.4-6.4,12.1c-6.1,0-9.8-6.2-11.2-18.5C84.6,113,87.3,102.3,92.7,89.5z M357.6,95.9c1.1,3.2,3.2,4.8,6.4,4.8
		l0.9-0.7v-2.5c0-2.8-0.8-4.4-2.5-4.8h-1.6L357.6,95.9z M599.3,98.4v1.6c2.2,3.1,4.6,5.2,7.2,6.4h0.9l1.6-1.6v-1.6
		c0-4.1-1.4-6.8-4.1-8h-2.4L599.3,98.4z M484.4,136.1v0.9l-3.2,16.8v1.6c0,6.1,2.7,9.6,8,10.5c1.6-1.9,2.5-4.1,2.5-6.4h2.4
		c0,7.4-2.1,12.8-6.4,16.1H486c-5.5,0-8.7-5.6-9.6-16.9C478.7,146.8,481.4,139.3,484.4,136.1z M377.7,142.5
		c7.5,5.4,11.2,9.7,11.2,13s-2.4,7-7.3,11.1h-0.7c-6.6-5.4-10.6-8-12.1-8c-3.9,7-6.8,10.5-8.8,10.5h-0.9c-8-5.9-12-9.6-12-11.2
		c2.1-8.1,4.3-12.1,6.4-12.1l12,5.7h1.6C371.5,145.4,375,142.5,377.7,142.5z M608.9,144.1l0.7,0.9l-4,10.4v3.2
		c0,8.1,1.6,12.1,4.8,12.1l4.8-4.1h0.7v0.9c0,6.6-2.7,10.9-8,12.8c-4.8-2.6-7.2-7.4-7.2-14.5C602.6,155.4,605.3,148.2,608.9,144.1z
		 M185.8,145.7v0.9l-3.2,20c0,4.5,1.9,8,5.7,10.5h1.6c1,0,2.1-1.6,3.2-4.8h0.7l0.9,0.7c-2.2,9.6-4.4,14.5-6.4,14.5h-2.5
		c-4.8-3.1-7.2-8.6-7.2-16.3C178.6,163.5,181,155,185.8,145.7z M423.4,161h2.5c11.8,11.2,17.7,17.6,17.7,19.3l-6.4,3.2
		c9.1,15.3,13.6,26.6,13.6,33.7c0,15.9-7.2,28.2-21.6,36.9c-2.1,4.6-3.2,8.1-3.2,10.4v4.1c0,14.8,8.8,23.4,26.4,25.7
		c21.5,0,45.6-15.5,72.3-46.6v-3.2l-2.4-2.5c-8.1,2.1-16.4,3.2-24.9,3.2c-9.4,0-14.8-5.9-16.1-17.7V226
		c3.5-16.1,10.2-24.1,20.1-24.1c8.1,0,16.9,6.4,26.4,19.3h2.5c2,0,10.8-5.6,26.4-16.8h2.5l1.6,1.6v8.8c3.1,8.6,7.7,12.8,13.6,12.8
		l5.7,0.9c12.3,0,21.6-8.6,28-25.7l2.5-1.6h1.6l1.6,1.6l-3.2,8.8v2.5c4.5,5.9,10.1,8.8,16.8,8.8c4.3-0.5,6.4-1.3,6.4-2.4
		c0-3.5-1.3-6.7-4-9.6l3.2-12.8h1.6c2.6,0,5.2,6.4,8,19.3c0,11.7-5.1,19.2-15.3,22.5h-1.6c-7.1,0-14.6-3.7-22.5-11.2h-0.7
		c-6.7,10.7-15.6,16.1-26.6,16.1s-18.7-7-23.2-20.9c-13.4,8.2-20.1,13.8-20.1,16.8c0,19.1-15.2,38.3-45.7,57.8
		c-11.1,8.1-21.6,12.1-31.4,12.1h-4.8c-17.7,0-27.9-11.2-30.5-33.7v-13.7h-2.4c-29,20.5-54.7,32.8-77.1,36.9l-35.3,5.7v-0.9
		c3-3.4,17.4-9.6,43.4-18.4c35.3-18.8,62.1-34.9,80.3-48.2c9.6-8.2,14.5-14.1,14.5-17.7c-11.5-20.4-18.7-36.2-21.7-47.4L423.4,161z
		 M93.5,165.8h0.7l21.7,12c0,1.6-0.8,2.5-2.5,2.5l-0.7,0.7v1.6c4.3,4.6,15.2,10.8,32.9,18.5c10.2,6.9,15.3,15.5,15.3,25.7v1.6
		c0,9.3-4,16.5-12.1,21.6c-3.7,9.6-5.6,16.9-5.6,21.7v8.8c0,7.2,5.6,12.3,16.8,15.3h8c18.1,0,39.2-11.8,63.5-35.3v-0.9
		c-0.4-1.6-1.5-2.6-3.2-3.2l-13.7,1.6c-14.4,0-21.6-6.4-21.6-19.3v-1.6c0-9.5,6.1-16.7,18.4-21.6h0.9c6.5,0,14.5,7.5,24.1,22.5
		c4.3,0,8.6-1.6,12.8-4.8l-0.9-9.6V222c0-8,3.7-18.2,11.2-30.5c0.7-9.6,1.8-14.5,3.2-14.5c13.9,5.1,21.2,8.3,21.7,9.6v0.7
		c0,1.1-0.8,1.6-2.5,1.6l-0.7,0.9v0.7c1.4,2.4,10.8,7.8,28,16.1c8.1,5.7,12.1,13.2,12.1,22.5v4.8c-1.4,12.3-6.5,18.5-15.3,18.5h-4.8
		c-4.6,0-17.9-2.1-40.1-6.4c-16.1,4.1-24.1,8.6-24.1,13.6c0,14.1-15.8,29.6-47.3,46.6c-9.7,4.3-18.6,6.4-26.5,6.4
		c-16,0-24.8-9.1-26.4-27.3v-1.6c0-4.9,1.3-13.1,4-24.8l-0.7-0.9c-36,22.5-58.4,33.7-67.4,33.7c-6.8,0-11.9-6.7-15.3-20
		c0-16.8,4.3-34.4,12.8-53c-4.3-6.2-6.4-13.2-6.4-20.9c2.9-19.3,5.5-28.9,8-28.9h0.9v0.7l-4.1,23.3v2.4c0,7.6,2.7,11.9,8,12.8l4.1-8
		h0.7l0.9,2.5c0,3-5.4,15.3-16.1,36.9L63,254.9v7.3c0,6.7,3.5,11,10.4,12.8h3.2c13.6-2.4,38.8-16.6,75.5-42.6l0.9-3.2v-1.6
		c-4-6.5-17.4-14.8-40.1-24.8c-10.3-9.3-17.5-16.6-21.7-21.7v-6.4C91.1,168.7,91.9,165.8,93.5,165.8z M390.6,173h1.6
		c0,8.1-4.6,18-13.7,29.8v2.4c11.3,8.8,16.9,16.1,16.9,21.7c0,14.3-6.2,23.9-18.5,28.9c-2.6,2.6-7.7,4.5-15.2,5.6
		c-7.5-2.2-11.2-7-11.2-14.5c0-9.3,2.9-20.2,8.8-32.9c-15-13.3-22.5-21.6-22.5-24.9v-2.4c0-5.9,0.8-8.9,2.5-8.9
		c12.7,3.8,19.9,7,21.6,9.6v2.5c-2.1,0.2-3.2,1-3.2,2.4c0.3,1.6,3.8,4,10.5,7.3C368.9,199.5,376.4,190.7,390.6,173z M255.7,217.2
		v1.6c4.9,5.4,8.6,8,11.2,8c5.1,0,9.3-2.4,12.8-7.3v-2.4c0-4.3-3.5-9.4-10.5-15.3h-4C261,204.7,257.8,209.8,255.7,217.2z M283,230.8
		c0,3.2,8.6,5.1,25.7,5.7h2.4l3.2-1.6v-3.2c0-4.2-8-9.3-24.1-15.3h-0.7C288.2,217.2,286.1,222,283,230.8z M357.6,234.9v3.2
		c0,4.3,3,6.4,8.9,6.4c13.3-5.4,20-9.7,20-12.9s-6.1-7.5-18.4-12.8C364.2,220.7,360.7,226,357.6,234.9z M492.5,224.4v0.9
		c0,1.7,3.5,2.8,10.5,3.2c5.4-0.3,8-1.1,8-2.5c-0.6-1.4-3.1-3.3-7.3-5.6h-7.2L492.5,224.4z M204.3,234.9v2.4c0,2.7,4.8,4.1,14.5,4.1
		v-1.6c-2.3-3.1-4.7-5.2-7.3-6.4h-4L204.3,234.9z M621.8,258.9l0.7,0.7v1.6c-2.1,11.8-5.9,17.7-11.2,17.7h-0.7l-5.7-1.6l-13.6,4.8
		c-1.7,0-3.9-1.1-6.4-3.2h-5.7c-2.2,0-13.5,6.4-33.7,19.3l-10.4,1.6v-1.6c2.9,0,16.5-8.8,40.9-26.4l9.6-2.5l8.9,4.1
		c4.1,0,8.3-3.2,12.8-9.6h0.7c0,3.4,2.1,5.2,6.4,5.6h0.9c1.6,0,2.4-1.6,2.4-4.8L621.8,258.9z M276.6,262.9l0.7,0.9l-4.8,19.3
		c0.7,8,2.3,12,4.8,12h1.6l4.8-5.6h0.9c0,7.2-2.7,12.6-8,16.1c-5.9-2.3-8.9-7.9-8.9-16.9C271.1,272.6,274.1,264,276.6,262.9z
		 M122.4,286.2v1.6c0,4.8-9.4,9.8-28.2,15.2c0,1.2-2.4,2.3-7.2,3.2h-0.9C86.3,300,98.3,293.3,122.4,286.2z M122.4,299.8v1.6h0.7
		c0,4.2-9.3,8.8-28,13.7l-5.7,3.2h-3.2v-2.5C86.3,312,98.3,306.7,122.4,299.8z"/>
</g>
</svg>
