<?xml version="1.0" encoding="utf-8"?>
<!-- Generator: Adobe Illustrator 25.2.3, SVG Export Plug-In . SVG Version: 6.00 Build 0)  -->
<svg version="1.1" id="Layer_1" xmlns="http://www.w3.org/2000/svg" xmlns:xlink="http://www.w3.org/1999/xlink" x="0px" y="0px"
	 viewBox="0 0 700 395" style="enable-background:new 0 0 700 395;" xml:space="preserve">
<style type="text/css">
	.st0{fill:#000222;}
	.st1{fill:#FFFFFF;}
</style>
<g id="Layer_1_1_">
	<rect y="-0.5" class="st0" width="700" height="395"/>
</g>
<g id="Layer_3">
	<g>
		<path class="st1" d="M273.5,368.6l1.1,4.2c0.2,0.9,0.5,1.8,0.6,2.6h0.1c0.2-0.8,0.5-1.7,0.7-2.6l1.3-4.2h1.3l1.3,4.1
			c0.3,1,0.5,1.9,0.7,2.7h0.1c0.1-0.8,0.4-1.7,0.6-2.7l1.2-4.1h1.5l-2.7,8.2H280l-1.3-3.9c-0.3-0.9-0.5-1.7-0.7-2.7l0,0
			c-0.2,1-0.5,1.8-0.7,2.7l-1.3,3.9h-1.4l-2.5-8.2H273.5z"/>
		<path class="st1" d="M286.3,368.6l1.1,4.2c0.2,0.9,0.5,1.8,0.6,2.6h0.1c0.2-0.8,0.5-1.7,0.7-2.6l1.3-4.2h1.3l1.3,4.1
			c0.3,1,0.5,1.9,0.7,2.7h0.1c0.1-0.8,0.4-1.7,0.6-2.7l1.2-4.1h1.5l-2.7,8.2h-1.4l-1.3-3.9c-0.3-0.9-0.5-1.7-0.7-2.7l0,0
			c-0.2,1-0.5,1.8-0.7,2.7l-1.3,3.9h-1.4l-2.5-8.2H286.3z"/>
		<path class="st1" d="M299,368.6l1.1,4.2c0.2,0.9,0.5,1.8,0.6,2.6h0.1c0.2-0.8,0.5-1.7,0.7-2.6l1.3-4.2h1.3l1.3,4.1
			c0.3,1,0.5,1.9,0.7,2.7h0.1c0.1-0.8,0.4-1.7,0.6-2.7l1.2-4.1h1.5l-2.7,8.2h-1.4l-1.3-3.9c-0.3-0.9-0.5-1.7-0.7-2.7l0,0
			c-0.2,1-0.5,1.8-0.7,2.7l-1.3,3.9H300l-2.5-8.2H299z"/>
		<path class="st1" d="M309.9,375.9c0-0.6,0.4-1.1,1-1.1s1,0.4,1,1.1c0,0.6-0.4,1.1-1,1.1S309.9,376.5,309.9,375.9z"/>
		<path class="st1" d="M313.5,375.3c0.4,0.3,1.2,0.6,2,0.6c1.1,0,1.6-0.5,1.6-1.2s-0.4-1.1-1.5-1.5c-1.5-0.5-2.2-1.3-2.2-2.3
			c0-1.3,1.1-2.4,2.8-2.4c0.8,0,1.6,0.2,2,0.5l-0.4,1.1c-0.3-0.2-0.9-0.5-1.7-0.5c-0.9,0-1.4,0.5-1.4,1.1c0,0.7,0.5,1,1.6,1.4
			c1.4,0.5,2.2,1.3,2.2,2.5c0,1.4-1.1,2.5-3.1,2.5c-0.9,0-1.7-0.2-2.3-0.6L313.5,375.3z"/>
		<path class="st1" d="M327.4,374.6c0,0.9,0,1.6,0.1,2.2h-1.3l-0.1-1.3l0,0c-0.4,0.7-1.3,1.5-2.7,1.5c-1.3,0-2.8-0.7-2.8-3.6v-4.8
			h1.5v4.6c0,1.6,0.5,2.6,1.8,2.6c1,0,1.7-0.7,2-1.4c0.1-0.2,0.1-0.5,0.1-0.8v-5h1.5v6H327.4z"/>
		<path class="st1" d="M329.8,371.1c0-1,0-1.8-0.1-2.6h1.3l0.1,1.6h0.1c0.4-1.1,1.3-1.8,2.3-1.8c0.2,0,0.3,0,0.4,0.1v1.4
			c-0.2,0-0.3-0.1-0.5-0.1c-1.1,0-1.8,0.8-2,1.9c0,0.2-0.1,0.4-0.1,0.7v4.4h-1.5L329.8,371.1L329.8,371.1z"/>
		<path class="st1" d="M339.9,376.8l-0.1-1h-0.1c-0.5,0.6-1.3,1.2-2.5,1.2c-1.7,0-2.5-1.2-2.5-2.4c0-2,1.8-3.1,4.9-3.1v-0.2
			c0-0.7-0.2-1.9-1.9-1.9c-0.8,0-1.6,0.2-2.1,0.6l-0.3-1c0.7-0.4,1.7-0.7,2.7-0.7c2.5,0,3.1,1.7,3.1,3.4v3.1c0,0.7,0,1.4,0.1,2
			H339.9z M339.7,372.6c-1.6,0-3.5,0.3-3.5,1.9c0,1,0.6,1.4,1.4,1.4c1.1,0,1.8-0.7,2-1.4c0.1-0.2,0.1-0.3,0.1-0.5V372.6z"/>
		<path class="st1" d="M343.5,364.7h1.5v5.1l0,0c0.2-0.4,0.6-0.8,1.1-1.1c0.4-0.3,1-0.4,1.5-0.4c1.1,0,2.9,0.7,2.9,3.5v4.9H349V372
			c0-1.3-0.5-2.4-1.9-2.4c-1,0-1.7,0.7-2,1.5c-0.1,0.2-0.1,0.4-0.1,0.7v5h-1.5V364.7z"/>
		<path class="st1" d="M358.6,375.5L358.6,375.5c-0.5,0.8-1.4,1.5-2.7,1.5c-1.9,0-3.5-1.7-3.5-4.2c0-3.1,2-4.4,3.7-4.4
			c1.3,0,2.1,0.6,2.5,1.4l0,0l0.1-1.2h1.4c0,0.7-0.1,1.4-0.1,2.3v9.3h-1.5v-4.7H358.6z M358.6,371.9c0-0.2,0-0.4-0.1-0.6
			c-0.2-0.9-1-1.7-2.1-1.7c-1.5,0-2.5,1.3-2.5,3.2c0,1.6,0.8,3.1,2.4,3.1c1,0,1.8-0.6,2.1-1.6c0.1-0.2,0.1-0.5,0.1-0.7v-1.7H358.6z"
			/>
		<path class="st1" d="M369.4,374.6c0,0.9,0,1.6,0.1,2.2h-1.3l-0.1-1.3l0,0c-0.4,0.7-1.3,1.5-2.7,1.5c-1.3,0-2.8-0.7-2.8-3.6v-4.8
			h1.5v4.6c0,1.6,0.5,2.6,1.8,2.6c1,0,1.7-0.7,2-1.4c0.1-0.2,0.1-0.5,0.1-0.8v-5h1.5v6H369.4z"/>
		<path class="st1" d="M371.9,371.1c0-1,0-1.8-0.1-2.6h1.3l0.1,1.6h0.1c0.4-1.1,1.3-1.8,2.3-1.8c0.2,0,0.3,0,0.4,0.1v1.4
			c-0.2,0-0.3-0.1-0.5-0.1c-1.1,0-1.8,0.8-2,1.9c0,0.2-0.1,0.4-0.1,0.7v4.4h-1.5L371.9,371.1L371.9,371.1z"/>
		<path class="st1" d="M381.9,376.8l-0.1-1h-0.1c-0.5,0.6-1.3,1.2-2.5,1.2c-1.7,0-2.5-1.2-2.5-2.4c0-2,1.8-3.1,4.9-3.1v-0.2
			c0-0.7-0.2-1.9-1.9-1.9c-0.8,0-1.6,0.2-2.1,0.6l-0.3-1c0.7-0.4,1.7-0.7,2.7-0.7c2.5,0,3.1,1.7,3.1,3.4v3.1c0,0.7,0,1.4,0.1,2
			H381.9z M381.7,372.6c-1.6,0-3.5,0.3-3.5,1.9c0,1,0.6,1.4,1.4,1.4c1.1,0,1.8-0.7,2-1.4c0.1-0.2,0.1-0.3,0.1-0.5V372.6z"/>
		<path class="st1" d="M385.6,370.8c0-0.9,0-1.5-0.1-2.2h1.3l0.1,1.4l0,0c0.4-0.8,1.4-1.5,2.7-1.5c1.1,0,2.9,0.7,2.9,3.5v4.9H391
			v-4.7c0-1.3-0.5-2.4-1.9-2.4c-1,0-1.8,0.7-2,1.5c-0.1,0.2-0.1,0.4-0.1,0.7v4.9h-1.5v-6.1H385.6z"/>
		<path class="st1" d="M394.6,375.9c0-0.6,0.4-1.1,1-1.1s1,0.4,1,1.1c0,0.6-0.4,1.1-1,1.1S394.6,376.5,394.6,375.9z"/>
		<path class="st1" d="M404.4,376.5c-0.4,0.2-1.3,0.5-2.4,0.5c-2.5,0-4.1-1.7-4.1-4.2s1.7-4.4,4.4-4.4c0.9,0,1.7,0.2,2.1,0.4
			l-0.3,1.2c-0.4-0.2-0.9-0.4-1.7-0.4c-1.9,0-2.9,1.4-2.9,3.1c0,1.9,1.2,3.1,2.9,3.1c0.8,0,1.4-0.2,1.8-0.4L404.4,376.5z"/>
		<path class="st1" d="M413.5,372.6c0,3-2.1,4.4-4.1,4.4c-2.2,0-3.9-1.6-3.9-4.2c0-2.8,1.8-4.4,4.1-4.4
			C411.9,368.4,413.5,370.1,413.5,372.6z M406.9,372.7c0,1.8,1,3.2,2.5,3.2c1.4,0,2.5-1.3,2.5-3.2c0-1.4-0.7-3.2-2.5-3.2
			S406.9,371.1,406.9,372.7z"/>
		<path class="st1" d="M415.4,370.8c0-0.9,0-1.5-0.1-2.2h1.3l0.1,1.3h0.1c0.5-0.8,1.2-1.5,2.6-1.5c1.1,0,2,0.7,2.3,1.6l0,0
			c0.3-0.5,0.6-0.8,0.9-1.1c0.5-0.4,1-0.6,1.8-0.6c1.1,0,2.7,0.7,2.7,3.6v4.8h-1.5V372c0-1.6-0.6-2.5-1.8-2.5
			c-0.9,0-1.5,0.6-1.8,1.4c-0.1,0.2-0.1,0.5-0.1,0.7v5.1h-1.5v-4.9c0-1.3-0.6-2.3-1.7-2.3c-0.9,0-1.6,0.7-1.9,1.5
			c-0.1,0.2-0.1,0.5-0.1,0.7v5h-1.5v-5.9H415.4z"/>
	</g>
	<path class="st1" d="M557.5,97.1h3.5c3.3,2.1,4.9,4.9,4.9,8.4c-0.6,2.3-1.3,3.5-2.1,3.5h-0.7c-2.4-2.3-4.5-3.5-6.3-3.5h-1.4
		l-2.8,2.8v9.8l-0.7,10.5h0.7l-2.8,15.4h-2.1c-6-13.5-12.3-20.3-18.9-20.3c-4.7-2.6-7-5.8-7-9.8c0.6-1.8,1.7-3.5,3.5-4.9
		c6.2,1.3,13.2,7.6,21,18.9h2.1v-9.8C548.4,108.4,551.4,101.4,557.5,97.1z M612.1,97.1c4.2,0,6.7,7.5,7.7,22.4
		c3.3,1.9,4.9,4.7,4.9,8.4L624,130h-0.7c-1.7,0-3.9-0.9-6.3-2.8h-1.4c-18.2,17.7-33.3,28.9-45.4,33.6l-9.1,2.8l-0.7-0.7v-0.7
		c15.7-9.5,31.8-20.7,48.2-33.6l1.4-4.2c0-1.1-2.1-3.6-6.3-7.7l-0.7-4.2C603,104.6,606,99.5,612.1,97.1z M400,101.3h2.1
		c2.8,1.4,4.2,4,4.2,7.7v3.5l-0.7,8.4c5.2,3.9,7.7,7.6,7.7,11.2l-0.7,2.1c-1.9,0-4.9-1.4-9.1-4.2h-2.1c-11.8,12.9-24.1,22-37,27.3
		h-2.8l27.2-21c5.1-4.6,7.7-7.4,7.7-8.4v-2.1c-2.6-3.4-4.2-6.7-4.9-9.8C391.6,110.7,394.4,105.8,400,101.3z M498,101.9l0.7,2.1
		c-1.5,4.3-12.5,12.2-32.9,23.8c-15.4,10.3-26.3,17-32.8,20.3l-0.7-2.1c0-4.1,10.5-12,31.5-23.8c3.2-3,14.1-9.8,32.8-20.3
		C496.6,101.9,498,101.9,498,101.9z M606.5,108.3v1.4c2.6,3.7,5.4,5.6,8.4,5.6l0.7-2.1c-1.1-5.1-2.5-7.7-4.2-7.7h-2.1L606.5,108.3z
		 M321,105.5c3.7,0,5.6,4.9,5.6,14.7v4.2l5.6,7v4.2l-1.4,1.4h-1.4c-2.4-2.3-4.5-3.5-6.3-3.5c-10.6,13.3-21.1,22.6-31.4,28l-16.8,9.1
		h-3.5v-0.7c0-0.8,4.9-4.1,14.7-9.8c14.1-10.1,24.8-19.4,32.2-28c0-1.7-2.3-4.7-7-9.1l-0.7-2.1C312,110.6,315.5,105.5,321,105.5z
		 M184.5,106.9h1.4l0.7,2.1c0,3.5-8.2,8.1-24.5,14c-2.2,1.9-14.8,7.7-37.8,17.5c-15.4,7.7-26.4,13.7-32.8,18.2l-1.4,4.2
		c3.7,4.5,5.6,7.3,5.6,8.4c-0.5,1.9-1.7,2.8-3.5,2.8c-4.2-2.2-6.3-4.8-6.3-7.7c0-11,9.8-20.3,29.4-28
		C157.6,117.4,180.7,106.9,184.5,106.9z M249.6,106.9h0.7c3.3,2,4.9,5.3,4.9,9.8v6.3c0,2.2,2.6,5.2,7.7,9.1l2.1,4.2
		c-0.5,2.8-1.2,4.2-2.1,4.2l-7-4.9h-3.5c-14.2,16.5-25.4,26.5-33.6,30.1c-9.6,7-16.2,10.5-19.6,10.5v-1.4c1.1-1.7,5-4.8,11.9-9.1
		c16.7-13.4,27.9-23,33.6-28.7l2.1-2.8v-2.1c-5.6-4.7-8.4-8.2-8.4-10.5C240.6,111.8,244.3,106.9,249.6,106.9z M395.8,113.1
		c0.9,2.8,2.8,4.2,5.6,4.2l1.4-2.8c-0.4-3.2-1.5-4.9-3.5-4.9C398.1,109.7,396.9,110.8,395.8,113.1z M83.7,109.7v1.4L81.6,123v2.8
		c0,2.9,1.6,5.4,4.9,7.7h0.7l4.2-4.2v0.7c0,5.6-1.6,9.3-4.9,11.2h-0.7c-5.2-1.1-7.7-4.8-7.7-11.2C80.1,116.4,81.9,109.7,83.7,109.7z
		 M204.8,109.7v0.7L202,123v4.9c0,3.9,1.6,6.9,4.9,9.1h0.7c1.9-0.9,2.8-2.1,2.8-3.5h0.7l0.7,0.7h0.7c-1.2,7.5-3.8,11.2-7.7,11.2
		c-4.2-2.4-6.3-7.1-6.3-14C200.3,116.9,202.4,109.7,204.8,109.7z M316,115.9v0.7c1.2,2.3,3,3.5,5.6,3.5l0.7-0.7v-0.7
		c-0.5-3.2-1.2-4.9-2.1-4.9h-2.1L316,115.9z M244.6,117.3v1.4l4.2,3.5h2.1v-2.1c0-2.4-0.7-3.8-2.1-4.2H246L244.6,117.3z
		 M507.8,146.1v1.4c-0.9,0-1.9,4.7-2.8,14c1.9,6,3.7,9.1,5.6,9.1h2.1c0.7,0,1.6-1.9,2.8-5.6h1.4v1.4h0.7c-1.9,8.4-4.7,12.6-8.4,12.6
		c-5.1-2.7-7.7-7.4-7.7-14.1C501.6,158.1,503.6,151.9,507.8,146.1z M616.3,149.5h0.7l-3.5,7.7v6.3c0,3.5,1.2,6.1,3.5,7.7h2.1
		c0.7,0,1.7-1.4,2.8-4.2h0.7l0.7,2.1c-1.9,7-4,10.5-6.3,10.5c-4.7-1.9-7-6-7-12.2S612.1,155.3,616.3,149.5z M412.6,153.7
		c8.4,3.5,12.6,7.2,12.6,11.2c-2.9,5.6-5.2,8.4-7,8.4l-9.1-6.3h-1.4c-0.7,0-2.9,3-6.3,9.1h-0.7c-2.7,0-6.7-2.8-11.9-8.4v-1.4
		c1.9-6.5,3.8-9.8,5.6-9.8c6.3,3.7,10.3,5.6,11.9,5.6C409.7,156.5,411.7,153.7,412.6,153.7z M157.2,158.7h0.7
		c6.3,3.8,9.8,6.8,10.5,9.1c-1.9,5-4,8.3-6.3,9.8c-6.5-3.1-9.8-6.4-9.8-9.8C153.8,161.7,155.5,158.7,157.2,158.7z M60.6,160.7
		l0.7,0.7c-3.2,8.7-4.9,15-4.9,18.9v2.1c0,4.3,2.1,8,6.3,11.2h0.7c2.3-1.3,3.5-3.2,3.5-5.6h1.4v1.4c0,4.8-2.1,9.9-6.3,15.4
		c-2.4,5.1-3.5,8.8-3.5,11.2v1.4c0,17,11.2,26.8,33.6,29.4h4.2c17.4,0,37.2-6.3,59.5-18.9v-1.4l-2.8-13.3c1.9-19.2,7-28.7,15.4-28.7
		c7.8,2.4,12.2,10.4,13.3,23.8c0,7.8-3.5,15.8-10.5,23.8c3,4.7,7.2,7,12.6,7h9.8c8.6,0,16.6-5.8,23.8-17.5l2.8-2.1h0.7v1.4h0.7
		c-0.9,1.9-1.4,4.4-1.4,7.7v0.7c0,4.9,3.5,7.7,10.5,8.4c8.5,0,14.8-6.8,18.9-20.3h0.7l0.7,0.7h0.7L251,223v1.4c0,2.4,3.3,4.8,9.8,7
		h3.5c2.8,0,4.2-1.4,4.2-4.2l-2.8-7c0-4.5,1.4-8.1,4.2-10.5c2.1,2.4,4,8.2,5.6,17.5c-1.5,12.1-5.9,18.2-13.3,18.2h-4.9
		c-2.8,1.2-4.2,5.6-4.2,13.3c0.7,14,7.5,21,20.3,21c16.7,0,34.9-11.9,54.6-35.6v-2.8l-1.4-1.4l-14.7,2.8
		c-10.3-1.1-15.4-6.2-15.4-15.4c2.8-13.6,7.7-20.3,14.7-20.3h0.7c5.2,0,11.3,5.1,18.2,15.4h2.1c3.9,0,7.2-1.9,9.8-5.6v-1.4
		c0-1.2-3-6.8-9.1-16.8l-8.4-18.9c0.5-7,1.7-10.5,3.5-10.5h0.7l16.1,18.2v1.4h-4.9v0.7c0,1.2,2.3,5.9,7,14c0.9,2.6,1.6,7.7,2.1,15.4
		c0,5.7-4.9,11.5-14.7,17.5v3.5c0,14.7-12.8,29.8-38.4,45.4c-2.7,3.1-10,6.2-21.7,9.1c-11.9,0-20.1-5.8-24.4-17.5l-2.1-13.3
		l3.5-19.6v-2.1l-2.8-2.8H247c-4.7,7-10.8,10.5-18.2,10.5c-4,0-8.6-2.8-14-8.4h-0.7c-8.1,8.4-17.5,12.6-28,12.6
		c-8.9,0-17-4.7-24.4-14h-2.8c-25.6,14-45.7,21-60.2,21h-3.5c-19.2,0-32.5-7.2-39.8-21.7l-2.1-9.8l0.7-0.7v-3.5c0-4.3,2.1-12,6.3-23
		c-4.2-4-6.3-9.1-6.3-15.4C55.8,169.4,58.1,160.7,60.6,160.7z M246.8,162.1h1.4l-3.5,12.6v5.6c0,5.6,1.9,8.4,5.6,8.4l4.2-4.2
		l0.7,0.7c-1.3,8.4-3.7,12.6-7.1,12.6s-6-4-7.7-11.9C242.9,170.1,245,162.1,246.8,162.1z M456.8,167.7h0.7
		c10.3,9.9,15.4,15.5,15.4,16.8l-0.7,0.7h-4.9v0.7l11.2,21.7l1.4,9.1v2.1c0,11.4-6.1,21.7-18.2,30.8c-1.4,2.4-2.1,4.7-2.1,7v4.9
		c0,10.1,5.4,17.1,16.1,21l4.2,0.7h7.7c11.4,0,28-10.5,49.6-31.5c5.6-6.5,8.4-10.7,8.4-12.6v-1.4l-1.4-1.4l-18.2,2.8h-4.9
		c-8.1,0-12.8-5.1-14-15.4c3-14.4,8.6-21.7,16.8-21.7h0.7c6.3,0,14.1,5.4,23.1,16.1c3,0,10.7-4.9,23-14.7l3.5-0.7
		c0.7,0.9,1.4,5.1,2.1,12.6c3.7,5.2,9.1,7.7,16.1,7.7c10.9,0,19.1-7.7,24.4-23.1l2.8-2.1h1.4v1.4l-2.8,9.8c3.3,5.1,8.4,7.7,15.4,7.7
		h2.1c2.4,0,3.8-0.7,4.2-2.1c0-2.7-1.2-5.5-3.5-8.4v-2.8c0.9-6.1,2.1-9.1,3.5-9.1h1.4c3.7,7.9,5.6,14.2,5.6,18.9
		c-1.9,11.6-6.5,17.5-14,17.5h-3.5c-3.7,0-9-3-16.1-9.1h-0.7c-7.2,10.3-15.1,15.4-23.7,15.4s-14.7-4.9-18.3-14.7
		c0-1.9-0.7-2.8-2.1-2.8h-1.4c-10.3,7-15.4,12.2-15.4,15.4c0,18.2-16.1,37.6-48.3,58.1c-7.7,3.2-13.8,4.9-18.2,4.9H482
		c-15.4,0-24.5-10-27.3-30l0.7-9.8v-1.4h-2.1c-29.5,21-52.8,32.7-70,35l-26.6,6.3l-0.7-0.7v-0.7c1-2.1,11.3-6.9,30.8-14.7
		c31-15.4,58.1-32.9,81.2-52.5c3.7-3.5,5.6-6.3,5.6-8.4v-0.7c0-2.6-5.1-12.6-15.4-30.1l-4.2-13.3
		C454.6,170.8,455.5,167.7,456.8,167.7z M427.4,178.9l0.7,0.7h0.7c0,5.7-4,14.3-11.9,25.8v2.1c10.3,7.4,15.4,13.5,15.4,18.2
		c0,13.9-7.7,23.7-23,29.4l-7,1.4c-5.6-2.5-8.4-6.7-8.4-12.6c0-8,2.1-17.4,6.3-28c0-1.2-5.4-6.6-16.1-16.1c-2.4-1.4-3.5-3.7-3.5-7
		v-1.4l0.7-7c13.5,4,20.3,6.8,20.3,8.4v0.7l-3.5,3.5l8.4,6.3h1.4c1.1,0,5.8-6.1,14-18.2L427.4,178.9z M119.4,183.9
		c4.2,2.6,6.3,6.1,6.3,10.5l-2.8,2.8c-1.6-2.8-3.7-4.2-6.3-4.2c-1.4,0-2.1,4.9-2.1,14.7l0.7,2.1c-1.1,9.3-2.2,14-3.5,14
		c-6-10.2-10.6-16-14-17.5c-4.5,0-7.8-2.6-9.8-7.7c1.1-4.2,2-6.3,2.8-6.3c4.5,0,11,5.4,19.6,16.1h1.4v-9.1
		C112.5,189,115.1,183.9,119.4,183.9z M159.3,206.3v3.5c1.7,8,3.4,11.9,4.9,11.9c7.5-3.2,11.2-6,11.2-8.4v-1.4
		c-2.6-8.4-5.9-12.6-9.8-12.6C161.4,200,159.3,202.4,159.3,206.3z M516.2,222.3c2.6,1.9,5.4,2.8,8.4,2.8c6.1-0.4,9.1-1.4,9.1-2.8
		c-2.1-3.2-5.1-4.9-9.1-4.9h-4.2C517.6,218.8,516.2,220.4,516.2,222.3z M398.6,237.1c0.9,3.2,2.8,4.9,5.6,4.9h2.1
		c5.6,0,11.9-3.7,18.9-11.2c0-2.8-5.6-6.5-16.8-11.2h-0.7C401.7,225.9,398.6,231.7,398.6,237.1z M307.6,221.7
		c-1.9,1.6-2.8,3-2.8,4.2c1.6,1.4,4.4,2.1,8.4,2.1h0.7l3.5-0.7v-1.4C317.4,223.7,314.2,222.3,307.6,221.7z M630.3,248.3l0.7,2.1
		c-2,10.3-5.5,15.4-10.5,15.4l-6.3-1.4c-4.3,3.3-7.8,4.9-10.5,4.9l-7-2.8h-1.4c-3.7,0-12.8,5.4-27.3,16.1l-11.9,4.2l-0.7-0.7v-0.7
		c5.2-2.8,17.1-10.9,35.7-24.4l7.7-2.1c4.5,1.9,7.7,2.8,9.8,2.8c1.9-0.5,4.9-3,9.1-7.7h1.4c0.1,2.3,0.8,3.5,2.1,3.5h3.5
		c1.1,0,2.5-3,4.2-9.1L630.3,248.3L630.3,248.3z M222.2,257.3v2.1c0,6.5-3.5,9.8-10.5,9.8l-8.4,3.5l-6.3-2.1h-4.2
		c-3.9,0-18.4,7.7-43.4,23l-8.4,2.1v-1.4c8.2-6.2,24.1-16,47.6-29.4l7.7-2.1l9.1,2.1c2.2,0,5-2.1,8.4-6.3l2.8,3.5h0.7L222.2,257.3z
		 M111,262.9h0.7v2.1c-1.4,1.8-2.3,4.8-2.8,9.1c0.9,7.5,2.3,11.2,4,11.2s3.5-0.9,5.1-2.8h0.7v0.7c-1.7,7-3.6,10.5-5.6,10.5
		c-4,0-6.6-4.4-7.7-13.3C107.6,268.8,109.5,262.9,111,262.9z M356,264.3h1.4c4.8,2.9,8.3,6.2,10.5,9.8c-2.5,6.1-4.4,9.4-5.6,9.8
		c-1.8,0-5.1-2.1-9.8-6.3H351l-7.7,8.4c-8-4-11.9-6.8-11.9-8.4c1.9-7,4.2-10.5,7-10.5l7.7,4.9h3.5L356,264.3z"/>
</g>
</svg>
