<?xml version="1.0" encoding="utf-8"?>
<!-- Generator: Adobe Illustrator 25.2.3, SVG Export Plug-In . SVG Version: 6.00 Build 0)  -->
<svg version="1.1" xmlns="http://www.w3.org/2000/svg" xmlns:xlink="http://www.w3.org/1999/xlink" x="0px" y="0px"
	 viewBox="0 0 700 395" style="enable-background:new 0 0 700 395;" xml:space="preserve">
<style type="text/css">
	.st0{fill:#000222;}
	.st1{fill:#FFFFFF;}
</style>
<g id="Layer_1">
	<rect y="-0.5" class="st0" width="700" height="395"/>
</g>
<g id="Layer_3">
	<g>
		<path class="st1" d="M273.5,368.6l1.1,4.2c0.2,0.9,0.5,1.8,0.6,2.6h0.1c0.2-0.8,0.5-1.7,0.7-2.6l1.3-4.2h1.3l1.3,4.1
			c0.3,1,0.5,1.9,0.7,2.7h0.1c0.1-0.8,0.4-1.7,0.6-2.7l1.2-4.1h1.5l-2.7,8.2H280l-1.3-3.9c-0.3-0.9-0.5-1.7-0.7-2.7h0
			c-0.2,1-0.5,1.8-0.7,2.7l-1.3,3.9h-1.4l-2.5-8.2H273.5z"/>
		<path class="st1" d="M286.3,368.6l1.1,4.2c0.2,0.9,0.5,1.8,0.6,2.6h0.1c0.2-0.8,0.5-1.7,0.7-2.6l1.3-4.2h1.3l1.3,4.1
			c0.3,1,0.5,1.9,0.7,2.7h0.1c0.1-0.8,0.4-1.7,0.6-2.7l1.2-4.1h1.5l-2.7,8.2h-1.4l-1.3-3.9c-0.3-0.9-0.5-1.7-0.7-2.7h0
			c-0.2,1-0.5,1.8-0.7,2.7l-1.3,3.9h-1.4l-2.5-8.2H286.3z"/>
		<path class="st1" d="M299,368.6l1.1,4.2c0.2,0.9,0.5,1.8,0.6,2.6h0.1c0.2-0.8,0.5-1.7,0.7-2.6l1.3-4.2h1.3l1.3,4.1
			c0.3,1,0.5,1.9,0.7,2.7h0.1c0.1-0.8,0.4-1.7,0.6-2.7l1.2-4.1h1.5l-2.7,8.2h-1.4l-1.3-3.9c-0.3-0.9-0.5-1.7-0.7-2.7h0
			c-0.2,1-0.5,1.8-0.7,2.7l-1.3,3.9h-1.4l-2.5-8.2H299z"/>
		<path class="st1" d="M309.9,375.9c0-0.6,0.4-1.1,1-1.1c0.6,0,1,0.4,1,1.1c0,0.6-0.4,1.1-1,1.1C310.3,377,309.9,376.5,309.9,375.9z
			"/>
		<path class="st1" d="M313.5,375.3c0.4,0.3,1.2,0.6,2,0.6c1.1,0,1.6-0.5,1.6-1.2c0-0.7-0.4-1.1-1.5-1.5c-1.5-0.5-2.2-1.3-2.2-2.3
			c0-1.3,1.1-2.4,2.8-2.4c0.8,0,1.6,0.2,2,0.5l-0.4,1.1c-0.3-0.2-0.9-0.5-1.7-0.5c-0.9,0-1.4,0.5-1.4,1.1c0,0.7,0.5,1,1.6,1.4
			c1.4,0.5,2.2,1.3,2.2,2.5c0,1.4-1.1,2.5-3.1,2.5c-0.9,0-1.7-0.2-2.3-0.6L313.5,375.3z"/>
		<path class="st1" d="M327.4,374.6c0,0.9,0,1.6,0.1,2.2h-1.3l-0.1-1.3h0c-0.4,0.7-1.3,1.5-2.7,1.5c-1.3,0-2.8-0.7-2.8-3.6v-4.8h1.5
			v4.6c0,1.6,0.5,2.6,1.8,2.6c1,0,1.7-0.7,2-1.4c0.1-0.2,0.1-0.5,0.1-0.8v-5h1.5V374.6z"/>
		<path class="st1" d="M329.8,371.1c0-1,0-1.8-0.1-2.6h1.3l0.1,1.6h0.1c0.4-1.1,1.3-1.8,2.3-1.8c0.2,0,0.3,0,0.4,0.1v1.4
			c-0.2,0-0.3-0.1-0.5-0.1c-1.1,0-1.8,0.8-2,1.9c0,0.2-0.1,0.4-0.1,0.7v4.4h-1.5V371.1z"/>
		<path class="st1" d="M339.9,376.8l-0.1-1h-0.1c-0.5,0.6-1.3,1.2-2.5,1.2c-1.7,0-2.5-1.2-2.5-2.4c0-2,1.8-3.1,4.9-3.1v-0.2
			c0-0.7-0.2-1.9-1.9-1.9c-0.8,0-1.6,0.2-2.1,0.6l-0.3-1c0.7-0.4,1.7-0.7,2.7-0.7c2.5,0,3.1,1.7,3.1,3.4v3.1c0,0.7,0,1.4,0.1,2
			H339.9z M339.7,372.6c-1.6,0-3.5,0.3-3.5,1.9c0,1,0.6,1.4,1.4,1.4c1.1,0,1.8-0.7,2-1.4c0.1-0.2,0.1-0.3,0.1-0.5V372.6z"/>
		<path class="st1" d="M343.5,364.7h1.5v5.1h0c0.2-0.4,0.6-0.8,1.1-1.1c0.4-0.3,1-0.4,1.5-0.4c1.1,0,2.9,0.7,2.9,3.5v4.9H349v-4.7
			c0-1.3-0.5-2.4-1.9-2.4c-1,0-1.7,0.7-2,1.5c-0.1,0.2-0.1,0.4-0.1,0.7v5h-1.5V364.7z"/>
		<path class="st1" d="M358.6,375.5L358.6,375.5c-0.5,0.8-1.4,1.5-2.7,1.5c-1.9,0-3.5-1.7-3.5-4.2c0-3.1,2-4.4,3.7-4.4
			c1.3,0,2.1,0.6,2.5,1.4h0l0.1-1.2h1.4c0,0.7-0.1,1.4-0.1,2.3v9.3h-1.5V375.5z M358.6,371.9c0-0.2,0-0.4-0.1-0.6
			c-0.2-0.9-1-1.7-2.1-1.7c-1.5,0-2.5,1.3-2.5,3.2c0,1.6,0.8,3.1,2.4,3.1c1,0,1.8-0.6,2.1-1.6c0.1-0.2,0.1-0.5,0.1-0.7V371.9z"/>
		<path class="st1" d="M369.4,374.6c0,0.9,0,1.6,0.1,2.2h-1.3l-0.1-1.3h0c-0.4,0.7-1.3,1.5-2.7,1.5c-1.3,0-2.8-0.7-2.8-3.6v-4.8h1.5
			v4.6c0,1.6,0.5,2.6,1.8,2.6c1,0,1.7-0.7,2-1.4c0.1-0.2,0.1-0.5,0.1-0.8v-5h1.5V374.6z"/>
		<path class="st1" d="M371.9,371.1c0-1,0-1.8-0.1-2.6h1.3l0.1,1.6h0.1c0.4-1.1,1.3-1.8,2.3-1.8c0.2,0,0.3,0,0.4,0.1v1.4
			c-0.2,0-0.3-0.1-0.5-0.1c-1.1,0-1.8,0.8-2,1.9c0,0.2-0.1,0.4-0.1,0.7v4.4h-1.5V371.1z"/>
		<path class="st1" d="M381.9,376.8l-0.1-1h-0.1c-0.5,0.6-1.3,1.2-2.5,1.2c-1.7,0-2.5-1.2-2.5-2.4c0-2,1.8-3.1,4.9-3.1v-0.2
			c0-0.7-0.2-1.9-1.9-1.9c-0.8,0-1.6,0.2-2.1,0.6l-0.3-1c0.7-0.4,1.7-0.7,2.7-0.7c2.5,0,3.1,1.7,3.1,3.4v3.1c0,0.7,0,1.4,0.1,2
			H381.9z M381.7,372.6c-1.6,0-3.5,0.3-3.5,1.9c0,1,0.6,1.4,1.4,1.4c1.1,0,1.8-0.7,2-1.4c0.1-0.2,0.1-0.3,0.1-0.5V372.6z"/>
		<path class="st1" d="M385.6,370.8c0-0.9,0-1.5-0.1-2.2h1.3l0.1,1.4h0c0.4-0.8,1.4-1.5,2.7-1.5c1.1,0,2.9,0.7,2.9,3.5v4.9h-1.5
			v-4.7c0-1.3-0.5-2.4-1.9-2.4c-1,0-1.8,0.7-2,1.5c-0.1,0.2-0.1,0.4-0.1,0.7v4.9h-1.5V370.8z"/>
		<path class="st1" d="M394.6,375.9c0-0.6,0.4-1.1,1-1.1c0.6,0,1,0.4,1,1.1c0,0.6-0.4,1.1-1,1.1C395,377,394.6,376.5,394.6,375.9z"
			/>
		<path class="st1" d="M404.4,376.5c-0.4,0.2-1.3,0.5-2.4,0.5c-2.5,0-4.1-1.7-4.1-4.2c0-2.5,1.7-4.4,4.4-4.4c0.9,0,1.7,0.2,2.1,0.4
			l-0.3,1.2c-0.4-0.2-0.9-0.4-1.7-0.4c-1.9,0-2.9,1.4-2.9,3.1c0,1.9,1.2,3.1,2.9,3.1c0.8,0,1.4-0.2,1.8-0.4L404.4,376.5z"/>
		<path class="st1" d="M413.5,372.6c0,3-2.1,4.4-4.1,4.4c-2.2,0-3.9-1.6-3.9-4.2c0-2.8,1.8-4.4,4.1-4.4
			C411.9,368.4,413.5,370.1,413.5,372.6z M406.9,372.7c0,1.8,1,3.2,2.5,3.2c1.4,0,2.5-1.3,2.5-3.2c0-1.4-0.7-3.2-2.5-3.2
			S406.9,371.1,406.9,372.7z"/>
		<path class="st1" d="M415.4,370.8c0-0.9,0-1.5-0.1-2.2h1.3l0.1,1.3h0.1c0.5-0.8,1.2-1.5,2.6-1.5c1.1,0,2,0.7,2.3,1.6h0
			c0.3-0.5,0.6-0.8,0.9-1.1c0.5-0.4,1-0.6,1.8-0.6c1.1,0,2.7,0.7,2.7,3.6v4.8h-1.5v-4.7c0-1.6-0.6-2.5-1.8-2.5
			c-0.9,0-1.5,0.6-1.8,1.4c-0.1,0.2-0.1,0.5-0.1,0.7v5.1h-1.5v-4.9c0-1.3-0.6-2.3-1.7-2.3c-0.9,0-1.6,0.7-1.9,1.5
			c-0.1,0.2-0.1,0.5-0.1,0.7v5h-1.5V370.8z"/>
	</g>
</g>
<g id="Layer_4">
	<path class="st1" d="M292.1,86.8c10.2,18.8,15.2,29.9,15.2,33.3l-1.4,2.1l-5.1-3.6h-1.4v1.4c0,4.2,4.1,30.9,12.3,80.3
		c1,4.7,1.4,11.4,1.4,20.3c0,15.3-6.5,25.7-19.6,31.2c-30.6,9.1-49.6,17.1-57.1,23.8c-10.4,8.2-16.5,14-18.1,17.4
		c-12.5,10.2-20.3,15.2-23.2,15.2H193c-12.7,0-20.2-8.2-22.5-24.6c0-4.4,2.4-13.3,7.2-26.8l-1.4-1.4H172
		c-17.9,0-30.2-12.3-36.9-36.9h-1.4c-3.6,9.7-11.3,18.6-23.2,26.7c-16.3,13.1-28.1,19.6-35.5,19.6h-0.7c-12.2,0-19.2-7.7-21-23.2
		c0-13.2,3.4-27,10.1-41.3v-1.4c-5.3-4.8-7.9-11.5-7.9-20.2s3.9-21.2,11.6-37.7h0.7l0.8,0.8h0.7c-5.2,13.4-7.8,23-7.9,28.9
		c0,8.7,2.2,14.5,6.5,17.4H70c1.4,0,2.9-2.9,4.3-8.7h1.4l1.4,1.4c-2.8,13-6.1,19.5-10.1,19.5c-6.3,14-9.5,24.6-9.5,31.8
		c1.9,12.1,7.5,18.1,16.7,18.1c10.2,0,26.9-10.9,49.9-32.6c4.4-4.8,6.6-9.2,6.6-13V204c-0.9-10.9-7.9-31.6-21-62.2
		c1.2-7.7,2.4-11.6,3.7-11.6h0.7c8.3,13.1,14.8,27.8,19.6,44.1c6,31.9,11.8,49.7,17.4,53.5c0.2,1.9,0.9,2.9,2.1,2.9h0.8v-0.7
		l-3.7-19.6c0-14.3,7.5-24.5,22.5-30.4l13-2.9c11.6,0,20.5,3.6,26.7,10.9v0.7h-1.4v0.8c-4.7-1.5-9.5-2.2-14.5-2.2
		c-11.9,0-24.4,4.1-37.6,12.3v5c0,6.6,3.4,15.3,10.1,26c5.5,5.3,10.4,8,14.5,8h2.2c10.3-1,23.3-8.2,39.1-21.7
		c0.9-2.2,1.9-3.4,2.9-3.7h2.1v0.8c-2.1,9.3-5.7,15.8-10.8,19.5c-10.9,9.6-22,16.1-33.3,19.6c-7.3,11.3-10.9,21.4-10.9,30.4
		c2.2,6.8,5.6,10.1,10.1,10.1h4.3c7.7,0,19.8-8,36.2-23.9c13.6-13.2,34.4-23.1,62.2-29.6c11.8-4.8,17.9-8.7,18.1-11.6
		c0-5.5-6.3-48.2-18.8-128.1C289,91.4,290.7,86.8,292.1,86.8z M557.7,86.8c2.2,0,4.8,2.6,7.9,7.9c-0.6,4.4-1.5,6.6-2.9,6.6l-5.8-4.3
		H554c-2.1,0-3.6,11.1-4.3,33.3l-0.7,0.7c-0.3,3.4-1.1,5.1-2.2,5.1h-1.4c-6.4-14-12.2-21-17.4-21c-5.8-2.4-8.7-5.5-8.7-9.4v-0.8
		c0-2.6,1-4.2,2.9-5c5.8,0,13.5,6.5,23.2,19.5h0.8v-2.9C546.1,100.1,550,90.3,557.7,86.8z M394.9,87.5c3.9,2.1,5.8,4.2,5.8,6.6
		l-0.7,13.7v0.8c4.1,4.1,6.8,7.5,7.9,10.1c-0.6,2.4-1.4,3.6-2.1,3.6h-2.2l-7.2-5l-15.1,14.5c-14.8,8.7-23.5,13-26,13l-0.8-0.8v-0.7
		c0.7-1.6,9.2-7.7,25.4-18.1c6.8-5.4,10.1-9.3,10.1-11.6l-5.1-9.4C384.7,97.3,388.1,91.8,394.9,87.5z M330.5,88.9h1.4
		c1.2,0,6.5,12.1,15.9,36.2l-0.8,2.9H345l-5.1-4.3l-0.7,0.8h-0.8c6.8,41.8,11.6,75.3,14.5,100.5v17.4c0,3.2-1.7,8.7-5,16.7h-1.4
		l-0.8-0.8H345l0.7-7.9c0-9.5-6.3-59.1-18.8-149.1L330.5,88.9z M613.4,88.9c4.8,0.8,7.2,8.5,7.2,23.2c3.4,2.2,5.1,4.9,5.1,8L625,123
		h-1.4c-1.7,0-3.9-1-6.5-2.9h-1.4c-18.9,18.9-37.2,31-55,36.2l-2.9,0.7l-0.8-0.7v-0.8l29.7-18.8c15.9-10.4,23.8-17.3,23.8-20.9
		c-5.3-3.6-7.9-7-7.9-10.1C604.2,94.5,607.8,88.9,613.4,88.9z M493.3,91.1h2.2l0.7,2.1c0,4.1-11.8,12.3-35.4,24.6
		c-21.3,13.1-32.6,19.6-34.1,19.6l-0.7-0.8v-2.9c0-3.7,8.9-10,26.7-18.8c3.4-2.7,13.8-8.7,31.2-18L493.3,91.1z M99,91.8
		c4.8,2.9,7.2,5.8,7.2,8.7c-1,3-2.3,4.7-3.7,5.1l-6.5-4.3c-2.3,0-3.8,8.9-4.3,26.7c-1.6,4.8-2.8,7.2-3.7,7.2
		c-4.4-11.4-10-18.8-16.6-22.4c-3,0-5.9-2.7-8.7-8c1-3.5,2.2-5.9,3.6-7.2c4.2,0.6,11.4,7.7,21.7,21l0.8-0.8V115
		C90.5,99.5,93.9,91.8,99,91.8z M389.8,99.8c0,2.4,1.2,4.1,3.6,5h2.2l0.7-3.6c-1-2.2-1.9-3.4-2.9-3.7H392L389.8,99.8z M607.6,100.5
		v2.2c2.4,3.3,5,5,8,5v-2.9c0-3.7-1-5.8-2.9-6.5h-2.9L607.6,100.5z M141.6,115c3.8-11.1,10.6-16.6,20.5-16.5
		c9.9,0.1,15.6,2,17.1,5.7v0.7c0,6.9-7.7,13.5-23.2,19.6H154V123l13-11.6v-0.8l-8-1.4l-0.7,0.8l-0.8-0.8h-0.7
		c-5.3,0-9.9,2.2-13.8,6.6l-0.7-0.8H141.6z M275.5,99h0.7l0.8,3.7c0,4.4-9.2,9.9-27.5,16.6c-27,13.2-49.7,25.1-68,35.5l-1.4,1.4
		h-0.8l-1.4-1.4c0-8.5,9.9-16.5,29.7-23.9C240.9,112.9,263.6,102.3,275.5,99z M261,126.5h0.7v0.8l-2.9,14.5
		c0.6,7.2,2.8,10.8,6.6,10.8l2.9-4.3h0.7v2.2c-1.5,7.7-3.7,11.6-6.5,11.6c-4.8-2.1-7.2-6.9-7.2-14.5v-2.2
		C255.3,138.4,257.2,132.1,261,126.5z M503.4,135.2h1.4l-2.9,11.6v6.6c0,4.1,1.7,7,5.1,8.7c2.3,0,3.7-2.2,4.3-6.6h2.1
		c0,7.3-2.2,12.3-6.5,15.2h-0.8c-5.8-0.8-8.7-5.4-8.7-13.8v-3.6C497.6,151,499.5,144.9,503.4,135.2z M615.6,141h1.4l-3.7,16.7
		c0,3.3,1.2,5.8,3.7,7.2h1.4l3.6-3.7l1.4,1.4c-1.6,7.7-4,11.6-7.2,11.6c-4,0-6.4-4.8-7.2-14.5C609.7,155.5,611.9,149.2,615.6,141z
		 M406.4,141.8c7.1,3.9,11.3,7.8,12.3,11.6c-1.9,4.6-4.1,7.8-6.6,9.4h-1.4l-8.7-6.5h-1.4c-0.8,0-2.9,2.9-6.5,8.7h-2.9
		c-7.3-4.5-10.9-7.9-10.9-10.1c1.9-6.8,4.6-10.1,8-10.1c4.2,3.9,7.8,5.8,10.8,5.8C402.4,144.7,404.8,141.8,406.4,141.8z
		 M449.9,157.7h2.2c10.6,10.2,15.9,15.8,15.9,16.6v0.8l-1.4,1.4h-4.3c0,1.8,3.9,9.7,11.6,23.8l0.7,10.9c0,11.3-4.8,20.2-14.5,26.7
		c-5.3,4.2-7.9,8.8-7.9,13.8v1.4c0,12.4,6,20.6,18,24.6h10.1c15.2,0,35-13.5,59.3-40.5l1.4-2.2V233l-2.9-2.2
		c-6.4,1.9-12.9,3.1-19.5,3.7c-11.1-1.2-16.7-6.3-16.7-15.2c0-12.9,5.6-21.1,16.7-24.6h0.7c7.5,0,15.7,6,24.6,18.1h0.8
		c16.4-11.1,25.3-16.7,26.7-16.7c0.8,0,1.6,1.2,2.2,3.7l-0.8,4.3v1.4c0,6.6,5.3,11,15.9,13h3.7c8.9,0,17.1-8.5,24.6-25.4l0.7-0.7
		h2.9v0.7l-2.9,10.1v1.4c5.2,5.3,10,8,14.5,8h5.1l2.1-2.2v-0.7l-3.6-8.7c1-7.7,2.2-11.6,3.6-11.6h0.8c2.8,2.2,4.9,8,6.5,17.4
		c0,14-5.5,20.9-16.6,20.9h-0.8c-5.1,0-10.7-3.1-16.6-9.4h-1.4c-6.7,9.6-15,14.5-24.8,14.5s-16.5-6-20-18.1l-0.8-0.7h-0.7
		c-11.1,7.6-16.7,12.9-16.7,15.9c0,15.7-13.5,33.1-40.5,52.1c-11.6,7.2-21.3,10.8-28.9,10.8h-2.1c-14,0-23.4-7-28.3-20.9l-1.4-12.3
		v-2.1l0.8-7.2h-2.2c-30.9,20.3-50.9,30.4-60,30.4c-3,1.4-17,4.3-42,8.7v-0.8c0-1.7,12.1-7,36.2-15.9c32.1-15.6,59.8-32.9,83.2-52.1
		c2.9-2.6,4.3-5.5,4.3-8.7v-0.7l-14.5-28.9l-5-15.2v-0.7L449.9,157.7z M420.9,167.8h0.8v1.4c0,5.5-4.1,14.7-12.3,27.5v0.7
		c10.2,7.7,15.2,14.7,15.2,21c0,13.5-7.2,22.9-21.7,28.2l-8,2.2c-5.7,0-9.3-4.6-10.8-13.8c0-5.3,2.4-15.2,7.2-29.6
		c0-1-3.2-3.9-9.5-8.7c-6.8-6.8-10.1-11.1-10.1-13v-2.9c0-5.3,0.7-8,2.2-8c12.5,5,19,8.2,19.5,9.5v2.1l-2.9,0.8v0.7
		c4,4.8,7.4,7.2,10.1,7.2C408.9,181.7,415.7,173.2,420.9,167.8z M101.9,172.2h0.7v0.7l-2.1,11.6c0,6.5,1.7,10.8,5,13h1.4
		c0.8,0,1.7-1.4,2.9-4.3h1.4c0,9.6-2.4,14.5-7.2,14.5c-4.8-3.1-7.2-9.1-7.2-18C97.8,180.5,99.5,174.7,101.9,172.2z M274.1,176.5h1.4
		c1,0.1,3.2,5.9,6.5,17.4v2.9c-1.7,7.2-4.6,10.8-8.7,10.8c-3.1-0.1-6.2-1.8-9.4-5h-0.8c-4.4,5.3-8,7.9-10.8,7.9h-2.2
		c-2.3,0-4.2-2.9-5.8-8.7l0.8-18.8l2.1-1.4h0.8l1.4,1.4l-1.4,11.6v1.4c0,3.9,1.9,5.8,5.8,5.8h1.4c2.1,0,4.2-3.1,6.5-9.4l-0.7-12.3
		l0.7-2.9h2.2c1.5,13.5,4.2,20.3,7.9,20.3h3.7c1,0,1.4-0.7,1.4-2.1c-2.4-3.1-3.7-7.7-3.7-13.8L274.1,176.5z M390.5,227.2v0.7
		c0,3.9,1.9,5.8,5.8,5.8c6,0,12.7-3.6,20.3-10.8v-1.4c-1-2-6-5.6-15.1-10.9C397.2,210.5,393.5,216,390.5,227.2z M511.4,216.3
		c1.7,1.5,4.6,2.2,8.7,2.2h3.6l5.1-0.8v-2.1c-0.9-1.5-3.8-3.2-8.7-5.1h-2.2C513.6,212.2,511.4,214.1,511.4,216.3z M627.9,245.2h1.4
		l0.8,2.2c-3.1,10.6-6.2,15.9-9.5,15.9h-0.7l-8-1.4c-3.9,2.9-6.8,4.3-8.7,4.3h-3.6c-1.8-1.5-3.5-2.2-5.1-2.2h-4.3
		c-3,0-11.9,5.3-26.7,15.9l-12.3,3.7l-0.7-0.8v-0.7c12.8-8,24.1-15.8,34-23.2l9.5-3.7h2.1l10.1,2.9c2.9-0.5,6-3.4,9.5-8.7
		c2,3.4,4.1,5.1,6.5,5.1h0.8c1.4,0,2.1-1.9,2.1-5.8L627.9,245.2z M146,256.1h0.8l1.4,1.4c0,5.5-5.8,9.6-17.4,12.3l-47.1,21l-0.7-2.2
		c0-4.1,3.9-7.2,11.6-9.4C109.8,270.5,126.9,262.7,146,256.1z M295,256.1h1.4v1.4h0.8l-1.4,10.8c0,4,1.7,6.9,5,8.7
		c1.5,0,2.7-1.4,3.7-4.3h1.4v2.2c0,6.5-2.7,10.4-8,11.6c-4.5-3.8-6.9-7.9-7.2-12.3L295,256.1z"/>
</g>
</svg>
