<?xml version="1.0" encoding="utf-8"?>
<!-- Generator: Adobe Illustrator 25.2.3, SVG Export Plug-In . SVG Version: 6.00 Build 0)  -->
<svg version="1.1" xmlns="http://www.w3.org/2000/svg" xmlns:xlink="http://www.w3.org/1999/xlink" x="0px" y="0px"
	 viewBox="0 0 700 395" style="enable-background:new 0 0 700 395;" xml:space="preserve">
<style type="text/css">
	.st0{fill:#000222;}
	.st1{fill:#FFFFFF;}
</style>
<g id="Layer_1">
	<rect class="st0" width="700" height="395"/>
</g>
<g id="Layer_3">
	<g>
		<path class="st1" d="M273.5,368.6l1.1,4.2c0.2,0.9,0.5,1.8,0.6,2.6h0.1c0.2-0.8,0.5-1.7,0.7-2.6l1.3-4.2h1.3l1.3,4.1
			c0.3,1,0.5,1.9,0.7,2.7h0.1c0.1-0.8,0.4-1.7,0.6-2.7l1.2-4.1h1.5l-2.7,8.2H280l-1.3-3.9c-0.3-0.9-0.5-1.7-0.7-2.7h0
			c-0.2,1-0.5,1.8-0.7,2.7l-1.3,3.9h-1.4l-2.5-8.2H273.5z"/>
		<path class="st1" d="M286.3,368.6l1.1,4.2c0.2,0.9,0.5,1.8,0.6,2.6h0.1c0.2-0.8,0.5-1.7,0.7-2.6l1.3-4.2h1.3l1.3,4.1
			c0.3,1,0.5,1.9,0.7,2.7h0.1c0.1-0.8,0.4-1.7,0.6-2.7l1.2-4.1h1.5l-2.7,8.2h-1.4l-1.3-3.9c-0.3-0.9-0.5-1.7-0.7-2.7h0
			c-0.2,1-0.5,1.8-0.7,2.7l-1.3,3.9h-1.4l-2.5-8.2H286.3z"/>
		<path class="st1" d="M299,368.6l1.1,4.2c0.2,0.9,0.5,1.8,0.6,2.6h0.1c0.2-0.8,0.5-1.7,0.7-2.6l1.3-4.2h1.3l1.3,4.1
			c0.3,1,0.5,1.9,0.7,2.7h0.1c0.1-0.8,0.4-1.7,0.6-2.7l1.2-4.1h1.5l-2.7,8.2h-1.4l-1.3-3.9c-0.3-0.9-0.5-1.7-0.7-2.7h0
			c-0.2,1-0.5,1.8-0.7,2.7l-1.3,3.9h-1.4l-2.5-8.2H299z"/>
		<path class="st1" d="M309.9,375.9c0-0.6,0.4-1.1,1-1.1c0.6,0,1,0.4,1,1.1c0,0.6-0.4,1.1-1,1.1C310.3,377,309.9,376.5,309.9,375.9z
			"/>
		<path class="st1" d="M313.5,375.3c0.4,0.3,1.2,0.6,2,0.6c1.1,0,1.6-0.5,1.6-1.2c0-0.7-0.4-1.1-1.5-1.5c-1.5-0.5-2.2-1.3-2.2-2.3
			c0-1.3,1.1-2.4,2.8-2.4c0.8,0,1.6,0.2,2,0.5l-0.4,1.1c-0.3-0.2-0.9-0.5-1.7-0.5c-0.9,0-1.4,0.5-1.4,1.1c0,0.7,0.5,1,1.6,1.4
			c1.4,0.5,2.2,1.3,2.2,2.5c0,1.4-1.1,2.5-3.1,2.5c-0.9,0-1.7-0.2-2.3-0.6L313.5,375.3z"/>
		<path class="st1" d="M327.4,374.6c0,0.9,0,1.6,0.1,2.2h-1.3l-0.1-1.3h0c-0.4,0.7-1.3,1.5-2.7,1.5c-1.3,0-2.8-0.7-2.8-3.6v-4.8h1.5
			v4.6c0,1.6,0.5,2.6,1.8,2.6c1,0,1.7-0.7,2-1.4c0.1-0.2,0.1-0.5,0.1-0.8v-5h1.5V374.6z"/>
		<path class="st1" d="M329.8,371.1c0-1,0-1.8-0.1-2.6h1.3l0.1,1.6h0.1c0.4-1.1,1.3-1.8,2.3-1.8c0.2,0,0.3,0,0.4,0.1v1.4
			c-0.2,0-0.3-0.1-0.5-0.1c-1.1,0-1.8,0.8-2,1.9c0,0.2-0.1,0.4-0.1,0.7v4.4h-1.5V371.1z"/>
		<path class="st1" d="M339.9,376.8l-0.1-1h-0.1c-0.5,0.6-1.3,1.2-2.5,1.2c-1.7,0-2.5-1.2-2.5-2.4c0-2,1.8-3.1,4.9-3.1v-0.2
			c0-0.7-0.2-1.9-1.9-1.9c-0.8,0-1.6,0.2-2.1,0.6l-0.3-1c0.7-0.4,1.7-0.7,2.7-0.7c2.5,0,3.1,1.7,3.1,3.4v3.1c0,0.7,0,1.4,0.1,2
			H339.9z M339.7,372.6c-1.6,0-3.5,0.3-3.5,1.9c0,1,0.6,1.4,1.4,1.4c1.1,0,1.8-0.7,2-1.4c0.1-0.2,0.1-0.3,0.1-0.5V372.6z"/>
		<path class="st1" d="M343.5,364.7h1.5v5.1h0c0.2-0.4,0.6-0.8,1.1-1.1c0.4-0.3,1-0.4,1.5-0.4c1.1,0,2.9,0.7,2.9,3.5v4.9H349v-4.7
			c0-1.3-0.5-2.4-1.9-2.4c-1,0-1.7,0.7-2,1.5c-0.1,0.2-0.1,0.4-0.1,0.7v5h-1.5V364.7z"/>
		<path class="st1" d="M358.6,375.5L358.6,375.5c-0.5,0.8-1.4,1.5-2.7,1.5c-1.9,0-3.5-1.7-3.5-4.2c0-3.1,2-4.4,3.7-4.4
			c1.3,0,2.1,0.6,2.5,1.4h0l0.1-1.2h1.4c0,0.7-0.1,1.4-0.1,2.3v9.3h-1.5V375.5z M358.6,371.9c0-0.2,0-0.4-0.1-0.6
			c-0.2-0.9-1-1.7-2.1-1.7c-1.5,0-2.5,1.3-2.5,3.2c0,1.6,0.8,3.1,2.4,3.1c1,0,1.8-0.6,2.1-1.6c0.1-0.2,0.1-0.5,0.1-0.7V371.9z"/>
		<path class="st1" d="M369.4,374.6c0,0.9,0,1.6,0.1,2.2h-1.3l-0.1-1.3h0c-0.4,0.7-1.3,1.5-2.7,1.5c-1.3,0-2.8-0.7-2.8-3.6v-4.8h1.5
			v4.6c0,1.6,0.5,2.6,1.8,2.6c1,0,1.7-0.7,2-1.4c0.1-0.2,0.1-0.5,0.1-0.8v-5h1.5V374.6z"/>
		<path class="st1" d="M371.9,371.1c0-1,0-1.8-0.1-2.6h1.3l0.1,1.6h0.1c0.4-1.1,1.3-1.8,2.3-1.8c0.2,0,0.3,0,0.4,0.1v1.4
			c-0.2,0-0.3-0.1-0.5-0.1c-1.1,0-1.8,0.8-2,1.9c0,0.2-0.1,0.4-0.1,0.7v4.4h-1.5V371.1z"/>
		<path class="st1" d="M381.9,376.8l-0.1-1h-0.1c-0.5,0.6-1.3,1.2-2.5,1.2c-1.7,0-2.5-1.2-2.5-2.4c0-2,1.8-3.1,4.9-3.1v-0.2
			c0-0.7-0.2-1.9-1.9-1.9c-0.8,0-1.6,0.2-2.1,0.6l-0.3-1c0.7-0.4,1.7-0.7,2.7-0.7c2.5,0,3.1,1.7,3.1,3.4v3.1c0,0.7,0,1.4,0.1,2
			H381.9z M381.7,372.6c-1.6,0-3.5,0.3-3.5,1.9c0,1,0.6,1.4,1.4,1.4c1.1,0,1.8-0.7,2-1.4c0.1-0.2,0.1-0.3,0.1-0.5V372.6z"/>
		<path class="st1" d="M385.6,370.8c0-0.9,0-1.5-0.1-2.2h1.3l0.1,1.4h0c0.4-0.8,1.4-1.5,2.7-1.5c1.1,0,2.9,0.7,2.9,3.5v4.9h-1.5
			v-4.7c0-1.3-0.5-2.4-1.9-2.4c-1,0-1.8,0.7-2,1.5c-0.1,0.2-0.1,0.4-0.1,0.7v4.9h-1.5V370.8z"/>
		<path class="st1" d="M394.6,375.9c0-0.6,0.4-1.1,1-1.1c0.6,0,1,0.4,1,1.1c0,0.6-0.4,1.1-1,1.1C395,377,394.6,376.5,394.6,375.9z"
			/>
		<path class="st1" d="M404.4,376.5c-0.4,0.2-1.3,0.5-2.4,0.5c-2.5,0-4.1-1.7-4.1-4.2c0-2.5,1.7-4.4,4.4-4.4c0.9,0,1.7,0.2,2.1,0.4
			l-0.3,1.2c-0.4-0.2-0.9-0.4-1.7-0.4c-1.9,0-2.9,1.4-2.9,3.1c0,1.9,1.2,3.1,2.9,3.1c0.8,0,1.4-0.2,1.8-0.4L404.4,376.5z"/>
		<path class="st1" d="M413.5,372.6c0,3-2.1,4.4-4.1,4.4c-2.2,0-3.9-1.6-3.9-4.2c0-2.8,1.8-4.4,4.1-4.4
			C411.9,368.4,413.5,370.1,413.5,372.6z M406.9,372.7c0,1.8,1,3.2,2.5,3.2c1.4,0,2.5-1.3,2.5-3.2c0-1.4-0.7-3.2-2.5-3.2
			S406.9,371.1,406.9,372.7z"/>
		<path class="st1" d="M415.4,370.8c0-0.9,0-1.5-0.1-2.2h1.3l0.1,1.3h0.1c0.5-0.8,1.2-1.5,2.6-1.5c1.1,0,2,0.7,2.3,1.6h0
			c0.3-0.5,0.6-0.8,0.9-1.1c0.5-0.4,1-0.6,1.8-0.6c1.1,0,2.7,0.7,2.7,3.6v4.8h-1.5v-4.7c0-1.6-0.6-2.5-1.8-2.5
			c-0.9,0-1.5,0.6-1.8,1.4c-0.1,0.2-0.1,0.5-0.1,0.7v5.1h-1.5v-4.9c0-1.3-0.6-2.3-1.7-2.3c-0.9,0-1.6,0.7-1.9,1.5
			c-0.1,0.2-0.1,0.5-0.1,0.7v5h-1.5V370.8z"/>
	</g>
</g>
<g id="Layer_4">
	<path class="st1" d="M377.9,103h1.3c7.6,17.9,12,29.4,13.1,34.4v0.7h-2.5c-1.7-0.8-2.5-2.1-2.5-3.8h-2.5v0.6
		c8,51.9,11.9,83.6,11.9,95.2v3.2c0,9.4-1.7,16.3-5,20.6c-0.8,0-1.3-0.6-1.3-1.8c0-14.8-4.8-56.3-14.4-124.6l-1.8-15
		C375.5,106.1,376.8,103,377.9,103z M307.8,104.8l0.6,0.7c-1.7,4.5-2.5,8.7-2.5,12.5v4.3c1.1,2.5,2.7,3.8,5,3.8
		c1-2.5,1.8-3.8,2.5-3.8h0.7v0.7c0,4.1-1.7,7.6-5,10.6h-1.9c-2.7,0-4.4-4-5-11.9c0.8-6.7,2.5-12.4,5-16.9H307.8z M262,107.3
		c10,15.6,15,25.7,15,30.1v0.7h-1.3c-2.2-2.1-3.9-3.2-5-3.2l-0.6,0.7v0.6c8.3,54.3,12.5,84.8,12.5,91.4c-1.2,13.6-2.8,20.7-5,21.3
		l-1.3-1.3v-3.8c0-14.9-5.8-56.9-17.5-125.8C259.5,111.6,260.5,108,262,107.3z M436.1,107.3c1.6,0,2.9,2.5,3.8,7.5l-0.6,11.3
		c4.2,2.4,6.3,4.9,6.3,7.5c-0.4,2.9-1.1,4.4-1.9,4.4H443c-1.7-2.1-3.8-3.8-6.3-5c-1.8,0-7.4,4.8-16.9,14.4
		c-12.1,5.8-19,8.8-20.6,8.8v-1.3c0.3-0.9,5.8-4.6,16.3-11.3c5.2-2.9,10.2-7.3,15-13.1v-1.3c-2.9-3.9-4.4-6.6-4.4-8.2
		C427.6,111.9,430.9,107.3,436.1,107.3z M577.6,109.2c2.6,1.8,4.3,4.1,5,6.8c-0.4,2.9-1,4.4-1.8,4.4c-1.6,0-3.5-1.1-5.7-3.2h-2.5
		c-1.7,0.9-2.5,1.9-2.5,3.2c-0.4,20.4-1.8,30.6-4.3,30.6C558.8,139,554,133,551.3,133c-5.8-1.9-8.8-5-8.8-9.4c0-1.8,1.1-3.5,3.2-5
		c4.7,1.1,11,6.7,18.8,16.9h1.3c0-14.7,3.1-23.5,9.3-26.3H577.6z M228.9,109.8c3.3,1.8,5,4,5,6.5c0,2.5-0.6,3.9-1.9,4.2l-6.3-3.2
		c-2.1,0-3.1,6.7-3.1,20c-1.7,7.5-2.9,11.3-3.8,11.3h-0.7c-4.8-12.9-10.5-19.4-16.9-19.4c-3.3-1.9-5-4-5-6.3c0-4.2,1-6.3,3.1-6.3
		c5.2,0,11.2,6,18.2,18.1h1.8v-4.3C220.5,116.7,223.7,109.8,228.9,109.8z M521.9,111.1l0.6,1.9c-0.3,4.2-12,11.9-35.1,23.1
		c-0.1,0.8-8.2,5.8-24.4,15h-1.3l-0.7-1.8c0-4.3,9.6-11.2,28.8-20.7C506.4,118.5,517.1,112.7,521.9,111.1z M623.9,111.1
		c3.6,0,5.5,4.8,5.7,14.4v4.3l4.3,5.7v2.5l-0.6,3.1h-0.7l-6.8-2.5c-17.7,16.6-34.2,26.8-49.5,30.7h-1.3v-1.3
		c26.9-16,42.2-26.5,45.7-31.3l0.6-2.5c-4.2-2-6.3-4.9-6.3-8.8h-0.6C616.6,115.9,619.7,111.1,623.9,111.1z M113,114.8
		c5.5,1.7,8.2,4.8,8.2,9.4l-2.5,1.8l-6.9-3.1h-1.3l-3.8,27.5c-1.3,2.9-2.4,4.3-3.1,4.3c-2.3-7.1-6.3-13.8-11.9-20h-1.8
		c0,8.3-7.7,16.7-23.2,25h-1.3v-0.6c13.8-12.9,20.7-20.8,20.7-23.8v-0.7c-3.8-2.9-5.7-5.8-5.7-8.8c0.8-3.3,1.6-5,2.5-5h1.3
		c5.6,0,12.1,6.5,19.5,19.5h1.3C106.8,123.4,109.5,114.8,113,114.8z M430.5,118c0.8,2.5,2.5,3.8,5,3.8v-5l-1.3-1.3h-1.9
		C431.3,115.5,430.6,116.3,430.5,118z M170.6,118.6h0.7v0.7l-3.8,17.5v10c0,4.5,2.1,7.2,6.3,8.1c1.1,0,2.1-2.1,3.1-6.3h1.9l0.6,1.9
		c-1.6,9.6-4.3,14.4-8.1,14.4h-0.7c-5-2.9-7.5-7.7-7.5-14.4V148C163.1,138.2,165.6,128.4,170.6,118.6z M618.9,123
		c0.9,1.6,2.6,3,5,4.3h0.7c1.2,0,1.8-0.8,1.8-2.5c0-3.7-1.7-5.6-5-5.6C619.7,119.6,618.9,120.9,618.9,123z M354.7,123.6l1.3,1.9v0.6
		c0,3.5-6.9,7.8-20.6,13.2l-25,11.9l-22.5,13.2l-1.3,1.8l5,5c-0.6,2.9-1.8,4.4-3.8,4.4c-3.8-0.8-5.7-3.3-5.7-7.5c0-8,9-15.5,27-22.5
		C320.6,138.7,335.8,131.4,354.7,123.6z M247,142.4l0.7,1.9c-2,3.4-3.1,8.6-3.2,15.6c0.9,4.2,2.4,6.3,4.4,6.3l3.8-3.8h0.6l0.7,1.9
		c-1.9,6.7-3.6,10-5,10h-0.7c-4.2,0-6.7-4-7.5-11.9C243,149,245,142.4,247,142.4z M528.7,150.5h0.7v0.6c-2.1,5.2-3.2,9.9-3.2,14.2
		c0,4.3,1.9,6.9,5.7,7.7c0.9,0,2-1.9,3.1-5.7h0.7l0.6,1.9c0,5.8-2.1,9.7-6.3,11.9c-4,0-6.5-4.2-7.5-12.5
		C523.3,161.4,525.3,155.4,528.7,150.5z M444.2,154.3c1.9,0.3,5.3,3.3,10,8.8v1.3c0,2.9-1.9,5.9-5.7,8.8H448
		c-5.4-4.2-8.7-6.3-10-6.3c-2.8,5.4-4.9,8.1-6.3,8.1c-3.9-1.9-7.2-4.6-10-8.1v-0.7c1.6-6.2,3.7-9.3,6.3-9.3l8.1,5h1.3
		C440.9,156.8,443.2,154.3,444.2,154.3z M625.2,157.4h1.3v2.5c-2.1,2.5-3.1,5.8-3.1,10v2.5c0.5,3.3,1.8,5,3.8,5
		c1.7-0.4,2.5-1.4,2.5-3.1h1.8v1.3h0.7c-1.8,6.7-4.1,10-6.9,10c-3.7-1.2-5.6-4.7-5.6-10.7C619.6,170.6,621.4,164.8,625.2,157.4z
		 M352.8,158.6h6.8c3.2,0,5.1,0.8,5.7,2.5c-3.6,11.3-10.1,16.9-19.5,16.9v-1.3l9.4-7.5v-1.3c-6.4,0-11,1-13.8,3.1h-0.7
		c-0.8,0-1.3-0.6-1.3-1.8C342.9,162.2,347.3,158.6,352.8,158.6z M151.2,163.1l1.8,1.3c0,4.2-7.9,9.8-23.8,16.9
		c-12.1,7.6-21.3,12.4-27.5,14.4l-1.3-1.3c0-3.8,7.9-9.2,23.8-16.3L151.2,163.1z M321.5,164.9v0.7c-1.7,5.8-2.5,10.4-2.5,13.8v3.8
		c0,2.3,1,4,3.1,5h0.7l3.8-3.8h0.6v1.8c0,4.2-1.9,7.8-5.6,10.7c-4.2-2.2-6.3-5.3-6.3-9.4C315.3,178.1,317.4,170.6,321.5,164.9z
		 M206.3,166.8c10.4,3.2,15.6,5.5,15.6,6.8v1.3c-1.2,0-1.8,0.4-1.8,1.3v0.7c0.9,2.1,10.5,7.3,28.8,15.6c4.4,4.9,6.7,9.3,6.8,13.2
		v1.3c0,12.1-1.9,18.1-5.6,18.1c-5.5,1.7-8.2,8.6-8.2,20.7v5.6c2.3,11.7,9.2,17.5,20.7,17.5h1.8c12.3,0,26.9-7.9,43.8-23.8
		c3.3-3.3,5-6,5-8.1c0-3.6-2.9-11.3-8.8-23.2l1.9-8.1h1.3c5.4,8.3,9.3,12.5,11.9,12.5c4,2.5,10.9,3.8,20.7,3.8
		c16.7-1.3,26.1-4.4,28.1-9.4l-6.3-11.9v-2.5c0.3-4.2,1.2-6.3,2.5-6.3c6.3,5.3,9.4,11.2,9.4,17.5v3.1c-1.3,12.1-5.9,18.2-13.8,18.2
		c-6.1,2.9-15.5,4.3-28.2,4.3h-0.6l-11.9-1.8c-1.9,13.4-4.2,20-6.8,20c-10,11.3-18.1,18-24.5,20c-7.9,5.1-17.1,8-27.5,8.8
		c-12.1,0-20-7.5-23.8-22.5l-0.6-9.4l3.8-19.4v-3.2l-30.1-3.1c-10.9,5-19.5,7.5-25.7,7.5c-11.2-1.6-16.9-3.6-16.9-6.3
		c-1.4,0-5.2-4.2-11.3-12.5h-0.7c-7,0-12,5.4-15,16.3c0,8,7.7,14.4,23.2,19.4c3.3,1.3,5,2.9,5,5l0.6,0.7l0.7,1.8
		c-0.8,5.8-1.9,8.8-3.2,8.8c-8.8-5-17.2-7.5-25-7.5c-13.6,0-33.4,10.2-59.4,30.7c-6.2,2.5-10.6,3.8-13.2,3.8
		c-9.4,0-15.9-5.8-19.4-17.5l-0.7-2.5c0-12.2,5.8-26,17.5-41.3V230c-3.3-6.4-5-12.8-5-19.1s2.7-17.5,8.2-33.5h1.3l0.6,3.2
		c-3.7,13.4-5.6,21.9-5.6,25.6c0.7,10,3.4,15,8.1,15c3.1-5.4,5-8.1,5.7-8.1l0.6,0.6v3.2c0,7.3-3.5,13-10.6,16.9
		c-7.8,7.8-13.2,18.4-16.3,32v5c0,5.7,3.1,9.1,9.3,10h3.8c7.8-1,16.6-5.6,26.3-13.8c16.4-11.7,30.8-19.1,43.2-22v-0.6l-0.7-8.8
		c0-19.6,7.3-31.6,22-35.7c2.5,0.7,6.3,5.1,11.3,13.2c6.3,3.7,11.5,5.6,15.6,5.6c8.8-0.6,13.2-1.6,13.2-3.1l-1.9-9.4
		c2.1-12,5.3-20.4,9.4-25l-0.7-6.3v-2.5C204.7,168.8,205.4,166.9,206.3,166.8z M482.4,168.7h0.7c9.2,8.7,13.8,14,13.8,15.7l-1.9,1.3
		l-2.5-0.7l-0.6,0.7v0.6l8.8,17.5l1.3,5.7v3.1c0,13.1-5.6,22.9-16.9,29.5c-2.1,3.8-3.1,7.8-3.1,11.9c2.8,12.5,8.8,18.8,18.1,18.8
		h7.5c11.6,0,28.5-11.3,50.8-33.8l0.6-3.1v-1.3l-1.3-1.3l-17.5,2.5c-9.6-1.4-14.4-5.4-14.4-11.9v-2.5c0-9.2,4.6-15.6,13.8-19.4
		l2.5-0.7c5,0,11.8,5.2,20.6,15.7h0.7c5.1-2.3,11.8-6.5,20-12.5l3.1-0.7h0.7l1.3,3.8l-0.7,6.9c3.1,5.4,9,8.1,17.5,8.1
		c7,0,13.7-6.7,20-20l1.9-1.3h1.8v0.7l-2.5,9.3v0.7c3.2,4.2,7.6,6.3,13.2,6.3l5-0.7c0-1.6-1.1-4.5-3.2-8.8c1.1-6.7,2.4-10,3.8-10
		c3.8,3.4,5.7,8.2,5.7,14.4v3.8c-1.8,10-6,15-12.5,15c-5.6,0-11.5-2.9-17.5-8.8h-0.7c-6.1,8.3-12.7,12.5-20,12.5
		c-12.1-2.3-18.1-7.8-18.1-16.3h-1.9c-9.6,5.5-14.4,9.8-14.4,13.1c0,14-13.6,29.6-40.7,47c-9.7,4.6-17.2,6.8-22.5,6.8
		c-10.4,0-18.1-5.6-23.1-16.9c-0.8-1.4-1.5-4.7-1.9-10l0.7-11.3h-1.3c-21.3,14.2-37.3,21.5-48.3,21.9l-17.5,3.8h-2.5l-0.6-0.6h-0.7
		c0-1.9,4-4,11.9-6.3c25.5-12.4,46.4-24.5,62.6-36.3c7.2-4.4,12-9,14.4-13.8c0-1.4-4-10-11.9-25.7l-5-13.1
		C480.4,171.8,481.4,168.7,482.4,168.7z M455.5,177.4h1.3v1.3h0.6c-0.9,5.4-4.9,13.3-11.9,23.8v0.7c8.7,5.5,13.1,11.8,13.1,18.8
		c0,8.6-4.8,15.4-14.4,20.6c0,1.2-4,2.6-11.9,4.4c-4.2,0-7.2-3.8-8.8-11.3c0-9,2.3-17.4,6.9-25v-1.3c-11.3-10.9-16.9-16.8-16.9-17.5
		v-3.2l1.3-7.5h1.9c1.7,1.5,6.5,3.6,14.4,6.3l1.3,1.9v1.8l-2.5,0.7v1.8c2.6,2.9,5.1,4.4,7.5,4.4h0.7
		C440.5,196.1,446.3,189.2,455.5,177.4z M201.3,201.9c2.6,5.8,6.3,8.8,11.3,8.8c6.7-2.3,10-4.6,10-6.9v-1.3c0-4.4-3.1-8.6-9.4-12.5
		h-1.8C207,189.9,203.7,193.9,201.3,201.9z M228.9,198.1l-2.5,13.8v0.6l18.1,1.9c3.8-0.6,5.7-1.4,5.7-2.5v-0.7
		c0-4.1-6.1-8.4-18.2-13.1H228.9z M104.9,201.2h1.3v2.5c-2.5,3.8-3.8,8.6-3.8,14.4c0.5,5.8,1.9,8.8,4.3,8.8c1.3,0,2.3-1.3,3.2-3.8
		h1.8v0.6c0,6.2-2.3,9.8-6.8,10.7c-3.1,0-5.1-4.4-6.3-13.2C98.6,216.3,100.7,209.6,104.9,201.2z M428.6,228.2c0.3,3.3,2,5,5,5
		c5.6,0,11.7-2.9,18.2-8.8v-1.3c-0.8-1.7-5.2-4.9-13.2-9.4h-1.3C435,213.7,432.1,218.6,428.6,228.2z M534.4,218.7v0.7
		c0.7,1.7,2.1,2.5,4.3,2.5h0.7l9.3-0.7v-0.6c-2.1-3.3-5.2-5-9.3-5C537.2,215.7,535.5,216.7,534.4,218.7z M230.7,239.4l0.7,2.5
		c0,3.7-9.8,9.1-29.5,16.3c0,1.1-3.5,2.6-10.6,4.3V262l-0.7-0.7v-0.6c0-3.5,9.8-8.9,29.5-16.3C220.4,243.3,223.9,241.6,230.7,239.4z
		 M359.1,244.5c5.8,3.6,9.1,7,10,10c-2.3,5.4-4.4,8.1-6.3,8.1c-6.3-3.6-9.4-7-9.4-10C353.6,250.3,355.5,247.6,359.1,244.5z
		 M633.3,247h0.6l1.3,1.3v1.3c-1.9,8.7-4.8,13.1-8.8,13.1l-5.6-1.8l-8.2,4.3c-2.2-0.4-4.5-1.4-6.8-3.1H602
		c-2.5,0.6-11.7,5.6-27.5,15l-6.3,1.3L567,277c1.1,0,11.9-6.9,32.6-20.7c2.9-1.2,5.6-1.8,8.1-1.8l4.4,3.1h1.8c3,0,6.1-2.5,9.4-7.5
		c1.7,2.9,3.6,4.4,5.6,4.4h1.3C630.8,254.5,631.8,252,633.3,247z M333.4,255.1h1.9c2.5,1.5,3.8,4,3.8,7.5c0,7.7-4.8,14.2-14.4,19.5
		v-1.9l10.7-12.5v-1.8l-1.3-2.5h-0.7l-4.3,0.6l-0.7-0.6C329.7,258.6,331.3,255.9,333.4,255.1z M397.3,256.3h0.7l2.5,2.5
		c-1.3,3.8-2.3,5.7-3.2,5.7h-0.6l-2.5-1.9h-1.3l-1.9,1.9v1.3l4.4,1.3h8.1l0.7,1.8c0,2.9-5.8,5.5-17.5,7.5h-1.3v-0.6l0.6-4.4
		l-1.8-3.8C384.1,263.1,388.5,259.4,397.3,256.3z M219.4,259.5l0.7,0.6c-1.7,5-2.5,9-2.5,11.9v3.1c0,2.6,1.4,4.5,4.3,5.7l3.2-1.9
		h0.6v0.7c-1.4,5.8-3.5,8.8-6.3,8.8c-3.7-1.8-5.6-5-5.6-9.4v-0.6C213.8,271.9,215.7,265.7,219.4,259.5z M126.2,264.5h2.5l-3.8,11.3
		v1.8c0,3.3,1.4,5,4.3,5h0.7c1.2,0,1.8-0.8,1.8-2.5h0.7l0.6,0.7h0.7c-1.4,6.7-3.7,10-6.9,10c-3.7,0-5.6-3.6-5.6-10.7
		C121.9,275.7,123.6,270.4,126.2,264.5z M181.9,269.5c2.9,0.6,6,3.3,9.4,8.1c-2.6,5.7-4.5,8.7-5.7,8.8h-1.3c-3.4-3.3-6.3-5-8.8-5
		c-0.8,0-2.3,2.1-4.3,6.3h-3.2c-1.8-0.8-4.7-3.3-8.8-7.5v-0.6c2-5.8,4.1-8.8,6.3-8.8c4,2.9,6.9,4.3,8.8,4.3h0.7
		C177.6,271.4,179.9,269.5,181.9,269.5z M407.3,277.6l0.7,0.7v1.3c0,3.5-5.6,6.4-16.9,8.8c-1.3,1.2-5.3,2.4-11.9,3.8h-1.3
		C377.9,287.5,387.7,282.7,407.3,277.6z"/>
</g>
</svg>
