<?xml version="1.0" encoding="utf-8"?>
<!-- Generator: Adobe Illustrator 25.2.3, SVG Export Plug-In . SVG Version: 6.00 Build 0)  -->
<svg version="1.1" xmlns="http://www.w3.org/2000/svg" xmlns:xlink="http://www.w3.org/1999/xlink" x="0px" y="0px"
	 viewBox="0 0 700 395" style="enable-background:new 0 0 700 395;" xml:space="preserve">
<style type="text/css">
	.st0{fill:#000222;}
	.st1{fill:#FFFFFF;}
</style>
<g id="Layer_1">
	<rect class="st0" width="700" height="395"/>
</g>
<g id="Layer_3">
	<g>
		<path class="st1" d="M273.5,368.6l1.1,4.2c0.2,0.9,0.5,1.8,0.6,2.6h0.1c0.2-0.8,0.5-1.7,0.7-2.6l1.3-4.2h1.3l1.3,4.1
			c0.3,1,0.5,1.9,0.7,2.7h0.1c0.1-0.8,0.4-1.7,0.6-2.7l1.2-4.1h1.5l-2.7,8.2H280l-1.3-3.9c-0.3-0.9-0.5-1.7-0.7-2.7h0
			c-0.2,1-0.5,1.8-0.7,2.7l-1.3,3.9h-1.4l-2.5-8.2H273.5z"/>
		<path class="st1" d="M286.3,368.6l1.1,4.2c0.2,0.9,0.5,1.8,0.6,2.6h0.1c0.2-0.8,0.5-1.7,0.7-2.6l1.3-4.2h1.3l1.3,4.1
			c0.3,1,0.5,1.9,0.7,2.7h0.1c0.1-0.8,0.4-1.7,0.6-2.7l1.2-4.1h1.5l-2.7,8.2h-1.4l-1.3-3.9c-0.3-0.9-0.5-1.7-0.7-2.7h0
			c-0.2,1-0.5,1.8-0.7,2.7l-1.3,3.9h-1.4l-2.5-8.2H286.3z"/>
		<path class="st1" d="M299,368.6l1.1,4.2c0.2,0.9,0.5,1.8,0.6,2.6h0.1c0.2-0.8,0.5-1.7,0.7-2.6l1.3-4.2h1.3l1.3,4.1
			c0.3,1,0.5,1.9,0.7,2.7h0.1c0.1-0.8,0.4-1.7,0.6-2.7l1.2-4.1h1.5l-2.7,8.2h-1.4l-1.3-3.9c-0.3-0.9-0.5-1.7-0.7-2.7h0
			c-0.2,1-0.5,1.8-0.7,2.7l-1.3,3.9h-1.4l-2.5-8.2H299z"/>
		<path class="st1" d="M309.9,375.9c0-0.6,0.4-1.1,1-1.1c0.6,0,1,0.4,1,1.1c0,0.6-0.4,1.1-1,1.1C310.3,377,309.9,376.5,309.9,375.9z
			"/>
		<path class="st1" d="M313.5,375.3c0.4,0.3,1.2,0.6,2,0.6c1.1,0,1.6-0.5,1.6-1.2c0-0.7-0.4-1.1-1.5-1.5c-1.5-0.5-2.2-1.3-2.2-2.3
			c0-1.3,1.1-2.4,2.8-2.4c0.8,0,1.6,0.2,2,0.5l-0.4,1.1c-0.3-0.2-0.9-0.5-1.7-0.5c-0.9,0-1.4,0.5-1.4,1.1c0,0.7,0.5,1,1.6,1.4
			c1.4,0.5,2.2,1.3,2.2,2.5c0,1.4-1.1,2.5-3.1,2.5c-0.9,0-1.7-0.2-2.3-0.6L313.5,375.3z"/>
		<path class="st1" d="M327.4,374.6c0,0.9,0,1.6,0.1,2.2h-1.3l-0.1-1.3h0c-0.4,0.7-1.3,1.5-2.7,1.5c-1.3,0-2.8-0.7-2.8-3.6v-4.8h1.5
			v4.6c0,1.6,0.5,2.6,1.8,2.6c1,0,1.7-0.7,2-1.4c0.1-0.2,0.1-0.5,0.1-0.8v-5h1.5V374.6z"/>
		<path class="st1" d="M329.8,371.1c0-1,0-1.8-0.1-2.6h1.3l0.1,1.6h0.1c0.4-1.1,1.3-1.8,2.3-1.8c0.2,0,0.3,0,0.4,0.1v1.4
			c-0.2,0-0.3-0.1-0.5-0.1c-1.1,0-1.8,0.8-2,1.9c0,0.2-0.1,0.4-0.1,0.7v4.4h-1.5V371.1z"/>
		<path class="st1" d="M339.9,376.8l-0.1-1h-0.1c-0.5,0.6-1.3,1.2-2.5,1.2c-1.7,0-2.5-1.2-2.5-2.4c0-2,1.8-3.1,4.9-3.1v-0.2
			c0-0.7-0.2-1.9-1.9-1.9c-0.8,0-1.6,0.2-2.1,0.6l-0.3-1c0.7-0.4,1.7-0.7,2.7-0.7c2.5,0,3.1,1.7,3.1,3.4v3.1c0,0.7,0,1.4,0.1,2
			H339.9z M339.7,372.6c-1.6,0-3.5,0.3-3.5,1.9c0,1,0.6,1.4,1.4,1.4c1.1,0,1.8-0.7,2-1.4c0.1-0.2,0.1-0.3,0.1-0.5V372.6z"/>
		<path class="st1" d="M343.5,364.7h1.5v5.1h0c0.2-0.4,0.6-0.8,1.1-1.1c0.4-0.3,1-0.4,1.5-0.4c1.1,0,2.9,0.7,2.9,3.5v4.9H349v-4.7
			c0-1.3-0.5-2.4-1.9-2.4c-1,0-1.7,0.7-2,1.5c-0.1,0.2-0.1,0.4-0.1,0.7v5h-1.5V364.7z"/>
		<path class="st1" d="M358.6,375.5L358.6,375.5c-0.5,0.8-1.4,1.5-2.7,1.5c-1.9,0-3.5-1.7-3.5-4.2c0-3.1,2-4.4,3.7-4.4
			c1.3,0,2.1,0.6,2.5,1.4h0l0.1-1.2h1.4c0,0.7-0.1,1.4-0.1,2.3v9.3h-1.5V375.5z M358.6,371.9c0-0.2,0-0.4-0.1-0.6
			c-0.2-0.9-1-1.7-2.1-1.7c-1.5,0-2.5,1.3-2.5,3.2c0,1.6,0.8,3.1,2.4,3.1c1,0,1.8-0.6,2.1-1.6c0.1-0.2,0.1-0.5,0.1-0.7V371.9z"/>
		<path class="st1" d="M369.4,374.6c0,0.9,0,1.6,0.1,2.2h-1.3l-0.1-1.3h0c-0.4,0.7-1.3,1.5-2.7,1.5c-1.3,0-2.8-0.7-2.8-3.6v-4.8h1.5
			v4.6c0,1.6,0.5,2.6,1.8,2.6c1,0,1.7-0.7,2-1.4c0.1-0.2,0.1-0.5,0.1-0.8v-5h1.5V374.6z"/>
		<path class="st1" d="M371.9,371.1c0-1,0-1.8-0.1-2.6h1.3l0.1,1.6h0.1c0.4-1.1,1.3-1.8,2.3-1.8c0.2,0,0.3,0,0.4,0.1v1.4
			c-0.2,0-0.3-0.1-0.5-0.1c-1.1,0-1.8,0.8-2,1.9c0,0.2-0.1,0.4-0.1,0.7v4.4h-1.5V371.1z"/>
		<path class="st1" d="M381.9,376.8l-0.1-1h-0.1c-0.5,0.6-1.3,1.2-2.5,1.2c-1.7,0-2.5-1.2-2.5-2.4c0-2,1.8-3.1,4.9-3.1v-0.2
			c0-0.7-0.2-1.9-1.9-1.9c-0.8,0-1.6,0.2-2.1,0.6l-0.3-1c0.7-0.4,1.7-0.7,2.7-0.7c2.5,0,3.1,1.7,3.1,3.4v3.1c0,0.7,0,1.4,0.1,2
			H381.9z M381.7,372.6c-1.6,0-3.5,0.3-3.5,1.9c0,1,0.6,1.4,1.4,1.4c1.1,0,1.8-0.7,2-1.4c0.1-0.2,0.1-0.3,0.1-0.5V372.6z"/>
		<path class="st1" d="M385.6,370.8c0-0.9,0-1.5-0.1-2.2h1.3l0.1,1.4h0c0.4-0.8,1.4-1.5,2.7-1.5c1.1,0,2.9,0.7,2.9,3.5v4.9h-1.5
			v-4.7c0-1.3-0.5-2.4-1.9-2.4c-1,0-1.8,0.7-2,1.5c-0.1,0.2-0.1,0.4-0.1,0.7v4.9h-1.5V370.8z"/>
		<path class="st1" d="M394.6,375.9c0-0.6,0.4-1.1,1-1.1c0.6,0,1,0.4,1,1.1c0,0.6-0.4,1.1-1,1.1C395,377,394.6,376.5,394.6,375.9z"
			/>
		<path class="st1" d="M404.4,376.5c-0.4,0.2-1.3,0.5-2.4,0.5c-2.5,0-4.1-1.7-4.1-4.2c0-2.5,1.7-4.4,4.4-4.4c0.9,0,1.7,0.2,2.1,0.4
			l-0.3,1.2c-0.4-0.2-0.9-0.4-1.7-0.4c-1.9,0-2.9,1.4-2.9,3.1c0,1.9,1.2,3.1,2.9,3.1c0.8,0,1.4-0.2,1.8-0.4L404.4,376.5z"/>
		<path class="st1" d="M413.5,372.6c0,3-2.1,4.4-4.1,4.4c-2.2,0-3.9-1.6-3.9-4.2c0-2.8,1.8-4.4,4.1-4.4
			C411.9,368.4,413.5,370.1,413.5,372.6z M406.9,372.7c0,1.8,1,3.2,2.5,3.2c1.4,0,2.5-1.3,2.5-3.2c0-1.4-0.7-3.2-2.5-3.2
			S406.9,371.1,406.9,372.7z"/>
		<path class="st1" d="M415.4,370.8c0-0.9,0-1.5-0.1-2.2h1.3l0.1,1.3h0.1c0.5-0.8,1.2-1.5,2.6-1.5c1.1,0,2,0.7,2.3,1.6h0
			c0.3-0.5,0.6-0.8,0.9-1.1c0.5-0.4,1-0.6,1.8-0.6c1.1,0,2.7,0.7,2.7,3.6v4.8h-1.5v-4.7c0-1.6-0.6-2.5-1.8-2.5
			c-0.9,0-1.5,0.6-1.8,1.4c-0.1,0.2-0.1,0.5-0.1,0.7v5.1h-1.5v-4.9c0-1.3-0.6-2.3-1.7-2.3c-0.9,0-1.6,0.7-1.9,1.5
			c-0.1,0.2-0.1,0.5-0.1,0.7v5h-1.5V370.8z"/>
	</g>
</g>
<g id="Layer_4">
	<path class="st1" d="M278.9,99.2h0.7c0,1.4,4.5,11.3,13.5,29.6v2.7l-0.7,0.7H291l-4-3.4h-1.3l10.8,70.8v2l-1.3,13.5
		c0,1.7,11.9,4,35.7,6.7h5.4v-0.6c-9.5-66.3-14.8-101.2-16.2-104.5c1.9-8.1,3.4-12.1,4.7-12.1h1.3l13.5,31.7l0.7,2l-1.3,2.1l-4.8-4
		l-2-0.7v0.7l-0.7,0.6l14.8,84.9l2.7,2.1l18.2,0.6l2,0.7v2c-2.6,7.2-4.8,10.8-6.7,10.8l-3.3-0.6h-6.7c-2.3,0.1-3.4,0.6-3.4,1.3
		c0,15.9-2,28.1-6,36.4h-1.3l-0.7-3.4v-8.7c0-13.8-1.1-22.1-3.3-25c-7.2,0-21.6,4.9-43.1,14.8c-15.4,6.3-31.3,10.3-47.9,12.1
		c-16.5,0-27.9-6.3-34.3-18.9l-2.1-9.4l2.1-18.1c-19.3,8.1-29,13-29,14.8l-1.3,8.1h-2c0-2.3-1.3-4.4-4-6.1h-1.3
		c-27.4,9.9-45.8,22.9-55.2,39.1c-11.1,14-20.7,20.9-29,20.9c-9.9,0-16.9-7.6-20.8-22.9l-0.7-4.8c0-11.7,4.3-25.8,12.8-42.4
		l-4.8-9.4c-1.3-3.9-2.2-8.4-2.7-13.5c0.3-9.2,3-21.1,8.1-35.7l0.7-0.6h0.6l0.7,0.6v0.7c-3.2,13.5-4.8,23.6-4.8,30.3v4
		c1.7,9,4.6,13.5,8.8,13.5c1.7,0,3.3-3.4,4.7-10.1h0.7l1.3,1.3v4.7c0,6.8-3.1,12.4-9.4,16.9c-6.8,11-10.6,21.6-11.5,31.6v8.1
		c2,9.9,6.7,14.8,14.2,14.8c9.4,0,21.5-10.1,36.4-30.3c11.9-12.2,24.9-20.9,39.1-26.3l1.3-1.3v-1.3c-1.3-1.9-6.2-6-14.8-12.1
		c-3.1-3.4-4.8-7.6-5.4-12.8c0-8.9,7.4-15,22.2-18.2l13.5-0.6c43.9,1.8,66.6,4.9,68.1,9.4c-2.2,8.5-5.6,12.8-10.1,12.8
		c-2.4,2.3-8.9,6.6-19.5,12.8l-4,11.4c0,14.3,9.2,22.6,27.6,25h3.4c14,0,29.9-3.6,47.8-10.8c9-3.2,13.5-5.4,13.5-6.7
		c-21.7-5.4-37-8.1-45.8-8.1l-10.1,0.6l-1.3-2c1.3-7.7,5.1-11.5,11.4-11.5c18.4-1.4,27.7-3,27.7-4.7v-3.4l-14.8-91.6v-2
		C275.9,103,277.4,99.2,278.9,99.2z M185.3,99.9l0.6,0.6c-2.2,5.7-3.3,10.1-3.3,13c0,2.9,1.1,5.1,3.3,6.6h1.3l3.4-2.7v1.3
		c0,3.1-1.8,6.3-5.4,9.4c-4.1-1.2-6.1-4.7-6.1-10.6S181.3,105.8,185.3,99.9z M547.7,99.9c4.5,2.5,6.7,5.3,6.7,8.3
		c0,3-0.9,4.5-2.7,4.5l-5.4-4h-2.7c-2.3,0-3.4,9.9-3.4,29.6l-2,7.5h-1.3c-3.1-6.6-7.4-12.7-12.8-18.2c-4.5,0-8.7-2.9-12.8-8.7
		c0.8-4.1,1.7-6.1,2.7-6.1h0.6c5.1,0,12.3,6.1,21.6,18.2l0.7-0.7v-4c0-14.1,2.9-22.7,8.7-25.6L547.7,99.9z M598.9,101.2h1.3
		c3.6,0,5.4,6.9,5.4,20.8c3.1,2.9,4.7,5.8,4.7,8.8l-2,2l-6.1-3.3c-21,20.8-38.9,32.2-53.9,34.3c0.9-1.6,10.3-7.9,28.3-18.9
		c13.5-9.3,20.2-15.4,20.2-18.1c-4.5-4.4-6.7-7.5-6.7-9.4C590.1,108,593,102.6,598.9,101.2z M396.8,103.2c2.3,0,3.7,2.9,4,8.8
		l-0.7,11.4c5,3.1,7.5,6,7.5,8.8l-2.1,3.3c-4.3-3.1-7.2-4.7-8.7-4.7h-0.7c-12.8,13.2-23.7,21.3-33,24.2l-2.1,0.6h-1.3v-1.3
		c13.6-8.9,24.2-17.5,31.7-25.6v-2c-3.2-3.9-4.8-6.8-4.8-8.8C388.8,108.1,392.2,103.2,396.8,103.2z M488.4,104.5h0.6v2.7
		c0,3.7-8.3,9.7-24.9,18.2c-19.8,12.9-32.6,20.5-38.4,22.9v-2.7c0-3.2,6.7-8.4,20.2-15.5C472.7,113.1,486.9,104.5,488.4,104.5z
		 M124.7,106.6c4,1,6,4.4,6,10.1c-0.7,1.8-1.3,2.7-2,2.7H128c-2.3-2.2-4.3-3.3-6-3.3l-1.3,1.3v2c0,25.1-4.9,40.2-14.8,45.2
		c0,1.5-2.7,2.8-8.1,4v-0.7c11.2-10.8,16.8-17.8,16.8-20.8c-2.7-8.4-6.5-14.3-11.4-17.5c-7.2-1.6-10.8-4.5-10.8-8.8
		c0.4-3.6,1.3-5.4,2.7-5.4c5.9,0,12.8,6.3,20.8,18.9h1.3v-8.1C117.2,117.4,119.7,110.9,124.7,106.6z M593.5,113.3
		c0.2,1.4,2.2,3.2,6,5.4h2.1V116c-0.4-4.5-1.7-6.7-4-6.7C596.2,109.3,594.8,110.7,593.5,113.3z M391.4,114v0.7
		c0,3.6,1.8,5.4,5.4,5.4V114l-2.1-2h-1.3L391.4,114z M239.8,112c0.9,0,1.3,0.7,1.3,2c-2.7,9.6-4,17.7-4,24.2
		c0,11.3,2.5,16.9,7.5,16.9c1.8-2.1,2.9-4.8,3.3-8.1h2.1l0.6,3.3v0.7c-2.2,9.9-4.8,14.8-8.1,14.8c-6.7-1.6-10.1-8.5-10.1-20.8
		C232.5,132.8,234.9,121.8,239.8,112z M186.7,136.2c9,0.5,13.5,1.6,13.5,3.3c-3.7,9.5-9,16-16.2,19.6l-8.8,3.3l-0.6-0.6v-0.7
		l11.4-10.1v-1.3l-3.3-0.7c-6.9,0.1-12.7,0.7-17.5,2.1l-0.7-0.7v-0.6c2.5-8.6,6.8-12.8,12.8-12.8L186.7,136.2z M497.9,146.3v0.7
		c-1.8,5.2-2.7,9.3-2.7,12.1v2c0,5.3,2,8.2,6,8.8h0.7c1.3,0,2.2-1.8,2.7-5.4h1.3l0.6,2c-2,7.7-4,11.5-6,11.5h-2.7
		c-4.1-2.8-6.1-7.4-6.1-13.8S493.8,151.8,497.9,146.3z M602.2,151.1h0.7l-3.4,11.4v2.1c0,3.8,1.3,6.5,4,8.1h0.7l4-4h0.6
		c0,4.6-1.8,8.4-5.4,11.4h-2.7c-3.1-2.4-4.7-6.2-4.7-11.4C598.5,156.9,600.5,151.1,602.2,151.1z M406.3,153.8
		c8.1,3.4,12.1,7,12.1,10.8c-2.6,5.4-4.9,8.1-6.7,8.1l-9.4-6.1c-0.9,0-3.1,2.9-6.7,8.8h-2.1l-10.1-8.1v-0.7c1.1-6.7,3.1-10.1,6-10.1
		c5.4,3.6,9,5.4,10.8,5.4L406.3,153.8z M448.7,167.2c10.4,8.8,15.5,14.4,15.5,16.8h-5.4v2.7c7.6,12,11.4,20.1,11.4,24.2v5.4
		c0,11.2-4.7,19.7-14.1,25.6c-4.1,3.4-6.1,8.1-6.1,14.2v2c0,9.3,5.4,16,16.2,20.2l6.7,0.7h0.7c15.7,0,35.1-13,57.9-39.1l1.3-2.1
		v-2.7l-2.1-2c-9,2.2-15.5,3.3-19.5,3.3c-9.9,0-14.8-5.1-14.8-15.4v-0.7c3.1-13.5,8.5-20.2,16.2-20.2c6.2,0,13.6,5.4,22.2,16.2h0.7
		c2.2,0,10.1-4.9,23.5-14.8l2.1-0.6l1.3,2v5.4c0,6.2,4,10.5,12.1,12.8h7.4c7.7,0,14.6-7.2,20.9-21.6l2.7-2.1h0.6v0.7l-2.7,9.4
		c0,3.2,4.5,5.9,13.5,8.1h5.4l2.1-2.1V213l-3.4-7.5c0-3.4,0.7-7,2.1-10.8h2.7c2.2,4.2,4,9.8,5.4,16.9c-1.9,12.1-6.6,18.1-14.2,18.1
		c-6.6,0-12.4-3.1-17.5-9.4h-1.3c-6.5,9.5-13.7,14.2-21.6,14.2c-13-2-19.5-7.7-19.5-16.9h-0.7c-1.8,0-7.4,3.8-16.8,11.5
		c0,13.8-6.5,26.1-19.6,37c-16.8,17.5-33,26.3-48.5,26.3c-14.2,0-22.9-9.4-26.2-28.3l0.6-0.7v-10.8h-0.6c-1.1,0-10.8,6.1-29,18.2
		c-9.5,6.6-25.4,12.2-47.8,16.8l-18.2,3.4v-0.7c2.7-2.5,13.3-7.2,31.7-14.1c27.7-14.5,52.4-30.3,74.1-47.2c5.8-5.7,8.7-9.5,8.7-11.5
		L450,189.4c-1-4.4-2.4-7.8-4-10.1v-2.7C446.4,170.4,447.3,167.2,448.7,167.2z M118.6,169.2h1.3v0.7c-1.8,7.3-2.7,12.9-2.7,16.8
		c1.4,5.9,3,8.8,4.8,8.8h1.3l3.3-3.4l0.7,0.7v0.6c-1.3,7.2-3.1,10.8-5.4,10.8c-5.4-2.7-8.1-7.4-8.1-14.1
		C113.9,185.5,115.5,178.5,118.6,169.2z M420.4,178h0.7v2.7c-0.4,5.3-4,12.5-10.8,21.6l-0.7,3.3c9.9,6.9,14.8,12.6,14.8,16.9
		c0,13.7-7.2,23.1-21.6,28.3l-6,1.3c-5.5,0-8.7-4-9.4-12.1c0-9.9,2.2-18.5,6.7-25.6c0-2-3.6-5.9-10.8-11.5
		c-5.4-4.7-8.1-8.3-8.1-10.8v-4l0.6-4.7h0.7c11,3.4,17.2,6.1,18.9,8.1v1.3c-2.3,0.3-3.4,1-3.4,2v0.7c0.5,1.1,3,2.9,7.5,5.4h0.6
		c3.1,0,8.7-6.7,16.9-20.2L420.4,178z M153,198.2v0.6l18.9,15.5c2.2,3.6,4.5,5.4,6.7,5.4c25.6-10.1,41-17.7,46.4-22.9v-0.7
		c-12.5-2.2-28.4-3.3-47.8-3.3C161.1,193.5,153,195.3,153,198.2z M505.2,218.4v2.7l8.1,1.3h2.7c3.3,0,5.1-0.7,5.4-2.1v-0.6
		c-2.5-3.2-5.9-4.8-10.1-4.8C507.3,216,505.2,217.2,505.2,218.4z M392.1,233.2c1.1,3.6,3.2,5.4,6.1,5.4c5.1,0,11.4-3.4,18.9-10.1v-2
		c-4.8-5-10-8.2-15.5-9.4h-0.6C395,223.4,392.1,228.8,392.1,233.2z M615.1,246c-1.4,11.3-4.5,16.9-9.4,16.9
		c-1.8-0.9-4.3-1.3-7.5-1.3c-2.6,2.7-5.1,4-7.6,4c-2.5,0-5.1-0.9-7.9-2.7h-1.3c-3.5,0-10.1,3.8-19.6,11.4c-8,5.1-14.5,7.8-19.5,8.1
		v-2c2.9,0,13.7-7.2,32.3-21.6l9.4-3.4c3.4,1.8,6.1,2.7,8.1,2.7h1.3c2.8,0,5.7-2.5,8.7-7.4l4,4h3.4c1.1,0,1.7-2,2-6.1
		c0.9,0,1.3-0.7,1.3-2l0.7-0.7H615.1z M188,256.8h1.3c7,4,10.8,6.6,11.4,8.1v1.3l-3.3,9.4H194c-7.6-4.3-11.4-7.4-11.4-9.4
		C184.7,259.9,186.5,256.8,188,256.8z M321.4,259.5l0.6,0.7v0.6c0,5.5-6,9.3-18.1,11.5c-18.2,6.7-31,10.7-38.4,12.1h-0.6l-0.7-0.7
		h-0.6c0-4.5,6.3-8.1,18.9-10.8C296.4,267.1,309.4,262.6,321.4,259.5z M217.7,260.8h1.3v0.7l-2.1,9.4v6c0,2.7,1.3,4.9,4,6.7h1.3
		l3.4-3.3h0.6c0,4.6-1.8,8.4-5.4,11.4c-4,0-6.7-4-8.1-12.1L217.7,260.8z M169.8,271.6h0.7c0.9,0,1.3,0.7,1.3,2.1
		c0,3.8-6.3,7.6-18.9,11.4c-17.2,7.2-26.7,10.8-28.3,10.8l-0.7-0.6c0-4.5,9.7-9.9,29-16.2C155.6,277.1,161.2,274.6,169.8,271.6z"/>
</g>
</svg>
