<?xml version="1.0" encoding="utf-8"?>
<!-- Generator: Adobe Illustrator 25.2.3, SVG Export Plug-In . SVG Version: 6.00 Build 0)  -->
<svg version="1.1" xmlns="http://www.w3.org/2000/svg" xmlns:xlink="http://www.w3.org/1999/xlink" x="0px" y="0px"
	 viewBox="0 0 700 395" style="enable-background:new 0 0 700 395;" xml:space="preserve">
<style type="text/css">
	.st0{fill:#000222;}
	.st1{fill:#FFFFFF;}
</style>
<g id="Layer_1">
	<rect class="st0" width="700" height="395"/>
</g>
<g id="Layer_3">
	<g>
		<path class="st1" d="M273.5,368.6l1.1,4.2c0.2,0.9,0.5,1.8,0.6,2.6h0.1c0.2-0.8,0.5-1.7,0.7-2.6l1.3-4.2h1.3l1.3,4.1
			c0.3,1,0.5,1.9,0.7,2.7h0.1c0.1-0.8,0.4-1.7,0.6-2.7l1.2-4.1h1.5l-2.7,8.2H280l-1.3-3.9c-0.3-0.9-0.5-1.7-0.7-2.7h0
			c-0.2,1-0.5,1.8-0.7,2.7l-1.3,3.9h-1.4l-2.5-8.2H273.5z"/>
		<path class="st1" d="M286.3,368.6l1.1,4.2c0.2,0.9,0.5,1.8,0.6,2.6h0.1c0.2-0.8,0.5-1.7,0.7-2.6l1.3-4.2h1.3l1.3,4.1
			c0.3,1,0.5,1.9,0.7,2.7h0.1c0.1-0.8,0.4-1.7,0.6-2.7l1.2-4.1h1.5l-2.7,8.2h-1.4l-1.3-3.9c-0.3-0.9-0.5-1.7-0.7-2.7h0
			c-0.2,1-0.5,1.8-0.7,2.7l-1.3,3.9h-1.4l-2.5-8.2H286.3z"/>
		<path class="st1" d="M299,368.6l1.1,4.2c0.2,0.9,0.5,1.8,0.6,2.6h0.1c0.2-0.8,0.5-1.7,0.7-2.6l1.3-4.2h1.3l1.3,4.1
			c0.3,1,0.5,1.9,0.7,2.7h0.1c0.1-0.8,0.4-1.7,0.6-2.7l1.2-4.1h1.5l-2.7,8.2h-1.4l-1.3-3.9c-0.3-0.9-0.5-1.7-0.7-2.7h0
			c-0.2,1-0.5,1.8-0.7,2.7l-1.3,3.9h-1.4l-2.5-8.2H299z"/>
		<path class="st1" d="M309.9,375.9c0-0.6,0.4-1.1,1-1.1c0.6,0,1,0.4,1,1.1c0,0.6-0.4,1.1-1,1.1C310.3,377,309.9,376.5,309.9,375.9z
			"/>
		<path class="st1" d="M313.5,375.3c0.4,0.3,1.2,0.6,2,0.6c1.1,0,1.6-0.5,1.6-1.2c0-0.7-0.4-1.1-1.5-1.5c-1.5-0.5-2.2-1.3-2.2-2.3
			c0-1.3,1.1-2.4,2.8-2.4c0.8,0,1.6,0.2,2,0.5l-0.4,1.1c-0.3-0.2-0.9-0.5-1.7-0.5c-0.9,0-1.4,0.5-1.4,1.1c0,0.7,0.5,1,1.6,1.4
			c1.4,0.5,2.2,1.3,2.2,2.5c0,1.4-1.1,2.5-3.1,2.5c-0.9,0-1.7-0.2-2.3-0.6L313.5,375.3z"/>
		<path class="st1" d="M327.4,374.6c0,0.9,0,1.6,0.1,2.2h-1.3l-0.1-1.3h0c-0.4,0.7-1.3,1.5-2.7,1.5c-1.3,0-2.8-0.7-2.8-3.6v-4.8h1.5
			v4.6c0,1.6,0.5,2.6,1.8,2.6c1,0,1.7-0.7,2-1.4c0.1-0.2,0.1-0.5,0.1-0.8v-5h1.5V374.6z"/>
		<path class="st1" d="M329.8,371.1c0-1,0-1.8-0.1-2.6h1.3l0.1,1.6h0.1c0.4-1.1,1.3-1.8,2.3-1.8c0.2,0,0.3,0,0.4,0.1v1.4
			c-0.2,0-0.3-0.1-0.5-0.1c-1.1,0-1.8,0.8-2,1.9c0,0.2-0.1,0.4-0.1,0.7v4.4h-1.5V371.1z"/>
		<path class="st1" d="M339.9,376.8l-0.1-1h-0.1c-0.5,0.6-1.3,1.2-2.5,1.2c-1.7,0-2.5-1.2-2.5-2.4c0-2,1.8-3.1,4.9-3.1v-0.2
			c0-0.7-0.2-1.9-1.9-1.9c-0.8,0-1.6,0.2-2.1,0.6l-0.3-1c0.7-0.4,1.7-0.7,2.7-0.7c2.5,0,3.1,1.7,3.1,3.4v3.1c0,0.7,0,1.4,0.1,2
			H339.9z M339.7,372.6c-1.6,0-3.5,0.3-3.5,1.9c0,1,0.6,1.4,1.4,1.4c1.1,0,1.8-0.7,2-1.4c0.1-0.2,0.1-0.3,0.1-0.5V372.6z"/>
		<path class="st1" d="M343.5,364.7h1.5v5.1h0c0.2-0.4,0.6-0.8,1.1-1.1c0.4-0.3,1-0.4,1.5-0.4c1.1,0,2.9,0.7,2.9,3.5v4.9H349v-4.7
			c0-1.3-0.5-2.4-1.9-2.4c-1,0-1.7,0.7-2,1.5c-0.1,0.2-0.1,0.4-0.1,0.7v5h-1.5V364.7z"/>
		<path class="st1" d="M358.6,375.5L358.6,375.5c-0.5,0.8-1.4,1.5-2.7,1.5c-1.9,0-3.5-1.7-3.5-4.2c0-3.1,2-4.4,3.7-4.4
			c1.3,0,2.1,0.6,2.5,1.4h0l0.1-1.2h1.4c0,0.7-0.1,1.4-0.1,2.3v9.3h-1.5V375.5z M358.6,371.9c0-0.2,0-0.4-0.1-0.6
			c-0.2-0.9-1-1.7-2.1-1.7c-1.5,0-2.5,1.3-2.5,3.2c0,1.6,0.8,3.1,2.4,3.1c1,0,1.8-0.6,2.1-1.6c0.1-0.2,0.1-0.5,0.1-0.7V371.9z"/>
		<path class="st1" d="M369.4,374.6c0,0.9,0,1.6,0.1,2.2h-1.3l-0.1-1.3h0c-0.4,0.7-1.3,1.5-2.7,1.5c-1.3,0-2.8-0.7-2.8-3.6v-4.8h1.5
			v4.6c0,1.6,0.5,2.6,1.8,2.6c1,0,1.7-0.7,2-1.4c0.1-0.2,0.1-0.5,0.1-0.8v-5h1.5V374.6z"/>
		<path class="st1" d="M371.9,371.1c0-1,0-1.8-0.1-2.6h1.3l0.1,1.6h0.1c0.4-1.1,1.3-1.8,2.3-1.8c0.2,0,0.3,0,0.4,0.1v1.4
			c-0.2,0-0.3-0.1-0.5-0.1c-1.1,0-1.8,0.8-2,1.9c0,0.2-0.1,0.4-0.1,0.7v4.4h-1.5V371.1z"/>
		<path class="st1" d="M381.9,376.8l-0.1-1h-0.1c-0.5,0.6-1.3,1.2-2.5,1.2c-1.7,0-2.5-1.2-2.5-2.4c0-2,1.8-3.1,4.9-3.1v-0.2
			c0-0.7-0.2-1.9-1.9-1.9c-0.8,0-1.6,0.2-2.1,0.6l-0.3-1c0.7-0.4,1.7-0.7,2.7-0.7c2.5,0,3.1,1.7,3.1,3.4v3.1c0,0.7,0,1.4,0.1,2
			H381.9z M381.7,372.6c-1.6,0-3.5,0.3-3.5,1.9c0,1,0.6,1.4,1.4,1.4c1.1,0,1.8-0.7,2-1.4c0.1-0.2,0.1-0.3,0.1-0.5V372.6z"/>
		<path class="st1" d="M385.6,370.8c0-0.9,0-1.5-0.1-2.2h1.3l0.1,1.4h0c0.4-0.8,1.4-1.5,2.7-1.5c1.1,0,2.9,0.7,2.9,3.5v4.9h-1.5
			v-4.7c0-1.3-0.5-2.4-1.9-2.4c-1,0-1.8,0.7-2,1.5c-0.1,0.2-0.1,0.4-0.1,0.7v4.9h-1.5V370.8z"/>
		<path class="st1" d="M394.6,375.9c0-0.6,0.4-1.1,1-1.1c0.6,0,1,0.4,1,1.1c0,0.6-0.4,1.1-1,1.1C395,377,394.6,376.5,394.6,375.9z"
			/>
		<path class="st1" d="M404.4,376.5c-0.4,0.2-1.3,0.5-2.4,0.5c-2.5,0-4.1-1.7-4.1-4.2c0-2.5,1.7-4.4,4.4-4.4c0.9,0,1.7,0.2,2.1,0.4
			l-0.3,1.2c-0.4-0.2-0.9-0.4-1.7-0.4c-1.9,0-2.9,1.4-2.9,3.1c0,1.9,1.2,3.1,2.9,3.1c0.8,0,1.4-0.2,1.8-0.4L404.4,376.5z"/>
		<path class="st1" d="M413.5,372.6c0,3-2.1,4.4-4.1,4.4c-2.2,0-3.9-1.6-3.9-4.2c0-2.8,1.8-4.4,4.1-4.4
			C411.9,368.4,413.5,370.1,413.5,372.6z M406.9,372.7c0,1.8,1,3.2,2.5,3.2c1.4,0,2.5-1.3,2.5-3.2c0-1.4-0.7-3.2-2.5-3.2
			S406.9,371.1,406.9,372.7z"/>
		<path class="st1" d="M415.4,370.8c0-0.9,0-1.5-0.1-2.2h1.3l0.1,1.3h0.1c0.5-0.8,1.2-1.5,2.6-1.5c1.1,0,2,0.7,2.3,1.6h0
			c0.3-0.5,0.6-0.8,0.9-1.1c0.5-0.4,1-0.6,1.8-0.6c1.1,0,2.7,0.7,2.7,3.6v4.8h-1.5v-4.7c0-1.6-0.6-2.5-1.8-2.5
			c-0.9,0-1.5,0.6-1.8,1.4c-0.1,0.2-0.1,0.5-0.1,0.7v5.1h-1.5v-4.9c0-1.3-0.6-2.3-1.7-2.3c-0.9,0-1.6,0.7-1.9,1.5
			c-0.1,0.2-0.1,0.5-0.1,0.7v5h-1.5V370.8z"/>
	</g>
</g>
<g id="Layer_4">
	<path class="st1" d="M277.3,85.7l2.1,2.1h0.7c0,4.6-8.1,9.3-24.4,14l-16.8,7c-30.3,13.2-45.9,21.3-46.9,24.4v0.7l5.6,7v3.4l-2,2.1
		c-4.3,0-6.9-3-7.7-9.1c0-8.8,4-14.9,11.9-18.2C214.7,111.4,240.6,100.2,277.3,85.7z M164.9,87.8h1.4c4.7,17.5,8.9,45.2,12.6,83.1
		c5.6,58.7,10.9,88,16,88c3.4,6.5,7.9,9.8,13.3,9.8h9.8c11.3-2.7,23.6-7.8,37-15.4v-0.7c0-0.9-17-3.5-51-7.7l-0.7-0.7V243
		c0-7,9.6-14.3,28.7-21.7c14.2-8.4,23-16.8,26.6-25.2c3.7-3.7,6.7-5.6,9-5.6h2.1c1.2,0,3.3,6.1,6.2,18.2c2.4,4.3,5.9,7.4,10.5,9.1
		h5.6c7-0.9,10.4-2.8,10.4-5.6c0-7.3-4.9-44.4-14.6-111.1c2.1-8.4,3.7-12.6,4.8-12.6h0.7c1.9,0,6.8,10.7,14.6,32.1l-0.7,2.1H306
		l-4.9-4.2h-1.4l9.8,76.1v7c0,20.5-7,30.7-21,30.7c-7.6,0-13-2.5-16-7.6c-2.5-4.1-4.7-10.6-6.3-19.6h-1.4c-2.9,0-7.8,5.3-14.6,16
		l-14.7,11.9c0,2.5,25.6,5.6,76.9,9l0.7,0.7v0.7c-3.2,8.4-6,12.6-8.4,12.6l-9.8-0.7c-12.9,0-32.9,7.2-60.1,21.6
		c-10.6,4.7-18.1,7-22.4,7c-16.7,0-27.2-10.9-31.5-32.8l-2-9.8h-0.7c-2.9,6.4-7.8,12.2-14.6,17.4c-23,19.6-44.7,29.3-65,29.3
		c-21.4-3.7-32.1-17.2-32.1-40.5c0-6.5,2.6-17.5,7.7-32.8c-3.3-5.7-4.9-10.8-4.9-15.4v-6.3c0-4.3,2.8-16.4,8.4-36.3h2.1v0.7
		c-3.7,17.6-5.6,29-5.6,34.2c1.1,8.9,3.9,13.3,8.4,13.3h0.7c1.4,0,2.8-3.3,4.2-9.8h2.1v0.7c-1.6,14-4.6,21-9.1,21
		c-3.7,0-6.5,8.2-8.4,24.5v1.4c0,15.9,8.9,25.9,26.6,30h4.2c18.9,0,40.8-10.9,65.7-32.8c4.2-4.3,6.3-7.6,6.3-9.8
		c-2.8-33.5-7.7-76.8-14.7-130C161.7,92,163.4,87.8,164.9,87.8z M333.2,87.8c5.2,6.8,10.5,18.6,16.1,35.6v3.5l-2.8,0.7
		c-0.8-2-2.2-3.7-4.2-4.8H341v1.4c9.3,61.7,14,102,14,120.8c0,9-2.1,17.4-6.3,25.2h-1.4l-0.7-2l0.7-9.1c0-15.2-5.1-61.8-15.4-139.7
		c-0.9-8.7-2.1-15-3.4-18.8C329.9,92,331.6,87.8,333.2,87.8z M129.9,92.7h1.4c3.8,0,6.6,3,8.4,9.1c-0.8,2.3-2,3.4-3.5,3.4l-4.8-3.4
		h-2.8c-0.9,0-1.6,1.9-2.1,5.6l0.7,4.8c-3,27-7,40.5-11.9,40.5c-5.4,6.1-10.5,9.1-15.4,9.1h-0.7v-0.7c14.4-12.5,21.6-21.6,21.6-27.2
		c-5.8-14-12.5-21-20.2-21c-3.7-1.6-5.6-3.9-5.6-7c0.5-5.2,1.9-7.7,4.2-7.7c7.6,3.7,15.1,10.9,22.4,21.7h1.4v-9.1
		C124.6,98.7,127,92.7,129.9,92.7z M391.9,94.1h0.7c1.5,0,2.9,2.3,4.2,7l-0.7,11.9c0,1.4,2.1,4.2,6.3,8.4l0.7,2.8
		c-0.4,1.9-1.4,2.8-2.8,2.8l-7-4.2h-0.7c-2,0-7.2,4.4-15.4,13.2c-11.8,7.5-19,11.2-21.7,11.2v-0.7c0-3,7-8.6,21-16.8l9.8-9.8v-2.1
		c-3.2-3.9-4.8-7.2-4.8-9.8C383.7,98.7,387.2,94.1,391.9,94.1z M550.6,94.1c3.7,2.8,5.6,5.4,5.6,7.7c-0.7,3.2-1.6,4.8-2.8,4.8h-0.7
		l-5.6-4.2c-3.2,1.1-4.8,3.2-4.8,6.3v6.2c-0.8,16.8-2.2,25.2-4.2,25.2h-0.7c-7.1-14-13.9-21-20.2-21l-5.6-5.6c0-5.6,1.4-8.4,4.2-8.4
		c5.5,1.4,12.5,7.7,21,18.9h0.7c0-15.4,3.3-25.4,9.8-30.1H550.6z M602.3,95.5c4.2,2.3,6.2,5.8,6.2,10.5v10.4
		c3.7,4.4,5.6,7.5,5.6,9.1c-0.7,1.9-1.4,2.8-2,2.8l-7.7-2.8c-25.9,23.7-44.8,35.6-56.6,35.6v-0.7l41.2-27.9
		c5.6-3.9,9.1-6.9,10.5-9.1V122c-5.2-5-7.7-8.7-7.7-11.2C593.9,100.6,597.4,95.5,602.3,95.5z M487.7,97.6l0.7,0.7V99
		c0,3.9-5.3,8.3-16,13.2c-24.6,15-41.6,24.8-51.1,29.3l-0.7-2c0-4.3,8.4-10.6,25.2-18.9c25.3-15.3,39.1-23,41.2-23H487.7z
		 M387.1,104.6v2l3.4,3.5l1.4-1.4v-3.5l-2-2h-1.4L387.1,104.6z M600.1,104.6c-2.8,0-4.2,1.1-4.2,3.4c0,2.2,2.8,4.1,8.4,5.7l0.7-2
		c0-2.4-1.2-4.7-3.5-7H600.1z M265.5,114.4h2l4.9,16v1.4c-0.7,7-4,10.5-9.8,10.5l-5.6-2.8h-1.4c-1.3,0.6-3,2.6-4.9,6.2l-5.6,0.7
		c-3.7-1.6-5.6-5.1-5.6-10.5c0.7-9.1,1.9-13.7,3.5-14h0.7v2.1l-0.7,7c0.6,3.7,1.5,5.6,2.8,5.6h3.4c3.3-1.9,4.9-5.1,4.9-9.8l-0.7-4.9
		l1.4-5.6h2.1c0,10.7,2.3,16.1,7,16.1h0.7c0.9,0,1.4-0.7,1.4-2.1c-1.4-4.3-2-8.1-2-11.2L265.5,114.4z M495.3,140.2h1.4v0.7
		l-3.4,14.6c0,7,2.3,10.5,7,10.5c1.9-2.7,2.8-4.8,2.8-6.3h0.7l1.4,1.4c0,6.8-2.3,11.4-7,14c-4.7,0-7.7-4.7-9-14
		C490,154.6,492.1,147.6,495.3,140.2z M402.5,146.5c7.5,3.6,11.2,7.3,11.2,11.2c0,3.2-2.3,6.5-7,9.8l-9.8-7.7c-1.1,0-3.2,3-6.3,9.1
		h-1.4v0.7c-2.8,0-7-3.5-12.6-10.4c2.1-5.7,4.2-8.9,6.3-9.8h1.4c5.3,3.7,8.8,5.6,10.4,5.6C398.4,149.3,401,146.5,402.5,146.5z
		 M605.1,147.2h0.7v0.7c-2.8,6.6-4.2,11.7-4.2,15.4c1.3,4.5,2.5,6.9,3.5,7h1.4c1.9-0.9,2.8-2.1,2.8-3.5h2v0.7
		c0,4.5-2.1,8.2-6.2,11.2c-4.7-1.1-7-5-7-11.8C598.1,160.2,600.4,153.6,605.1,147.2z M259.2,154.9c3.2,1.1,7.1,4.3,11.9,9.8v1.4
		c-2.2,6-4.6,9-7,9c-5.3-2.3-9.3-5.3-11.9-9v-2.8C254.7,157.8,257.1,155,259.2,154.9z M445,161.2c10.7,10.1,16.1,16.1,16.1,18.2
		l-1.4,1.4l-0.7-0.7h-3.4v0.7l10.4,21.7l1.4,10.4c0,11.2-6.3,21.5-18.8,30.7c-1.9,2.5-2.8,4.7-2.8,6.3v9c0,9.7,6.7,16,20.2,18.9h4.9
		c15.4,0,35.2-13,59.3-39.1l0.7-2.8v-1.4l-1.4-1.4l-19.6,2.8c-11.2,0-16.8-6.3-16.8-18.9c4.3-13,9.7-19.6,16-19.6
		c8.1,0,16.5,5.8,25.2,17.5h0.7c5.3-2.3,13.2-7.4,23.8-15.4h2c1.4,1.8,2.1,3.9,2.1,6.2v6.3c3.7,5.6,8.4,8.4,14,8.4h2.8
		c9.7,0,17.8-7.5,24.4-22.4l2.8-2.1l1.4,1.4l-2.8,9.8v0.7c3.2,5.1,9,7.6,17.5,7.6l3.4-1.4v-0.7l-3.4-9.1c0.9-7,2.1-10.4,3.4-10.4
		h0.7c2,0,4.1,5.6,6.2,16.8c-1.6,13-5.8,19.6-12.6,19.6h-3.4c-5.6,0-11.4-3.3-17.5-9.8c-0.9,0-3.4,2.8-7.6,8.4
		c-4,2.9-10.1,5-18.2,6.2c-11.7-3.1-17.5-8.9-17.5-17.4l-2-0.7c-11.2,6.4-16.8,11.8-16.8,16.1c0,11.8-8.2,24.4-24.5,37.7
		c-17.1,14.4-32.2,21.6-45.4,21.6h-2.8c-8.4,0-15.6-4.9-21.7-14.6c-2.3-5.6-3.4-11.2-3.4-16.8l0.7-9.8H438c-29.9,20-49.7,30-59.3,30
		l-36.3,7.7h-2.1v-1.4c1.3-2.3,12.7-7.2,34.3-14.7c31.1-14.9,57.8-31.4,80.3-49.6l5.6-7v-0.7c0-2.8-3-9.3-9-19.6
		c-3-4.9-6.2-13-9.8-24.4C442.8,164.7,443.9,161.2,445,161.2z M220.8,171.7h0.7c6.1,0.3,9.1,1.2,9.1,2.8c0,6-6.1,12.3-18.2,18.8
		l-4.2,1.4v-1.4c6.5-5.5,9.8-9,9.8-10.4H213c-5.9,0-10.3,1.4-13.2,4.2h-0.7l-0.7-0.7h-0.7c2.4-8.8,6.6-13.2,12.6-13.2
		C210.3,172.3,213.8,171.8,220.8,171.7z M415,172.3h1.4v0.7c-0.4,7.1-4.4,15.5-11.9,25.2v2.8c9.8,6.9,14.7,13.6,14.7,20.2
		c-1.6,9-3.9,14.8-7,17.5c-8.5,6.1-15.5,9.9-21,11.2c-6.3,0-10.1-4.4-11.2-13.3c0-9.6,2.5-18.9,7.6-27.9c0-0.9-4.2-4.9-12.6-11.8
		c0-1.1-2.3-3.7-7-7.7v-8.4c0-1.7,0.7-3.1,2.1-4.2c10.8,4,17.1,7.1,18.8,9.1v0.7c0,0.9-0.7,1.4-2,1.4l-0.7,0.7v1.4
		c3.3,3.7,6.1,5.6,8.4,5.6h1.4L415,172.3z M134.8,181.5c1.4,0.4,2.1,1.8,2.1,4.2c-2.4,8.7-3.8,16.6-4.2,23.8
		c0.7,9.6,2.8,15.2,6.2,16.8h2.1c1.4,0,2.5-2.6,3.4-7.7l0.7-0.7h1.4l0.7,2.8c0,8.4-2.3,14.2-7,17.4h-2c-5.8,0-9.3-6.5-10.5-19.6
		v-4.8c0-6,2.1-16.7,6.3-32.1H134.8z M394.1,212.9c-4.8,6.3-7.6,11.4-8.4,15.4c0.9,4.2,2.1,6.3,3.4,6.3h5.6
		c10.7-3.4,16.1-7.4,16.1-11.9C405.7,217.4,400.1,214.2,394.1,212.9z M503.1,219.2l7.6,1.4c6.1,0,9.1-0.7,9.1-2.1
		c-2.5-3.2-5.1-4.8-7.7-4.8h-4.8C504.5,214.8,503.1,216.7,503.1,219.2z M104,224.1h1.4v1.4l-2,9.8v1.4c0,6.5,1.6,9.8,4.8,9.8
		l3.5-4.2h0.7v2.1c-1.1,7.5-3.4,11.2-7,11.2c-2.9,0-5-4-6.2-11.9C99.2,239.4,100.8,232.9,104,224.1z M615.5,247.2l0.7,0.7h0.7
		c-1.7,11.2-5.2,16.8-10.4,16.8l-6.3-1.4c-4.7,2.8-7.7,4.2-9,4.2l-11.2-2.8c-3.2,0-12.3,5.1-27.3,15.4c-5,2.4-9,3.5-11.8,3.5
		l-0.7-0.7v-1.4c1.4,0,8.4-4.2,21-12.6c10.3-8.4,18-12.6,23.1-12.6l8.4,3.5c2.7,0,6.4-2.8,11.2-8.4h0.7c0,1.9,0.9,3.3,2.8,4.2h3.5
		c1.1,0,2-2.1,2.8-6.3L615.5,247.2z M278.1,262.5v0.7l-2.1,10.5v5.6c1.1,2.3,2.5,3.4,4.2,3.4l4.2-4.2h0.7l0.7,2.1
		c-2.4,7.5-4.4,11.2-6.2,11.2h-2.8c-3.7-2.6-5.6-7-5.6-13.3C273.6,267.9,276,262.5,278.1,262.5z M180.9,277.2h1.4v1.4h0.7
		c0,5.1-10.7,11.4-32.1,18.9l-23.1,11.8h-0.7c-0.9,0-1.4-0.7-1.4-2c0-4.2,5.8-8.4,17.4-12.6C166.7,283,179.2,277.2,180.9,277.2z"/>
</g>
</svg>
