<?xml version="1.0" encoding="utf-8"?>
<!-- Generator: Adobe Illustrator 25.2.3, SVG Export Plug-In . SVG Version: 6.00 Build 0)  -->
<svg version="1.1" xmlns="http://www.w3.org/2000/svg" xmlns:xlink="http://www.w3.org/1999/xlink" x="0px" y="0px"
	 viewBox="0 0 700 395" style="enable-background:new 0 0 700 395;" xml:space="preserve">
<style type="text/css">
	.st0{fill:#000222;}
	.st1{fill:#FFFFFF;}
</style>
<g id="Layer_1">
	<rect class="st0" width="700" height="395"/>
</g>
<g id="Layer_3">
	<g>
		<path class="st1" d="M273.5,368.6l1.1,4.2c0.2,0.9,0.5,1.8,0.6,2.6h0.1c0.2-0.8,0.5-1.7,0.7-2.6l1.3-4.2h1.3l1.3,4.1
			c0.3,1,0.5,1.9,0.7,2.7h0.1c0.1-0.8,0.4-1.7,0.6-2.7l1.2-4.1h1.5l-2.7,8.2H280l-1.3-3.9c-0.3-0.9-0.5-1.7-0.7-2.7h0
			c-0.2,1-0.5,1.8-0.7,2.7l-1.3,3.9h-1.4l-2.5-8.2H273.5z"/>
		<path class="st1" d="M286.3,368.6l1.1,4.2c0.2,0.9,0.5,1.8,0.6,2.6h0.1c0.2-0.8,0.5-1.7,0.7-2.6l1.3-4.2h1.3l1.3,4.1
			c0.3,1,0.5,1.9,0.7,2.7h0.1c0.1-0.8,0.4-1.7,0.6-2.7l1.2-4.1h1.5l-2.7,8.2h-1.4l-1.3-3.9c-0.3-0.9-0.5-1.7-0.7-2.7h0
			c-0.2,1-0.5,1.8-0.7,2.7l-1.3,3.9h-1.4l-2.5-8.2H286.3z"/>
		<path class="st1" d="M299,368.6l1.1,4.2c0.2,0.9,0.5,1.8,0.6,2.6h0.1c0.2-0.8,0.5-1.7,0.7-2.6l1.3-4.2h1.3l1.3,4.1
			c0.3,1,0.5,1.9,0.7,2.7h0.1c0.1-0.8,0.4-1.7,0.6-2.7l1.2-4.1h1.5l-2.7,8.2h-1.4l-1.3-3.9c-0.3-0.9-0.5-1.7-0.7-2.7h0
			c-0.2,1-0.5,1.8-0.7,2.7l-1.3,3.9h-1.4l-2.5-8.2H299z"/>
		<path class="st1" d="M309.9,375.9c0-0.6,0.4-1.1,1-1.1c0.6,0,1,0.4,1,1.1c0,0.6-0.4,1.1-1,1.1C310.3,377,309.9,376.5,309.9,375.9z
			"/>
		<path class="st1" d="M313.5,375.3c0.4,0.3,1.2,0.6,2,0.6c1.1,0,1.6-0.5,1.6-1.2c0-0.7-0.4-1.1-1.5-1.5c-1.5-0.5-2.2-1.3-2.2-2.3
			c0-1.3,1.1-2.4,2.8-2.4c0.8,0,1.6,0.2,2,0.5l-0.4,1.1c-0.3-0.2-0.9-0.5-1.7-0.5c-0.9,0-1.4,0.5-1.4,1.1c0,0.7,0.5,1,1.6,1.4
			c1.4,0.5,2.2,1.3,2.2,2.5c0,1.4-1.1,2.5-3.1,2.5c-0.9,0-1.7-0.2-2.3-0.6L313.5,375.3z"/>
		<path class="st1" d="M327.4,374.6c0,0.9,0,1.6,0.1,2.2h-1.3l-0.1-1.3h0c-0.4,0.7-1.3,1.5-2.7,1.5c-1.3,0-2.8-0.7-2.8-3.6v-4.8h1.5
			v4.6c0,1.6,0.5,2.6,1.8,2.6c1,0,1.7-0.7,2-1.4c0.1-0.2,0.1-0.5,0.1-0.8v-5h1.5V374.6z"/>
		<path class="st1" d="M329.8,371.1c0-1,0-1.8-0.1-2.6h1.3l0.1,1.6h0.1c0.4-1.1,1.3-1.8,2.3-1.8c0.2,0,0.3,0,0.4,0.1v1.4
			c-0.2,0-0.3-0.1-0.5-0.1c-1.1,0-1.8,0.8-2,1.9c0,0.2-0.1,0.4-0.1,0.7v4.4h-1.5V371.1z"/>
		<path class="st1" d="M339.9,376.8l-0.1-1h-0.1c-0.5,0.6-1.3,1.2-2.5,1.2c-1.7,0-2.5-1.2-2.5-2.4c0-2,1.8-3.1,4.9-3.1v-0.2
			c0-0.7-0.2-1.9-1.9-1.9c-0.8,0-1.6,0.2-2.1,0.6l-0.3-1c0.7-0.4,1.7-0.7,2.7-0.7c2.5,0,3.1,1.7,3.1,3.4v3.1c0,0.7,0,1.4,0.1,2
			H339.9z M339.7,372.6c-1.6,0-3.5,0.3-3.5,1.9c0,1,0.6,1.4,1.4,1.4c1.1,0,1.8-0.7,2-1.4c0.1-0.2,0.1-0.3,0.1-0.5V372.6z"/>
		<path class="st1" d="M343.5,364.7h1.5v5.1h0c0.2-0.4,0.6-0.8,1.1-1.1c0.4-0.3,1-0.4,1.5-0.4c1.1,0,2.9,0.7,2.9,3.5v4.9H349v-4.7
			c0-1.3-0.5-2.4-1.9-2.4c-1,0-1.7,0.7-2,1.5c-0.1,0.2-0.1,0.4-0.1,0.7v5h-1.5V364.7z"/>
		<path class="st1" d="M358.6,375.5L358.6,375.5c-0.5,0.8-1.4,1.5-2.7,1.5c-1.9,0-3.5-1.7-3.5-4.2c0-3.1,2-4.4,3.7-4.4
			c1.3,0,2.1,0.6,2.5,1.4h0l0.1-1.2h1.4c0,0.7-0.1,1.4-0.1,2.3v9.3h-1.5V375.5z M358.6,371.9c0-0.2,0-0.4-0.1-0.6
			c-0.2-0.9-1-1.7-2.1-1.7c-1.5,0-2.5,1.3-2.5,3.2c0,1.6,0.8,3.1,2.4,3.1c1,0,1.8-0.6,2.1-1.6c0.1-0.2,0.1-0.5,0.1-0.7V371.9z"/>
		<path class="st1" d="M369.4,374.6c0,0.9,0,1.6,0.1,2.2h-1.3l-0.1-1.3h0c-0.4,0.7-1.3,1.5-2.7,1.5c-1.3,0-2.8-0.7-2.8-3.6v-4.8h1.5
			v4.6c0,1.6,0.5,2.6,1.8,2.6c1,0,1.7-0.7,2-1.4c0.1-0.2,0.1-0.5,0.1-0.8v-5h1.5V374.6z"/>
		<path class="st1" d="M371.9,371.1c0-1,0-1.8-0.1-2.6h1.3l0.1,1.6h0.1c0.4-1.1,1.3-1.8,2.3-1.8c0.2,0,0.3,0,0.4,0.1v1.4
			c-0.2,0-0.3-0.1-0.5-0.1c-1.1,0-1.8,0.8-2,1.9c0,0.2-0.1,0.4-0.1,0.7v4.4h-1.5V371.1z"/>
		<path class="st1" d="M381.9,376.8l-0.1-1h-0.1c-0.5,0.6-1.3,1.2-2.5,1.2c-1.7,0-2.5-1.2-2.5-2.4c0-2,1.8-3.1,4.9-3.1v-0.2
			c0-0.7-0.2-1.9-1.9-1.9c-0.8,0-1.6,0.2-2.1,0.6l-0.3-1c0.7-0.4,1.7-0.7,2.7-0.7c2.5,0,3.1,1.7,3.1,3.4v3.1c0,0.7,0,1.4,0.1,2
			H381.9z M381.7,372.6c-1.6,0-3.5,0.3-3.5,1.9c0,1,0.6,1.4,1.4,1.4c1.1,0,1.8-0.7,2-1.4c0.1-0.2,0.1-0.3,0.1-0.5V372.6z"/>
		<path class="st1" d="M385.6,370.8c0-0.9,0-1.5-0.1-2.2h1.3l0.1,1.4h0c0.4-0.8,1.4-1.5,2.7-1.5c1.1,0,2.9,0.7,2.9,3.5v4.9h-1.5
			v-4.7c0-1.3-0.5-2.4-1.9-2.4c-1,0-1.8,0.7-2,1.5c-0.1,0.2-0.1,0.4-0.1,0.7v4.9h-1.5V370.8z"/>
		<path class="st1" d="M394.6,375.9c0-0.6,0.4-1.1,1-1.1c0.6,0,1,0.4,1,1.1c0,0.6-0.4,1.1-1,1.1C395,377,394.6,376.5,394.6,375.9z"
			/>
		<path class="st1" d="M404.4,376.5c-0.4,0.2-1.3,0.5-2.4,0.5c-2.5,0-4.1-1.7-4.1-4.2c0-2.5,1.7-4.4,4.4-4.4c0.9,0,1.7,0.2,2.1,0.4
			l-0.3,1.2c-0.4-0.2-0.9-0.4-1.7-0.4c-1.9,0-2.9,1.4-2.9,3.1c0,1.9,1.2,3.1,2.9,3.1c0.8,0,1.4-0.2,1.8-0.4L404.4,376.5z"/>
		<path class="st1" d="M413.5,372.6c0,3-2.1,4.4-4.1,4.4c-2.2,0-3.9-1.6-3.9-4.2c0-2.8,1.8-4.4,4.1-4.4
			C411.9,368.4,413.5,370.1,413.5,372.6z M406.9,372.7c0,1.8,1,3.2,2.5,3.2c1.4,0,2.5-1.3,2.5-3.2c0-1.4-0.7-3.2-2.5-3.2
			S406.9,371.1,406.9,372.7z"/>
		<path class="st1" d="M415.4,370.8c0-0.9,0-1.5-0.1-2.2h1.3l0.1,1.3h0.1c0.5-0.8,1.2-1.5,2.6-1.5c1.1,0,2,0.7,2.3,1.6h0
			c0.3-0.5,0.6-0.8,0.9-1.1c0.5-0.4,1-0.6,1.8-0.6c1.1,0,2.7,0.7,2.7,3.6v4.8h-1.5v-4.7c0-1.6-0.6-2.5-1.8-2.5
			c-0.9,0-1.5,0.6-1.8,1.4c-0.1,0.2-0.1,0.5-0.1,0.7v5.1h-1.5v-4.9c0-1.3-0.6-2.3-1.7-2.3c-0.9,0-1.6,0.7-1.9,1.5
			c-0.1,0.2-0.1,0.5-0.1,0.7v5h-1.5V370.8z"/>
	</g>
</g>
<g id="Layer_4">
	<path class="st1" d="M117.4,96.3h0.6c8.6,19.6,13,30.5,13,32.6l-1.4,1.4l-4.1-3.4h-1.4v0.7l10.9,92.4v8.2c0,7.8-2.1,15.3-6.2,22.4
		h-1.4v-1.4h-0.6l0.6-0.6v-15.7c0-10.5-5-51.5-14.9-122.9C113.7,100.8,115.3,96.3,117.4,96.3z M168.3,96.9c3.6,2.6,5.4,5.2,5.4,7.8
		c0,2.6-0.7,4.1-2,4.4c-1.6,0-3.2-0.7-4.8-2h-1.4l-1.4,1.4v6.1c-1.8,15.9-3.6,23.8-5.4,23.8c-6.2-13.2-11.1-19.7-14.9-19.7
		c-3.6-2.1-5.4-4.1-5.4-6.1c0.8-4.5,1.7-6.8,2.7-6.8h0.7c3.6,0,9.2,5.9,16.9,17.7h1.4v-8.9c1.3-11.8,3.4-17.7,6.2-17.7H168.3z
		 M287.2,97.6c4.5,3,6.8,6.3,6.8,10.1c-1,2.7-1.9,4.1-2.7,4.1h-0.7l-5.4-4.7h-0.6c-0.9,0-1.4,0.7-1.4,2c0,11.2-0.9,20.7-2.7,28.5
		H279l-8.9-15.6c-2.2-3.2-5.2-4.8-8.8-4.8c-2.8-2.4-4.4-4.7-4.8-6.8c0.8-4,2.6-6.1,5.4-6.1c6.9,4.6,11.9,10.2,14.9,16.9h1.4
		c1-15.8,3.7-23.7,8.2-23.7H287.2z M315.7,98.3c0.9,0,2,3,3.4,8.9c3.5,5.1,7.1,13.9,10.9,26.4l-0.6,2.1h-1.4l-5.4-5.4l-0.7,0.6v2.7
		c7.2,53.7,10.9,83.9,10.9,90.4v8.2c0,20.7-11.3,37.2-34,49.5c-20.3,5-33.4,7.5-39.4,7.5l-2.7-0.7v-1.4c0-1.1,8.4-4.1,25.2-8.8
		c22.2-11.7,34.7-21.5,37.3-29.3v-3.4c0-12.9-15.4-34.1-46.2-63.9c-15.1-15.9-29.1-33.1-42.1-51.6c-1.3-0.3-2-2.1-2-5.4H228l0.7-3.4
		v-5.4l2-2c3,3,11.4,9.1,25.2,18.3l2,2.7v0.7l-1.4,1.4h-7.4v1.4c0.9,3.2,18.6,22.7,53,58.4c14,17.1,21,30.4,21,40v4.1h1.4l1.4-7.4
		l-15.6-123C312.4,102.3,314.2,98.3,315.7,98.3z M195.4,99h1.4v0.6l-2,14.9v4.1c1.3,3.2,3.1,4.8,5.4,4.8c0.9-3.2,1.8-4.8,2.7-4.8
		s1.4,0.7,1.4,2.1c0,5.3-1.8,9.3-5.4,12.2h-0.7c-4.9,0-7.6-4.8-8.2-14.3L195.4,99z M352.4,100.4h1.4c0,1.6,3.4,10.6,10.1,27.2
		l1.4,5.4l-2,2.7l-3.4-2.7h-1.4v4.7c8.2,58.6,12.2,95.5,12.2,110.8c-0.9,17.5-3.2,26.8-6.8,27.8l-0.6-0.6h-0.7l0.7-6.8v-4.1
		l-0.7-0.7l0.7-0.6v-0.7c0-13.6-5.2-63.7-15.7-150.1C349.2,104.4,350.8,100.4,352.4,100.4z M406.7,105.1c2.2,0,4,2.7,5.4,8.2
		l-1.4,12.2c5,3.1,7.4,6.2,7.4,9.5c-0.9,2.1-1.8,3.3-2.7,3.4c-4.7-3.6-7.6-5.4-8.8-5.4c-14.8,14-25.7,21.5-32.6,22.4l-0.7-0.6v-1.4
		l22.5-17l5.4-6.1l-4.1-8.2l-0.7-2.1C399.5,110,402.9,105.1,406.7,105.1z M561.6,107.8c3.1,2.1,4.7,4.8,4.7,8.2L565,120h-1.4
		c-3.1-3.1-5.6-4.7-7.4-4.7c-2.3,0.8-3.4,2.7-3.4,5.4v3.4c-0.9,19-2.5,28.5-4.7,28.5c-7-14-13.1-21-18.4-21c-4-1.6-6.1-4.6-6.1-8.9
		c0-1.8,0.9-3.3,2.7-4.7c4.2,0,11.2,6.3,21,19h0.7c0.9-19.5,4.7-29.3,11.5-29.3H561.6z M500.5,109.9l0.6,2c0,3.7-8.6,9.6-25.8,17.7
		c-22.8,14.3-36,21.8-39.4,22.5l-0.6-2.1c0-4,7.5-9.6,22.4-16.9C480.1,119.6,494.3,111.9,500.5,109.9z M611.9,109.9
		c4,1.1,6.1,5.2,6.1,12.2v6.8c0,1.4,1.6,4.1,4.8,8.2v2.7l-2.1,2c-2.7-1.8-4.7-2.7-5.8-2.7s-8,5.7-20.6,17
		c-18.2,10.4-30.2,15.6-36,15.6v-1.4c1.8-1.8,8.4-5.4,19.7-10.9c15.2-9.1,25.4-16.6,30.5-22.4V135c-4.5-4.4-6.8-7.6-6.8-9.5
		C603.9,115.1,607.3,109.9,611.9,109.9z M401.9,118c0.6,2.2,2.2,3.4,4.8,3.4l0.6-0.6v-2.1c0-2.4-0.9-4-2.7-4.7
		C402.9,114.4,401.9,115.7,401.9,118z M609.2,118l-2.7,3.4v0.7c2.7,3.6,5,5.4,6.8,5.4l0.6-0.7v-3.4C613.9,119.8,612.3,118,609.2,118
		z M78.6,120l0.7,0.7h0.6c-3.6,9.2-5.4,16.2-5.4,21v2.7c0,4.3,1.8,7.8,5.4,10.2h0.7c2.2-1.3,3.4-3.1,3.4-5.4h2.1l0.6,2
		c-1.6,9.1-4.3,13.6-8.2,13.6c-5.9-1.5-8.8-6.7-8.8-15.6v-6.8C69.8,136.9,72.7,129.4,78.6,120z M298.1,143.1h2v0.7l-2.7,16.9
		c0.6,1.9,1.8,3.2,3.4,4.1l4.1-4.1h0.6v2.1c-1.4,7.7-3.5,11.5-6.1,11.5c-4.1-1.3-6.2-4.5-6.2-9.5v-3.4
		C293.3,157.9,294.9,151.8,298.1,143.1z M223.3,143.8h0.6c0.9,0,1.4,0.7,1.4,2c0,4.2-4.7,7.3-14.2,9.5l-58.4,22.5l-8.9,6.8v1.4
		c0.9,1.8,2.1,2.7,3.4,2.7c2.2,1.3,3.4,2.6,3.4,4.1c-0.9,2.7-2.7,4.1-5.3,4.1s-4.9-2.3-6.9-6.8c1-7.5,3.7-13.2,8.2-17
		C194.5,153.6,220.1,143.8,223.3,143.8z M508.6,151.3l0.6,0.7v0.6c-1.3,2.1-2.7,6.2-4.1,12.2c0,5.3,1.6,8.9,4.8,10.9h1.4
		c1,0,2.1-1.8,3.4-5.4h1.4v1.4h0.7c-1.9,8.6-3.9,13-6.2,13H510c-4.5,0-7.4-4.1-8.9-12.2C502.9,160.9,505.4,153.9,508.6,151.3z
		 M416.3,156.1c7.7,4.2,11.5,7.8,11.5,10.7s-2.3,6.1-6.8,9.6c-6.2-5-9.8-7.5-10.9-7.5c-2.7,5.9-5.4,8.9-8.2,8.9
		c-3.5-1.9-6.9-4.9-10.1-8.9v-0.6c0-3.9,2.3-7.1,6.8-9.5l8.2,4.7h2.7L416.3,156.1z M613.9,159.4l0.7,0.7v0.6l-4.1,10.2
		c0,6.8,1.8,10.1,5.4,10.1l2-3.4h0.7l1.4,1.4c-1.5,7.2-4.2,10.9-8.2,10.9c-3.2-3.1-4.8-6.5-4.8-10.2v-3.4
		C609.9,165.1,612.1,159.4,613.9,159.4z M457,171.6h1.4c10,9.6,14.9,15.3,14.9,17c-4.1,0.5-6.2,1.2-6.2,2
		c7.7,13.4,11.6,22.5,11.6,27.2c0,14.1-5.9,24.7-17.7,32c-2.7,2.7-4.1,7-4.1,12.9c0,9.2,3.8,15.8,11.5,19.7
		c2.8,1.3,6.7,2.2,11.6,2.7c17.5,0,37.4-12.9,59.8-38.8l0.6-2.7l-1.4-2l-20.4,2h-1.4c-8.6-1.6-12.9-5.9-12.9-12.9v-2.1
		c0-10.7,5.4-17.9,16.3-21.7h1.4c6.6,0,13.4,5.4,20.4,16.3h1.4v0.7c2.1,0,10-4.8,23.7-14.3h2.1c1.3,0,2.2,4.3,2.7,13
		c4.2,5,8.7,7.4,13.6,7.4h4.7c8.2,0,15.4-7,21.7-21l2.7-2.1c0.9,0,1.4,0.7,1.4,2.1l-2.7,9.5c3.1,4.5,7.2,6.8,12.2,6.8h6.2l1.4-1.4
		v-0.7l-3.4-8.8c1.5-6.8,2.9-10.2,4.1-10.2h0.7c3.6,4.7,5.4,10.8,5.4,18.4c-1.9,11.8-6.7,17.7-14.3,17.7c-5.9,0-12-3.4-18.3-10.2
		c-6.2,9.1-13.3,13.6-21.1,13.6h-3.4c-8.7,0-14.8-5.6-18.4-16.9l-0.6-0.7H563L548,237.6c0,19.6-16.5,38.6-49.6,57.1l-13.6,4.1h-4.7
		c-15,0-24.3-7.7-27.9-23.1l-0.6-4.8l1.4-12.9l-0.7-0.7h-0.6c-25.2,17.9-47.2,28.4-65.9,31.2l-29.2,5.4l-1.4-1.4
		c2.8-2.4,15.7-7.8,38.7-16.3c28.1-13.9,51.6-28.4,70.6-43.5c5-4.4,7.5-7.6,7.5-9.6c0-2-4.5-11.9-13.6-29.8l-3.4-12.9L457,171.6z
		 M226.7,174.4c10,1.3,14.9,2.7,14.9,4.1c0,8.2-7,14.1-21,17.7h-0.7v-0.6l9.5-8.2V186l-8.8-0.7c-3.2,0-6.6,1.6-10.2,4.8H209v-0.7
		c3.2-9.5,8-14.2,14.3-14.2L226.7,174.4z M430.5,181.2v0.7c0,6.2-4.1,14.4-12.2,24.5v2c9.1,7.4,13.6,13.7,13.6,19v0.7
		c0,11.7-5.6,19.6-16.9,23.7c-0.2,1.1-4,2.5-11.6,4.1c-6.8-1.1-10.1-5.6-10.1-13.3s2.5-15.7,7.4-24v-3.4
		c-11.8-10.6-17.7-17.2-17.7-19.7v-2.7c0-5,0.9-7.5,2.7-7.5l17.7,7.5v2l-3.4,2.7c3,4.1,5.9,6.2,8.8,6.2h1.4
		C422.1,188.6,428.9,181.2,430.5,181.2z M83.4,184.6c2.5,0,4.5,1.4,6.1,4.1v0.6l-2.7,8.2h-2c-2.7-2.2-4.9-3.4-6.8-3.4
		c-3.4,0.9-6.1,2.7-8.2,5.4v0.6c0,2.3,4.3,4.6,12.9,6.8l17-3.4l2,0.6v2.7c-2.3,5.4-7.3,8.2-14.9,8.2l-20.4,8.2l-0.6-0.6v-2.1
		c0-1.5,0.7-3.1,2-4.7v-1.4c-4-3.6-6.1-6.1-6.1-7.5c0-6.5,6.3-13.9,19-22.4H83.4z M179.1,184.6v1.4l-1.4,10.9v1.4
		c1.1,5,2.5,7.4,4.1,7.4h0.7l4.1-4.7l1.4,1.4c0,5.4-2.3,9.7-6.8,12.9c-5-1.4-7.5-6-7.5-13.6v-2.7
		C175.8,189.3,177.6,184.6,179.1,184.6z M263.4,211.8h2.1c1.5,0,2.9,3.2,4.1,9.5v3.4c0,14.1-5.7,21.1-17,21.1
		c-4.5-0.8-8.6-3.3-12.2-7.5h-2c-1.8,4.8-6.5,8.8-14.3,12.2l-4.7,0.7c-4.5,0-10.9-3.4-19-10.2l-7.5-2h-3.4
		c-13.2,0-30.2,11.8-51,35.3c-9.6,9.5-18.4,14.2-26.4,14.2c-11.4-2.5-17-10.8-17-25.1v-0.7c0-9.2,6.6-21.5,19.7-36.7l0.6-0.6h2.7v2
		c-11.8,15.2-17.7,28.7-17.7,40.8v1.4c0,4.8,3.6,7.7,10.9,8.9c7.1,0,20.5-10.7,40.1-32c16.5-14.5,30.5-21.7,42.1-21.7
		c6.8,0,13.8,3.6,21,10.9l8.9,1.4c6.3,0,12.9-5.6,19.7-16.9l2.7-2.7h2.1v0.6l-1.4,7.5v0.6c3.4,4.5,7,6.8,10.9,6.8
		c3.6-0.5,5.4-1.4,5.4-2.7l-2.7-9.5L263.4,211.8z M407.4,220.6c-5.4,6.8-8.2,11.6-8.2,14.4s1.1,4.8,3.4,6h4.7c4.9,0,10.6-3.2,17-9.5
		C419.1,224.2,413.4,220.6,407.4,220.6z M290.5,221.9h0.7v1.4h0.6c-1.8,5.1-2.7,9.4-2.7,13v1.4c0.5,3.4,1.4,5.2,2.7,5.4h1.4l4.1-4.8
		h0.7v1.4c0,4.8-2.1,9.3-6.2,13.6c-4.2,0-6.6-4.7-7.4-14.2C286.9,227.6,288.9,221.9,290.5,221.9z M514.1,225.4v2l6.8,2.1h3.4
		c3.3,0,5.1-0.7,5.4-2.1c0-2.1-2.3-3.6-6.8-4.7h-4.1C516.4,222.6,514.8,223.5,514.1,225.4z M101.7,224l1.4,1.4v2.7
		c0,2.9-6.6,6.5-19.7,10.9L63,249.8h-2.7v-1.4h-0.7C59.6,243.3,73.6,235.2,101.7,224z M622.8,255.9h0.6l0.7,2.7
		c-3.3,10-6,14.9-8.2,14.9h-1.4l-6.8-1.4c-4.8,2.7-8.2,4.1-10.2,4.1l-9.5-3.4c-2.5,0-12.2,5.2-29.2,15.6l-9.5,2.7l-0.7-0.6v-0.7
		l38.8-24.5l4.1-0.6c1.4,0,3.7,1.1,6.8,3.4h4.7c4.5-2.8,6.8-5.3,6.8-7.4h2.1c0,2.7,1.6,4.1,4.7,4.1h0.7c0.9,0,2-2.3,3.4-6.8
		L622.8,255.9z M248.4,262.7c1.1-3.1,2-4.7,2.9-4.7s1.2,0.7,1.2,2c-0.7,10-3.4,14.9-8.2,14.9l-6.1-0.6l-8.2,4.1l-8.9-2.7h-2
		c-3.9,0-12.8,5-26.5,14.9c-8.3,3.6-13.3,5.4-14.9,5.4h-0.6v-1.4c24.8-17.6,40-26.9,45.5-27.9l10.2,3.4c1.3,0,4.3-2.7,8.8-8.2
		l4.1,4.7h0.7C247.8,266.7,248.4,265.4,248.4,262.7z M156.8,268.1c3,0,4.8,2.3,5.4,6.8c0,5.1-4.3,11.4-13,19h-0.6l-1.4-1.4
		c6.3-7.1,9.5-11.7,9.5-13.6v-1.4h-1.4l-4.8,1.4v-0.6C150.6,274.4,152.6,271,156.8,268.1z M328.6,274.9c2.7,1,4.1,2.8,4.1,5.4
		c0,3.2-1.6,4.8-4.7,4.8c-1.7-1.4-3.3-2.1-4.8-2.1l-0.6,0.7v1.4c0.2,1,2.1,2.4,5.4,4.1c4.4-1.4,8.5-2.1,12.2-2.1l0.6,0.7v2
		c0,2.9-7.9,5.4-23.7,7.5l-0.7-0.7V296l0.7-3.4l-2.1-3.4v-0.7C315,283.8,319.5,279.2,328.6,274.9z"/>
</g>
</svg>
