<?xml version="1.0" encoding="utf-8"?>
<!-- Generator: Adobe Illustrator 25.2.3, SVG Export Plug-In . SVG Version: 6.00 Build 0)  -->
<svg version="1.1" xmlns="http://www.w3.org/2000/svg" xmlns:xlink="http://www.w3.org/1999/xlink" x="0px" y="0px"
	 viewBox="0 0 700 395" style="enable-background:new 0 0 700 395;" xml:space="preserve">
<style type="text/css">
	.st0{fill:#000222;}
	.st1{fill:#FFFFFF;}
</style>
<g id="Layer_1">
	<rect class="st0" width="700" height="395"/>
</g>
<g id="Layer_3">
	<g>
		<path class="st1" d="M273.5,368.6l1.1,4.2c0.2,0.9,0.5,1.8,0.6,2.6h0.1c0.2-0.8,0.5-1.7,0.7-2.6l1.3-4.2h1.3l1.3,4.1
			c0.3,1,0.5,1.9,0.7,2.7h0.1c0.1-0.8,0.4-1.7,0.6-2.7l1.2-4.1h1.5l-2.7,8.2H280l-1.3-3.9c-0.3-0.9-0.5-1.7-0.7-2.7h0
			c-0.2,1-0.5,1.8-0.7,2.7l-1.3,3.9h-1.4l-2.5-8.2H273.5z"/>
		<path class="st1" d="M286.3,368.6l1.1,4.2c0.2,0.9,0.5,1.8,0.6,2.6h0.1c0.2-0.8,0.5-1.7,0.7-2.6l1.3-4.2h1.3l1.3,4.1
			c0.3,1,0.5,1.9,0.7,2.7h0.1c0.1-0.8,0.4-1.7,0.6-2.7l1.2-4.1h1.5l-2.7,8.2h-1.4l-1.3-3.9c-0.3-0.9-0.5-1.7-0.7-2.7h0
			c-0.2,1-0.5,1.8-0.7,2.7l-1.3,3.9h-1.4l-2.5-8.2H286.3z"/>
		<path class="st1" d="M299,368.6l1.1,4.2c0.2,0.9,0.5,1.8,0.6,2.6h0.1c0.2-0.8,0.5-1.7,0.7-2.6l1.3-4.2h1.3l1.3,4.1
			c0.3,1,0.5,1.9,0.7,2.7h0.1c0.1-0.8,0.4-1.7,0.6-2.7l1.2-4.1h1.5l-2.7,8.2h-1.4l-1.3-3.9c-0.3-0.9-0.5-1.7-0.7-2.7h0
			c-0.2,1-0.5,1.8-0.7,2.7l-1.3,3.9h-1.4l-2.5-8.2H299z"/>
		<path class="st1" d="M309.9,375.9c0-0.6,0.4-1.1,1-1.1c0.6,0,1,0.4,1,1.1c0,0.6-0.4,1.1-1,1.1C310.3,377,309.9,376.5,309.9,375.9z
			"/>
		<path class="st1" d="M313.5,375.3c0.4,0.3,1.2,0.6,2,0.6c1.1,0,1.6-0.5,1.6-1.2c0-0.7-0.4-1.1-1.5-1.5c-1.5-0.5-2.2-1.3-2.2-2.3
			c0-1.3,1.1-2.4,2.8-2.4c0.8,0,1.6,0.2,2,0.5l-0.4,1.1c-0.3-0.2-0.9-0.5-1.7-0.5c-0.9,0-1.4,0.5-1.4,1.1c0,0.7,0.5,1,1.6,1.4
			c1.4,0.5,2.2,1.3,2.2,2.5c0,1.4-1.1,2.5-3.1,2.5c-0.9,0-1.7-0.2-2.3-0.6L313.5,375.3z"/>
		<path class="st1" d="M327.4,374.6c0,0.9,0,1.6,0.1,2.2h-1.3l-0.1-1.3h0c-0.4,0.7-1.3,1.5-2.7,1.5c-1.3,0-2.8-0.7-2.8-3.6v-4.8h1.5
			v4.6c0,1.6,0.5,2.6,1.8,2.6c1,0,1.7-0.7,2-1.4c0.1-0.2,0.1-0.5,0.1-0.8v-5h1.5V374.6z"/>
		<path class="st1" d="M329.8,371.1c0-1,0-1.8-0.1-2.6h1.3l0.1,1.6h0.1c0.4-1.1,1.3-1.8,2.3-1.8c0.2,0,0.3,0,0.4,0.1v1.4
			c-0.2,0-0.3-0.1-0.5-0.1c-1.1,0-1.8,0.8-2,1.9c0,0.2-0.1,0.4-0.1,0.7v4.4h-1.5V371.1z"/>
		<path class="st1" d="M339.9,376.8l-0.1-1h-0.1c-0.5,0.6-1.3,1.2-2.5,1.2c-1.7,0-2.5-1.2-2.5-2.4c0-2,1.8-3.1,4.9-3.1v-0.2
			c0-0.7-0.2-1.9-1.9-1.9c-0.8,0-1.6,0.2-2.1,0.6l-0.3-1c0.7-0.4,1.7-0.7,2.7-0.7c2.5,0,3.1,1.7,3.1,3.4v3.1c0,0.7,0,1.4,0.1,2
			H339.9z M339.7,372.6c-1.6,0-3.5,0.3-3.5,1.9c0,1,0.6,1.4,1.4,1.4c1.1,0,1.8-0.7,2-1.4c0.1-0.2,0.1-0.3,0.1-0.5V372.6z"/>
		<path class="st1" d="M343.5,364.7h1.5v5.1h0c0.2-0.4,0.6-0.8,1.1-1.1c0.4-0.3,1-0.4,1.5-0.4c1.1,0,2.9,0.7,2.9,3.5v4.9H349v-4.7
			c0-1.3-0.5-2.4-1.9-2.4c-1,0-1.7,0.7-2,1.5c-0.1,0.2-0.1,0.4-0.1,0.7v5h-1.5V364.7z"/>
		<path class="st1" d="M358.6,375.5L358.6,375.5c-0.5,0.8-1.4,1.5-2.7,1.5c-1.9,0-3.5-1.7-3.5-4.2c0-3.1,2-4.4,3.7-4.4
			c1.3,0,2.1,0.6,2.5,1.4h0l0.1-1.2h1.4c0,0.7-0.1,1.4-0.1,2.3v9.3h-1.5V375.5z M358.6,371.9c0-0.2,0-0.4-0.1-0.6
			c-0.2-0.9-1-1.7-2.1-1.7c-1.5,0-2.5,1.3-2.5,3.2c0,1.6,0.8,3.1,2.4,3.1c1,0,1.8-0.6,2.1-1.6c0.1-0.2,0.1-0.5,0.1-0.7V371.9z"/>
		<path class="st1" d="M369.4,374.6c0,0.9,0,1.6,0.1,2.2h-1.3l-0.1-1.3h0c-0.4,0.7-1.3,1.5-2.7,1.5c-1.3,0-2.8-0.7-2.8-3.6v-4.8h1.5
			v4.6c0,1.6,0.5,2.6,1.8,2.6c1,0,1.7-0.7,2-1.4c0.1-0.2,0.1-0.5,0.1-0.8v-5h1.5V374.6z"/>
		<path class="st1" d="M371.9,371.1c0-1,0-1.8-0.1-2.6h1.3l0.1,1.6h0.1c0.4-1.1,1.3-1.8,2.3-1.8c0.2,0,0.3,0,0.4,0.1v1.4
			c-0.2,0-0.3-0.1-0.5-0.1c-1.1,0-1.8,0.8-2,1.9c0,0.2-0.1,0.4-0.1,0.7v4.4h-1.5V371.1z"/>
		<path class="st1" d="M381.9,376.8l-0.1-1h-0.1c-0.5,0.6-1.3,1.2-2.5,1.2c-1.7,0-2.5-1.2-2.5-2.4c0-2,1.8-3.1,4.9-3.1v-0.2
			c0-0.7-0.2-1.9-1.9-1.9c-0.8,0-1.6,0.2-2.1,0.6l-0.3-1c0.7-0.4,1.7-0.7,2.7-0.7c2.5,0,3.1,1.7,3.1,3.4v3.1c0,0.7,0,1.4,0.1,2
			H381.9z M381.7,372.6c-1.6,0-3.5,0.3-3.5,1.9c0,1,0.6,1.4,1.4,1.4c1.1,0,1.8-0.7,2-1.4c0.1-0.2,0.1-0.3,0.1-0.5V372.6z"/>
		<path class="st1" d="M385.6,370.8c0-0.9,0-1.5-0.1-2.2h1.3l0.1,1.4h0c0.4-0.8,1.4-1.5,2.7-1.5c1.1,0,2.9,0.7,2.9,3.5v4.9h-1.5
			v-4.7c0-1.3-0.5-2.4-1.9-2.4c-1,0-1.8,0.7-2,1.5c-0.1,0.2-0.1,0.4-0.1,0.7v4.9h-1.5V370.8z"/>
		<path class="st1" d="M394.6,375.9c0-0.6,0.4-1.1,1-1.1c0.6,0,1,0.4,1,1.1c0,0.6-0.4,1.1-1,1.1C395,377,394.6,376.5,394.6,375.9z"
			/>
		<path class="st1" d="M404.4,376.5c-0.4,0.2-1.3,0.5-2.4,0.5c-2.5,0-4.1-1.7-4.1-4.2c0-2.5,1.7-4.4,4.4-4.4c0.9,0,1.7,0.2,2.1,0.4
			l-0.3,1.2c-0.4-0.2-0.9-0.4-1.7-0.4c-1.9,0-2.9,1.4-2.9,3.1c0,1.9,1.2,3.1,2.9,3.1c0.8,0,1.4-0.2,1.8-0.4L404.4,376.5z"/>
		<path class="st1" d="M413.5,372.6c0,3-2.1,4.4-4.1,4.4c-2.2,0-3.9-1.6-3.9-4.2c0-2.8,1.8-4.4,4.1-4.4
			C411.9,368.4,413.5,370.1,413.5,372.6z M406.9,372.7c0,1.8,1,3.2,2.5,3.2c1.4,0,2.5-1.3,2.5-3.2c0-1.4-0.7-3.2-2.5-3.2
			S406.9,371.1,406.9,372.7z"/>
		<path class="st1" d="M415.4,370.8c0-0.9,0-1.5-0.1-2.2h1.3l0.1,1.3h0.1c0.5-0.8,1.2-1.5,2.6-1.5c1.1,0,2,0.7,2.3,1.6h0
			c0.3-0.5,0.6-0.8,0.9-1.1c0.5-0.4,1-0.6,1.8-0.6c1.1,0,2.7,0.7,2.7,3.6v4.8h-1.5v-4.7c0-1.6-0.6-2.5-1.8-2.5
			c-0.9,0-1.5,0.6-1.8,1.4c-0.1,0.2-0.1,0.5-0.1,0.7v5.1h-1.5v-4.9c0-1.3-0.6-2.3-1.7-2.3c-0.9,0-1.6,0.7-1.9,1.5
			c-0.1,0.2-0.1,0.5-0.1,0.7v5h-1.5V370.8z"/>
	</g>
</g>
<g id="Layer_4">
	<path class="st1" d="M316.9,95.3h0.7v0.7l-4.1,15.8v2.1c0.4,8.3,1.8,12.4,4.1,12.4h2l0.7-0.7c0.9,0,1.4-1.1,1.4-3.4l0.6-0.7h0.7
		l0.6,0.7v0.6c0,5.3-1.8,9.2-5.5,11.8h-2.8c-4.1-2.9-6.2-7-6.2-12.4v-5.5C312.8,102.5,315.3,95.3,316.9,95.3z M418.4,98.8
		c3.2,1.2,4.8,4,4.8,8.3l-0.6,11.7l6.9,8.3v3.5l-2.1,2c-4.7-3.2-7.9-4.8-9.7-4.8c-12.1,12.6-22.9,20.2-32.4,22.7l-5.5,2.1h-1.4v-0.7
		c0.6-1.2,10.5-8.3,29.6-21.4l4.9-5.5l-4.9-10.4C410.6,104.1,414,98.8,418.4,98.8z M105,99.5c4.6,0,7.6,3.5,8.9,10.4v2l-2,2.1h-1.4
		l-4.9-4.1h-2c-1.4,0-2.6,8.3-3.5,24.9c-2,7.4-3.6,11-4.8,11c-6.1-14.7-13-22.1-20.7-22.1c-2.8-2.1-4.1-4.2-4.1-6.3v-0.6
		c0-3.6,1.1-5.9,3.4-6.9c4.6,0,11.8,6.9,21.4,20.7h1.4v-3.5C96.7,112.4,99.5,103.2,105,99.5z M574.4,100.9c4.1,2.1,6.2,4.9,6.2,8.3
		c-0.9,3.3-1.8,4.9-2.8,4.9h-0.6c-2.8-2.8-5.1-4.1-6.9-4.1c-2.3,1.2-3.5,3-3.5,5.5v7.5c-0.9,15.3-2.5,23.3-4.8,24.2h-1.4
		c0-3.9-4.1-10.3-12.4-19.3c-4.6-0.9-8.1-2.8-10.4-5.5l-2-4.1c1.1-4.2,2.2-6.3,3.4-6.3h0.7c5.1,0,12.2,6.4,21.4,19.3h0.7
		c0-15.8,2.8-25.5,8.3-29L574.4,100.9z M512.9,103l1.4,2c0,4-3.9,7.7-11.7,11l-55.2,31.1l-0.7-2.1c0-3.7,4.4-7.9,13.2-12.4
		L512.9,103z M625.5,103c4.6,1.1,6.9,5.5,6.9,13.1v6.3c0,1.2,1.8,4.4,5.5,9.7v1.4c-0.5,1.8-1.4,2.8-2.8,2.8l-7.6-3.5
		c-11.5,12.3-23.9,21.7-37.3,28.3c-8.9,3.7-14.6,5.5-17.2,5.5h-0.7v-0.7c5.6-4.2,17.9-11.8,36.6-22.7c9.2-6.9,13.8-11.5,13.8-13.8
		c-4.6-3.3-6.9-6.9-6.9-11C618.1,108,621.3,103,625.5,103z M214.1,106.4h2.8v1.4c0,4.7-3.5,7.7-10.4,9
		c-59.7,26.2-98.4,45.1-116,56.6l-6.2,6.9v2c3.2,2.9,4.8,6,4.8,9v1.4l-2,0.6c-3.7,0-6-2.5-6.9-7.5v-4.1c0-9,10.6-18.5,31.8-28.3
		c14.8-8.1,29.3-15.2,43.4-21.4C182.2,119.1,201.8,110.6,214.1,106.4z M413.5,109.9c0,2.5,1.2,4.4,3.5,5.5h0.6l1.4-1.4v-1.4
		c0-2.4-0.7-3.8-2-4.1h-2.1L413.5,109.9z M620,116.8c3.6,3.2,6.1,4.8,7.5,4.8l0.7-0.6v-2.1c0-3.6-1.2-5.9-3.5-6.9
		C621.6,111.9,620,113.5,620,116.8z M283.1,124.3h1.4c0.9,0,1.4,0.7,1.4,2.1c-1.1,6.4-4.6,9.7-10.4,9.7
		c-45,18.2-84.8,35.2-119.4,51.1h-2.8v-1.4c0-6.4,7.6-12.1,22.7-17.3C226.2,146.2,261.9,131.5,283.1,124.3z M370.7,134.7l1.4,2
		c0,3.5-4.8,6.7-14.5,9.7c-33.1,16.6-50.9,24.9-53.2,24.9v-0.6l-0.6-0.7v-0.6c0-3.9,6.9-8.5,20.7-13.8
		C343,146,358.4,139.1,370.7,134.7z M521.9,145.8v1.4l-3.5,12.4v2c0,4.2,1.6,7.4,4.9,9.7h0.6l4.9-6.2h0.6l0.7,2.8
		c-2.2,8.3-4.8,12.4-7.6,12.4c-4.2,0-7-4.6-8.3-13.8C516.7,152.7,519.3,145.8,521.9,145.8z M428.1,150.6c7.8,4.3,11.7,8,11.7,11
		c0,2.3-2.3,5.5-6.9,9.7h-0.6c-5.2-4.6-8.7-6.9-10.4-6.9c-2.6,4.7-4.9,7.7-6.9,9c-3.1-1-7-4.3-11.7-9.7v-1.4c2.5-6,4.8-9,6.9-9
		l9.7,5.5h2C424.2,153.3,426.3,150.6,428.1,150.6z M628.2,153.3h0.6l-3.4,10.4v6.9c0,3.7,1.6,5.5,4.8,5.5l3.5-3.5h0.6v1.4
		c0,4.5-2.1,8-6.2,10.4h-2.1c-3.2-1.8-4.8-5.8-4.8-12.1C621.3,166,623.6,159.6,628.2,153.3z M470.1,166.5h1.4l14.5,15.8v2.1h-6.3
		v1.4c8.3,13.5,12.4,23.4,12.4,29.6c0,12.6-6.7,23.4-20,32.5l-2.1,7.5v3.5c0,11.4,5.5,18.8,16.6,22.1l5.5,0.6
		c17.7,0,37.7-12,60.1-35.9c1.8-2.2,2.8-4,2.8-5.5l-0.7-2h-2l-19.3,2c-10.1-1-15.2-5.9-15.2-14.5v-0.7c1-12.4,6.5-20,16.6-22.7h1.4
		c6.7,0,14.1,5.7,22.1,17.2h2c8.5-4.8,15.9-9.6,22.1-14.5l2.8-0.7l1.4,4.1h0.7l-0.7,3.5v1.4c0,5.9,4.4,10,13.2,12.4h2
		c11.5,0,19.6-6.4,24.2-19.3l4.1-4.1h0.6l1.4,1.4l-2.8,6.2v4.1c3.3,4.6,9,6.9,17.3,6.9c2.3,0,3.4-1.1,3.4-3.4l-3.4-7.6v-0.6l2.8-9.7
		h1.4c2,0,4.1,6,6.2,17.9c0,8-3.7,14.2-11,18.6h-4.1c-6.1,0-12.3-3.4-18.6-10.3c-7.4,9.6-14.8,14.5-22.1,14.5
		c-11.9,0-18.8-6.2-20.7-18.6c-12.9,4.8-19.3,12.6-19.3,23.5c0,7.5-11.8,20.6-35.3,39.3c-13.1,7.9-23.7,11.8-31.8,11.8h-0.6
		c-16.1,0-25.6-9.9-28.3-29.7l0.7-11.7h-0.7l-28.3,16.6c-12.9,7.7-29.9,13.3-51.1,16.6l-17.9,3.4l-0.7-0.6V290
		c1.3-2.2,12.8-7,34.5-14.5c27.7-13.6,50.5-27,68.4-40c8.4-6.4,13.7-11.5,15.8-15.2v-1.4c0-1.4-4.6-11.1-13.8-29l-4.8-13.2
		C467.9,169.9,469,166.5,470.1,166.5z M62.8,172h2.1v0.6c-3.3,14.1-4.9,22.8-4.9,26.2c0,10.1,1.8,16.4,5.5,18.7h2.8
		c0.7,0,2.5-2.5,5.5-7.6c0.8,0,1.5,1.2,2.1,3.5c0,6.6-4.1,12.8-12.4,18.6c-10.1,15-15.2,28.1-15.2,39.4c0,9.2,3.9,13.8,11.7,13.8
		h1.4c9,0,21.6-10.1,38-30.4c19.2-18.2,34.9-28.3,46.9-30.4c6.3,0,10.2-1.8,11.7-5.5h0.7c10.8,10.6,24.4,15.8,40.7,15.8h6.9
		c20.6,0,40.7-6.4,60.1-19.3v-1.4c0-2.5-3-8.3-9-17.2v-0.7c0.9-6.4,2.1-9.7,3.5-9.7c7.8,7.1,11.7,13.7,11.7,20.1v6.9
		c0,6.7-3.7,13.1-11,19.3l-24.9,11.7c-6,10.7-8.9,20-8.9,27.9c0,7.9,1.6,12.6,4.8,14.2c1.8,0.9,4.3,1.4,7.6,1.4h2
		c8.7,0,22.1-10.6,40-31.8c16.3-14.7,35.4-25,57.3-31.1l0.6-2c-2.8-3.9-4.1-8.3-4.1-13.2c2.5-11.5,6.8-17.2,13.2-17.2h4.8
		c5.4,0.7,13.7,7.2,24.9,19.3l0.7,2.8c-1.2,9.6-6.1,14.5-14.5,14.5c0,0.9-1.1,1.4-3.4,1.4l-7.6,5.5l-0.6,3.5h-2.1l-2.8-2.1H348
		c-29.2,6.7-50.8,17.7-64.9,33.1c-14.9,18.4-26.2,27.6-33.9,27.6c0,0.9-1.1,1.4-3.4,1.4h-4.1c-8.4,0-14.6-6.4-18.7-19.3l-0.6-5.5
		c0-4.4,2.3-13.6,6.9-27.6h-0.7l-28.3,2.1l-21.4-2.1l-0.6,0.7v1.4c0,10.6-1.6,15.8-4.9,15.8c-11-3.2-16.6-7.1-16.6-11.7
		c-1.1-0.4-2.5-5-4.1-13.8h-1.4c-16.8,0-39.1,16.1-66.9,48.3c-6.5,6-12.9,9.2-19.3,9.7h-0.7c-13.8-3.3-20.7-11.8-20.7-25.6
		c0-10.3,5.8-24.8,17.3-43.4v-2.1c-3.7-4.1-5.5-9.6-5.5-16.6v-4.8C55.3,197.7,57.8,186.7,62.8,172z M225.7,172
		c0.7,0,1.4,0.9,2.1,2.8c-2.8,8.8-4.1,16.7-4,23.5c0.1,6.8,1.9,10.3,5.3,10.3l4.8-6.2h0.7l0.6,3.4c-2,8.1-4.3,12.7-6.9,13.8h-1.4
		c-4.8,0-7.8-5.3-8.9-15.8c0-6.6,2.3-17.2,6.9-31.8H225.7z M441.1,176.1l0.7,0.6h0.6c0,6.4-4.4,15.2-13.1,26.2v0.7
		c9.6,7.4,14.5,13.8,14.5,19.3v0.6c0,12.4-5.5,20.7-16.6,24.9c-4.7,2.8-8.1,4.1-10.3,4.1c-7.9-1.5-11.8-5.4-11.8-11.7
		c0-9.9,2.8-19.5,8.3-29l-11-11c-5.5-5.1-8.3-9.2-8.3-12.4l1.4-8.3h0.7c11.5,3.9,17.9,7.1,19.3,9.7c0,1-1.2,1.7-3.5,2v1.4
		c4.3,4.2,7.5,6.3,9.7,6.3L441.1,176.1z M120.2,180.3h0.6v1.4c-2.3,7.6-3.4,14.1-3.4,19.3c0.7,5,1.8,7.5,3.4,7.5h1.4l4.1-4.1h0.7
		l0.6,2.1c-2,7.4-4.5,11-7.5,11c-4.6-2.2-6.9-6.4-6.9-12.4C115.1,191.2,117.4,182.9,120.2,180.3z M307.9,189.2
		c2.6,0,4.2,1.2,4.8,3.5c0,5.6-5.3,11.4-15.8,17.2h-2.8v-1.4l7.5-7.5v-1.4h-3.4c-2.4,0-6.3,1.4-11.8,4.1V203
		c0-6.6,4.8-11.2,14.5-13.8H307.9z M343.8,209.9v2.1c3.1,5.1,5.4,8.1,6.9,8.9h1.4c4.5,0,8.4-1.6,11.7-4.8v-0.7
		c-4.8-5.5-9.7-8.3-14.5-8.3h-2.1L343.8,209.9z M411.5,231.4v2.8c1.1,2.8,2.9,4.1,5.5,4.1c7,0,13.4-3.7,19.3-11
		c-0.9-2.9-5.5-6.4-13.8-10.4h-2.8C414.4,223.1,411.6,228,411.5,231.4z M527.5,221.7v0.6c0,1.3,2.3,2.2,6.9,2.8h1.4
		c5,0,7.5-0.6,7.5-1.9s-2.3-3.2-6.9-5.6H535C531.4,217.6,528.9,218.9,527.5,221.7z M161.6,242.4v0.6c0,1.8,2.1,3.5,6.2,4.9v-1.4
		C166.2,243.8,164.1,242.4,161.6,242.4z M349.4,248.6v0.7c-4.2,9.1-6.3,14.9-6.3,17.2v3.5c0,3.7,1.6,5.5,4.9,5.5l4.1-4.1h0.6v0.6
		c0,6.3-2.8,10.2-8.3,11.8c-3.4,0-5.4-3-6.2-9v-3.4c0.4-6.1,3.7-13.7,9.7-22.8H349.4z M637.9,252.7l0.6,0.7h0.7
		c0,7.8-3.5,13.3-10.4,16.6c-1.8-0.9-4.3-1.4-7.5-1.4c-3.6,2.8-6.8,4.1-9.7,4.1l-6.9-2.8h-2.1c-3.3,0-11.8,4.6-25.5,13.8
		c-5.8,2.8-9.8,4.1-11.8,4.1h-2v-2.1c9-4.4,21.2-12,36.5-22.7l6.3-1.4l9.7,3.4c2.9-0.7,6.3-3.5,10.3-8.3c1.3,3.3,3.4,4.9,6.3,4.9
		c1.1,0,2.5-2.8,4.1-8.3l0.6-0.7H637.9z M131.2,254.1h1.4v0.7l-4.1,15.8c0.4,6.4,1.6,9.7,3.4,9.7h1.4l2.8-2h1.4v0.6
		c-1.8,6-3.7,9-5.5,9h-0.6c-4.6,0-6.9-3.5-6.9-10.4C124.6,271.1,126.9,263.2,131.2,254.1z M205.8,268.6c4.7,2,7.9,4.7,9.7,8.3l0.6,2
		c0,3.1-2.1,6.4-6.2,9.7c-1.3,0-5-2.3-11-6.9l-7.6,6.9c-2.5,0-6.4-3-11.7-8.9v-2.1c2.3-4.2,4.8-7,7.5-8.3l9.7,6.9h0.7
		C202.1,271.2,204.8,268.6,205.8,268.6z"/>
</g>
</svg>
