<?xml version="1.0" encoding="utf-8"?>
<!-- Generator: Adobe Illustrator 25.2.3, SVG Export Plug-In . SVG Version: 6.00 Build 0)  -->
<svg version="1.1" id="Layer_1" xmlns="http://www.w3.org/2000/svg" xmlns:xlink="http://www.w3.org/1999/xlink" x="0px" y="0px"
	 viewBox="0 0 700 395" style="enable-background:new 0 0 700 395;" xml:space="preserve">
<style type="text/css">
	.st0{fill:#000222;}
	.st1{fill:#FFFFFF;}
</style>
<g id="Layer_1_1_">
	<rect y="-0.5" class="st0" width="700" height="395"/>
</g>
<g id="Layer_3">
	<g>
		<path class="st1" d="M273.5,368.6l1.1,4.2c0.2,0.9,0.5,1.8,0.6,2.6h0.1c0.2-0.8,0.5-1.7,0.7-2.6l1.3-4.2h1.3l1.3,4.1
			c0.3,1,0.5,1.9,0.7,2.7h0.1c0.1-0.8,0.4-1.7,0.6-2.7l1.2-4.1h1.5l-2.7,8.2H280l-1.3-3.9c-0.3-0.9-0.5-1.7-0.7-2.7l0,0
			c-0.2,1-0.5,1.8-0.7,2.7l-1.3,3.9h-1.4l-2.5-8.2H273.5z"/>
		<path class="st1" d="M286.3,368.6l1.1,4.2c0.2,0.9,0.5,1.8,0.6,2.6h0.1c0.2-0.8,0.5-1.7,0.7-2.6l1.3-4.2h1.3l1.3,4.1
			c0.3,1,0.5,1.9,0.7,2.7h0.1c0.1-0.8,0.4-1.7,0.6-2.7l1.2-4.1h1.5l-2.7,8.2h-1.4l-1.3-3.9c-0.3-0.9-0.5-1.7-0.7-2.7l0,0
			c-0.2,1-0.5,1.8-0.7,2.7l-1.3,3.9h-1.4l-2.5-8.2H286.3z"/>
		<path class="st1" d="M299,368.6l1.1,4.2c0.2,0.9,0.5,1.8,0.6,2.6h0.1c0.2-0.8,0.5-1.7,0.7-2.6l1.3-4.2h1.3l1.3,4.1
			c0.3,1,0.5,1.9,0.7,2.7h0.1c0.1-0.8,0.4-1.7,0.6-2.7l1.2-4.1h1.5l-2.7,8.2h-1.4l-1.3-3.9c-0.3-0.9-0.5-1.7-0.7-2.7l0,0
			c-0.2,1-0.5,1.8-0.7,2.7l-1.3,3.9H300l-2.5-8.2H299z"/>
		<path class="st1" d="M309.9,375.9c0-0.6,0.4-1.1,1-1.1s1,0.4,1,1.1c0,0.6-0.4,1.1-1,1.1S309.9,376.5,309.9,375.9z"/>
		<path class="st1" d="M313.5,375.3c0.4,0.3,1.2,0.6,2,0.6c1.1,0,1.6-0.5,1.6-1.2s-0.4-1.1-1.5-1.5c-1.5-0.5-2.2-1.3-2.2-2.3
			c0-1.3,1.1-2.4,2.8-2.4c0.8,0,1.6,0.2,2,0.5l-0.4,1.1c-0.3-0.2-0.9-0.5-1.7-0.5c-0.9,0-1.4,0.5-1.4,1.1c0,0.7,0.5,1,1.6,1.4
			c1.4,0.5,2.2,1.3,2.2,2.5c0,1.4-1.1,2.5-3.1,2.5c-0.9,0-1.7-0.2-2.3-0.6L313.5,375.3z"/>
		<path class="st1" d="M327.4,374.6c0,0.9,0,1.6,0.1,2.2h-1.3l-0.1-1.3l0,0c-0.4,0.7-1.3,1.5-2.7,1.5c-1.3,0-2.8-0.7-2.8-3.6v-4.8
			h1.5v4.6c0,1.6,0.5,2.6,1.8,2.6c1,0,1.7-0.7,2-1.4c0.1-0.2,0.1-0.5,0.1-0.8v-5h1.5v6H327.4z"/>
		<path class="st1" d="M329.8,371.1c0-1,0-1.8-0.1-2.6h1.3l0.1,1.6h0.1c0.4-1.1,1.3-1.8,2.3-1.8c0.2,0,0.3,0,0.4,0.1v1.4
			c-0.2,0-0.3-0.1-0.5-0.1c-1.1,0-1.8,0.8-2,1.9c0,0.2-0.1,0.4-0.1,0.7v4.4h-1.5L329.8,371.1L329.8,371.1z"/>
		<path class="st1" d="M339.9,376.8l-0.1-1h-0.1c-0.5,0.6-1.3,1.2-2.5,1.2c-1.7,0-2.5-1.2-2.5-2.4c0-2,1.8-3.1,4.9-3.1v-0.2
			c0-0.7-0.2-1.9-1.9-1.9c-0.8,0-1.6,0.2-2.1,0.6l-0.3-1c0.7-0.4,1.7-0.7,2.7-0.7c2.5,0,3.1,1.7,3.1,3.4v3.1c0,0.7,0,1.4,0.1,2
			H339.9z M339.7,372.6c-1.6,0-3.5,0.3-3.5,1.9c0,1,0.6,1.4,1.4,1.4c1.1,0,1.8-0.7,2-1.4c0.1-0.2,0.1-0.3,0.1-0.5V372.6z"/>
		<path class="st1" d="M343.5,364.7h1.5v5.1l0,0c0.2-0.4,0.6-0.8,1.1-1.1c0.4-0.3,1-0.4,1.5-0.4c1.1,0,2.9,0.7,2.9,3.5v4.9H349V372
			c0-1.3-0.5-2.4-1.9-2.4c-1,0-1.7,0.7-2,1.5c-0.1,0.2-0.1,0.4-0.1,0.7v5h-1.5V364.7z"/>
		<path class="st1" d="M358.6,375.5L358.6,375.5c-0.5,0.8-1.4,1.5-2.7,1.5c-1.9,0-3.5-1.7-3.5-4.2c0-3.1,2-4.4,3.7-4.4
			c1.3,0,2.1,0.6,2.5,1.4l0,0l0.1-1.2h1.4c0,0.7-0.1,1.4-0.1,2.3v9.3h-1.5v-4.7H358.6z M358.6,371.9c0-0.2,0-0.4-0.1-0.6
			c-0.2-0.9-1-1.7-2.1-1.7c-1.5,0-2.5,1.3-2.5,3.2c0,1.6,0.8,3.1,2.4,3.1c1,0,1.8-0.6,2.1-1.6c0.1-0.2,0.1-0.5,0.1-0.7v-1.7H358.6z"
			/>
		<path class="st1" d="M369.4,374.6c0,0.9,0,1.6,0.1,2.2h-1.3l-0.1-1.3l0,0c-0.4,0.7-1.3,1.5-2.7,1.5c-1.3,0-2.8-0.7-2.8-3.6v-4.8
			h1.5v4.6c0,1.6,0.5,2.6,1.8,2.6c1,0,1.7-0.7,2-1.4c0.1-0.2,0.1-0.5,0.1-0.8v-5h1.5v6H369.4z"/>
		<path class="st1" d="M371.9,371.1c0-1,0-1.8-0.1-2.6h1.3l0.1,1.6h0.1c0.4-1.1,1.3-1.8,2.3-1.8c0.2,0,0.3,0,0.4,0.1v1.4
			c-0.2,0-0.3-0.1-0.5-0.1c-1.1,0-1.8,0.8-2,1.9c0,0.2-0.1,0.4-0.1,0.7v4.4h-1.5L371.9,371.1L371.9,371.1z"/>
		<path class="st1" d="M381.9,376.8l-0.1-1h-0.1c-0.5,0.6-1.3,1.2-2.5,1.2c-1.7,0-2.5-1.2-2.5-2.4c0-2,1.8-3.1,4.9-3.1v-0.2
			c0-0.7-0.2-1.9-1.9-1.9c-0.8,0-1.6,0.2-2.1,0.6l-0.3-1c0.7-0.4,1.7-0.7,2.7-0.7c2.5,0,3.1,1.7,3.1,3.4v3.1c0,0.7,0,1.4,0.1,2
			H381.9z M381.7,372.6c-1.6,0-3.5,0.3-3.5,1.9c0,1,0.6,1.4,1.4,1.4c1.1,0,1.8-0.7,2-1.4c0.1-0.2,0.1-0.3,0.1-0.5V372.6z"/>
		<path class="st1" d="M385.6,370.8c0-0.9,0-1.5-0.1-2.2h1.3l0.1,1.4l0,0c0.4-0.8,1.4-1.5,2.7-1.5c1.1,0,2.9,0.7,2.9,3.5v4.9H391
			v-4.7c0-1.3-0.5-2.4-1.9-2.4c-1,0-1.8,0.7-2,1.5c-0.1,0.2-0.1,0.4-0.1,0.7v4.9h-1.5v-6.1H385.6z"/>
		<path class="st1" d="M394.6,375.9c0-0.6,0.4-1.1,1-1.1s1,0.4,1,1.1c0,0.6-0.4,1.1-1,1.1S394.6,376.5,394.6,375.9z"/>
		<path class="st1" d="M404.4,376.5c-0.4,0.2-1.3,0.5-2.4,0.5c-2.5,0-4.1-1.7-4.1-4.2s1.7-4.4,4.4-4.4c0.9,0,1.7,0.2,2.1,0.4
			l-0.3,1.2c-0.4-0.2-0.9-0.4-1.7-0.4c-1.9,0-2.9,1.4-2.9,3.1c0,1.9,1.2,3.1,2.9,3.1c0.8,0,1.4-0.2,1.8-0.4L404.4,376.5z"/>
		<path class="st1" d="M413.5,372.6c0,3-2.1,4.4-4.1,4.4c-2.2,0-3.9-1.6-3.9-4.2c0-2.8,1.8-4.4,4.1-4.4
			C411.9,368.4,413.5,370.1,413.5,372.6z M406.9,372.7c0,1.8,1,3.2,2.5,3.2c1.4,0,2.5-1.3,2.5-3.2c0-1.4-0.7-3.2-2.5-3.2
			S406.9,371.1,406.9,372.7z"/>
		<path class="st1" d="M415.4,370.8c0-0.9,0-1.5-0.1-2.2h1.3l0.1,1.3h0.1c0.5-0.8,1.2-1.5,2.6-1.5c1.1,0,2,0.7,2.3,1.6l0,0
			c0.3-0.5,0.6-0.8,0.9-1.1c0.5-0.4,1-0.6,1.8-0.6c1.1,0,2.7,0.7,2.7,3.6v4.8h-1.5V372c0-1.6-0.6-2.5-1.8-2.5
			c-0.9,0-1.5,0.6-1.8,1.4c-0.1,0.2-0.1,0.5-0.1,0.7v5.1h-1.5v-4.9c0-1.3-0.6-2.3-1.7-2.3c-0.9,0-1.6,0.7-1.9,1.5
			c-0.1,0.2-0.1,0.5-0.1,0.7v5h-1.5v-5.9H415.4z"/>
	</g>
	<path class="st1" d="M596.1,102.6c4.4,0,6.6,5.9,6.6,17.8l5.2,8.9v1.5l-0.8,3.8l-8.1-3c-23.5,22.2-40.8,33.3-51.9,33.3v-0.7
		c0-1,11.1-8.4,33.3-22.3c8.9-7.6,13.4-11.8,13.4-12.7v-0.7l-6.6-8.2v-0.7C587.2,110.7,590.1,105,596.1,102.6z M544.1,103.4l7.4,2.2
		l1.5,5.2c-0.7,2.4-1.4,3.7-2.3,3.7H550c-2.6-2.4-4.8-3.7-6.7-3.7c-2,0.8-3,2.5-3,5.1v8.2c0,9.3-1,16.9-3,22.9h-2.2
		c-5-12.9-10.7-19.3-17.1-19.3c-4.4-2.4-6.6-5.1-6.6-8.1V119c0-3.4,1.2-5.1,3.7-5.1c4.2,0,10.8,5.7,20.1,17h0.7V122
		C535.9,114.3,538.7,108.1,544.1,103.4z M398,104.9c3.5,1,5.2,4.2,5.2,9.6l-0.8,8.9l7.4,8.9c-0.7,3-1.4,4.5-2.2,4.5h-0.8l-6.6-4.5
		c-2.2,0-6.5,3.7-12.7,11.2l-22.3,13.4h-3v-1.5l30.5-23.7l0.7-3.8c-2.5-2.4-4.2-5.1-5.1-8.1C388.4,112.8,391.6,107.8,398,104.9z
		 M488.5,106.4h0.8l0.7,2.2c0,3.8-15.8,14.4-47.5,31.9c-7.1,5.9-12,8.9-14.8,8.9H427v-1.5c0-4.6,9.6-12,28.9-22.3
		C470.3,115.7,481.1,109.2,488.5,106.4z M591.6,114.5v0.8c1.7,3,3.9,4.5,6.6,4.5h0.8c-0.7-4.9-1.6-7.4-3-7.4h-2.3L591.6,114.5z
		 M393.5,116.8c1,2.4,2.7,3.7,5.2,3.7V116l-1.5-1.5h-1.5L393.5,116.8z M496.7,147.1h1.5v0.8l-3,11.1v3.8c0,4.7,2.2,7.5,6.6,8.1
		l3.8-5.9l0.7,0.8v0.7c-1.5,8.9-3.9,13.4-7.4,13.4c-4.9-2.6-7.4-6.5-7.4-11.9v-1.5C491.4,161.8,493.2,155.3,496.7,147.1z
		 M599.7,151.6l0.8,0.8c-2.5,6-3.8,10.7-3.8,14c1.1,4.5,2.4,6.7,3.8,6.7h0.7c2-1.1,3-2.3,3-3.8h1.5l0.8,2.3
		c-1.6,6.4-4.1,9.6-7.4,9.6c-2.8,0-4.8-4-5.9-11.9C593.1,163.7,595.3,157.8,599.7,151.6z M407.7,154.6h3c5.9,3.9,9.1,7.1,9.6,9.7
		c0,2.8-2,5.7-5.9,8.9h-2.2l-7.4-5.2H404l-5.9,7.4l-0.7,0.8h-0.8c-6.2-2.6-10.2-5.9-11.9-9.7c2-5.1,4-8,5.9-8.9h0.8l10.4,5.2
		L407.7,154.6z M448.4,167.9h1.5c9.4,8.2,14.1,13.7,14.1,16.3v0.8l-4.5,0.7v2.3c6.7,10.4,10.4,18.1,11.1,22.9
		c0,14.6-3,23.5-8.9,26.7c-7.4,6.6-11.1,12.8-11.1,18.6c2.2,14.3,8.1,21.5,17.8,21.5h2.2c20.6,0,40.8-13.4,60.8-40.1v-1.5l-2.2-2.2
		l-17.1,3c-10.9,0-16.3-4-16.3-11.9v-4.5c3-13.4,8.7-20.1,17.1-20.1c5.4,0.2,12.6,5.4,21.5,15.6h0.8c1.8,0,9-4.7,21.5-14.1h2.3
		c1.5,0,2.4,4.2,3,12.7c3.7,4.4,7.6,6.6,11.9,6.6h4.5c7.6,0,15.3-7.9,22.9-23.7h0.8l1.5,1.5v0.8l-2.3,8.9c3.9,4.9,8.3,7.4,13.4,7.4
		h1.5c2.6,0,4.1-0.8,4.5-2.3v-0.7l-3-7.4c0.7-6.9,1.9-10.4,3.8-10.4c2.9,0,4.9,7.2,5.9,21.5c0,7.3-4.9,12-14.8,14.1
		c-5.8-1.3-11.2-4.5-16.3-9.7c-7.6,9.4-15.6,14.1-23.7,14.1c-11.4-2.8-17.1-8.5-17.1-17.1h-2.2c-9.9,6.3-14.8,11.5-14.8,15.6
		c0,18.3-17.1,36.9-51.2,55.6l-12.6,2.3H470l-0.8,0.7c-6.3-1.2-12.2-4.6-17.8-10.4c-3.4-7-5.1-11.9-5.1-14.8v-14h-1.5
		c-26.7,18.9-46,29-57.9,30.4l-33.4,7.4l-0.7-0.7v-1.5c3.3-2.5,17.4-8.9,42.2-19.3c22.9-11.9,43.2-25.6,60.8-40.8
		c5.5-4.5,8.2-8.1,8.2-10.7c0-2.6-4.2-10.9-12.7-24.9l-5.1-15.5L448.4,167.9z M421.7,178.3l0.8,0.8h0.7c0,5.3-3.7,13.7-11.1,25.2
		v1.5c8.9,5.7,13.4,11.4,13.4,17v6.7c0,8.6-7.7,16.2-23,22.9H398c-6.4,0-9.6-4.7-9.6-14c0-6.6,2.2-14.3,6.6-23v-0.7
		c0-2.5-4.2-7-12.6-13.4c0-1.3-1.3-2.6-3.8-3.8c-1.5-1.7-2.1-4.5-2-8.3s0.8-5.7,2-5.7h2.3c10.7,4.6,16.2,7.3,16.3,8.1v1.5
		c-2,0.3-3,1-3,2.3c3,3.4,5.7,5.1,8.1,5.1h1.5L421.7,178.3z M504.8,219.2c0.5,2,2,3,4.5,3h7.4c2.5,0,3.8-0.5,3.8-1.5
		c-1.3-3-3.5-4.5-6.7-4.5h-5.9L504.8,219.2z M394.3,231v0.7c0,2.7,1.2,4.7,3.7,5.9h3c5.2,0,11.1-3.5,17.8-10.4c-1.3-3-6-6.2-14-9.6
		h-2.3C399.6,219.8,396.9,224.3,394.3,231z M610.1,246.5h1.5v1.5h0.8c-2.5,10.4-5.7,15.6-9.7,15.6l-6.6-2.3c0,1.5-2.7,3-8.2,4.5
		h-0.7c-2.6,0-4.9-0.7-6.7-2.2h-3c-2,0-11.9,5.7-29.7,17l-6.6,1.5h-0.8V280c1.4,0,13.3-7.7,35.6-23l4.5-0.7h0.8l7.4,2.2
		c4,0,7.6-2.5,11.1-7.4c1.1,3,3,4.5,5.9,4.5C606.7,255.4,608.2,252.5,610.1,246.5z M330.7,131.5v-1.2l-3.8-24.1
		c2.2-5.7,3.9-8.8,5-9.5c3.4,2,6.7,7.3,10.1,15.7s5.3,14.8,5.7,19.1l-1.9,1.3c-1.4,0-2.5-0.3-3.3-0.9s-1.9-1.9-3.5-3.9l0.4,6.1
		c3.3,27.9,5.8,46.5,7.6,55.8l5,41.2v7.5c-1.7,15.2-3.8,22.8-6.3,22.8c-0.9,0-1.3-1.5-1.3-4.5h-0.6l0.6-0.6v-2.6l-0.6-0.6l0.6-0.7
		c0-10-2.5-32.8-7.6-68.4C334.1,166,332,148.5,330.7,131.5z M299.1,99.9h1.3c2,1.3,6.4,10.6,13.3,27.9l0.7,3.2c0,1.7-2.2,1.7-6.6,0
		l0.3,3.2v0.7l12,89.9l1.3,13.9c-2.4,16.1-9.6,24.1-21.6,24.1l-7.6-0.6c-4.2,0-9-3.4-14.5-10.2l-0.7-0.6h-0.6
		c-8.3,7.8-16.3,12.5-24,13.9c-5.1,0.9-10,0.6-14.6-0.7c-3.6-1.1-9.5-6.6-17.7-16.4H218l-37.5,12l-12.7,7
		c-10.5,12.1-19.4,19.7-26.8,22.6c-7.4,3-14.5,3.2-21.3,0.8c-6.8-2.4-10.3-6.4-10.6-12s1.4-15.1,4.9-28.7c-4.1,1.7-7.8,1.6-11.3-0.2
		c-3.6-2.4-5.3-5.3-5.3-8.6c0-10,2.5-18.7,7.6-26v-2.5l-10.8-13.4l-1.4-4.2l1.4-7.2c0.7-1.7,2.1-2.6,4.5-2.6l5.9,4.5
		c2.6,2,4.9,5.3,6.8,10.1h1.3c3.6-2.5,7.8-7.8,12.7-15.9l2.6-1.9h0.6l1.3,1.3c-1.1,7.1-3.9,13.6-8.3,19.7v1.2c0,1.6,1.9,4.8,5.7,9.6
		c2.6,4.2,3.9,8.6,3.9,13.3v1.9c0,6.9-3,12.6-8.9,17.1c-3.2,3.4-5.4,6.8-6.6,10.4c-1.2,3.6-1.7,8.6-1.3,15.1s4,10,10.9,10.5l4-1.2
		c7.3-2.5,16.5-9.7,27.9-21.6c12.4-9.7,28.7-16.9,48.9-21.6c4.6-1.8,6.9-4.2,6.9-6.9l-0.6-6.4v-5.6c3.1-12.7,7.5-19,13.3-19
		c4.3,0,9.2,4.8,14.6,14.5l0.6,6.3c0,8.1-3.2,14.9-9.5,20.3c0,5.7,6.3,9.1,19,10.2c7.6,0,15.3-3.6,22.8-10.8
		c3.6-5.5,6.7-8.3,9.5-8.3c0,7.6,3.6,13,10.8,15.9h10.8c5.5-2.2,8.2-5.1,8.2-8.9c-3.4-28.4-7.4-56.1-12-83.1l-5.7-45
		C294.6,107.3,296.1,103.5,299.1,99.9z M270.5,101.8l2,3.2c0,4.2-4.9,8-14.6,11.5c-5.8,3.4-30.7,15.8-74.8,37.4l-30.5,17.7h-1.2
		l-0.7-1.9c-1.1-4.5,5.2-11,19.1-19.6c13.8-8.6,39.6-21.5,77.2-38.8L270.5,101.8z M176.1,103h1.9c4.2,0,6.3,3.2,6.3,9.5
		c-0.6,1.8-1.6,3.1-3.2,3.9h-1.3l-3.2-2.6h-1.3c-0.7,0-2.1,8.9-4.5,26.6l-1.9,1.3c-1.8-0.5-3.7-3.7-5.7-9.5
		c-4.5-6.5-9.1-10.5-13.9-12.1c-1.6-2-2.5-3.7-2.5-5c0.9-4.7,1.9-7,3.2-7c4.5,0,10,4.5,16.4,13.4h1.3
		C171.2,109.6,174,103.4,176.1,103z M109.6,106.9h0.6l-2.6,14.5c0.8,2.4,2.1,4.5,3.9,6.3h0.6l3.9-3.8l1.3,1.2
		c-0.9,8-3.2,12.1-7,12.1c-4.2,0-6.3-4.2-6.3-12.7v-1.3C105.5,112.4,107.5,106.9,109.6,106.9z M268.6,133.5v0.6l-3.2,15.8
		c0.8,7.6,2.5,11.5,5,11.5l3.9-2.6h1.3l0.6,3.2v0.6c0,3.8-2.1,7-6.3,9.6c-5.9-1.8-8.9-6.3-8.9-13.4l-0.6-2.6
		c1.3-10.4,3.6-18,6.9-22.7L268.6,133.5L268.6,133.5z M114,146.8c2.3,0,6.1,3,11.4,8.9v1.9c-2.3,4.9-4.2,7.9-5.7,8.9h-2.5
		c-3.8-3.4-6.8-5-8.9-5c-1.7,4.6-3.9,6.9-6.5,6.9s-6.4-3-11.3-8.9c0-4.1,1.9-7.5,5.7-10.1c1.8,0,5.2,1.3,10.2,3.8L114,146.8z
		 M218,188.6c-3,0-7-3-12.1-8.9v-0.6c0-3.6,2.3-7,6.9-10.1c3.6,1,6.3,2.4,8.3,4.4h0.6c1.1,0,4.1-2.1,8.9-6.3c3,0,6.6,3.4,10.8,10.2
		c-0.6,2.4-2.7,5.6-6.3,9.5h-0.7c-1.7,0-4.7-1.7-8.9-5h-1.2C221.3,185.8,219.1,188.1,218,188.6z M296.5,179.7h0.7l1.9,2
		c0.8,2.6-4.7,6.6-16.5,12s-23.2,10.2-34.3,14.6c-1.3-0.3-2.1-1.2-2.6-2.6c0-3.9,8-9,24.1-15.2C276.9,186.5,285.8,182.9,296.5,179.7
		z M197.6,192.4c1.7,0.2,2.6,1.9,2.6,5c-2.2,2-5.3,4-9.1,6c-3.9,1.9-18.5,8-44.1,18.1h-1.3c-1.1,0-1.7-0.8-1.9-2.5
		c0-4.2,11-10.3,32.9-18.4L197.6,192.4z M219.8,221.5v2.6c1.8,3.4,3.6,5,5.4,5c1.7,0,3.9-1.3,6.6-3.8v-2.6c-1.1-5.2-3.4-7.5-6.9-6.9
		C221.5,216.3,219.8,218.2,219.8,221.5z M113.3,218.4c-6.3,4.8-9.5,9.1-9.5,12.8s1.5,5.6,4.5,5.6c4.7,1.3,9.2-0.4,13.3-5l2-3.2
		C123.5,225.2,120.1,221.9,113.3,218.4z M327,249.4h1.3v1.3c-0.9,3.2-1.3,7.8-1.3,13.9c0.7,4.7,1.4,7.5,2.2,8.5
		c0.8,1,1.9,0.5,3.5-1.4l0.7-0.7h0.6l1.3,2v0.6c0,5.1-1,7.9-3.1,8.4s-3.8,0.3-5.1-0.8c-1.2-0.1-2.3-1.9-3.5-5.2
		c-1.1-3.3-1.5-6.7-1-10C324.5,254.9,326,249.4,327,249.4z M105.1,256.4h1.9l0.6,2.6c0,4-3.9,7-11.7,9s-15.5,4.3-23.1,6.8v-0.7
		c0-5.1,4-8.9,12-11.3C92.8,260.5,99.6,258.3,105.1,256.4z M204,259l0.6,0.6h0.6l-1.9,10.8c0,5.5,0.9,8.2,2.6,8.2h0.6
		c1.7-0.9,2.6-1.9,2.6-3.2h1.3l1.2,1.3c0,5.3-1.9,9.4-5.6,12.1h-2c-2.2,0-4.4-3-6.4-8.9v-3.8C199.8,264.7,202,259,204,259z
		 M274.9,271c2.3,0,5.9,3.6,10.8,10.8c-1.5,4.6-3.3,7.8-5.6,9.5h-0.7c-7.6-3.6-11.4-7.2-11.4-10.8
		C268.6,277.1,270.9,273.9,274.9,271z"/>
</g>
</svg>
