<?xml version="1.0" encoding="utf-8"?>
<!-- Generator: Adobe Illustrator 25.2.3, SVG Export Plug-In . SVG Version: 6.00 Build 0)  -->
<svg version="1.1" xmlns="http://www.w3.org/2000/svg" xmlns:xlink="http://www.w3.org/1999/xlink" x="0px" y="0px"
	 viewBox="0 0 700 395" style="enable-background:new 0 0 700 395;" xml:space="preserve">
<style type="text/css">
	.st0{fill:#000222;}
	.st1{fill:#FFFFFF;}
</style>
<g id="Layer_1">
	<rect class="st0" width="700" height="395"/>
</g>
<g id="Layer_3">
	<g>
		<path class="st1" d="M273.5,368.6l1.1,4.2c0.2,0.9,0.5,1.8,0.6,2.6h0.1c0.2-0.8,0.5-1.7,0.7-2.6l1.3-4.2h1.3l1.3,4.1
			c0.3,1,0.5,1.9,0.7,2.7h0.1c0.1-0.8,0.4-1.7,0.6-2.7l1.2-4.1h1.5l-2.7,8.2H280l-1.3-3.9c-0.3-0.9-0.5-1.7-0.7-2.7h0
			c-0.2,1-0.5,1.8-0.7,2.7l-1.3,3.9h-1.4l-2.5-8.2H273.5z"/>
		<path class="st1" d="M286.3,368.6l1.1,4.2c0.2,0.9,0.5,1.8,0.6,2.6h0.1c0.2-0.8,0.5-1.7,0.7-2.6l1.3-4.2h1.3l1.3,4.1
			c0.3,1,0.5,1.9,0.7,2.7h0.1c0.1-0.8,0.4-1.7,0.6-2.7l1.2-4.1h1.5l-2.7,8.2h-1.4l-1.3-3.9c-0.3-0.9-0.5-1.7-0.7-2.7h0
			c-0.2,1-0.5,1.8-0.7,2.7l-1.3,3.9h-1.4l-2.5-8.2H286.3z"/>
		<path class="st1" d="M299,368.6l1.1,4.2c0.2,0.9,0.5,1.8,0.6,2.6h0.1c0.2-0.8,0.5-1.7,0.7-2.6l1.3-4.2h1.3l1.3,4.1
			c0.3,1,0.5,1.9,0.7,2.7h0.1c0.1-0.8,0.4-1.7,0.6-2.7l1.2-4.1h1.5l-2.7,8.2h-1.4l-1.3-3.9c-0.3-0.9-0.5-1.7-0.7-2.7h0
			c-0.2,1-0.5,1.8-0.7,2.7l-1.3,3.9h-1.4l-2.5-8.2H299z"/>
		<path class="st1" d="M309.9,375.9c0-0.6,0.4-1.1,1-1.1c0.6,0,1,0.4,1,1.1c0,0.6-0.4,1.1-1,1.1C310.3,377,309.9,376.5,309.9,375.9z
			"/>
		<path class="st1" d="M313.5,375.3c0.4,0.3,1.2,0.6,2,0.6c1.1,0,1.6-0.5,1.6-1.2c0-0.7-0.4-1.1-1.5-1.5c-1.5-0.5-2.2-1.3-2.2-2.3
			c0-1.3,1.1-2.4,2.8-2.4c0.8,0,1.6,0.2,2,0.5l-0.4,1.1c-0.3-0.2-0.9-0.5-1.7-0.5c-0.9,0-1.4,0.5-1.4,1.1c0,0.7,0.5,1,1.6,1.4
			c1.4,0.5,2.2,1.3,2.2,2.5c0,1.4-1.1,2.5-3.1,2.5c-0.9,0-1.7-0.2-2.3-0.6L313.5,375.3z"/>
		<path class="st1" d="M327.4,374.6c0,0.9,0,1.6,0.1,2.2h-1.3l-0.1-1.3h0c-0.4,0.7-1.3,1.5-2.7,1.5c-1.3,0-2.8-0.7-2.8-3.6v-4.8h1.5
			v4.6c0,1.6,0.5,2.6,1.8,2.6c1,0,1.7-0.7,2-1.4c0.1-0.2,0.1-0.5,0.1-0.8v-5h1.5V374.6z"/>
		<path class="st1" d="M329.8,371.1c0-1,0-1.8-0.1-2.6h1.3l0.1,1.6h0.1c0.4-1.1,1.3-1.8,2.3-1.8c0.2,0,0.3,0,0.4,0.1v1.4
			c-0.2,0-0.3-0.1-0.5-0.1c-1.1,0-1.8,0.8-2,1.9c0,0.2-0.1,0.4-0.1,0.7v4.4h-1.5V371.1z"/>
		<path class="st1" d="M339.9,376.8l-0.1-1h-0.1c-0.5,0.6-1.3,1.2-2.5,1.2c-1.7,0-2.5-1.2-2.5-2.4c0-2,1.8-3.1,4.9-3.1v-0.2
			c0-0.7-0.2-1.9-1.9-1.9c-0.8,0-1.6,0.2-2.1,0.6l-0.3-1c0.7-0.4,1.7-0.7,2.7-0.7c2.5,0,3.1,1.7,3.1,3.4v3.1c0,0.7,0,1.4,0.1,2
			H339.9z M339.7,372.6c-1.6,0-3.5,0.3-3.5,1.9c0,1,0.6,1.4,1.4,1.4c1.1,0,1.8-0.7,2-1.4c0.1-0.2,0.1-0.3,0.1-0.5V372.6z"/>
		<path class="st1" d="M343.5,364.7h1.5v5.1h0c0.2-0.4,0.6-0.8,1.1-1.1c0.4-0.3,1-0.4,1.5-0.4c1.1,0,2.9,0.7,2.9,3.5v4.9H349v-4.7
			c0-1.3-0.5-2.4-1.9-2.4c-1,0-1.7,0.7-2,1.5c-0.1,0.2-0.1,0.4-0.1,0.7v5h-1.5V364.7z"/>
		<path class="st1" d="M358.6,375.5L358.6,375.5c-0.5,0.8-1.4,1.5-2.7,1.5c-1.9,0-3.5-1.7-3.5-4.2c0-3.1,2-4.4,3.7-4.4
			c1.3,0,2.1,0.6,2.5,1.4h0l0.1-1.2h1.4c0,0.7-0.1,1.4-0.1,2.3v9.3h-1.5V375.5z M358.6,371.9c0-0.2,0-0.4-0.1-0.6
			c-0.2-0.9-1-1.7-2.1-1.7c-1.5,0-2.5,1.3-2.5,3.2c0,1.6,0.8,3.1,2.4,3.1c1,0,1.8-0.6,2.1-1.6c0.1-0.2,0.1-0.5,0.1-0.7V371.9z"/>
		<path class="st1" d="M369.4,374.6c0,0.9,0,1.6,0.1,2.2h-1.3l-0.1-1.3h0c-0.4,0.7-1.3,1.5-2.7,1.5c-1.3,0-2.8-0.7-2.8-3.6v-4.8h1.5
			v4.6c0,1.6,0.5,2.6,1.8,2.6c1,0,1.7-0.7,2-1.4c0.1-0.2,0.1-0.5,0.1-0.8v-5h1.5V374.6z"/>
		<path class="st1" d="M371.9,371.1c0-1,0-1.8-0.1-2.6h1.3l0.1,1.6h0.1c0.4-1.1,1.3-1.8,2.3-1.8c0.2,0,0.3,0,0.4,0.1v1.4
			c-0.2,0-0.3-0.1-0.5-0.1c-1.1,0-1.8,0.8-2,1.9c0,0.2-0.1,0.4-0.1,0.7v4.4h-1.5V371.1z"/>
		<path class="st1" d="M381.9,376.8l-0.1-1h-0.1c-0.5,0.6-1.3,1.2-2.5,1.2c-1.7,0-2.5-1.2-2.5-2.4c0-2,1.8-3.1,4.9-3.1v-0.2
			c0-0.7-0.2-1.9-1.9-1.9c-0.8,0-1.6,0.2-2.1,0.6l-0.3-1c0.7-0.4,1.7-0.7,2.7-0.7c2.5,0,3.1,1.7,3.1,3.4v3.1c0,0.7,0,1.4,0.1,2
			H381.9z M381.7,372.6c-1.6,0-3.5,0.3-3.5,1.9c0,1,0.6,1.4,1.4,1.4c1.1,0,1.8-0.7,2-1.4c0.1-0.2,0.1-0.3,0.1-0.5V372.6z"/>
		<path class="st1" d="M385.6,370.8c0-0.9,0-1.5-0.1-2.2h1.3l0.1,1.4h0c0.4-0.8,1.4-1.5,2.7-1.5c1.1,0,2.9,0.7,2.9,3.5v4.9h-1.5
			v-4.7c0-1.3-0.5-2.4-1.9-2.4c-1,0-1.8,0.7-2,1.5c-0.1,0.2-0.1,0.4-0.1,0.7v4.9h-1.5V370.8z"/>
		<path class="st1" d="M394.6,375.9c0-0.6,0.4-1.1,1-1.1c0.6,0,1,0.4,1,1.1c0,0.6-0.4,1.1-1,1.1C395,377,394.6,376.5,394.6,375.9z"
			/>
		<path class="st1" d="M404.4,376.5c-0.4,0.2-1.3,0.5-2.4,0.5c-2.5,0-4.1-1.7-4.1-4.2c0-2.5,1.7-4.4,4.4-4.4c0.9,0,1.7,0.2,2.1,0.4
			l-0.3,1.2c-0.4-0.2-0.9-0.4-1.7-0.4c-1.9,0-2.9,1.4-2.9,3.1c0,1.9,1.2,3.1,2.9,3.1c0.8,0,1.4-0.2,1.8-0.4L404.4,376.5z"/>
		<path class="st1" d="M413.5,372.6c0,3-2.1,4.4-4.1,4.4c-2.2,0-3.9-1.6-3.9-4.2c0-2.8,1.8-4.4,4.1-4.4
			C411.9,368.4,413.5,370.1,413.5,372.6z M406.9,372.7c0,1.8,1,3.2,2.5,3.2c1.4,0,2.5-1.3,2.5-3.2c0-1.4-0.7-3.2-2.5-3.2
			S406.9,371.1,406.9,372.7z"/>
		<path class="st1" d="M415.4,370.8c0-0.9,0-1.5-0.1-2.2h1.3l0.1,1.3h0.1c0.5-0.8,1.2-1.5,2.6-1.5c1.1,0,2,0.7,2.3,1.6h0
			c0.3-0.5,0.6-0.8,0.9-1.1c0.5-0.4,1-0.6,1.8-0.6c1.1,0,2.7,0.7,2.7,3.6v4.8h-1.5v-4.7c0-1.6-0.6-2.5-1.8-2.5
			c-0.9,0-1.5,0.6-1.8,1.4c-0.1,0.2-0.1,0.5-0.1,0.7v5.1h-1.5v-4.9c0-1.3-0.6-2.3-1.7-2.3c-0.9,0-1.6,0.7-1.9,1.5
			c-0.1,0.2-0.1,0.5-0.1,0.7v5h-1.5V370.8z"/>
	</g>
</g>
<g id="Layer_4">
	<path class="st1" d="M242,85.7h0.8c8.5,19.1,13.2,30.9,14.3,35.4l-0.7,3H254l-4.5-4.5H248c6,56.1,9,90.4,9,103.1l-3,21.1v2.3h1.5
		c17.5-18.1,32.8-27.1,46-27.1c14.4,1.5,23.4,7.6,27.1,18.1c0,16.4-11.5,28.2-34.6,35.3c-6,4-19.1,8-39.1,12
		c-4.5,1.5-10.1,2.3-16.6,2.3h-6c-33.3,0-54.6-11.8-64-35.4l-2.2-1.5h-2.3c-13.4,0-25.7,14.8-36.8,44.5c-4.5,8.5-9.6,12.7-15.1,12.7
		c-12.1,0-21.1-13.5-27.1-40.6l-0.8-4.5l2.3-21.8c-2.5-1.4-4.8-7.7-6.8-18.9l0.8-0.7v-3l-0.8-0.8c2-14.5,5.3-28.8,9.8-42.9h1.5v1.5
		h0.7c-4.5,19.5-6.7,32.7-6.7,39.4c0,6.7,2.2,11.9,6.7,15.5h1.5c1.2,0,2.7-2.7,4.5-8.2H99l0.8,2.2c0,9-3.5,16.1-10.5,21.1l-1.5,7.5
		c0,17.4,5.8,29.9,17.3,37.6l6.8,0.8c7.8,0,14.5-9,20.3-27.1c11.6-20.1,23.4-30.1,35.4-30.1c2.7,0,8.3,7.3,16.6,21.8
		c11.5,10,26.6,15.1,45.2,15.1h3c10.5-5.7,15.8-17.5,15.8-35.3v-3c0-22.3-3.7-66.2-11.2-131.8l-0.8-0.7v-0.8
		C238.1,90.2,240.1,85.7,242,85.7z M297.7,91.7v0.8l-2.2,10.5v5.2c0,3,1.5,5.5,4.5,7.5h1.5c1,0,1.5-0.7,1.5-2.2l0.7-0.8h0.8
		c1,0,1.5,0.8,1.5,2.3c-2,7.5-4.3,11.2-6.8,11.2c-5-3.3-7.5-8-7.5-14.3h-0.7C292.7,102.4,294.9,95.6,297.7,91.7z M363.2,92.5h0.7
		c4,0.5,6,3,6,7.5l-1.5,14.3c5,3.9,7.5,7.5,7.5,10.5c-0.7,2.5-1.4,3.8-2.2,3.8h-1.5c-3.8-4-6.6-6-8.3-6c-1,0-6.5,5-16.6,15.1
		c-10.1,5.4-18.6,9.2-25.6,11.2H321v-1.5c0.4-1.3,3.9-3.3,10.5-6c4-3.7,10-7.7,18.1-12l9-9.7c0-1.8-1.5-4.8-4.5-9v-4.5
		C354.2,101.9,357.2,97.4,363.2,92.5z M208.2,95.5h0.7c5,1.1,7.5,4.1,7.5,9v3l-2.2,2.2h-0.8c-3.1-3-5.4-4.5-6.7-4.5l-1.5,2.3v15.1
		c0,7.1-1.3,14.6-3.8,22.6h-0.7c-6.6-11.4-11.6-18.2-15.1-20.4l-4.5,0.8c-3.5-3.8-5.3-6.8-5.3-9c0-4.3,1.3-6.6,3.8-6.8
		c5.7,0,11.9,6.3,18.8,18.9h2.3l0.7-3.8v-10.5C201.3,105.3,203.6,99,208.2,95.5z M534,97.7c4.5,2.3,6.8,5.1,6.8,8.3
		c-0.7,4-1.7,6-3,6c-3.5-3.5-6.3-5.3-8.3-5.3c-3.5,0-5.2,10-5.2,30.1c-0.9,0-1.7,3-2.3,9l-2.2,2.3c-8-15.6-14.6-23.4-19.6-23.4
		c-5-3.1-7.5-6.6-7.5-10.2c0-3.7,1.7-5.5,5.2-5.5c5.6,1.7,12.8,9.3,21.9,22.6l0.7-2.3c0.9-20.1,4.4-30.1,10.5-30.1l0.8-0.7L534,97.7
		z M467.1,99.3l0.7,0.8h0.8c0,4.5-3,7.7-9,9.7L397,144.4h-1.5l-1.5-1.5c0-4.1,5-8.3,15.1-12.7C428.7,118.2,448,107.9,467.1,99.3z
		 M122.3,100.1l0.7,0.7c-4.5,12.6-6.7,21.4-6.7,26.4v3c0,5.8,1.7,10.3,5.2,13.5h3.8c2-0.8,3-2.6,3-5.3h0.7l0.8,0.8h0.7
		c-2.5,10-5,15.1-7.5,15.1h-0.7c-7.6,0-11.3-7-11.3-21.1C112.3,121.4,116.1,110.4,122.3,100.1z M358.7,103.8c0,4,2,6,6,6l0.7-3.7
		v-1.5l-1.5-3h-3L358.7,103.8z M590.5,101.6c4.5,1.3,6.7,4.8,6.7,10.5v12c0,1.7,1.5,4,4.5,6.7l0.8,4.5l-0.8,2.3H601
		c-1.9,0-4.1-1-6.8-3H592c-22.1,19.1-40,30.2-53.5,33.1l-8.2,2.2v-0.7c4.6-3.8,14.4-9.6,29.3-17.4c17.3-10.4,26.3-17.5,27.1-21.1
		c-5-6.5-7.5-10.5-7.5-12C579.2,111.3,582.9,105.6,590.5,101.6z M584.5,113.6c0,3.8,2.7,6.3,8.2,7.5l0.8-0.8v-1.5
		c-0.5-5.5-2.3-8.2-5.3-8.2C585.9,111.5,584.7,112.5,584.5,113.6z M293.1,140.7h0.8v0.7c-2,7.4-3,12.9-3,16.6v5.3c0,4.3,2,7.6,6,9.7
		l5.2-5.2h0.8v0.7c-1.1,9-3.8,13.5-8.3,13.5c-5.5-2.3-8.2-7.9-8.2-16.6V164C286.4,158.8,288.7,151.1,293.1,140.7z M474.6,148.9v0.8
		c-1.1,3-2.1,4.5-3,4.5v-1.5C472.5,150.5,473.5,149.2,474.6,148.9z M372.9,149.7c3.1,0,7.1,3.2,12,9.7v0.8c0,3.9-2,7.7-6,11.2
		c-1.8-0.3-5.6-3-11.2-8.2h-0.8l-6,9h-1.5v0.7c-4.5-1.5-8.7-5-12.7-10.5c1.9-5.3,4.2-8.8,6.7-10.5h0.8c2.1,0,5.4,2,9.7,6
		c2.5,0,5.3-2.7,8.3-8.2H372.9z M470.8,155l0.8,0.8h0.7l-0.7,7.5v2.2c0,3,2,5.8,6,8.3l5.2-6l0.8,0.7v0.8c-1.9,9-4.7,13.5-8.3,13.5
		c-5.5-2.8-8.2-7.3-8.2-13.5L470.8,155z M590.5,158.8h1.5v1.5c-3,4-4.5,8.5-4.5,13.5c0.7,5.5,2,8.2,3.7,8.2h2.3c1.5,0,2.2-1,2.2-3
		h2.3c0,4.2-2.5,8.2-7.5,12c-4.5-1.9-6.8-5.5-6.8-10.8S585.9,167.7,590.5,158.8z M144.1,164c5,2.7,7.5,6.8,7.5,12
		c-1,2.3-2,3.5-3,3.8l-6.7-6c-2.5,0-3.8,7.3-3.8,21.8l-3.7,15.1h-0.8c-8.1-15-14.1-23-18.1-24.1l-4.5,0.8c-3-1.4-4.5-4.4-4.5-9
		c1.3-3.2,2.6-5,3.8-5.3c6.4,0,13.4,7,21.1,21.1l2.2,2.3h0.8C134.4,174.8,137.6,164,144.1,164z M418.9,167
		c10.6,9.8,16.2,15.9,16.6,18.1v1.5h-3.8c-1.3,0-2,1-2.2,3c7.5,12.8,11.2,22.1,11.2,27.9v1.5c0,16.9-6.8,28.4-20.3,34.6
		c-3,2.6-4.5,7.4-4.5,14.3v3.8c0,11.2,7.5,18.4,22.6,21.8c21.9,0,45.5-14,70.7-42.1v-3l-2.3-2.2h-0.7c-4.8,1.5-12.3,2.2-22.6,2.2
		c-9.6-1.4-14.4-6.2-14.4-14.3v-1.5c0-12,6-20,18.1-24.1h3.8c4.9,0,12.1,6.3,21.8,18.8h1.5c2.1,0,10.9-5,26.4-15.1h0.7l2.3,2.3v9
		c3.3,8,8.4,12,15.1,12h2.2c11.8,0,21.6-8.3,29.4-24.9h1.5c1,0,1.5,0.8,1.5,2.3l-3,7.5v2.2c3.9,6,9.9,9,18.1,9c3,0,4.5-1,4.5-3
		c-1.2-4.5-2.5-7.2-3.8-8.2c1.9-8,3.6-12,5.3-12h0.7c3.5,6.4,5.3,13.4,5.3,21.1c-2.9,11.5-7.7,17.3-14.4,17.3l-2.2,0.8
		c-5.6,0-12.3-4-20.4-12c-8.6,10-17.9,15.1-27.8,15.1c-8.3,0-14.6-6-18.9-18.1c0-2-0.5-3-1.5-3h-0.7c-12,8.2-18.1,13.2-18.1,15.1
		c0,16.5-14.6,34.1-43.7,52.7c-10.5,7.5-21,11.5-31.6,12h-2.3c-12.8,0-22.1-8-27.8-24.1l-0.8-9l0.8-14.4h-1.5
		c-33.9,21.6-59.4,32.4-76.8,32.4l-28.6,5.2H303v-0.7c2.6-2.7,15.4-7.8,38.3-15.1c30.5-13.8,58.9-30.1,85.1-49l7.5-8.2v-3
		l-13.5-30.1l-4.5-15.1C415.9,173.6,416.9,169.8,418.9,167z M211.9,172.3l0.8,0.7v0.8l-4.5,21.8l0.7,0.8l-0.7,2.2
		c0,8.3,2.5,14.1,7.5,17.4c2.4,0,4.6-3.3,6.7-9.8h1.5c-1.2,14-4.5,21.1-9.9,21.1c-5.4,0-9.1-6.3-11.1-18.8
		C206.2,184.4,209.3,172.3,211.9,172.3z M386.5,177.5h1.5c0,6.7-4.8,16-14.3,27.9c0,2.1,3,5.6,9,10.5c3.5,4.6,5.2,8.1,5.2,10.5v0.7
		c0,14.9-7.5,25-22.6,30.1l-6,1.5h-0.7c-7.6,0-11.3-4.5-11.3-13.6c0-9.1,3-19.3,9-30.8c-13.5-13-20.3-20.8-20.3-23.4v-0.7
		c0.5-6.6,1.5-9.8,3-9.8h1.5c11,5.2,17.1,8.7,18.1,10.5v1.5l-3,0.8v1.5c2.5,3.3,5,5.6,7.5,6.7h2.2L386.5,177.5z M353.4,237v0.7
		c0,4,2,6,6,6c6.7,0,13.7-3.5,21.1-10.5v-1.5c-6.8-7.5-12.6-11.2-17.3-11.2C356.6,226.6,353.4,232.1,353.4,237z M479.1,228.7v0.8
		c0,2,3,3,9,3h5.2l3.8-0.8v-1.5c-2.5-3.5-5.3-5.2-8.3-5.2h-3.7C482.4,225,480.4,226.2,479.1,228.7z M244.3,270.9h0.7
		c16.3-0.7,37.8-7,64.7-18.8c5-2.2,7.5-4.7,7.5-7.5c-7-7-13.8-10.5-20.3-10.5c-15.9,0-33.2,11.5-52,34.6L244.3,270.9z M600.2,264.8
		v3c0,6.7-3.7,12-11.2,15.9l-6.8-2.3h-0.7c-4.2,3-7.4,4.5-9.7,4.5c-2.2,0-5-1.2-8.4-3.7h-3.8c-2.3,0-12.3,5.3-30.1,15.8
		c-3.7,2-7.9,3-12.7,3v-1.5c2.7,0,15.3-7.3,37.6-21.8c1.9-1.7,5.2-3,9.7-3.8c5.4,2.5,9.1,3.8,11.2,3.8s5.7-2.5,10.6-7.5
		c2.2,3,4.4,4.5,6.7,4.5h0.8c1.5,0,3.2-3.3,5.2-9.8H600.2z M164.5,278.4h1.5c2.5,1.5,3.7,3.3,3.7,5.3c0,7.5-4.5,14.8-13.5,21.8h-1.5
		v-0.7l10.5-13.5v-2.3l-1.5-1.5h-1.5l-3.7,2.3l-0.8-0.8v-0.7C158.4,284.6,160.7,281.3,164.5,278.4z"/>
</g>
</svg>
