<?xml version="1.0" encoding="utf-8"?>
<!-- Generator: Adobe Illustrator 25.2.3, SVG Export Plug-In . SVG Version: 6.00 Build 0)  -->
<svg version="1.1" xmlns="http://www.w3.org/2000/svg" xmlns:xlink="http://www.w3.org/1999/xlink" x="0px" y="0px"
	 viewBox="0 0 700 395" style="enable-background:new 0 0 700 395;" xml:space="preserve">
<style type="text/css">
	.st0{fill:#000222;}
	.st1{fill:#FFFFFF;}
</style>
<g id="Layer_1">
	<rect class="st0" width="700" height="395"/>
</g>
<g id="Layer_3">
	<g>
		<path class="st1" d="M273.5,368.6l1.1,4.2c0.2,0.9,0.5,1.8,0.6,2.6h0.1c0.2-0.8,0.5-1.7,0.7-2.6l1.3-4.2h1.3l1.3,4.1
			c0.3,1,0.5,1.9,0.7,2.7h0.1c0.1-0.8,0.4-1.7,0.6-2.7l1.2-4.1h1.5l-2.7,8.2H280l-1.3-3.9c-0.3-0.9-0.5-1.7-0.7-2.7h0
			c-0.2,1-0.5,1.8-0.7,2.7l-1.3,3.9h-1.4l-2.5-8.2H273.5z"/>
		<path class="st1" d="M286.3,368.6l1.1,4.2c0.2,0.9,0.5,1.8,0.6,2.6h0.1c0.2-0.8,0.5-1.7,0.7-2.6l1.3-4.2h1.3l1.3,4.1
			c0.3,1,0.5,1.9,0.7,2.7h0.1c0.1-0.8,0.4-1.7,0.6-2.7l1.2-4.1h1.5l-2.7,8.2h-1.4l-1.3-3.9c-0.3-0.9-0.5-1.7-0.7-2.7h0
			c-0.2,1-0.5,1.8-0.7,2.7l-1.3,3.9h-1.4l-2.5-8.2H286.3z"/>
		<path class="st1" d="M299,368.6l1.1,4.2c0.2,0.9,0.5,1.8,0.6,2.6h0.1c0.2-0.8,0.5-1.7,0.7-2.6l1.3-4.2h1.3l1.3,4.1
			c0.3,1,0.5,1.9,0.7,2.7h0.1c0.1-0.8,0.4-1.7,0.6-2.7l1.2-4.1h1.5l-2.7,8.2h-1.4l-1.3-3.9c-0.3-0.9-0.5-1.7-0.7-2.7h0
			c-0.2,1-0.5,1.8-0.7,2.7l-1.3,3.9h-1.4l-2.5-8.2H299z"/>
		<path class="st1" d="M309.9,375.9c0-0.6,0.4-1.1,1-1.1c0.6,0,1,0.4,1,1.1c0,0.6-0.4,1.1-1,1.1C310.3,377,309.9,376.5,309.9,375.9z
			"/>
		<path class="st1" d="M313.5,375.3c0.4,0.3,1.2,0.6,2,0.6c1.1,0,1.6-0.5,1.6-1.2c0-0.7-0.4-1.1-1.5-1.5c-1.5-0.5-2.2-1.3-2.2-2.3
			c0-1.3,1.1-2.4,2.8-2.4c0.8,0,1.6,0.2,2,0.5l-0.4,1.1c-0.3-0.2-0.9-0.5-1.7-0.5c-0.9,0-1.4,0.5-1.4,1.1c0,0.7,0.5,1,1.6,1.4
			c1.4,0.5,2.2,1.3,2.2,2.5c0,1.4-1.1,2.5-3.1,2.5c-0.9,0-1.7-0.2-2.3-0.6L313.5,375.3z"/>
		<path class="st1" d="M327.4,374.6c0,0.9,0,1.6,0.1,2.2h-1.3l-0.1-1.3h0c-0.4,0.7-1.3,1.5-2.7,1.5c-1.3,0-2.8-0.7-2.8-3.6v-4.8h1.5
			v4.6c0,1.6,0.5,2.6,1.8,2.6c1,0,1.7-0.7,2-1.4c0.1-0.2,0.1-0.5,0.1-0.8v-5h1.5V374.6z"/>
		<path class="st1" d="M329.8,371.1c0-1,0-1.8-0.1-2.6h1.3l0.1,1.6h0.1c0.4-1.1,1.3-1.8,2.3-1.8c0.2,0,0.3,0,0.4,0.1v1.4
			c-0.2,0-0.3-0.1-0.5-0.1c-1.1,0-1.8,0.8-2,1.9c0,0.2-0.1,0.4-0.1,0.7v4.4h-1.5V371.1z"/>
		<path class="st1" d="M339.9,376.8l-0.1-1h-0.1c-0.5,0.6-1.3,1.2-2.5,1.2c-1.7,0-2.5-1.2-2.5-2.4c0-2,1.8-3.1,4.9-3.1v-0.2
			c0-0.7-0.2-1.9-1.9-1.9c-0.8,0-1.6,0.2-2.1,0.6l-0.3-1c0.7-0.4,1.7-0.7,2.7-0.7c2.5,0,3.1,1.7,3.1,3.4v3.1c0,0.7,0,1.4,0.1,2
			H339.9z M339.7,372.6c-1.6,0-3.5,0.3-3.5,1.9c0,1,0.6,1.4,1.4,1.4c1.1,0,1.8-0.7,2-1.4c0.1-0.2,0.1-0.3,0.1-0.5V372.6z"/>
		<path class="st1" d="M343.5,364.7h1.5v5.1h0c0.2-0.4,0.6-0.8,1.1-1.1c0.4-0.3,1-0.4,1.5-0.4c1.1,0,2.9,0.7,2.9,3.5v4.9H349v-4.7
			c0-1.3-0.5-2.4-1.9-2.4c-1,0-1.7,0.7-2,1.5c-0.1,0.2-0.1,0.4-0.1,0.7v5h-1.5V364.7z"/>
		<path class="st1" d="M358.6,375.5L358.6,375.5c-0.5,0.8-1.4,1.5-2.7,1.5c-1.9,0-3.5-1.7-3.5-4.2c0-3.1,2-4.4,3.7-4.4
			c1.3,0,2.1,0.6,2.5,1.4h0l0.1-1.2h1.4c0,0.7-0.1,1.4-0.1,2.3v9.3h-1.5V375.5z M358.6,371.9c0-0.2,0-0.4-0.1-0.6
			c-0.2-0.9-1-1.7-2.1-1.7c-1.5,0-2.5,1.3-2.5,3.2c0,1.6,0.8,3.1,2.4,3.1c1,0,1.8-0.6,2.1-1.6c0.1-0.2,0.1-0.5,0.1-0.7V371.9z"/>
		<path class="st1" d="M369.4,374.6c0,0.9,0,1.6,0.1,2.2h-1.3l-0.1-1.3h0c-0.4,0.7-1.3,1.5-2.7,1.5c-1.3,0-2.8-0.7-2.8-3.6v-4.8h1.5
			v4.6c0,1.6,0.5,2.6,1.8,2.6c1,0,1.7-0.7,2-1.4c0.1-0.2,0.1-0.5,0.1-0.8v-5h1.5V374.6z"/>
		<path class="st1" d="M371.9,371.1c0-1,0-1.8-0.1-2.6h1.3l0.1,1.6h0.1c0.4-1.1,1.3-1.8,2.3-1.8c0.2,0,0.3,0,0.4,0.1v1.4
			c-0.2,0-0.3-0.1-0.5-0.1c-1.1,0-1.8,0.8-2,1.9c0,0.2-0.1,0.4-0.1,0.7v4.4h-1.5V371.1z"/>
		<path class="st1" d="M381.9,376.8l-0.1-1h-0.1c-0.5,0.6-1.3,1.2-2.5,1.2c-1.7,0-2.5-1.2-2.5-2.4c0-2,1.8-3.1,4.9-3.1v-0.2
			c0-0.7-0.2-1.9-1.9-1.9c-0.8,0-1.6,0.2-2.1,0.6l-0.3-1c0.7-0.4,1.7-0.7,2.7-0.7c2.5,0,3.1,1.7,3.1,3.4v3.1c0,0.7,0,1.4,0.1,2
			H381.9z M381.7,372.6c-1.6,0-3.5,0.3-3.5,1.9c0,1,0.6,1.4,1.4,1.4c1.1,0,1.8-0.7,2-1.4c0.1-0.2,0.1-0.3,0.1-0.5V372.6z"/>
		<path class="st1" d="M385.6,370.8c0-0.9,0-1.5-0.1-2.2h1.3l0.1,1.4h0c0.4-0.8,1.4-1.5,2.7-1.5c1.1,0,2.9,0.7,2.9,3.5v4.9h-1.5
			v-4.7c0-1.3-0.5-2.4-1.9-2.4c-1,0-1.8,0.7-2,1.5c-0.1,0.2-0.1,0.4-0.1,0.7v4.9h-1.5V370.8z"/>
		<path class="st1" d="M394.6,375.9c0-0.6,0.4-1.1,1-1.1c0.6,0,1,0.4,1,1.1c0,0.6-0.4,1.1-1,1.1C395,377,394.6,376.5,394.6,375.9z"
			/>
		<path class="st1" d="M404.4,376.5c-0.4,0.2-1.3,0.5-2.4,0.5c-2.5,0-4.1-1.7-4.1-4.2c0-2.5,1.7-4.4,4.4-4.4c0.9,0,1.7,0.2,2.1,0.4
			l-0.3,1.2c-0.4-0.2-0.9-0.4-1.7-0.4c-1.9,0-2.9,1.4-2.9,3.1c0,1.9,1.2,3.1,2.9,3.1c0.8,0,1.4-0.2,1.8-0.4L404.4,376.5z"/>
		<path class="st1" d="M413.5,372.6c0,3-2.1,4.4-4.1,4.4c-2.2,0-3.9-1.6-3.9-4.2c0-2.8,1.8-4.4,4.1-4.4
			C411.9,368.4,413.5,370.1,413.5,372.6z M406.9,372.7c0,1.8,1,3.2,2.5,3.2c1.4,0,2.5-1.3,2.5-3.2c0-1.4-0.7-3.2-2.5-3.2
			S406.9,371.1,406.9,372.7z"/>
		<path class="st1" d="M415.4,370.8c0-0.9,0-1.5-0.1-2.2h1.3l0.1,1.3h0.1c0.5-0.8,1.2-1.5,2.6-1.5c1.1,0,2,0.7,2.3,1.6h0
			c0.3-0.5,0.6-0.8,0.9-1.1c0.5-0.4,1-0.6,1.8-0.6c1.1,0,2.7,0.7,2.7,3.6v4.8h-1.5v-4.7c0-1.6-0.6-2.5-1.8-2.5
			c-0.9,0-1.5,0.6-1.8,1.4c-0.1,0.2-0.1,0.5-0.1,0.7v5.1h-1.5v-4.9c0-1.3-0.6-2.3-1.7-2.3c-0.9,0-1.6,0.7-1.9,1.5
			c-0.1,0.2-0.1,0.5-0.1,0.7v5h-1.5V370.8z"/>
	</g>
</g>
<g id="Layer_4">
	<path class="st1" d="M288.4,90.8h2c0,5.3-3.7,8.2-11,8.9l-42,14.5l-0.7-0.7v-0.6c0-3.7,12.6-9.5,37.9-17.3L288.4,90.8z
		 M197.5,103.8h0.6v0.7c-1.8,3.5-2.8,6.9-2.8,10.3c0.6,6,2,9,4.1,9l4.1-3.5l0.7,0.7c-1.4,6.2-3.2,10.1-5.5,11.7
		c-3.4,0-5.9-3.7-7.6-11C193.7,109.8,195.8,103.8,197.5,103.8z M426.1,112.1h3.4c1.5,0,2.6,2.3,3.5,6.9l-1.4,11l6.9,7.6v3.4
		l-1.4,1.4h-1.4c-4.2-2.8-7-4.1-8.3-4.1c-13.2,13.1-24.9,21.1-35.2,24.1l-0.6-0.7v-1.4c16.1-10,26.7-18.2,31.7-24.8v-1.4
		c-3.2-3.9-4.9-6.9-4.9-8.9C420.3,118,422.9,113.7,426.1,112.1z M579,112.1c2.9,0,4.7,2.3,5.5,6.9v1.4l-0.7,3.5h-2
		c-2.4-2.3-4.5-3.5-6.2-3.5h-0.6c-2.3,1-3.5,3.3-3.5,6.9v1.4c-0.4,17.3-1.8,26.4-4.1,27.5h-1.4c-5.3-13.8-11.3-20.7-17.9-20.7
		c-3.7-2.9-5.5-5.4-5.5-7.5c0-2.1,1.2-4,3.5-5.6c4.5,0,10.4,5.5,17.9,16.5l2.8,2.8h0.6c0-16,3.2-25.9,9.6-29.7H579z M144.4,112.8
		h1.4c2.8,1.6,4.1,3.6,4.1,6.2v3.5l-0.6,3.4h-1.4l-4.9-4.8h-2c-1.8,0-3.2,9.9-4.1,29.6c-1.4,5.1-2.6,7.6-3.5,7.6H132
		c0-4.5-4.3-10.7-13-18.6h-1.4l-0.7,0.7c-5.5-1.3-8.3-3.6-8.3-6.9V130c0-2.4,0.9-4,2.8-4.8h0.7c3.5,0,10.4,6,20.7,17.9h0.6
		C134.4,122.9,138,112.8,144.4,112.8z M269.1,114.8h1.4l3.4,3.5v1.4c0,2.5-1.1,4.3-3.4,5.5l-4.1-3.5H265c-2.5,0-4.1,0.9-4.9,2.8v0.7
		c0.9,1.6,3.5,3,7.6,4.1l7.5-0.7h2.8l1.4,1.4v0.7c0,2.9-6.4,5.4-19.3,7.5l-3.4,1.4L256,139v-0.7l0.7-4.1c-2.3-2.3-3.5-4.4-3.5-6.2
		v-0.7C258.4,118.9,263.7,114.8,269.1,114.8z M517.7,114.8h2.8v1.4c0,3.8-10.6,11.1-31.7,22c-16.5,10.3-27,16.3-31.7,17.9h-0.6V152
		C456.7,150,477.1,137.6,517.7,114.8z M627.8,114.8h2.8c3.2,2.3,4.9,5.8,4.9,10.4v9.6c3.2,4.1,4.8,6.9,4.8,8.3l-0.6,2.8h-1.4
		c-3-2.3-5.3-3.5-6.9-3.5c-21.2,19.8-39.1,30.6-53.7,32.4h-0.7l35.8-22c7.7-5.6,12.3-9.5,13.8-11.8v-1.4c-4.6-4.5-6.9-7.7-6.9-9.6
		C621.8,119.9,624.5,114.8,627.8,114.8z M422.6,123.8l4.1,3.4h0.7l1.4-1.4v-4.1l-2.1-2C424,119.7,422.6,121.1,422.6,123.8z
		 M81.1,120.3h0.7c2.9,0,6.1,23.4,9.6,70.2l0.6,12.4h0.7l-0.7,0.7v0.6c1.8,26.8,4.8,42,9,45.5c8,11,18.7,16.5,32.3,16.5
		c22,0,44.3-6.9,66.8-20.7h2.8l-0.7,9.6c1.3,5.5,5.3,8.3,11.8,8.3c8.7-1.9,13-4.2,13-6.9v-3.4c0-4.8-2.5-16.5-7.5-35.2l2.8-8.3h1.4
		c3.5,5,6.9,17.2,10.3,36.5c3.4,10.5,10.5,15.8,21.4,15.8c8.9,0,15.3-2.1,19.3-6.2v-0.7l-6.2-12.4v-3.4c0-3.5,0.9-5.6,2.8-6.2
		c6.9,6.6,10.4,12.6,10.4,17.9c0,12.1-3.9,19-11.8,20.7c-5.6,2.3-11.6,3.5-18,3.5s-13-3.9-19.9-11.8h-0.7
		c-5.1,8.8-12,13.1-20.7,13.1c-5.9,0-10.5-5.3-13.8-15.9l-0.6-0.6H194c-8.4,6.2-20.4,11.4-35.8,15.8c-2.4,0.9-10.5,2.1-24.1,3.5
		c-13.8,0-25.7-4.8-35.8-14.5c-7.3-10.2-11-26-11-47.5c-2.3-34.9-5.5-64.5-9.6-88.9C79,123.1,80.1,120.3,81.1,120.3z M367.5,120.3
		c2.1,0,6.7,10.1,13.8,30.3v1.4h-2l-4.1-3.4l-0.7,0.6h-0.6l13,109.5c0,10.3-1.8,19.7-5.5,28.2h-0.6l-0.7-2l0.7-9
		c-1.4-17.3-6.9-65.3-16.5-143.9h-0.7C364.9,124.2,366.3,120.3,367.5,120.3z M333.8,121.7h1.4c3.6,4,7.7,13.2,12.4,27.5l-0.7,2.1
		h-0.6l-4.9-4.1l-0.6,0.6v0.7c7.3,52.2,11,83.6,11,94.3c0,20.3-8.5,36.4-25.5,48.2c-17.2,7.3-31.9,11-44.1,11h-1.4v-0.6l33.8-14.5
		c17-10.8,25.4-18.6,25.4-23.4v-5.5c0-9.6-15.8-29.1-47.5-58.5c-16.4-17-27-30.1-31.7-39.3c-1.4,0-2.6-2.1-3.5-6.2v-4.9l0.7-3.4h1.4
		c14.3,10.1,22.1,16.1,23.4,17.9v2h-0.7l-6.2-0.6v2c0,1.3,18.1,20.1,54.4,56.5c8.8,12.7,13.1,20.5,13.1,23.4h0.6l0.7-0.6
		c-3.7-35.6-8.3-74.1-13.8-115.7L333.8,121.7z M623.7,125.2v1.4c2.8,3.7,5.3,5.5,7.6,5.5l0.6-0.7V130c-0.7-5-1.8-7.5-3.4-7.5h-2.1
		L623.7,125.2z M52.1,123.1h0.7c-2.8,7.2-4.1,12.5-4.1,15.9v1.4c0,3.6,1.4,6.1,4.1,7.5h1.4c0.9,0,1.8-1.4,2.8-4.1h0.6l0.7,2.1
		c-1.8,7.3-4.1,11-6.9,11c-4.6-2.4-6.9-6.6-6.9-12.4C47.1,130.2,49.6,123.1,52.1,123.1z M307.7,129.3h0.6l-2,10.3v7.6
		c0,3.3,1.6,5.4,4.8,6.2c1.4-1.7,2.1-3.2,2.1-4.8h0.6l0.7,0.6h0.6c0,4.3-1.8,8.5-5.5,12.4h-2.8c-3.7-3.4-5.5-8.2-5.5-14.4
		C303.3,137.4,305.4,131.4,307.7,129.3z M229.8,130.7l0.7,0.6v2.1c0,5.3-9.4,10.8-28.3,16.5c-48.8,21-81.6,36.6-98.4,46.8h-0.7
		l-0.6-2.1c0-5.5,10.3-12.9,30.9-22C158.9,159.4,191,145.4,229.8,130.7z M527.3,156.9v0.6c-1.8,5.6-2.8,10.4-2.8,14.2
		s1.8,6.7,5.5,8.5l4.9-5.5l0.6,2c-1.4,7.3-3.9,11-7.5,11h-0.7c-4.1-2.4-6.2-6.7-6.2-12.9S523.2,162.7,527.3,156.9z M231.2,157.5h0.7
		v0.7c-1.8,5.9-2.8,10.7-2.8,14.5s1.6,6.8,4.8,8.9c1.8-0.9,2.8-2.1,2.8-3.5h1.4v0.7c0,6.9-2.1,10.5-6.2,11h-0.7
		c-2.6,0-4.6-4.4-6.2-13.1C227.4,165,229.4,158.6,231.2,157.5z M437.1,161c7.3,3.3,11,7,11,11c0,2.4-1.8,5.2-5.5,8.3h-1.4l-9.6-6.9
		c-3.4,5.5-5.5,8.3-6.2,8.3h-2.8c-4.3-2.8-7.3-5.3-8.9-7.6v-0.6c1.7-6.4,3.5-9.6,5.5-9.6l11,5.5C432.4,165.5,434.7,162.8,437.1,161z
		 M631.3,164.4v0.7l-3.5,9.6c0.5,6.9,2.1,10.3,4.9,10.3l4.1-3.4l0.6,0.6v0.7c-1.7,6.4-4.2,9.6-7.5,9.6h-0.7c-1.8,0-3.4-3.9-4.8-11.8
		C626.3,172.2,628.6,166.7,631.3,164.4z M51.5,169.9h0.6l0.7,0.7h0.6l-2.8,11c0,5.9,1.6,9.8,4.9,11.7H57l4.1-4.8v0.6
		c-1.5,8.3-3.2,12.4-4.9,12.4h-1.4c-4.1,0-6.6-3.9-7.5-11.7C47.4,186.9,48.7,180.2,51.5,169.9z M479.1,175.4
		c9.2,9.9,13.8,15.6,13.8,17.3h-4.1c-0.9,0-1.4,0.7-1.4,2c7.3,12.6,11,21.8,11,27.5c0,12.4-4.8,21.9-14.4,28.3
		c-4.6,3.7-6.9,8.3-6.9,13.8c0,10.4,4.6,17.5,13.8,21.3c1.8,0.9,4.3,1.4,7.5,1.4c17.8,0,38-12.4,60.6-37.2l0.7-2.8v-1.4l-2.1-2
		c-6.4,1.8-13.3,2.8-20.7,2.8c-7.3,0-11.7-4.6-13-13.8c0-11.1,5.7-18.4,17.2-22c6.2,0,13.1,5.3,20.7,15.8l2.1,0.7
		c1.7,0,9.3-4.6,22.7-13.8h1.4c1.4,0.3,2.1,2.1,2.1,5.5v5.5c3.7,5.9,7.9,8.9,12.4,8.9h6.2c7.2,0,15-7.3,23.4-22h0.7l1.4,1.4
		l-2.8,6.9v2.1c2.7,5,8.4,7.5,17.2,7.5l2.8-2v-0.7c0-1.7-0.9-3.7-2.8-6.2v-1.4l2.1-10.4h2.8c2.8,6.2,4.1,11.2,4.1,15.2
		c0,12.9-4.6,19.3-13.8,19.3c-6.4,0-12.1-3.2-17.3-9.6h-1.4c-6.6,8.8-14.2,13.1-22.7,13.1h-2.1c-8.1,0-13.6-5.8-16.5-17.3h-0.6
		c-11.5,5.1-17.3,10.4-17.3,15.9c0,13.3-13.3,28.9-39.9,46.8c-10.2,5.4-18.9,8.4-26.2,8.9c-16.2,0-25.1-9.4-26.8-28.2v-0.7l0.6-10.3
		l-0.6-0.7h-2.1c-29.4,19.3-49.3,28.9-59.9,28.9l-26.9,6.2l-4.1-1.4v-0.7c3.7-2.2,14.8-6.8,33.1-13.8c28.9-14,50.5-26.9,64.7-38.6
		c9.7-6.2,14.5-11,14.5-14.4v-1.4l-11-24.1l-5.5-15.8C476.1,178.9,477.3,175.4,479.1,175.4z M185.7,177.5h0.7l0.6,0.6h0.7
		c-2.8,10.5-4.1,20.1-4.1,28.9c0,5,1.8,8.6,5.5,11c0.9,0,2.8-2.1,5.5-6.2h1.4v2c0,8-3.2,12.8-9.6,14.5c-5.1-4.1-7.6-8.9-7.6-14.5
		v-3.4C178.8,201.2,181.1,190.1,185.7,177.5z M450.2,185.1h0.7v0.7c0,6.7-4.1,15.2-12.4,25.4v1.4c9.2,6.7,13.8,12.9,13.8,18.6
		c0,12.1-5.5,20.1-16.5,24.1l-10.4,4.1c-5.1,0-8.6-3.9-10.3-11.7c0-6.5,2.5-15.7,7.5-27.5c-11-11.1-16.5-17.4-16.5-18.6l-0.6-3.4
		v-4.1c0.2-2.8,0.9-4.1,2-4.1c7.4,2.6,13.2,5.3,17.3,8.3v1.4c-2.3,0.3-3.5,1-3.5,2c3.5,4.6,6.5,6.9,9,6.9h0.6L450.2,185.1z
		 M257.4,203c7.3,3,11,6,11,9l-5.5,8.9c-4-1.3-7.7-3.8-11-7.5C253.6,206.4,255.4,203,257.4,203z M147.9,205.7c2.8,0,4.8,3.2,6.2,9.6
		l-1.4,4.1H152l-5.5-4.8h-2.1c-1.3,0-2,3-2,8.9l0.6,0.7l-0.6,0.6v2.1c0,7.8-0.9,14.7-2.8,20.7c-6.9-11.9-13.3-17.9-19.3-17.9
		l-2.8-5.5c0.7-4.2,1.7-6.2,2.8-6.2h0.6c3,0,8.8,4.8,17.3,14.5h0.6V225C139.8,212.1,142.8,205.7,147.9,205.7z M63.2,218.1
		c2,0,4.6,2.3,7.6,6.9c-1.3,3.9-2.7,6.4-4.1,7.6l-6.2-4.9H59c-3.7,0-6.6,1.6-8.9,4.9c3.8,5.5,9.8,8.3,17.9,8.3l12.4-2.1h2.8v2.1
		c0,4.8-5.1,7.8-15.2,8.9l-20,9.6h-0.6v-0.6c0-3.5,1.6-6.2,4.8-8.3l0.7-2.1c-6.3-3.2-9.8-6.5-10.4-9.6c1.2-5.6,5.5-11.3,13.1-17.2
		L63.2,218.1z M420.6,240.2c0,2.5,0.9,4.1,2.8,4.9h5.5c11-3.2,16.5-6.9,16.5-11c-2.2-3.8-7.5-7-15.9-9.6
		C423.6,230.1,420.6,235.3,420.6,240.2z M532.8,228.5v1.4c0,1.8,2.8,2.8,8.3,2.8h3.5c2.3,0,3.7-0.7,4.1-2.1c0-2.6-2.5-4.2-7.6-4.8
		h-5.5L532.8,228.5z M308.3,234v0.6l-1.4,9v4.1l2.1,6.9h2l3.5-2.8h0.6c0,5-2.1,9.2-6.2,12.4c-3.1,0-5.4-4.1-6.9-12.4
		C304.5,240,306.5,234,308.3,234z M343.5,249.1v2l1.4,1.4v-3.4H343.5z M640.2,258.8l0.7,2c0,7.6-3.5,12.4-10.4,14.5l-4.8-1.4
		l-10.4,4.1c-4.9-2.3-8.4-3.5-10.4-3.5s-10.5,4.8-25.4,14.5c-5.8,2.3-9.6,3.4-11.7,3.4v-2c1.8,0,12.5-6.7,32.3-20
		c3-1.8,6.5-2.8,10.4-2.8c2.4,1.8,4.9,2.8,7.5,2.8h0.7c2.8,0,6-2.5,9.6-7.5h0.6c0,1.8,1.2,3.4,3.5,4.8h2c1.2,0,2.6-2.8,4.1-8.3
		l0.7-0.6H640.2z M87.9,260.2h1.4v1.4c-0.3,5-2.6,7.5-6.9,7.5l-33.7,14.5h-2.1v-1.4c0-4,6.2-8.1,18.6-12.4
		C74.6,265,82.1,261.8,87.9,260.2z M96.9,278.7h2c1.8,0.8,2.8,2.4,2.8,4.9v2c0,5.8-4.3,12-13,18.6h-2.1l10.4-12.4v-3.5l-1.4-1.4
		l-4.1,2.8h-0.7v-0.6C90.7,285.2,92.8,281.7,96.9,278.7z M180.2,282.8c4,1.8,7.7,5,11,9.6c-2.6,6-5.1,9-7.5,9l-8.3-6.2
		c-2.3,0-4.6,2.1-6.9,6.2h-2.8c-3.7-2-6.9-4.8-9.6-8.3c1-4,3.1-7,6.2-9h0.7l9.6,4.9h0.6L180.2,282.8z M234.7,282.8
		c3.2,0,6.6,3.2,10.3,9.6c-2.4,5.5-4.5,8.3-6.2,8.3c-6.4-3.7-9.6-7.1-9.6-10.3L234.7,282.8z"/>
</g>
</svg>
