<?xml version="1.0" encoding="utf-8"?>
<!-- Generator: Adobe Illustrator 25.2.3, SVG Export Plug-In . SVG Version: 6.00 Build 0)  -->
<svg version="1.1" xmlns="http://www.w3.org/2000/svg" xmlns:xlink="http://www.w3.org/1999/xlink" x="0px" y="0px"
	 viewBox="0 0 700 395" style="enable-background:new 0 0 700 395;" xml:space="preserve">
<style type="text/css">
	.st0{fill:#000222;}
	.st1{fill:#FFFFFF;}
</style>
<g id="Layer_1">
	<rect class="st0" width="700" height="395"/>
</g>
<g id="Layer_3">
	<g>
		<path class="st1" d="M273.5,368.6l1.1,4.2c0.2,0.9,0.5,1.8,0.6,2.6h0.1c0.2-0.8,0.5-1.7,0.7-2.6l1.3-4.2h1.3l1.3,4.1
			c0.3,1,0.5,1.9,0.7,2.7h0.1c0.1-0.8,0.4-1.7,0.6-2.7l1.2-4.1h1.5l-2.7,8.2H280l-1.3-3.9c-0.3-0.9-0.5-1.7-0.7-2.7h0
			c-0.2,1-0.5,1.8-0.7,2.7l-1.3,3.9h-1.4l-2.5-8.2H273.5z"/>
		<path class="st1" d="M286.3,368.6l1.1,4.2c0.2,0.9,0.5,1.8,0.6,2.6h0.1c0.2-0.8,0.5-1.7,0.7-2.6l1.3-4.2h1.3l1.3,4.1
			c0.3,1,0.5,1.9,0.7,2.7h0.1c0.1-0.8,0.4-1.7,0.6-2.7l1.2-4.1h1.5l-2.7,8.2h-1.4l-1.3-3.9c-0.3-0.9-0.5-1.7-0.7-2.7h0
			c-0.2,1-0.5,1.8-0.7,2.7l-1.3,3.9h-1.4l-2.5-8.2H286.3z"/>
		<path class="st1" d="M299,368.6l1.1,4.2c0.2,0.9,0.5,1.8,0.6,2.6h0.1c0.2-0.8,0.5-1.7,0.7-2.6l1.3-4.2h1.3l1.3,4.1
			c0.3,1,0.5,1.9,0.7,2.7h0.1c0.1-0.8,0.4-1.7,0.6-2.7l1.2-4.1h1.5l-2.7,8.2h-1.4l-1.3-3.9c-0.3-0.9-0.5-1.7-0.7-2.7h0
			c-0.2,1-0.5,1.8-0.7,2.7l-1.3,3.9h-1.4l-2.5-8.2H299z"/>
		<path class="st1" d="M309.9,375.9c0-0.6,0.4-1.1,1-1.1c0.6,0,1,0.4,1,1.1c0,0.6-0.4,1.1-1,1.1C310.3,377,309.9,376.5,309.9,375.9z
			"/>
		<path class="st1" d="M313.5,375.3c0.4,0.3,1.2,0.6,2,0.6c1.1,0,1.6-0.5,1.6-1.2c0-0.7-0.4-1.1-1.5-1.5c-1.5-0.5-2.2-1.3-2.2-2.3
			c0-1.3,1.1-2.4,2.8-2.4c0.8,0,1.6,0.2,2,0.5l-0.4,1.1c-0.3-0.2-0.9-0.5-1.7-0.5c-0.9,0-1.4,0.5-1.4,1.1c0,0.7,0.5,1,1.6,1.4
			c1.4,0.5,2.2,1.3,2.2,2.5c0,1.4-1.1,2.5-3.1,2.5c-0.9,0-1.7-0.2-2.3-0.6L313.5,375.3z"/>
		<path class="st1" d="M327.4,374.6c0,0.9,0,1.6,0.1,2.2h-1.3l-0.1-1.3h0c-0.4,0.7-1.3,1.5-2.7,1.5c-1.3,0-2.8-0.7-2.8-3.6v-4.8h1.5
			v4.6c0,1.6,0.5,2.6,1.8,2.6c1,0,1.7-0.7,2-1.4c0.1-0.2,0.1-0.5,0.1-0.8v-5h1.5V374.6z"/>
		<path class="st1" d="M329.8,371.1c0-1,0-1.8-0.1-2.6h1.3l0.1,1.6h0.1c0.4-1.1,1.3-1.8,2.3-1.8c0.2,0,0.3,0,0.4,0.1v1.4
			c-0.2,0-0.3-0.1-0.5-0.1c-1.1,0-1.8,0.8-2,1.9c0,0.2-0.1,0.4-0.1,0.7v4.4h-1.5V371.1z"/>
		<path class="st1" d="M339.9,376.8l-0.1-1h-0.1c-0.5,0.6-1.3,1.2-2.5,1.2c-1.7,0-2.5-1.2-2.5-2.4c0-2,1.8-3.1,4.9-3.1v-0.2
			c0-0.7-0.2-1.9-1.9-1.9c-0.8,0-1.6,0.2-2.1,0.6l-0.3-1c0.7-0.4,1.7-0.7,2.7-0.7c2.5,0,3.1,1.7,3.1,3.4v3.1c0,0.7,0,1.4,0.1,2
			H339.9z M339.7,372.6c-1.6,0-3.5,0.3-3.5,1.9c0,1,0.6,1.4,1.4,1.4c1.1,0,1.8-0.7,2-1.4c0.1-0.2,0.1-0.3,0.1-0.5V372.6z"/>
		<path class="st1" d="M343.5,364.7h1.5v5.1h0c0.2-0.4,0.6-0.8,1.1-1.1c0.4-0.3,1-0.4,1.5-0.4c1.1,0,2.9,0.7,2.9,3.5v4.9H349v-4.7
			c0-1.3-0.5-2.4-1.9-2.4c-1,0-1.7,0.7-2,1.5c-0.1,0.2-0.1,0.4-0.1,0.7v5h-1.5V364.7z"/>
		<path class="st1" d="M358.6,375.5L358.6,375.5c-0.5,0.8-1.4,1.5-2.7,1.5c-1.9,0-3.5-1.7-3.5-4.2c0-3.1,2-4.4,3.7-4.4
			c1.3,0,2.1,0.6,2.5,1.4h0l0.1-1.2h1.4c0,0.7-0.1,1.4-0.1,2.3v9.3h-1.5V375.5z M358.6,371.9c0-0.2,0-0.4-0.1-0.6
			c-0.2-0.9-1-1.7-2.1-1.7c-1.5,0-2.5,1.3-2.5,3.2c0,1.6,0.8,3.1,2.4,3.1c1,0,1.8-0.6,2.1-1.6c0.1-0.2,0.1-0.5,0.1-0.7V371.9z"/>
		<path class="st1" d="M369.4,374.6c0,0.9,0,1.6,0.1,2.2h-1.3l-0.1-1.3h0c-0.4,0.7-1.3,1.5-2.7,1.5c-1.3,0-2.8-0.7-2.8-3.6v-4.8h1.5
			v4.6c0,1.6,0.5,2.6,1.8,2.6c1,0,1.7-0.7,2-1.4c0.1-0.2,0.1-0.5,0.1-0.8v-5h1.5V374.6z"/>
		<path class="st1" d="M371.9,371.1c0-1,0-1.8-0.1-2.6h1.3l0.1,1.6h0.1c0.4-1.1,1.3-1.8,2.3-1.8c0.2,0,0.3,0,0.4,0.1v1.4
			c-0.2,0-0.3-0.1-0.5-0.1c-1.1,0-1.8,0.8-2,1.9c0,0.2-0.1,0.4-0.1,0.7v4.4h-1.5V371.1z"/>
		<path class="st1" d="M381.9,376.8l-0.1-1h-0.1c-0.5,0.6-1.3,1.2-2.5,1.2c-1.7,0-2.5-1.2-2.5-2.4c0-2,1.8-3.1,4.9-3.1v-0.2
			c0-0.7-0.2-1.9-1.9-1.9c-0.8,0-1.6,0.2-2.1,0.6l-0.3-1c0.7-0.4,1.7-0.7,2.7-0.7c2.5,0,3.1,1.7,3.1,3.4v3.1c0,0.7,0,1.4,0.1,2
			H381.9z M381.7,372.6c-1.6,0-3.5,0.3-3.5,1.9c0,1,0.6,1.4,1.4,1.4c1.1,0,1.8-0.7,2-1.4c0.1-0.2,0.1-0.3,0.1-0.5V372.6z"/>
		<path class="st1" d="M385.6,370.8c0-0.9,0-1.5-0.1-2.2h1.3l0.1,1.4h0c0.4-0.8,1.4-1.5,2.7-1.5c1.1,0,2.9,0.7,2.9,3.5v4.9h-1.5
			v-4.7c0-1.3-0.5-2.4-1.9-2.4c-1,0-1.8,0.7-2,1.5c-0.1,0.2-0.1,0.4-0.1,0.7v4.9h-1.5V370.8z"/>
		<path class="st1" d="M394.6,375.9c0-0.6,0.4-1.1,1-1.1c0.6,0,1,0.4,1,1.1c0,0.6-0.4,1.1-1,1.1C395,377,394.6,376.5,394.6,375.9z"
			/>
		<path class="st1" d="M404.4,376.5c-0.4,0.2-1.3,0.5-2.4,0.5c-2.5,0-4.1-1.7-4.1-4.2c0-2.5,1.7-4.4,4.4-4.4c0.9,0,1.7,0.2,2.1,0.4
			l-0.3,1.2c-0.4-0.2-0.9-0.4-1.7-0.4c-1.9,0-2.9,1.4-2.9,3.1c0,1.9,1.2,3.1,2.9,3.1c0.8,0,1.4-0.2,1.8-0.4L404.4,376.5z"/>
		<path class="st1" d="M413.5,372.6c0,3-2.1,4.4-4.1,4.4c-2.2,0-3.9-1.6-3.9-4.2c0-2.8,1.8-4.4,4.1-4.4
			C411.9,368.4,413.5,370.1,413.5,372.6z M406.9,372.7c0,1.8,1,3.2,2.5,3.2c1.4,0,2.5-1.3,2.5-3.2c0-1.4-0.7-3.2-2.5-3.2
			S406.9,371.1,406.9,372.7z"/>
		<path class="st1" d="M415.4,370.8c0-0.9,0-1.5-0.1-2.2h1.3l0.1,1.3h0.1c0.5-0.8,1.2-1.5,2.6-1.5c1.1,0,2,0.7,2.3,1.6h0
			c0.3-0.5,0.6-0.8,0.9-1.1c0.5-0.4,1-0.6,1.8-0.6c1.1,0,2.7,0.7,2.7,3.6v4.8h-1.5v-4.7c0-1.6-0.6-2.5-1.8-2.5
			c-0.9,0-1.5,0.6-1.8,1.4c-0.1,0.2-0.1,0.5-0.1,0.7v5.1h-1.5v-4.9c0-1.3-0.6-2.3-1.7-2.3c-0.9,0-1.6,0.7-1.9,1.5
			c-0.1,0.2-0.1,0.5-0.1,0.7v5h-1.5V370.8z"/>
	</g>
</g>
<g id="Layer_4">
	<path class="st1" d="M231.5,83.5c3.8,5.3,9,15.6,15.4,30.8l-0.8,2.4h-1.5c-2.3-2.1-4.1-3.1-5.3-3.1v4.6c6.6,38.9,10,61,10,66.2v4.6
		l-1.5,12.3c9.9,5.1,22.4,7.7,37.8,7.7c-2.1-24-6.9-61.7-14.7-113.2c2.1-8.2,3.9-12.3,5.4-12.3c6.8,12.4,11.9,24.7,15.4,37l-0.8,0.8
		h-1.5l-5.3-4.6H283c7.7,62.6,12.4,93.9,13.9,93.9l13.1,1.5l0.7-0.8h0.8l3.1,0.8h2.3l0.8-0.8l4.6,0.8c-2.3,9.2-5.2,13.9-8.5,13.9
		l-0.7-0.8h-13.9c-1.6,0-3.6,7.7-6.2,23.1l-0.8,2.4l-0.7,0.7c0,1.6-0.5,2.4-1.5,2.4h-0.8l-0.7-4.6l-0.8-21.6l-2.3-1.5h-6.2
		c-2.7,0-20.4,6.4-53.2,19.2l-24.6,3.1c-18.2,0-30-8.7-35.4-26.2l-2.3-16.9l3.8-24.6h-0.7c-5,0-15.8,6.2-32.3,18.5l-0.8,3.1v5.4
		l-2.3,2.3c-2.1-3.1-3.9-4.6-5.4-4.6c-14.4,11-21.6,26.9-21.6,47.7c0,16.6,8,29.2,23.9,37.8c10.9,4.6,27.8,6.9,50.8,6.9l44.7-3.1
		l0.7,0.8v1.5c-21.7,9.7-38.1,14.6-49.3,14.6H166l-7.7-0.7v0.7l-0.7-0.7h-3.1c-26.2,0-43.7-10-52.4-30.1c-2.1-7.2-3.1-13.1-3.1-17.7
		c0-25.8,6.4-47.4,19.2-64.7v-1.5c-3.1-4-10.1-9.4-20.7-16.2l-3.9-10.8c0-9.9,7.7-16.5,23.1-20l19.3-1.5l4.6,0.8h0.7
		c29.7,0.5,47.4,2.5,53.2,6.2v1.5c0,8.1-4.6,13.5-13.9,16.1c-5.6,0-9.2,6.2-10.8,18.5v5.4c0,17.3,5.9,28.3,17.7,33.1l19.3,3.9
		c11.8,0,26.7-4.1,44.7-12.3v-2.4c-15.7-4.1-27.8-6.2-36.2-6.2l-12.3,2.4l-1.5-2.4c0-8.6,5.9-13.4,17.8-14.6
		c15.4-1.1,23.1-2.6,23.1-4.6L226,94.3C228.3,87.1,230.1,83.5,231.5,83.5z M516.4,84.4c3.2,0,5.5,2.8,6.9,8.4
		c-1,3.1-2.1,4.6-3.1,4.6c-3.2-3.1-5.5-4.6-6.9-4.6c-3.1,1.1-4.6,3.1-4.6,6.2v4.6c-0.9,20.1-2.4,30.1-4.6,30.1
		c-8.4-14.4-14.3-21.6-17.8-21.6c-4.2,0-7.8-3.1-10.8-9.2c1.2-4.1,2.7-6.2,4.6-6.2c4.4,0,11.8,6.7,22.4,20h1.5v-10.8
		C505.9,91.5,510,84.4,516.4,84.4z M348.5,85.9h0.7c2.6,1.3,3.9,3.4,3.9,6.2v5.3l-0.8,8.5l7,7.7l0.7,4.6l-1.5,1.5h-1.5l-6.9-4.6
		h-2.4c-14.9,15-25.9,23.2-33.1,24.6l-6.2,2.3h-0.8v-0.7l29.3-21.6c4.1-4.1,6.2-6.9,6.2-8.5c-3.6-4.6-5.3-7.9-5.3-10
		C339.7,91,343.3,85.9,348.5,85.9z M570.3,85.9h3.1c4.1,2.4,6.2,7.3,6.2,14.6v6.2c0,1.6,1.8,4.7,5.3,9.2v2.4l-1.5,1.5h-1.5l-5.3-3.1
		c-25.9,23.3-46.2,35.8-60.9,37.7v-0.7l40.9-26.2c9.2-7.2,13.9-11.6,13.9-13.1c-5.7-5.9-8.5-10-8.5-12.3
		C561.8,96.2,564.6,90.8,570.3,85.9z M200.7,87.4c4.1,1.3,6.2,5.1,6.2,11.5c-0.8,2.1-1.6,3.1-2.4,3.1h-0.7c-2.1-1-3.1-2.3-3.1-3.8
		h-3.1l-1.5,1.5v3.8c-0.8,17.5-2.3,26.2-4.6,26.2c-8.6-14.4-15.7-21.6-21.6-21.6l-4.6-5.3c0.8-4.5,2-7.4,3.8-8.5
		c4.2,0,10.8,6.4,20,19.3h3.1v-3.1C192.1,96.5,195,88.8,200.7,87.4z M450.2,87.4l0.7,0.7v3.9c-7.1,6.8-23.5,17-49.3,30.8
		c-11.8,8.2-18.8,12.3-20.7,12.3H380v-0.8c0-5.1,5.1-10,15.4-14.6L450.2,87.4z M342.4,97.4v0.8c1.2,3.1,3.3,4.6,6.2,4.6l0.7-0.8
		v-3.1c0-2.6-0.8-4.1-2.3-4.6h-1.5L342.4,97.4z M566.4,97.4v2.4c0.1,0.9,2.4,2.7,7,5.3h0.7c1,0,1.5-0.8,1.5-2.3
		c0-4.5-1.3-7.4-3.8-8.5h-2.4L566.4,97.4z M125.2,98.9h0.7c1,13.3,3.5,20,7.7,20h3.1v-0.7l-2.3-12.3l1.5-6.2h0.7
		c3.6,6.3,5.4,11.9,5.4,16.9c0,8.2-3.1,12.3-9.2,12.3l-8.5-4.6c-3.7,6.2-7.8,9.2-12.3,9.2c-4.1-1.7-6.2-5.1-6.2-10.1
		c0.9-12.8,2.2-19.2,3.9-19.2l0.7,0.7v0.8l-1.5,9.2c0.5,6.2,2.1,9.2,4.6,9.2c6.2-0.8,9.2-3.9,9.2-9.2v-10.1
		C122.8,101.3,123.6,99.3,125.2,98.9z M460.1,133.6v0.7l-3.8,15.4c0,4.3,1.8,7.9,5.3,10.8h2.4c1.5,0,2.5-2.1,3.1-6.2h0.7l1.5,1.5
		c-2,8.8-4.3,13.7-6.9,14.7h-2.4c-4.6-3.8-6.9-8.7-6.9-14.7C453.2,147.2,455.5,139.8,460.1,133.6z M359.3,140.5
		c7.8,4.2,11.9,8.1,12.3,11.6v0.7c0,3.1-2.3,6.2-7,9.2l-10.8-6.9c-1.5,0-3.8,3.1-6.9,9.2h-0.8c-8.7-3.5-13-6.8-13-10.1h-0.8
		c1.4-4.1,3.9-7.7,7.7-10.8l9.2,6.2c2.7,0,5.6-2.8,8.5-8.4h1.5V140.5z M575.6,140.5v1.5l-0.7,2.4h-0.8v-2.4L575.6,140.5z
		 M574.1,144.4v1.5l-2.3,6.9c1,7.7,2.2,11.6,3.8,11.6h2.4c1.5,0,2.3-1,2.3-3.1h2.4v0.7c-1.5,7.7-4.6,11.6-9.2,11.6
		c-2.8-3.3-4.3-7.4-4.6-12.3v-3.1C568.7,153.1,570.5,148.5,574.1,144.4z M405.5,156.7c10.1,9.9,15.8,16,16.9,18.5v0.7l-3.9,0.8h-2.3
		v0.7l10.8,22.4c1,2.3,1.5,5.9,1.5,10.8c0,13.9-6.7,25.2-20,33.9c-2.1,3.7-3.1,7.5-3.1,11.5v1.5c0,11.1,6.2,18.8,18.5,23.1l2.3,0.8
		c23.7,0,47.6-15.2,71.7-45.5v-1.5c0-1.2-1-2-3.1-2.3l-22.4,3.1c-10.3-1.9-15.4-7-15.4-15.4v-2.4c3.1-14.9,10.1-22.3,20.8-22.3
		c5.5,0,12.9,5.9,22.3,17.7h0.8c2.5,0,11.2-5.4,26.2-16.1h1.5l1.5,1.5v10c3.7,7.2,8.8,10.8,15.4,10.8h5.3c7.4,0,14.3-5.6,20.8-16.9
		c2.4-6.2,4.7-9.2,6.9-9.2l0.8,2.4l-3.1,10c3.4,5.7,9.8,8.5,19.2,8.5c2.3-1,3.6-2.1,3.9-3.1l-4.6-10.1l3.1-10h1.5
		c4.6,5.1,6.9,11,6.9,17.7c-1.6,13.9-6.9,20.8-16.1,20.8c-6.8,0-13.3-3.6-19.3-10.8h-1.5c-6.5,10.3-14.7,15.4-24.7,15.4
		s-16.6-5.4-19.9-16.2l-0.7-3.1h-1.5c-12.3,7.7-18.5,13.6-18.5,17.8c0,13.7-8.7,27.3-26.2,40.8c-17.2,15.4-32.1,23.1-44.7,23.1h-3.9
		c-14,0-23.3-7.9-27.7-23.8l-0.7-9.2l0.7-9.2l-1.5-2.4c-35,24.2-61.5,36.2-79.3,36.2c-11,3.1-19.7,4.9-26.2,5.3v-2.3
		c40.2-15.3,74.8-33.3,103.9-53.9c14.6-10.6,22.6-18.3,23.9-23.1l-17.8-37l-3.1-8.5C402.6,160.6,403.9,156.7,405.5,156.7z
		 M102.8,169.1l23.9,20h2.3l34.7-23.1v-1.5l-35.4-2.4C113.2,163.3,104.7,165.6,102.8,169.1z M229.9,162.1l0.7,0.8v1.5
		c0,7-16.7,15.7-50,26.2h-0.8v-0.8c0-5.1,11.1-11.5,33.2-19.2C222,164.9,227.6,162.1,229.9,162.1z M374.7,168.2v0.8
		c0,6.6-4.4,16.1-13.1,28.4v1.5c10.3,7.6,15.4,14,15.4,19.3v0.7c0,14.2-6.2,23.5-18.5,27.7c-2.7,2.6-6.9,3.9-12.4,3.9
		s-8.8-4.9-9.9-14.7c0-7.9,2.6-16.9,7.7-26.9v-2.4C330,194.4,323,186.2,323,182.1v-2.3l1.5-5.4h0.8c13.8,4.1,20.7,7.2,20.7,9.2
		l-3.8,3.9c0,1.7,3.3,3.8,10,6.2h0.8c3.8-3.8,10.5-12.3,20-25.5H374.7z M467.1,217.5l6.2,1.5h6.2l5.3-0.7v-3.1
		c-4.1-2.6-6.9-3.9-8.4-3.9H474C469.4,211.4,467.1,213.4,467.1,217.5z M342.4,228.3v1.5c0,4.1,2.3,6.2,6.9,6.2
		c8.4-2.1,15-5.9,20-11.5v-2.4c-3.8-4.2-9.1-7.6-16.1-10h-1.5C345.4,217.9,342.4,223.2,342.4,228.3z M141.3,225.2
		c9.2,3.2,13.9,6.8,13.9,10.8c-2.4,5.1-5,7.9-7.7,8.5c-7.7-3.8-11.5-7.1-11.5-10.1C138,228.3,139.8,225.2,141.3,225.2z M587.9,246.8
		l0.8,2.4c-2.5,10.7-6.6,16.1-12.3,16.1l-4.6-1.5l-10.1,4.6h-1.5l-9.2-3.1c-4.1,0-15.1,6.2-33.1,18.5l-11.6,2.4v-0.8l40-26.2
		l6.2-2.3l10.1,3.8c3,0,6.8-2.8,11.5-8.4l4.6,4.6h3.1c1.2,0,2.5-3.1,3.9-9.2l0.7-0.8H587.9z M176,248.3l0.7,0.8v0.7
		c0,5.7-8.7,10.9-26.2,15.4c-4,3.1-12.3,6.2-24.6,9.2h-0.7v-3.1C127.1,268.1,144.1,260.4,176,248.3z M253,250.7
		c5.1,0.5,7.7,1.7,7.7,3.8c-0.2,2.5-5.1,9.2-14.7,20v1.5l2.4,2.4h0.7c9.1,0,19.4-3.4,30.8-10.1h1.5v1.5
		c-9.6,11.8-21.6,17.8-36.1,17.8c-1.7,0-3.5-1.8-5.4-5.4c0.7-4.9,4.6-11.6,11.6-20v-1.5h-9.2v-0.7
		C243.8,253.8,247.4,250.7,253,250.7z M199.8,253.8h0.8l-3.1,11.5c0.5,6.2,1.7,9.2,3.8,9.2h0.8l4.6-4.6l0.7,0.8
		c-2.7,8.7-5,13-6.9,13h-2.4c-3.6-2.1-5.3-6.7-5.3-13.9C195.2,260.4,197.5,255,199.8,253.8z"/>
</g>
</svg>
