<?xml version="1.0" encoding="utf-8"?>
<!-- Generator: Adobe Illustrator 25.2.3, SVG Export Plug-In . SVG Version: 6.00 Build 0)  -->
<svg version="1.1" xmlns="http://www.w3.org/2000/svg" xmlns:xlink="http://www.w3.org/1999/xlink" x="0px" y="0px"
	 viewBox="0 0 700 395" style="enable-background:new 0 0 700 395;" xml:space="preserve">
<style type="text/css">
	.st0{fill:#000222;}
	.st1{fill:#FFFFFF;}
</style>
<g id="Layer_1">
	<rect class="st0" width="700" height="395"/>
</g>
<g id="Layer_3">
	<g>
		<path class="st1" d="M273.5,368.6l1.1,4.2c0.2,0.9,0.5,1.8,0.6,2.6h0.1c0.2-0.8,0.5-1.7,0.7-2.6l1.3-4.2h1.3l1.3,4.1
			c0.3,1,0.5,1.9,0.7,2.7h0.1c0.1-0.8,0.4-1.7,0.6-2.7l1.2-4.1h1.5l-2.7,8.2H280l-1.3-3.9c-0.3-0.9-0.5-1.7-0.7-2.7h0
			c-0.2,1-0.5,1.8-0.7,2.7l-1.3,3.9h-1.4l-2.5-8.2H273.5z"/>
		<path class="st1" d="M286.3,368.6l1.1,4.2c0.2,0.9,0.5,1.8,0.6,2.6h0.1c0.2-0.8,0.5-1.7,0.7-2.6l1.3-4.2h1.3l1.3,4.1
			c0.3,1,0.5,1.9,0.7,2.7h0.1c0.1-0.8,0.4-1.7,0.6-2.7l1.2-4.1h1.5l-2.7,8.2h-1.4l-1.3-3.9c-0.3-0.9-0.5-1.7-0.7-2.7h0
			c-0.2,1-0.5,1.8-0.7,2.7l-1.3,3.9h-1.4l-2.5-8.2H286.3z"/>
		<path class="st1" d="M299,368.6l1.1,4.2c0.2,0.9,0.5,1.8,0.6,2.6h0.1c0.2-0.8,0.5-1.7,0.7-2.6l1.3-4.2h1.3l1.3,4.1
			c0.3,1,0.5,1.9,0.7,2.7h0.1c0.1-0.8,0.4-1.7,0.6-2.7l1.2-4.1h1.5l-2.7,8.2h-1.4l-1.3-3.9c-0.3-0.9-0.5-1.7-0.7-2.7h0
			c-0.2,1-0.5,1.8-0.7,2.7l-1.3,3.9h-1.4l-2.5-8.2H299z"/>
		<path class="st1" d="M309.9,375.9c0-0.6,0.4-1.1,1-1.1c0.6,0,1,0.4,1,1.1c0,0.6-0.4,1.1-1,1.1C310.3,377,309.9,376.5,309.9,375.9z
			"/>
		<path class="st1" d="M313.5,375.3c0.4,0.3,1.2,0.6,2,0.6c1.1,0,1.6-0.5,1.6-1.2c0-0.7-0.4-1.1-1.5-1.5c-1.5-0.5-2.2-1.3-2.2-2.3
			c0-1.3,1.1-2.4,2.8-2.4c0.8,0,1.6,0.2,2,0.5l-0.4,1.1c-0.3-0.2-0.9-0.5-1.7-0.5c-0.9,0-1.4,0.5-1.4,1.1c0,0.7,0.5,1,1.6,1.4
			c1.4,0.5,2.2,1.3,2.2,2.5c0,1.4-1.1,2.5-3.1,2.5c-0.9,0-1.7-0.2-2.3-0.6L313.5,375.3z"/>
		<path class="st1" d="M327.4,374.6c0,0.9,0,1.6,0.1,2.2h-1.3l-0.1-1.3h0c-0.4,0.7-1.3,1.5-2.7,1.5c-1.3,0-2.8-0.7-2.8-3.6v-4.8h1.5
			v4.6c0,1.6,0.5,2.6,1.8,2.6c1,0,1.7-0.7,2-1.4c0.1-0.2,0.1-0.5,0.1-0.8v-5h1.5V374.6z"/>
		<path class="st1" d="M329.8,371.1c0-1,0-1.8-0.1-2.6h1.3l0.1,1.6h0.1c0.4-1.1,1.3-1.8,2.3-1.8c0.2,0,0.3,0,0.4,0.1v1.4
			c-0.2,0-0.3-0.1-0.5-0.1c-1.1,0-1.8,0.8-2,1.9c0,0.2-0.1,0.4-0.1,0.7v4.4h-1.5V371.1z"/>
		<path class="st1" d="M339.9,376.8l-0.1-1h-0.1c-0.5,0.6-1.3,1.2-2.5,1.2c-1.7,0-2.5-1.2-2.5-2.4c0-2,1.8-3.1,4.9-3.1v-0.2
			c0-0.7-0.2-1.9-1.9-1.9c-0.8,0-1.6,0.2-2.1,0.6l-0.3-1c0.7-0.4,1.7-0.7,2.7-0.7c2.5,0,3.1,1.7,3.1,3.4v3.1c0,0.7,0,1.4,0.1,2
			H339.9z M339.7,372.6c-1.6,0-3.5,0.3-3.5,1.9c0,1,0.6,1.4,1.4,1.4c1.1,0,1.8-0.7,2-1.4c0.1-0.2,0.1-0.3,0.1-0.5V372.6z"/>
		<path class="st1" d="M343.5,364.7h1.5v5.1h0c0.2-0.4,0.6-0.8,1.1-1.1c0.4-0.3,1-0.4,1.5-0.4c1.1,0,2.9,0.7,2.9,3.5v4.9H349v-4.7
			c0-1.3-0.5-2.4-1.9-2.4c-1,0-1.7,0.7-2,1.5c-0.1,0.2-0.1,0.4-0.1,0.7v5h-1.5V364.7z"/>
		<path class="st1" d="M358.6,375.5L358.6,375.5c-0.5,0.8-1.4,1.5-2.7,1.5c-1.9,0-3.5-1.7-3.5-4.2c0-3.1,2-4.4,3.7-4.4
			c1.3,0,2.1,0.6,2.5,1.4h0l0.1-1.2h1.4c0,0.7-0.1,1.4-0.1,2.3v9.3h-1.5V375.5z M358.6,371.9c0-0.2,0-0.4-0.1-0.6
			c-0.2-0.9-1-1.7-2.1-1.7c-1.5,0-2.5,1.3-2.5,3.2c0,1.6,0.8,3.1,2.4,3.1c1,0,1.8-0.6,2.1-1.6c0.1-0.2,0.1-0.5,0.1-0.7V371.9z"/>
		<path class="st1" d="M369.4,374.6c0,0.9,0,1.6,0.1,2.2h-1.3l-0.1-1.3h0c-0.4,0.7-1.3,1.5-2.7,1.5c-1.3,0-2.8-0.7-2.8-3.6v-4.8h1.5
			v4.6c0,1.6,0.5,2.6,1.8,2.6c1,0,1.7-0.7,2-1.4c0.1-0.2,0.1-0.5,0.1-0.8v-5h1.5V374.6z"/>
		<path class="st1" d="M371.9,371.1c0-1,0-1.8-0.1-2.6h1.3l0.1,1.6h0.1c0.4-1.1,1.3-1.8,2.3-1.8c0.2,0,0.3,0,0.4,0.1v1.4
			c-0.2,0-0.3-0.1-0.5-0.1c-1.1,0-1.8,0.8-2,1.9c0,0.2-0.1,0.4-0.1,0.7v4.4h-1.5V371.1z"/>
		<path class="st1" d="M381.9,376.8l-0.1-1h-0.1c-0.5,0.6-1.3,1.2-2.5,1.2c-1.7,0-2.5-1.2-2.5-2.4c0-2,1.8-3.1,4.9-3.1v-0.2
			c0-0.7-0.2-1.9-1.9-1.9c-0.8,0-1.6,0.2-2.1,0.6l-0.3-1c0.7-0.4,1.7-0.7,2.7-0.7c2.5,0,3.1,1.7,3.1,3.4v3.1c0,0.7,0,1.4,0.1,2
			H381.9z M381.7,372.6c-1.6,0-3.5,0.3-3.5,1.9c0,1,0.6,1.4,1.4,1.4c1.1,0,1.8-0.7,2-1.4c0.1-0.2,0.1-0.3,0.1-0.5V372.6z"/>
		<path class="st1" d="M385.6,370.8c0-0.9,0-1.5-0.1-2.2h1.3l0.1,1.4h0c0.4-0.8,1.4-1.5,2.7-1.5c1.1,0,2.9,0.7,2.9,3.5v4.9h-1.5
			v-4.7c0-1.3-0.5-2.4-1.9-2.4c-1,0-1.8,0.7-2,1.5c-0.1,0.2-0.1,0.4-0.1,0.7v4.9h-1.5V370.8z"/>
		<path class="st1" d="M394.6,375.9c0-0.6,0.4-1.1,1-1.1c0.6,0,1,0.4,1,1.1c0,0.6-0.4,1.1-1,1.1C395,377,394.6,376.5,394.6,375.9z"
			/>
		<path class="st1" d="M404.4,376.5c-0.4,0.2-1.3,0.5-2.4,0.5c-2.5,0-4.1-1.7-4.1-4.2c0-2.5,1.7-4.4,4.4-4.4c0.9,0,1.7,0.2,2.1,0.4
			l-0.3,1.2c-0.4-0.2-0.9-0.4-1.7-0.4c-1.9,0-2.9,1.4-2.9,3.1c0,1.9,1.2,3.1,2.9,3.1c0.8,0,1.4-0.2,1.8-0.4L404.4,376.5z"/>
		<path class="st1" d="M413.5,372.6c0,3-2.1,4.4-4.1,4.4c-2.2,0-3.9-1.6-3.9-4.2c0-2.8,1.8-4.4,4.1-4.4
			C411.9,368.4,413.5,370.1,413.5,372.6z M406.9,372.7c0,1.8,1,3.2,2.5,3.2c1.4,0,2.5-1.3,2.5-3.2c0-1.4-0.7-3.2-2.5-3.2
			S406.9,371.1,406.9,372.7z"/>
		<path class="st1" d="M415.4,370.8c0-0.9,0-1.5-0.1-2.2h1.3l0.1,1.3h0.1c0.5-0.8,1.2-1.5,2.6-1.5c1.1,0,2,0.7,2.3,1.6h0
			c0.3-0.5,0.6-0.8,0.9-1.1c0.5-0.4,1-0.6,1.8-0.6c1.1,0,2.7,0.7,2.7,3.6v4.8h-1.5v-4.7c0-1.6-0.6-2.5-1.8-2.5
			c-0.9,0-1.5,0.6-1.8,1.4c-0.1,0.2-0.1,0.5-0.1,0.7v5.1h-1.5v-4.9c0-1.3-0.6-2.3-1.7-2.3c-0.9,0-1.6,0.7-1.9,1.5
			c-0.1,0.2-0.1,0.5-0.1,0.7v5h-1.5V370.8z"/>
	</g>
</g>
<g id="Layer_4">
	<path class="st1" d="M342.2,106c8.6,16.3,12.9,26.2,12.9,29.8l-0.6,0.6l-3.9-2.6h-1.3v3.9c5.9,50.9,10.4,76.4,13.5,76.4l6.5-1.3
		c11.2,2.2,16.8,6.3,16.8,12.3v4.5c-1,12.5-4,18.8-9.1,18.8h-1.9c-4.9,0-10.1-3.9-15.5-11.6c-2.3-4.3-4-6.4-5.2-6.5
		c-12.1,3.3-18.1,5.9-18.1,7.8c0,14.2-14.2,28.4-42.7,42.7c-6.7,2.1-12.1,3.2-16.2,3.2c-13.6,0-21.2-8.2-22.6-24.6v-1.9
		c0-5,2.4-14.3,7.1-27.9v-1.3c-2.6-2.1-5.2-3.2-7.8-3.2c-5.1,10.4-12.4,15.5-22,15.5c-7.9,0-13.5-4.1-16.8-12.3
		c-1.5-4.7-2.6-7.1-3.2-7.1h-0.7c-1.4,1.8-6.4,5.9-14.8,12.3c-2.2,12.8-5.7,21-10.4,24.6c-16.9,14.9-32,23.5-45.3,25.9
		c-2.6,0.3-3.9,0.8-3.9,1.3l-0.7-0.6h-1.3c-10.8,0-17.9-3.9-21.3-11.6c-3-5.9-4.6-11.1-4.6-15.5v-3.3l2-17.4v-1.3H110
		c-13.5,4.3-22.4,6.5-26.6,6.5c-15.9,0-26.5-7.3-31.7-22c-1.3-4-2-8.6-2-13.6v-0.6c0-10.6,2.4-20.4,7.2-29.2h1.9v0.7
		c-2.9,9.1-4.4,15.8-4.5,20v4.6c0,13.6,7.8,22.5,23.3,26.5h7.8c16.2,0,36.3-9.3,60.1-27.8l2-2.6v-0.7l-9.8-24.6l-4.5-14.2
		c1.3-6.4,2.6-9.7,3.9-9.7h1.3c0.5,1.8,3.3,5.7,8.4,11.6l1.3,2.6v3.2h-3.9v0.7l8.5,22v3.9c0,10.6-3.2,17.7-9.8,21.3
		c-3,3.3-11.7,9.4-25.9,18.1c-2.1,4.4-3.2,9.6-3.2,15.5c0,10.2,3.7,17.3,11,21.4c3.2,2.1,6.6,3.2,10.4,3.2c15,0,32.5-9.7,52.5-29.1
		l1.3-2V238h-2l-11.6,1.3c-9.4,0-14.8-3.7-16.1-11v-3.9c2.5-12.1,7.4-18.1,14.8-18.1c4.7,0,10.8,5,18.1,14.9h2c4,0,11.3-5.8,22-17.5
		h0.6l2,2l-0.7,3.2v3.3c1.5,10.4,6.5,15.5,14.9,15.5h3.9c8.5,0,15.4-8.4,20.7-25.3c4.4-6.4,8.5-9.7,12.3-9.7
		c7.2,0,12.7,8.6,16.2,25.9c0,7.8-2.6,11.6-7.8,11.6h-9.8c-4,0-6.8,7.1-8.4,21.3v2.6c0,10.2,6.2,16.1,18.7,17.5h1.3
		c14.3,0,31.1-9.9,50.5-29.8v-2l-1.9-1.9l-13.6,1.3c-9-1.4-13.5-4.8-13.5-10.4c0-11,5.4-18.3,16.1-22c3.9,0,9.5,5.4,16.8,16.1h2
		c10.8-2,16.1-4.4,16.1-7.1L339,120.2l-1.3-3.3C339.2,109.6,340.7,106,342.2,106z M322.8,106.6c3.5,1.6,5.2,4.9,5.2,9.8v6.5
		c3,3.1,4.6,5.7,4.6,7.8c-0.7,1.7-1.4,2.6-2,2.6h-1.3l-1.9-1.3h-1.3c-9.1,12.1-18.4,20.5-27.9,25.2c-6.9,4.3-11.4,6.5-13.5,6.5v-0.6
		c0.5-1.1,10.9-9.5,31.1-25.3l5.8-7.8l-6.5-6.5l-1.3-5.8C315.8,110.2,318.9,106.6,322.8,106.6z M211.5,108.5c3,0,5.2,3,6.5,9.1
		l-0.6,8.4c0.7,0.1,2.2,2,4.5,5.9l-1.3,4.5h-1.9l-3.9-1.9c-12.1,14.8-24.4,25.3-36.9,31.7l-11.6,6.5h-1.3v-1.3l41.4-33.7l3.9-5.2
		v-1.3c-4.7-3.3-7.1-6.5-7.1-9.7C203.1,116.4,205.9,112.1,211.5,108.5z M383,108.5h1.3l11,27.2c-0.6,1.7-1.3,2.6-1.9,2.6l-3.3-2.6
		h-0.6v1.3h-0.7l0.7,0.6v1.3c7.3,56.3,11,88.5,11,96.5v1.9c0,6.2-1.5,11.6-4.5,16.2h-1.3l-0.7-2l0.7-0.6c0-9.5-5.2-53.7-15.5-132.7
		C380.4,111.8,381.7,108.5,383,108.5z M573.9,109.8c4.3,1.7,6.5,4,6.5,7.1c0,3-0.9,4.6-2.6,4.6c-2.9-2.2-5.1-3.3-6.5-3.3h-0.6
		c-2.2,0-3.3,8-3.3,24c-1,6.4-2,9.7-3.2,9.7h-0.7c-6.4-12.9-12.7-19.4-18.7-19.4c-2.6-1.8-4.1-3.7-4.6-5.8c0.6-4.3,1.7-6.5,3.3-6.5
		c3.6,0,10,5.6,19.4,16.8h0.6c0-13.5,2.6-22.1,7.8-25.9L573.9,109.8z M152.7,110.4h0.6l0.7,2c0,4.4-3.5,7.7-10.4,9.7
		c-31.8,15-56.4,27-73.8,36.2l-3.3,2.6h-1.9v-1.3H64c0-4.9,4.5-9.2,13.6-12.9C97.9,135.5,122.9,123.4,152.7,110.4z M433.5,110.4
		c2.6,1.6,3.9,3.9,3.9,7.2l-0.7,11.6c4.3,3.3,6.5,6.1,6.5,8.4c-0.6,1.7-1.3,2.6-1.9,2.6h-0.7c-3.7-2.6-6.3-3.9-7.8-3.9
		c-14.3,13.8-24.4,20.7-30.4,20.7h-0.7v-2.6c11.4-6.6,20.1-13.3,25.9-20l0.7-0.7v-0.6c-3-4.5-4.6-7.8-4.6-9.8
		C425.7,114.8,429,110.4,433.5,110.4z M250.3,111.1v1.3l-1.3,10.4v1.3c0,3.3,1.1,5.5,3.3,6.5h1.3c0.9,0,1.3-0.7,1.3-2l0.6-0.6h1.3
		v1.3c0,4.8-1.7,8.1-5.2,9.7c-2.9,0-5-3.2-6.5-9.7V128C247,116.7,248.7,111.1,250.3,111.1z M621.2,111.1c4.7,0,7.1,5.4,7.1,16.1v3.3
		c3,3.7,4.6,6.3,4.6,7.8l-0.7,2.6h-0.6l-7.2-2.6c-19.5,17.8-35.5,28.4-47.9,31.7l-2.6,0.7l-0.6-0.7v-0.6
		c4.4-3.6,14.6-10.1,30.4-19.4c10.8-8,16.2-13,16.2-14.9c-4.8-3.9-7.2-6.9-7.2-9.1C614.9,116.1,617.7,111.1,621.2,111.1z M519.5,113
		v2c0,3.3-4.5,7.2-13.5,11.6l-44.7,26.5H460l-0.6-1.9c0-3.8,9.9-10.9,29.8-21.4C505.1,120.1,515.2,114.5,519.5,113z M318.9,116.9
		c0.5,1.7,1.8,2.6,3.9,2.6h0.7v-2.6l-2-1.9h-1.3C319.4,115,318.9,115.6,318.9,116.9z M67.9,115l0.7,0.6l-2,7.2v5.2
		c0,2.4,1.1,4.1,3.3,5.2h0.6l3.3-2.6l0.6,0.6v0.7c0,3.9-1.7,7.1-5.2,9.7c-4.3-2-6.5-5.8-6.5-11.6C64.9,120,66.6,115,67.9,115z
		 M174,115h0.7v0.6l-2.6,9.8c0.6,6.9,1.9,10.4,3.9,10.4h1.3c1.3-0.5,1.9-1.8,1.9-3.9h2c0,6-1.7,10.1-5.2,12.3
		c-4.8,0-7.2-3.9-7.2-11.6v-0.6C168.8,126.1,170.5,120.5,174,115z M209.6,116.9l-1.3,2v0.6c0.7,1.7,2.2,2.6,4.5,2.6h0.7v-2.6
		C212.6,117.8,211.3,116.9,209.6,116.9z M428.3,120.8v1.3l3.2,3.3h0.7l1.3-1.3v-3.3l-2-1.9h-1.3L428.3,120.8z M616.6,122.1v0.7
		c2.8,3.5,5.2,5.2,7.2,5.2l0.6-0.7V126c0-3.3-1.1-5.5-3.2-6.5h-2L616.6,122.1z M286,120.2h4.5c6.5,0.4,9.8,1.5,9.8,3.2
		c0,6.2-6.5,11.4-19.4,15.5l-0.7-0.6V137c2-0.3,5.5-2.9,10.4-7.8v-0.7h-0.6l-4.6-0.6c-4,0-7.5,1.3-10.4,3.9h-1.3v-1.3
		C273.6,125.4,277.8,122,286,120.2z M263.3,144.1c2.2,0,4.6,2.4,7.2,7.2v1.3c0,2.2-0.7,3.5-2,3.9h-1.3c-2.2-2.2-4.2-3.3-5.8-3.3
		h-1.3v11c0,7.8-1.3,13.6-3.9,17.4c-6.7-10.8-12.1-16.1-16.2-16.1c-5.2-1.2-7.8-3.7-7.8-7.8c0-3.1,1.3-5.3,3.9-6.5
		c3.9,0,10,5.4,18.1,16.1v0.7h1.3l0.7-0.7h0.6l-0.6-7.8C256.2,151,258.6,145.8,263.3,144.1z M110.6,148h2l-0.7,0.7v7.1
		c0,4.9,1.1,7.8,3.3,8.5h0.6c1.2,0,2-1.5,2.6-4.6h1.3v1.3h0.7c0,4.8-1.7,8.7-5.2,11.6c-4.1,0-6.5-3.7-7.2-11L110.6,148z
		 M527.3,151.9v0.7l-2.6,9.7v5.2c0,3.7,1.5,6.3,4.6,7.8h0.6c1,0,2.1-1.7,3.3-5.2h1.3l0.6,2c-1.9,7.3-4.3,11-7.1,11
		c-4.8-1.9-7.2-6-7.2-12.3C523,158.1,525.2,151.9,527.3,151.9z M441.3,157.7h2.6c6,4.6,9.1,8,9.1,10.2c0,2.2-2,4.8-5.9,7.9
		c-1.5,0-4.7-2-9.7-5.9h-0.7l-5.2,7.8h-1.3c-2.2,0-5.7-2.4-10.4-7.1v-1.3c1.8-6,3.5-9.1,5.2-9.1h2.6c4,3.5,6.8,5.2,8.5,5.2
		C437.1,162.9,438.8,160.3,441.3,157.7z M624.4,157.7h0.7v0.6l-3.3,10.4v2c0,3.6,1.3,6.2,3.9,7.8h0.7l3.2-3.3l0.7,0.7h0.6
		c-1.3,6.4-3.6,9.7-7.1,9.7h-0.7c-3-1.7-4.5-5.3-4.5-11C618.6,168.8,620.5,163.2,624.4,157.7z M207,166.8h1.3
		c5.3,2.8,8.5,5.6,9.7,8.4c-1.9,5.6-3.8,8.5-5.8,8.5c-6.3-3.3-9.8-5.9-10.4-7.8C203.9,169.8,205.6,166.8,207,166.8z M480.1,171.3
		h1.3l13.5,14.2v2c-3,0.3-4.5,0.7-4.5,1.3c0,1.7,2.6,6.8,7.8,15.5c1.7,4.1,2.6,8,2.6,11.6c0,10.6-4.1,18.8-12.3,24.6
		c-4.7,3.7-7.1,7.8-7.1,12.3v2.6c0,10.3,5.4,17,16.1,20.1h7.8c13.5,0,31-11.9,52.5-35.6l0.6-2.6v-0.6c0-1.1-0.9-1.8-2.6-2
		c-6.6,1.7-12.9,2.6-18.7,2.6c-8.2-1-12.3-5.1-12.3-12.3v-1.3c1.9-13.4,7.3-20.1,16.2-20.1c5.9,0,12.5,5,20,14.9h0.7
		c4.6-1.4,11.7-5.9,21.3-13.6h2c0.9,0,1.5,1.3,1.9,3.9l-0.6,4.6c2.9,6.9,7.2,10.4,12.9,10.4h2.6c9.5,0,17.1-6.7,22.6-20.1l2.6-1.9
		h0.7v1.3l-2,7.8v1.9c3.7,4.3,8.7,6.5,14.9,6.5c2.1,0,3.4-0.9,3.9-2.6l-3.3-8.4c0.9-5.6,2-8.5,3.3-8.5h0.6c2,0,3.7,5.2,5.2,15.5
		c0,10-4.3,15.6-12.9,16.8c-5.6,0-11.2-2.8-16.8-8.4c-7.1,8.6-14.5,12.9-22,12.9c-11.6-2.5-17.4-7.9-17.4-16.2h-2
		c-9.9,5.8-14.8,11.2-14.8,16.2c0,13.1-13.8,28.6-41.4,46.6c-9.4,3.9-16.7,5.8-22,5.8c-10.6,0-18.3-6.7-23.3-20l-0.7-11l0.7-6.5h-2
		c-27.4,18.1-45.9,27.2-55.7,27.2l-31.7,7.2l-0.7-0.7v-0.6c0.7-1.6,11.5-6.3,32.4-14.2c21.5-10.6,40.9-22.1,58.2-34.3
		c7.1-4.8,12.7-10,16.8-15.5c0-2.8-4.3-12.1-12.9-27.8l-3.9-11.6L480.1,171.3z M310.6,176.4h0.6c2.4,0,4.1,1.1,5.2,3.3v3.2
		c-1.9,3.5-3.2,5.2-3.9,5.2h-1.3l-3.9-3.2h-0.6c-2.6,0-3.9,1.1-3.9,3.2c0,1.8,3,3.6,9.1,5.2l12.9-1.9l2.6,1.9c0,2.8-6,5.3-18.1,7.8
		c0,0.7-3.2,2.3-9.8,4.6V203l1.3-2v-1.3c-3.5-2.7-5.2-5.1-5.2-7.1C301.6,182.1,306.5,176.7,310.6,176.4z M99.6,181h1.3
		c3.9,0,7.3,2.8,10.4,8.4c-1.4,5.6-3,8.5-4.6,8.5c-6.9-2.6-10.4-5.4-10.4-8.5L99.6,181z M454.2,181l0.6,0.6h0.7
		c0,4.3-3.7,12.1-11,23.3v1.3c8.6,6.7,12.9,12.7,12.9,18.1c0,11.8-7.3,20.2-22,25.3l-2.6,0.6c-6,0-9.4-3.9-10.4-11.6
		c0-7.9,2.2-15.6,6.5-23.3v-1.9c-11.2-11-16.8-17.5-16.8-19.4v-5.2c0.3-2.6,0.9-3.9,2-3.9h0.6l16.2,7.8v0.6l-3.3,3.3
		c3.2,3.5,6,5.2,8.5,5.2c1.6,0,7-6.5,16.1-19.4L454.2,181z M77.6,186.8h0.6v1.3l-0.6,9.1c0.9,5.6,2.6,8.5,5.2,8.5l1.9-3.9h0.7
		l0.6,0.6h0.7c0,7.4-2.2,11-6.5,11c-3.9-2.9-5.9-6.6-5.9-11V201C74.3,197.8,75.4,193.1,77.6,186.8z M260.1,210.1v1.3
		c3.5,3.9,8.4,5.9,14.8,5.9l0.7-0.7v-1.9c0-2.7-2-5.5-5.9-8.5H264L260.1,210.1z M427.7,230.8c0,4.3,2.6,6.5,7.8,6.5
		c10.4-4.4,15.5-8.1,15.5-11c-3-3.1-7.7-6.1-14.2-9.1h-0.6C430.5,223.2,427.7,227.8,427.7,230.8z M533.2,221.1
		c0.4,1.7,1.7,2.6,3.9,2.6h7.1l3.3-0.7v-1.9c-0.1-1.2-2.7-2.5-7.8-3.9C536.6,217.3,534.4,218.6,533.2,221.1z M167.5,223.7
		c1.6,1.3,4.6,1.9,9.1,1.9h2l1.3-1.3c0-2-2.2-3.5-6.5-4.5h-2C168.8,219.8,167.5,221.1,167.5,223.7z M311.2,223v0.7
		c0.3,1.3,2,1.9,5.2,1.9h4.6v-1.9l-3.3-2.6h-2.6C312.5,221.4,311.2,222,311.2,223z M367.5,226.3l-0.7,0.6v1.3
		c3.4,4.3,6.6,6.5,9.8,6.5l3.2-0.6v-2C377.5,228.2,373.4,226.3,367.5,226.3z M297.6,238l1.9,0.6c0,5.1-5.2,8.9-15.5,11.6
		c-0.4,1-5.6,3.6-15.5,7.8l-0.6-0.6v-2.6C271.3,251.6,281.2,246,297.6,238z M88,245h1.3l-2.6,11.6c0.7,6,2.2,9.1,4.5,9.1l3.9-3.2
		h0.7v1.3c-1.3,6.4-3.2,9.7-5.9,9.7h-0.6c-4.3-2.1-6.5-6.4-6.5-12.9C85,250.2,86.7,245,88,245z M214.8,245.7h1.3v0.6l-2,14.9
		c0,2.1,1.5,4.2,4.6,6.5h0.6c1.7-0.9,2.6-2.2,2.6-3.9h0.7l1.3,1.3c-1.6,7.3-3.8,11-6.5,11c-4.8-2.5-7.2-7-7.2-13.5L214.8,245.7z
		 M634.1,247.6l1.3,1.3c-1.6,9.1-4.6,13.6-9.1,13.6l-7.2-0.7c0,1-2.6,2.3-7.8,3.9l-7.8-2.6h-0.6c-3.7,0-11.9,4.5-24.6,13.6
		l-10.4,3.9l-2-0.7v-1.3c8.1-4.1,19.1-11.2,33-21.3l6.5-2l7.1,2.6h3.9c0.9,0,3-2.2,6.5-6.5h1.3c0,1.7,0.9,3,2.6,3.9h2.6
		c1,0,1.9-1.9,2.6-5.8L634.1,247.6z M353.9,248.9c2.2,0.5,3.3,2.2,3.3,5.2c0,6.3-4.3,13-12.9,20.1h-0.7v-1.3
		c6-7.2,9.1-12.2,9.1-14.9l-1.9-0.6l-3.9,2.6h-0.7v-0.7C346.1,254,348.7,250.5,353.9,248.9z"/>
</g>
</svg>
