<?xml version="1.0" encoding="utf-8"?>
<!-- Generator: Adobe Illustrator 25.2.3, SVG Export Plug-In . SVG Version: 6.00 Build 0)  -->
<svg version="1.1" xmlns="http://www.w3.org/2000/svg" xmlns:xlink="http://www.w3.org/1999/xlink" x="0px" y="0px"
	 viewBox="0 0 700 395" style="enable-background:new 0 0 700 395;" xml:space="preserve">
<style type="text/css">
	.st0{fill:#000222;}
	.st1{fill:#FFFFFF;}
</style>
<g id="Layer_1">
	<rect class="st0" width="700" height="395"/>
</g>
<g id="Layer_3">
	<g>
		<path class="st1" d="M273.5,368.6l1.1,4.2c0.2,0.9,0.5,1.8,0.6,2.6h0.1c0.2-0.8,0.5-1.7,0.7-2.6l1.3-4.2h1.3l1.3,4.1
			c0.3,1,0.5,1.9,0.7,2.7h0.1c0.1-0.8,0.4-1.7,0.6-2.7l1.2-4.1h1.5l-2.7,8.2H280l-1.3-3.9c-0.3-0.9-0.5-1.7-0.7-2.7h0
			c-0.2,1-0.5,1.8-0.7,2.7l-1.3,3.9h-1.4l-2.5-8.2H273.5z"/>
		<path class="st1" d="M286.3,368.6l1.1,4.2c0.2,0.9,0.5,1.8,0.6,2.6h0.1c0.2-0.8,0.5-1.7,0.7-2.6l1.3-4.2h1.3l1.3,4.1
			c0.3,1,0.5,1.9,0.7,2.7h0.1c0.1-0.8,0.4-1.7,0.6-2.7l1.2-4.1h1.5l-2.7,8.2h-1.4l-1.3-3.9c-0.3-0.9-0.5-1.7-0.7-2.7h0
			c-0.2,1-0.5,1.8-0.7,2.7l-1.3,3.9h-1.4l-2.5-8.2H286.3z"/>
		<path class="st1" d="M299,368.6l1.1,4.2c0.2,0.9,0.5,1.8,0.6,2.6h0.1c0.2-0.8,0.5-1.7,0.7-2.6l1.3-4.2h1.3l1.3,4.1
			c0.3,1,0.5,1.9,0.7,2.7h0.1c0.1-0.8,0.4-1.7,0.6-2.7l1.2-4.1h1.5l-2.7,8.2h-1.4l-1.3-3.9c-0.3-0.9-0.5-1.7-0.7-2.7h0
			c-0.2,1-0.5,1.8-0.7,2.7l-1.3,3.9h-1.4l-2.5-8.2H299z"/>
		<path class="st1" d="M309.9,375.9c0-0.6,0.4-1.1,1-1.1c0.6,0,1,0.4,1,1.1c0,0.6-0.4,1.1-1,1.1C310.3,377,309.9,376.5,309.9,375.9z
			"/>
		<path class="st1" d="M313.5,375.3c0.4,0.3,1.2,0.6,2,0.6c1.1,0,1.6-0.5,1.6-1.2c0-0.7-0.4-1.1-1.5-1.5c-1.5-0.5-2.2-1.3-2.2-2.3
			c0-1.3,1.1-2.4,2.8-2.4c0.8,0,1.6,0.2,2,0.5l-0.4,1.1c-0.3-0.2-0.9-0.5-1.7-0.5c-0.9,0-1.4,0.5-1.4,1.1c0,0.7,0.5,1,1.6,1.4
			c1.4,0.5,2.2,1.3,2.2,2.5c0,1.4-1.1,2.5-3.1,2.5c-0.9,0-1.7-0.2-2.3-0.6L313.5,375.3z"/>
		<path class="st1" d="M327.4,374.6c0,0.9,0,1.6,0.1,2.2h-1.3l-0.1-1.3h0c-0.4,0.7-1.3,1.5-2.7,1.5c-1.3,0-2.8-0.7-2.8-3.6v-4.8h1.5
			v4.6c0,1.6,0.5,2.6,1.8,2.6c1,0,1.7-0.7,2-1.4c0.1-0.2,0.1-0.5,0.1-0.8v-5h1.5V374.6z"/>
		<path class="st1" d="M329.8,371.1c0-1,0-1.8-0.1-2.6h1.3l0.1,1.6h0.1c0.4-1.1,1.3-1.8,2.3-1.8c0.2,0,0.3,0,0.4,0.1v1.4
			c-0.2,0-0.3-0.1-0.5-0.1c-1.1,0-1.8,0.8-2,1.9c0,0.2-0.1,0.4-0.1,0.7v4.4h-1.5V371.1z"/>
		<path class="st1" d="M339.9,376.8l-0.1-1h-0.1c-0.5,0.6-1.3,1.2-2.5,1.2c-1.7,0-2.5-1.2-2.5-2.4c0-2,1.8-3.1,4.9-3.1v-0.2
			c0-0.7-0.2-1.9-1.9-1.9c-0.8,0-1.6,0.2-2.1,0.6l-0.3-1c0.7-0.4,1.7-0.7,2.7-0.7c2.5,0,3.1,1.7,3.1,3.4v3.1c0,0.7,0,1.4,0.1,2
			H339.9z M339.7,372.6c-1.6,0-3.5,0.3-3.5,1.9c0,1,0.6,1.4,1.4,1.4c1.1,0,1.8-0.7,2-1.4c0.1-0.2,0.1-0.3,0.1-0.5V372.6z"/>
		<path class="st1" d="M343.5,364.7h1.5v5.1h0c0.2-0.4,0.6-0.8,1.1-1.1c0.4-0.3,1-0.4,1.5-0.4c1.1,0,2.9,0.7,2.9,3.5v4.9H349v-4.7
			c0-1.3-0.5-2.4-1.9-2.4c-1,0-1.7,0.7-2,1.5c-0.1,0.2-0.1,0.4-0.1,0.7v5h-1.5V364.7z"/>
		<path class="st1" d="M358.6,375.5L358.6,375.5c-0.5,0.8-1.4,1.5-2.7,1.5c-1.9,0-3.5-1.7-3.5-4.2c0-3.1,2-4.4,3.7-4.4
			c1.3,0,2.1,0.6,2.5,1.4h0l0.1-1.2h1.4c0,0.7-0.1,1.4-0.1,2.3v9.3h-1.5V375.5z M358.6,371.9c0-0.2,0-0.4-0.1-0.6
			c-0.2-0.9-1-1.7-2.1-1.7c-1.5,0-2.5,1.3-2.5,3.2c0,1.6,0.8,3.1,2.4,3.1c1,0,1.8-0.6,2.1-1.6c0.1-0.2,0.1-0.5,0.1-0.7V371.9z"/>
		<path class="st1" d="M369.4,374.6c0,0.9,0,1.6,0.1,2.2h-1.3l-0.1-1.3h0c-0.4,0.7-1.3,1.5-2.7,1.5c-1.3,0-2.8-0.7-2.8-3.6v-4.8h1.5
			v4.6c0,1.6,0.5,2.6,1.8,2.6c1,0,1.7-0.7,2-1.4c0.1-0.2,0.1-0.5,0.1-0.8v-5h1.5V374.6z"/>
		<path class="st1" d="M371.9,371.1c0-1,0-1.8-0.1-2.6h1.3l0.1,1.6h0.1c0.4-1.1,1.3-1.8,2.3-1.8c0.2,0,0.3,0,0.4,0.1v1.4
			c-0.2,0-0.3-0.1-0.5-0.1c-1.1,0-1.8,0.8-2,1.9c0,0.2-0.1,0.4-0.1,0.7v4.4h-1.5V371.1z"/>
		<path class="st1" d="M381.9,376.8l-0.1-1h-0.1c-0.5,0.6-1.3,1.2-2.5,1.2c-1.7,0-2.5-1.2-2.5-2.4c0-2,1.8-3.1,4.9-3.1v-0.2
			c0-0.7-0.2-1.9-1.9-1.9c-0.8,0-1.6,0.2-2.1,0.6l-0.3-1c0.7-0.4,1.7-0.7,2.7-0.7c2.5,0,3.1,1.7,3.1,3.4v3.1c0,0.7,0,1.4,0.1,2
			H381.9z M381.7,372.6c-1.6,0-3.5,0.3-3.5,1.9c0,1,0.6,1.4,1.4,1.4c1.1,0,1.8-0.7,2-1.4c0.1-0.2,0.1-0.3,0.1-0.5V372.6z"/>
		<path class="st1" d="M385.6,370.8c0-0.9,0-1.5-0.1-2.2h1.3l0.1,1.4h0c0.4-0.8,1.4-1.5,2.7-1.5c1.1,0,2.9,0.7,2.9,3.5v4.9h-1.5
			v-4.7c0-1.3-0.5-2.4-1.9-2.4c-1,0-1.8,0.7-2,1.5c-0.1,0.2-0.1,0.4-0.1,0.7v4.9h-1.5V370.8z"/>
		<path class="st1" d="M394.6,375.9c0-0.6,0.4-1.1,1-1.1c0.6,0,1,0.4,1,1.1c0,0.6-0.4,1.1-1,1.1C395,377,394.6,376.5,394.6,375.9z"
			/>
		<path class="st1" d="M404.4,376.5c-0.4,0.2-1.3,0.5-2.4,0.5c-2.5,0-4.1-1.7-4.1-4.2c0-2.5,1.7-4.4,4.4-4.4c0.9,0,1.7,0.2,2.1,0.4
			l-0.3,1.2c-0.4-0.2-0.9-0.4-1.7-0.4c-1.9,0-2.9,1.4-2.9,3.1c0,1.9,1.2,3.1,2.9,3.1c0.8,0,1.4-0.2,1.8-0.4L404.4,376.5z"/>
		<path class="st1" d="M413.5,372.6c0,3-2.1,4.4-4.1,4.4c-2.2,0-3.9-1.6-3.9-4.2c0-2.8,1.8-4.4,4.1-4.4
			C411.9,368.4,413.5,370.1,413.5,372.6z M406.9,372.7c0,1.8,1,3.2,2.5,3.2c1.4,0,2.5-1.3,2.5-3.2c0-1.4-0.7-3.2-2.5-3.2
			S406.9,371.1,406.9,372.7z"/>
		<path class="st1" d="M415.4,370.8c0-0.9,0-1.5-0.1-2.2h1.3l0.1,1.3h0.1c0.5-0.8,1.2-1.5,2.6-1.5c1.1,0,2,0.7,2.3,1.6h0
			c0.3-0.5,0.6-0.8,0.9-1.1c0.5-0.4,1-0.6,1.8-0.6c1.1,0,2.7,0.7,2.7,3.6v4.8h-1.5v-4.7c0-1.6-0.6-2.5-1.8-2.5
			c-0.9,0-1.5,0.6-1.8,1.4c-0.1,0.2-0.1,0.5-0.1,0.7v5.1h-1.5v-4.9c0-1.3-0.6-2.3-1.7-2.3c-0.9,0-1.6,0.7-1.9,1.5
			c-0.1,0.2-0.1,0.5-0.1,0.7v5h-1.5V370.8z"/>
	</g>
</g>
<g id="Layer_4">
	<path class="st1" d="M253.7,100.2c3.3,0,5.3,2.9,6,8.8l-0.6,10.1c3.1,2.8,4.7,5.3,4.7,7.5v1.3l-0.6,3.3h-0.7l-4.7-3.3
		c-16.6,19.3-30.1,31-40.4,35c-0.7,1.4-4.2,3.4-10.8,6v-1.3c10.9-10.1,23.5-20.7,37.7-31.6c4.1-4.2,6.8-7.6,8.1-10.1v-2
		c-4.8-4.3-7.5-7.5-8.1-9.4C244.3,108.1,247.5,103.3,253.7,100.2z M300.9,103.6h0.6c10.4,19.1,15.5,30.3,15.5,33.7l-1.3,1.3
		l-5.4-4.8H309v0.7c0,5.6,3.4,30.5,10.1,74.7l0.7,15.5v0.6c0,12.7-2.2,20.6-6.7,23.6c-5.1,2.9-10,5.1-14.8,6.7
		c-12.8,0-20.4-8.3-22.9-25H274c-9.5,6.2-14.2,9.8-14.2,10.8c-2.4,13.9-5.1,20.9-8.1,20.9c-18.4,21.1-35.7,31.6-51.8,31.6
		c-12.6,0-20-8.3-22.3-24.9v-4.8L181,245v-2.7h-1.3c-30.4,21.5-56.4,32.3-78.1,32.3l-17.5,4l-2.1-0.7v-0.6c1.3-2,12.5-6.5,33.7-13.5
		c37.3-16.4,62-30.8,74.1-43.1l2.1-3.4v-4l-18.2-37l2.1-10.8h1.3c9.9,9.4,14.8,15.4,14.8,18.1H187v0.7l8.8,18.9
		c0.9,2,1.3,4.9,1.3,8.7c0,9.3-3.1,17.4-9.4,24.2c-3.6,10.7-5.4,18.3-5.4,22.9c0,14.4,6.5,21.5,19.5,21.5c14.3,0,30.9-10.3,49.8-31
		l2.1-4l-0.7-2h-2c-4.5,1.3-9.3,2-14.2,2c-9,0-13.5-4.2-13.5-12.7c0-10.4,4.3-17.1,12.8-20.2h2.7c3.7,0,9.7,5.1,18.1,15.4h0.7
		c2.5,0,9.2-4,20.2-12.1h1.3c0.8,0.8,1.7,6,2.7,15.5c3.2,6.7,6.8,10.1,10.8,10.1h4.7c8.1,0,13.8-2.9,16.9-8.7l-14.2-101.7
		c0-4.5-1.1-10.3-3.3-17.5C298.2,106.9,299.5,103.6,300.9,103.6z M335.9,106.9c5.2,7.6,10.1,18.4,14.8,32.3v2.1h-2.1l-4-4h-1.3v0.6
		l12.1,87.5l1.3,10.8l-0.6,0.7v0.6l0.6,5.4c-1.3,11.7-2.9,17.5-4.7,17.5c-0.9,0-1.3-0.7-1.3-2c0-11.6-4.9-50.9-14.8-117.9
		c-1.5-15.3-2.8-22.9-4-22.9C333.2,110.5,334.5,106.9,335.9,106.9z M249.7,110.3v1.3c1.1,2.2,2.9,3.3,5.4,3.3h0.6v-4l-2.7-2.7h-1.3
		L249.7,110.3z M537.9,107.6c2.6,0,4.9,2.7,6.7,8.1c-0.6,2.2-1.3,3.3-2.1,3.3h-1.3c-2.3-2.2-4.3-3.3-6-3.3l-3.4,3.3v2.1
		c-0.4,20.7-1.7,31-4,31c-6.9-13.5-13.6-20.2-20.2-20.2c-2.7-1.8-4-3.8-4-6.1v-4c0.9-1.8,2-2.7,3.4-2.7c3.5,0,10,5.8,19.5,17.5h1.3
		v-10.1C527.8,118,531.2,111.8,537.9,107.6z M588.4,109c3.6,2.5,5.4,5.8,5.4,10.1v8.1c0,1.8,1.8,4.9,5.4,9.4c-0.6,2.3-1.3,3.4-2,3.4
		h-0.7c-2.4-1.8-4.4-2.7-6-2.7h-0.7c-20.7,19.9-37.7,30.9-51.2,33v-0.6c2.9-2.6,13.9-9.8,33-21.5c6.8-5.3,11.5-9.6,14.1-12.8v-1.3
		c-4.5-3.7-6.7-6.8-6.7-9.4v-0.6C580.1,113.9,583.2,109,588.4,109z M162.2,109.6c4.5,2.6,6.7,5.8,6.7,9.4c-0.6,2.3-1.3,3.4-2.1,3.4
		h-0.6l-6.1-4.8c-1.8,0.7-2.7,1.3-2.7,2.1c-0.4,21.5-1.8,32.3-4,32.3c-6-12.2-10.2-18.2-12.7-18.2v-0.6c-1.2,0-3,3.8-5.4,11.4
		c-4.5,5.3-10.6,10-18.2,14.2h-0.6v-1.3c9.2-9.2,15.4-16.3,18.9-21.5v-2.7c-5-4-7.5-7.3-7.5-10.1c0-4,1.5-6,4.5-6s9.8,6.5,20.5,19.5
		h0.6C154.3,118.6,157.3,109.6,162.2,109.6z M389.8,109.6h2.7c1.6,0,2.7,2.5,3.3,7.5l-0.6,11.4c4.5,3.4,6.7,6.3,6.7,8.8l-0.7,2.7
		h-0.6l-8.8-4c-13.8,13.3-25.5,21.4-35,24.2l-0.6-0.7v-0.6l15.4-11.5c10.4-7.5,15.5-12.5,15.5-14.8c-3.2-3.9-4.8-7-4.8-9.4
		C382.3,117.7,384.8,113.2,389.8,109.6z M199.9,110.9v0.7l-1.3,14.8c0,8.5,2.2,12.7,6.7,12.7c1.3-1.9,2-3.7,2-5.4h1.3v1.3h0.7
		c-1.1,8.1-3.6,12.1-7.5,12.1c-4.5-2.9-6.7-8.3-6.7-16.2v-0.6C196.3,118.4,197.8,111.9,199.9,110.9z M479.3,111.7h2.1v2
		c0,3.5-9.9,10.5-29.6,20.9l-31,19.5h-1.3v-2.7c0-3.8,10.1-11,30.3-21.5C450.4,128.5,460.3,122.4,479.3,111.7z M388.4,117.1
		l-2.1,2.7v1.3l3.4,3.3h0.6l1.3-1.3v-2C391.8,118.4,390.6,117.1,388.4,117.1z M582.4,121.1c1.9,3.1,4.1,4.7,6.7,4.7l1.3-1.3v-0.6
		c0-3.5-1.1-5.7-3.4-6.7h-0.6C583.7,117.1,582.4,118.4,582.4,121.1z M269.2,144h0.7l5.4,14.1v1.3c-0.7,9-2.8,13.5-6.1,13.5
		c-1.7,0-4.4-1.3-8.1-4l-8.1,8.1h-2.7c-3.6-3.1-5.4-6-5.4-8.7l1.3-14.2h2.1l0.6,3.4l-0.6,6c0.7,3.6,2.5,5.4,5.4,5.4
		c3.1-1.6,4.7-4.2,4.7-8.1v-1.3l-0.6-7.4l1.3-4.8h0.6c1.4,0,2.5,4.3,3.4,12.8l4.7,4h2.1l1.3-1.3v-2.7c-2.7-3.9-4-7.3-4-10.1v-2
		C267.5,145.3,268.1,144,269.2,144z M488.1,152.7h2v0.7c-2.2,4.1-3.3,8.3-3.3,12.7c0,4.4,1.6,7.6,4.7,9.4h1.3l4-4.7h0.7
		c0,5.6-1.8,9.8-5.4,12.7h-2.7c-4.1-3.1-6.1-6.6-6.1-10.5C483.3,169.3,484.9,162.5,488.1,152.7z M401.2,158.1h0.7
		c6.7,4.1,10.1,7.7,10.1,10.8l-4,8.1h-2.7l-8.1-6h-1.3c-3.2,5.4-5.2,8.1-6,8.1h-2.7c-5.9-3.5-8.8-6.6-8.8-9.4
		c0.7-3.6,2.5-6.5,5.4-8.8c1.1,0,4.3,1.8,9.4,5.4h1.3L401.2,158.1z M589.7,158.1h1.3c-2.2,5-3.3,9-3.3,12.1v0.7
		c0.7,4.9,1.8,7.4,3.3,7.4h2.1c1,0,1.7-1.1,2-3.3h0.7l1.3,1.3c-2.2,6.3-4,9.4-5.4,9.4h-2.7c-3.2-2.1-4.8-6.4-4.8-12.8
		C586.1,166.3,587.9,161.4,589.7,158.1z M441.6,172.3h1.3c0,0.9,4.5,5.8,13.5,14.8v1.3l-0.6,0.6H451v2.1
		c7.7,12.5,11.5,20.6,11.5,24.2v0.6c0,13.2-3.8,22-11.5,26.3c-5.8,4.8-8.7,9.9-8.7,15.4v0.7c0,10.7,5.1,17.8,15.4,21.5l4,0.6
		c18.3,0,37.9-11.9,58.6-35.6c1.3-1.7,2-3.3,2-4.8v-1.3c0-0.9-0.7-1.3-2-1.3l-16.9,2.7h-0.6c-10.4,0-15.5-4.5-15.5-13.5
		c0-9.9,4.7-17.1,14.2-21.5h4c4.2,0,10.7,5.2,19.5,15.5h2.1c4.6-2.1,11.6-6.8,20.8-14.2h2.1c1,0,1.7,1.1,2,3.4l-0.6,5.4
		c3,7.2,7.9,10.8,14.8,10.8c10.8,0,18.9-7,24.2-20.9l2.7-2h1.3v2.7c-1.8,2.9-2.7,5.3-2.7,7.4c2.6,5,7.6,7.5,14.8,7.5h1.3
		c2.3,0,3.6-0.7,4-2.1l-3.4-8.7v-0.7c0.7-5.8,1.8-8.7,3.4-8.7c2.2,0,4.2,4.5,6,13.5v4.7c-1.1,10.4-5.8,15.5-14.1,15.5h-0.7
		c-4.7,0-10.1-2.9-16.2-8.8h-0.6c-6.2,9-13.6,13.5-22.1,13.5c-8.5,0-14.6-5.1-18.3-15.4l-1.3-1.3h-0.7
		c-10.3,6.9-15.4,12.1-15.4,15.4c0,11.4-7.2,22.8-21.5,34.4c-15.9,14.8-29.4,22.2-40.4,22.2h-5.4c-8.9,0-15.9-5.6-20.9-16.8
		c-1.2-2-2.1-5.6-2.7-10.8l0.7-8.8v-2.7h-2.1c-23.5,17-43.7,27.1-60.6,30.3l-26.9,6h-3.3v-0.6c2.5-2.9,14.1-8.3,35-16.2
		c23.8-11.6,46.3-25.5,67.3-41.8c5.8-5,8.7-8.9,8.7-11.5l-14.8-30.3c0-1.6-1.1-4.5-3.3-8.8C439.4,175.6,440.5,172.3,441.6,172.3z
		 M139.9,173.6h1.3v2.7l-4,20.2v4.7c0,12.2,2.5,18.2,7.5,18.2c2.2-1.1,3.3-2.9,3.3-5.4h2.1v0.6c0,9.2-2.7,14.4-8.1,15.5
		c-6.3-3.9-9.4-9.5-9.4-16.9v-4C132.5,200.6,135,188.8,139.9,173.6z M266.5,181.7c2.5,0,5.4,2.5,8.8,7.4c-2.3,5.9-3.9,8.8-4.8,8.8
		h-1.3c-5.4-3.2-8.1-5.7-8.1-7.5C261.7,187.2,263.4,184.3,266.5,181.7z M412.7,182.3h2c0,7.1-3.6,15.1-10.8,24.2v1.3
		c0,0.8,2.9,3.5,8.8,8.1c3.1,4.1,4.7,8.4,4.7,12.8c0,11.6-8.3,20.1-24.9,25.6h-1.3c-5,0-8.1-3.8-9.4-11.5c0-8.3,2-16.8,6-25.6v-2
		c-11.7-10.3-17.5-16.8-17.5-19.6v-5.4l0.7-3.3h0.6l18.2,6.7v1.3l-3.4,3.3c2.8,3.6,5.5,5.4,8.1,5.4h2.1
		C404.1,195.3,409.4,188.1,412.7,182.3z M496.2,224.8c2.5,1.3,4.9,2,7.4,2c5.4-0.2,8.1-0.9,8.1-2v-2.1c-3.3-2.2-6.9-3.3-10.8-3.3
		h-0.6C497.5,220.5,496.2,222.3,496.2,224.8z M386.4,234.9c0.6,4.1,2.9,6.1,6.9,6.1s9.8-3.1,17.4-9.4v-2.1
		c-6.5-6.3-11.7-9.4-15.4-9.4C390.5,224.3,387.6,229.3,386.4,234.9z M230.9,229.5c0.6,1.8,2.6,2.7,6,2.7h4l3.4-0.6v-0.7
		c-1-1.9-3.1-3.4-6.1-4.7C233.3,226.7,230.9,227.8,230.9,229.5z M331.9,244.3h0.6l1.3,1.3l-2,11.5v4c0,3.5,1.1,5.7,3.3,6.7h0.7
		l4-4.8h0.6v0.7c0,6.9-2.5,11-7.4,12.1c-2.7-1.2-4.7-4.6-6.1-10.1C327.6,260.5,329.2,253.3,331.9,244.3z M601.8,250.4l0.7,0.6v0.7
		c-2.3,9.9-5.4,14.8-9.4,14.8l-5.4-1.3h-1.3c-3.6,2.7-6.5,4-8.8,4c-4.3-1.8-7.4-2.7-9.3-2.7c-1.9,0-11.8,5.6-29.7,16.8l-6.7,1.3
		l-0.6-0.6v-0.7c7.3-3.9,18.5-11.3,33.7-22.2l6.7-2.1c3.9,1.8,6.8,2.7,8.7,2.7h2.1c1.7-0.5,4.4-2.9,8.1-7.4c0.9,2.7,1.8,4,2.7,4h4
		c0.7,0,1.8-2.5,3.3-7.5l0.7-0.6H601.8z M272.6,251.7h1.3l-1.3,16.8c0,3.2,1.1,5.4,3.3,6.7h1.3c0.7,0,1.9-1.6,3.4-4.7h1.3v2
		c-1.6,7.2-3.1,10.8-4.8,10.8h-2.7c-4-2.6-6-6.9-6-12.7C269.5,262.8,270.8,256.5,272.6,251.7z M167.6,269.2l0.6,0.6v0.7
		c0,5.2-14.6,13.3-43.7,24.2h-0.7c0-4.3,3.6-7.7,10.8-10.1L167.6,269.2z"/>
</g>
</svg>
