<?xml version="1.0" encoding="utf-8"?>
<!-- Generator: Adobe Illustrator 25.2.3, SVG Export Plug-In . SVG Version: 6.00 Build 0)  -->
<svg version="1.1" xmlns="http://www.w3.org/2000/svg" xmlns:xlink="http://www.w3.org/1999/xlink" x="0px" y="0px"
	 viewBox="0 0 700 395" style="enable-background:new 0 0 700 395;" xml:space="preserve">
<style type="text/css">
	.st0{fill:#000222;}
	.st1{fill:#FFFFFF;}
</style>
<g id="Layer_1">
	<rect class="st0" width="700" height="395"/>
</g>
<g id="Layer_3">
	<g>
		<path class="st1" d="M273.5,368.6l1.1,4.2c0.2,0.9,0.5,1.8,0.6,2.6h0.1c0.2-0.8,0.5-1.7,0.7-2.6l1.3-4.2h1.3l1.3,4.1
			c0.3,1,0.5,1.9,0.7,2.7h0.1c0.1-0.8,0.4-1.7,0.6-2.7l1.2-4.1h1.5l-2.7,8.2H280l-1.3-3.9c-0.3-0.9-0.5-1.7-0.7-2.7h0
			c-0.2,1-0.5,1.8-0.7,2.7l-1.3,3.9h-1.4l-2.5-8.2H273.5z"/>
		<path class="st1" d="M286.3,368.6l1.1,4.2c0.2,0.9,0.5,1.8,0.6,2.6h0.1c0.2-0.8,0.5-1.7,0.7-2.6l1.3-4.2h1.3l1.3,4.1
			c0.3,1,0.5,1.9,0.7,2.7h0.1c0.1-0.8,0.4-1.7,0.6-2.7l1.2-4.1h1.5l-2.7,8.2h-1.4l-1.3-3.9c-0.3-0.9-0.5-1.7-0.7-2.7h0
			c-0.2,1-0.5,1.8-0.7,2.7l-1.3,3.9h-1.4l-2.5-8.2H286.3z"/>
		<path class="st1" d="M299,368.6l1.1,4.2c0.2,0.9,0.5,1.8,0.6,2.6h0.1c0.2-0.8,0.5-1.7,0.7-2.6l1.3-4.2h1.3l1.3,4.1
			c0.3,1,0.5,1.9,0.7,2.7h0.1c0.1-0.8,0.4-1.7,0.6-2.7l1.2-4.1h1.5l-2.7,8.2h-1.4l-1.3-3.9c-0.3-0.9-0.5-1.7-0.7-2.7h0
			c-0.2,1-0.5,1.8-0.7,2.7l-1.3,3.9h-1.4l-2.5-8.2H299z"/>
		<path class="st1" d="M309.9,375.9c0-0.6,0.4-1.1,1-1.1c0.6,0,1,0.4,1,1.1c0,0.6-0.4,1.1-1,1.1C310.3,377,309.9,376.5,309.9,375.9z
			"/>
		<path class="st1" d="M313.5,375.3c0.4,0.3,1.2,0.6,2,0.6c1.1,0,1.6-0.5,1.6-1.2c0-0.7-0.4-1.1-1.5-1.5c-1.5-0.5-2.2-1.3-2.2-2.3
			c0-1.3,1.1-2.4,2.8-2.4c0.8,0,1.6,0.2,2,0.5l-0.4,1.1c-0.3-0.2-0.9-0.5-1.7-0.5c-0.9,0-1.4,0.5-1.4,1.1c0,0.7,0.5,1,1.6,1.4
			c1.4,0.5,2.2,1.3,2.2,2.5c0,1.4-1.1,2.5-3.1,2.5c-0.9,0-1.7-0.2-2.3-0.6L313.5,375.3z"/>
		<path class="st1" d="M327.4,374.6c0,0.9,0,1.6,0.1,2.2h-1.3l-0.1-1.3h0c-0.4,0.7-1.3,1.5-2.7,1.5c-1.3,0-2.8-0.7-2.8-3.6v-4.8h1.5
			v4.6c0,1.6,0.5,2.6,1.8,2.6c1,0,1.7-0.7,2-1.4c0.1-0.2,0.1-0.5,0.1-0.8v-5h1.5V374.6z"/>
		<path class="st1" d="M329.8,371.1c0-1,0-1.8-0.1-2.6h1.3l0.1,1.6h0.1c0.4-1.1,1.3-1.8,2.3-1.8c0.2,0,0.3,0,0.4,0.1v1.4
			c-0.2,0-0.3-0.1-0.5-0.1c-1.1,0-1.8,0.8-2,1.9c0,0.2-0.1,0.4-0.1,0.7v4.4h-1.5V371.1z"/>
		<path class="st1" d="M339.9,376.8l-0.1-1h-0.1c-0.5,0.6-1.3,1.2-2.5,1.2c-1.7,0-2.5-1.2-2.5-2.4c0-2,1.8-3.1,4.9-3.1v-0.2
			c0-0.7-0.2-1.9-1.9-1.9c-0.8,0-1.6,0.2-2.1,0.6l-0.3-1c0.7-0.4,1.7-0.7,2.7-0.7c2.5,0,3.1,1.7,3.1,3.4v3.1c0,0.7,0,1.4,0.1,2
			H339.9z M339.7,372.6c-1.6,0-3.5,0.3-3.5,1.9c0,1,0.6,1.4,1.4,1.4c1.1,0,1.8-0.7,2-1.4c0.1-0.2,0.1-0.3,0.1-0.5V372.6z"/>
		<path class="st1" d="M343.5,364.7h1.5v5.1h0c0.2-0.4,0.6-0.8,1.1-1.1c0.4-0.3,1-0.4,1.5-0.4c1.1,0,2.9,0.7,2.9,3.5v4.9H349v-4.7
			c0-1.3-0.5-2.4-1.9-2.4c-1,0-1.7,0.7-2,1.5c-0.1,0.2-0.1,0.4-0.1,0.7v5h-1.5V364.7z"/>
		<path class="st1" d="M358.6,375.5L358.6,375.5c-0.5,0.8-1.4,1.5-2.7,1.5c-1.9,0-3.5-1.7-3.5-4.2c0-3.1,2-4.4,3.7-4.4
			c1.3,0,2.1,0.6,2.5,1.4h0l0.1-1.2h1.4c0,0.7-0.1,1.4-0.1,2.3v9.3h-1.5V375.5z M358.6,371.9c0-0.2,0-0.4-0.1-0.6
			c-0.2-0.9-1-1.7-2.1-1.7c-1.5,0-2.5,1.3-2.5,3.2c0,1.6,0.8,3.1,2.4,3.1c1,0,1.8-0.6,2.1-1.6c0.1-0.2,0.1-0.5,0.1-0.7V371.9z"/>
		<path class="st1" d="M369.4,374.6c0,0.9,0,1.6,0.1,2.2h-1.3l-0.1-1.3h0c-0.4,0.7-1.3,1.5-2.7,1.5c-1.3,0-2.8-0.7-2.8-3.6v-4.8h1.5
			v4.6c0,1.6,0.5,2.6,1.8,2.6c1,0,1.7-0.7,2-1.4c0.1-0.2,0.1-0.5,0.1-0.8v-5h1.5V374.6z"/>
		<path class="st1" d="M371.9,371.1c0-1,0-1.8-0.1-2.6h1.3l0.1,1.6h0.1c0.4-1.1,1.3-1.8,2.3-1.8c0.2,0,0.3,0,0.4,0.1v1.4
			c-0.2,0-0.3-0.1-0.5-0.1c-1.1,0-1.8,0.8-2,1.9c0,0.2-0.1,0.4-0.1,0.7v4.4h-1.5V371.1z"/>
		<path class="st1" d="M381.9,376.8l-0.1-1h-0.1c-0.5,0.6-1.3,1.2-2.5,1.2c-1.7,0-2.5-1.2-2.5-2.4c0-2,1.8-3.1,4.9-3.1v-0.2
			c0-0.7-0.2-1.9-1.9-1.9c-0.8,0-1.6,0.2-2.1,0.6l-0.3-1c0.7-0.4,1.7-0.7,2.7-0.7c2.5,0,3.1,1.7,3.1,3.4v3.1c0,0.7,0,1.4,0.1,2
			H381.9z M381.7,372.6c-1.6,0-3.5,0.3-3.5,1.9c0,1,0.6,1.4,1.4,1.4c1.1,0,1.8-0.7,2-1.4c0.1-0.2,0.1-0.3,0.1-0.5V372.6z"/>
		<path class="st1" d="M385.6,370.8c0-0.9,0-1.5-0.1-2.2h1.3l0.1,1.4h0c0.4-0.8,1.4-1.5,2.7-1.5c1.1,0,2.9,0.7,2.9,3.5v4.9h-1.5
			v-4.7c0-1.3-0.5-2.4-1.9-2.4c-1,0-1.8,0.7-2,1.5c-0.1,0.2-0.1,0.4-0.1,0.7v4.9h-1.5V370.8z"/>
		<path class="st1" d="M394.6,375.9c0-0.6,0.4-1.1,1-1.1c0.6,0,1,0.4,1,1.1c0,0.6-0.4,1.1-1,1.1C395,377,394.6,376.5,394.6,375.9z"
			/>
		<path class="st1" d="M404.4,376.5c-0.4,0.2-1.3,0.5-2.4,0.5c-2.5,0-4.1-1.7-4.1-4.2c0-2.5,1.7-4.4,4.4-4.4c0.9,0,1.7,0.2,2.1,0.4
			l-0.3,1.2c-0.4-0.2-0.9-0.4-1.7-0.4c-1.9,0-2.9,1.4-2.9,3.1c0,1.9,1.2,3.1,2.9,3.1c0.8,0,1.4-0.2,1.8-0.4L404.4,376.5z"/>
		<path class="st1" d="M413.5,372.6c0,3-2.1,4.4-4.1,4.4c-2.2,0-3.9-1.6-3.9-4.2c0-2.8,1.8-4.4,4.1-4.4
			C411.9,368.4,413.5,370.1,413.5,372.6z M406.9,372.7c0,1.8,1,3.2,2.5,3.2c1.4,0,2.5-1.3,2.5-3.2c0-1.4-0.7-3.2-2.5-3.2
			S406.9,371.1,406.9,372.7z"/>
		<path class="st1" d="M415.4,370.8c0-0.9,0-1.5-0.1-2.2h1.3l0.1,1.3h0.1c0.5-0.8,1.2-1.5,2.6-1.5c1.1,0,2,0.7,2.3,1.6h0
			c0.3-0.5,0.6-0.8,0.9-1.1c0.5-0.4,1-0.6,1.8-0.6c1.1,0,2.7,0.7,2.7,3.6v4.8h-1.5v-4.7c0-1.6-0.6-2.5-1.8-2.5
			c-0.9,0-1.5,0.6-1.8,1.4c-0.1,0.2-0.1,0.5-0.1,0.7v5.1h-1.5v-4.9c0-1.3-0.6-2.3-1.7-2.3c-0.9,0-1.6,0.7-1.9,1.5
			c-0.1,0.2-0.1,0.5-0.1,0.7v5h-1.5V370.8z"/>
	</g>
</g>
<g id="Layer_4">
	<path class="st1" d="M148,105.3h2c4.2,12.1,8.2,37.6,11.8,76.4c1.8,32.3,6.8,50.2,15,53.6c5.9,4,12.2,5.9,19,5.9
		c13.5-0.8,28.1-5.3,43.8-13.8c2.4-2,3.7-3.5,3.9-4.5c0-3.1-5.4-4.6-16.3-4.6h-3.3c-8.3-0.9-12.4-5.1-12.4-12.4
		c0-10,5.2-16.8,15.7-20.3h0.6c4.4,0,10,5.2,17,15.7c2.6,5.9,4.4,11.4,5.2,16.4c0,13.5-6.3,22.4-18.9,26.8
		c-8.3,3-12.5,7.8-12.5,14.4c-0.6,0-1.3,2.8-1.9,8.5c0.7,10,4,15,9.8,15c7.7,0,19.5-10.7,35.3-32c13.5-11.6,26.8-19,39.9-22.2
		l8.5-4.6l0.7-1.9l-2-11.8c1.3-16.6,5.9-24.8,13.8-24.8c6,0,10.1,7,12.4,20.9c0,11.3-3.5,18.9-10.5,22.8l-0.6,2
		c0,3.7,4.8,6.1,14.4,7.1h4.5c10.5-0.9,16.8-3.9,19-9.2v-7.1l-18.3-106.6c1.5-6.5,2.8-9.8,3.9-9.8c0.6,0.1,5.2,9.3,13.7,27.5
		l-0.6,1.9h-2l-3.9-1.9v2.6l13.1,79.8v10.5c0,11-4.8,18.7-14.4,22.8c-4.8,1.7-8.7,2.6-11.8,2.6h-2.6c-9.9,0-17.3-5.2-22.2-15.7
		l-0.6-0.6h-0.7c-2.1,0-9.1,2.8-20.9,8.5c-18.8,6.6-33.6,18.8-44.5,36.6c-6.1,6.6-12.2,9.8-18.3,9.8c-9.6,0-15.9-5.5-18.9-16.4v-1.9
		c0-5.2,0.9-11.3,2.6-18.3v-0.7c0-0.9-0.7-1.3-2-1.3c-6.8,1.7-12.9,2.6-18.3,2.6c-16.7,0-27.6-7.8-32.7-23.5
		c-3.4-13.4-7.1-41.9-11.1-85.6l-5.9-30.8L148,105.3z M314.7,105.3h3.2c1.7,0,3.3,3.1,4.6,9.2l-0.7,9.2c3.5,3,5.2,5.6,5.2,7.8v1.9
		l-1.9,2h-0.7l-3.9-3.3h-1.3c-13.2,17.2-29.1,29.4-47.7,36.6v-0.6l28.1-22.2c9.7-8.2,14.7-13.9,15.1-17c-5.2-4.1-7.8-6.7-7.8-7.8
		C306.9,114,309.5,108.8,314.7,105.3z M190.5,105.9l0.6,0.7v0.6c-1.7,4.1-2.6,7.8-2.6,11.2v0.6c0,2.4,1.1,4.1,3.3,5.2h1.3l3.2-3.2
		h0.7c0,4.9-1.7,8.6-5.2,11.1h-1.3c-3.5-2.2-5.2-5.6-5.2-10.4C185.3,116.9,187,111.6,190.5,105.9z M278.1,106.6v1.3
		c0,4.5-5.9,8.5-17.7,11.8L216,139.9c-25.6,11.2-39.5,19-41.8,23.5v0.7c4.4,3.8,6.5,6.4,6.5,7.8c0,3.3-1.1,5.4-3.2,6.5
		c-5.2-2.5-7.8-5.5-7.8-9.2c0-12,8.5-20.9,25.5-26.8c26.8-13.5,54-25.5,81.8-35.9H278.1z M576.8,106.6c4,2,5.9,4.6,5.9,7.8l-0.7,3.2
		h-1.9l-4.6-3.2h-1.3c-2.6,1.7-3.9,3.7-3.9,5.8l0.7,3.9c-0.9,13.8-1.7,22.1-2.6,24.8h-2c-5.2-12.6-11.3-18.9-18.3-18.9l-4.5-4.6
		v-1.9c0-2.8,0.9-4.8,2.6-5.9c5.6,1.3,12.1,7,19.6,17h1.3v-6.5C567.1,116.6,570.3,109.4,576.8,106.6z M625.2,107.9
		c4,0,5.9,3.9,5.9,11.8v4.5c0,1.6,1.5,4.5,4.5,8.5l0.7,1.9l-0.7,2h-0.6c-1.5,0-3.1-0.7-4.6-2h-3.2c-17,17-33.4,27.9-49.1,32.7
		l-0.6-0.6v-0.7l40.5-27.5c3.5-2.7,5.2-5.1,5.2-7.1c-3.7-3.3-6.1-6.3-7.2-9.2C617.9,112.7,620.9,107.9,625.2,107.9z M382,108.6
		c7.7,14.5,11.9,24.1,12.5,28.8v1.3h-1.3c-2-1.7-3.5-2.6-4.6-2.6v0.7c0.9,9.7,5,36.9,12.5,81.7l1.3,18.3c0,7-1.1,13.6-3.3,19.6h-0.6
		l-1.3-1.3c0-11.5-6.1-56.6-18.3-135.3C379.5,112.3,380.6,108.6,382,108.6z M433.7,109.2c3.5,0.8,5.2,3.4,5.2,7.8l-0.7,10.5
		c4.4,3.1,6.5,6.2,6.5,9.2l-0.6,1.9h-2c-3.3-2.6-5.6-3.9-7.1-3.9c-12.6,12.3-21.1,18.8-25.5,19.6l-7.8,3.9l-0.6-0.6v-1.3
		c14-9.1,23.6-17,28.8-23.5v-1.3c-2.6-3.6-3.9-6.2-3.9-7.8C425.9,117.3,428.5,112.5,433.7,109.2z M521.3,111.2h0.6
		c0,4.6-5,9.2-15,13.8l-43.1,26.8h-0.7c-0.9,0-1.3-0.6-1.3-1.9c0-3.8,10-11,30.1-21.6C509.5,116.8,519.3,111.2,521.3,111.2z
		 M96.4,112.5h1.3c4.4,1.2,6.5,3.6,6.5,7.2v0.6c0,2.3-0.7,3.6-2,3.9h-0.6c-2.7-2.6-4.9-3.9-6.5-3.9l-1.3,5.9
		c0,25.6-3.3,41.1-9.8,46.4c-2.8,2.4-5.8,4.1-9.2,5.2v-1.3c10.1-10.7,15.1-18.7,15.1-24.1c-1.3-5.1-5.9-11.4-13.8-19l-2.6,0.7
		c-4.1-1.7-6.7-3.7-7.8-5.9v-2.6c0-2.8,0.9-4.8,2.6-5.8c4.3,0,11.3,5.9,20.9,17.6l1.3-1.3v-1.9C90.5,123.3,92.4,116.1,96.4,112.5z
		 M311.4,115.1v1.3c0.1,0.8,2,2.3,5.9,4.6h1.3v-5.2l-2.6-2.6h-2.6L311.4,115.1z M620,119.7c0.5,1.2,2.5,2.7,5.9,4.5h0.6l1.3-1.3
		v-1.3c0-3.4-1.1-5.5-3.2-6.5C621.5,115.1,620,116.6,620,119.7z M429.8,119c0,2.4,1.3,4.2,3.9,5.2l1.3-1.3v-4.5l-1.3-1.3h-2
		L429.8,119z M125.8,126.2v0.6l-1.9,7.2v7.8c0,4.6,2.2,7.5,6.5,8.5c1.3-1.6,1.9-3.1,1.9-4.5h2v0.6c-1,7.8-3,11.8-5.9,11.8h-1.3
		c-2.5,0-4.7-4.1-6.5-12.4C120.5,137.5,122.3,131,125.8,126.2z M263.8,131.5l-2.6,11.1v3.3c0.6,4.8,1.7,7.1,3.2,7.1h1.3l3.3-3.2h0.6
		c-0.9,7.4-2.4,11.1-4.5,11.1h-2c-3.5-1.8-5.2-5.5-5.2-11.1v-2.6C259.3,138.4,261.3,133.2,263.8,131.5z M528.5,150.4h1.3l-2.6,13.1
		c0,4,1.5,7,4.6,9.2h1.9c1,0,2.1-1.7,3.3-5.2h0.6l0.7,2c-2,7.4-4.2,11.1-6.5,11.1c-3.7,0-6.3-3.9-7.8-11.8
		C524.3,164.8,525.9,158.7,528.5,150.4z M53.3,152.4h1.3v0.6c-4,14.3-5.9,22.8-5.9,25.5c0,12.4,2.6,19.6,7.8,21.5
		c3.1-2,4.6-4.6,4.6-7.8H63c0,8.4-3.5,15.4-10.5,20.9l-3.2,15.7c0,14.3,6.5,24.1,19.6,29.5l7.8,1.3h10.5c14.4,0,31.8-9.2,52.3-27.5
		l1.9-4.6l-14.4-35.3v-3.9c0.8-3.9,1.6-5.8,2.6-5.8h1.3c0,1.2,3.9,6.2,11.8,15v2h-4.5v0.6c5.6,12.7,8.5,21.2,8.5,25.5
		c0,11.2-8,21.9-24.1,32c-15.7,10.1-28.8,15.1-39.2,15.1h-5.2c-13.8,0-24.3-8.3-31.4-24.8l-1.3-11.2v-1.3c0-6.2,1.7-14.4,5.2-24.8
		c-4-9.1-5.9-15.6-5.9-19.6V187C44.7,176.7,47.6,165.1,53.3,152.4z M628.5,154.3v2.6c-1.7,2.3-2.6,4.7-2.6,7.2v5.2
		c0,2.4,1.1,4.1,3.2,5.2h1.3c1.7-0.9,2.6-2,2.6-3.3h1.3v0.7c0,4.1-1.7,7.4-5.2,9.8h-1.9c-3.1-1.9-4.6-5.5-4.6-11
		S624.6,159.8,628.5,154.3z M444.2,156.9c7,2.8,10.5,6.3,10.5,10.5c-2.2,4.8-4.2,7.2-5.9,7.2l-7.8-5.9c-2.4,0-4.4,2.2-5.8,6.5
		l-2.6,1.3c-5.2-2.6-8.7-5.4-10.5-8.5c2-5.5,4-8.6,5.8-9.2l7.2,4.5h3.2c1,0,2.2-1.7,3.3-5.2L444.2,156.9z M229.1,158.2
		c3.1,0,6.6,2.6,10.5,7.8c-1.7,4.9-3.3,7.8-4.5,8.5h-0.7c-1.3,0-4.5-1.5-9.8-4.6c-1,0-2.5,2-4.6,5.9l-0.6,0.6H216
		c-5.6-2.8-8.5-5.4-8.5-7.8c2-5.2,4.2-7.8,6.5-7.8l9.2,3.9C225.8,160.4,227.7,158.2,229.1,158.2z M314,159.5c1.6,0,4.6,2.2,9.2,6.5
		v0.7c0,2.7-1.7,5.5-5.2,8.5c-7-3-10.5-5.6-10.5-7.8C309.4,162.2,311.5,159.5,314,159.5z M104.2,166.1h0.6v0.7l-0.6,11.1
		c0,4,1.7,6.1,5.2,6.5l3.9-4.5v1.9c0,5.5-1.7,9.2-5.2,11.2c-3.4,0-5.6-3.7-6.5-11.2v-3.9C101.6,175.1,102.5,171.2,104.2,166.1z
		 M482.7,170h1.3l13.8,13.1v2.6h-3.9l-1.3,1.3c7.8,12.6,11.8,21.6,11.8,26.8c0,11.2-4.2,19.7-12.5,25.5c-4.8,4.6-7.1,8.9-7.1,13.1
		c0,10.6,4.6,18,13.7,22.2l3.9,0.7h2c18.4,0,37.8-12.4,58.1-37.3l0.7-3.2v-0.7l-1.3-1.3h-0.7l-19.6,2.6c-8.7-1.3-13.1-5.6-13.1-13.1
		v-1.9c3-12.7,7.8-19,14.4-19h0.7c6.7,0,13.9,5,21.5,15.1h2l20.9-14.4h1.3c0.7,0.8,1.3,4.9,1.9,12.4c3.8,4.4,7.8,6.5,11.8,6.5h5.2
		c7.8,0,15-7.4,21.6-22.2h1.3l0.6,0.7h0.7l-2.6,7.8v1.9c2.7,4.4,7.7,6.5,15,6.5h2l2.6-2.6l-3.3-9.2c0.8-5.6,1.9-8.5,3.3-8.5
		c2,0,4,5.2,5.8,15.7c0,11.7-5,17.6-15,17.6c-4.1,0-9.3-3.1-15.7-9.2c-5.8,9.2-13.6,13.8-23.5,13.8c-7.2,0-12.4-5.2-15.7-15.7v-0.7
		h-2c-9.6,6.8-14.4,11.6-14.4,14.4c0,11.7-7.2,23.4-21.5,35.3c-15.6,14.4-29.3,21.6-41.1,21.6c-11.8,0-20.1-6.8-25-20.3l-0.6-8.5
		l0.6-9.2h-1.3c-18.6,12.8-35.2,22-49.7,27.5l-38.5,8.5l-0.7-0.6v-0.7l41.8-18.9c23.1-11.9,44.2-26.5,63.5-43.8l1.9-3.2v-2
		c0-1.5-4.6-10.7-13.7-27.5l-3.9-11.1L482.7,170z M456.6,179.8l0.7,0.6h0.6c-1,7.1-4.7,14.9-11.1,23.5v1.3
		c8.7,5.8,13.1,11.4,13.1,17c0,10.6-3.7,17.8-11.2,21.6c-4,3.9-8.8,5.8-14.4,5.8c-5.6,0-8.4-4.1-8.4-12.4c0-6.4,1.9-14.2,5.8-23.5
		v-2c-11.3-10.2-17-16.5-17-18.9v-7.2l1.3-1.3c11.3,3.6,17,6.2,17,7.8v1.3l-2.6,0.7v1.3c2.9,3.5,5.5,5.2,7.8,5.2h2L456.6,179.8z
		 M276.1,191.6h8.5c2.6,0.3,3.9,0.9,3.9,1.9v0.7c0,7.1-5.5,12.6-16.4,16.3h-1.9l10.5-9.8v-0.7l-5.2-0.6c-3.5,0-6.8,1.5-9.8,4.5h-1.3
		C266,195.7,269.9,191.6,276.1,191.6z M188.5,192.2h1.3l-0.6,9.8v0.6c0,3.5,1.5,6.3,4.5,8.5c1.5,0,2.6-1.7,3.3-5.2h0.6l1.3,1.3
		c-1.4,7.8-3.3,11.8-5.8,11.8c-4.8-2-7.2-6.6-7.2-13.8L188.5,192.2z M313.4,206v0.6c0,3.4,1.5,7.4,4.5,11.8h1.3
		c7-2.4,10.5-5.4,10.5-9.2c-2.6-7.4-5.7-11.1-9.2-11.1C315.8,200.1,313.4,202.7,313.4,206z M219.3,202.7v1.3
		c0.6,1.7,2.5,2.6,5.8,2.6l8.5-1.3V204c-2.4-3-5.1-4.5-8.3-4.5S220.2,200.5,219.3,202.7z M94.4,207.3h0.7c6.5,3.4,9.8,6.2,9.8,8.5
		c-2.3,5.2-3.8,7.8-4.5,7.8H99c-5-3-7.8-5.2-8.5-6.5v-1.3C90.5,212,91.8,209.2,94.4,207.3z M537,218.4v1.3c0,1.2,2.4,2.1,7.1,2.6
		c5.7-0.4,8.5-1.3,8.5-2.6c-0.5-1.2-2.5-2.7-5.9-4.5h-4.5C539.9,215.2,538.1,216.2,537,218.4z M431.1,228.8v4.6l3.2,3.2h5.2
		c8.7-3.9,13.5-7.4,14.4-10.5c0-2.8-4.8-6-14.4-9.8h-1.3C436.7,216.5,434.4,220.6,431.1,228.8z M78.7,221l0.7,0.7
		c-0.9,2-1.3,4.8-1.3,8.5v0.7c0.3,6.1,1.4,9.2,3.2,9.2h1.3c1.7-0.9,2.6-2.2,2.6-3.9h0.7l0.6,0.6h0.7c-1.5,7.4-3.1,11.2-4.6,11.2H82
		c-4.8,0-7.2-3.9-7.2-11.8C76.1,226,77.4,221,78.7,221z M374.9,244.5h0.6l-2.6,8.5v5.2c0.3,4.4,1.7,6.5,3.9,6.5l3.9-3.3h0.7
		c-2.2,7.4-4.3,11.2-6.5,11.2c-4-1.6-5.9-5.5-5.9-11.8C371.2,250,373.1,244.5,374.9,244.5z M639.6,245.2l0.7,0.6v0.7
		c-2.1,9.1-4.5,13.7-7.2,13.7l-8.5-0.6c-3,2.2-5.1,3.2-6.5,3.2h-2.6l-6.5-1.9h-2c-2.3,0-11.6,5.4-28.1,16.3l-6.5,1.3h-0.7
		c21.7-15.7,34.3-24,37.9-24.8l9.8,3.3c2.6-0.7,5.6-3.1,9.2-7.2c2.3,2.6,4.5,3.9,6.5,3.9c1.7-2,2.6-4.2,2.6-6.5L639.6,245.2z
		 M299.1,247.8l1.3,1.3c-1.3,2-2,6-2,11.8v2.6c0,3.5,1.5,5.2,4.6,5.2h0.6c1,0,1.7-1.5,2-4.6h1.9v0.7c-1.7,7.8-3.4,11.8-5.2,11.8
		h-2.6c-2,0-3.8-3.5-5.2-10.5L299.1,247.8z M168.3,255.7v0.6c0,4.4-4.6,8.5-13.8,12.5c-23.9,13.9-37.4,20.9-40.5,20.9v-2
		c0-2.9,3.7-6,11.2-9.2l41.1-22.8H168.3z M184.6,257v0.6l-1.9,9.8c0.7,6.1,2,9.2,3.9,9.2h1.3c1.7-0.7,2.6-2.2,2.6-4.6h1.9v0.7
		c0,4.8-1.9,8.7-5.8,11.8c-3.5,0-5.7-3.7-6.5-11.2C181.1,263.3,182.6,257.9,184.6,257z"/>
</g>
</svg>
