<?xml version="1.0" encoding="utf-8"?>
<!-- Generator: Adobe Illustrator 25.2.3, SVG Export Plug-In . SVG Version: 6.00 Build 0)  -->
<svg version="1.1" xmlns="http://www.w3.org/2000/svg" xmlns:xlink="http://www.w3.org/1999/xlink" x="0px" y="0px"
	 viewBox="0 0 700 395" style="enable-background:new 0 0 700 395;" xml:space="preserve">
<style type="text/css">
	.st0{fill:#000222;}
	.st1{fill:#FFFFFF;}
</style>
<g id="Layer_1">
	<rect class="st0" width="700" height="395"/>
</g>
<g id="Layer_3">
	<g>
		<path class="st1" d="M273.5,368.6l1.1,4.2c0.2,0.9,0.5,1.8,0.6,2.6h0.1c0.2-0.8,0.5-1.7,0.7-2.6l1.3-4.2h1.3l1.3,4.1
			c0.3,1,0.5,1.9,0.7,2.7h0.1c0.1-0.8,0.4-1.7,0.6-2.7l1.2-4.1h1.5l-2.7,8.2H280l-1.3-3.9c-0.3-0.9-0.5-1.7-0.7-2.7h0
			c-0.2,1-0.5,1.8-0.7,2.7l-1.3,3.9h-1.4l-2.5-8.2H273.5z"/>
		<path class="st1" d="M286.3,368.6l1.1,4.2c0.2,0.9,0.5,1.8,0.6,2.6h0.1c0.2-0.8,0.5-1.7,0.7-2.6l1.3-4.2h1.3l1.3,4.1
			c0.3,1,0.5,1.9,0.7,2.7h0.1c0.1-0.8,0.4-1.7,0.6-2.7l1.2-4.1h1.5l-2.7,8.2h-1.4l-1.3-3.9c-0.3-0.9-0.5-1.7-0.7-2.7h0
			c-0.2,1-0.5,1.8-0.7,2.7l-1.3,3.9h-1.4l-2.5-8.2H286.3z"/>
		<path class="st1" d="M299,368.6l1.1,4.2c0.2,0.9,0.5,1.8,0.6,2.6h0.1c0.2-0.8,0.5-1.7,0.7-2.6l1.3-4.2h1.3l1.3,4.1
			c0.3,1,0.5,1.9,0.7,2.7h0.1c0.1-0.8,0.4-1.7,0.6-2.7l1.2-4.1h1.5l-2.7,8.2h-1.4l-1.3-3.9c-0.3-0.9-0.5-1.7-0.7-2.7h0
			c-0.2,1-0.5,1.8-0.7,2.7l-1.3,3.9h-1.4l-2.5-8.2H299z"/>
		<path class="st1" d="M309.9,375.9c0-0.6,0.4-1.1,1-1.1c0.6,0,1,0.4,1,1.1c0,0.6-0.4,1.1-1,1.1C310.3,377,309.9,376.5,309.9,375.9z
			"/>
		<path class="st1" d="M313.5,375.3c0.4,0.3,1.2,0.6,2,0.6c1.1,0,1.6-0.5,1.6-1.2c0-0.7-0.4-1.1-1.5-1.5c-1.5-0.5-2.2-1.3-2.2-2.3
			c0-1.3,1.1-2.4,2.8-2.4c0.8,0,1.6,0.2,2,0.5l-0.4,1.1c-0.3-0.2-0.9-0.5-1.7-0.5c-0.9,0-1.4,0.5-1.4,1.1c0,0.7,0.5,1,1.6,1.4
			c1.4,0.5,2.2,1.3,2.2,2.5c0,1.4-1.1,2.5-3.1,2.5c-0.9,0-1.7-0.2-2.3-0.6L313.5,375.3z"/>
		<path class="st1" d="M327.4,374.6c0,0.9,0,1.6,0.1,2.2h-1.3l-0.1-1.3h0c-0.4,0.7-1.3,1.5-2.7,1.5c-1.3,0-2.8-0.7-2.8-3.6v-4.8h1.5
			v4.6c0,1.6,0.5,2.6,1.8,2.6c1,0,1.7-0.7,2-1.4c0.1-0.2,0.1-0.5,0.1-0.8v-5h1.5V374.6z"/>
		<path class="st1" d="M329.8,371.1c0-1,0-1.8-0.1-2.6h1.3l0.1,1.6h0.1c0.4-1.1,1.3-1.8,2.3-1.8c0.2,0,0.3,0,0.4,0.1v1.4
			c-0.2,0-0.3-0.1-0.5-0.1c-1.1,0-1.8,0.8-2,1.9c0,0.2-0.1,0.4-0.1,0.7v4.4h-1.5V371.1z"/>
		<path class="st1" d="M339.9,376.8l-0.1-1h-0.1c-0.5,0.6-1.3,1.2-2.5,1.2c-1.7,0-2.5-1.2-2.5-2.4c0-2,1.8-3.1,4.9-3.1v-0.2
			c0-0.7-0.2-1.9-1.9-1.9c-0.8,0-1.6,0.2-2.1,0.6l-0.3-1c0.7-0.4,1.7-0.7,2.7-0.7c2.5,0,3.1,1.7,3.1,3.4v3.1c0,0.7,0,1.4,0.1,2
			H339.9z M339.7,372.6c-1.6,0-3.5,0.3-3.5,1.9c0,1,0.6,1.4,1.4,1.4c1.1,0,1.8-0.7,2-1.4c0.1-0.2,0.1-0.3,0.1-0.5V372.6z"/>
		<path class="st1" d="M343.5,364.7h1.5v5.1h0c0.2-0.4,0.6-0.8,1.1-1.1c0.4-0.3,1-0.4,1.5-0.4c1.1,0,2.9,0.7,2.9,3.5v4.9H349v-4.7
			c0-1.3-0.5-2.4-1.9-2.4c-1,0-1.7,0.7-2,1.5c-0.1,0.2-0.1,0.4-0.1,0.7v5h-1.5V364.7z"/>
		<path class="st1" d="M358.6,375.5L358.6,375.5c-0.5,0.8-1.4,1.5-2.7,1.5c-1.9,0-3.5-1.7-3.5-4.2c0-3.1,2-4.4,3.7-4.4
			c1.3,0,2.1,0.6,2.5,1.4h0l0.1-1.2h1.4c0,0.7-0.1,1.4-0.1,2.3v9.3h-1.5V375.5z M358.6,371.9c0-0.2,0-0.4-0.1-0.6
			c-0.2-0.9-1-1.7-2.1-1.7c-1.5,0-2.5,1.3-2.5,3.2c0,1.6,0.8,3.1,2.4,3.1c1,0,1.8-0.6,2.1-1.6c0.1-0.2,0.1-0.5,0.1-0.7V371.9z"/>
		<path class="st1" d="M369.4,374.6c0,0.9,0,1.6,0.1,2.2h-1.3l-0.1-1.3h0c-0.4,0.7-1.3,1.5-2.7,1.5c-1.3,0-2.8-0.7-2.8-3.6v-4.8h1.5
			v4.6c0,1.6,0.5,2.6,1.8,2.6c1,0,1.7-0.7,2-1.4c0.1-0.2,0.1-0.5,0.1-0.8v-5h1.5V374.6z"/>
		<path class="st1" d="M371.9,371.1c0-1,0-1.8-0.1-2.6h1.3l0.1,1.6h0.1c0.4-1.1,1.3-1.8,2.3-1.8c0.2,0,0.3,0,0.4,0.1v1.4
			c-0.2,0-0.3-0.1-0.5-0.1c-1.1,0-1.8,0.8-2,1.9c0,0.2-0.1,0.4-0.1,0.7v4.4h-1.5V371.1z"/>
		<path class="st1" d="M381.9,376.8l-0.1-1h-0.1c-0.5,0.6-1.3,1.2-2.5,1.2c-1.7,0-2.5-1.2-2.5-2.4c0-2,1.8-3.1,4.9-3.1v-0.2
			c0-0.7-0.2-1.9-1.9-1.9c-0.8,0-1.6,0.2-2.1,0.6l-0.3-1c0.7-0.4,1.7-0.7,2.7-0.7c2.5,0,3.1,1.7,3.1,3.4v3.1c0,0.7,0,1.4,0.1,2
			H381.9z M381.7,372.6c-1.6,0-3.5,0.3-3.5,1.9c0,1,0.6,1.4,1.4,1.4c1.1,0,1.8-0.7,2-1.4c0.1-0.2,0.1-0.3,0.1-0.5V372.6z"/>
		<path class="st1" d="M385.6,370.8c0-0.9,0-1.5-0.1-2.2h1.3l0.1,1.4h0c0.4-0.8,1.4-1.5,2.7-1.5c1.1,0,2.9,0.7,2.9,3.5v4.9h-1.5
			v-4.7c0-1.3-0.5-2.4-1.9-2.4c-1,0-1.8,0.7-2,1.5c-0.1,0.2-0.1,0.4-0.1,0.7v4.9h-1.5V370.8z"/>
		<path class="st1" d="M394.6,375.9c0-0.6,0.4-1.1,1-1.1c0.6,0,1,0.4,1,1.1c0,0.6-0.4,1.1-1,1.1C395,377,394.6,376.5,394.6,375.9z"
			/>
		<path class="st1" d="M404.4,376.5c-0.4,0.2-1.3,0.5-2.4,0.5c-2.5,0-4.1-1.7-4.1-4.2c0-2.5,1.7-4.4,4.4-4.4c0.9,0,1.7,0.2,2.1,0.4
			l-0.3,1.2c-0.4-0.2-0.9-0.4-1.7-0.4c-1.9,0-2.9,1.4-2.9,3.1c0,1.9,1.2,3.1,2.9,3.1c0.8,0,1.4-0.2,1.8-0.4L404.4,376.5z"/>
		<path class="st1" d="M413.5,372.6c0,3-2.1,4.4-4.1,4.4c-2.2,0-3.9-1.6-3.9-4.2c0-2.8,1.8-4.4,4.1-4.4
			C411.9,368.4,413.5,370.1,413.5,372.6z M406.9,372.7c0,1.8,1,3.2,2.5,3.2c1.4,0,2.5-1.3,2.5-3.2c0-1.4-0.7-3.2-2.5-3.2
			S406.9,371.1,406.9,372.7z"/>
		<path class="st1" d="M415.4,370.8c0-0.9,0-1.5-0.1-2.2h1.3l0.1,1.3h0.1c0.5-0.8,1.2-1.5,2.6-1.5c1.1,0,2,0.7,2.3,1.6h0
			c0.3-0.5,0.6-0.8,0.9-1.1c0.5-0.4,1-0.6,1.8-0.6c1.1,0,2.7,0.7,2.7,3.6v4.8h-1.5v-4.7c0-1.6-0.6-2.5-1.8-2.5
			c-0.9,0-1.5,0.6-1.8,1.4c-0.1,0.2-0.1,0.5-0.1,0.7v5.1h-1.5v-4.9c0-1.3-0.6-2.3-1.7-2.3c-0.9,0-1.6,0.7-1.9,1.5
			c-0.1,0.2-0.1,0.5-0.1,0.7v5h-1.5V370.8z"/>
	</g>
</g>
<g id="Layer_4">
	<path class="st1" d="M285.2,96.7c1.8,2,3.2,5,4.1,8.9l-0.6,3.5v5.5c1.8,1.9,2.7,3.8,2.7,5.5v2l-2.1,2.1l-4.1-1.4l-9.6,10.2
		c-16,13.2-27.1,20.3-33.5,21.3h-0.7v-0.7c7.4-6.9,19-16.5,35-28.8c2.3-2.3,3.4-4.4,3.4-6.1l-6.1-6.9v-0.7
		C273.6,101.5,277.5,96.7,285.2,96.7z M567.6,103.6c3.7,1.6,5.5,4.6,5.5,8.9c-0.6,2.3-1.3,3.5-2,3.5h-0.7l-5.5-4.1h-1.4
		c-2.7,0-4.1,9.1-4.1,27.4c-0.9,5.9-2,8.9-3.4,8.9c-7.1-12.8-12.6-19.2-16.4-19.2c-5.5-1.6-8.2-4.8-8.2-9.6c0-1.9,0.9-3.5,2.7-4.8
		c4,0,11.1,6.2,21.2,18.5h0.7v-9.6C556,113.1,559.9,106.5,567.6,103.6z M279.7,107l3.5,3.5h0.6l1.4-1.4v-0.7l-2.7-2.7h-1.4
		L279.7,107z M416.2,105h0.6c3,0,4.8,2.3,5.5,6.9l-0.6,6.1v5.5c3.8,3.7,6.1,6.6,6.9,9c-0.5,2.3-1.4,3.4-2.7,3.4l-6.2-4.1h-0.6
		c-1.8,0-6.2,3.7-13.1,11c-6.2,5.4-14.1,9.9-23.9,13.7l-0.7-0.6V155l29.5-22.6c1.3-1.6,2-3.3,2-4.8c-2.3-2.3-3.8-5.2-4.8-8.9
		C410.6,109.5,413.3,105,416.2,105z M327.1,105.6h1.4c9.6,18.3,14.3,29.7,14.3,34.3h-2c-2.1-1.8-3.7-2.7-4.8-2.7v0.7l11.7,87v0.7
		c0,16.4-4.8,24.7-14.4,24.7c-4.7,0-9.7-2.3-15.1-6.9h-2c-3.1,7.3-7.2,11-12.3,11c-4-0.3-8.3-2.8-13.1-7.6
		c-6.3,6.4-12.8,9.6-19.5,9.6s-11.4-3.4-14-10.2c-1.7,0-6.1,3.2-13.1,9.6l-14.3,2.7c-6.6,0-16.4-5.9-29.5-17.8l-2-1.4
		c-34.3,10.8-57.1,25-68.5,42.5c-9.3,11-17.7,16.4-25.4,16.4h-0.6c-9,0-15.1-7.6-18.6-22.7v-2c0-11.1,6.2-24.2,18.6-39.1l0.6-0.6
		h2.1v1.4c-11,16.8-16.4,29.6-16.4,38.4v1.4c0.7,7.3,4.4,11,11,11h4.1c6.2,0,19-11.2,38.4-33.6c10.1-7.4,23.8-14.4,41.1-21.2
		l0.6-0.7v-0.6c0-1.8-4.6-4.6-13.7-8.2h-2l-8.2,2.7l-1.4-2.1c2.6-9.6,6.9-14.3,13-14.3c8.1-3.7,17.2-5.5,27.4-5.5
		c16.4,0,27.7,4.1,33.6,12.3c0,6-5.7,11.1-17.2,15.1l-4.1,3.4v0.7c6.8,7.7,14.1,11.6,22.1,11.6s16.4-5.5,25.2-16.4l2.7-0.6v8.2
		c2.3,4.6,6.6,6.9,13.2,6.9c6.5,0,13.1-5,19.7-15.1h1.4l0.6,0.6h0.7l-0.7,3.5v4.1c2.1,3.2,4.9,4.8,8.2,4.8c4.6,0,8.7-5.5,12.3-16.4
		h1.4c0.7,0,1.6,2.1,2.7,6.2c4.3,3.7,7.9,5.5,11,5.5h4.8l2.7-2.7l-14.4-104.2c0-5.6-0.9-10-2.7-13.1L327.1,105.6z M362,105.6
		c9.1,17.5,13.7,28,13.7,31.5l-1.4,1.4c-2.9-2.7-4.9-4.1-6.1-4.1v0.7l14.3,100.1l-0.6,0.6v0.7l0.6,5.5c-1.3,13.2-3.2,19.8-5.5,19.8
		l-3.4-37l-16.4-109.7C358.7,109.2,360.3,106,362,105.6z M617.7,105.6c3.6,0,5.6,4.4,6.1,13.1v6.9c3.2,3.8,4.8,6.5,4.8,8.2v1.4
		l-1.4,1.4h-0.7c-2.4-1.8-4.5-2.7-6.1-2.7h-0.7c-22.5,20.7-40.3,31.8-53.5,33.5v-0.6c2.4-2.6,14.3-10.3,35.6-23.3
		c8.7-6.8,13.1-10.9,13.1-12.3c-4.6-5.1-6.9-8.8-6.9-11C609.5,110.4,612.7,105.6,617.7,105.6z M508.6,107v1.4h0.7
		c0,4.1-10.5,11.7-31.5,22.7c-13.3,9-23.8,15.2-31.5,18.5l-0.7-2c0-3.7,7.1-9.1,21.3-16.4l41.1-24H508.6z M187.9,110.5l1.4,2.7
		c0,3.6-6.6,7.9-19.8,13l-47.3,26.8h-1.4v-1.4h-0.6c0-4.9,10.5-12.4,31.5-22.7C165,120.9,177.1,114.7,187.9,110.5z M102.2,111.8
		c6.5,9.7,11.2,19,14.3,28.1L116,142h-1.4l-4.1-3.5h-1.4c10.1,50.9,15.1,82.2,15.1,93.9c-1.4,13.7-3.2,20.6-5.5,20.6l-0.7-0.7h-0.6
		l0.6-8.2c0-12.2-6.4-52.4-19.2-120.6l-0.6-0.6C99.7,115.5,101,111.8,102.2,111.8z M412.7,115.2v1.4c0.9,2.3,2.5,3.5,4.8,3.5
		l0.6-0.7v-2.7c0-2.3-0.7-3.7-2-4.1h-0.7L412.7,115.2z M612.2,115.9v2c2.1,2.7,4.4,4.1,6.9,4.1h0.6v-5.5l-2.7-2.7h-2.7L612.2,115.9z
		 M250.3,116.6l2,0.7v0.6c0,5.5-6.2,10.1-18.5,13.7c-35,17.5-57.4,29.2-67.2,35c-1.6,0-10.6,5.7-26.8,17.1l-0.6-0.6v-0.7
		c0-5.8,5.7-11.9,17.1-18.5C170.8,154.3,202.2,138.5,250.3,116.6z M81.7,125.5c4.1,2.1,6.1,5.1,6.1,8.9l-0.6,3.5h-1.4l-4.8-3.5
		l-2,2.1v19.8c0,14.4-5.7,24.3-17.2,29.5l-0.6-0.7v-0.6c8.7-9.9,13-15.8,13-17.8v-1.4c-4-11.5-9.7-17.2-17.1-17.2
		c-2.3-1.5-3.5-3.3-3.5-5.5V142c0-3.4,0.7-5.2,2.1-5.5c4.8,0,11.2,5.2,19.2,15.7l0.6-0.6h0.7l-0.7-4.8v-8.2
		C76.2,129.9,78.3,125.5,81.7,125.5z M294.2,137.1c1.6,0,3.2,4.4,4.8,13.1c0,6.8-2.5,10.2-7.5,10.2H290l-5.5-1.4
		c-3.4,3.7-6.6,5.5-9.6,5.5c-3.7-1.9-5.5-4.2-5.5-6.9l1.4-13h0.6c1,0,1.9,3.4,2.7,10.2l3.5,0.7h1.4c2.3-1.2,3.4-3,3.4-5.5V142
		l0.7-3.5h1.4c1.2,0,2.1,3.4,2.7,10.3l2.7,2.7h3.4v-1.4l-1.4-7.6v-1.4C292.4,138.5,293.1,137.1,294.2,137.1z M516.9,148.1v1.4
		l-2.7,9.6v5.5c0,2.6,1.6,5.1,4.8,7.6h1.4c1-0.2,2.2-2.1,3.4-5.5h1.4c0,6.5-2,11.1-6.1,13.7h-2.1c-4.1-2.4-6.1-6.8-6.1-13.1v-1.4
		C510.8,160.2,512.8,154.3,516.9,148.1z M427.1,154.3h1.4c4.6,2.5,8,5.7,10.2,9.6c-1,4.6-3.1,7.8-6.1,9.6h-0.7
		c-5.1-4.1-8.5-6.2-10.2-6.2c-0.7,0-2.3,2.5-4.8,7.6l-0.6,0.6h-0.7c-2.2,0-5.8-2.7-11-8.2v-0.6c0-3.8,1.6-7,4.8-9.6h2l6.9,4.8h2.1
		L427.1,154.3z M620.4,154.3v1.4l-2.7,9.6v4.8c0,2.5,1.1,4.3,3.4,5.5h1.4l3.5-3.4h0.6v0.6c0,5.7-2.3,9.3-6.9,11
		c-2.9,0-5-3.9-6.1-11.6C613.6,166.5,615.8,160.5,620.4,154.3z M232.5,157.7h0.6v0.7c-1.3,6.6-2,13-2,19.2c0,3,1.1,5.5,3.4,7.5h2.7
		c0.5-2.7,1.2-4.1,2.1-4.1l1.4,1.4c0,5.9-1.8,10-5.5,12.3h-1.4c-4.6-3.7-6.9-8.3-6.9-13.7C227,171.4,228.8,163.7,232.5,157.7z
		 M287.3,168.7c2.9,0,6.1,2.7,9.6,8.2c-1.8,4.4-3.9,7.4-6.2,9h-1.4c-5.5-4.3-8.2-7.1-8.2-8.2C282.4,173.7,284.5,170.7,287.3,168.7z
		 M467.5,168.7h1.4c9.6,9.1,14.4,14.1,14.4,15.1v1.4h-3.5l-1.4,1.4c7.3,14.9,11,24.7,11,29.5c0,11.3-4.6,20.2-13.7,26.7
		c-4.6,4.3-6.9,8.8-6.9,13.7c1.7,14.6,7,21.9,15.8,21.9l6.9,1.4c15.2,0,33.7-11.6,55.5-34.9l3.5-5.5v-1.4l-1.4-1.4h-1.4l-18.6,2
		c-8.1,0-12.9-3.7-14.3-11v-6.1c3-12.4,8.2-18.6,15.7-18.6h2.7c4,0,9.3,3.9,15.8,11.7c1.5,2.7,3.3,4.1,5.5,4.1l22.6-14.4h0.7l2,4.8
		l-0.6,2.7c0,6.5,4.3,10.6,13,12.3h6.2c8,0,15.3-7.1,21.9-21.3l2-1.4h1.4v1.4l-2.7,9c3.4,5,7.8,7.5,13.1,7.5h3.4l3.5-0.6v-1.4
		l-2.7-8.2l2-10.3h2.7c3.2,7.8,4.8,13.7,4.8,17.8c-1.8,11.5-6.6,17.2-14.4,17.2c-5,0-10.2-2.7-15.7-8.2c0-0.9-0.9-1.4-2.7-1.4
		c-5.7,9.1-13.4,13.7-23.3,13.7c-11.5-2.4-17.2-7.9-17.2-16.4l-0.6-0.7h-2.1c-10.1,6.2-15.1,11.5-15.1,15.8
		c0,15.2-14.8,32.1-44.5,50.7c-7.8,4.1-15.4,6.1-22.7,6.1c-11.5,0-19.7-7.3-24.7-21.9l-0.6-5.5l0.6-6.1v-6.2l-30.2,17.8
		c-10.8,6.5-22.5,10.8-34.9,13.1l-26.8,5.5h-2.7v-0.7c3.2-2.4,16.5-8.4,39.8-17.8l47.3-27.4c17.4-12.7,26-21.1,26-25.3v-1.4
		c-6.6-11-12.5-24-17.8-39.1L467.5,168.7z M440.1,178.3h1.4v0.7c0,5.9-4.1,14.6-12.3,26l10.3,9.6c2.7,4.1,4.1,7.6,4.1,10.2
		c0,12.6-7.3,21.5-21.9,26.8l-5.5,1.4c-4.9,0-7.9-4.1-9-12.3c0-8,2.1-16.7,6.2-26c0-2.1-4.1-6.7-12.3-13.7c0-0.9-1.4-2.7-4.1-5.5
		l-0.7-4.1v-4.8l0.7-3.4c10.6,3.4,16.8,6.1,18.5,8.2c0,1.3-0.7,2-2,2l-0.7,0.7v1.4c0.9,1.5,3.4,3.6,7.6,6.1h1.4L440.1,178.3z
		 M296.9,184.5h2c2.6,1.5,5.4,4,8.2,7.5v2.7c-2.8,5.1-4.6,7.6-5.5,7.6h-2c-4-3.2-6.7-4.8-8.2-4.8c-3,4.1-5.6,6.2-7.7,6.2
		s-5.3-2.5-9.5-7.6c1.8-6.4,4.4-9.6,7.6-9.6l6.1,3.5h3.5L296.9,184.5z M139.9,193.3h1.4l-0.6,15.1c0,2.3,1.4,4.6,4.1,6.9h1.4
		c0.7,0,1.6-1.4,2.7-4.1h0.6l0.7,2.1c-1.2,7.3-3,11-5.5,11c-4,0-6.5-4.6-7.6-13.7L139.9,193.3z M74.8,196.8c3,0,5.1,1.8,6.1,5.5
		c-1.6,5-3.5,7.5-5.5,7.5l-3.4-2.7h-3.5c-3.2,1.9-4.8,3.3-4.8,4.1c0,4.6,4.1,6.9,12.3,6.9l17.8-4.8l0.6,0.6v0.7
		c0,5.2-7.8,10-23.3,14.3L59,235.8v-0.6l2.7-9c-4.1-3.2-6.1-6.2-6.1-8.9c2.4-8.3,7.9-15.1,16.4-20.6H74.8z M192.7,216.6v1.4
		c3.3,3.7,5.8,5.5,7.5,5.5l9.6-4.1v-2l-11.6-1.4h-2.1L192.7,216.6z M523.7,220.8v1.4c0.5,1.4,1.9,2.1,4.1,2.1h10.3l1.4-1.4v-0.7
		c-2.9-3.2-5.6-4.8-8.2-4.8h-3.5L523.7,220.8z M412.7,231.1v2.7c0,3.2,1.6,4.8,4.8,4.8h2.7c11-4.1,16.4-8,16.4-11.6
		c-5.8-5.3-10.8-8.3-15.1-9h-1.4C416.2,221.8,413.7,226.2,412.7,231.1z M89.9,236.6h0.6l0.7,2c0,3.2-9.6,10.1-28.8,20.6
		c-4.1,3.2-7.1,5.1-9,5.5l-1.4-1.4c0-3.8,10.3-11.6,30.9-23.3C85.4,237.7,87.7,236.6,89.9,236.6z M355.1,245.4v0.7l-2,14.3
		c0.5,6.4,1.9,9.6,4.1,9.6h1.4c0.7,0,1.6-1.4,2.7-4.1h1.4v1.4c-2.1,7.8-4.4,11.7-6.9,11.7c-3.9,0-6.2-4.6-6.9-13.7
		C351.6,252.1,353.6,245.4,355.1,245.4z M630,249.5h1.4l0.6,2.1c-1.9,9.6-5.5,14.3-11,14.3l-5.5-1.4c-2.6,2.7-6,4.1-10.2,4.1
		l-7.6-2.7h-1.4c-2.4,0-11.1,5-26,15.1l-11.6,3.5v-2.1c1.6,0,12.8-7.1,33.5-21.2c3.4-1.8,6.1-2.7,8.2-2.7l7.6,2.7h0.6
		c3.4,0,6.9-2.5,10.3-7.6l4.1,4.1h2.7C626.6,257.8,628,255,630,249.5z M186.5,255h1.4v0.7c-2.7,7-4.6,13.4-5.5,19.2
		c1,5.5,2.9,8.2,5.5,8.2l4.8-5.5l0.6,0.6v0.7c-1.9,9.1-5.1,13.7-9.6,13.7c-4.1-1.5-6.1-5.2-6.1-11
		C177.6,273.2,180.6,264.3,186.5,255z M303,261.2h1.4v3.4c-1,6.9-4.4,10.3-10.2,10.3l-9.6,3.4l-8.2-2.7H275
		c-5.4,0-13.8,4.1-25.4,12.3c-3.8,1.8-9.5,3.7-17.1,5.5V292l39.8-23.9l5.5-0.7l8.2,2.7h1.4c2.4,0,4.9-2,7.5-6.1
		c2.1,2.3,3.7,3.4,4.8,3.4C301.9,264.6,303,262.6,303,261.2z"/>
</g>
</svg>
