<?xml version="1.0" encoding="utf-8"?>
<!-- Generator: Adobe Illustrator 25.2.3, SVG Export Plug-In . SVG Version: 6.00 Build 0)  -->
<svg version="1.1" xmlns="http://www.w3.org/2000/svg" xmlns:xlink="http://www.w3.org/1999/xlink" x="0px" y="0px"
	 viewBox="0 0 700 395" style="enable-background:new 0 0 700 395;" xml:space="preserve">
<style type="text/css">
	.st0{fill:#000222;}
	.st1{fill:#FFFFFF;}
</style>
<g id="Layer_1">
	<rect class="st0" width="700" height="395"/>
</g>
<g id="Layer_3">
	<g>
		<path class="st1" d="M273.5,368.6l1.1,4.2c0.2,0.9,0.5,1.8,0.6,2.6h0.1c0.2-0.8,0.5-1.7,0.7-2.6l1.3-4.2h1.3l1.3,4.1
			c0.3,1,0.5,1.9,0.7,2.7h0.1c0.1-0.8,0.4-1.7,0.6-2.7l1.2-4.1h1.5l-2.7,8.2H280l-1.3-3.9c-0.3-0.9-0.5-1.7-0.7-2.7h0
			c-0.2,1-0.5,1.8-0.7,2.7l-1.3,3.9h-1.4l-2.5-8.2H273.5z"/>
		<path class="st1" d="M286.3,368.6l1.1,4.2c0.2,0.9,0.5,1.8,0.6,2.6h0.1c0.2-0.8,0.5-1.7,0.7-2.6l1.3-4.2h1.3l1.3,4.1
			c0.3,1,0.5,1.9,0.7,2.7h0.1c0.1-0.8,0.4-1.7,0.6-2.7l1.2-4.1h1.5l-2.7,8.2h-1.4l-1.3-3.9c-0.3-0.9-0.5-1.7-0.7-2.7h0
			c-0.2,1-0.5,1.8-0.7,2.7l-1.3,3.9h-1.4l-2.5-8.2H286.3z"/>
		<path class="st1" d="M299,368.6l1.1,4.2c0.2,0.9,0.5,1.8,0.6,2.6h0.1c0.2-0.8,0.5-1.7,0.7-2.6l1.3-4.2h1.3l1.3,4.1
			c0.3,1,0.5,1.9,0.7,2.7h0.1c0.1-0.8,0.4-1.7,0.6-2.7l1.2-4.1h1.5l-2.7,8.2h-1.4l-1.3-3.9c-0.3-0.9-0.5-1.7-0.7-2.7h0
			c-0.2,1-0.5,1.8-0.7,2.7l-1.3,3.9h-1.4l-2.5-8.2H299z"/>
		<path class="st1" d="M309.9,375.9c0-0.6,0.4-1.1,1-1.1c0.6,0,1,0.4,1,1.1c0,0.6-0.4,1.1-1,1.1C310.3,377,309.9,376.5,309.9,375.9z
			"/>
		<path class="st1" d="M313.5,375.3c0.4,0.3,1.2,0.6,2,0.6c1.1,0,1.6-0.5,1.6-1.2c0-0.7-0.4-1.1-1.5-1.5c-1.5-0.5-2.2-1.3-2.2-2.3
			c0-1.3,1.1-2.4,2.8-2.4c0.8,0,1.6,0.2,2,0.5l-0.4,1.1c-0.3-0.2-0.9-0.5-1.7-0.5c-0.9,0-1.4,0.5-1.4,1.1c0,0.7,0.5,1,1.6,1.4
			c1.4,0.5,2.2,1.3,2.2,2.5c0,1.4-1.1,2.5-3.1,2.5c-0.9,0-1.7-0.2-2.3-0.6L313.5,375.3z"/>
		<path class="st1" d="M327.4,374.6c0,0.9,0,1.6,0.1,2.2h-1.3l-0.1-1.3h0c-0.4,0.7-1.3,1.5-2.7,1.5c-1.3,0-2.8-0.7-2.8-3.6v-4.8h1.5
			v4.6c0,1.6,0.5,2.6,1.8,2.6c1,0,1.7-0.7,2-1.4c0.1-0.2,0.1-0.5,0.1-0.8v-5h1.5V374.6z"/>
		<path class="st1" d="M329.8,371.1c0-1,0-1.8-0.1-2.6h1.3l0.1,1.6h0.1c0.4-1.1,1.3-1.8,2.3-1.8c0.2,0,0.3,0,0.4,0.1v1.4
			c-0.2,0-0.3-0.1-0.5-0.1c-1.1,0-1.8,0.8-2,1.9c0,0.2-0.1,0.4-0.1,0.7v4.4h-1.5V371.1z"/>
		<path class="st1" d="M339.9,376.8l-0.1-1h-0.1c-0.5,0.6-1.3,1.2-2.5,1.2c-1.7,0-2.5-1.2-2.5-2.4c0-2,1.8-3.1,4.9-3.1v-0.2
			c0-0.7-0.2-1.9-1.9-1.9c-0.8,0-1.6,0.2-2.1,0.6l-0.3-1c0.7-0.4,1.7-0.7,2.7-0.7c2.5,0,3.1,1.7,3.1,3.4v3.1c0,0.7,0,1.4,0.1,2
			H339.9z M339.7,372.6c-1.6,0-3.5,0.3-3.5,1.9c0,1,0.6,1.4,1.4,1.4c1.1,0,1.8-0.7,2-1.4c0.1-0.2,0.1-0.3,0.1-0.5V372.6z"/>
		<path class="st1" d="M343.5,364.7h1.5v5.1h0c0.2-0.4,0.6-0.8,1.1-1.1c0.4-0.3,1-0.4,1.5-0.4c1.1,0,2.9,0.7,2.9,3.5v4.9H349v-4.7
			c0-1.3-0.5-2.4-1.9-2.4c-1,0-1.7,0.7-2,1.5c-0.1,0.2-0.1,0.4-0.1,0.7v5h-1.5V364.7z"/>
		<path class="st1" d="M358.6,375.5L358.6,375.5c-0.5,0.8-1.4,1.5-2.7,1.5c-1.9,0-3.5-1.7-3.5-4.2c0-3.1,2-4.4,3.7-4.4
			c1.3,0,2.1,0.6,2.5,1.4h0l0.1-1.2h1.4c0,0.7-0.1,1.4-0.1,2.3v9.3h-1.5V375.5z M358.6,371.9c0-0.2,0-0.4-0.1-0.6
			c-0.2-0.9-1-1.7-2.1-1.7c-1.5,0-2.5,1.3-2.5,3.2c0,1.6,0.8,3.1,2.4,3.1c1,0,1.8-0.6,2.1-1.6c0.1-0.2,0.1-0.5,0.1-0.7V371.9z"/>
		<path class="st1" d="M369.4,374.6c0,0.9,0,1.6,0.1,2.2h-1.3l-0.1-1.3h0c-0.4,0.7-1.3,1.5-2.7,1.5c-1.3,0-2.8-0.7-2.8-3.6v-4.8h1.5
			v4.6c0,1.6,0.5,2.6,1.8,2.6c1,0,1.7-0.7,2-1.4c0.1-0.2,0.1-0.5,0.1-0.8v-5h1.5V374.6z"/>
		<path class="st1" d="M371.9,371.1c0-1,0-1.8-0.1-2.6h1.3l0.1,1.6h0.1c0.4-1.1,1.3-1.8,2.3-1.8c0.2,0,0.3,0,0.4,0.1v1.4
			c-0.2,0-0.3-0.1-0.5-0.1c-1.1,0-1.8,0.8-2,1.9c0,0.2-0.1,0.4-0.1,0.7v4.4h-1.5V371.1z"/>
		<path class="st1" d="M381.9,376.8l-0.1-1h-0.1c-0.5,0.6-1.3,1.2-2.5,1.2c-1.7,0-2.5-1.2-2.5-2.4c0-2,1.8-3.1,4.9-3.1v-0.2
			c0-0.7-0.2-1.9-1.9-1.9c-0.8,0-1.6,0.2-2.1,0.6l-0.3-1c0.7-0.4,1.7-0.7,2.7-0.7c2.5,0,3.1,1.7,3.1,3.4v3.1c0,0.7,0,1.4,0.1,2
			H381.9z M381.7,372.6c-1.6,0-3.5,0.3-3.5,1.9c0,1,0.6,1.4,1.4,1.4c1.1,0,1.8-0.7,2-1.4c0.1-0.2,0.1-0.3,0.1-0.5V372.6z"/>
		<path class="st1" d="M385.6,370.8c0-0.9,0-1.5-0.1-2.2h1.3l0.1,1.4h0c0.4-0.8,1.4-1.5,2.7-1.5c1.1,0,2.9,0.7,2.9,3.5v4.9h-1.5
			v-4.7c0-1.3-0.5-2.4-1.9-2.4c-1,0-1.8,0.7-2,1.5c-0.1,0.2-0.1,0.4-0.1,0.7v4.9h-1.5V370.8z"/>
		<path class="st1" d="M394.6,375.9c0-0.6,0.4-1.1,1-1.1c0.6,0,1,0.4,1,1.1c0,0.6-0.4,1.1-1,1.1C395,377,394.6,376.5,394.6,375.9z"
			/>
		<path class="st1" d="M404.4,376.5c-0.4,0.2-1.3,0.5-2.4,0.5c-2.5,0-4.1-1.7-4.1-4.2c0-2.5,1.7-4.4,4.4-4.4c0.9,0,1.7,0.2,2.1,0.4
			l-0.3,1.2c-0.4-0.2-0.9-0.4-1.7-0.4c-1.9,0-2.9,1.4-2.9,3.1c0,1.9,1.2,3.1,2.9,3.1c0.8,0,1.4-0.2,1.8-0.4L404.4,376.5z"/>
		<path class="st1" d="M413.5,372.6c0,3-2.1,4.4-4.1,4.4c-2.2,0-3.9-1.6-3.9-4.2c0-2.8,1.8-4.4,4.1-4.4
			C411.9,368.4,413.5,370.1,413.5,372.6z M406.9,372.7c0,1.8,1,3.2,2.5,3.2c1.4,0,2.5-1.3,2.5-3.2c0-1.4-0.7-3.2-2.5-3.2
			S406.9,371.1,406.9,372.7z"/>
		<path class="st1" d="M415.4,370.8c0-0.9,0-1.5-0.1-2.2h1.3l0.1,1.3h0.1c0.5-0.8,1.2-1.5,2.6-1.5c1.1,0,2,0.7,2.3,1.6h0
			c0.3-0.5,0.6-0.8,0.9-1.1c0.5-0.4,1-0.6,1.8-0.6c1.1,0,2.7,0.7,2.7,3.6v4.8h-1.5v-4.7c0-1.6-0.6-2.5-1.8-2.5
			c-0.9,0-1.5,0.6-1.8,1.4c-0.1,0.2-0.1,0.5-0.1,0.7v5.1h-1.5v-4.9c0-1.3-0.6-2.3-1.7-2.3c-0.9,0-1.6,0.7-1.9,1.5
			c-0.1,0.2-0.1,0.5-0.1,0.7v5h-1.5V370.8z"/>
	</g>
</g>
<g id="Layer_4">
	<path class="st1" d="M351,98.1h0.6c7.5,14.7,12.2,25.5,14.3,32.5l-0.7,2h-1.4l-4.1-3.3h-1.4L372,215l2.1,18.3
		c-0.7,14.7-2.7,23-6.1,25l-1.4-1.4v-4.7l0.7-6.8c-4.1-35.5-11.1-81.1-21-136.7C347.5,103,349.1,99.4,351,98.1z M551.3,99.4
		c4,2.1,6,5,6,8.7c-0.6,2.3-1.3,3.4-2,3.4H554l-4.1-3.4h-2.1c-2.2,1-3.3,3.3-3.3,6.8v8.1c0,14.4-1.1,21.6-3.4,21.6
		c-6.7-12.6-12.3-18.9-16.9-18.9c-5.4-1.3-8.1-4-8.1-8.1V117c0-2.4,0.9-4,2.7-4.8h0.6c3.5,0,10.3,5.7,20.3,17h0.7
		C540.5,109.3,544.1,99.4,551.3,99.4z M600.6,99.4c2.5,0,4.8,3.4,6.8,10.1l-0.6,0.7v0.6c0,6.3,1.8,11.3,5.4,14.9l0.6,2.7l-0.6,2.1
		h-1.4l-7.5-2.7c-15.3,16.8-31.5,28.3-48.7,34.5h-2.7c2-2.3,14.2-10.9,36.5-25.7c6.8-5.3,10.2-9.1,10.2-11.5c0-0.9-1.8-2.5-5.4-4.8
		c-1.4-2-2.1-4-2.1-6C593.2,104.4,596.4,99.4,600.6,99.4z M320.5,100h1.4c8.1,18.5,12.6,29.5,13.5,33.2l-2,1.4l-4.1-2.7l-0.7,0.6
		H328l0.6,2.1c0,4.1,3.6,27.5,10.8,70.4l2.7,25c0,12.9-4.1,21.7-12.2,26.4c-3.7,1.8-7.3,2.7-10.8,2.7h-3.3c-4.9,0-9.2-4.1-12.9-12.2
		c-1-4.1-1.9-6.1-2.7-6.1c-17.1,12.6-32.4,19.8-46,21.6h-11.5l-6.8-0.6l-1.4,2v6.1c-0.9,5.8-2.3,8.7-4.1,8.7h-0.7
		c-5.9,0-11.8-3.8-17.6-11.5c-1.7-3.8-2.8-8.8-3.3-14.9h-1.4c-6.6,10.3-14.2,15.5-23,15.5c-13,0-23-10.1-29.8-30.4h-0.7
		c0,5-8.6,14.9-25.7,29.8c-14.3,8.1-23.9,12.2-29,12.2h-8.1c-7.2,0-14.2-5.2-21-15.6c-2.7-7.2-4.1-13.7-4.1-19.6v-2.1
		c0-7.5,2.3-17.1,6.8-29v-0.7c-4-7.7-6-12.9-6-15.5l-0.7-4.8c1.4-13.3,4.3-25.2,8.8-35.8l0.6-0.7H77v0.7c-3.1,9.4-5.4,19.1-6.8,29
		c1,10.4,4,15.6,8.8,15.6c1.8-2.6,2.7-4.6,2.7-6.1h2l0.7,2.1c-1.3,6.9-4.2,12.7-8.8,17.6c-3.6,11.1-5.4,18.5-5.4,22.3
		c0,7.1,2,13.7,6.1,19.7c6.4,6.3,12.3,9.5,17.6,9.5h5.4c10.8-0.4,25.4-8.3,43.9-23.7c5-6,7.5-10.5,7.5-13.5v-3.3
		c0-10.8-4.5-46.6-13.5-107.6c1.8-6.7,3.4-10.1,4.7-10.1c3.6,8.5,7.2,28.1,10.8,58.8c5.8,51,10.3,76.5,13.5,76.5
		c6.1,7.6,12,11.5,17.6,11.5c10.8,0,19.1-6.1,25.1-18.2l2.7-2.1h1.4c10,10.4,20.6,15.6,31.8,15.6c22.2,0,41.9-7.9,58.9-23.7l2-0.6
		l1.4,2v4.8c0,7.5,3.8,12,11.5,13.5h4.1c8.5-1.8,12.8-4.3,12.8-7.5c0-8.1-5.4-44.9-16.2-110.2l-2.7-16.2
		C317.5,103.9,318.9,100,320.5,100z M202.2,105.5h0.6c3.4,0,6.1,3.2,8.1,9.5l-1.4,4.1h-1.4l-6-4.7l-2.1,0.6l-0.6,8.8h0.6l-0.6,0.6
		v0.7l0.6,5.4c-1.1,9.9-2.5,14.9-4.1,14.9h-0.6c-5.2-12.6-11.3-18.9-18.3-18.9l-4.7-5.4V119c0-2.9,0.9-5,2.7-6
		c4.1,0,10.9,6.1,20.3,18.2l0.6-0.6v-6.8C196.1,115.2,198.1,109.1,202.2,105.5z M404.4,105.5c2.7,1.6,4.1,4.3,4.1,8.1l-0.6,6.8
		c0,3.4,2.3,7,6.8,10.8v4.1l-1.4,1.4h-0.7c-3.4-2.7-5.8-4.1-7.2-4.1c-1.4,0-5.6,4.1-12.4,12.2c-3.7,3.1-10.5,7.1-20.3,12.2l-0.7-0.6
		v-1.4l23-18.3l4.8-6v-2.1c-3.2-3.1-4.8-6-4.8-8.7C396.7,110.2,399.9,105.5,404.4,105.5z M491,105.5h2.7v1.4h0.7
		c0,4.1-10.8,12.2-32.5,24.4l-27.8,18.3h-1.4l-0.6-2.1c0-3.8,4.1-7.7,12.2-11.5L491,105.5z M306.4,107.5v2c0,5.1-5,9.2-14.9,12.2
		c-32.5,15.7-67.2,34.9-104.2,57.5c-6.9,3.9-11.2,7.5-12.9,10.8c0,2,2,4.4,6.1,7.4v4.8l-0.7,3.3h-2.7c-4.9-2.5-7.4-5.2-7.4-8.1v-2
		c0-12.1,11.7-23.8,35.2-35.2C250.7,132.9,284.6,115.3,306.4,107.5z M595.2,111.6c1.8,3.6,4.3,5.4,7.5,5.4h0.6v-3.4
		c0-2.4-0.9-4.2-2.7-5.4h-2.7C597,108.4,596.1,109.5,595.2,111.6z M113.5,111.6h0.7c2.8,0,5.3,2.7,7.4,8.1c0,2.7-0.9,4.1-2.7,4.1
		l-4.7-3.4h-1.4l-0.7,0.7h-0.6c0,21.9-2.5,36.4-7.5,43.3c-6.1,5.8-10.3,8.7-12.8,8.7v-0.6c9.9-10.9,14.9-18.1,14.9-21.6
		c-4.8-11.3-10-17-15.6-17c-4.9-3-7.4-5.7-7.4-8.1c0.5-3.6,1.4-5.4,2.7-5.4h2.7c2.3,0,8.4,6.1,18.2,18.3h1.4v-14.3
		C110.1,115.9,111.9,111.6,113.5,111.6z M399.7,116.3c0,2.5,0.9,4.1,2.7,4.8h2v-4.8l-2-2h-0.7L399.7,116.3z M502.6,146h0.6
		c-1.8,4.4-2.7,8.7-2.7,12.9v2c0,4.7,2,7.4,6.1,8.1c1,0,2.1-1.8,3.3-5.4h1.4v0.7c-0.8,8.5-2.8,12.8-6,12.8
		c-5.4-1.6-8.1-5.4-8.1-11.5C497.2,158.2,499,151.7,502.6,146z M289.4,146.8h2.1l6.8,15.5c0,8.1-2.9,12.2-8.8,12.2
		c-1.4,0-3.5-0.9-6-2.7h-2.1c-1.7,5.4-5.1,8.1-10.1,8.1h-2.1c-3.6-3.2-5.4-6.6-5.4-10.1c0.5-9.9,1.4-14.9,2.7-14.9h1.4v13.5l2.7,2.7
		h2.7c2.6,0,4.9-1.8,6.8-5.4l-1.4-11.5l1.4-5.4h0.7c1.3,0,2.4,4.3,3.3,12.9c2.7,2.7,5,4.1,6.8,4.1l1.4-1.4v-2.1
		c-2.2-3.5-3.3-6.3-3.3-8.1v-4.1L289.4,146.8z M604.7,148.1h0.7v0.6l-3.4,9.5v3.4c0.7,4.9,1.8,7.4,3.4,7.4h2l3.4-2.7h0.6v0.7
		c0,4-1.8,7.4-5.4,10.1h-2c-3.2-2.1-4.8-5-4.8-8.7v-4.1C599.3,159.2,601.1,153.8,604.7,148.1z M414.6,154.2
		c7.2,3.6,10.8,7,10.8,10.2v0.6c0,2.6-1.6,5.4-4.8,8.1h-2l-7.5-5.4h-1.4c-1.4,0.4-2.9,2.9-4.7,7.5l-0.7,0.6h-2.7
		c-4.9-2.9-8-5.8-9.5-8.7c2-6.3,3.8-9.5,5.4-9.5l8.1,4.7h2.1l6-7.4L414.6,154.2z M455.9,167.1c9.9,9,14.8,13.9,14.9,14.9v1.4
		l-4.7,0.6v2.7c8.1,12,12.2,21,12.2,27.1l-0.7,0.7v6c0,6-5.6,14.1-16.9,24.4c-0.9,1.3-1.6,4.4-2.1,9.5c1.8,14.4,8.6,21.6,20.3,21.6
		h2.1c15.3,0,34-12.8,56.1-38.5c1.4-1.6,2.1-3.2,2.1-4.8l-2.1-2l-19.6,3.3c-9.9,0-14.9-5-14.9-14.9c2.6-14,8.3-20.9,16.9-20.9
		c5.3,0,12.3,5,21,14.9h2.7c6.1-3.6,12.7-8.4,19.6-14.3h2.1c1.3,0.5,2,1.8,2,4.1v6.1c2.9,5.8,8.3,8.7,16.2,8.7h1.4
		c8,0,15.5-7.4,22.4-22.3l0.6-0.7h2.1v1.4l-2.1,6.8v0.7c1.3,5.4,6.2,8.1,14.9,8.1h2.7c0.9-0.2,1.8-1.3,2.7-3.4
		c-2.7-4.1-4.1-6.8-4.1-8.1l2.1-7.4h1.4c4.5,3.8,6.8,8.3,6.8,13.5v2c-1,11.3-5.3,17-12.9,17h-1.4c-5.7,0-11.3-2.7-16.9-8.1H602
		c-7,9.4-14.4,14.2-22.3,14.2s-13.8-4.5-17.5-13.5c0-2.2-0.7-3.3-2.1-3.3c-10.3,6-15.5,11.8-15.5,17.6c0,10.3-7.5,22.2-22.4,35.8
		c-15.4,14.4-29.1,21.6-41.2,21.6h-0.7c-12,0-20.1-6.3-24.4-18.9l-1.4-9.5v-10.1h-2c-30.4,22.6-52.3,33.8-65.7,33.8l-23.6,6
		l-0.7-0.6v-0.7c1.7-2.4,11.9-7.1,30.5-14.2c32.3-19.1,55.1-34.5,68.3-46c6.1-5.4,9.7-9.3,10.8-11.5v-0.6c0-1.3-5-11-14.9-29.1
		l-4.1-11.5C453.6,170.2,454.5,167.1,455.9,167.1z M428.8,177.9v1.4h0.7c-1.5,7.9-5.1,15.8-10.8,23.6c0,2.2,3.4,5.6,10.1,10.2
		c2.7,5.3,4.1,8.7,4.1,10.1c0,13.3-8.1,22.8-24.4,28.4h-2.7c-5.8-3.2-8.7-6.8-8.7-10.8c0-8,2-17,6-27.1v-0.6
		c-12.1-11.3-18.2-18.1-18.2-20.3V188c0.2-2.7,0.9-4.1,2-4.1c11.7,4.1,17.6,6.6,17.6,7.5v0.6c0,1.4-0.9,2.1-2.7,2.1v2
		c2.6,2.7,5.1,4.1,7.5,4.1h1.4c3.4-3.2,9-10.7,16.9-22.3H428.8z M116.2,181.2h0.7v0.7l-3.4,23c0,13,2.7,19.6,8.1,19.6
		c1.3,0,2.4-2,3.4-6h0.6l1.4,1.4v1.4c0,8.7-2.5,13.4-7.4,14.2c-5.8,0-9.2-7.7-10.2-23C111.3,194.8,113.5,184.4,116.2,181.2z
		 M226.6,186.6c6.1,0,9.5,1.4,10.1,4.1c0,4.3-5.4,9.7-16.2,16.2l-6.8,2.1v-1.4c6.8-6,10.2-9.6,10.2-10.8h-2.7
		c-8.6,0-14.3,1.6-17,4.7l-0.6-0.6h-0.7c3.2-9,8.6-13.5,16.2-13.5L226.6,186.6z M289.4,187.4c5,3,8.4,6.2,10.2,9.5
		c-1.6,5.7-3.4,8.8-5.4,9.5h-0.7c-6.7-4.7-10.1-7.8-10.1-9.5C284.6,190.5,286.6,187.4,289.4,187.4z M255,196.8h1.4L255,211
		c0.9,5.9,2.7,8.8,5.4,8.8l3.3-4.8l0.7,0.7h0.6c-1.2,8.5-3.2,12.8-6,12.8c-4.1,0-6.6-4.7-7.5-14.2
		C251.5,210.4,252.7,204.6,255,196.8z M511.3,217.8l2.7,2.1h8.8c2.3,0,3.6-0.7,4.1-2.1c-1.9-3.1-4.6-4.7-8.1-4.7h-0.7
		C513.6,213.1,511.3,214.6,511.3,217.8z M402.5,230.6v1.4c0,3.6,1.6,5.4,4.7,5.4h2.7c4.6-0.7,10-4.1,16.2-10.2
		c-5.2-6.7-10.6-10.1-16.2-10.1C407.4,218.4,404.9,222.9,402.5,230.6z M618.2,242.1l0.7,0.7v0.6c-2.6,9.5-5.1,14.3-7.5,14.3h-1.4
		l-7.4-0.7c-1.9,2.7-5.5,4.1-10.8,4.1c-1.7-1.3-3.3-2-4.8-2h-2.7c-3.2,0-11.5,5.4-25,16.2l-9.5,2.7h-1.4v-0.7l28.4-20.9
		c3.7-3.2,8-4.8,12.8-4.8l6.1,2.1h1.4c2.9,0,6.1-2.5,9.5-7.5c2,2.7,4,4.1,6,4.1c1.5,0,2.9-2.5,4.1-7.4l0.7-0.7H618.2z M351,253.6
		c3.1,0,4.7,1.6,4.7,4.7v2.1c0,7.6-4.3,14.9-12.8,21.6h-2.7v-0.7c8.1-9,12.2-14.6,12.2-16.9l-2.1-2.1H349c-2.2,1.4-3.3,3-3.3,4.8
		h-0.7l-1.4-1.4C345.6,259.2,348.1,255.2,351,253.6z M292.1,263.8h2.7c1.8,0.8,2.7,2.4,2.7,4.8v2c0,8.7-5.2,15.5-15.5,20.3h-0.7
		v-0.6c8.1-8.7,12.2-13.9,12.2-15.6l-2-1.4c-1.7,0-3.5,0.9-5.4,2.7h-0.7v-2C285.4,271.1,287.6,267.7,292.1,263.8z M157.6,268.5h0.6
		l0.7,2c0,4.8-14.4,13.6-43.3,26.4h-1.4v-1.4h-0.7c0-4.2,7.9-9.6,23.7-16.2C149,272.1,155.8,268.5,157.6,268.5z"/>
</g>
</svg>
