<?xml version="1.0" encoding="utf-8"?>
<!-- Generator: Adobe Illustrator 25.2.3, SVG Export Plug-In . SVG Version: 6.00 Build 0)  -->
<svg version="1.1" xmlns="http://www.w3.org/2000/svg" xmlns:xlink="http://www.w3.org/1999/xlink" x="0px" y="0px"
	 viewBox="0 0 700 395" style="enable-background:new 0 0 700 395;" xml:space="preserve">
<style type="text/css">
	.st0{fill:#000222;}
	.st1{fill:#FFFFFF;}
</style>
<g id="Layer_1">
	<rect class="st0" width="700" height="395"/>
</g>
<g id="Layer_3">
	<g>
		<path class="st1" d="M273.5,368.6l1.1,4.2c0.2,0.9,0.5,1.8,0.6,2.6h0.1c0.2-0.8,0.5-1.7,0.7-2.6l1.3-4.2h1.3l1.3,4.1
			c0.3,1,0.5,1.9,0.7,2.7h0.1c0.1-0.8,0.4-1.7,0.6-2.7l1.2-4.1h1.5l-2.7,8.2H280l-1.3-3.9c-0.3-0.9-0.5-1.7-0.7-2.7h0
			c-0.2,1-0.5,1.8-0.7,2.7l-1.3,3.9h-1.4l-2.5-8.2H273.5z"/>
		<path class="st1" d="M286.3,368.6l1.1,4.2c0.2,0.9,0.5,1.8,0.6,2.6h0.1c0.2-0.8,0.5-1.7,0.7-2.6l1.3-4.2h1.3l1.3,4.1
			c0.3,1,0.5,1.9,0.7,2.7h0.1c0.1-0.8,0.4-1.7,0.6-2.7l1.2-4.1h1.5l-2.7,8.2h-1.4l-1.3-3.9c-0.3-0.9-0.5-1.7-0.7-2.7h0
			c-0.2,1-0.5,1.8-0.7,2.7l-1.3,3.9h-1.4l-2.5-8.2H286.3z"/>
		<path class="st1" d="M299,368.6l1.1,4.2c0.2,0.9,0.5,1.8,0.6,2.6h0.1c0.2-0.8,0.5-1.7,0.7-2.6l1.3-4.2h1.3l1.3,4.1
			c0.3,1,0.5,1.9,0.7,2.7h0.1c0.1-0.8,0.4-1.7,0.6-2.7l1.2-4.1h1.5l-2.7,8.2h-1.4l-1.3-3.9c-0.3-0.9-0.5-1.7-0.7-2.7h0
			c-0.2,1-0.5,1.8-0.7,2.7l-1.3,3.9h-1.4l-2.5-8.2H299z"/>
		<path class="st1" d="M309.9,375.9c0-0.6,0.4-1.1,1-1.1c0.6,0,1,0.4,1,1.1c0,0.6-0.4,1.1-1,1.1C310.3,377,309.9,376.5,309.9,375.9z
			"/>
		<path class="st1" d="M313.5,375.3c0.4,0.3,1.2,0.6,2,0.6c1.1,0,1.6-0.5,1.6-1.2c0-0.7-0.4-1.1-1.5-1.5c-1.5-0.5-2.2-1.3-2.2-2.3
			c0-1.3,1.1-2.4,2.8-2.4c0.8,0,1.6,0.2,2,0.5l-0.4,1.1c-0.3-0.2-0.9-0.5-1.7-0.5c-0.9,0-1.4,0.5-1.4,1.1c0,0.7,0.5,1,1.6,1.4
			c1.4,0.5,2.2,1.3,2.2,2.5c0,1.4-1.1,2.5-3.1,2.5c-0.9,0-1.7-0.2-2.3-0.6L313.5,375.3z"/>
		<path class="st1" d="M327.4,374.6c0,0.9,0,1.6,0.1,2.2h-1.3l-0.1-1.3h0c-0.4,0.7-1.3,1.5-2.7,1.5c-1.3,0-2.8-0.7-2.8-3.6v-4.8h1.5
			v4.6c0,1.6,0.5,2.6,1.8,2.6c1,0,1.7-0.7,2-1.4c0.1-0.2,0.1-0.5,0.1-0.8v-5h1.5V374.6z"/>
		<path class="st1" d="M329.8,371.1c0-1,0-1.8-0.1-2.6h1.3l0.1,1.6h0.1c0.4-1.1,1.3-1.8,2.3-1.8c0.2,0,0.3,0,0.4,0.1v1.4
			c-0.2,0-0.3-0.1-0.5-0.1c-1.1,0-1.8,0.8-2,1.9c0,0.2-0.1,0.4-0.1,0.7v4.4h-1.5V371.1z"/>
		<path class="st1" d="M339.9,376.8l-0.1-1h-0.1c-0.5,0.6-1.3,1.2-2.5,1.2c-1.7,0-2.5-1.2-2.5-2.4c0-2,1.8-3.1,4.9-3.1v-0.2
			c0-0.7-0.2-1.9-1.9-1.9c-0.8,0-1.6,0.2-2.1,0.6l-0.3-1c0.7-0.4,1.7-0.7,2.7-0.7c2.5,0,3.1,1.7,3.1,3.4v3.1c0,0.7,0,1.4,0.1,2
			H339.9z M339.7,372.6c-1.6,0-3.5,0.3-3.5,1.9c0,1,0.6,1.4,1.4,1.4c1.1,0,1.8-0.7,2-1.4c0.1-0.2,0.1-0.3,0.1-0.5V372.6z"/>
		<path class="st1" d="M343.5,364.7h1.5v5.1h0c0.2-0.4,0.6-0.8,1.1-1.1c0.4-0.3,1-0.4,1.5-0.4c1.1,0,2.9,0.7,2.9,3.5v4.9H349v-4.7
			c0-1.3-0.5-2.4-1.9-2.4c-1,0-1.7,0.7-2,1.5c-0.1,0.2-0.1,0.4-0.1,0.7v5h-1.5V364.7z"/>
		<path class="st1" d="M358.6,375.5L358.6,375.5c-0.5,0.8-1.4,1.5-2.7,1.5c-1.9,0-3.5-1.7-3.5-4.2c0-3.1,2-4.4,3.7-4.4
			c1.3,0,2.1,0.6,2.5,1.4h0l0.1-1.2h1.4c0,0.7-0.1,1.4-0.1,2.3v9.3h-1.5V375.5z M358.6,371.9c0-0.2,0-0.4-0.1-0.6
			c-0.2-0.9-1-1.7-2.1-1.7c-1.5,0-2.5,1.3-2.5,3.2c0,1.6,0.8,3.1,2.4,3.1c1,0,1.8-0.6,2.1-1.6c0.1-0.2,0.1-0.5,0.1-0.7V371.9z"/>
		<path class="st1" d="M369.4,374.6c0,0.9,0,1.6,0.1,2.2h-1.3l-0.1-1.3h0c-0.4,0.7-1.3,1.5-2.7,1.5c-1.3,0-2.8-0.7-2.8-3.6v-4.8h1.5
			v4.6c0,1.6,0.5,2.6,1.8,2.6c1,0,1.7-0.7,2-1.4c0.1-0.2,0.1-0.5,0.1-0.8v-5h1.5V374.6z"/>
		<path class="st1" d="M371.9,371.1c0-1,0-1.8-0.1-2.6h1.3l0.1,1.6h0.1c0.4-1.1,1.3-1.8,2.3-1.8c0.2,0,0.3,0,0.4,0.1v1.4
			c-0.2,0-0.3-0.1-0.5-0.1c-1.1,0-1.8,0.8-2,1.9c0,0.2-0.1,0.4-0.1,0.7v4.4h-1.5V371.1z"/>
		<path class="st1" d="M381.9,376.8l-0.1-1h-0.1c-0.5,0.6-1.3,1.2-2.5,1.2c-1.7,0-2.5-1.2-2.5-2.4c0-2,1.8-3.1,4.9-3.1v-0.2
			c0-0.7-0.2-1.9-1.9-1.9c-0.8,0-1.6,0.2-2.1,0.6l-0.3-1c0.7-0.4,1.7-0.7,2.7-0.7c2.5,0,3.1,1.7,3.1,3.4v3.1c0,0.7,0,1.4,0.1,2
			H381.9z M381.7,372.6c-1.6,0-3.5,0.3-3.5,1.9c0,1,0.6,1.4,1.4,1.4c1.1,0,1.8-0.7,2-1.4c0.1-0.2,0.1-0.3,0.1-0.5V372.6z"/>
		<path class="st1" d="M385.6,370.8c0-0.9,0-1.5-0.1-2.2h1.3l0.1,1.4h0c0.4-0.8,1.4-1.5,2.7-1.5c1.1,0,2.9,0.7,2.9,3.5v4.9h-1.5
			v-4.7c0-1.3-0.5-2.4-1.9-2.4c-1,0-1.8,0.7-2,1.5c-0.1,0.2-0.1,0.4-0.1,0.7v4.9h-1.5V370.8z"/>
		<path class="st1" d="M394.6,375.9c0-0.6,0.4-1.1,1-1.1c0.6,0,1,0.4,1,1.1c0,0.6-0.4,1.1-1,1.1C395,377,394.6,376.5,394.6,375.9z"
			/>
		<path class="st1" d="M404.4,376.5c-0.4,0.2-1.3,0.5-2.4,0.5c-2.5,0-4.1-1.7-4.1-4.2c0-2.5,1.7-4.4,4.4-4.4c0.9,0,1.7,0.2,2.1,0.4
			l-0.3,1.2c-0.4-0.2-0.9-0.4-1.7-0.4c-1.9,0-2.9,1.4-2.9,3.1c0,1.9,1.2,3.1,2.9,3.1c0.8,0,1.4-0.2,1.8-0.4L404.4,376.5z"/>
		<path class="st1" d="M413.5,372.6c0,3-2.1,4.4-4.1,4.4c-2.2,0-3.9-1.6-3.9-4.2c0-2.8,1.8-4.4,4.1-4.4
			C411.9,368.4,413.5,370.1,413.5,372.6z M406.9,372.7c0,1.8,1,3.2,2.5,3.2c1.4,0,2.5-1.3,2.5-3.2c0-1.4-0.7-3.2-2.5-3.2
			S406.9,371.1,406.9,372.7z"/>
		<path class="st1" d="M415.4,370.8c0-0.9,0-1.5-0.1-2.2h1.3l0.1,1.3h0.1c0.5-0.8,1.2-1.5,2.6-1.5c1.1,0,2,0.7,2.3,1.6h0
			c0.3-0.5,0.6-0.8,0.9-1.1c0.5-0.4,1-0.6,1.8-0.6c1.1,0,2.7,0.7,2.7,3.6v4.8h-1.5v-4.7c0-1.6-0.6-2.5-1.8-2.5
			c-0.9,0-1.5,0.6-1.8,1.4c-0.1,0.2-0.1,0.5-0.1,0.7v5.1h-1.5v-4.9c0-1.3-0.6-2.3-1.7-2.3c-0.9,0-1.6,0.7-1.9,1.5
			c-0.1,0.2-0.1,0.5-0.1,0.7v5h-1.5V370.8z"/>
	</g>
</g>
<g id="Layer_4">
	<path class="st1" d="M281.9,107.2c4.2,1.7,6.3,4.5,6.3,8.3c0,8.7-9.9,23.7-29.8,45c0,1.2-1.3,2.9-3.8,5.1l-0.6-0.6h-0.7
		c0-5,8.9-17.1,26.6-36.2c1.3-1.6,1.9-3.9,1.9-6.9c-1.9-1.7-3.4-2.5-4.5-2.5c-10.9,1.1-37.1,11.2-78.6,30.4l-20.9,13.3l-0.7,0.7v1.9
		l57.7,46.9c19.5,23.3,30.9,34.9,34.2,34.9l8.2,1.3c7.3,0,14.5-5.3,21.5-15.9l1.9-1.3c1.2,0,1.9,2.1,1.9,6.3c2.5,4.7,6.8,7,12.7,7
		h2.5c7,0,13-2.8,17.7-8.3v-0.6c-3.8-4.7-7.2-7-10.1-7l-8.2,1.9l-0.7-0.7v-1.3c0-7.7,6.3-12.5,19-14.5l13.4-1.9
		c15.6,2.4,23.4,4.7,23.4,7v0.6c0,5.9-4,10.4-12,13.4c-3.4,2.4-5.1,4.5-5.1,6.3c2.9,2.1,5.6,3.1,8.2,3.1h1.3
		c11.3-0.2,18.1-3.2,20.3-8.9c0-5.5-4.6-39.5-13.9-102c0-3.4-0.8-7.8-2.5-13.4c0-2.8,1.3-6,3.8-9.5h0.7
		c7.5,13.5,11.7,23.2,12.7,29.2l-1.3,1.3l-3.8-2.5l-1.3,1.3l12,79.9v5.1c0,16.9-7.6,27-22.8,30.4l-5.1,0.6c-5.1,0-11.4-3.4-19-10.1
		l-19,10.1c-4.6,1.7-8.6,2.5-12,2.5c-9.7-2.2-14.6-5.8-14.6-10.7h-1.9c-8.1,9.3-15.5,13.9-22.2,13.9c-9.4,0-20.3-9.3-33-27.9
		c-8.6-8.9-13.9-13.4-15.8-13.4v0.7l2.5,14.5c0,9-7.8,14.7-23.5,17.2c-8.1,0-13.8-6.6-17.1-19.7h-1.3c-10.4,5.8-15.9,9.4-16.5,10.8
		c0,10.9-6.3,20.8-19,29.7c-11,9.7-20.8,14.6-29.2,14.6H119c-7.8,0-13.3-5.5-16.5-16.5v-3.2c0-6.5,0.8-12.8,2.5-19l-0.6-0.6h-1.3
		c-17.3,5.9-29.8,8.9-37.4,8.9h-6.3c-16.1,0-24.1-7.2-24.1-21.5c0-3.2,1.9-9.8,5.7-19.7v-1.3c-3-7.3-4.7-12.5-5.1-15.8
		c0-12.7,3.2-27.3,9.5-43.8h1.3c-4.2,15.2-6.3,27.8-6.3,38c1.4,8.5,3.7,12.7,7,12.7H48c1.5,0,2.5-2.1,3.2-6.3h0.6l1.3,1.3
		c0,8.7-3.2,14.2-9.5,16.5c-1.8,3.7-3.1,8.4-3.8,13.9c0,8.7,7,13.7,20.9,15.2h1.3c21.5,0,41.4-6.1,59.6-18.3v-3.2l-6.9-10.7
		c1.2-5.9,2.3-8.9,3.1-8.9c6.4,5.4,9.5,11,9.5,17.1c0,9.1-5.9,17-17.7,23.5c-2.1,5.2-3.2,9.5-3.2,12.7v1.9c0,11,5.5,16.5,16.5,16.5
		c10.3,0,23.2-8,38.7-24.1l3.8-5.1v-1.9l-1.3-1.3l-14.6,2.5c-7.2-1.4-10.7-4.4-10.7-8.9v-1.9c0-7.7,3.6-13.8,10.7-18.3h1.9
		c4.7,0,10.2,4.2,16.5,12.7l1.9,0.6c6.1-1.9,12.7-5.4,19.7-10.7h2.5c0,13.1,4,19.6,12,19.6h3.8c5.2,0,10.5-2.7,15.9-8.2v-0.7
		c0-6.1-16.7-24.7-50.1-55.8l-1.3-6.9c0-10.6,7.6-19.1,22.8-25.4c18.9-11.8,47.4-23.4,85.6-34.9H281.9z M343.3,107.2h0.7
		c1.7,0,3.4,3.2,5.1,9.5c-0.9,2.5-1.7,3.8-2.5,3.8l-4.5-5.1h-2.5c-1.2,0-2.5,7.2-3.8,21.5c-0.6,0-1,1.3-1.3,3.8h-0.6
		c-7-10.5-11.7-15.8-13.9-15.9c-6.4,0-9.5-2.3-9.5-6.9c0-2.9,1.1-5,3.2-6.3c3.9,0.5,10.5,6.1,19.6,17.1c0.6,0,1.6-4.8,3.2-14.5
		C338.1,109.5,340.4,107.2,343.3,107.2z M217.2,107.8l0.6,2.5c0,2.5-11.2,8.9-33.6,19c-12.5,7.2-21.4,11.6-26.6,13.3l-0.7-1.9
		c0-4.1,5.1-7.9,15.2-11.4C198.2,115,213.2,107.8,217.2,107.8z M401,109.7h1.3c7.6,15.8,11.4,25.5,11.4,29.2h-1.9l-1.9-1.3h-1.3
		l-1.3,1.3c8,54.8,12,85.8,12,93c0,7.2-1.3,15.1-3.8,23.6h-1.9l0.6-3.8c-0.8-11.3-5.9-52.9-15.2-124.8l-1.9-7.6
		C398.5,112.9,399.7,109.7,401,109.7z M132.9,111v1.3c-1.7,6.4-2.5,11.1-2.5,13.9v1.3c0,3.5,1.5,6.3,4.5,8.3h0.6
		c0.8,0,1.7-1.3,2.5-3.8h1.3c-1.5,7.6-3.2,11.4-5.1,11.4c-4.6-2.4-6.9-6.8-6.9-13.4C128.6,119.9,130.5,113.6,132.9,111z M97.4,111.6
		h2.5c3,1.9,4.5,5.2,4.5,10.1c-0.5,2.5-1.1,3.8-1.9,3.8l-5.1-5.7h-1.9c-1,0-2.5,9.9-4.5,29.8c-3.4,12.4-8,20.2-13.9,23.4
		c-2.8,2.5-7.7,5.3-14.5,8.3l-0.7-0.7v-0.6c16.9-12.7,25.4-21.9,25.4-27.7c0-5.8-4.4-12.8-13.3-21.1c-5.2,0-8.4-2.3-9.5-6.9
		c0-2.9,1.1-5,3.2-6.3c3.8,0,10.7,6.8,20.9,20.3c1,0,2-5.9,3.2-17.7C93.3,115.6,95.2,112.7,97.4,111.6z M453,112.9
		c2.5,1.3,3.8,3.6,3.8,6.9l-0.7,10.8c3.4,2.5,5.5,5,6.3,7.6l-1.3,3.8h-1.3l-6.3-4.5c-2,0-6,3.6-12,10.8
		c-10.3,7.3-17.1,11.1-20.3,11.4h-0.7v-1.3c16.3-12.1,25.4-19.7,27.3-22.8v-1.3l-3.8-8.3C445.6,117.3,448.6,112.9,453,112.9z
		 M589.2,113.5h1.3c4.2,1.2,6.3,3.7,6.3,7.6c-0.3,2.1-0.9,3.2-1.9,3.2h-0.7l-4.4-3.2h-2.5c-1.7,0.7-2.5,2.2-2.5,4.5
		c-0.6,19.4-2.1,29.2-4.5,29.2h-0.6c-4.3-12.7-9.8-19-16.5-19c-3.4-2.4-5.1-4.8-5-7.3c0-2.4,0.9-4.2,2.5-5.4c3.3,0,9.7,5.7,19,17.1
		h1.3C581,125.5,583.8,116.7,589.2,113.5z M637.4,114.8c3.8,0,5.7,4.2,5.7,12.7v4.5l4.4,8.2v1.3l-0.6,1.9l-7-2.5
		c-20.8,18.8-37,29.3-48.8,31.7l-0.7-0.7v-0.6c1.7-2,6.2-4.8,13.4-8.3c17.3-11.7,27.6-19.5,31-23.4v-1.9c-3.8-3.1-5.9-5.8-6.3-8.2
		C628.5,122.1,631.5,117.2,637.4,114.8z M536.7,116l1.3,1.9c0,3-12.5,11-37.4,24.1c-12.4,8.5-19.6,12.7-21.5,12.7l-0.6-0.7v-0.6
		c0-4.2,8.6-10.6,25.9-19L536.7,116z M447.9,124.3l3.1,3.1h1.9l0.6-3.1c-0.4-2.5-1.4-3.8-3.1-3.8
		C448.8,120.9,447.9,122.2,447.9,124.3z M631.8,125.6c0,1.1,1.7,2.8,5.1,5.1h1.9l1.3-1.3c0-3.3-1.3-5.7-3.8-7h-1.3
		C632.8,123.4,631.8,124.5,631.8,125.6z M362.3,140.8l1.3,1.9c0,3.6-4.4,6.8-13.3,9.5c-42.1,16.4-72.5,29.7-91.3,39.9h-1.3l-0.7-0.6
		c0-6.3,16.5-15.8,49.4-28.6C341.7,148.2,360.3,140.8,362.3,140.8z M153.9,149.7c2,0,3.7,3,5.1,8.9l-0.7,10.1l3.2,5.1v3.1l-1.9,1.9
		l-5.1-2.5c-6.7,9.7-15.4,17.1-25.9,22.1h-1.3v-0.6l23.4-23.5v-1.9c-3.8-4.3-5.7-7.5-5.7-9.5C148,154.1,150.9,149.7,153.9,149.7z
		 M111.3,153.5v1.3c-1.7,5-2.5,9.2-2.5,12.7c0.6,5.5,1.6,8.2,3.2,8.2h1.3c0.8,0,1.6-1.3,2.5-3.8h1.3v0.7c-1.6,7.2-3.1,10.7-4.5,10.7
		H112c-4.2,0-6.3-3.8-6.3-11.4C107.8,159.6,109.7,153.5,111.3,153.5z M544.3,155.3h0.6v0.7c-1.2,1.5-2.3,4.9-3.1,10.1
		c0,6.9,1.9,10.5,5.7,10.7l3.8-4.4h0.7v0.6c0,4.7-1.7,8.3-5.1,10.8h-2.5c-3.8-2.7-5.7-6.7-5.7-12.1
		C541.1,160.8,543,155.3,544.3,155.3z M232.4,156h0.6c-1.2,3.4-1.9,6.6-1.9,9.5v1.3c0.7,5.1,1.7,7.6,3.1,7.6c1.7,0,3.4-1.3,5.1-3.8
		l0.7,0.7c-1.6,7.6-3.7,11.4-6.3,11.4c-3.8-2-5.7-5.4-5.7-10.1v-1.9C228,165.1,229.5,160.3,232.4,156z M150.1,160.4v0.7l3.8,3.1h1.3
		v-1.3c0-2.3-0.8-3.7-2.5-4.4h-0.7L150.1,160.4z M462.5,159.8c3.7,1.7,6.6,4.2,8.9,7.6v3.1c-1.4,2.9-3.1,5-5.1,6.3
		c-1.7,0-4.1-1.5-6.9-4.4l-3.2-1.3c-3.2,5.1-5,7.6-5.7,7.6h-1.9c-5.6-3.4-8.5-6.3-8.9-8.9c1.4-3.8,3.1-6.6,5.1-8.3l9.5,5.1h0.6
		C457.7,162.1,460.2,159.8,462.5,159.8z M638.1,161.7h1.9l-3.1,8.3v4.4c0,3.3,1,5.4,3.1,6.3h1.3l2.5-1.9h1.3c0,3.5-1.7,6.5-5.1,8.9
		h-1.3c-2,0-3.7-3.2-5.1-9.5C633.6,174.9,635.1,169.4,638.1,161.7z M351.6,162.3l0.6,0.6c-3.4,7.6-5.1,12.3-5.1,13.9
		c0,7.2,1.7,11.7,5.1,13.4l3.8-3.8l0.7,0.6v0.7c-2,8-3.9,12-5.7,12h-0.6c-5.1-0.9-7.6-5.3-7.6-13.3
		C344.3,176,347.2,167.9,351.6,162.3z M499.2,173.1c8.9,7.4,13.4,12.5,13.4,15.2l-0.7,0.7h-3.8v0.6c6.8,13.3,10.1,21.3,10.1,24.1
		v2.5c0,10.8-3.6,18.4-10.7,22.8c-5.9,4.8-8.9,10.1-8.9,15.9c0,10.7,5.7,17.5,17.1,20.3h6.3c13.9,0,31-11,51.4-33
		c1.2-1.6,1.9-3.5,1.9-5.7l-2.5-1.3l-17.1,2.5c-9.3-1-13.9-5.6-13.9-13.9c3-12.7,8.3-19,15.8-19h1.3c5,0,11.2,4.9,18.4,14.6h1.9
		c2.2,0,8.8-4.2,19.7-12.7l1.9-0.7l1.9,4.5l-0.7,4.4c3,6.8,7.2,10.1,12.7,10.1h3.8c7.7,0,14.7-6.5,21-19.6l1.9-1.3h1.3L640,213v0.6
		c3.8,4.7,7.8,7,12.1,7h5.1l1.9-1.9c0-1.7-1-4.7-3.1-8.9c1.4-5.5,2.4-8.2,3.1-8.2h0.7c3.4,3.4,5.1,8.2,5.1,14.5v1.3
		c-1.1,10.6-5.2,15.9-12.1,15.9h-3.1c-3.3,0-8-2.8-13.9-8.3h-1.3c-5.9,8.1-12.2,12.1-19,12.1h-3.2c-6.3,0-11.1-4.5-14.5-13.4
		c0-1.7-0.4-2.5-1.3-2.5H595c-9.7,6-14.6,11.3-14.6,15.9c0,11.5-11.6,25.5-34.8,41.8c-9.1,5.9-17.9,8.9-26.6,8.9
		c-12,0-19.8-7-23.5-21l-0.6-7.6l0.6-8.2h-1.9c-28.6,19-49.7,28.5-63.4,28.5c-2.9,1.3-10.1,2.8-21.5,4.5H408v-0.7
		c2.5-1.8,14.4-7.1,35.5-15.8c23.4-11.3,45.2-25.1,65.3-41.2l3.8-5.1v-1.9c0-1.8-3.6-9.4-10.8-22.8c-3.4-8.2-5.1-13-5.1-14.6
		C497.2,176,498,173.1,499.2,173.1z M472.6,182.6h1.3v0.6c0,5.3-3.6,12.7-10.7,22.2v1.3c8.5,6.3,12.7,11.9,12.7,17.1
		c0,10.6-4.9,18.1-14.6,22.2c-1.6,1.2-4.5,2.5-8.9,3.8c-6.4,0-9.7-3.8-10.1-11.4c0-8.7,2.1-16.3,6.3-22.8c0-2-5.1-7.7-15.2-17.2
		l-1.3-3.8v-5.1c0.3-2.5,0.9-3.8,1.9-3.8c10.1,4.3,15.4,6.9,15.8,7.6v1.3c0,0.8-0.6,1.3-1.9,1.3v1.9c2.5,2.9,4.8,4.4,6.9,4.4h1.3
		L472.6,182.6z M287,197.2h0.6c2.9,0.2,6.3,2.5,10.1,7v0.6c0,3-1.5,5.5-4.4,7.6c-2.4,0-6-2.1-10.8-6.3
		C283.9,200.5,285.4,197.6,287,197.2z M87.9,198.4c3.3,1.3,6.2,3.6,8.9,7v2.5c-0.6,1.5-2.5,3.6-5.7,6.3c-4.1-3-6.8-4.5-8.2-4.5
		l-5.1,5.7h-1.9c-3.4-1.9-6-4-7.6-6.3c0-4.3,1.7-7.3,5.1-8.9l8.3,4.4L87.9,198.4z M446.7,232.1c0.6,3.4,2.3,5.1,5.1,5.1h2.5
		c10.1-3.8,15.2-7.2,15.2-10.1c-4.6-5.4-9.4-8.5-14.6-9.5C449.4,223.7,446.7,228.6,446.7,232.1z M549.9,223.2c1.2,1,3.7,1.6,7.6,1.9
		c5.1-0.3,7.6-0.9,7.6-1.9c-2.1-3.4-5-5.1-8.9-5.1h-0.6C551.9,218.1,549.9,219.8,549.9,223.2z M342.1,226.3v0.7c0,0.7,1.5,2,4.5,3.8
		h1.3c3.4-1.8,5.1-3.5,5.1-5.1h-0.7l-2.5-0.7h-6.3L342.1,226.3z M148.8,228.9l-3.2,3.2v0.6l1.9,1.9h3.8l5.7-1.3v-0.7
		C155.1,230.1,152.4,228.9,148.8,228.9z M648.8,248.5l0.7,0.6v0.7c-1.5,8.8-4.5,13.3-8.9,13.3l-5.7-1.3c-3.4,2.5-6.8,3.8-10.1,3.8
		c-2.5-1.7-4.8-2.5-6.9-2.5c-3.4,0-11.6,4.6-24.8,13.9c-4.2,2.1-7.6,3.2-10.1,3.2v-1.9c1.9,0,12.9-7,33-20.9l4.5-0.7l7.6,2.5h1.3
		c2.4,0,5.4-2.1,8.9-6.3c1.5,2.5,3.4,3.8,5.7,3.8c1.5,0,2.7-2.5,3.8-7.6l0.7-0.6H648.8z M396.6,250.4h0.7c2.5,1.7,3.8,3.6,3.8,5.7
		c0,6.6-5.1,14.3-15.2,22.8h-0.7v-0.7c8.1-9.7,12.1-15.7,12.1-17.7c-0.3-1.2-1.2-2.1-2.5-2.5l-3.8,2.5V260
		C390.9,256.3,392.8,253.2,396.6,250.4z M340.8,258c3,1.2,4.5,3.5,4.5,7c0,5.7-4.5,12-13.4,19h-1.9v-0.7l11.4-13.3
		c0-2.2-0.6-3.5-1.9-3.8h-1.9l-2.5,1.9h-0.7v-0.6C334.5,263.7,336.6,260.5,340.8,258z M233,258.7h1.9c2.1,1.2,3.1,2.9,3.1,5.1
		c0,6.6-4,13.2-12,19.6h-1.3v-0.6c6.8-7.9,10.1-12.8,10.1-14.6c-0.9-1.7-2-2.5-3.2-2.5l-3.8,2.5v-0.6
		C228,263.7,229.7,260.8,233,258.7z M91.7,261.2H93v1.3h0.6c0,3.8-7.4,8.1-22.1,12.7c-10.5,5.5-16.4,8.2-17.7,8.2v-1.3
		C53.7,277.6,66.4,270.6,91.7,261.2z M191.2,265.6c6.3,3.5,9.4,6.1,9.5,7.6c-1.3,3.5-2.8,6-4.5,7.6H195c-6.3-2.4-9.5-4.7-9.5-6.9
		C186.9,268.4,188.8,265.6,191.2,265.6z"/>
</g>
</svg>
