<?xml version="1.0" encoding="utf-8"?>
<!-- Generator: Adobe Illustrator 25.2.3, SVG Export Plug-In . SVG Version: 6.00 Build 0)  -->
<svg version="1.1" id="Layer_1" xmlns="http://www.w3.org/2000/svg" xmlns:xlink="http://www.w3.org/1999/xlink" x="0px" y="0px"
	 viewBox="0 0 700 395" style="enable-background:new 0 0 700 395;" xml:space="preserve">
<style type="text/css">
	.st0{fill:#000222;}
	.st1{fill:#FFFFFF;}
</style>
<g id="Layer_1_1_">
	<rect y="-0.5" class="st0" width="700" height="395"/>
</g>
<g id="Layer_3">
	<g>
		<path class="st1" d="M273.5,368.6l1.1,4.2c0.2,0.9,0.5,1.8,0.6,2.6h0.1c0.2-0.8,0.5-1.7,0.7-2.6l1.3-4.2h1.3l1.3,4.1
			c0.3,1,0.5,1.9,0.7,2.7h0.1c0.1-0.8,0.4-1.7,0.6-2.7l1.2-4.1h1.5l-2.7,8.2H280l-1.3-3.9c-0.3-0.9-0.5-1.7-0.7-2.7l0,0
			c-0.2,1-0.5,1.8-0.7,2.7l-1.3,3.9h-1.4l-2.5-8.2H273.5z"/>
		<path class="st1" d="M286.3,368.6l1.1,4.2c0.2,0.9,0.5,1.8,0.6,2.6h0.1c0.2-0.8,0.5-1.7,0.7-2.6l1.3-4.2h1.3l1.3,4.1
			c0.3,1,0.5,1.9,0.7,2.7h0.1c0.1-0.8,0.4-1.7,0.6-2.7l1.2-4.1h1.5l-2.7,8.2h-1.4l-1.3-3.9c-0.3-0.9-0.5-1.7-0.7-2.7l0,0
			c-0.2,1-0.5,1.8-0.7,2.7l-1.3,3.9h-1.4l-2.5-8.2H286.3z"/>
		<path class="st1" d="M299,368.6l1.1,4.2c0.2,0.9,0.5,1.8,0.6,2.6h0.1c0.2-0.8,0.5-1.7,0.7-2.6l1.3-4.2h1.3l1.3,4.1
			c0.3,1,0.5,1.9,0.7,2.7h0.1c0.1-0.8,0.4-1.7,0.6-2.7l1.2-4.1h1.5l-2.7,8.2h-1.4l-1.3-3.9c-0.3-0.9-0.5-1.7-0.7-2.7l0,0
			c-0.2,1-0.5,1.8-0.7,2.7l-1.3,3.9H300l-2.5-8.2H299z"/>
		<path class="st1" d="M309.9,375.9c0-0.6,0.4-1.1,1-1.1s1,0.4,1,1.1c0,0.6-0.4,1.1-1,1.1S309.9,376.5,309.9,375.9z"/>
		<path class="st1" d="M313.5,375.3c0.4,0.3,1.2,0.6,2,0.6c1.1,0,1.6-0.5,1.6-1.2s-0.4-1.1-1.5-1.5c-1.5-0.5-2.2-1.3-2.2-2.3
			c0-1.3,1.1-2.4,2.8-2.4c0.8,0,1.6,0.2,2,0.5l-0.4,1.1c-0.3-0.2-0.9-0.5-1.7-0.5c-0.9,0-1.4,0.5-1.4,1.1c0,0.7,0.5,1,1.6,1.4
			c1.4,0.5,2.2,1.3,2.2,2.5c0,1.4-1.1,2.5-3.1,2.5c-0.9,0-1.7-0.2-2.3-0.6L313.5,375.3z"/>
		<path class="st1" d="M327.4,374.6c0,0.9,0,1.6,0.1,2.2h-1.3l-0.1-1.3l0,0c-0.4,0.7-1.3,1.5-2.7,1.5c-1.3,0-2.8-0.7-2.8-3.6v-4.8
			h1.5v4.6c0,1.6,0.5,2.6,1.8,2.6c1,0,1.7-0.7,2-1.4c0.1-0.2,0.1-0.5,0.1-0.8v-5h1.5v6H327.4z"/>
		<path class="st1" d="M329.8,371.1c0-1,0-1.8-0.1-2.6h1.3l0.1,1.6h0.1c0.4-1.1,1.3-1.8,2.3-1.8c0.2,0,0.3,0,0.4,0.1v1.4
			c-0.2,0-0.3-0.1-0.5-0.1c-1.1,0-1.8,0.8-2,1.9c0,0.2-0.1,0.4-0.1,0.7v4.4h-1.5L329.8,371.1L329.8,371.1z"/>
		<path class="st1" d="M339.9,376.8l-0.1-1h-0.1c-0.5,0.6-1.3,1.2-2.5,1.2c-1.7,0-2.5-1.2-2.5-2.4c0-2,1.8-3.1,4.9-3.1v-0.2
			c0-0.7-0.2-1.9-1.9-1.9c-0.8,0-1.6,0.2-2.1,0.6l-0.3-1c0.7-0.4,1.7-0.7,2.7-0.7c2.5,0,3.1,1.7,3.1,3.4v3.1c0,0.7,0,1.4,0.1,2
			H339.9z M339.7,372.6c-1.6,0-3.5,0.3-3.5,1.9c0,1,0.6,1.4,1.4,1.4c1.1,0,1.8-0.7,2-1.4c0.1-0.2,0.1-0.3,0.1-0.5V372.6z"/>
		<path class="st1" d="M343.5,364.7h1.5v5.1l0,0c0.2-0.4,0.6-0.8,1.1-1.1c0.4-0.3,1-0.4,1.5-0.4c1.1,0,2.9,0.7,2.9,3.5v4.9H349V372
			c0-1.3-0.5-2.4-1.9-2.4c-1,0-1.7,0.7-2,1.5c-0.1,0.2-0.1,0.4-0.1,0.7v5h-1.5V364.7z"/>
		<path class="st1" d="M358.6,375.5L358.6,375.5c-0.5,0.8-1.4,1.5-2.7,1.5c-1.9,0-3.5-1.7-3.5-4.2c0-3.1,2-4.4,3.7-4.4
			c1.3,0,2.1,0.6,2.5,1.4l0,0l0.1-1.2h1.4c0,0.7-0.1,1.4-0.1,2.3v9.3h-1.5v-4.7H358.6z M358.6,371.9c0-0.2,0-0.4-0.1-0.6
			c-0.2-0.9-1-1.7-2.1-1.7c-1.5,0-2.5,1.3-2.5,3.2c0,1.6,0.8,3.1,2.4,3.1c1,0,1.8-0.6,2.1-1.6c0.1-0.2,0.1-0.5,0.1-0.7v-1.7H358.6z"
			/>
		<path class="st1" d="M369.4,374.6c0,0.9,0,1.6,0.1,2.2h-1.3l-0.1-1.3l0,0c-0.4,0.7-1.3,1.5-2.7,1.5c-1.3,0-2.8-0.7-2.8-3.6v-4.8
			h1.5v4.6c0,1.6,0.5,2.6,1.8,2.6c1,0,1.7-0.7,2-1.4c0.1-0.2,0.1-0.5,0.1-0.8v-5h1.5v6H369.4z"/>
		<path class="st1" d="M371.9,371.1c0-1,0-1.8-0.1-2.6h1.3l0.1,1.6h0.1c0.4-1.1,1.3-1.8,2.3-1.8c0.2,0,0.3,0,0.4,0.1v1.4
			c-0.2,0-0.3-0.1-0.5-0.1c-1.1,0-1.8,0.8-2,1.9c0,0.2-0.1,0.4-0.1,0.7v4.4h-1.5L371.9,371.1L371.9,371.1z"/>
		<path class="st1" d="M381.9,376.8l-0.1-1h-0.1c-0.5,0.6-1.3,1.2-2.5,1.2c-1.7,0-2.5-1.2-2.5-2.4c0-2,1.8-3.1,4.9-3.1v-0.2
			c0-0.7-0.2-1.9-1.9-1.9c-0.8,0-1.6,0.2-2.1,0.6l-0.3-1c0.7-0.4,1.7-0.7,2.7-0.7c2.5,0,3.1,1.7,3.1,3.4v3.1c0,0.7,0,1.4,0.1,2
			H381.9z M381.7,372.6c-1.6,0-3.5,0.3-3.5,1.9c0,1,0.6,1.4,1.4,1.4c1.1,0,1.8-0.7,2-1.4c0.1-0.2,0.1-0.3,0.1-0.5V372.6z"/>
		<path class="st1" d="M385.6,370.8c0-0.9,0-1.5-0.1-2.2h1.3l0.1,1.4l0,0c0.4-0.8,1.4-1.5,2.7-1.5c1.1,0,2.9,0.7,2.9,3.5v4.9H391
			v-4.7c0-1.3-0.5-2.4-1.9-2.4c-1,0-1.8,0.7-2,1.5c-0.1,0.2-0.1,0.4-0.1,0.7v4.9h-1.5v-6.1H385.6z"/>
		<path class="st1" d="M394.6,375.9c0-0.6,0.4-1.1,1-1.1s1,0.4,1,1.1c0,0.6-0.4,1.1-1,1.1S394.6,376.5,394.6,375.9z"/>
		<path class="st1" d="M404.4,376.5c-0.4,0.2-1.3,0.5-2.4,0.5c-2.5,0-4.1-1.7-4.1-4.2s1.7-4.4,4.4-4.4c0.9,0,1.7,0.2,2.1,0.4
			l-0.3,1.2c-0.4-0.2-0.9-0.4-1.7-0.4c-1.9,0-2.9,1.4-2.9,3.1c0,1.9,1.2,3.1,2.9,3.1c0.8,0,1.4-0.2,1.8-0.4L404.4,376.5z"/>
		<path class="st1" d="M413.5,372.6c0,3-2.1,4.4-4.1,4.4c-2.2,0-3.9-1.6-3.9-4.2c0-2.8,1.8-4.4,4.1-4.4
			C411.9,368.4,413.5,370.1,413.5,372.6z M406.9,372.7c0,1.8,1,3.2,2.5,3.2c1.4,0,2.5-1.3,2.5-3.2c0-1.4-0.7-3.2-2.5-3.2
			S406.9,371.1,406.9,372.7z"/>
		<path class="st1" d="M415.4,370.8c0-0.9,0-1.5-0.1-2.2h1.3l0.1,1.3h0.1c0.5-0.8,1.2-1.5,2.6-1.5c1.1,0,2,0.7,2.3,1.6l0,0
			c0.3-0.5,0.6-0.8,0.9-1.1c0.5-0.4,1-0.6,1.8-0.6c1.1,0,2.7,0.7,2.7,3.6v4.8h-1.5V372c0-1.6-0.6-2.5-1.8-2.5
			c-0.9,0-1.5,0.6-1.8,1.4c-0.1,0.2-0.1,0.5-0.1,0.7v5.1h-1.5v-4.9c0-1.3-0.6-2.3-1.7-2.3c-0.9,0-1.6,0.7-1.9,1.5
			c-0.1,0.2-0.1,0.5-0.1,0.7v5h-1.5v-5.9H415.4z"/>
	</g>
	<path class="st1" d="M412.6,95.5h0.7l0.6,2.6l-4,13.9h-1.3v-0.6l1.3-7.3l-0.6-0.6h-0.7c-11,5.7-21.2,8.6-30.5,8.6
		c-1.1,3.5-1.9,5.3-2.6,5.3h-1.3c0-2.5-1.5-5.6-4.6-9.3v-1.3c0-2.4,1.1-4.2,3.3-5.3c1.7,0.9,4.1,1.3,7.3,1.3h7.9
		C393.9,102.7,402.1,100.3,412.6,95.5z M389.4,119.3h0.6c7.1,16.8,10.6,26,10.6,27.8l-0.6,0.6h-1.3l-2.6-1.9h-1.3l11.2,82.1
		l0.7,15.9c0,8.5-1.6,15.4-4.7,20.5h-0.6l-0.7-3.3v-1.3c0-14.8-5.3-58.1-15.9-129.8C386.2,122.9,387.8,119.3,389.4,119.3z M359,120
		h1.3c3.5,4.7,7.3,14.2,11.2,28.5l-1.3,1.3l-4-1.3h-0.6v0.6c8.4,51.3,12.5,80.7,12.5,88.1c0,15.9-8.6,28-25.8,36.4
		c-11.2,8.8-23,13.2-35.1,13.2h-1.9l-0.7,0.7c-8.8-1.6-15-4.3-18.5-7.9c-4.8-6.1-7.2-12.9-7.2-20.6l0.6-11.9h-0.6
		c-13.7,4-24.5,6-32.5,6h-11.2l-0.7,3.3l0.7,0.7c-0.6,6.2-2,9.3-4,9.3c-6.9-1.4-12-4.5-15.3-9.3c-2.9-8.4-4.7-12.6-5.3-12.6h-1.9
		c-12.8,0-30.3,11.9-52.4,35.8c-6.5,5.8-12.9,8.7-19.2,8.7c-9.1,0-15.1-6.9-17.9-20.6v-1.9l0.7-7.9h-0.7
		c-17.8,8.8-30.8,13.2-39,13.2h-3.4c-13.9,0-22.9-6.9-27.1-20.6c-1.4-1.8-2-5.6-2-11.6s1.6-13.8,4.7-23.5v-0.7
		c-2.6-6.7-4-11.7-4-15.2c1.3-12.8,3.5-22.5,6.6-29.1h1.3c-2.2,11.9-3.4,19.8-3.4,23.8c0,7.9,2.2,11.9,6.6,11.9
		c1.5-4.9,2.6-7.3,3.4-7.3l1.3,1.3v1.3c0,8.1-3.1,13.7-9.3,16.6l-2.6,19.9c3.6,12.8,8.9,19.2,15.9,19.2c2.4,1.4,4.8,2,7.2,2h4
		c13.9,0,29.8-6.9,47.7-20.6c7.9-6.4,11.9-10.4,11.9-11.9l-15.2-30.5v-0.6c1.2-6.2,2.3-9.3,3.3-9.3l11.9,12.5v0.7
		c0,0.9-0.9,1.3-2.6,1.3l-0.6,0.6v1.3c4.4,6.9,7.1,13.4,7.9,19.2c0,11.3-2.9,18.6-8.7,21.8c-2.2,2.8-5.1,5.5-8.6,7.9
		c-2.2,6.1-3.4,11-3.4,14.6v3.4c1.1,5.7,4.9,8.6,11.3,8.6c8.1,0,20.2-8.8,36.4-26.5c15.7-14.1,29.3-21.2,41.1-21.2
		c1.1-2.6,1.9-4,2.6-4h1.3c9.1,8.4,18.6,12.6,28.5,12.6h8.6c12.4-0.9,18.5-2.2,18.5-4v-2c-12.4-8.1-18.5-18.2-18.5-30.5
		c4.1-17.2,14.5-25.8,31.2-25.8c19.4,2.5,29.1,5.8,29.1,9.9v2h-0.7l-10.6-2.6c-24.1,1-38.4,5.4-43,13.2c0.3,4.6,4,10.5,11.2,17.8
		c7.5,5.8,14.8,8.7,21.9,8.7h3.3c4.4-0.8,15.2-5.5,32.5-14l2.6-0.6l1.9,1.3c0,6.6-4,11-11.9,13.2l-35.1,17.2
		c-0.9,1.9-1.3,4.8-1.3,8.6v2c2.7,13.2,10,19.9,21.8,19.9c18.6,0,37.1-9.1,55.6-27.2v-1.3c0-5.9-4.6-39.9-13.9-102
		c-0.5-6.2-1.4-10.8-2.6-13.9C356.3,123.3,357.6,120,359,120z M614.6,120c3.9,0,5.9,5.3,5.9,15.9l4.7,7.9v1.3l-0.7,3.4l-7.2-2.6
		c-21,19.8-36.4,29.8-46.4,29.8V175c0-0.9,9.9-7.5,29.8-19.9c7.9-6.8,11.9-10.5,11.9-11.3v-0.6l-5.9-7.3v-0.6
		C606.6,127.2,609.3,122.1,614.6,120z M568.2,120.7l6.6,1.9l1.3,4.7c-0.6,2.2-1.3,3.3-2,3.3h-0.6c-2.3-2.2-4.3-3.3-6-3.3
		c-1.8,0.7-2.6,2.2-2.6,4.6v7.3c0,8.3-0.9,15.1-2.6,20.5h-1.9c-4.5-11.5-9.6-17.2-15.3-17.2c-3.9-2.2-5.9-4.6-5.9-7.2v-0.7
		c0-3.1,1.1-4.6,3.3-4.6c3.7,0,9.7,5.1,17.9,15.2h0.6v-7.9C560.9,130.3,563.3,124.8,568.2,120.7z M295.4,122c3.9,2.4,5.9,5,5.9,7.9
		c0,1.6-0.6,2.9-1.9,4c-3-2.2-5.2-3.4-6.6-3.4H292v1.3h-0.6l0.6,6.6v4c0,4.7-0.9,10.4-2.6,17.2h-0.6l-12.6-17.2l-1.9-0.6
		c-1.1,4.7-4.4,9.8-10,15.2c-8.8,6.2-15.4,9.3-19.9,9.3h-0.6v-0.6c16.8-11.6,25.6-19.5,26.5-23.8v-1.3c-3.5-2.6-5.3-5.1-5.3-7.3
		c0-4.2,1.3-6.4,4-6.6c3.6,0.4,9.5,6.6,17.8,18.5h1.3v-5.9l-0.6-0.7C288.4,127.5,291.1,122,295.4,122z M437.7,122
		c3.1,0.9,4.7,3.7,4.7,8.6l-0.7,7.9l6.6,7.9c-0.6,2.6-1.2,4-1.9,4h-0.7l-5.9-4c-2,0-5.8,3.3-11.3,10l-19.9,11.9H406V167l27.2-21.2
		l0.6-3.4c-2.2-2.2-3.8-4.6-4.6-7.2C429.2,129,432,124.6,437.7,122z M158.3,122.6c7.9,14.5,11.9,23.1,11.9,25.9v1.3l-5.3-1.3
		c8.8,47.5,13.2,75.4,13.2,83.7s-1.5,15.5-4.6,21.5l-1.3-1.3v-5.3c0-15.4-6-53.6-17.9-114.5C155.6,125.9,157,122.6,158.3,122.6z
		 M194.7,123.3h0.6v0.6l-1.9,9.3v2.6c0,3.4,0.9,5.4,2.6,6h1.3c0.9,0,1.3-0.7,1.3-2l0.6-0.6h1.3l0.7,1.9c-1.8,5.8-4,8.7-6.6,8.7
		c-3.5-1.1-5.3-4.4-5.3-10C191.2,128.8,193,123.3,194.7,123.3z M518.5,123.3h0.7l0.6,1.9c0,3.4-14.1,12.9-42.4,28.5
		c-6.3,5.3-10.7,7.9-13.2,7.9h-0.6v-1.3c0-4.1,8.6-10.7,25.8-19.9C502.3,131.6,512,125.8,518.5,123.3z M330.4,127.9l0.7,0.7h0.6
		c-2.6,8.4-4,16.8-4,25.2c0,5.1,1.8,9.1,5.3,11.9h1.3c1.1,0,2.2-2,3.4-6h1.3l0.6,2.6c0,7.5-2.4,12.2-7.2,14
		c-6.2-2.8-9.3-8.8-9.3-17.9v-0.6C324.5,139.6,326.9,129.6,330.4,127.9z M610.6,130.6v0.7c1.5,2.6,3.5,4,5.9,4h0.7
		c-0.6-4.4-1.5-6.6-2.6-6.6h-2L610.6,130.6z M123.8,128.6h0.7l-2.6,12.5c0.4,5.3,2.2,7.9,5.3,7.9l1.9-4h2v2
		c-1.4,6.6-2.9,9.9-4.7,9.9c-4.3,0-6.9-3.5-7.9-10.6V145C120.1,134.1,121.8,128.6,123.8,128.6z M94.1,129.2h0.6
		c3.4,0,5.6,2.4,6.6,7.3l-1.9,2.6c-1.5,0-3.1-0.7-4.7-2h-1.3l-1.3,1.3l0.7,16.6c-0.6,6.6-1.5,9.9-2.6,9.9
		c-5.7-11-10.8-16.5-15.3-16.5c-2.8,0-5-1.6-6.6-4.7v-1.3c0-3.1,1.1-5.3,3.4-6.6c3.7,0.6,9.2,5.1,16.5,13.2h0.7v-4.6
		C88.8,136.7,90.5,131.6,94.1,129.2z M433.8,132.6c0.9,2.2,2.4,3.3,4.7,3.3v-4l-1.3-1.3h-1.3L433.8,132.6z M241.1,139.8l1.3,1.3v0.7
		c0,4.1-8.2,8.7-24.5,13.9c-24.7,10.8-37.1,17.2-37.1,19.2l4,5.9c-0.6,2.2-1.2,3.4-1.9,3.4h-0.7c-3.9-0.7-5.9-2.7-5.9-6
		c0-8.6,6.2-15,18.5-19.2C205.6,153.8,221,147.4,241.1,139.8z M150.3,153.8l1.3,1.3c0,3.9-4.2,7.2-12.5,9.9
		c-33.6,14.7-51.1,24-52.4,27.8l4,6l-1.9,2.6h-2c-2.2-1-3.3-3-3.3-6c0-8.5,6.8-15.3,20.5-20.5C116.4,168.3,131.8,161.3,150.3,153.8z
		 M525.8,159.7h1.3v0.7l-2.6,9.9v3.4c0,4.2,2,6.7,5.9,7.2l3.4-5.3l0.6,0.7v0.6c-1.3,7.9-3.5,11.9-6.6,11.9
		c-4.4-2.3-6.6-5.8-6.6-10.6v-1.3C521.2,172.7,522.7,167,525.8,159.7z M617.9,163.7l0.7,0.7c-2.2,5.4-3.4,9.5-3.4,12.5
		c1,4,2.1,6,3.4,6h0.6c1.8-0.9,2.6-2.1,2.6-3.4h1.3l0.7,2c-1.4,5.7-3.6,8.6-6.6,8.6c-2.5,0-4.3-3.5-5.3-10.6
		C611.9,174.5,613.9,169.2,617.9,163.7z M446.4,166.3h2.6c5.2,3.5,8.1,6.4,8.6,8.7c0,2.5-1.8,5.1-5.3,7.9h-1.9l-6.6-4.7H443
		l-5.3,6.6l-0.6,0.7h-0.7c-5.5-2.4-9.1-5.2-10.6-8.7c1.8-4.5,3.5-7.2,5.3-7.9h0.7l9.3,4.7L446.4,166.3z M482.8,178.2h1.3
		c8.4,7.4,12.6,12.2,12.6,14.6v0.7l-4,0.6v2c5.9,9.3,9.2,16.1,9.9,20.5c0,13.1-2.6,21-7.9,23.8c-6.6,5.9-9.9,11.4-9.9,16.6
		c1.9,12.8,7.2,19.2,15.9,19.2h1.9c18.4,0,36.5-11.9,54.3-35.8v-1.3l-1.9-1.9l-15.3,2.6c-9.7,0-14.6-3.5-14.6-10.6v-4
		c2.7-11.9,7.8-17.9,15.3-17.9c4.8,0.2,11.2,4.8,19.2,14h0.7c1.6,0,8-4.2,19.2-12.6h2c1.3,0,2.2,3.8,2.6,11.3
		c3.3,3.9,6.8,5.9,10.6,5.9h4c6.8,0,13.7-7.1,20.5-21.2h0.7l1.3,1.3v0.7l-2,7.9c3.5,4.4,7.4,6.6,11.9,6.6h1.3c2.3,0,3.6-0.7,4-2
		v-0.6l-2.6-6.6c0.6-6.2,1.7-9.3,3.4-9.3c2.6,0,4.4,6.4,5.3,19.2c0,6.5-4.4,10.7-13.2,12.6c-5.2-1.2-10-4.1-14.6-8.7
		c-6.8,8.4-13.9,12.6-21.2,12.6c-10.2-2.5-15.3-7.6-15.3-15.3h-1.9c-8.8,5.6-13.2,10.2-13.2,14c0,16.4-15.2,32.9-45.7,49.6l-11.2,2
		h-4l-0.7,0.6c-5.6-1.1-10.9-4.2-15.9-9.3c-3.1-6.2-4.6-10.7-4.6-13.2v-12.5h-1.3c-23.8,16.9-41.1,25.9-51.7,27.1l-29.8,6.6
		l-0.6-0.6v-1.3c2.9-2.2,15.5-8,37.7-17.2c20.5-10.7,38.6-22.8,54.3-36.5c4.9-4.1,7.3-7.2,7.3-9.5s-3.8-9.7-11.3-22.3l-4.6-13.9
		L482.8,178.2z M227.8,184.2c10.6,0.9,15.9,2.6,15.9,5.3v1.3c-6.7,9.2-12.8,13.9-18.5,13.9h-0.7c0-2.2,2.9-5,8.7-8.6v-1.3l-10-1.3
		c-2.5,0-5.6,1.5-9.3,4.6h-1.3v-0.6C215.9,188.7,221,184.2,227.8,184.2z M458.9,187.5l0.7,0.7h0.6c0,4.7-3.3,12.2-9.9,22.5v1.3
		c7.9,5.1,11.9,10.2,11.9,15.2v6c0,7.7-6.9,14.5-20.6,20.5h-4c-5.7,0-8.6-4.2-8.6-12.5c0-5.9,2-12.7,5.9-20.6V220
		c0-2.2-3.7-6.2-11.2-11.9c0-1.2-1.1-2.3-3.4-3.4c-1.3-1.5-1.9-4-1.8-7.4s0.7-5.1,1.8-5.1h2c9.6,4.1,14.5,6.5,14.6,7.2v1.3
		c-1.8,0.2-2.6,0.9-2.6,2c2.6,3.1,5.1,4.6,7.2,4.6h1.3L458.9,187.5z M196.7,192.8h0.7l-2.6,15.9l3.3,5.3c1.4,0,2-0.6,2-1.9l0.6-0.7
		h1.3c0,5.2-1.3,8.8-4,10.6h-1.3c-3.5-2-5.3-6-5.3-11.9v-3.3C192.9,199,194.7,194.4,196.7,192.8z M105.3,220
		c7.5,2.6,11.3,5.5,11.3,8.6c-1.5,5.6-2.8,8.5-4,8.7h-2c-6.3-4.1-9.6-6.9-9.9-8.7C102.1,222.9,103.6,220,105.3,220z M533.1,224
		c0.5,1.8,1.8,2.6,4,2.6h6.6c2.2,0,3.4-0.4,3.4-1.3c-1.1-2.6-3.1-4-6-4h-5.3L533.1,224z M88.1,221.3v0.6l-1.3,11.3l2,6.6h1.3
		l1.9-2.6l0.7-0.7h0.6l0.7,0.7v1.9c-1.1,6.2-2.4,9.3-4,9.3h-1.3c-3.5-2.4-5.3-6.4-5.3-12.1C83.5,230.6,85,225.6,88.1,221.3z
		 M434.5,234.6v0.6c0,2.4,1.1,4.2,3.3,5.3h2.6c4.7,0,9.9-3.1,15.9-9.3c-1.2-2.6-5.4-5.5-12.5-8.6h-2
		C439.2,224.6,436.8,228.6,434.5,234.6z M348.4,237.2h0.6l0.7,2.6c0,3.8-13.5,10.4-40.4,19.9l-0.6-0.7v-0.6c0-3.8,5.3-7.4,15.9-10.6
		C327.5,245.3,335.4,241.8,348.4,237.2z M627.1,248.4h1.3v1.3h0.7c-2.2,9.3-5.1,14-8.7,14l-5.9-2c0,1.4-2.4,2.7-7.3,4h-0.6
		c-2.4,0-4.4-0.6-6-1.9H598c-1.8,0-10.6,5.1-26.5,15.2l-5.9,1.3h-0.7v-1.9c1.2,0,11.8-6.9,31.8-20.6l4-0.6h0.7l6.6,1.9
		c3.5,0,6.8-2.2,9.9-6.6c0.9,2.6,2.6,4,5.3,4C624.1,256.4,625.4,253.7,627.1,248.4z M264.9,257.1h0.6l1.3,1.3l-2.6,11.9
		c0.5,5.7,1.6,8.6,3.4,8.6h0.6c0.9,0,1.3-0.6,1.3-1.9l0.7-0.7h1.3l0.6,3.4c-1.3,4.8-2.6,7.2-4,7.2h-2.6c-1.6,0-3.4-3.3-5.3-9.9
		C260.7,271.7,262.3,265.1,264.9,257.1z M202,258.4h0.7l0.6,1.9c-1.3,3.6-1.9,6.9-1.9,10v3.3c0,3.4,1.1,5.6,3.3,6.6h0.7
		c0.8,0,1.7-1.3,2.6-4h1.3l0.6,2c-1.4,6.6-3.4,9.9-5.9,9.9c-4.4-2.5-6.6-5.3-6.6-8.6v-5.3C197.4,268.8,198.9,263.5,202,258.4z
		 M382.1,274.9h0.7v1.3h0.6c0,5.4-12.4,12.9-37.1,22.5l-1.3-1.3c0-4.2,4.4-7.5,13.2-9.9C373,279.1,381,274.9,382.1,274.9z"/>
</g>
</svg>
