<?xml version="1.0" encoding="utf-8"?>
<!-- Generator: Adobe Illustrator 25.2.3, SVG Export Plug-In . SVG Version: 6.00 Build 0)  -->
<svg version="1.1" xmlns="http://www.w3.org/2000/svg" xmlns:xlink="http://www.w3.org/1999/xlink" x="0px" y="0px"
	 viewBox="0 0 700 395" style="enable-background:new 0 0 700 395;" xml:space="preserve">
<style type="text/css">
	.st0{fill:#000222;}
	.st1{fill:#FFFFFF;}
</style>
<g id="Layer_1">
	<rect class="st0" width="700" height="395"/>
</g>
<g id="Layer_3">
	<g>
		<path class="st1" d="M273.5,368.6l1.1,4.2c0.2,0.9,0.5,1.8,0.6,2.6h0.1c0.2-0.8,0.5-1.7,0.7-2.6l1.3-4.2h1.3l1.3,4.1
			c0.3,1,0.5,1.9,0.7,2.7h0.1c0.1-0.8,0.4-1.7,0.6-2.7l1.2-4.1h1.5l-2.7,8.2H280l-1.3-3.9c-0.3-0.9-0.5-1.7-0.7-2.7h0
			c-0.2,1-0.5,1.8-0.7,2.7l-1.3,3.9h-1.4l-2.5-8.2H273.5z"/>
		<path class="st1" d="M286.3,368.6l1.1,4.2c0.2,0.9,0.5,1.8,0.6,2.6h0.1c0.2-0.8,0.5-1.7,0.7-2.6l1.3-4.2h1.3l1.3,4.1
			c0.3,1,0.5,1.9,0.7,2.7h0.1c0.1-0.8,0.4-1.7,0.6-2.7l1.2-4.1h1.5l-2.7,8.2h-1.4l-1.3-3.9c-0.3-0.9-0.5-1.7-0.7-2.7h0
			c-0.2,1-0.5,1.8-0.7,2.7l-1.3,3.9h-1.4l-2.5-8.2H286.3z"/>
		<path class="st1" d="M299,368.6l1.1,4.2c0.2,0.9,0.5,1.8,0.6,2.6h0.1c0.2-0.8,0.5-1.7,0.7-2.6l1.3-4.2h1.3l1.3,4.1
			c0.3,1,0.5,1.9,0.7,2.7h0.1c0.1-0.8,0.4-1.7,0.6-2.7l1.2-4.1h1.5l-2.7,8.2h-1.4l-1.3-3.9c-0.3-0.9-0.5-1.7-0.7-2.7h0
			c-0.2,1-0.5,1.8-0.7,2.7l-1.3,3.9h-1.4l-2.5-8.2H299z"/>
		<path class="st1" d="M309.9,375.9c0-0.6,0.4-1.1,1-1.1c0.6,0,1,0.4,1,1.1c0,0.6-0.4,1.1-1,1.1C310.3,377,309.9,376.5,309.9,375.9z
			"/>
		<path class="st1" d="M313.5,375.3c0.4,0.3,1.2,0.6,2,0.6c1.1,0,1.6-0.5,1.6-1.2c0-0.7-0.4-1.1-1.5-1.5c-1.5-0.5-2.2-1.3-2.2-2.3
			c0-1.3,1.1-2.4,2.8-2.4c0.8,0,1.6,0.2,2,0.5l-0.4,1.1c-0.3-0.2-0.9-0.5-1.7-0.5c-0.9,0-1.4,0.5-1.4,1.1c0,0.7,0.5,1,1.6,1.4
			c1.4,0.5,2.2,1.3,2.2,2.5c0,1.4-1.1,2.5-3.1,2.5c-0.9,0-1.7-0.2-2.3-0.6L313.5,375.3z"/>
		<path class="st1" d="M327.4,374.6c0,0.9,0,1.6,0.1,2.2h-1.3l-0.1-1.3h0c-0.4,0.7-1.3,1.5-2.7,1.5c-1.3,0-2.8-0.7-2.8-3.6v-4.8h1.5
			v4.6c0,1.6,0.5,2.6,1.8,2.6c1,0,1.7-0.7,2-1.4c0.1-0.2,0.1-0.5,0.1-0.8v-5h1.5V374.6z"/>
		<path class="st1" d="M329.8,371.1c0-1,0-1.8-0.1-2.6h1.3l0.1,1.6h0.1c0.4-1.1,1.3-1.8,2.3-1.8c0.2,0,0.3,0,0.4,0.1v1.4
			c-0.2,0-0.3-0.1-0.5-0.1c-1.1,0-1.8,0.8-2,1.9c0,0.2-0.1,0.4-0.1,0.7v4.4h-1.5V371.1z"/>
		<path class="st1" d="M339.9,376.8l-0.1-1h-0.1c-0.5,0.6-1.3,1.2-2.5,1.2c-1.7,0-2.5-1.2-2.5-2.4c0-2,1.8-3.1,4.9-3.1v-0.2
			c0-0.7-0.2-1.9-1.9-1.9c-0.8,0-1.6,0.2-2.1,0.6l-0.3-1c0.7-0.4,1.7-0.7,2.7-0.7c2.5,0,3.1,1.7,3.1,3.4v3.1c0,0.7,0,1.4,0.1,2
			H339.9z M339.7,372.6c-1.6,0-3.5,0.3-3.5,1.9c0,1,0.6,1.4,1.4,1.4c1.1,0,1.8-0.7,2-1.4c0.1-0.2,0.1-0.3,0.1-0.5V372.6z"/>
		<path class="st1" d="M343.5,364.7h1.5v5.1h0c0.2-0.4,0.6-0.8,1.1-1.1c0.4-0.3,1-0.4,1.5-0.4c1.1,0,2.9,0.7,2.9,3.5v4.9H349v-4.7
			c0-1.3-0.5-2.4-1.9-2.4c-1,0-1.7,0.7-2,1.5c-0.1,0.2-0.1,0.4-0.1,0.7v5h-1.5V364.7z"/>
		<path class="st1" d="M358.6,375.5L358.6,375.5c-0.5,0.8-1.4,1.5-2.7,1.5c-1.9,0-3.5-1.7-3.5-4.2c0-3.1,2-4.4,3.7-4.4
			c1.3,0,2.1,0.6,2.5,1.4h0l0.1-1.2h1.4c0,0.7-0.1,1.4-0.1,2.3v9.3h-1.5V375.5z M358.6,371.9c0-0.2,0-0.4-0.1-0.6
			c-0.2-0.9-1-1.7-2.1-1.7c-1.5,0-2.5,1.3-2.5,3.2c0,1.6,0.8,3.1,2.4,3.1c1,0,1.8-0.6,2.1-1.6c0.1-0.2,0.1-0.5,0.1-0.7V371.9z"/>
		<path class="st1" d="M369.4,374.6c0,0.9,0,1.6,0.1,2.2h-1.3l-0.1-1.3h0c-0.4,0.7-1.3,1.5-2.7,1.5c-1.3,0-2.8-0.7-2.8-3.6v-4.8h1.5
			v4.6c0,1.6,0.5,2.6,1.8,2.6c1,0,1.7-0.7,2-1.4c0.1-0.2,0.1-0.5,0.1-0.8v-5h1.5V374.6z"/>
		<path class="st1" d="M371.9,371.1c0-1,0-1.8-0.1-2.6h1.3l0.1,1.6h0.1c0.4-1.1,1.3-1.8,2.3-1.8c0.2,0,0.3,0,0.4,0.1v1.4
			c-0.2,0-0.3-0.1-0.5-0.1c-1.1,0-1.8,0.8-2,1.9c0,0.2-0.1,0.4-0.1,0.7v4.4h-1.5V371.1z"/>
		<path class="st1" d="M381.9,376.8l-0.1-1h-0.1c-0.5,0.6-1.3,1.2-2.5,1.2c-1.7,0-2.5-1.2-2.5-2.4c0-2,1.8-3.1,4.9-3.1v-0.2
			c0-0.7-0.2-1.9-1.9-1.9c-0.8,0-1.6,0.2-2.1,0.6l-0.3-1c0.7-0.4,1.7-0.7,2.7-0.7c2.5,0,3.1,1.7,3.1,3.4v3.1c0,0.7,0,1.4,0.1,2
			H381.9z M381.7,372.6c-1.6,0-3.5,0.3-3.5,1.9c0,1,0.6,1.4,1.4,1.4c1.1,0,1.8-0.7,2-1.4c0.1-0.2,0.1-0.3,0.1-0.5V372.6z"/>
		<path class="st1" d="M385.6,370.8c0-0.9,0-1.5-0.1-2.2h1.3l0.1,1.4h0c0.4-0.8,1.4-1.5,2.7-1.5c1.1,0,2.9,0.7,2.9,3.5v4.9h-1.5
			v-4.7c0-1.3-0.5-2.4-1.9-2.4c-1,0-1.8,0.7-2,1.5c-0.1,0.2-0.1,0.4-0.1,0.7v4.9h-1.5V370.8z"/>
		<path class="st1" d="M394.6,375.9c0-0.6,0.4-1.1,1-1.1c0.6,0,1,0.4,1,1.1c0,0.6-0.4,1.1-1,1.1C395,377,394.6,376.5,394.6,375.9z"
			/>
		<path class="st1" d="M404.4,376.5c-0.4,0.2-1.3,0.5-2.4,0.5c-2.5,0-4.1-1.7-4.1-4.2c0-2.5,1.7-4.4,4.4-4.4c0.9,0,1.7,0.2,2.1,0.4
			l-0.3,1.2c-0.4-0.2-0.9-0.4-1.7-0.4c-1.9,0-2.9,1.4-2.9,3.1c0,1.9,1.2,3.1,2.9,3.1c0.8,0,1.4-0.2,1.8-0.4L404.4,376.5z"/>
		<path class="st1" d="M413.5,372.6c0,3-2.1,4.4-4.1,4.4c-2.2,0-3.9-1.6-3.9-4.2c0-2.8,1.8-4.4,4.1-4.4
			C411.9,368.4,413.5,370.1,413.5,372.6z M406.9,372.7c0,1.8,1,3.2,2.5,3.2c1.4,0,2.5-1.3,2.5-3.2c0-1.4-0.7-3.2-2.5-3.2
			S406.9,371.1,406.9,372.7z"/>
		<path class="st1" d="M415.4,370.8c0-0.9,0-1.5-0.1-2.2h1.3l0.1,1.3h0.1c0.5-0.8,1.2-1.5,2.6-1.5c1.1,0,2,0.7,2.3,1.6h0
			c0.3-0.5,0.6-0.8,0.9-1.1c0.5-0.4,1-0.6,1.8-0.6c1.1,0,2.7,0.7,2.7,3.6v4.8h-1.5v-4.7c0-1.6-0.6-2.5-1.8-2.5
			c-0.9,0-1.5,0.6-1.8,1.4c-0.1,0.2-0.1,0.5-0.1,0.7v5.1h-1.5v-4.9c0-1.3-0.6-2.3-1.7-2.3c-0.9,0-1.6,0.7-1.9,1.5
			c-0.1,0.2-0.1,0.5-0.1,0.7v5h-1.5V370.8z"/>
	</g>
</g>
<g id="Layer_4">
	<path class="st1" d="M525.6,110.9c1.9,0.4,3.7,2.7,5.3,7l-1.2,3h-1.8l-3.5-3h-2.3c-1.6,0.6-2.3,2-2.3,4.1v3.5l-0.5,8.7h0.5
		l-2.3,14.6h-1.2c-5.4-10.9-10.7-16.3-15.7-16.3c-3.5-2-5.3-4.1-5.3-6.5v-1.2c0-1.7,0.8-3,2.3-4c7.1,2.9,12.5,7.9,16.3,15.2h1.2
		l1.2-1.2v-8.2C518,116.1,521.1,110.9,525.6,110.9z M567,111.5c4.3,0,6.4,5.8,6.4,17.5c1.5,0.9,2.8,2.4,4.1,4.7v1.2l-0.6,2.9
		l-6.4-2.3h-0.6c-14.5,14.9-27.7,24.2-39.7,28l-3.5,1.2l-0.5-0.5v-0.6c20.1-12.6,33.3-22.3,39.7-29.2v-1.7c-3.9-2.9-5.8-5.8-5.8-8.8
		C560,118.5,562.4,114.4,567,111.5z M232.8,112c4.3,1.2,6.5,3.8,6.5,7.6c-0.5,1.9-1.1,2.9-1.8,2.9h-0.5l-4.1-2.9H231
		c-1.1,0-2.1,9.1-3,27.4c-3,14.8-6.5,22.2-10.5,22.2c-4,4.1-7.1,6.2-9.3,6.5v-1.2c10.9-11.5,16.3-18.7,16.3-21.6v-3.5
		c-3.9-12-9.5-18-16.9-18c-2.7-1.2-4.1-3.2-4.1-5.8c0.3-3.9,1.1-5.8,2.3-5.8h0.6c4,0,10.3,5.8,18.7,17.5l1.2-1.8v-5.8
		C226.4,121,228.5,115.1,232.8,112z M327.3,113.8h1.2c8.6,13.9,12.8,22.6,12.8,26.2v0.6h-1.2c-2.1-2-3.6-3-4.7-3l-0.5,0.6v0.5
		c7.8,41.4,11.7,65.7,11.7,73v0.5c0,10.6-3.3,17.8-10,21.6c-4.1,2.2-15,6.2-32.7,12.2c-10,6.5-19.9,16.6-29.7,30.3
		c-3.8,4-7.7,6.5-11.7,7.6c-8.7,0-14.3-6.4-17-19.3l1.8-12.8v-0.5h-0.6c-24.9,16.7-43.7,25.9-56.5,27.4l-9.3,3.5h-0.6v-1.7
		l39.1-22.2c19.5-11.7,35.7-24.5,48.4-38.5l1.8-2.3v-1.8c0-1.6-2.5-2.5-7.6-2.9l-9.3,1.7c-8.1,0-12.2-3.3-12.2-9.9
		c0-9.2,4.5-15.7,13.4-19.3h1.2c8.2,0,14.4,7,18.7,21l0.6,7v4.1c0,7-6.2,15.7-18.7,26.2c-3.9,6.2-5.8,11.7-5.8,16.3v7.6
		c0,4.1,1.9,6.6,5.8,7.5c8.8,0,17-6.2,24.5-18.7c12.8-13.7,21.7-20.9,26.8-21.5c0.5-0.7,9.6-4,27.4-10c4.7-3.6,7-5.7,7-6.4l-14-87
		l-2.3-9.3L327.3,113.8z M397.9,114.4h1.2c2.3,1.4,3.5,3.7,3.5,7v1.8l-0.6,6.4l5.8,7v1.2l-0.5,3c-1.6,0-3.9-1.2-7-3.5
		c-1.7,0-6.2,4.1-13.5,12.2c-7.8,5.1-13,7.6-15.7,7.6v-1.2c12.3-8.9,20.3-15.7,23.9-20.5l-4-8.2v-0.5
		C390.9,122,393.2,117.9,397.9,114.4z M302.8,115c3.1,1.6,4.7,5.1,4.7,10.5l-0.5,5.8c4.3,3.5,6.4,6,6.4,7.5
		c-0.5,2.3-1.1,3.5-1.7,3.5l-4.7-3.5h-1.2c-2,0-5.3,3.3-10,10c-12,12-21.5,19.2-28.5,21.5v-0.5c21.8-20.1,32.7-31,32.7-32.7V136
		c-3.8-3.1-5.9-5.6-6.5-7.6C295.4,119.4,298.5,115,302.8,115z M354.7,115h1.2c7.8,15.9,11.7,25,11.7,27.4v0.6c-1.5,0-3.3-1-5.3-3
		l-0.5,0.6h-0.6c8.2,46.3,12.3,73.5,12.3,81.7c-1.6,13.2-3.3,19.8-5.3,19.8l-0.5-0.6h-0.6l1.2-6.4c0-12.5-5.6-49.5-16.9-110.8
		C352.6,118.1,353.8,115,354.7,115z M474.2,115.5h1.2l0.6,0.6h0.5c0,3.3-6,8.2-18,14.5l-34.5,21.6l-1.2-1.2v-0.6
		c0-4.1,13.2-13.2,39.7-27.4L474.2,115.5z M562.9,122l5.3,4h1.7v-3.5c0-2.1-0.8-3.4-2.3-4h-2.3C563.7,119.3,562.9,120.4,562.9,122z
		 M394.4,123.7v1.2l2.9,3h1.8l0.5-3c0-1.6-0.8-2.7-2.3-3.5h-0.5L394.4,123.7z M299.9,122l-2.3,2.9c0,1.8,2.1,3.2,6.4,4.1v-4.1
		C303.1,122.9,301.8,122,299.9,122z M169.8,122.5h0.6c-1.6,2.4-2.3,6.1-2.3,11.1c0,3.3,1.3,5.2,4,5.8l1.8-3h0.5l0.6,0.6h0.5
		c-1.6,6.2-3.3,9.3-5.2,9.3c-2.5,0-4.3-3.3-5.3-10V136C166.3,127,167.9,122.5,169.8,122.5z M255.5,124.3v0.5l-1.2,8.8v3.5
		c0,3,1.3,5.5,4,7.5h1.8c0.6,0,1.4-1.2,2.3-3.5h1.2v0.6c0,4.5-1.8,8-5.3,10.5c-4.7-2-7-6.5-7-13.5
		C252.5,129.2,253.8,124.3,255.5,124.3z M482.4,151.1h1.2l-2.3,8.7v2.3c0,3.5,1.4,6.2,4.1,8.2h1.7c0.9,0,1.7-1.3,2.3-4h1.2
		c-1.2,7-2.8,10.5-4.7,10.5h-2.3c-3.1-2.6-4.7-5.4-4.7-8.2v-1.2C478.9,161.9,480.1,156.5,482.4,151.1z M569.9,153.5h1.2l-2.9,8.2
		v2.3c0,3.7,1.3,6.2,4,7.5c1.6-0.4,2.3-1.1,2.3-2.3h1.8c0,3.3-1.4,6-4.1,8.2h-2.3c-2.7-1.4-4-4.7-4-9.9
		C565.9,164.9,567.2,160.3,569.9,153.5z M408.4,156.4c4.6,2.6,7.5,5.5,8.7,8.8c0,2.3-1.7,4.8-5.2,7.5l-8.8-5.2
		c-2.6,4.4-4.3,6.7-5.2,7c-6.6-2.5-10-4.9-10-7c1.2-4.7,2.7-7.4,4.7-8.2l8.8,4h0.5C404.9,158.7,407.1,156.4,408.4,156.4z M183.2,157
		l0.5,0.5h0.6l-0.6,3v1.7c0.3,6.6,1.4,10,3.5,10h1.2c0.8,0,1.6-1.2,2.3-3.5h1.2c-1,7-2.4,10.5-4,10.5h-1.8
		c-3.5-2.4-5.2-6.3-5.2-11.7L183.2,157z M442.7,168l12.3,12.8v1.8h-3.5l-1.2,1.2c7.4,11,11,19.6,11,25.7c0,9-5.4,17.7-16.3,26.2
		l-1.2,7.6c1.6,12.8,7.6,19.2,18.1,19.2c16.1,0,33.2-11.7,51.3-35v-1.7l-1.8-1.8H511l-11.7,2.3h-3.5c-8.6,0-12.8-3.5-12.8-10.5v-1.2
		c1.9-12.4,6.4-18.7,13.4-18.7c5.3,0,11.5,4.5,18.7,13.5h1.8l18.7-12.8h1.2l1.2,1.7v5.8c0,3.5,3.1,6.5,9.3,8.8h6.4
		c6.6,0,12.7-6,18.1-18.1l1.7-1.2h1.2v0.6l-2.3,8.2c3.3,3.9,7.6,5.8,12.8,5.8h3l2.3-2.3l-3.5-7c1.1-5.4,2.1-8.2,2.9-8.2h0.6
		c3.5,4.8,5.2,9.4,5.2,14c0,8.8-3.7,13.8-11,15.2h-0.6c-5.2,0-10.4-2.5-15.7-7.6h-0.6c-5.6,8.2-11.7,12.3-18.4,12.3
		s-11.4-3.1-14.3-9.3c-0.8-3.5-1.6-5.3-2.3-5.3h-1.2c-8.6,6.1-12.8,10.6-12.8,13.5c0,13-12.1,27.7-36.2,44.3
		c-4.9,3.1-11.5,5.2-19.8,6.4c-8.2,0-15-5.1-20.4-15.2l-1.8-9.3v-3.5l0.6-5.8h-1.8c-25.3,17.9-42.8,26.8-52.5,26.8l-25,5.8v-0.5
		c1.1-2.1,9.8-6.2,26.2-12.3c18-8.8,38.4-22,61.3-39.7l7-7.5v-1.8c0-1-4.1-8.9-12.3-23.9l-4-11.1C440.4,170.7,441.3,168,442.7,168z
		 M156.4,170.4h1.2c-3.1,15-4.7,25.6-4.7,31.7s2.3,9.7,7,10.9l3.5-5.8l1.2,1.2c0,4.8-1.9,9.3-5.8,13.4h-0.6
		c-6.2-1.7-9.3-7.3-9.3-16.9C148.8,198.6,151.3,187.2,156.4,170.4z M301.6,175.6h0.6c1,0,2,4.3,2.9,12.8c1.7,2.7,4,4,7,4h0.6
		c0.8,0,1.2-0.6,1.2-1.7c-2.3-4.4-3.5-7.5-3.5-9.3l1.2-5.8h0.5c0.9,0,2.6,4.7,5.3,14c0,7-2.2,10.5-6.5,10.5l-8.7-3.5
		c-3.3,4.3-6,6.4-8.2,6.4c-3.1,0-5.3-2.3-6.5-7l1.2-11h-0.5l1.2-4.7h1.2l0.5,2.3l-0.5,7.5c0,3.9,1.6,5.8,4.7,5.8h1.7
		c2.9-1.8,4.5-3.9,4.7-6.4l-0.5-12.3L301.6,175.6z M418.9,177.4h0.5c0,6.4-3.1,13.6-9.3,21.6v1.7c8.2,6.3,12.3,11.4,12.3,15.2
		c0,11.4-6.2,19.4-18.7,24l-3.5,0.5c-5.4,0-8.2-4.3-8.2-12.8v-1.2c0-4.8,1.7-10.7,5.2-17.5v-1.7c-10.5-9.3-15.7-15-15.7-17l-0.6-2.9
		l1.2-5.3l15.8,5.8v1.8c0,0.8-0.6,1.2-1.8,1.2l-0.5,0.5v1.2c2.9,3.1,5.6,4.6,8.2,4.7L418.9,177.4z M201.9,192.5
		c5.2,0,10.3,7.4,15.2,22.2v1.8c0,5.8-1.9,8.7-5.8,8.7c-5.9,0-12.7-1.6-20.5-4.7h-0.5l-4.7,11.7c-11.9,12.3-24.9,21.5-39.1,27.5
		c-7.4,4.4-21.4,8.8-42,13.4v-1.2c33.4-15.5,58.2-29.3,74.1-41.4c4.3-3,8.5-12.3,12.8-28C195,195.8,198.5,192.5,201.9,192.5z
		 M247.9,200.7v1.8l3,0.5h3.5c3.9-0.5,5.8-1.2,5.8-2.3l-3.5-2.9h-4.1C250.5,197.8,248.9,198.8,247.9,200.7z M193.7,207.1v1.7
		c2.8,3.1,7.5,4.7,14,4.7l0.5-1.7c-2.5-5.1-5.8-7.6-9.9-7.6C196.3,204.2,194.7,205.2,193.7,207.1z M490,211.8v1.7l7,1.8
		c4.7-0.6,7-1.4,7-2.3c-1.2-3.1-4.3-4.7-9.3-4.7C492.1,209.3,490.6,210.5,490,211.8z M402.5,210.6c-4.3,5.9-6.5,10.2-6.5,12.8v1.7
		l3.5,3.5h0.6c5.5,0,11-2.9,16.3-8.7C416.5,216.5,411.9,213.4,402.5,210.6z M581,235.1c0.8,0,1.2,0.6,1.2,1.7
		c-2.2,7.4-4.7,11.1-7.6,11.1l-5.2-1.2h-0.6c-2.1,1.7-4.6,3-7.5,4l-7-2.3c-3.5,0-11.5,4.5-24,13.5c-3.1,1.6-6,2.3-8.7,2.3
		c20.5-14.8,31.8-22.2,33.8-22.2l8.2,2.9c2.1-0.6,4.8-2.7,8.2-6.4l2.9,2.9h3c0.8,0,1.8-2.1,2.9-6.4H581z M212.4,238l1.2,1.2
		c0,4.7-10.9,12.5-32.7,23.3c-6.7,4.3-10.8,6.5-12.3,6.5H168v-1.2c0-3.3,9.1-9.9,27.4-19.8L212.4,238z M333.7,245v1.2l-1.8,7v0.6
		c0,5.8,1.8,8.7,5.3,8.7l2.3-2.9h0.5c-1.2,6.6-3,9.9-5.2,9.9c-3.3,0-5.5-3.5-6.5-10.5C330.6,249.7,332.4,245,333.7,245z"/>
</g>
</svg>
