<?xml version="1.0" encoding="utf-8"?>
<!-- Generator: Adobe Illustrator 25.2.3, SVG Export Plug-In . SVG Version: 6.00 Build 0)  -->
<svg version="1.1" xmlns="http://www.w3.org/2000/svg" xmlns:xlink="http://www.w3.org/1999/xlink" x="0px" y="0px"
	 viewBox="0 0 700 395" style="enable-background:new 0 0 700 395;" xml:space="preserve">
<style type="text/css">
	.st0{fill:#000222;}
	.st1{fill:#FFFFFF;}
</style>
<g id="Layer_1">
	<rect class="st0" width="700" height="395"/>
</g>
<g id="Layer_3">
	<g>
		<path class="st1" d="M273.5,368.6l1.1,4.2c0.2,0.9,0.5,1.8,0.6,2.6h0.1c0.2-0.8,0.5-1.7,0.7-2.6l1.3-4.2h1.3l1.3,4.1
			c0.3,1,0.5,1.9,0.7,2.7h0.1c0.1-0.8,0.4-1.7,0.6-2.7l1.2-4.1h1.5l-2.7,8.2H280l-1.3-3.9c-0.3-0.9-0.5-1.7-0.7-2.7h0
			c-0.2,1-0.5,1.8-0.7,2.7l-1.3,3.9h-1.4l-2.5-8.2H273.5z"/>
		<path class="st1" d="M286.3,368.6l1.1,4.2c0.2,0.9,0.5,1.8,0.6,2.6h0.1c0.2-0.8,0.5-1.7,0.7-2.6l1.3-4.2h1.3l1.3,4.1
			c0.3,1,0.5,1.9,0.7,2.7h0.1c0.1-0.8,0.4-1.7,0.6-2.7l1.2-4.1h1.5l-2.7,8.2h-1.4l-1.3-3.9c-0.3-0.9-0.5-1.7-0.7-2.7h0
			c-0.2,1-0.5,1.8-0.7,2.7l-1.3,3.9h-1.4l-2.5-8.2H286.3z"/>
		<path class="st1" d="M299,368.6l1.1,4.2c0.2,0.9,0.5,1.8,0.6,2.6h0.1c0.2-0.8,0.5-1.7,0.7-2.6l1.3-4.2h1.3l1.3,4.1
			c0.3,1,0.5,1.9,0.7,2.7h0.1c0.1-0.8,0.4-1.7,0.6-2.7l1.2-4.1h1.5l-2.7,8.2h-1.4l-1.3-3.9c-0.3-0.9-0.5-1.7-0.7-2.7h0
			c-0.2,1-0.5,1.8-0.7,2.7l-1.3,3.9h-1.4l-2.5-8.2H299z"/>
		<path class="st1" d="M309.9,375.9c0-0.6,0.4-1.1,1-1.1c0.6,0,1,0.4,1,1.1c0,0.6-0.4,1.1-1,1.1C310.3,377,309.9,376.5,309.9,375.9z
			"/>
		<path class="st1" d="M313.5,375.3c0.4,0.3,1.2,0.6,2,0.6c1.1,0,1.6-0.5,1.6-1.2c0-0.7-0.4-1.1-1.5-1.5c-1.5-0.5-2.2-1.3-2.2-2.3
			c0-1.3,1.1-2.4,2.8-2.4c0.8,0,1.6,0.2,2,0.5l-0.4,1.1c-0.3-0.2-0.9-0.5-1.7-0.5c-0.9,0-1.4,0.5-1.4,1.1c0,0.7,0.5,1,1.6,1.4
			c1.4,0.5,2.2,1.3,2.2,2.5c0,1.4-1.1,2.5-3.1,2.5c-0.9,0-1.7-0.2-2.3-0.6L313.5,375.3z"/>
		<path class="st1" d="M327.4,374.6c0,0.9,0,1.6,0.1,2.2h-1.3l-0.1-1.3h0c-0.4,0.7-1.3,1.5-2.7,1.5c-1.3,0-2.8-0.7-2.8-3.6v-4.8h1.5
			v4.6c0,1.6,0.5,2.6,1.8,2.6c1,0,1.7-0.7,2-1.4c0.1-0.2,0.1-0.5,0.1-0.8v-5h1.5V374.6z"/>
		<path class="st1" d="M329.8,371.1c0-1,0-1.8-0.1-2.6h1.3l0.1,1.6h0.1c0.4-1.1,1.3-1.8,2.3-1.8c0.2,0,0.3,0,0.4,0.1v1.4
			c-0.2,0-0.3-0.1-0.5-0.1c-1.1,0-1.8,0.8-2,1.9c0,0.2-0.1,0.4-0.1,0.7v4.4h-1.5V371.1z"/>
		<path class="st1" d="M339.9,376.8l-0.1-1h-0.1c-0.5,0.6-1.3,1.2-2.5,1.2c-1.7,0-2.5-1.2-2.5-2.4c0-2,1.8-3.1,4.9-3.1v-0.2
			c0-0.7-0.2-1.9-1.9-1.9c-0.8,0-1.6,0.2-2.1,0.6l-0.3-1c0.7-0.4,1.7-0.7,2.7-0.7c2.5,0,3.1,1.7,3.1,3.4v3.1c0,0.7,0,1.4,0.1,2
			H339.9z M339.7,372.6c-1.6,0-3.5,0.3-3.5,1.9c0,1,0.6,1.4,1.4,1.4c1.1,0,1.8-0.7,2-1.4c0.1-0.2,0.1-0.3,0.1-0.5V372.6z"/>
		<path class="st1" d="M343.5,364.7h1.5v5.1h0c0.2-0.4,0.6-0.8,1.1-1.1c0.4-0.3,1-0.4,1.5-0.4c1.1,0,2.9,0.7,2.9,3.5v4.9H349v-4.7
			c0-1.3-0.5-2.4-1.9-2.4c-1,0-1.7,0.7-2,1.5c-0.1,0.2-0.1,0.4-0.1,0.7v5h-1.5V364.7z"/>
		<path class="st1" d="M358.6,375.5L358.6,375.5c-0.5,0.8-1.4,1.5-2.7,1.5c-1.9,0-3.5-1.7-3.5-4.2c0-3.1,2-4.4,3.7-4.4
			c1.3,0,2.1,0.6,2.5,1.4h0l0.1-1.2h1.4c0,0.7-0.1,1.4-0.1,2.3v9.3h-1.5V375.5z M358.6,371.9c0-0.2,0-0.4-0.1-0.6
			c-0.2-0.9-1-1.7-2.1-1.7c-1.5,0-2.5,1.3-2.5,3.2c0,1.6,0.8,3.1,2.4,3.1c1,0,1.8-0.6,2.1-1.6c0.1-0.2,0.1-0.5,0.1-0.7V371.9z"/>
		<path class="st1" d="M369.4,374.6c0,0.9,0,1.6,0.1,2.2h-1.3l-0.1-1.3h0c-0.4,0.7-1.3,1.5-2.7,1.5c-1.3,0-2.8-0.7-2.8-3.6v-4.8h1.5
			v4.6c0,1.6,0.5,2.6,1.8,2.6c1,0,1.7-0.7,2-1.4c0.1-0.2,0.1-0.5,0.1-0.8v-5h1.5V374.6z"/>
		<path class="st1" d="M371.9,371.1c0-1,0-1.8-0.1-2.6h1.3l0.1,1.6h0.1c0.4-1.1,1.3-1.8,2.3-1.8c0.2,0,0.3,0,0.4,0.1v1.4
			c-0.2,0-0.3-0.1-0.5-0.1c-1.1,0-1.8,0.8-2,1.9c0,0.2-0.1,0.4-0.1,0.7v4.4h-1.5V371.1z"/>
		<path class="st1" d="M381.9,376.8l-0.1-1h-0.1c-0.5,0.6-1.3,1.2-2.5,1.2c-1.7,0-2.5-1.2-2.5-2.4c0-2,1.8-3.1,4.9-3.1v-0.2
			c0-0.7-0.2-1.9-1.9-1.9c-0.8,0-1.6,0.2-2.1,0.6l-0.3-1c0.7-0.4,1.7-0.7,2.7-0.7c2.5,0,3.1,1.7,3.1,3.4v3.1c0,0.7,0,1.4,0.1,2
			H381.9z M381.7,372.6c-1.6,0-3.5,0.3-3.5,1.9c0,1,0.6,1.4,1.4,1.4c1.1,0,1.8-0.7,2-1.4c0.1-0.2,0.1-0.3,0.1-0.5V372.6z"/>
		<path class="st1" d="M385.6,370.8c0-0.9,0-1.5-0.1-2.2h1.3l0.1,1.4h0c0.4-0.8,1.4-1.5,2.7-1.5c1.1,0,2.9,0.7,2.9,3.5v4.9h-1.5
			v-4.7c0-1.3-0.5-2.4-1.9-2.4c-1,0-1.8,0.7-2,1.5c-0.1,0.2-0.1,0.4-0.1,0.7v4.9h-1.5V370.8z"/>
		<path class="st1" d="M394.6,375.9c0-0.6,0.4-1.1,1-1.1c0.6,0,1,0.4,1,1.1c0,0.6-0.4,1.1-1,1.1C395,377,394.6,376.5,394.6,375.9z"
			/>
		<path class="st1" d="M404.4,376.5c-0.4,0.2-1.3,0.5-2.4,0.5c-2.5,0-4.1-1.7-4.1-4.2c0-2.5,1.7-4.4,4.4-4.4c0.9,0,1.7,0.2,2.1,0.4
			l-0.3,1.2c-0.4-0.2-0.9-0.4-1.7-0.4c-1.9,0-2.9,1.4-2.9,3.1c0,1.9,1.2,3.1,2.9,3.1c0.8,0,1.4-0.2,1.8-0.4L404.4,376.5z"/>
		<path class="st1" d="M413.5,372.6c0,3-2.1,4.4-4.1,4.4c-2.2,0-3.9-1.6-3.9-4.2c0-2.8,1.8-4.4,4.1-4.4
			C411.9,368.4,413.5,370.1,413.5,372.6z M406.9,372.7c0,1.8,1,3.2,2.5,3.2c1.4,0,2.5-1.3,2.5-3.2c0-1.4-0.7-3.2-2.5-3.2
			S406.9,371.1,406.9,372.7z"/>
		<path class="st1" d="M415.4,370.8c0-0.9,0-1.5-0.1-2.2h1.3l0.1,1.3h0.1c0.5-0.8,1.2-1.5,2.6-1.5c1.1,0,2,0.7,2.3,1.6h0
			c0.3-0.5,0.6-0.8,0.9-1.1c0.5-0.4,1-0.6,1.8-0.6c1.1,0,2.7,0.7,2.7,3.6v4.8h-1.5v-4.7c0-1.6-0.6-2.5-1.8-2.5
			c-0.9,0-1.5,0.6-1.8,1.4c-0.1,0.2-0.1,0.5-0.1,0.7v5.1h-1.5v-4.9c0-1.3-0.6-2.3-1.7-2.3c-0.9,0-1.6,0.7-1.9,1.5
			c-0.1,0.2-0.1,0.5-0.1,0.7v5h-1.5V370.8z"/>
	</g>
</g>
<g id="Layer_4">
	<path class="st1" d="M343.9,110.9c2.2,0,3.4,2.3,3.7,6.9l-0.5,4.8l3.2,5.8c-0.8,2.1-1.5,3.2-2.1,3.2l-2.7-2.1h-1.1
		c-8,7.8-14.9,12.4-20.7,13.8l-0.6,0.6h-0.5v-1.1c9.3-6.3,15.4-11.4,18.6-15.4c-2.1-2.6-3.2-4.5-3.2-5.8h-0.5
		C337.5,117.1,339.7,113.6,343.9,110.9z M342.3,117.3l-1.1,1.6l2.1,2.1h1.6v-0.5C345,118.3,344.1,117.3,342.3,117.3z M263.6,118.3
		h2.1c1.6,0,2.8,2.5,3.8,7.4l-1.6,2.1h-0.5c-2.2-2.1-3.8-3.2-4.8-3.2l-2.1,17.5c-0.9,4.6-1.8,6.9-2.6,6.9h-0.6
		c-4-10.3-8.4-15.4-13.2-15.4l-2.1-3.2V129c0-2.3,0.7-3.9,2.1-4.8c3.6,0.8,8.2,5.4,13.8,13.8l2.6-15.4
		C261.9,119.8,263,118.3,263.6,118.3z M292.9,124.7h1.1v0.5c-4.6,12.3-6.9,21.7-6.9,28.2v0.5c0,4.8,1.3,7.8,3.8,9.1h0.5
		c1.1-0.3,2.3-2.3,3.8-5.9h1.1v1.6c0,5.7-2.1,10-6.4,12.8c-2.8,0-5.1-3.2-6.9-9.6V156C282.8,150.2,286.2,139.8,292.9,124.7z
		 M208.4,129v2.1c-1.7,2.5-3.3,7.6-4.7,15.4c0,6.1,1.8,9.3,5.3,9.6c0.5,0,1.4-1.4,2.6-4.3h0.6l1.1,1.1c-1.3,7.8-3.6,11.7-6.9,11.7
		c-2.5,0-4.6-3.4-6.4-10.1c0.4-8.4,2.7-16.5,6.9-24.4L208.4,129z M388.5,129c1.6,0.3,3,2.1,4.3,5.3l-1.6,9c3.5,3.8,5.3,6.3,5.3,7.4
		l-0.5,2.7h-1.6l-5.8-3.8c-9.2,8.9-18.7,14.9-28.7,18.1l-0.6-0.5v-0.6l20.8-13.8l4.7-5.3V147c-2-2.5-3.2-4.8-3.7-6.9
		C381.1,135.9,383.6,132.2,388.5,129z M179.7,131.1c3.9,2.4,5.9,4.9,5.9,7.4c-0.7,1.6-1.4,2.5-2.1,2.6h-0.6
		c-2.1-2.1-3.9-3.2-5.3-3.2c-0.9,0-1.8,7.6-2.6,22.9c-0.7,0-1.1,1.1-1.1,3.2h-1.6c-3.9-10.6-8.9-15.9-14.9-15.9
		c-1.4-1.5-2.3-3.1-2.6-4.8l1.6-5.3h0.6c3.7,0,8.9,4.8,15.4,14.4c0.6-1,1.5-5.8,2.7-14.4c1.3-4.3,2.9-6.4,4.7-6.4V131.1z
		 M225.4,131.6h2.1c3.5,14.7,5.3,34,5.3,57.9h0.6l-0.6,0.5l0.6,6.4c0,22.7,0.5,34,1.6,34l-0.5,0.6v0.5c1.6,13.5,5.3,20.2,11.1,20.2
		l2.1,0.6h2.7c5.3,0,10.4-4.3,15.4-12.8h1.6c5.6,7.8,15.5,11.7,29.8,11.7c12.3-0.4,19.2-1.6,20.7-3.8v-1.6
		c0.6-13.3,5.2-21.5,13.8-24.4h0.6c3.7,0,6,4.1,6.9,12.2v0.6c0,2.1-0.9,6.2-2.6,12.2l1.6,1.1h3.8c6.7,0,10.1-1.9,10.1-5.8l-9-95.6
		v-0.6c1.2-5.3,2.2-7.9,3.2-7.9h0.5c4.4,7.7,7.4,15,9.1,21.7l-0.6,0.6H354l-2.6-2.1h-1.6v0.5l7.4,77.1c0,14.9-6.4,22.3-19.1,22.3
		c-3.3,0-7.4-0.9-12.2-2.7c-13.8,4.3-24.8,6.4-32.9,6.4l-12.3-1.1v0.6c0,8.1-1.6,12.2-4.7,12.2c-5.6-1.5-9.7-4.7-12.3-9.6
		c-0.8-5.3-1.5-7.9-2.1-7.9c-5,5-9.4,7.4-13.2,7.4c-7.3,0-12.6-4.4-15.9-13.3c-2.3,0-4.2-29-5.9-87.1l-3.7-22.3L225.4,131.6z
		 M504.4,132.6c3.2,1.7,4.7,3.8,4.7,6.4c0,1.4-0.7,2.5-2.1,3.2h-0.5l-3.8-3.2c-2.8,0-4.3,3.5-4.3,10.6c-0.7,8.8-1.6,14.5-2.6,17
		h-1.1c-0.6,0-1.7-2.1-3.2-6.4c-4.5-6.7-8.2-10.1-11.2-10.1c-2.1-1-3.2-2.1-3.2-3.2l-0.5-0.6l-0.6-1.6c0.9-2.8,1.8-4.3,2.7-4.3
		c3.4,0,8.5,4.8,15.4,14.3h1.1v-0.5c0-11.3,2.3-18.4,6.9-21.3L504.4,132.6z M459.2,133.7l0.6,1.6c0,2.8-5.9,6.7-17.6,11.7
		c-1.1,1.2-5.5,3.7-13.2,7.4c-11.4,6.7-17.6,10.1-18.6,10.1h-0.5v-1.1h-0.6c0-3.4,7.8-8.7,23.4-15.9
		C435.8,145.3,444.7,140.7,459.2,133.7z M384.8,138c0.9,2.1,2.1,3.2,3.8,3.2l0.5-0.5v-2.1c0-1.8-0.5-2.9-1.6-3.2h-0.6
		C385.5,136,384.8,136.9,384.8,138z M543.7,135.8c2.2,0,3.4,2.7,3.7,8v5.8c0,1.1,1.3,3.6,3.8,7.4v0.6l-0.6,2.1l-5.8-2.1h-1.1
		c-13.7,12.6-27,20.5-39.9,23.9h-1.1l-0.5-0.5v-0.6c17-8.8,29.7-17,38.3-24.4v-1.6c-3.2-3-4.8-5.5-4.8-7.4
		C535.7,140.4,538.3,136.6,543.7,135.8z M538.9,143.8v1.1c0.8,1.3,2.2,2.6,4.3,3.7h1.6v-4.3c-0.7-1.7-2-2.6-3.8-2.6L538.9,143.8z
		 M324.8,152.8h2.1c5.1,0,8.1,1.3,9,3.8c-3.4,6.7-7.5,10.1-12.2,10.1c-1.3,1.1-3,1.6-5.3,1.6l-0.6-0.6v-0.5l8-5.9l-1.1-1.1h-5.3
		c-2.1,0-4,0.7-5.9,2.1h-0.5v-1.6C315.5,155.5,319.4,152.8,324.8,152.8z M256.8,159.2h0.5v0.6l-1.6,10.6c0.9,4.6,1.9,6.9,3,6.9
		c1.1,0,2.2-1.4,3.3-4.3h0.5l0.6,0.6v0.5c-0.9,6.4-2.6,9.6-4.8,9.6h-0.5c-3.2-2.3-4.8-5.1-4.8-8.5v-0.5
		C253,168.3,254.3,163.2,256.8,159.2z M464.5,166.7v0.6c-1.4,2.1-2.1,5.1-2.1,9v2.7c0,2.9,1.6,4.7,4.8,5.3l2.6-4.3h0.6v1.6
		c-1.4,6-3,9.1-4.8,9.1c-3.4,0-5.6-3.2-6.4-9.6C461,171.4,462.8,166.7,464.5,166.7z M394.9,167.7c5.7,3.1,8.5,6.1,8.5,9.1
		c-1.1,2.3-2.7,4.2-4.8,5.8h-0.5c-4.1-3.5-6.7-5.3-8-5.3c-2.2,4.3-3.9,6.4-5.3,6.4c-3.4-1.9-6.1-4-7.9-6.4v-2.1c1.5-3,2.9-5,4.3-5.8
		c2.8,1,5.3,2.5,7.4,4.3h1.1L394.9,167.7z M217.5,170.4l0.5,0.5v0.6c0,3.2-4.4,6-13.2,8.5l-41.4,16.4v-0.5l-0.6-0.6v-0.5
		c0-2.9,7.6-7,22.9-12.3C204.7,174.5,215.3,170.4,217.5,170.4z M304,174.1l1.1,1.6c0,4-6,7.9-18.1,11.7l-45.1,22.3h-1.6
		c0-4.9,3.4-8.5,10.1-10.6C278.9,184.9,296.8,176.6,304,174.1z M543.7,174.1h0.5c-1.7,3.5-2.6,6.2-2.6,8v3.2
		c0.4,2.6,1.1,4.1,2.1,4.3h1.6l2.7-2.1l0.5,0.5v0.6c-1.6,5-3.7,7.4-6.4,7.4c-1.7-1.5-3-4-3.7-7.4C538.4,183.7,540.1,179,543.7,174.1
		z M146.8,176.8h1.1v0.5c-2.8,7.9-4.3,13-4.3,15.4v3.7c0,7,1.8,10.6,5.3,10.6c2.5-2.7,3.8-5,3.8-6.9h0.5l1.1,1.1
		c-2.4,9.2-5.2,13.8-8.5,13.8c-3.2,4.3-4.7,11.4-4.7,21.3v1.1c0,9.3,4.3,15.4,12.8,18.6c3.3,1.4,7,2.1,11.1,2.1
		c13,0,28.9-7.8,47.8-23.4c1.1-1.3,1.6-2.5,1.6-3.7c-4.3-11.1-7.6-21.4-10.1-30.8v-0.6l1.6-6.9h1.1c5.4,5.8,8.8,9.9,10.1,12.2v1.1
		c0,0.7-0.5,1.1-1.6,1.1l-2.7-0.5v0.5l5.3,16.5l0.6,3.7c0,10.6-3.4,17.7-10.1,21.3c-17.5,13.1-32.4,19.7-44.6,19.7l-0.5,0.5
		c-7.6,0-13.9-2.5-19.1-7.4c-5.3-5.6-8-12.3-8-20c0-7.7,2.1-16.1,6.4-25.1v-2.7c-1.7-4.9-2.6-8.6-2.6-11.1v-1.1
		C139.9,195.5,142.2,187.3,146.8,176.8z M426.2,180c7.5,6.8,11.2,11.2,11.2,13.2h-4.3v0.6c5.3,11.4,7.9,17.9,7.9,19.6v4.3
		c0,8.3-5.1,16.1-15.4,23.4c-1.1,2.2-1.6,5.2-1.6,9.1c1.9,10.6,6.8,15.9,14.9,15.9h4.3c12.2,0,26.9-9.2,44.1-27.6l0.5-2.1v-0.6
		l-1.6-1.6l-13.8,1.6c-7.8-1.1-11.7-4.7-11.7-10.6v-0.5c0-7.8,3.9-13.3,11.7-16.5l1.6-0.5c5.5,0.8,11,5.2,16.5,13.2
		c2,0,8-3.4,18.1-10.1h1.1v-0.6c0.9,0.1,1.7,1,2.1,2.7l-0.6,3.2c0,5.1,3.5,8.4,10.6,10.1h3.8c6.1,0,11.8-5.3,17-15.9l1.6-1.1h1.1
		v1.1l-2.1,6.4c0,3.9,4.4,6.2,13.3,6.9l2.1-1.6l-2.1-6.4c0.7-5,1.6-7.4,2.6-7.4c1.9,0,3.5,4.3,4.8,12.8c-2,9.2-5.8,13.8-11.2,13.8
		c-4.2,0-8.9-2.8-14.3-8.5c-5.1,7.1-10.7,10.6-17,10.6c-7.2,0-12.1-4.6-14.9-13.8l-0.6-0.5h-0.5c-8.5,4.6-12.8,8.6-12.8,12.2
		c0,8.3-6,17.2-18.1,26.6c-12.9,10.3-23.8,15.4-32.4,15.4h-0.5c-10.7,0-17.6-5.5-20.8-16.5l-0.5-4.3l0.5-9h0.6l-0.6-1.6l-20.2,11.2
		c-9.2,5.8-22.3,9.9-39.3,12.2c-2.7,0-6.8,0.7-12.2,2.1h-2.1v-1.6c24.5-7.9,49.1-19.6,73.8-35.1c0.3-0.9,4.4-4.1,12.3-9.6l3.2-4.3
		v-1.1c0-1.5-3-8.4-9.1-20.8l-3.7-11.7C424.5,182.3,425.4,180,426.2,180z M404.5,186.8h0.5v0.6c0,4.8-3.2,11-9.6,18.6v1.1
		c6.8,5.8,10.1,10.4,10.1,13.8v0.6c0,9.3-4.3,15.7-12.8,19.1c-3.4,1.7-6.2,2.6-8.5,2.6c-3.9,0-6.4-2.8-7.4-8.5v-1.6
		c0-6.2,2.1-12.8,6.4-19.7v-1.1c-9.2-8.9-13.8-14.6-13.8-17c0.3-3.9,1-5.8,2.1-5.8c6.8,2.3,11.3,4.4,13.2,6.4v0.5
		c0,0.7-0.5,1.1-1.6,1.1l-0.6,0.6v1.1c0.7,1.2,2.7,2.8,5.9,4.7h1.1L404.5,186.8z M314.2,198.5c1,0,3.8,1.8,8.5,5.3h0.5l5.3-4.7
		c1.9,0.6,4.6,2.9,8,6.9v0.6c-1.4,4.6-3.5,6.9-6.4,6.9c-2.7-3.5-5.1-5.3-6.9-5.3l-4.7,4.3h-1.6c-3.8-2.3-6.3-4.6-7.4-6.9
		C310.2,202.7,311.8,200.4,314.2,198.5z M287.6,204.9h0.5l-2.1,9.6v6.9c1.5,2.5,2.5,3.7,3.2,3.7h0.6c0.9,0,1.7-1.8,2.6-5.3h0.6
		l1.1,1.1c0,5.3-1.6,9.1-4.8,11.2h-1.6c-3.2-2.6-4.8-6.2-4.8-10.9S284.4,211,287.6,204.9z M388,215.5c-4.6,5.6-6.9,9.9-6.9,12.8
		c0,2.3,1.6,3.7,4.7,4.3c3.6,0,8.4-2.5,14.4-7.4V224C400.2,222.1,396.1,219.3,388,215.5z M467.7,221.9c0,1.5,2.3,2.5,6.9,3.2
		c3.5-0.2,5.3-0.8,5.3-1.6V223c-1.8-2.8-4.3-4.3-7.4-4.3C470.6,218.7,469,219.8,467.7,221.9z M179.7,219.8h0.6c2.5,0,5.5,2.3,9,6.9
		c0,2.2-1.6,4.7-4.7,7.4c-3.5-1.7-6.3-4.2-8.5-7.4C177.5,222.1,178.8,219.8,179.7,219.8z M160.6,221.9h0.6c-0.7,1.6-1.1,4.4-1.1,8.5
		v1.1c0,2.1,1.1,3.9,3.2,5.3c1.4-0.7,2.1-1.6,2.1-2.6h0.5l1.1,1.1c-1.2,5.3-3,7.9-5.3,7.9h-0.5c-2.8-2.4-4.3-5.2-4.3-8.5
		C158.3,226.2,159.5,221.9,160.6,221.9z M322.7,237.8v2.7c1.2,2.1,2.8,3.2,4.7,3.2c3.9,0,6.2-1.8,6.9-5.3c-0.9-4.3-2.1-6.4-3.8-6.4
		C327.2,232,324.5,234,322.7,237.8z M550,246.9v1.1c-1.5,7.4-3.8,11.1-6.9,11.1H542l-4.3-1.1c-2.9,1.8-5.2,2.7-6.9,2.7h-2.7
		l-3.2-2.1h-1.6c-3.1,0-10,3.5-20.8,10.6l-9,2.6l-0.6-0.5v-0.6l25.5-15.4c3.3-1.8,5.6-2.7,6.9-2.7l6.4,2.7c2.9,0,5.8-1.8,8.5-5.3
		h0.5c0,1.5,1.1,2.7,3.2,3.7h0.6c1-0.3,2.3-2.4,3.7-6.4l0.6-0.5H550z M267.4,254.3c0.8,2.7,2.5,4.8,5.3,6.4h1.6v-1.1
		c0-0.9-2-3-5.8-6.4L267.4,254.3z M217.5,253.3c2.5,0.9,3.7,2.9,3.7,5.8c0,4.2-3.5,9.7-10.6,16.5H210v-1.1
		c5.3-6.8,7.9-10.9,7.9-12.3l-2.1-2.1h-0.5l-1.6,1.1h-0.5v-1.6C213.2,257.2,214.6,255,217.5,253.3z M325.8,261.2
		c1.7,0.5,2.6,1.8,2.6,3.8c0,6.8-5,13.2-14.9,19.1v-0.6c7.5-8,11.2-12.6,11.2-13.8v-0.5l-1.1-1.1l-2.7,1.6h-0.5v-2.6
		C322.4,263.7,324.2,261.7,325.8,261.2z"/>
</g>
</svg>
