<?xml version="1.0" encoding="utf-8"?>
<!-- Generator: Adobe Illustrator 25.2.3, SVG Export Plug-In . SVG Version: 6.00 Build 0)  -->
<svg version="1.1" xmlns="http://www.w3.org/2000/svg" xmlns:xlink="http://www.w3.org/1999/xlink" x="0px" y="0px"
	 viewBox="0 0 700 395" style="enable-background:new 0 0 700 395;" xml:space="preserve">
<style type="text/css">
	.st0{fill:#000222;}
	.st1{fill:#FFFFFF;}
</style>
<g id="Layer_1">
	<rect class="st0" width="700" height="395"/>
</g>
<g id="Layer_3">
	<g>
		<path class="st1" d="M273.5,368.6l1.1,4.2c0.2,0.9,0.5,1.8,0.6,2.6h0.1c0.2-0.8,0.5-1.7,0.7-2.6l1.3-4.2h1.3l1.3,4.1
			c0.3,1,0.5,1.9,0.7,2.7h0.1c0.1-0.8,0.4-1.7,0.6-2.7l1.2-4.1h1.5l-2.7,8.2H280l-1.3-3.9c-0.3-0.9-0.5-1.7-0.7-2.7h0
			c-0.2,1-0.5,1.8-0.7,2.7l-1.3,3.9h-1.4l-2.5-8.2H273.5z"/>
		<path class="st1" d="M286.3,368.6l1.1,4.2c0.2,0.9,0.5,1.8,0.6,2.6h0.1c0.2-0.8,0.5-1.7,0.7-2.6l1.3-4.2h1.3l1.3,4.1
			c0.3,1,0.5,1.9,0.7,2.7h0.1c0.1-0.8,0.4-1.7,0.6-2.7l1.2-4.1h1.5l-2.7,8.2h-1.4l-1.3-3.9c-0.3-0.9-0.5-1.7-0.7-2.7h0
			c-0.2,1-0.5,1.8-0.7,2.7l-1.3,3.9h-1.4l-2.5-8.2H286.3z"/>
		<path class="st1" d="M299,368.6l1.1,4.2c0.2,0.9,0.5,1.8,0.6,2.6h0.1c0.2-0.8,0.5-1.7,0.7-2.6l1.3-4.2h1.3l1.3,4.1
			c0.3,1,0.5,1.9,0.7,2.7h0.1c0.1-0.8,0.4-1.7,0.6-2.7l1.2-4.1h1.5l-2.7,8.2h-1.4l-1.3-3.9c-0.3-0.9-0.5-1.7-0.7-2.7h0
			c-0.2,1-0.5,1.8-0.7,2.7l-1.3,3.9h-1.4l-2.5-8.2H299z"/>
		<path class="st1" d="M309.9,375.9c0-0.6,0.4-1.1,1-1.1c0.6,0,1,0.4,1,1.1c0,0.6-0.4,1.1-1,1.1C310.3,377,309.9,376.5,309.9,375.9z
			"/>
		<path class="st1" d="M313.5,375.3c0.4,0.3,1.2,0.6,2,0.6c1.1,0,1.6-0.5,1.6-1.2c0-0.7-0.4-1.1-1.5-1.5c-1.5-0.5-2.2-1.3-2.2-2.3
			c0-1.3,1.1-2.4,2.8-2.4c0.8,0,1.6,0.2,2,0.5l-0.4,1.1c-0.3-0.2-0.9-0.5-1.7-0.5c-0.9,0-1.4,0.5-1.4,1.1c0,0.7,0.5,1,1.6,1.4
			c1.4,0.5,2.2,1.3,2.2,2.5c0,1.4-1.1,2.5-3.1,2.5c-0.9,0-1.7-0.2-2.3-0.6L313.5,375.3z"/>
		<path class="st1" d="M327.4,374.6c0,0.9,0,1.6,0.1,2.2h-1.3l-0.1-1.3h0c-0.4,0.7-1.3,1.5-2.7,1.5c-1.3,0-2.8-0.7-2.8-3.6v-4.8h1.5
			v4.6c0,1.6,0.5,2.6,1.8,2.6c1,0,1.7-0.7,2-1.4c0.1-0.2,0.1-0.5,0.1-0.8v-5h1.5V374.6z"/>
		<path class="st1" d="M329.8,371.1c0-1,0-1.8-0.1-2.6h1.3l0.1,1.6h0.1c0.4-1.1,1.3-1.8,2.3-1.8c0.2,0,0.3,0,0.4,0.1v1.4
			c-0.2,0-0.3-0.1-0.5-0.1c-1.1,0-1.8,0.8-2,1.9c0,0.2-0.1,0.4-0.1,0.7v4.4h-1.5V371.1z"/>
		<path class="st1" d="M339.9,376.8l-0.1-1h-0.1c-0.5,0.6-1.3,1.2-2.5,1.2c-1.7,0-2.5-1.2-2.5-2.4c0-2,1.8-3.1,4.9-3.1v-0.2
			c0-0.7-0.2-1.9-1.9-1.9c-0.8,0-1.6,0.2-2.1,0.6l-0.3-1c0.7-0.4,1.7-0.7,2.7-0.7c2.5,0,3.1,1.7,3.1,3.4v3.1c0,0.7,0,1.4,0.1,2
			H339.9z M339.7,372.6c-1.6,0-3.5,0.3-3.5,1.9c0,1,0.6,1.4,1.4,1.4c1.1,0,1.8-0.7,2-1.4c0.1-0.2,0.1-0.3,0.1-0.5V372.6z"/>
		<path class="st1" d="M343.5,364.7h1.5v5.1h0c0.2-0.4,0.6-0.8,1.1-1.1c0.4-0.3,1-0.4,1.5-0.4c1.1,0,2.9,0.7,2.9,3.5v4.9H349v-4.7
			c0-1.3-0.5-2.4-1.9-2.4c-1,0-1.7,0.7-2,1.5c-0.1,0.2-0.1,0.4-0.1,0.7v5h-1.5V364.7z"/>
		<path class="st1" d="M358.6,375.5L358.6,375.5c-0.5,0.8-1.4,1.5-2.7,1.5c-1.9,0-3.5-1.7-3.5-4.2c0-3.1,2-4.4,3.7-4.4
			c1.3,0,2.1,0.6,2.5,1.4h0l0.1-1.2h1.4c0,0.7-0.1,1.4-0.1,2.3v9.3h-1.5V375.5z M358.6,371.9c0-0.2,0-0.4-0.1-0.6
			c-0.2-0.9-1-1.7-2.1-1.7c-1.5,0-2.5,1.3-2.5,3.2c0,1.6,0.8,3.1,2.4,3.1c1,0,1.8-0.6,2.1-1.6c0.1-0.2,0.1-0.5,0.1-0.7V371.9z"/>
		<path class="st1" d="M369.4,374.6c0,0.9,0,1.6,0.1,2.2h-1.3l-0.1-1.3h0c-0.4,0.7-1.3,1.5-2.7,1.5c-1.3,0-2.8-0.7-2.8-3.6v-4.8h1.5
			v4.6c0,1.6,0.5,2.6,1.8,2.6c1,0,1.7-0.7,2-1.4c0.1-0.2,0.1-0.5,0.1-0.8v-5h1.5V374.6z"/>
		<path class="st1" d="M371.9,371.1c0-1,0-1.8-0.1-2.6h1.3l0.1,1.6h0.1c0.4-1.1,1.3-1.8,2.3-1.8c0.2,0,0.3,0,0.4,0.1v1.4
			c-0.2,0-0.3-0.1-0.5-0.1c-1.1,0-1.8,0.8-2,1.9c0,0.2-0.1,0.4-0.1,0.7v4.4h-1.5V371.1z"/>
		<path class="st1" d="M381.9,376.8l-0.1-1h-0.1c-0.5,0.6-1.3,1.2-2.5,1.2c-1.7,0-2.5-1.2-2.5-2.4c0-2,1.8-3.1,4.9-3.1v-0.2
			c0-0.7-0.2-1.9-1.9-1.9c-0.8,0-1.6,0.2-2.1,0.6l-0.3-1c0.7-0.4,1.7-0.7,2.7-0.7c2.5,0,3.1,1.7,3.1,3.4v3.1c0,0.7,0,1.4,0.1,2
			H381.9z M381.7,372.6c-1.6,0-3.5,0.3-3.5,1.9c0,1,0.6,1.4,1.4,1.4c1.1,0,1.8-0.7,2-1.4c0.1-0.2,0.1-0.3,0.1-0.5V372.6z"/>
		<path class="st1" d="M385.6,370.8c0-0.9,0-1.5-0.1-2.2h1.3l0.1,1.4h0c0.4-0.8,1.4-1.5,2.7-1.5c1.1,0,2.9,0.7,2.9,3.5v4.9h-1.5
			v-4.7c0-1.3-0.5-2.4-1.9-2.4c-1,0-1.8,0.7-2,1.5c-0.1,0.2-0.1,0.4-0.1,0.7v4.9h-1.5V370.8z"/>
		<path class="st1" d="M394.6,375.9c0-0.6,0.4-1.1,1-1.1c0.6,0,1,0.4,1,1.1c0,0.6-0.4,1.1-1,1.1C395,377,394.6,376.5,394.6,375.9z"
			/>
		<path class="st1" d="M404.4,376.5c-0.4,0.2-1.3,0.5-2.4,0.5c-2.5,0-4.1-1.7-4.1-4.2c0-2.5,1.7-4.4,4.4-4.4c0.9,0,1.7,0.2,2.1,0.4
			l-0.3,1.2c-0.4-0.2-0.9-0.4-1.7-0.4c-1.9,0-2.9,1.4-2.9,3.1c0,1.9,1.2,3.1,2.9,3.1c0.8,0,1.4-0.2,1.8-0.4L404.4,376.5z"/>
		<path class="st1" d="M413.5,372.6c0,3-2.1,4.4-4.1,4.4c-2.2,0-3.9-1.6-3.9-4.2c0-2.8,1.8-4.4,4.1-4.4
			C411.9,368.4,413.5,370.1,413.5,372.6z M406.9,372.7c0,1.8,1,3.2,2.5,3.2c1.4,0,2.5-1.3,2.5-3.2c0-1.4-0.7-3.2-2.5-3.2
			S406.9,371.1,406.9,372.7z"/>
		<path class="st1" d="M415.4,370.8c0-0.9,0-1.5-0.1-2.2h1.3l0.1,1.3h0.1c0.5-0.8,1.2-1.5,2.6-1.5c1.1,0,2,0.7,2.3,1.6h0
			c0.3-0.5,0.6-0.8,0.9-1.1c0.5-0.4,1-0.6,1.8-0.6c1.1,0,2.7,0.7,2.7,3.6v4.8h-1.5v-4.7c0-1.6-0.6-2.5-1.8-2.5
			c-0.9,0-1.5,0.6-1.8,1.4c-0.1,0.2-0.1,0.5-0.1,0.7v5.1h-1.5v-4.9c0-1.3-0.6-2.3-1.7-2.3c-0.9,0-1.6,0.7-1.9,1.5
			c-0.1,0.2-0.1,0.5-0.1,0.7v5h-1.5V370.8z"/>
	</g>
</g>
<g id="Layer_4">
	<path class="st1" d="M164.6,115.9l0.5,0.6v0.5l-1.7,11.1v1.7c0,2.1,1,3.7,2.9,4.7h0.6l3.5-4h0.5l0.6,1.7c-1.2,6.2-3.1,9.3-5.8,9.3
		c-3.5-1.2-5.3-4.5-5.3-9.9C162.2,121.1,163.6,115.9,164.6,115.9z M240.4,115.9l1.7,0.6v0.5c0,4.7-6.6,8.9-19.8,12.8
		c-17.8,8-35.3,17-52.5,26.8c-0.8,0-1.2-0.6-1.2-1.7c0-5,11.7-12.6,35-22.8C211.7,127.9,223.9,122.5,240.4,115.9z M288.8,115.9
		c2.5,0,4.4,2.5,5.8,7.6c-0.3,1.9-0.8,2.9-1.7,2.9h-0.6l-4-2.9h-0.6c-1.9,0-2.9,4.8-2.9,14.5c-1.3,5.9-2.5,8.8-3.5,8.8
		c-4.3-10.1-8.9-15.2-14-15.2l-3-3.5c0-3.3,0.6-5.7,1.8-7c3.5,0,8.5,4.5,15.2,13.4c1,0,2-4.3,2.9-12.8c1.3-3.5,2.9-5.2,4.7-5.2
		V115.9z M324.4,117h0.5l10,26.3l-0.6,0.5h-1.2l-3.5-1.7v0.5L336,201v7.6c-2.1,11.7-7.1,17.5-15.2,17.5c-4.1-0.6-7.6-2.6-10.5-5.8
		h-0.6c-3.6,5-7.6,7.5-12.2,7.5c-1.9,0-4.6-1.7-8.2-5.2h-0.6c-5,3.9-9,5.8-12.2,5.8c-6.4,0-11.3-4.5-14.6-13.5
		c-0.6-4.3-1.3-6.4-2.3-6.4h-1.7c-2.9,2.1-7.5,8.3-14,18.7c-2,1-3,2.5-3,4.7c16.5,3.5,35.4,5.2,56.6,5.2c1,0,1.9,0.6,2.9,1.8
		c-1.9,4.8-3.7,7.7-5.2,8.7l-2.3-0.5c-14.8,0-27.3,3.3-37.3,9.9c-11.4,6.6-20.9,10-28.6,10h-1.7c-10.3,0-17.3-9.7-21-29.2h-0.6
		c-8.7,10.9-15.7,17.7-21,20.4c-7.9,7.4-16.2,12.5-25,15.2h-5.3c-7.3,0-11.5-5.1-12.8-15.2l-0.5-3.5c0-4.1,1.6-11.7,4.7-22.7
		l-0.6-0.6l-8.2,1.8c-4.7-1.2-7-4-7-8.2v-0.6c0-8.4,2.7-17,8.2-25.7c0-1.2-3.5-4.1-10.5-8.7c-5.4-5.1-8.2-8.4-8.2-10v-3.5
		c0-3.1,0.8-4.7,2.3-4.7c8.1,3.3,12.2,5.3,12.3,5.8v1.2l-1.2,1.8v1.7l11,5.8h0.6c4.9-5.1,10-11.9,15.2-20.4h1.2v0.5
		c0,4.7-2.5,10.5-7.6,17.5c-1.9,3.1-2.9,5.2-2.9,6.5c6.2,6.4,9.3,10.3,9.3,11.7l0.5,3.5v4c0,7.8-3.3,13.7-9.9,17.5
		c-3.1,5.9-4.7,13.6-4.7,23.3c1.1,6.6,3.7,10,7.5,10h5.3c6.4-0.7,18-7.9,35-21.6c6.6-6.7,9.9-11.4,9.9-14
		c-2.7-13.5-7.5-31.4-14.5-53.6v-0.5l1.2-8.8h0.5c7.8,10.4,14,28.6,18.7,54.8c2.5,19.4,6,30.5,10.5,33.3c1.8,2.7,5.5,4,11.1,4
		c9.9,0,19-3.1,27.4-9.3v-0.5c-20.1-3.9-32.3-5.8-36.7-5.8h-1.2c-0.6,0-1.2-0.8-1.8-2.3c0-4.3,6.4-9.2,19.3-14.6
		c6.9-4,13.2-11,18.7-21c1.1-1.6,3.1-3.1,5.8-4.7h1.7c1.8,0,3.5,3.9,5.3,11.7c3.3,5.4,6.6,8.2,9.9,8.2h4.1c2.2,0,6.5-3.3,12.8-9.9
		h0.5v4c0,2.3,1.4,4,4.1,5.3h1.7c4.1,0,7.9-3.7,11.1-11.1l0.5-0.5h1.2v1.2c1,6.2,4.1,9.3,9.3,9.3h3c1.4,0,3.1-0.8,5.2-2.3l-8.2-69.4
		l-1.7-18.7C321.8,119.7,322.9,117,324.4,117z M348.9,117h1.2c7.4,12.2,11,21.4,11,27.4h-1.2l-3.5-3h-1.2
		c6.2,53.4,9.3,86.5,9.3,99.1c-0.6,13.6-2.4,20.4-5.2,20.4l-0.6-0.6v-13.4c-7.5-79.7-11.7-119.6-12.8-119.6L348.9,117z M527.9,117.6
		c3.5,1.3,5.3,3.4,5.3,6.4v0.6c0,2-0.6,3.2-1.8,3.5c-3-2.3-5.1-3.5-6.4-3.5l-2.3,2.3v6.4l-0.6,8.8h0.6c-1.3,8.9-2.5,13.4-3.5,13.4
		H518c0-4-3.7-9.2-11.1-15.7c-6.2-1.5-9.3-4.2-9.3-8.2c0.3-2.7,1.3-4.1,3-4.1c3.4,0,9.3,5.1,17.5,15.2l1.2-1.7v-7.6
		C519.2,125.5,522.1,120.2,527.9,117.6z M569.3,118.8h1.2c3.9,0.7,5.8,3.8,5.8,9.3v5.2c0,1.6,1.6,4.3,4.7,8.2c-0.5,2-1.1,3-1.8,3
		H578l-4-2.3c-22,19.4-37,29.2-44.9,29.2h-0.5c1.4-2,10.7-8.4,28-19.3c8.4-6.5,12.7-10.4,12.8-11.7c-3.9-3.9-5.8-6.4-5.8-7.5
		l-0.6-1.8C564.8,122.9,567,118.8,569.3,118.8z M400.7,120c2.7,0.9,4.1,3.3,4.1,7v8.2c0,1.6,1.6,3.6,4.7,5.8c0,1.9,0.4,2.9,1.2,2.9
		c-0.5,2-1.1,3-1.8,3l-7-4.1l-14,13.5c-10,5.4-15.6,8.2-16.9,8.2h-0.6v-0.6l22.8-17.5c2.7-2.6,4-4.8,4-6.4v-0.6
		c-2.3-2-3.5-4.5-3.5-7.5C393.7,126.7,396.1,122.8,400.7,120z M478.3,122.3l0.5,0.5v0.6c0,2-4.8,5.9-14.5,11.7l-36.8,22.7h-1.7v-1.2
		h-0.6c0-3.2,3.5-6.5,10.5-9.9l38.5-23.3c0-0.9,1.4-1.5,4.1-1.8V122.3z M566.3,127.5c0,2.3,1.4,4,4.1,5.3h1.7l1.2-1.2
		c0-3.1-1.2-5.2-3.5-6.5h-1.2L566.3,127.5z M397.2,129.3c0,2.7,1.4,4,4.1,4l0.5-0.5v-0.6c0-3-0.8-4.7-2.3-5.2L397.2,129.3z
		 M235.7,128.7h0.5c-2.3,6.9-3.5,11.8-3.5,14.6c1,3.1,2,4.7,3,4.7h1.2l0.5-0.6c0.8,0,1.2-1,1.2-2.9l0.6-0.6h0.5l0.6,0.6
		c0,6-2.2,9.5-6.5,10.5c-3.1-3-4.7-6.1-4.7-9.3C231.6,134.3,233.8,128.7,235.7,128.7z M315.1,138h0.5l0.6,2.3c0,3.3-5.4,6.6-16.3,10
		c-24.1,9.1-36.9,14.5-38.5,16.3l-1.8-0.6v-1.2c0-4.3,4.3-7.6,12.8-9.9L315.1,138z M143.6,143.3c3.4,1.4,6.5,4.1,9.3,8.2
		c-2,4-3.7,6.4-5.3,7c-1.2,0-4-1.6-8.2-4.7h-0.5c-1.2,0-2.8,1.9-4.7,5.8l-1.8,0.5c-3.8-1.5-6.9-3.8-9.3-7c1.6-5,3.3-7.5,5.3-7.5
		l9.3,4C140.4,145.4,142.3,143.3,143.6,143.3z M484.7,156.7h1.2c-1.6,4.7-2.3,8.2-2.3,10.5v1.8c0,3.4,1.4,5.9,4.1,7.5h2.3
		c0.8-2.7,1.6-4,2.3-4l0.5,0.5v0.6c0,5.5-1.9,8.8-5.8,9.9h-1.2c-3.5-2.3-5.2-5.6-5.2-9.8C480.7,169.6,482.1,163.9,484.7,156.7z
		 M572.8,160.8h1.2l-2.3,8.7v4.1c0,3.5,1.6,5.2,4.7,5.2l2.3-2.9l0.5,0.5c0,3.8-1.6,6.7-4.7,8.8c-3.9,0-5.8-3.3-5.8-10
		C568.7,171.7,570.1,166.8,572.8,160.8z M410.1,162c6.2,3.7,9.3,7,9.3,9.9c-0.5,1.8-2.3,4.1-5.2,7l-8.2-5.2c-1.3,0-3.1,2.3-5.3,7
		h-0.5c-2.6,0-5.9-2.5-10-7.6c2.1-5.4,3.6-8.2,4.7-8.2h1.2l6.5,4.7h1.2c1.2-0.4,2.5-2.3,4-5.8L410.1,162z M239.2,163.1
		c7.8,0,11.7,1.7,11.7,5.2c-4.3,7.8-8.6,11.7-12.8,11.7c-1.3,1-3.4,1.8-6.5,2.3l-0.5-0.5v-0.6c0.9-1.5,4.4-3.8,10.5-7v-1.7l-4.1-0.6
		H234c-4,0-7.5,1.2-10.5,3.5l-0.5-0.5c2.7-7.8,7.4-11.7,14-11.7H239.2z M306.3,166.6c3.1,6.2,4.7,10.9,4.7,14
		c-1,5.4-2.8,8.2-5.2,8.2s-4.8-1-7-3h-0.6c-3.2,4.7-6.3,7-9.3,7c-3.9-1.5-5.8-4-5.8-7.5l3-12.8h1.2v1.2h0.5l-1.2,9.9l2.3,1.8h1.8
		c3.2,0,5.3-2.7,6.4-8.2v-5.3c0-2.9,0.6-4.4,1.8-4.7h0.5c0,9.7,2.2,14.6,6.5,14.6h0.5l0.6-0.6v-0.5l-1.8-8.2v-4.7L306.3,166.6z
		 M444.5,174.8h1.2c8.1,7.3,12.2,11.6,12.2,12.8l-4,2.3l8.7,18.7c0.3,3.1,0.6,4.7,1.2,4.7c0,10.6-5.4,20.1-16.3,28.5l-1.2,7.6
		c1.8,12,7.8,18,18.1,18h0.5c14.6,0,31.3-11.1,50.2-33.2l0.6-2.3l-1.8-1.8l-16.9,2.3c-8.2,0-12.3-3.9-12.3-11.7
		c0-9.3,4.5-15.5,13.5-18.7c5.6,0,11.9,4.3,18.7,12.8h0.5c3.4,0,9.8-3.9,19.3-11.7h2.9c0,8.9,2.3,13.9,7,15.2c0,0.8,1.9,1.2,5.8,1.2
		h3.5c3.9,0,8-2.3,12.3-7c3.2-6.5,5.9-10.8,8.2-12.8l0.5,0.6h0.6l-2.3,8.2c0,3.5,4.5,5.6,13.4,6.4h1.8l1.7-1.7v-0.6
		c0-1.3-1-3.5-2.9-6.4c1-5.9,2.2-8.8,3.5-8.8c1.8,0,3.6,4.9,5.2,14.6c0,8.2-3.9,13-11.7,14.5h-0.5c-4.7,0-9.7-2.5-15.2-7.5h-0.6
		c-4.8,7.8-11.4,11.7-19.8,11.7c-9.7-1.9-14.5-6.6-14.5-14h-0.6c-9.7,4.4-14.5,9.2-14.5,14.5c0,13.7-14.2,28.9-42.6,45.5l-11.7,2.3
		c-15.6,0-23.3-8.7-23.3-26.2v-7c-1.1,0-6.4,3.1-15.7,9.3c-17.7,11.3-33.1,17.5-46.1,18.7l-17.5,4l-0.5-0.5v-0.6l33.8-15.2
		c24.7-13.6,42.9-25.6,54.8-36.2c3.5-2.7,5.8-5.5,7-8.2c0-1.1-4.1-9.4-12.3-25l-3.5-10L444.5,174.8z M421.2,183h0.5v1.7
		c0,3.6-2.3,9-7,16.3c-1.9,2.2-2.9,3.9-2.9,5.3c8.6,5.3,12.8,10.6,12.8,15.7c-1.2,9-2.7,13.5-4.7,13.5c-6.1,5.9-11.6,9.1-16.3,9.9
		h-1.8c-5.4,0-8.2-3.3-8.2-9.9v-2.3c0-4.5,1.8-11.3,5.3-20.4l-15.2-16.3v-4c0-3.1,0.8-4.7,2.3-4.7c7.8,3.1,12.4,5.4,14,7
		c0,1.1-0.8,1.7-2.3,1.7v1.2c2.8,3.5,5.3,5.3,7.5,5.3L421.2,183z M225.2,192.3h0.5v0.5l-2.3,10.5c0,4.3,1.4,6.5,4.1,6.5l2.9-3.5
		l0.6,0.5c-1,6.6-2.8,10-5.3,10c-3.9-1.9-5.8-5.4-5.8-10.5C222.3,197,224.1,192.3,225.2,192.3z M176.8,197h1.2l-1.7,11v2.3
		c0.3,5.4,1.2,8.2,2.9,8.2h1.2c1,0,1.8-1.3,2.3-4h0.6l1.2,1.2c-0.9,7-2.5,10.5-4.7,10.5c-4.3-1.2-6.5-5.1-6.5-11.7v-1.8L176.8,197z
		 M141.3,201.6c-5.9,6.6-9,11.7-9.3,15.2v1.2c0,2.7,1.6,4,4.7,4c11.7-3.1,17.5-6.4,17.5-9.9C150.6,206.7,146.3,203.2,141.3,201.6z
		 M491.7,217.9v0.5c0,1.1,1.9,1.9,5.8,2.3h3l5.2-1.2v-1.2c0-1.7-2.7-3-8.2-4H497C494.8,214.5,493.1,215.6,491.7,217.9z M397.9,230.2
		c1,2.7,2.6,4.1,4.7,4.1c4.4,0,9.6-2.9,15.7-8.8v-1.7c-1.2-2.1-5.1-4.7-11.7-7.6h-1.7C400.2,220.8,397.9,225.5,397.9,230.2z
		 M132.5,240.7h1.2l1.2,1.2c0,4-10.7,10.2-32,18.7l-0.6-1.7c0-2.5,6.6-6.6,19.8-12.3L132.5,240.7z M583.8,240.7l0.6,1.8
		c-1.6,7.8-3.9,11.7-7,11.7l-6.5-0.6c-3.5,2.3-6.6,3.5-9.3,3.5c-2.3-1.6-4.1-2.3-5.2-2.3h-1.8c-2,0-9.5,4.5-22.7,13.5l-7.6,2.3h-1.2
		v-0.6l24.5-16.9c3.4-2.3,6.7-3.9,10-4.7l7,2.3h2.9c1.6-0.5,3.7-2.7,6.5-6.5h0.5c0,2.3,1.4,3.5,4.1,3.5h1.2c0.6,0,1.5-2.1,2.9-6.4
		l0.6-0.6H583.8z M340.7,242.4l0.5,1.7c-1.5,7.8-3.6,11.7-6.4,11.7l-0.6-0.5h-4c-2.7,2.7-4.8,4-6.5,4l-5.8-1.7h-1.7
		c-3,0-10.9,4.8-23.9,14.5l-5.8,1.8h-0.5v-0.6c18.3-15.1,28.8-22.7,31.5-22.7l9.3,2.3l5.8-7.6c0.8,2.3,1.6,3.5,2.3,3.5h1.7
		c0.9,0,1.9-2.1,3-6.4H340.7z M200.8,260.5c1.9,0.8,2.9,2.3,2.9,4.7c0,4.6-1.9,9.3-5.8,14h-0.5l3.5-8.7l-1.8-2.3l-2.9,1.7h-0.6
		l-0.5-1.7C197,263,199,260.5,200.8,260.5z M268.4,262.8h1.7l8.8,7.6v1.2c-1.1,4.7-3.1,7-5.8,7c-4.1-2.2-7-4.9-8.8-8.2
		C265.6,265.4,266.9,262.8,268.4,262.8z"/>
</g>
</svg>
