<?xml version="1.0" encoding="utf-8"?>
<!-- Generator: Adobe Illustrator 25.2.3, SVG Export Plug-In . SVG Version: 6.00 Build 0)  -->
<svg version="1.1" xmlns="http://www.w3.org/2000/svg" xmlns:xlink="http://www.w3.org/1999/xlink" x="0px" y="0px"
	 viewBox="0 0 700 395" style="enable-background:new 0 0 700 395;" xml:space="preserve">
<style type="text/css">
	.st0{fill:#000222;}
	.st1{fill:#FFFFFF;}
</style>
<g id="Layer_1">
	<rect class="st0" width="700" height="395"/>
</g>
<g id="Layer_3">
	<g>
		<path class="st1" d="M273.5,368.6l1.1,4.2c0.2,0.9,0.5,1.8,0.6,2.6h0.1c0.2-0.8,0.5-1.7,0.7-2.6l1.3-4.2h1.3l1.3,4.1
			c0.3,1,0.5,1.9,0.7,2.7h0.1c0.1-0.8,0.4-1.7,0.6-2.7l1.2-4.1h1.5l-2.7,8.2H280l-1.3-3.9c-0.3-0.9-0.5-1.7-0.7-2.7h0
			c-0.2,1-0.5,1.8-0.7,2.7l-1.3,3.9h-1.4l-2.5-8.2H273.5z"/>
		<path class="st1" d="M286.3,368.6l1.1,4.2c0.2,0.9,0.5,1.8,0.6,2.6h0.1c0.2-0.8,0.5-1.7,0.7-2.6l1.3-4.2h1.3l1.3,4.1
			c0.3,1,0.5,1.9,0.7,2.7h0.1c0.1-0.8,0.4-1.7,0.6-2.7l1.2-4.1h1.5l-2.7,8.2h-1.4l-1.3-3.9c-0.3-0.9-0.5-1.7-0.7-2.7h0
			c-0.2,1-0.5,1.8-0.7,2.7l-1.3,3.9h-1.4l-2.5-8.2H286.3z"/>
		<path class="st1" d="M299,368.6l1.1,4.2c0.2,0.9,0.5,1.8,0.6,2.6h0.1c0.2-0.8,0.5-1.7,0.7-2.6l1.3-4.2h1.3l1.3,4.1
			c0.3,1,0.5,1.9,0.7,2.7h0.1c0.1-0.8,0.4-1.7,0.6-2.7l1.2-4.1h1.5l-2.7,8.2h-1.4l-1.3-3.9c-0.3-0.9-0.5-1.7-0.7-2.7h0
			c-0.2,1-0.5,1.8-0.7,2.7l-1.3,3.9h-1.4l-2.5-8.2H299z"/>
		<path class="st1" d="M309.9,375.9c0-0.6,0.4-1.1,1-1.1c0.6,0,1,0.4,1,1.1c0,0.6-0.4,1.1-1,1.1C310.3,377,309.9,376.5,309.9,375.9z
			"/>
		<path class="st1" d="M313.5,375.3c0.4,0.3,1.2,0.6,2,0.6c1.1,0,1.6-0.5,1.6-1.2c0-0.7-0.4-1.1-1.5-1.5c-1.5-0.5-2.2-1.3-2.2-2.3
			c0-1.3,1.1-2.4,2.8-2.4c0.8,0,1.6,0.2,2,0.5l-0.4,1.1c-0.3-0.2-0.9-0.5-1.7-0.5c-0.9,0-1.4,0.5-1.4,1.1c0,0.7,0.5,1,1.6,1.4
			c1.4,0.5,2.2,1.3,2.2,2.5c0,1.4-1.1,2.5-3.1,2.5c-0.9,0-1.7-0.2-2.3-0.6L313.5,375.3z"/>
		<path class="st1" d="M327.4,374.6c0,0.9,0,1.6,0.1,2.2h-1.3l-0.1-1.3h0c-0.4,0.7-1.3,1.5-2.7,1.5c-1.3,0-2.8-0.7-2.8-3.6v-4.8h1.5
			v4.6c0,1.6,0.5,2.6,1.8,2.6c1,0,1.7-0.7,2-1.4c0.1-0.2,0.1-0.5,0.1-0.8v-5h1.5V374.6z"/>
		<path class="st1" d="M329.8,371.1c0-1,0-1.8-0.1-2.6h1.3l0.1,1.6h0.1c0.4-1.1,1.3-1.8,2.3-1.8c0.2,0,0.3,0,0.4,0.1v1.4
			c-0.2,0-0.3-0.1-0.5-0.1c-1.1,0-1.8,0.8-2,1.9c0,0.2-0.1,0.4-0.1,0.7v4.4h-1.5V371.1z"/>
		<path class="st1" d="M339.9,376.8l-0.1-1h-0.1c-0.5,0.6-1.3,1.2-2.5,1.2c-1.7,0-2.5-1.2-2.5-2.4c0-2,1.8-3.1,4.9-3.1v-0.2
			c0-0.7-0.2-1.9-1.9-1.9c-0.8,0-1.6,0.2-2.1,0.6l-0.3-1c0.7-0.4,1.7-0.7,2.7-0.7c2.5,0,3.1,1.7,3.1,3.4v3.1c0,0.7,0,1.4,0.1,2
			H339.9z M339.7,372.6c-1.6,0-3.5,0.3-3.5,1.9c0,1,0.6,1.4,1.4,1.4c1.1,0,1.8-0.7,2-1.4c0.1-0.2,0.1-0.3,0.1-0.5V372.6z"/>
		<path class="st1" d="M343.5,364.7h1.5v5.1h0c0.2-0.4,0.6-0.8,1.1-1.1c0.4-0.3,1-0.4,1.5-0.4c1.1,0,2.9,0.7,2.9,3.5v4.9H349v-4.7
			c0-1.3-0.5-2.4-1.9-2.4c-1,0-1.7,0.7-2,1.5c-0.1,0.2-0.1,0.4-0.1,0.7v5h-1.5V364.7z"/>
		<path class="st1" d="M358.6,375.5L358.6,375.5c-0.5,0.8-1.4,1.5-2.7,1.5c-1.9,0-3.5-1.7-3.5-4.2c0-3.1,2-4.4,3.7-4.4
			c1.3,0,2.1,0.6,2.5,1.4h0l0.1-1.2h1.4c0,0.7-0.1,1.4-0.1,2.3v9.3h-1.5V375.5z M358.6,371.9c0-0.2,0-0.4-0.1-0.6
			c-0.2-0.9-1-1.7-2.1-1.7c-1.5,0-2.5,1.3-2.5,3.2c0,1.6,0.8,3.1,2.4,3.1c1,0,1.8-0.6,2.1-1.6c0.1-0.2,0.1-0.5,0.1-0.7V371.9z"/>
		<path class="st1" d="M369.4,374.6c0,0.9,0,1.6,0.1,2.2h-1.3l-0.1-1.3h0c-0.4,0.7-1.3,1.5-2.7,1.5c-1.3,0-2.8-0.7-2.8-3.6v-4.8h1.5
			v4.6c0,1.6,0.5,2.6,1.8,2.6c1,0,1.7-0.7,2-1.4c0.1-0.2,0.1-0.5,0.1-0.8v-5h1.5V374.6z"/>
		<path class="st1" d="M371.9,371.1c0-1,0-1.8-0.1-2.6h1.3l0.1,1.6h0.1c0.4-1.1,1.3-1.8,2.3-1.8c0.2,0,0.3,0,0.4,0.1v1.4
			c-0.2,0-0.3-0.1-0.5-0.1c-1.1,0-1.8,0.8-2,1.9c0,0.2-0.1,0.4-0.1,0.7v4.4h-1.5V371.1z"/>
		<path class="st1" d="M381.9,376.8l-0.1-1h-0.1c-0.5,0.6-1.3,1.2-2.5,1.2c-1.7,0-2.5-1.2-2.5-2.4c0-2,1.8-3.1,4.9-3.1v-0.2
			c0-0.7-0.2-1.9-1.9-1.9c-0.8,0-1.6,0.2-2.1,0.6l-0.3-1c0.7-0.4,1.7-0.7,2.7-0.7c2.5,0,3.1,1.7,3.1,3.4v3.1c0,0.7,0,1.4,0.1,2
			H381.9z M381.7,372.6c-1.6,0-3.5,0.3-3.5,1.9c0,1,0.6,1.4,1.4,1.4c1.1,0,1.8-0.7,2-1.4c0.1-0.2,0.1-0.3,0.1-0.5V372.6z"/>
		<path class="st1" d="M385.6,370.8c0-0.9,0-1.5-0.1-2.2h1.3l0.1,1.4h0c0.4-0.8,1.4-1.5,2.7-1.5c1.1,0,2.9,0.7,2.9,3.5v4.9h-1.5
			v-4.7c0-1.3-0.5-2.4-1.9-2.4c-1,0-1.8,0.7-2,1.5c-0.1,0.2-0.1,0.4-0.1,0.7v4.9h-1.5V370.8z"/>
		<path class="st1" d="M394.6,375.9c0-0.6,0.4-1.1,1-1.1c0.6,0,1,0.4,1,1.1c0,0.6-0.4,1.1-1,1.1C395,377,394.6,376.5,394.6,375.9z"
			/>
		<path class="st1" d="M404.4,376.5c-0.4,0.2-1.3,0.5-2.4,0.5c-2.5,0-4.1-1.7-4.1-4.2c0-2.5,1.7-4.4,4.4-4.4c0.9,0,1.7,0.2,2.1,0.4
			l-0.3,1.2c-0.4-0.2-0.9-0.4-1.7-0.4c-1.9,0-2.9,1.4-2.9,3.1c0,1.9,1.2,3.1,2.9,3.1c0.8,0,1.4-0.2,1.8-0.4L404.4,376.5z"/>
		<path class="st1" d="M413.5,372.6c0,3-2.1,4.4-4.1,4.4c-2.2,0-3.9-1.6-3.9-4.2c0-2.8,1.8-4.4,4.1-4.4
			C411.9,368.4,413.5,370.1,413.5,372.6z M406.9,372.7c0,1.8,1,3.2,2.5,3.2c1.4,0,2.5-1.3,2.5-3.2c0-1.4-0.7-3.2-2.5-3.2
			S406.9,371.1,406.9,372.7z"/>
		<path class="st1" d="M415.4,370.8c0-0.9,0-1.5-0.1-2.2h1.3l0.1,1.3h0.1c0.5-0.8,1.2-1.5,2.6-1.5c1.1,0,2,0.7,2.3,1.6h0
			c0.3-0.5,0.6-0.8,0.9-1.1c0.5-0.4,1-0.6,1.8-0.6c1.1,0,2.7,0.7,2.7,3.6v4.8h-1.5v-4.7c0-1.6-0.6-2.5-1.8-2.5
			c-0.9,0-1.5,0.6-1.8,1.4c-0.1,0.2-0.1,0.5-0.1,0.7v5.1h-1.5v-4.9c0-1.3-0.6-2.3-1.7-2.3c-0.9,0-1.6,0.7-1.9,1.5
			c-0.1,0.2-0.1,0.5-0.1,0.7v5h-1.5V370.8z"/>
	</g>
</g>
<g id="Layer_4">
	<path class="st1" d="M303.4,111.7l1.6,0.6v2.1c-1.7,2.2-13,6.6-33.9,13.2l-12.2,4.2h-1.1v-2.1C257.9,127.7,273.1,121.7,303.4,111.7
		z M236.2,118.1c3.1,0,5.2,2.5,6.4,7.4l-2.1,3.2l-4.8-3.7h-0.5c-1.4,0-2.7,5.8-3.7,17.4c-0.5,0-1,1.6-1.6,4.8l-0.6,0.5h-0.5
		c-4.8-10.2-9.1-15.3-12.7-15.3c-3.2-1.5-4.8-3.6-4.8-6.4c0.4-3.2,1.1-4.8,2.1-4.8h0.6c2.8,0,7.6,4.4,14.3,13.3h1.1
		C229.3,127.7,231.6,122.2,236.2,118.1z M191.2,123.9c5.6,10.6,8.6,17.9,9,21.7l-1.1,1.1h-0.6l-2.1-1.6h-1.1v0.5
		c4.6,46.4,6.9,72.7,6.9,78.9c-0.6,13.3-2.2,20.7-4.8,22.2l-1.1-1.1l0.6-6.4h-0.6l0.6-0.6v-2.6l-0.6-0.6l0.6-0.5
		c-2.8-38.4-5.5-65.7-8-82.1l0.6-0.5V152l-2.1-20.6C187.5,129,188.7,126.5,191.2,123.9z M144.1,124.4h1.6c1.7,0.9,3.3,3.1,4.8,6.4
		c-0.8,2.1-1.5,3.2-2.1,3.2l-5.9-2.6H142c-1.9,15.2-3.9,22.7-5.9,22.7l-6.4-11.6c-1.5-2.4-4.3-4.5-8.5-6.4l-1.1-2.6
		c1-3.9,1.9-5.9,2.7-5.9h1.6c3.5,2.4,7.4,7.3,11.6,14.8h1.6C137.7,134.3,139.9,128.3,144.1,124.4z M290.2,127.1h0.5l3.2,3.2
		c-0.7,2.1-1.4,3.2-2.1,3.2l-4.2-1.1H286l-2.1,2.1c0,1.9,4.8,3,14.3,3.2v1.6c0,1.9-5.5,3.7-16.4,5.3h-1.1v-3.2
		c0-1.2-0.5-2.4-1.6-3.7C279.1,133.2,282.8,129.7,290.2,127.1z M534.8,129.2c1.3,0,2.8,1.9,4.7,5.8c-0.6,2.5-1.3,3.7-2.1,3.7h-0.5
		c-1.8-1.8-3.4-2.7-4.8-2.7h-0.5c-1.4,0.6-2.1,1.9-2.1,3.7v7.4c-0.4,11.3-1.3,16.9-2.7,16.9h-0.5c-5.3-10.3-10.4-15.4-15.4-15.4
		c-2.8-1.5-4.2-3.4-4.2-5.8v-0.6c0-1.6,0.9-3.1,2.7-4.2c4,1,9.2,5.6,15.9,13.8l0.5-0.5v-3.2l0.6-6.4h-0.6
		C527.8,133.5,530.8,129.2,534.8,129.2z M572.3,129.2c4.2,0,6.4,5.5,6.4,16.4c2.5,2,3.7,4,3.7,5.9l-1.6,2.1h-0.5l-3.2-2.1h-0.6
		c-1.2,0-4.2,2.5-9,7.4c-12.9,11.4-23.5,18-31.8,19.6h-1.1v-0.5l20.1-13.8c10.4-7.6,15.9-12.6,16.4-14.8c-3.9-4.6-5.8-7.2-5.8-8
		c1.5-7.8,3.7-11.6,6.8-11.6V129.2z M170.6,129.7c0.7,0,1.1,0.5,1.1,1.6c-2.8,8.5-4.2,15.6-4.2,21.2v2.6c0,3.2,1.2,5.7,3.7,7.4h2.1
		c1-4.2,2.1-6.4,3.2-6.4h0.6l0.5,1.6c-2.1,9.2-4.2,13.8-6.4,13.8h-2.1c-4.2-2.7-6.4-7.3-6.4-13.8c1.4-10.4,3.9-19.8,7.4-28.1H170.6z
		 M347.4,130.3h1.6c5.6,13,8.5,21.3,8.5,24.8h-1.1l-3.7-2.6l-0.6,0.5v0.6l6.9,72.5c0,23.2-11.3,39-33.9,47.6
		c-14.4,2.8-23.4,4.2-27,4.2v-1.1l27.5-11.6c7.3-3.6,14.5-9.4,21.7-17.4v-0.6c0-10.8-8.8-25.2-26.5-43.4
		c-15.9-20-26.8-35.2-32.8-45.5c-1.8-1.5-2.7-3.4-2.7-5.8v-3.7l0.6-2.6h1.1c5.4,3.6,11.1,8.2,16.9,13.8v1.6l-1.6,0.6l-2.1-0.6
		l-0.5,0.6v1.1c5.9,8.6,19.5,25.9,40.7,51.9c6.7,8.7,10.1,17.3,10.1,25.9h0.5l1.6-1.6v-8c-5.1-61.7-8.1-92.6-9-92.6
		C345.2,133.1,346.5,130.3,347.4,130.3z M326.2,130.8h1.6v0.6c-2.1,6.2-3.2,11-3.2,14.3v0.6c0,2.6,1.1,4.9,3.2,6.8
		c1.2,0,2.3-1.4,3.2-4.2h1.1v2.1c-1.5,5.6-2.9,8.5-4.2,8.5h-1.6c-3.2-2.1-4.8-4.9-4.8-8.5v-1.6C321.4,145.4,323,139.2,326.2,130.8z
		 M372.8,131.9h1.1c6,12.1,9,20.4,9,24.9l-0.5,0.5h-1.6l-2.6-2.1h-0.6v3.2c3.9,40.3,6,65.9,6.4,76.8c0,14.1-1.9,23.1-5.8,27
		l-0.6-0.5H377l0.5-6.4c0-15.1-1.9-46.1-5.8-93.2l-1.6-23.3L372.8,131.9z M417.8,132.9h0.6c2.8,0,4.2,2.1,4.2,6.4v6.9
		c0,1.2,1.4,3.2,4.2,5.8l1.1,2.1c0,1.1-0.5,2.2-1.6,3.2l-5.3-3.2h-0.5c-1.6,0-6.1,4.1-13.3,12.2c-5.3,3.2-10.9,6-16.9,8.5v-1.1
		c0.9-1.4,5-4.6,12.2-9.5c8.5-7.1,12.7-11.1,12.7-12.2v-1.1c-2.5-3-3.7-5.4-3.7-7.4C411.4,139.3,413.5,135.7,417.8,132.9z
		 M488.7,132.9l1.1,1.6c0,3.2-7.6,8.8-22.7,16.9l-24.9,16.4h-0.5l-0.6-2.6c0-3.2,9.2-9.9,27.5-20.1L488.7,132.9z M572.3,136.1
		c-2.1,0-3.2,0.8-3.2,2.5s1.8,3,5.3,3.8h0.6v-1.6c0-2.7-0.7-4.3-2.1-4.8H572.3z M415.2,141.4v0.6c0.7,1.7,1.9,2.6,3.7,2.6h0.6v-0.5
		c-0.2-2.8-0.8-4.2-1.6-4.2h-1.1L415.2,141.4z M269,148.3l0.5,1.6c0,3.6-6,6.9-18,10.1c-4.1,2.4-11.2,5.4-21.2,9
		c-13.1,5.5-20,9.2-20.6,11.2l3.2,4.2l-1.1,3.7h-1.6c-2.4,0-3.9-1.4-4.7-4.2c0-8.7,7.9-15.2,23.8-19.6c0.8-1.2,9.1-4.8,24.9-10.6
		C262.3,150.1,267.2,148.3,269,148.3z M140.9,164.2h0.5l-3.2,10.6c0.4,6.4,1.4,9.5,3.2,9.5l3.7-3.7h0.5v0.6c0,4.1-1.4,7.3-4.2,9.5
		h-0.5c-3.9-0.8-5.9-3.9-5.9-9.4C135.1,175.8,137,170.1,140.9,164.2z M496.7,165.2v0.5l-1.6,6.4v5.3c0,3.9,1.4,5.9,4.2,5.9
		c0.8-0.2,1.7-1.6,2.7-4.2h1.1v1.1h0.5c-0.9,6.1-2.8,9.5-5.8,10c-2.8,0-4.9-3.3-6.4-10C493.1,170.2,494.9,165.2,496.7,165.2z
		 M112.8,167.4l0.6,0.5v0.6c-3.1,9-4.7,16.9-4.8,23.8c0.9,5.3,2.7,8,5.3,8c0.6,0,1.6-1.4,3.2-4.2h0.6l1.1,1.1c0,6.4-3,10.8-9,13.2
		c-2.4,5-3.7,8.8-3.7,11.2c0,7.4,4.6,12.5,13.8,15.3c1.7,0.7,4.9,1.1,9.5,1.1h3.7c15.3,0,31.2-4.4,47.6-13.2l0.6-0.6v-1.1
		c0-1.6-2.8-5.9-8.5-12.7l-0.6-0.5v-0.6c0.7-4.6,2-6.8,3.7-6.8c7.1,4.6,10.6,11.1,10.6,19.6c-1.6,7.4-3.4,11.2-5.3,11.2
		c-8,6.5-22.5,11.4-43.4,14.8l-6.9,0.5c-19.8,0-29.6-7.4-29.6-22.2c0-3.1,2.1-9.3,6.4-18.5c-2.1-5.4-3.2-10-3.2-13.8
		c0-6.3,2.5-14.9,7.4-26l0.6-0.5H112.8z M576.1,167.4h0.5v2.1l-2.1,3.7v6.4c0,1.9,0.9,3.3,2.7,4.2h0.5l3.2-2.6h0.6v1.6
		c0,3.8-1.8,6.3-5.3,7.4c-3.2-1.2-4.8-4-4.8-8.6S572.9,172.3,576.1,167.4z M269,171.6c5.6,0.3,8.5,1.6,8.5,3.7
		c0,5.2-5.5,9.3-16.4,12.2H260v-1.1c0-0.8,2.7-2.6,8-5.3v-1.6l-4.8-0.5c-3.7,0-6.7,1.2-9,3.7h-1.1v-0.5c2.2-7.1,5.7-10.6,10.6-10.6
		H269z M428.4,171.6c4.9,3,7.4,5.6,7.4,7.9v1.6c-0.8,1.7-2.4,3.5-4.7,5.3l-6.9-4.8h-0.5c-0.8,0-2.2,2.1-4.2,6.4l-1.6,0.6
		c-3.3-1.6-6.1-3.9-8.5-6.9v-0.5c0-2.6,1.4-5.1,4.2-7.4h1.1l5.9,3.7h1.1c3.1-3.9,5.2-5.8,6.4-5.8H428.4z M459.1,181.6h0.6
		c7.8,7,11.6,10.9,11.6,11.6v1.1l-3.7,0.6v0.5c6,11.7,9,18.6,9,20.7v1.6c0,9.5-3.9,16.9-11.6,22.2c-2.5,2.4-3.7,5.6-3.7,9.5
		c0,7.7,3.9,13,11.6,15.9l3.2,1.1c15.1,0,30.8-10.2,47.2-30.7l0.5-2.1V233l-1.6-1.6c-5.6,1.8-10.7,2.7-15.4,2.7h-0.5
		c-6.3,0-9.8-3.7-10.6-11.2v-0.5c2.2-10.6,6.4-15.9,12.7-15.9h0.5c4.9,0,10.5,3.9,16.9,11.6c2,0,8-3.9,18-11.6h0.6
		c1.4,0,2.1,2.8,2.1,8.5c2.4,3.5,5,5.6,7.9,6.4h6.4c5.9,0,11.4-5.6,16.4-16.9l1.6-1.1h1.1v1.1h0.6c-1.4,3.1-2.1,5.3-2.1,6.8v0.6
		c2.9,3.5,6.2,5.3,10,5.3h1.6c1.8,0,2.8-0.5,3.2-1.6v-1.1c0-1.3-0.7-2.8-2.1-4.7v-1.1c0-3.3,0.7-6,2.1-8c2.1,0,4,4.4,5.8,13.3
		c0,8-3.3,12.5-10,13.8h-1.1c-4.8,0-9.4-2.3-13.8-6.9c-4.7,6.4-8.6,9.7-11.6,10.1l-5.9,1.6c-6.7,0-11.6-4.2-14.8-12.7l-0.5-0.5h-0.6
		c-8.1,4.8-12.1,9.5-12.1,14.3c0,7.7-5.6,16.5-16.9,26.5c-12.4,11.3-23.7,16.9-33.9,16.9c-9,0-15.3-5.3-19.1-15.9l-0.6-5.3v-8.5
		h-1.6c-24.1,16.9-41.7,25.4-52.9,25.4c-7,2.1-12.8,3.5-17.5,4.2l-0.5-0.5v-0.6c2.3-2.1,10.5-6,24.8-11.6c8.9-4.7,18-10,27-15.9
		c13.1-7.2,24.4-16,33.9-26.5v-2.6l-10.6-20.1l-3.7-10.1C457.3,184.1,458,181.6,459.1,181.6z M437.4,190.1c0.7,0,1.1,0.5,1.1,1.6
		c0,3.7-2.8,9.7-8.5,18v0.5c7.4,6,11.1,11.2,11.1,15.4c0,8.2-3.3,13.9-10,16.9c-4,3.2-7.4,4.7-10.1,4.7c-4.2,0-6.9-3.2-7.9-9.5
		c0-6.2,1.6-13.3,4.7-21.2c-9.5-7.9-14.3-13-14.3-15.3v-3.2l0.5-3.7h0.6c9.5,2.9,14.3,4.9,14.3,5.9v1.1c0,0.7-0.5,1.1-1.6,1.1
		l-0.6,0.5v0.6c2.6,2.8,4.9,4.2,6.9,4.2c0.7-0.1,5.1-6,13.2-17.5H437.4z M253.7,202.3h4.2c16.2,0,33.5,3,51.9,9v0.6
		c-2.1,8.1-5.1,12.1-9,12.1c-13.8,6.4-27.7,12.2-41.9,17.5c-1.2,1.5-1.9,3.6-2.1,6.4l-0.5,0.5h-1.1c-1.8-2.4-3.2-3.7-4.2-3.7
		c-10.3,3.1-19.3,7.3-27,12.7c-5.8,4.3-14.1,11.6-24.8,21.7c-3.6,2.1-7.2,3.2-10.6,3.2c-9.9-2-14.8-6.9-14.8-14.8l-0.6-4.7
		c1-8.2,4.9-17.2,11.6-27c2.2-2.1,3.8-3.2,4.8-3.2l0.5,1.6c-8.5,12.3-12.7,22.3-12.7,30.1v1.6c1.2,5.3,3.6,7.9,7.4,7.9
		c7.8,0,16.6-5.6,26.5-16.9c11.6-10,22.2-16.3,31.8-19.1l1.6-2.1c0-0.7-3.7-4.5-11.2-11.6c-1.4-1.8-2.1-3.8-2.1-5.8v-2.1
		c0-5.3,3.9-9.4,11.6-12.2C245.6,202.8,249.1,202.3,253.7,202.3z M146.2,202.8h0.5v0.6l-2.1,8.5v5.8c0.8,1.8,1.9,2.7,3.2,2.7
		l2.7-3.2h0.5l0.6,1.6c-1.2,4.8-2.8,7.7-4.8,8.5h-1.6c-1.6,0-3.2-3-4.8-9C140.4,213,142.3,207.9,146.2,202.8z M238.3,216.6
		l12.7,12.7c0,1.1,1.1,2.4,3.2,3.7h0.5c19.9-6.6,32.2-11.6,37.1-14.8v-1.1c-15-3.2-27.7-4.8-38-4.8
		C243.5,212.3,238.3,213.7,238.3,216.6z M217.2,217.1c6.1,3.1,9.2,5.9,9.5,8.5c-1.1,2.6-2.7,4.8-4.8,6.4h-1.6
		c-2.2-1.3-4.6-3.6-7.4-6.9v-0.5C214.4,219.6,215.8,217.1,217.2,217.1z M503,220.3v1.1c0,1.2,2.3,1.9,6.8,2.1
		c3.2-0.3,4.8-0.8,4.8-1.6v-0.5c-0.4-1.1-2.1-2.4-5.3-3.7C505.1,218.2,503,219.1,503,220.3z M417.3,231.9c0.2,2.8,1.6,4.2,4.2,4.2
		c9.2-2.4,13.8-5.4,13.8-9c-4.4-4.6-8.3-6.8-11.6-6.8h-0.6C419.2,224.5,417.3,228.4,417.3,231.9z M314.6,221.4h0.5l0.6,1.6
		l-4.2,20.1v2.1c0.5,5.6,1.7,8.5,3.7,8.5h0.6c0.5,0,1.7-1.8,3.7-5.3h1.1l0.6,1.6c0,4.5-2.1,8.6-6.4,12.1H314
		c-3.6,0-6.1-3.7-7.4-11.1v-2.1C309.7,230.5,312.4,221.4,314.6,221.4z M586.1,239.9h0.6l0.5,2.7c-1.4,7.1-4.2,10.6-8.5,10.6
		l-3.2-1.1c-3.4,2.4-6.3,3.7-8.5,3.7c-3.4-1.4-5.9-2.1-7.4-2.1c-3.2,1.3-10,5.5-20.1,12.7c-3.6,1.4-6.4,2.1-8.5,2.1v-0.5
		c18.2-13.4,28.4-20.1,30.7-20.1h1.1l6.4,1.6h2.1c0.7,0,2.6-1.9,5.9-5.8l3.2,3.2h1.6c0.9,0,1.8-1.8,2.7-5.3L586.1,239.9z
		 M271.6,249.4c2.5,0.7,3.7,1.4,3.7,2.1c0,2.3-3.2,6.8-9.5,13.8l-0.6,3.2l3.2,1.1c6.1,0,11.7-2.3,16.9-6.8h1.1v1.6
		c-5.2,8.1-11.7,12.2-19.6,12.2h-0.6c-3.5,0-5.3-1.2-5.3-3.7c0-1.5,2.3-6.8,6.9-15.9h-2.7l-1.6,1.1h-1.6v-1.1h-0.5
		C261.6,253.5,265,251.1,271.6,249.4z M143,252.1c4.1,1.5,7.3,3.9,9.5,7.4c-0.7,1.8-2.6,4.1-5.9,6.8c-4.8-2.6-7.9-4.9-9.5-6.8
		C138.6,254.5,140.5,252.1,143,252.1z M236.7,260c1.4,0,2.5,1.4,3.2,4.2c0,4-3,9-9,14.8v-1.6c3.5-5.1,5.3-8.3,5.3-9.5l-1.6-1.1h-0.5
		l-3.2,1.6v-0.5C231.9,262.6,233.8,260,236.7,260z M161.5,265.8l1.1,2.1c0,3.1-8.5,6.1-25.4,9l-23.3,6.4l-1.1-1.1
		c0-3.4,6.4-6.3,19.1-8.5L161.5,265.8z"/>
</g>
</svg>
