<?xml version="1.0" encoding="utf-8"?>
<!-- Generator: Adobe Illustrator 25.2.3, SVG Export Plug-In . SVG Version: 6.00 Build 0)  -->
<svg version="1.1" xmlns="http://www.w3.org/2000/svg" xmlns:xlink="http://www.w3.org/1999/xlink" x="0px" y="0px"
	 viewBox="0 0 700 395" style="enable-background:new 0 0 700 395;" xml:space="preserve">
<style type="text/css">
	.st0{fill:#000222;}
	.st1{fill:#FFFFFF;}
</style>
<g id="Layer_1">
	<rect class="st0" width="700" height="395"/>
</g>
<g id="Layer_3">
	<g>
		<path class="st1" d="M273.5,368.6l1.1,4.2c0.2,0.9,0.5,1.8,0.6,2.6h0.1c0.2-0.8,0.5-1.7,0.7-2.6l1.3-4.2h1.3l1.3,4.1
			c0.3,1,0.5,1.9,0.7,2.7h0.1c0.1-0.8,0.4-1.7,0.6-2.7l1.2-4.1h1.5l-2.7,8.2H280l-1.3-3.9c-0.3-0.9-0.5-1.7-0.7-2.7h0
			c-0.2,1-0.5,1.8-0.7,2.7l-1.3,3.9h-1.4l-2.5-8.2H273.5z"/>
		<path class="st1" d="M286.3,368.6l1.1,4.2c0.2,0.9,0.5,1.8,0.6,2.6h0.1c0.2-0.8,0.5-1.7,0.7-2.6l1.3-4.2h1.3l1.3,4.1
			c0.3,1,0.5,1.9,0.7,2.7h0.1c0.1-0.8,0.4-1.7,0.6-2.7l1.2-4.1h1.5l-2.7,8.2h-1.4l-1.3-3.9c-0.3-0.9-0.5-1.7-0.7-2.7h0
			c-0.2,1-0.5,1.8-0.7,2.7l-1.3,3.9h-1.4l-2.5-8.2H286.3z"/>
		<path class="st1" d="M299,368.6l1.1,4.2c0.2,0.9,0.5,1.8,0.6,2.6h0.1c0.2-0.8,0.5-1.7,0.7-2.6l1.3-4.2h1.3l1.3,4.1
			c0.3,1,0.5,1.9,0.7,2.7h0.1c0.1-0.8,0.4-1.7,0.6-2.7l1.2-4.1h1.5l-2.7,8.2h-1.4l-1.3-3.9c-0.3-0.9-0.5-1.7-0.7-2.7h0
			c-0.2,1-0.5,1.8-0.7,2.7l-1.3,3.9h-1.4l-2.5-8.2H299z"/>
		<path class="st1" d="M309.9,375.9c0-0.6,0.4-1.1,1-1.1c0.6,0,1,0.4,1,1.1c0,0.6-0.4,1.1-1,1.1C310.3,377,309.9,376.5,309.9,375.9z
			"/>
		<path class="st1" d="M313.5,375.3c0.4,0.3,1.2,0.6,2,0.6c1.1,0,1.6-0.5,1.6-1.2c0-0.7-0.4-1.1-1.5-1.5c-1.5-0.5-2.2-1.3-2.2-2.3
			c0-1.3,1.1-2.4,2.8-2.4c0.8,0,1.6,0.2,2,0.5l-0.4,1.1c-0.3-0.2-0.9-0.5-1.7-0.5c-0.9,0-1.4,0.5-1.4,1.1c0,0.7,0.5,1,1.6,1.4
			c1.4,0.5,2.2,1.3,2.2,2.5c0,1.4-1.1,2.5-3.1,2.5c-0.9,0-1.7-0.2-2.3-0.6L313.5,375.3z"/>
		<path class="st1" d="M327.4,374.6c0,0.9,0,1.6,0.1,2.2h-1.3l-0.1-1.3h0c-0.4,0.7-1.3,1.5-2.7,1.5c-1.3,0-2.8-0.7-2.8-3.6v-4.8h1.5
			v4.6c0,1.6,0.5,2.6,1.8,2.6c1,0,1.7-0.7,2-1.4c0.1-0.2,0.1-0.5,0.1-0.8v-5h1.5V374.6z"/>
		<path class="st1" d="M329.8,371.1c0-1,0-1.8-0.1-2.6h1.3l0.1,1.6h0.1c0.4-1.1,1.3-1.8,2.3-1.8c0.2,0,0.3,0,0.4,0.1v1.4
			c-0.2,0-0.3-0.1-0.5-0.1c-1.1,0-1.8,0.8-2,1.9c0,0.2-0.1,0.4-0.1,0.7v4.4h-1.5V371.1z"/>
		<path class="st1" d="M339.9,376.8l-0.1-1h-0.1c-0.5,0.6-1.3,1.2-2.5,1.2c-1.7,0-2.5-1.2-2.5-2.4c0-2,1.8-3.1,4.9-3.1v-0.2
			c0-0.7-0.2-1.9-1.9-1.9c-0.8,0-1.6,0.2-2.1,0.6l-0.3-1c0.7-0.4,1.7-0.7,2.7-0.7c2.5,0,3.1,1.7,3.1,3.4v3.1c0,0.7,0,1.4,0.1,2
			H339.9z M339.7,372.6c-1.6,0-3.5,0.3-3.5,1.9c0,1,0.6,1.4,1.4,1.4c1.1,0,1.8-0.7,2-1.4c0.1-0.2,0.1-0.3,0.1-0.5V372.6z"/>
		<path class="st1" d="M343.5,364.7h1.5v5.1h0c0.2-0.4,0.6-0.8,1.1-1.1c0.4-0.3,1-0.4,1.5-0.4c1.1,0,2.9,0.7,2.9,3.5v4.9H349v-4.7
			c0-1.3-0.5-2.4-1.9-2.4c-1,0-1.7,0.7-2,1.5c-0.1,0.2-0.1,0.4-0.1,0.7v5h-1.5V364.7z"/>
		<path class="st1" d="M358.6,375.5L358.6,375.5c-0.5,0.8-1.4,1.5-2.7,1.5c-1.9,0-3.5-1.7-3.5-4.2c0-3.1,2-4.4,3.7-4.4
			c1.3,0,2.1,0.6,2.5,1.4h0l0.1-1.2h1.4c0,0.7-0.1,1.4-0.1,2.3v9.3h-1.5V375.5z M358.6,371.9c0-0.2,0-0.4-0.1-0.6
			c-0.2-0.9-1-1.7-2.1-1.7c-1.5,0-2.5,1.3-2.5,3.2c0,1.6,0.8,3.1,2.4,3.1c1,0,1.8-0.6,2.1-1.6c0.1-0.2,0.1-0.5,0.1-0.7V371.9z"/>
		<path class="st1" d="M369.4,374.6c0,0.9,0,1.6,0.1,2.2h-1.3l-0.1-1.3h0c-0.4,0.7-1.3,1.5-2.7,1.5c-1.3,0-2.8-0.7-2.8-3.6v-4.8h1.5
			v4.6c0,1.6,0.5,2.6,1.8,2.6c1,0,1.7-0.7,2-1.4c0.1-0.2,0.1-0.5,0.1-0.8v-5h1.5V374.6z"/>
		<path class="st1" d="M371.9,371.1c0-1,0-1.8-0.1-2.6h1.3l0.1,1.6h0.1c0.4-1.1,1.3-1.8,2.3-1.8c0.2,0,0.3,0,0.4,0.1v1.4
			c-0.2,0-0.3-0.1-0.5-0.1c-1.1,0-1.8,0.8-2,1.9c0,0.2-0.1,0.4-0.1,0.7v4.4h-1.5V371.1z"/>
		<path class="st1" d="M381.9,376.8l-0.1-1h-0.1c-0.5,0.6-1.3,1.2-2.5,1.2c-1.7,0-2.5-1.2-2.5-2.4c0-2,1.8-3.1,4.9-3.1v-0.2
			c0-0.7-0.2-1.9-1.9-1.9c-0.8,0-1.6,0.2-2.1,0.6l-0.3-1c0.7-0.4,1.7-0.7,2.7-0.7c2.5,0,3.1,1.7,3.1,3.4v3.1c0,0.7,0,1.4,0.1,2
			H381.9z M381.7,372.6c-1.6,0-3.5,0.3-3.5,1.9c0,1,0.6,1.4,1.4,1.4c1.1,0,1.8-0.7,2-1.4c0.1-0.2,0.1-0.3,0.1-0.5V372.6z"/>
		<path class="st1" d="M385.6,370.8c0-0.9,0-1.5-0.1-2.2h1.3l0.1,1.4h0c0.4-0.8,1.4-1.5,2.7-1.5c1.1,0,2.9,0.7,2.9,3.5v4.9h-1.5
			v-4.7c0-1.3-0.5-2.4-1.9-2.4c-1,0-1.8,0.7-2,1.5c-0.1,0.2-0.1,0.4-0.1,0.7v4.9h-1.5V370.8z"/>
		<path class="st1" d="M394.6,375.9c0-0.6,0.4-1.1,1-1.1c0.6,0,1,0.4,1,1.1c0,0.6-0.4,1.1-1,1.1C395,377,394.6,376.5,394.6,375.9z"
			/>
		<path class="st1" d="M404.4,376.5c-0.4,0.2-1.3,0.5-2.4,0.5c-2.5,0-4.1-1.7-4.1-4.2c0-2.5,1.7-4.4,4.4-4.4c0.9,0,1.7,0.2,2.1,0.4
			l-0.3,1.2c-0.4-0.2-0.9-0.4-1.7-0.4c-1.9,0-2.9,1.4-2.9,3.1c0,1.9,1.2,3.1,2.9,3.1c0.8,0,1.4-0.2,1.8-0.4L404.4,376.5z"/>
		<path class="st1" d="M413.5,372.6c0,3-2.1,4.4-4.1,4.4c-2.2,0-3.9-1.6-3.9-4.2c0-2.8,1.8-4.4,4.1-4.4
			C411.9,368.4,413.5,370.1,413.5,372.6z M406.9,372.7c0,1.8,1,3.2,2.5,3.2c1.4,0,2.5-1.3,2.5-3.2c0-1.4-0.7-3.2-2.5-3.2
			S406.9,371.1,406.9,372.7z"/>
		<path class="st1" d="M415.4,370.8c0-0.9,0-1.5-0.1-2.2h1.3l0.1,1.3h0.1c0.5-0.8,1.2-1.5,2.6-1.5c1.1,0,2,0.7,2.3,1.6h0
			c0.3-0.5,0.6-0.8,0.9-1.1c0.5-0.4,1-0.6,1.8-0.6c1.1,0,2.7,0.7,2.7,3.6v4.8h-1.5v-4.7c0-1.6-0.6-2.5-1.8-2.5
			c-0.9,0-1.5,0.6-1.8,1.4c-0.1,0.2-0.1,0.5-0.1,0.7v5.1h-1.5v-4.9c0-1.3-0.6-2.3-1.7-2.3c-0.9,0-1.6,0.7-1.9,1.5
			c-0.1,0.2-0.1,0.5-0.1,0.7v5h-1.5V370.8z"/>
	</g>
</g>
<g id="Layer_4">
	<path class="st1" d="M166.6,110h1.1c1.3,0,3,7.1,5.2,21.3c1.9,10.3,2.8,24.6,2.8,43h0.6l-0.6,0.6c1.3,34.8,3.4,52.2,6.4,52.2
		c2.4,6.1,7,9.2,13.8,9.2c5.6,0,11.7-5.2,18.4-15.5l0.5-0.6h1.1c0,6.7,3.6,11.3,10.9,13.8l9.7,1.1h5.7c11.4,0,23.9-4.2,37.3-12.6
		c0-1,1.5-1.7,4.6-2.3l-0.6,6.9c2.1,3.8,4.6,5.7,7.5,5.7h1.7c6.2,0,11.5-5,16.1-14.9l2.3-1.7h0.6v0.5l-1.8,6.9
		c2.2,4.2,5.5,6.4,9.8,6.4c2.7,0,4-0.8,4-2.3l-2.3-6.9c1.2-5.4,2.4-8,3.6-8c1.2,0,2.5,3.2,3.9,9.7v3.4c-2,9.6-6.2,14.4-12.6,14.4
		c-2.3,0-6-2.1-10.9-6.4c-4.8,6.1-10.2,9.2-16.1,9.2c-7.2-1.9-10.9-5.6-10.9-10.9h-1.8c-12.7,8.8-27,13.2-43,13.2h-0.6
		c-9.5,0-16.8-3.8-21.8-11.5C206,242,200.8,246,196,246h-4.1c-9.7,0-16-8.6-18.9-25.9c-1.5-49.6-4-81.9-7.5-96.9
		c-0.6,0-1-1.7-1.1-5.2L166.6,110z M223.5,112.3c3.1,0,5.4,2.9,6.9,8.6c-0.8,1.7-1.5,2.7-2.3,2.8l-4.6-4h-2.3v0.5
		c-1,18-2.4,27-4.1,27c-5-10.7-8.1-16.1-9.2-16.1c0-1.4-2.7-2.8-8-4.1c-1.5-2-2.3-3.7-2.3-5.1v-0.6c0-2.5,1.1-4.2,3.4-5.1
		c4.7,0.9,9.9,7,15.5,18.4h0.5l0.6-0.6v-0.5C217.8,121.9,219.7,114.8,223.5,112.3z M358.3,114.6c2.3,0.8,3.4,2.9,3.4,6.4l-0.5,10.9
		c3.1,2.3,5,4.6,5.7,6.9c-0.4,2.3-1,3.4-1.8,3.4l-6.3-4.6c-11.9,11.7-21.8,18.4-29.8,20.1v-1.1l24.1-18.4l1.7-2.9
		c-3.1-4-4.6-6.7-4.6-8C350.3,121.7,352.9,117.5,358.3,114.6z M483.4,115.2h0.6c2.6,0,4.5,2.1,5.7,6.3l-1.1,4.1h-1.1l-4.6-4.1h-1.1
		c-1.8,0-2.9,2.9-3.4,8.6l0.5,4c-1.4,12.6-2.8,19-4,19c-6.1-11.1-10.7-16.7-13.8-16.7c-4.6-1.1-6.9-3.2-6.9-6.3v-1.1
		c0-3.1,1.1-4.6,3.4-4.6c8,5.2,13.2,10.7,15.5,16.6h1.8C474.8,126.6,477.7,118,483.4,115.2z M527,116.9c3.8,0,5.7,6.5,5.7,19.5
		c2.3,1.5,3.4,3.1,3.4,4.6l-0.5,2.9h-1.1c-2.5-1.9-4.4-2.9-5.7-2.9c-17.3,16.1-32.3,25.5-44.8,28.2l-0.6-0.6v-1.1
		c14.5-7.1,28.5-16.4,41.9-28.1c-4.2-4.3-6.4-7-6.4-8l-0.5-0.6C520,121.5,522.8,116.9,527,116.9z M312.4,118h1.8v1.8
		c0,3-4,5.8-12.1,8.6c-40.2,16.8-70.8,31.4-91.8,43.6c-14.5,6.4-21.8,10.6-21.8,12.6l3.4,5.7l-0.5,2.3h-1.1c-3.2,0-5.1-2.3-5.7-6.9
		c0-7,7.4-13.1,22.3-18.4C228.6,154.3,263.8,137.9,312.4,118z M433.5,118h1.1l0.5,0.6h0.6c0,3.8-6.9,9.2-20.7,16.1
		c-21.3,12.6-32.4,18.9-33.3,18.9l-0.6-0.5v-1.1c0-3.3,7.9-8.8,23.6-16.7L433.5,118z M353.7,123.7v1.1c1.6,2.7,2.7,4.1,3.4,4.1h0.6
		l1.1-1.1v-4.6l-1.8-1.8H356L353.7,123.7z M521.9,127.2v0.6c1.2,1.8,3.1,3.3,5.7,4.6h1.7c-0.4-5.8-1.3-8.6-2.8-8.6h-1.1
		C523,123.7,521.9,124.9,521.9,127.2z M330.8,139.3l0.6,0.5v1.8c0,4-6.1,8-18.4,12c-38.6,18.6-67.5,33.2-86.7,43.6l-0.5-0.5V196
		c0-5.2,4.6-9.5,13.8-13.2c8.2-5.5,37.4-19.6,87.8-42.5C327.3,139.7,328.5,139.3,330.8,139.3z M442.1,152.4v0.6
		c-1.9,5-2.8,9.3-2.8,13s1.5,6.2,4.6,7.7c1.3,0,2.5-1.5,3.4-4.6h1.1c0,4.7-1.7,8.4-5.2,10.9c-4.6,0-6.9-3.8-6.9-11.5
		C438.6,157.8,440.5,152.4,442.1,152.4z M365.8,157.6h1.1c5.4,3.2,8,6,8,8.6c0,1.7-1.5,4-4.6,6.9c-1.6,0-4.3-1.7-8-5.1h-1.1
		l-4.6,6.9h-1.8c-4.4-2.8-7.1-4.9-8-6.4v-1.1c0.1-2.3,1.6-5,4.6-8l8,5.2h0.6L365.8,157.6z M528.8,158.2h0.5v0.6
		c-2.3,5-3.4,9.4-3.4,13.2c1,3,2.1,4.7,3.4,5.2h0.6l3.4-3.4h0.5c-1.3,6.5-3.2,9.7-5.7,9.7c-3.4-1.4-5.1-4.9-5.1-10.3
		C525.6,163.1,527.5,158.2,528.8,158.2z M313,161.6h1.1v0.6l-2.9,12.6v6.9c0,2.8,1.5,5.4,4.6,8h1.1c1.2,0,2.2-1.9,2.9-5.7h1.7
		l0.6,1.7c-2.3,8.8-5,13.2-8,13.2c-3.5,0-6-5.4-7.5-16.1C306.7,177.9,308.8,170.8,313,161.6z M154,169.7v0.6
		c-1.9,7.2-2.8,13.1-2.8,17.7s1.1,7.5,3.4,8.7h1.1c1.1,0,1.7-0.8,1.7-2.3h1.1v1.1c-0.9,5.4-2,8-3.4,8c-4.6,0-6.9-4.2-6.9-12.6v-1.1
		C150.4,176.4,152.3,169.7,154,169.7z M399.6,169.7h1.1c8.4,8.3,12.6,13.1,12.6,14.4l-0.5,0.5l-2.9-0.5h-0.5c-0.8,0-1.1,0.6-1.1,1.7
		c6.5,10.8,9.7,17.9,9.7,21.3c0,12.8-4.6,21.5-13.8,26.4c-2.7,2.8-4,5.5-4,8v2.8c0,8.8,3.8,14.7,11.5,17.8l3.4,1.1h9.7
		c9.8-2.8,21.3-10,34.4-21.8c6.9-6,10.3-10.4,10.3-13.2c-0.4-1.5-1.3-2.3-2.8-2.3l-16.1,2.9c-5.5-1.3-8.9-3.2-10.3-5.7
		c-0.8-1.5-1.1-3.6-1.1-6.4v-1.1c2.5-11.1,6.9-16.6,13.2-16.6h1.1v-0.6c5,0,10.9,4.6,17.8,13.8h2.3c4.4-2.3,10.2-6.1,17.2-11.5
		l2.8-0.5l0.6,0.5v6.4c0,5.1,3.8,8.5,11.5,10.3h2.3c8.4,0,14.9-5.7,19.5-17.2l2.8-2.3h0.6v1.1h0.5l-2.8,6.9v1.1
		c2.7,4.2,7.6,6.3,14.9,6.3c1.9-0.3,2.8-0.8,2.8-1.7V211c0-1.2-1.1-3.5-3.4-6.9c1.5-5.5,2.7-8.4,3.4-8.6c3.5,3.8,5.2,8.5,5.2,14.3
		c-1.2,9.9-5.3,14.9-12.1,14.9c-5.3,0-10.2-2.9-14.9-8.6h-1.1c-4.8,7.7-10.2,11.5-16.1,11.5h-4.6c-6.6,0-11-4.8-13.2-14.4h-0.6
		c-2.2,0-7,3.4-14.3,10.3c0,11.2-6.3,21.8-19,31.6c-7.1,7.1-13.3,11.7-18.4,13.8c-6.6,3.8-12.5,5.7-17.7,5.7h-1.1
		c-10.5,0-17.6-5.7-21.3-17.2l-1.1-8l1.1-9.2h-0.5L366.3,258c-10.5,5.4-18.7,8-24.6,8c-2.9,1.2-10.9,2.9-24.1,5.2h-1.1v-0.6
		c1.4-1.7,10.8-5.7,28.1-12c35.3-18.2,58.1-33.1,68.3-44.8v-1.8c0-2.1-3.6-9.6-10.9-22.3c0-1.8-1.3-5.4-4-10.9L399.6,169.7z
		 M376.1,177.7h1.1v0.6c0,5.3-3.3,12-9.8,20l-0.5,2.3c8,5.4,12,10.6,12,15.5c0,9.8-4.8,16.5-14.3,20c-2,1.9-5.1,2.9-9.2,2.9
		c-4.6-1.2-6.9-4.6-6.9-10.3c0-7.2,2.1-14.5,6.3-21.8l-14.9-15.5l-0.5-3.4v-0.5c0-4.2,0.6-6.4,1.7-6.4l14.9,7.5
		c-0.4,1.1-1.5,1.7-3.4,1.7v1.1c3.3,3.8,6.2,5.7,8.6,5.7L376.1,177.7z M261.9,185.2h1.1l-2.3,14.9c0,3.8,1.7,6.1,5.2,6.9l2.8-4.6
		l0.6,0.5v0.6c-1.1,6.9-3,10.3-5.7,10.3c-3,0-4.9-3.6-5.7-10.9C257.9,199.8,259.2,193.9,261.9,185.2z M359.4,209.8
		c-4.6,6.2-6.9,10.6-6.9,13s1,4.2,2.9,5.3h3.4c3.7,0,8.4-2.9,14.3-8.6v-1.1C367.7,212.7,363.1,209.8,359.4,209.8z M446.1,213.9v1.1
		c0,1,2.3,1.8,6.9,2.3l7.4-1.1v-1.8c-1.9-2.7-5-4-9.2-4C449.7,210.4,448,211.6,446.1,213.9z M537.3,238l0.6,0.5v1.1
		c0,5.9-2.7,10.1-8,12.6l-5.7-1.7c-2.2,2-5.1,3.4-8.6,4l-6.9-2.8c-3.3,0-10.6,4.2-21.8,12.6l-10.9,3.4v-1.8
		c1.7-0.4,12.1-6.9,31-19.5c2.7,0,4-0.4,4-1.1c3.8,1.9,6.6,2.9,8.5,2.9c1.9,0,4.4-2.1,7.6-6.4c1.4,2.7,3.3,4.1,5.7,4.1l3.4-7.5
		l0.6-0.5H537.3z M177,244.2h0.6c2.2,1.3,3.7,2.6,4.6,4.1v0.5c0,2.1-1,3.6-2.9,4.6l-3.4-3.4h-1.7c-2.3,1.2-3.7,2.6-4.1,4.1
		c2.1,1.9,4.4,2.8,6.9,2.8l9.2-1.1l1.8,0.6v0.5l-1.8,4.6c-5.2,0-11.3,1.5-18.4,4.6h-2.3c0-1.4,1-3.1,2.9-5.1v-0.6l-2.3-4
		C166.1,252.9,169.7,248.8,177,244.2z M312.4,248.8l1.1,1.1c-2.1,7.7-4.4,11.5-6.9,11.5l-5.7-1.1l-5.1,3.4h-1.1l-7.5-3.4H286
		c-3.8,0-10.5,2.7-20,8c-8.5,4-14.4,6.1-17.8,6.4l-0.5-0.6v-1.1c7.2-2.4,18.5-8.4,33.8-17.7l6.4-1.1l8.6,2.8c3.8,0,6.3-2.3,7.5-6.9
		h1.1v3.4l1.7,1.8h2.3c0.7,0,1.6-2.1,2.9-6.4H312.4z M212,254c2.6,1.1,5.3,3.4,8,6.9v2.3c-1.3,2.7-3,4.7-5.2,6.3h-0.5
		c-5.4-3.6-8-6.5-8-8.6C207.4,256.3,209.3,254,212,254z M191.4,264.9h0.5v0.6c0,3.4-5.4,6.3-16.1,8.6l-7.4,2.9h-0.6v-1.8
		C167.8,272.8,175.7,269.4,191.4,264.9z M192.5,272.9v0.6c0,3.3-5,5.9-14.9,8c-3.8,2.3-6.5,3.4-8,3.4v-0.6
		C169.6,280.5,177.2,276.7,192.5,272.9z"/>
</g>
</svg>
