<?xml version="1.0" encoding="utf-8"?>
<!-- Generator: Adobe Illustrator 25.2.3, SVG Export Plug-In . SVG Version: 6.00 Build 0)  -->
<svg version="1.1" xmlns="http://www.w3.org/2000/svg" xmlns:xlink="http://www.w3.org/1999/xlink" x="0px" y="0px"
	 viewBox="0 0 700 395" style="enable-background:new 0 0 700 395;" xml:space="preserve">
<style type="text/css">
	.st0{fill:#000222;}
	.st1{fill:#FFFFFF;}
</style>
<g id="Layer_1">
	<rect class="st0" width="700" height="395"/>
</g>
<g id="Layer_3">
	<g>
		<path class="st1" d="M273.5,368.6l1.1,4.2c0.2,0.9,0.5,1.8,0.6,2.6h0.1c0.2-0.8,0.5-1.7,0.7-2.6l1.3-4.2h1.3l1.3,4.1
			c0.3,1,0.5,1.9,0.7,2.7h0.1c0.1-0.8,0.4-1.7,0.6-2.7l1.2-4.1h1.5l-2.7,8.2H280l-1.3-3.9c-0.3-0.9-0.5-1.7-0.7-2.7h0
			c-0.2,1-0.5,1.8-0.7,2.7l-1.3,3.9h-1.4l-2.5-8.2H273.5z"/>
		<path class="st1" d="M286.3,368.6l1.1,4.2c0.2,0.9,0.5,1.8,0.6,2.6h0.1c0.2-0.8,0.5-1.7,0.7-2.6l1.3-4.2h1.3l1.3,4.1
			c0.3,1,0.5,1.9,0.7,2.7h0.1c0.1-0.8,0.4-1.7,0.6-2.7l1.2-4.1h1.5l-2.7,8.2h-1.4l-1.3-3.9c-0.3-0.9-0.5-1.7-0.7-2.7h0
			c-0.2,1-0.5,1.8-0.7,2.7l-1.3,3.9h-1.4l-2.5-8.2H286.3z"/>
		<path class="st1" d="M299,368.6l1.1,4.2c0.2,0.9,0.5,1.8,0.6,2.6h0.1c0.2-0.8,0.5-1.7,0.7-2.6l1.3-4.2h1.3l1.3,4.1
			c0.3,1,0.5,1.9,0.7,2.7h0.1c0.1-0.8,0.4-1.7,0.6-2.7l1.2-4.1h1.5l-2.7,8.2h-1.4l-1.3-3.9c-0.3-0.9-0.5-1.7-0.7-2.7h0
			c-0.2,1-0.5,1.8-0.7,2.7l-1.3,3.9h-1.4l-2.5-8.2H299z"/>
		<path class="st1" d="M309.9,375.9c0-0.6,0.4-1.1,1-1.1c0.6,0,1,0.4,1,1.1c0,0.6-0.4,1.1-1,1.1C310.3,377,309.9,376.5,309.9,375.9z
			"/>
		<path class="st1" d="M313.5,375.3c0.4,0.3,1.2,0.6,2,0.6c1.1,0,1.6-0.5,1.6-1.2c0-0.7-0.4-1.1-1.5-1.5c-1.5-0.5-2.2-1.3-2.2-2.3
			c0-1.3,1.1-2.4,2.8-2.4c0.8,0,1.6,0.2,2,0.5l-0.4,1.1c-0.3-0.2-0.9-0.5-1.7-0.5c-0.9,0-1.4,0.5-1.4,1.1c0,0.7,0.5,1,1.6,1.4
			c1.4,0.5,2.2,1.3,2.2,2.5c0,1.4-1.1,2.5-3.1,2.5c-0.9,0-1.7-0.2-2.3-0.6L313.5,375.3z"/>
		<path class="st1" d="M327.4,374.6c0,0.9,0,1.6,0.1,2.2h-1.3l-0.1-1.3h0c-0.4,0.7-1.3,1.5-2.7,1.5c-1.3,0-2.8-0.7-2.8-3.6v-4.8h1.5
			v4.6c0,1.6,0.5,2.6,1.8,2.6c1,0,1.7-0.7,2-1.4c0.1-0.2,0.1-0.5,0.1-0.8v-5h1.5V374.6z"/>
		<path class="st1" d="M329.8,371.1c0-1,0-1.8-0.1-2.6h1.3l0.1,1.6h0.1c0.4-1.1,1.3-1.8,2.3-1.8c0.2,0,0.3,0,0.4,0.1v1.4
			c-0.2,0-0.3-0.1-0.5-0.1c-1.1,0-1.8,0.8-2,1.9c0,0.2-0.1,0.4-0.1,0.7v4.4h-1.5V371.1z"/>
		<path class="st1" d="M339.9,376.8l-0.1-1h-0.1c-0.5,0.6-1.3,1.2-2.5,1.2c-1.7,0-2.5-1.2-2.5-2.4c0-2,1.8-3.1,4.9-3.1v-0.2
			c0-0.7-0.2-1.9-1.9-1.9c-0.8,0-1.6,0.2-2.1,0.6l-0.3-1c0.7-0.4,1.7-0.7,2.7-0.7c2.5,0,3.1,1.7,3.1,3.4v3.1c0,0.7,0,1.4,0.1,2
			H339.9z M339.7,372.6c-1.6,0-3.5,0.3-3.5,1.9c0,1,0.6,1.4,1.4,1.4c1.1,0,1.8-0.7,2-1.4c0.1-0.2,0.1-0.3,0.1-0.5V372.6z"/>
		<path class="st1" d="M343.5,364.7h1.5v5.1h0c0.2-0.4,0.6-0.8,1.1-1.1c0.4-0.3,1-0.4,1.5-0.4c1.1,0,2.9,0.7,2.9,3.5v4.9H349v-4.7
			c0-1.3-0.5-2.4-1.9-2.4c-1,0-1.7,0.7-2,1.5c-0.1,0.2-0.1,0.4-0.1,0.7v5h-1.5V364.7z"/>
		<path class="st1" d="M358.6,375.5L358.6,375.5c-0.5,0.8-1.4,1.5-2.7,1.5c-1.9,0-3.5-1.7-3.5-4.2c0-3.1,2-4.4,3.7-4.4
			c1.3,0,2.1,0.6,2.5,1.4h0l0.1-1.2h1.4c0,0.7-0.1,1.4-0.1,2.3v9.3h-1.5V375.5z M358.6,371.9c0-0.2,0-0.4-0.1-0.6
			c-0.2-0.9-1-1.7-2.1-1.7c-1.5,0-2.5,1.3-2.5,3.2c0,1.6,0.8,3.1,2.4,3.1c1,0,1.8-0.6,2.1-1.6c0.1-0.2,0.1-0.5,0.1-0.7V371.9z"/>
		<path class="st1" d="M369.4,374.6c0,0.9,0,1.6,0.1,2.2h-1.3l-0.1-1.3h0c-0.4,0.7-1.3,1.5-2.7,1.5c-1.3,0-2.8-0.7-2.8-3.6v-4.8h1.5
			v4.6c0,1.6,0.5,2.6,1.8,2.6c1,0,1.7-0.7,2-1.4c0.1-0.2,0.1-0.5,0.1-0.8v-5h1.5V374.6z"/>
		<path class="st1" d="M371.9,371.1c0-1,0-1.8-0.1-2.6h1.3l0.1,1.6h0.1c0.4-1.1,1.3-1.8,2.3-1.8c0.2,0,0.3,0,0.4,0.1v1.4
			c-0.2,0-0.3-0.1-0.5-0.1c-1.1,0-1.8,0.8-2,1.9c0,0.2-0.1,0.4-0.1,0.7v4.4h-1.5V371.1z"/>
		<path class="st1" d="M381.9,376.8l-0.1-1h-0.1c-0.5,0.6-1.3,1.2-2.5,1.2c-1.7,0-2.5-1.2-2.5-2.4c0-2,1.8-3.1,4.9-3.1v-0.2
			c0-0.7-0.2-1.9-1.9-1.9c-0.8,0-1.6,0.2-2.1,0.6l-0.3-1c0.7-0.4,1.7-0.7,2.7-0.7c2.5,0,3.1,1.7,3.1,3.4v3.1c0,0.7,0,1.4,0.1,2
			H381.9z M381.7,372.6c-1.6,0-3.5,0.3-3.5,1.9c0,1,0.6,1.4,1.4,1.4c1.1,0,1.8-0.7,2-1.4c0.1-0.2,0.1-0.3,0.1-0.5V372.6z"/>
		<path class="st1" d="M385.6,370.8c0-0.9,0-1.5-0.1-2.2h1.3l0.1,1.4h0c0.4-0.8,1.4-1.5,2.7-1.5c1.1,0,2.9,0.7,2.9,3.5v4.9h-1.5
			v-4.7c0-1.3-0.5-2.4-1.9-2.4c-1,0-1.8,0.7-2,1.5c-0.1,0.2-0.1,0.4-0.1,0.7v4.9h-1.5V370.8z"/>
		<path class="st1" d="M394.6,375.9c0-0.6,0.4-1.1,1-1.1c0.6,0,1,0.4,1,1.1c0,0.6-0.4,1.1-1,1.1C395,377,394.6,376.5,394.6,375.9z"
			/>
		<path class="st1" d="M404.4,376.5c-0.4,0.2-1.3,0.5-2.4,0.5c-2.5,0-4.1-1.7-4.1-4.2c0-2.5,1.7-4.4,4.4-4.4c0.9,0,1.7,0.2,2.1,0.4
			l-0.3,1.2c-0.4-0.2-0.9-0.4-1.7-0.4c-1.9,0-2.9,1.4-2.9,3.1c0,1.9,1.2,3.1,2.9,3.1c0.8,0,1.4-0.2,1.8-0.4L404.4,376.5z"/>
		<path class="st1" d="M413.5,372.6c0,3-2.1,4.4-4.1,4.4c-2.2,0-3.9-1.6-3.9-4.2c0-2.8,1.8-4.4,4.1-4.4
			C411.9,368.4,413.5,370.1,413.5,372.6z M406.9,372.7c0,1.8,1,3.2,2.5,3.2c1.4,0,2.5-1.3,2.5-3.2c0-1.4-0.7-3.2-2.5-3.2
			S406.9,371.1,406.9,372.7z"/>
		<path class="st1" d="M415.4,370.8c0-0.9,0-1.5-0.1-2.2h1.3l0.1,1.3h0.1c0.5-0.8,1.2-1.5,2.6-1.5c1.1,0,2,0.7,2.3,1.6h0
			c0.3-0.5,0.6-0.8,0.9-1.1c0.5-0.4,1-0.6,1.8-0.6c1.1,0,2.7,0.7,2.7,3.6v4.8h-1.5v-4.7c0-1.6-0.6-2.5-1.8-2.5
			c-0.9,0-1.5,0.6-1.8,1.4c-0.1,0.2-0.1,0.5-0.1,0.7v5.1h-1.5v-4.9c0-1.3-0.6-2.3-1.7-2.3c-0.9,0-1.6,0.7-1.9,1.5
			c-0.1,0.2-0.1,0.5-0.1,0.7v5h-1.5V370.8z"/>
	</g>
</g>
<g id="Layer_4">
	<path class="st1" d="M318.9,111.4c3.1,2.6,4.6,5.7,4.6,9.2c-0.6,1.5-1.2,2.3-1.8,2.3h-0.5l-4.1-3.5h-1.7c-1.3,15.5-3,23.8-5.2,24.7
		c-5.2-11.1-9.2-16.7-12.1-16.7c-4.6-0.7-6.9-2.6-6.9-5.8c0.5-3.8,1.4-5.8,2.8-5.8c4.5,0,9.3,4.8,14.4,14.4l1.7,1.8h1.2v-2.9
		c1.4-11.9,3.5-17.8,6.4-17.8H318.9z M264.8,112.5c2.8,0,5.7,24,8.6,72c1.4,35,4.1,53.8,8.1,56.5c4.9,6.1,13.2,9.2,24.8,9.2
		c19.3,0,36.7-5.4,52.4-16.1v-1.7c-1.5-2.7-3.6-4.1-6.3-4.1l-11,0.6c-7.3,0-10.9-4-10.9-11.9c0-8,4.6-13.8,13.8-17.5h1.2
		c5.4,0,10.8,5.8,16.1,17.3l2.3,9.2c0,12.8-5.2,20.6-15.6,23.7c-16.4,7.7-30.6,11.5-42.6,11.5c-19.5,0-30.8-8.5-34-25.4
		c-1.4-9.3-3.6-37.5-6.4-84.7c-1.1-10.3-2.8-19.9-5.1-28.8C260.1,119.2,261.7,115.9,264.8,112.5z M197.9,113.1h0.5l8.7,20.7l1.2,3.5
		l-0.6,0.6H206l-2.3-1.8h-0.6c0,5.7,2.9,24.3,8.7,55.9l-0.6,0.5v0.6l0.6,3.5l-1.2,13.8h1.2c10.5-9.6,19.9-14.4,28.2-14.4h0.6
		c6.2,0,12.2,2.9,17.8,8.7c1.9,3.1,2.9,5.4,2.9,6.9c-4.2,11.9-8.4,17.8-12.7,17.8c-6.6,3.8-26.1,9.4-58.8,16.7
		c-7,2.1-21.9,12.3-44.9,30.5c-5.1,1.9-9.2,2.9-12.1,2.9c-7.8,0-12.4-6.5-13.8-19.6v-2.3c0-8.9,2.9-17.7,8.7-26.5
		c1.1,0,2.1-1.7,2.8-5.2c-3.1-6.6-4.6-11.8-4.6-15.5c0-10,2.3-21.4,6.9-34h1.8c-2.7,14.5-4.1,24.9-4.1,31.1v0.6
		c0,4.1,1.7,7.4,5.2,9.8h1.2c1.1,0,2.5-2.3,4-6.9h1.2l0.6,2.9c0,6.7-2.9,11.4-8.7,14.4c-8,10.4-12.1,21-12.1,31.7v0.5
		c0.9,6.6,4,9.8,9.2,9.8c7.7,0,19.3-6.7,34.6-20.2c14.5-8.4,22.4-13.4,23.6-15l15.6-17.3l1.2-8.6c0-9.6-4-38.6-12.1-87.1
		C195.3,116.1,196.6,113.1,197.9,113.1z M237.6,113.1h0.6l-4.1,24.8v7.5c0,3.5,1.5,6.2,4.6,8.1c3.1-0.3,4.6-2.4,4.6-6.3h1.8l0.5,1.7
		c-1.7,9.2-4.2,13.8-7.5,13.8c-5.8-1.8-8.7-7.9-8.7-18.4C232.9,123.4,235.6,113.1,237.6,113.1z M169.6,115.4h1.8
		c2.7,1.4,4,4.1,4,8.1l-0.5,2.3h-1.2l-4.6-3.5h-0.6c-1.7,0-2.6,7.1-2.8,21.4c-0.5,0-1.1,2.3-1.8,6.9l-0.5,0.5h-0.6
		c-5.9-10-10.3-15.2-13.2-15.5c-2.8,8.7-7.1,14.9-13.1,18.6c-6,3.7-9.7,5.6-11.1,5.6v-0.6c13.8-11.8,20.7-19.5,20.7-23.1v-0.5
		l-5.8-5.8v-0.6c0-4.6,0.9-6.9,2.8-6.9c2.7,0,9.2,5.8,19.6,17.3h0.6v-2.8C163.3,124.9,165.4,117.8,169.6,115.4z M513.1,115.4
		c2.6,0,4.3,2.3,5.2,6.9c-0.8,1.7-1.5,2.7-2.3,2.9c-2.6-1.9-4.5-2.9-5.8-2.9c-2.3,0-3.5,3.3-3.5,9.8l0.5,0.5
		c-0.6,12.4-1.8,18.9-3.5,19.6c-5.8-11.1-11.4-16.7-16.7-16.7l-4.1-4.1v-1.7c0-2.5,0.8-4.3,2.3-5.2c4.3,0.7,10,5.7,17.3,15l1.2-1.2
		v-5.1C504.6,121.3,507.6,115.4,513.1,115.4z M553.4,116.5h2.9c2.3,0,3.6,5.6,4,16.7c2.7,2.4,4.1,4.7,4.1,6.9l-0.6,1.7h-0.5
		l-6.4-2.3c-15.6,15.3-29.6,24.7-42,28.3h-2.3c1.6-1.8,11.2-8.1,28.8-19.1c6.4-5,10.2-8.4,11.5-10.4v-2.3c-3.8-2-5.8-4.5-5.8-7.5
		C547.1,123.8,549.2,119.8,553.4,116.5z M386.9,117.1h2.3c1.1,0,2.1,2.1,2.8,6.3l-0.5,9.8c2.8,2,4.7,4.3,5.8,6.9l-1.8,2.8
		c-3.4-2.3-5.9-3.5-7.5-3.5c-11.9,11.7-22.1,18.6-30.6,20.7h-1.2v-0.5l24.2-17.3c2.3-2.9,3.5-5,3.5-6.4c-2.3-2.9-3.5-5.4-3.5-7.5
		v-1.2C380.5,123.6,382.7,120.2,386.9,117.1z M464.1,118.8l0.5,0.6v0.5c0,3.3-9,9.7-27,19.1c-16.1,10-24.8,15-26,15l-0.5-1.8
		c0-2.9,6.5-7.7,19.6-14.4C450.2,125.8,461.3,119.4,464.1,118.8z M550,126.4l5.8,4.6l1.2-1.2v-2.3c0-2.1-0.9-3.6-2.8-4.6h-1.2
		C550.9,123.8,550,125,550,126.4z M384,125.7c0,2.1,1.2,3.6,3.5,4.6l1.2-1.2v-3.5l-1.7-1.7h-1.2L384,125.7z M373.1,124.6l0.5,0.6
		v0.5c0,4.8-7.1,9.6-21.3,14.4c-30.2,14.9-50.6,26.2-61.1,34l-1.2,3.5c4.2,3.6,6.3,6.3,6.3,8.1l-1.2,5.2h-1.2
		c-5.1-2.5-8.1-5.4-9.2-8.7c0-11.2,8.3-20.2,24.8-27C333.7,141.8,354.9,131.6,373.1,124.6z M471.1,153.4v1.2l-2.3,10.4
		c1.4,5.8,3,8.7,4.6,8.7h0.5c1.1,0,2-1.7,2.9-5.2h1.2v0.6c0,5.5-1.7,9.4-5.2,11.5c-3.2,0-5.5-3.7-6.9-11
		C465.8,164.5,467.6,159.1,471.1,153.4z M186.4,156.9v1.2l-1.8,11.5c0,2.6,1.2,5.1,3.5,7.5c1.9-0.8,2.9-1.9,2.9-3.5h0.5l0.6,0.5v1.2
		c-1,5.8-2.2,8.7-3.5,8.7h-0.6c-2.9,0-5-2.9-6.3-8.7C183.2,163,184.7,156.9,186.4,156.9z M556.3,158h1.2v1.2
		c-1.5,2.5-2.3,4.4-2.3,5.8v5.2c0,3,0.9,4.9,2.8,5.8h0.6l3.5-2.9h0.5v1.2c0,2.9-1.7,5.6-5.1,8.1c-3.5-1.2-5.2-4.4-5.2-9.8v-0.6
		C552.3,168.3,553.6,163.7,556.3,158z M396.1,158.6h1.2c5.4,3.4,8.1,6.1,8.1,8.3c0,2.1-1.5,4.9-4.6,8.4l-7.5-5.8h-1.2l-4.6,6.9h-1.2
		v0.6c-5.8-3.2-8.9-6.1-9.2-8.7v-0.5c1.8-4.6,3.5-6.9,5.2-6.9c4.1,2.7,6.8,4,8.1,4L396.1,158.6z M430.7,170.1l12.1,12.7v1.7
		l-0.5,0.6h-3.5v0.5l9.2,18.4l0.5,3.5c0,12.3-4.6,21.2-13.8,26.5c-2.2,2.1-3.5,5.6-4,10.4c0,10.1,5.4,16.3,16.1,18.4h6.9
		c10.7,0,25.5-10.4,44.3-31.1l1.8-3.5l-1.8-2.3l-16.7,2.9c-7.2,0-11.3-4.4-12.1-13.3c3.1-11.5,7.9-17.3,14.4-17.3
		c4.9,0,10.9,4.4,17.8,13.3c3,0,9.6-4,19.6-12.1h2.3c0.3,2.3,0.6,3.5,1.2,3.5l-0.5,2.9v0.5c0,5.1,3.8,8.4,11.5,9.8h0.5
		c9.6,0,16.7-6,21.4-17.9l2.3-1.7h0.5v1.2h0.6l-2.3,6.3v1.8c3.2,3.8,6.6,5.8,10.4,5.8h4.6l1.7-1.8v-0.5l-2.8-6.9
		c1.4-5.4,2.5-8.1,3.5-8.1c2.9,3.3,4.6,7.7,5.1,13.2c0,9.3-4,14.6-12.1,16.1c-5.1-0.4-10.1-3.1-15-8.1c-5.8,7.7-12.1,11.5-19.1,11.5
		c-7.9,0-12.9-4.2-15-12.7l-0.5-1.7c-5.7,2.2-10.6,6-14.4,11.5c0,13.9-11.7,28.5-35.1,43.8c-6.7,4.2-13.4,6.3-20.2,6.3
		c-10.3,0-17.6-5.8-21.9-17.3l-0.5-7.5l0.5-7.5l-1.7-0.5c-25.5,17.3-43.3,25.9-53.6,25.9l-23.6,5.2v-1.2c2.3-1.7,13.2-6.5,32.8-14.4
		c17.3-9,35.5-20.9,54.8-35.7c3.6-3.1,5.9-5.6,6.9-7.5v-1.2c0-1.7-4-9.6-12.1-23.7l-3.5-10.4C428.8,173,429.8,170.1,430.7,170.1z
		 M339.1,173c3.8,0.8,7.1,2.9,9.8,6.4v1.7c-0.9,2.3-2.7,4.4-5.2,6.4c-4-1.9-6.9-4-8.6-6.4v-1.2C336.3,175.3,337.6,173,339.1,173z
		 M405.9,179.4h1.8c0,5.9-3.1,12.9-9.2,20.7c0,1.6,2.7,4.5,8.1,8.6c2.3,4.5,3.5,7.4,3.5,8.7c0,11.4-7.1,19.2-21.4,23.6
		c-4.8,0-7.7-3.3-8.6-9.8c0-7.3,1.9-15.2,5.8-23.7c-10.8-8.6-16.1-14.9-16.1-19V188c0-3.1,0.8-4.6,2.3-4.6c9.3,3,14.3,5.3,15,6.9
		l-2.3,2.9c2.4,3.1,4.7,4.6,6.9,4.6C397.3,192.2,402.1,186.1,405.9,179.4z M164.5,193.2l0.5,0.5v0.6c-1.5,3.4-2.3,7-2.3,10.9v1.8
		c0,3.2,1.4,5.7,4.1,7.5h0.5c1.2,0,1.8-0.8,1.8-2.3h1.7v0.6c0,3.2-1.3,6.1-4,8.6c-3.5,0-6-3.6-7.5-10.9
		C161.3,199,163,193.2,164.5,193.2z M305.6,201.8h1.2v0.6l-1.7,13.2v2.3c0,2.6,1.3,4.7,4,6.4l3.5-3.5l1.2,1.2
		c-1.9,6.5-3.6,9.8-5.1,9.8c-4.6-1.9-6.9-5.4-6.9-10.4v-2.3C301.6,216.8,303,211,305.6,201.8z M197.9,233.5h1.2
		c7.3,0,23.8-4.2,49.6-12.7c3.1-1.8,4.6-3.3,4.6-4.6c0-3.1-5-6.1-15-9.2c-11.8,0-23.7,6.7-35.7,20.1
		C199.4,229.4,197.9,231.5,197.9,233.5z M476.8,213.9v0.5c0.4,1.5,2.8,2.3,7.2,2.3s6.6-0.6,6.6-1.7c-2.3-2.7-4.4-4.1-6.4-4.1h-4.6
		L476.8,213.9z M337.4,215.6c1.4,1.2,2.7,1.8,4,1.8h4.6l4.1-0.6v-1.2c-1.9-2.7-4-4-6.4-4h-3.5C338.3,212.8,337.4,214.1,337.4,215.6z
		 M384.6,221.4v5.2l2.8,2.8c6.3,0,11.9-3.1,16.7-9.2c0-2.5-4.2-5.4-12.7-8.6C389.8,212.2,387.5,215.5,384.6,221.4z M567.2,237
		l0.6,1.7c-2.3,8.1-5.2,12.1-8.7,12.1c-1.5-0.8-3.6-1.2-6.3-1.2c0,0.8-2.1,1.9-6.4,3.5l-6.9-2.3h-1.2c-2.7,0-9.4,3.8-20.1,11.5
		c-4.5,2.7-8.2,4-11,4h-0.5v-0.5l29.4-19.6l4.6-1.8l8.1,2.9c2.2-0.5,4.8-2.6,8.1-6.4c1.7,2.3,3.5,3.5,5.2,3.5c1.1,0,2.5-2.5,4-7.5
		H567.2z M260.7,246.2v1.7c0,3.9-11.3,9.9-34,17.9c-3.1,2.3-6,3.5-8.7,3.5h-0.5l-0.6-1.8c0-2.8,6.7-6.6,20.2-11.5L260.7,246.2z
		 M192.1,258.9l1.7,0.5v0.6c0,3.6-4.6,6.7-13.8,9.2c-5.2,2.7-8.5,4-9.8,4h-0.6c0-4.1,4.2-7.4,12.7-9.8L192.1,258.9z M192.7,269.3
		l1.2,1.2c0,3.1-7.9,7.3-23.6,12.7l-0.6,0.5h-1.2v-1.2C168.5,279,176.5,274.6,192.7,269.3z"/>
</g>
</svg>
