<?xml version="1.0" encoding="utf-8"?>
<!-- Generator: Adobe Illustrator 25.2.3, SVG Export Plug-In . SVG Version: 6.00 Build 0)  -->
<svg version="1.1" xmlns="http://www.w3.org/2000/svg" xmlns:xlink="http://www.w3.org/1999/xlink" x="0px" y="0px"
	 viewBox="0 0 700 395" style="enable-background:new 0 0 700 395;" xml:space="preserve">
<style type="text/css">
	.st0{fill:#000222;}
	.st1{fill:#FFFFFF;}
</style>
<g id="Layer_1">
	<rect class="st0" width="700" height="395"/>
</g>
<g id="Layer_3">
	<g>
		<path class="st1" d="M273.5,368.6l1.1,4.2c0.2,0.9,0.5,1.8,0.6,2.6h0.1c0.2-0.8,0.5-1.7,0.7-2.6l1.3-4.2h1.3l1.3,4.1
			c0.3,1,0.5,1.9,0.7,2.7h0.1c0.1-0.8,0.4-1.7,0.6-2.7l1.2-4.1h1.5l-2.7,8.2H280l-1.3-3.9c-0.3-0.9-0.5-1.7-0.7-2.7h0
			c-0.2,1-0.5,1.8-0.7,2.7l-1.3,3.9h-1.4l-2.5-8.2H273.5z"/>
		<path class="st1" d="M286.3,368.6l1.1,4.2c0.2,0.9,0.5,1.8,0.6,2.6h0.1c0.2-0.8,0.5-1.7,0.7-2.6l1.3-4.2h1.3l1.3,4.1
			c0.3,1,0.5,1.9,0.7,2.7h0.1c0.1-0.8,0.4-1.7,0.6-2.7l1.2-4.1h1.5l-2.7,8.2h-1.4l-1.3-3.9c-0.3-0.9-0.5-1.7-0.7-2.7h0
			c-0.2,1-0.5,1.8-0.7,2.7l-1.3,3.9h-1.4l-2.5-8.2H286.3z"/>
		<path class="st1" d="M299,368.6l1.1,4.2c0.2,0.9,0.5,1.8,0.6,2.6h0.1c0.2-0.8,0.5-1.7,0.7-2.6l1.3-4.2h1.3l1.3,4.1
			c0.3,1,0.5,1.9,0.7,2.7h0.1c0.1-0.8,0.4-1.7,0.6-2.7l1.2-4.1h1.5l-2.7,8.2h-1.4l-1.3-3.9c-0.3-0.9-0.5-1.7-0.7-2.7h0
			c-0.2,1-0.5,1.8-0.7,2.7l-1.3,3.9h-1.4l-2.5-8.2H299z"/>
		<path class="st1" d="M309.9,375.9c0-0.6,0.4-1.1,1-1.1c0.6,0,1,0.4,1,1.1c0,0.6-0.4,1.1-1,1.1C310.3,377,309.9,376.5,309.9,375.9z
			"/>
		<path class="st1" d="M313.5,375.3c0.4,0.3,1.2,0.6,2,0.6c1.1,0,1.6-0.5,1.6-1.2c0-0.7-0.4-1.1-1.5-1.5c-1.5-0.5-2.2-1.3-2.2-2.3
			c0-1.3,1.1-2.4,2.8-2.4c0.8,0,1.6,0.2,2,0.5l-0.4,1.1c-0.3-0.2-0.9-0.5-1.7-0.5c-0.9,0-1.4,0.5-1.4,1.1c0,0.7,0.5,1,1.6,1.4
			c1.4,0.5,2.2,1.3,2.2,2.5c0,1.4-1.1,2.5-3.1,2.5c-0.9,0-1.7-0.2-2.3-0.6L313.5,375.3z"/>
		<path class="st1" d="M327.4,374.6c0,0.9,0,1.6,0.1,2.2h-1.3l-0.1-1.3h0c-0.4,0.7-1.3,1.5-2.7,1.5c-1.3,0-2.8-0.7-2.8-3.6v-4.8h1.5
			v4.6c0,1.6,0.5,2.6,1.8,2.6c1,0,1.7-0.7,2-1.4c0.1-0.2,0.1-0.5,0.1-0.8v-5h1.5V374.6z"/>
		<path class="st1" d="M329.8,371.1c0-1,0-1.8-0.1-2.6h1.3l0.1,1.6h0.1c0.4-1.1,1.3-1.8,2.3-1.8c0.2,0,0.3,0,0.4,0.1v1.4
			c-0.2,0-0.3-0.1-0.5-0.1c-1.1,0-1.8,0.8-2,1.9c0,0.2-0.1,0.4-0.1,0.7v4.4h-1.5V371.1z"/>
		<path class="st1" d="M339.9,376.8l-0.1-1h-0.1c-0.5,0.6-1.3,1.2-2.5,1.2c-1.7,0-2.5-1.2-2.5-2.4c0-2,1.8-3.1,4.9-3.1v-0.2
			c0-0.7-0.2-1.9-1.9-1.9c-0.8,0-1.6,0.2-2.1,0.6l-0.3-1c0.7-0.4,1.7-0.7,2.7-0.7c2.5,0,3.1,1.7,3.1,3.4v3.1c0,0.7,0,1.4,0.1,2
			H339.9z M339.7,372.6c-1.6,0-3.5,0.3-3.5,1.9c0,1,0.6,1.4,1.4,1.4c1.1,0,1.8-0.7,2-1.4c0.1-0.2,0.1-0.3,0.1-0.5V372.6z"/>
		<path class="st1" d="M343.5,364.7h1.5v5.1h0c0.2-0.4,0.6-0.8,1.1-1.1c0.4-0.3,1-0.4,1.5-0.4c1.1,0,2.9,0.7,2.9,3.5v4.9H349v-4.7
			c0-1.3-0.5-2.4-1.9-2.4c-1,0-1.7,0.7-2,1.5c-0.1,0.2-0.1,0.4-0.1,0.7v5h-1.5V364.7z"/>
		<path class="st1" d="M358.6,375.5L358.6,375.5c-0.5,0.8-1.4,1.5-2.7,1.5c-1.9,0-3.5-1.7-3.5-4.2c0-3.1,2-4.4,3.7-4.4
			c1.3,0,2.1,0.6,2.5,1.4h0l0.1-1.2h1.4c0,0.7-0.1,1.4-0.1,2.3v9.3h-1.5V375.5z M358.6,371.9c0-0.2,0-0.4-0.1-0.6
			c-0.2-0.9-1-1.7-2.1-1.7c-1.5,0-2.5,1.3-2.5,3.2c0,1.6,0.8,3.1,2.4,3.1c1,0,1.8-0.6,2.1-1.6c0.1-0.2,0.1-0.5,0.1-0.7V371.9z"/>
		<path class="st1" d="M369.4,374.6c0,0.9,0,1.6,0.1,2.2h-1.3l-0.1-1.3h0c-0.4,0.7-1.3,1.5-2.7,1.5c-1.3,0-2.8-0.7-2.8-3.6v-4.8h1.5
			v4.6c0,1.6,0.5,2.6,1.8,2.6c1,0,1.7-0.7,2-1.4c0.1-0.2,0.1-0.5,0.1-0.8v-5h1.5V374.6z"/>
		<path class="st1" d="M371.9,371.1c0-1,0-1.8-0.1-2.6h1.3l0.1,1.6h0.1c0.4-1.1,1.3-1.8,2.3-1.8c0.2,0,0.3,0,0.4,0.1v1.4
			c-0.2,0-0.3-0.1-0.5-0.1c-1.1,0-1.8,0.8-2,1.9c0,0.2-0.1,0.4-0.1,0.7v4.4h-1.5V371.1z"/>
		<path class="st1" d="M381.9,376.8l-0.1-1h-0.1c-0.5,0.6-1.3,1.2-2.5,1.2c-1.7,0-2.5-1.2-2.5-2.4c0-2,1.8-3.1,4.9-3.1v-0.2
			c0-0.7-0.2-1.9-1.9-1.9c-0.8,0-1.6,0.2-2.1,0.6l-0.3-1c0.7-0.4,1.7-0.7,2.7-0.7c2.5,0,3.1,1.7,3.1,3.4v3.1c0,0.7,0,1.4,0.1,2
			H381.9z M381.7,372.6c-1.6,0-3.5,0.3-3.5,1.9c0,1,0.6,1.4,1.4,1.4c1.1,0,1.8-0.7,2-1.4c0.1-0.2,0.1-0.3,0.1-0.5V372.6z"/>
		<path class="st1" d="M385.6,370.8c0-0.9,0-1.5-0.1-2.2h1.3l0.1,1.4h0c0.4-0.8,1.4-1.5,2.7-1.5c1.1,0,2.9,0.7,2.9,3.5v4.9h-1.5
			v-4.7c0-1.3-0.5-2.4-1.9-2.4c-1,0-1.8,0.7-2,1.5c-0.1,0.2-0.1,0.4-0.1,0.7v4.9h-1.5V370.8z"/>
		<path class="st1" d="M394.6,375.9c0-0.6,0.4-1.1,1-1.1c0.6,0,1,0.4,1,1.1c0,0.6-0.4,1.1-1,1.1C395,377,394.6,376.5,394.6,375.9z"
			/>
		<path class="st1" d="M404.4,376.5c-0.4,0.2-1.3,0.5-2.4,0.5c-2.5,0-4.1-1.7-4.1-4.2c0-2.5,1.7-4.4,4.4-4.4c0.9,0,1.7,0.2,2.1,0.4
			l-0.3,1.2c-0.4-0.2-0.9-0.4-1.7-0.4c-1.9,0-2.9,1.4-2.9,3.1c0,1.9,1.2,3.1,2.9,3.1c0.8,0,1.4-0.2,1.8-0.4L404.4,376.5z"/>
		<path class="st1" d="M413.5,372.6c0,3-2.1,4.4-4.1,4.4c-2.2,0-3.9-1.6-3.9-4.2c0-2.8,1.8-4.4,4.1-4.4
			C411.9,368.4,413.5,370.1,413.5,372.6z M406.9,372.7c0,1.8,1,3.2,2.5,3.2c1.4,0,2.5-1.3,2.5-3.2c0-1.4-0.7-3.2-2.5-3.2
			S406.9,371.1,406.9,372.7z"/>
		<path class="st1" d="M415.4,370.8c0-0.9,0-1.5-0.1-2.2h1.3l0.1,1.3h0.1c0.5-0.8,1.2-1.5,2.6-1.5c1.1,0,2,0.7,2.3,1.6h0
			c0.3-0.5,0.6-0.8,0.9-1.1c0.5-0.4,1-0.6,1.8-0.6c1.1,0,2.7,0.7,2.7,3.6v4.8h-1.5v-4.7c0-1.6-0.6-2.5-1.8-2.5
			c-0.9,0-1.5,0.6-1.8,1.4c-0.1,0.2-0.1,0.5-0.1,0.7v5.1h-1.5v-4.9c0-1.3-0.6-2.3-1.7-2.3c-0.9,0-1.6,0.7-1.9,1.5
			c-0.1,0.2-0.1,0.5-0.1,0.7v5h-1.5V370.8z"/>
	</g>
</g>
<g id="Layer_4">
	<path class="st1" d="M481.9,110.2h1.3c2.9,1.7,4.4,4.3,4.4,7.6v1.3l-1.9,1.9H485l-4.4-3.8h-1.3c-2.1,1.2-3.2,2.5-3.2,3.8
		c-0.5,19.8-1.8,29.7-3.8,29.7c-6.3-11.4-11.1-17-14.5-17c-5.5-2-8.3-4.5-8.3-7.6v-1.3c0.3-2.5,0.9-3.8,1.9-3.8h1.3
		c4.6,0.2,10.7,5.6,18.3,16.4l1.3-1.3V133C473.2,117.8,476.4,110.2,481.9,110.2z M528.7,110.9c3.2,0,5.3,6.7,6.3,20.2
		c0.9,0,2.2,1.9,3.8,5.6c-0.7,1.7-1.3,2.5-1.9,2.5h-0.6c-2.3-1.7-4.2-2.5-5.7-2.5c-20,18.6-35.8,28.9-47.4,31v-1.9
		c19.8-11,34.2-21.3,43-30.9v-0.7c-4.2-3.4-6.3-6.7-6.3-10.1C521.5,115.3,524.4,110.9,528.7,110.9z M344,111.5c2.5,0,4.2,2.3,5.1,7
		l-0.7,11.4c3.7,2.4,5.8,4.9,6.3,7.6c-0.6,2.1-1.2,3.1-1.9,3.1c-4.1-2.9-6.9-4.4-8.3-4.4c-0.7,0-3.5,3-8.2,8.9
		c-7.5,6.5-14.7,10.9-21.5,13.2l-0.7-0.6v-1.3c12.9-9.2,21.5-16.4,26-21.5v-0.7l-3.8-9.4C336.4,119.8,339,115.3,344,111.5z
		 M196,113.4c3.5,0,6.1,3,7.6,8.9l-1.9,2.5h-1.3l-4.4-3.2h-1.9c-1.1,0-2.4,7.8-3.8,23.4l-0.6,0.6c-0.3,3-0.9,4.5-1.9,4.5
		c-4.8-10.8-8.6-17.2-11.4-19h-1.3c-5.9,11.8-11.6,17.7-17,17.7v-0.7c0.8-1.7,5-6.8,12.6-15.2v-2.5l-5.1-6.3c1-4.6,2.1-6.9,3.1-6.9
		c5,0,11.3,6.7,19,20.2c0.8,0,1.7-4.6,2.5-13.9C192.7,116.8,194.6,113.4,196,113.4z M428.1,113.4l0.7,0.6v1.3c0,3.5-8.9,9.9-26.6,19
		l-29.1,18.4h-1.9v-1.9c0-3.4,9.7-10.3,29.1-20.8C417.1,119.2,426.4,113.7,428.1,113.4z M288.4,114c1.7,0,2.5,1.1,2.5,3.2h0.6
		c-2.1,11-3.5,16.4-4.4,16.4h-0.7l1.3-11.4h-2.5c-17.7,11-33.7,16.4-48.1,16.4l-6.3-0.7c-0.8,1.1-1.5,3.2-1.9,6.3h-0.7l-6.3-10.7
		c0.8-3.4,1.7-5.1,2.5-5.1h0.7l10.7,1.9h5.1c12.7,0,27.5-5.1,44.3-15.2C285.2,114.6,286.2,114.1,288.4,114z M522.9,122.3l5.1,4.4
		h2.5v-3.1c0-3.4-1.5-5.1-4.4-5.1C524,119.2,522.9,120.4,522.9,122.3z M342.1,119.1l-1.9,2.5v1.3l3.1,3.2h1.9V121
		C345.3,120.1,344.2,119.4,342.1,119.1z M264.9,154.5h1.9c2.9,1.3,4.4,3.8,4.4,7.6l-0.6,3.2h-1.3l-3.8-2.5h-1.3
		c-1.6,0-2.9,8.6-3.8,25.9l-0.7,0.7c0,1.2-0.4,1.9-1.3,1.9c-3.8-10.5-8.4-15.8-13.9-15.8c-3.4,0-5.7-1.9-6.9-5.7
		c0.6-4.2,1.9-6.3,3.8-6.3c3,0.1,8.5,4.5,16.4,13.3h0.6C259.9,162.9,262,155.5,264.9,154.5z M434.4,155.8l-0.6,7.6v3.2
		c0,2.5,1.3,4.6,3.8,6.3h2.5c0.7,0,1.5-1.5,2.5-4.5h0.6l0.7,0.7c0,5.7-2.1,9.7-6.3,12c-4.7-1.6-7-5.6-7-12
		C431.7,160.2,433,155.8,434.4,155.8z M353.5,157.7c3,0,6.6,3,10.8,8.9c-1.3,3.5-3,6.3-5.1,8.2c-1.5,0-4.6-1.9-9.5-5.6h-1.3
		c-2.4,5.1-4.3,7.6-5.6,7.6c-6.7-2.4-10.1-5.4-10.1-8.9c1.8-4.6,3.5-7.1,5.1-7.6h1.3c3.7,2.9,6.8,4.4,9.4,4.4
		C349.1,161.8,350.8,159.5,353.5,157.7z M530.5,157.7v1.3c-1.7,3-2.5,5.9-2.5,8.9c0.7,5.1,1.8,7.6,3.2,7.6h1.9l3.2-2.5h0.6
		c0,3.8-1.9,7.1-5.6,10.1c-3.8-1.1-5.7-4.1-5.7-8.9v-1.9C525.5,166.9,527.2,162,530.5,157.7z M192.8,159h0.7
		c-1.7,3.5-3.2,8.5-4.5,15.2c0.3,7.1,1.8,10.7,4.5,10.7l4.4-3.8v0.7c0,4.3-1.7,8.1-5.1,11.4c-4,0-6.3-3.8-6.9-11.4
		C188.4,166.6,190.7,159,192.8,159z M298.5,161.5c7.5,9.2,11.5,15.3,12,18.3h-4.4v1.3c4.6,12.6,6.9,20.6,6.9,24v1.3
		c0,13.5-4.6,20.2-13.9,20.2c-4.9,0-9.9-2.3-15.2-6.9h-0.6c-3.9,7.6-8.5,11.4-13.9,11.4c-3.4,0-6.8-2.5-10.1-7.6H258
		c-6.5,5.1-12.4,7.6-17.7,7.6v1.3c0,17.4-5.9,28.6-17.7,33.5c-9.5,7.9-23,13.6-40.5,17.1h-10.8c-8.5,0-15.9-4-22.1-12.1
		c-3.4-5.8-5.1-11.7-5.1-17.7c0-3.1,1.9-12.6,5.6-28.4v-1.3c-3.1-3.3-5.3-8.5-6.3-15.9c0-10.5,3.2-24.4,9.5-41.7h1.3v0.7
		c-4.2,19.3-6.3,30.9-6.3,34.7v1.3c0,5.3,2.3,10,6.9,13.9c3-1.8,4.5-4.8,4.5-8.9h0.6l1.3,1.3c0,8.9-2.5,15-7.6,18.4
		c-2.5,5.6-3.8,10.4-3.8,14.5v8.9c0,11.1,8,17.9,24,20.2h8.3c12.9,0,29.4-7.4,49.3-22.1c2.9-3.2,4.4-5.7,4.4-7.6
		c0-4.9-3-13.4-8.9-25.3l1.9-9.5h0.6c5.8,8,9.2,12.1,10.1,12.1h1.3c9.6,0,17.6-4,24-12.1h0.7l-0.7,6.3c1,4.2,3.1,6.3,6.3,6.3h1.9
		c3.9,0,8.3-5.3,13.2-15.8h1.3c0,8,5.7,12,17.1,12c2.1-0.7,3.1-1.9,3.1-3.8l-12.6-37.9l-0.6-2.5
		C295.9,164.6,297.2,161.5,298.5,161.5z M392.1,170.3c8.8,8.5,13.2,13.3,13.2,14.5c-1,0.8-2.4,1.3-4.4,1.3v1.9
		c6.3,12.4,9.4,19.3,9.4,20.8l0.7,5.7c0,10.2-5.7,19.6-17.1,28.4l-1.9,11.4c3.5,11.8,9.2,17.7,17,17.7h6.3
		c13.3,0,30.4-11.6,51.3-34.7l1.3-3.2l-1.9-2.5l-17,3.2c-8.6,0-13.5-4-14.6-12.1v-1.3c0-10.2,5.1-16.9,15.2-20.2
		c5.3,0,12,4.9,20.2,14.6h1.9c6.1-3.3,12.6-7.7,19.6-13.3h0.7c1.7,0.4,2.5,1.7,2.5,3.8l-0.7,4.5c2.6,6.7,6.9,10.1,12.6,10.1h5.1
		c6.8,0,13.5-7,20.2-20.9h1.9v1.3l-1.9,7.6c3,4.7,6.8,7,11.4,7h5.7l1.9-1.9l-3.1-8.2l1.9-8.3h2.5c3,6.6,4.5,11.6,4.5,15.2
		c-1.6,11-6.2,16.4-13.9,16.4c-5.6-1.2-10.6-4.1-15.2-8.9h-0.7c-6.1,8.4-13.1,12.6-21,12.6c-7.8,0-13.7-5.3-17.6-15.8h-0.7
		c-9.7,6.1-14.5,11.1-14.5,15.2c0,10.5-7.4,21.6-22.2,33.5c-14.3,12.6-27.2,19-38.7,19c-11.4,0-19.2-6.7-23.3-20.2l-0.6-4.4l0.6-8.3
		v-3.1h-0.6c-3.5,1.3-12.1,6.6-26,15.8c-9.7,6.7-29.5,12.9-59.4,18.4l-0.6-0.7v-0.6l43.6-20.2c19.8-11.4,35.7-21.5,47.5-30.4
		c8-6.5,12-11.1,12-13.9v-0.7c0-1.3-4-9.5-12-24.6l-3.8-12.6C389.9,173.3,390.8,170.3,392.1,170.3z M366.1,179.8h0.7
		c0,6.4-3.6,14.4-10.8,24v1.3c8.9,6.3,13.3,12,13.3,17.1c0,12.6-8,21.3-24,25.9c-6.4,0-9.5-3.7-9.5-11s1.9-15.5,5.7-24.4v-1.3
		c-11-9.7-16.4-16-16.4-19v-0.6l1.3-7.6c11.4,4.2,17,7.2,17,8.9c0,0.8-0.8,1.3-2.5,1.3v1.9l5.7,4.5h2.5L366.1,179.8z M196.6,200
		l0.7,1.9c-2.5,12.4-3.8,21-3.8,25.9c1.7,6.4,3.4,9.5,5.1,9.5h1.3c0.9,0,2.2-2.3,3.8-7h1.3v1.3h0.6c-1.9,10.6-4.2,15.9-6.9,15.9
		c-4,0-7.2-4.9-9.5-14.6C192.3,211,194.8,200,196.6,200z M442,219c0,1.7,2.5,2.5,7.6,2.5h3.8c2.2,0,3.5-0.6,3.8-1.9V219
		c-0.1-0.8-2-2.1-5.6-3.8h-5.7L442,219z M340.2,231.1c0.6,2.5,2.1,3.8,4.4,3.8h2.5c5.1,0,10.3-3.2,15.9-9.5
		c-0.6-2.4-5.1-5.6-13.3-9.4h-1.9C342.7,221.6,340.2,226.6,340.2,231.1z M540.1,243.7h0.6l1.3,1.3c-1.7,9.3-4.6,13.9-8.9,13.9
		l-5.6-1.3l-8.3,3.8l-8.2-2.5h-0.7c-3.1,0-10.3,4-21.5,12c-4.3,2.9-8.1,4.4-11.4,4.5h-1.3c18.4-13.4,30.2-21.2,35.4-23.4h1.9
		l6.3,2.5h1.9c2.6,0,5.3-2.1,8.3-6.3l3.1,3.2h3.2C537.3,251.3,538.5,248.8,540.1,243.7z M259.9,244.3h0.7v0.7l-1.3,9.4v4.5
		c0,3.3,1,5.4,3.1,6.3h0.7l3.8-4.5l0.6,0.7h0.7c-2,7.3-3.9,11.1-5.7,11.4h-1.9c-3.4-2.2-5.1-5.6-5.1-10.1S256.9,252.1,259.9,244.3z
		 M297.2,248.1l10.7,7l6.3-6.3c3.2,0,6.8,3.4,10.8,10.1v0.6c0,1.7-1.9,4-5.7,7c-1.5,0-4.8-2.3-10.1-7h-1.3c-2.3,3.9-4,6-5.1,6.3H301
		c-6.4-5.1-9.5-8.2-9.5-9.4C293.7,250.8,295.6,248.1,297.2,248.1z"/>
</g>
</svg>
