<?xml version="1.0" encoding="utf-8"?>
<!-- Generator: Adobe Illustrator 25.2.3, SVG Export Plug-In . SVG Version: 6.00 Build 0)  -->
<svg version="1.1" xmlns="http://www.w3.org/2000/svg" xmlns:xlink="http://www.w3.org/1999/xlink" x="0px" y="0px"
	 viewBox="0 0 700 395" style="enable-background:new 0 0 700 395;" xml:space="preserve">
<style type="text/css">
	.st0{fill:#000222;}
	.st1{fill:#FFFFFF;}
</style>
<g id="Layer_1">
	<rect class="st0" width="700" height="395"/>
</g>
<g id="Layer_3">
	<g>
		<path class="st1" d="M273.5,368.6l1.1,4.2c0.2,0.9,0.5,1.8,0.6,2.6h0.1c0.2-0.8,0.5-1.7,0.7-2.6l1.3-4.2h1.3l1.3,4.1
			c0.3,1,0.5,1.9,0.7,2.7h0.1c0.1-0.8,0.4-1.7,0.6-2.7l1.2-4.1h1.5l-2.7,8.2H280l-1.3-3.9c-0.3-0.9-0.5-1.7-0.7-2.7h0
			c-0.2,1-0.5,1.8-0.7,2.7l-1.3,3.9h-1.4l-2.5-8.2H273.5z"/>
		<path class="st1" d="M286.3,368.6l1.1,4.2c0.2,0.9,0.5,1.8,0.6,2.6h0.1c0.2-0.8,0.5-1.7,0.7-2.6l1.3-4.2h1.3l1.3,4.1
			c0.3,1,0.5,1.9,0.7,2.7h0.1c0.1-0.8,0.4-1.7,0.6-2.7l1.2-4.1h1.5l-2.7,8.2h-1.4l-1.3-3.9c-0.3-0.9-0.5-1.7-0.7-2.7h0
			c-0.2,1-0.5,1.8-0.7,2.7l-1.3,3.9h-1.4l-2.5-8.2H286.3z"/>
		<path class="st1" d="M299,368.6l1.1,4.2c0.2,0.9,0.5,1.8,0.6,2.6h0.1c0.2-0.8,0.5-1.7,0.7-2.6l1.3-4.2h1.3l1.3,4.1
			c0.3,1,0.5,1.9,0.7,2.7h0.1c0.1-0.8,0.4-1.7,0.6-2.7l1.2-4.1h1.5l-2.7,8.2h-1.4l-1.3-3.9c-0.3-0.9-0.5-1.7-0.7-2.7h0
			c-0.2,1-0.5,1.8-0.7,2.7l-1.3,3.9h-1.4l-2.5-8.2H299z"/>
		<path class="st1" d="M309.9,375.9c0-0.6,0.4-1.1,1-1.1c0.6,0,1,0.4,1,1.1c0,0.6-0.4,1.1-1,1.1C310.3,377,309.9,376.5,309.9,375.9z
			"/>
		<path class="st1" d="M313.5,375.3c0.4,0.3,1.2,0.6,2,0.6c1.1,0,1.6-0.5,1.6-1.2c0-0.7-0.4-1.1-1.5-1.5c-1.5-0.5-2.2-1.3-2.2-2.3
			c0-1.3,1.1-2.4,2.8-2.4c0.8,0,1.6,0.2,2,0.5l-0.4,1.1c-0.3-0.2-0.9-0.5-1.7-0.5c-0.9,0-1.4,0.5-1.4,1.1c0,0.7,0.5,1,1.6,1.4
			c1.4,0.5,2.2,1.3,2.2,2.5c0,1.4-1.1,2.5-3.1,2.5c-0.9,0-1.7-0.2-2.3-0.6L313.5,375.3z"/>
		<path class="st1" d="M327.4,374.6c0,0.9,0,1.6,0.1,2.2h-1.3l-0.1-1.3h0c-0.4,0.7-1.3,1.5-2.7,1.5c-1.3,0-2.8-0.7-2.8-3.6v-4.8h1.5
			v4.6c0,1.6,0.5,2.6,1.8,2.6c1,0,1.7-0.7,2-1.4c0.1-0.2,0.1-0.5,0.1-0.8v-5h1.5V374.6z"/>
		<path class="st1" d="M329.8,371.1c0-1,0-1.8-0.1-2.6h1.3l0.1,1.6h0.1c0.4-1.1,1.3-1.8,2.3-1.8c0.2,0,0.3,0,0.4,0.1v1.4
			c-0.2,0-0.3-0.1-0.5-0.1c-1.1,0-1.8,0.8-2,1.9c0,0.2-0.1,0.4-0.1,0.7v4.4h-1.5V371.1z"/>
		<path class="st1" d="M339.9,376.8l-0.1-1h-0.1c-0.5,0.6-1.3,1.2-2.5,1.2c-1.7,0-2.5-1.2-2.5-2.4c0-2,1.8-3.1,4.9-3.1v-0.2
			c0-0.7-0.2-1.9-1.9-1.9c-0.8,0-1.6,0.2-2.1,0.6l-0.3-1c0.7-0.4,1.7-0.7,2.7-0.7c2.5,0,3.1,1.7,3.1,3.4v3.1c0,0.7,0,1.4,0.1,2
			H339.9z M339.7,372.6c-1.6,0-3.5,0.3-3.5,1.9c0,1,0.6,1.4,1.4,1.4c1.1,0,1.8-0.7,2-1.4c0.1-0.2,0.1-0.3,0.1-0.5V372.6z"/>
		<path class="st1" d="M343.5,364.7h1.5v5.1h0c0.2-0.4,0.6-0.8,1.1-1.1c0.4-0.3,1-0.4,1.5-0.4c1.1,0,2.9,0.7,2.9,3.5v4.9H349v-4.7
			c0-1.3-0.5-2.4-1.9-2.4c-1,0-1.7,0.7-2,1.5c-0.1,0.2-0.1,0.4-0.1,0.7v5h-1.5V364.7z"/>
		<path class="st1" d="M358.6,375.5L358.6,375.5c-0.5,0.8-1.4,1.5-2.7,1.5c-1.9,0-3.5-1.7-3.5-4.2c0-3.1,2-4.4,3.7-4.4
			c1.3,0,2.1,0.6,2.5,1.4h0l0.1-1.2h1.4c0,0.7-0.1,1.4-0.1,2.3v9.3h-1.5V375.5z M358.6,371.9c0-0.2,0-0.4-0.1-0.6
			c-0.2-0.9-1-1.7-2.1-1.7c-1.5,0-2.5,1.3-2.5,3.2c0,1.6,0.8,3.1,2.4,3.1c1,0,1.8-0.6,2.1-1.6c0.1-0.2,0.1-0.5,0.1-0.7V371.9z"/>
		<path class="st1" d="M369.4,374.6c0,0.9,0,1.6,0.1,2.2h-1.3l-0.1-1.3h0c-0.4,0.7-1.3,1.5-2.7,1.5c-1.3,0-2.8-0.7-2.8-3.6v-4.8h1.5
			v4.6c0,1.6,0.5,2.6,1.8,2.6c1,0,1.7-0.7,2-1.4c0.1-0.2,0.1-0.5,0.1-0.8v-5h1.5V374.6z"/>
		<path class="st1" d="M371.9,371.1c0-1,0-1.8-0.1-2.6h1.3l0.1,1.6h0.1c0.4-1.1,1.3-1.8,2.3-1.8c0.2,0,0.3,0,0.4,0.1v1.4
			c-0.2,0-0.3-0.1-0.5-0.1c-1.1,0-1.8,0.8-2,1.9c0,0.2-0.1,0.4-0.1,0.7v4.4h-1.5V371.1z"/>
		<path class="st1" d="M381.9,376.8l-0.1-1h-0.1c-0.5,0.6-1.3,1.2-2.5,1.2c-1.7,0-2.5-1.2-2.5-2.4c0-2,1.8-3.1,4.9-3.1v-0.2
			c0-0.7-0.2-1.9-1.9-1.9c-0.8,0-1.6,0.2-2.1,0.6l-0.3-1c0.7-0.4,1.7-0.7,2.7-0.7c2.5,0,3.1,1.7,3.1,3.4v3.1c0,0.7,0,1.4,0.1,2
			H381.9z M381.7,372.6c-1.6,0-3.5,0.3-3.5,1.9c0,1,0.6,1.4,1.4,1.4c1.1,0,1.8-0.7,2-1.4c0.1-0.2,0.1-0.3,0.1-0.5V372.6z"/>
		<path class="st1" d="M385.6,370.8c0-0.9,0-1.5-0.1-2.2h1.3l0.1,1.4h0c0.4-0.8,1.4-1.5,2.7-1.5c1.1,0,2.9,0.7,2.9,3.5v4.9h-1.5
			v-4.7c0-1.3-0.5-2.4-1.9-2.4c-1,0-1.8,0.7-2,1.5c-0.1,0.2-0.1,0.4-0.1,0.7v4.9h-1.5V370.8z"/>
		<path class="st1" d="M394.6,375.9c0-0.6,0.4-1.1,1-1.1c0.6,0,1,0.4,1,1.1c0,0.6-0.4,1.1-1,1.1C395,377,394.6,376.5,394.6,375.9z"
			/>
		<path class="st1" d="M404.4,376.5c-0.4,0.2-1.3,0.5-2.4,0.5c-2.5,0-4.1-1.7-4.1-4.2c0-2.5,1.7-4.4,4.4-4.4c0.9,0,1.7,0.2,2.1,0.4
			l-0.3,1.2c-0.4-0.2-0.9-0.4-1.7-0.4c-1.9,0-2.9,1.4-2.9,3.1c0,1.9,1.2,3.1,2.9,3.1c0.8,0,1.4-0.2,1.8-0.4L404.4,376.5z"/>
		<path class="st1" d="M413.5,372.6c0,3-2.1,4.4-4.1,4.4c-2.2,0-3.9-1.6-3.9-4.2c0-2.8,1.8-4.4,4.1-4.4
			C411.9,368.4,413.5,370.1,413.5,372.6z M406.9,372.7c0,1.8,1,3.2,2.5,3.2c1.4,0,2.5-1.3,2.5-3.2c0-1.4-0.7-3.2-2.5-3.2
			S406.9,371.1,406.9,372.7z"/>
		<path class="st1" d="M415.4,370.8c0-0.9,0-1.5-0.1-2.2h1.3l0.1,1.3h0.1c0.5-0.8,1.2-1.5,2.6-1.5c1.1,0,2,0.7,2.3,1.6h0
			c0.3-0.5,0.6-0.8,0.9-1.1c0.5-0.4,1-0.6,1.8-0.6c1.1,0,2.7,0.7,2.7,3.6v4.8h-1.5v-4.7c0-1.6-0.6-2.5-1.8-2.5
			c-0.9,0-1.5,0.6-1.8,1.4c-0.1,0.2-0.1,0.5-0.1,0.7v5.1h-1.5v-4.9c0-1.3-0.6-2.3-1.7-2.3c-0.9,0-1.6,0.7-1.9,1.5
			c-0.1,0.2-0.1,0.5-0.1,0.7v5h-1.5V370.8z"/>
	</g>
</g>
<g id="Layer_4">
	<path class="st1" d="M575.9,111.1h0.6c3.2,2.3,4.8,4.7,4.8,7.2l-1.9,3.6l-5.4-4.3h-1.2c-2,1-3.1,2.8-3.1,5.5
		c-0.4,18.1-1.6,27.1-3.6,27.1c-6.3-12.1-11.9-18.1-16.9-18.1c-2.8-1.5-4.2-3.1-4.2-4.8l-0.6-0.6l-0.6-1.9c0.5-2.8,2-4.2,4.5-4.2
		s8.1,5.2,16.6,15.7h1.2v-9.1C567.7,116.6,570.9,111.1,575.9,111.1z M367.6,111.7c4.3,6.4,8.1,14.7,11.4,24.8l-0.6,1.8h-1.2
		l-2.4-1.8h-0.6l-0.6,0.6h-0.6c6.1,43.2,9.5,70.8,10.3,82.8c0,16.8-5.9,26.9-17.6,30.2c-25.5,8.4-46,12.6-61.6,12.6l-13.8-1.2
		l-4.3,5.5h-0.6l0.6-7.9l-9-10.2h-0.6c-5.9,10-13.2,15.1-21.7,15.1c-13,0-20.4-12.5-22.3-37.4c-3.2-51.6-7.1-86.8-11.5-105.6
		l3.6-8.5h0.6c4.7,7.9,9.2,46.2,13.3,114.7c2.3,16.9,8.5,25.4,18.7,25.4c8.1,0,14.9-5.9,20.5-17.6l2.4-1.8h0.6
		c0.6,0,1.4,2.4,2.4,7.2c3.2,4.8,6.1,7.2,8.9,7.2s6.4-4.4,11-13.3c13.4-18.1,25.5-27.2,36.2-27.2c14,0.8,22.5,6.4,25.4,16.9v2.4
		c0,2.6-1.2,7.5-3.6,14.5l1.9,0.6c9.7-3.3,14.5-6.8,14.5-10.3l0.6-0.6c-1.6-16.1-6.4-52.7-14.5-109.9
		C363.3,117.4,364.7,114.4,367.6,111.7z M444.2,111.7c1.9,0,3.3,2.2,4.3,6.7l-1.2,10.2c4.4,3.7,6.6,6.3,6.6,7.9
		c-0.4,1.6-1.2,2.4-2.4,2.4l-6-3.6h-1.8c-12.8,12.9-21.7,19.3-26.6,19.3l-0.6-0.6h-0.6c0-0.8,7-6.4,21.1-16.9c2-2,3.1-3.8,3.1-5.4
		c-2.8-3.1-4.3-5.5-4.3-7.2C437.6,115.9,440.4,111.7,444.2,111.7z M152.6,112.3h1.2c4,15,7.6,46.2,10.9,93.6
		c2.5,24.2,5.1,36.2,7.8,36.2c3.2,5.3,7.4,7.9,12.7,7.9h3c10.8,0,19.1-3.6,24.8-10.9c-1.2-2.4-3.6-3.6-7.2-3.6l-12.1,0.6
		c-6.9,0-10.7-4-11.5-12.1c2.7-12.1,7-18.1,12.7-18.1c10.8,0,18.5,9.5,22.9,28.4v1.8c0,11-3.8,17.8-11.5,20.5c-7.5,4-14.3,6-20.5,6
		c-8.4,0-15.2-5-20.5-15.1c-2.8-6.4-5.4-24.5-7.8-54.4c0-10.7-2.8-34.9-8.5-72.5C150.1,115.2,151.3,112.3,152.6,112.3z M620,112.3
		h0.6c3.2,2,4.8,5,4.8,9v8.5l4.8,6c-0.3,2.4-1.1,3.6-2.4,3.6c-2.4-1.6-4.2-2.4-5.4-2.4h-0.6c-17,16.2-31.1,25.6-42.3,28.4l-4.2,1.2
		v-0.6l31.4-20.5c7.6-6.4,11.4-10,11.4-10.9c-4-4-6.2-7-6.6-9C613.3,116.8,616.1,112.3,620,112.3z M395.9,112.9
		c1,0.1,5,9.4,12.1,27.8l-0.6,1.9h-1.2l-3.1-2.4h-0.6l-1.2,1.2c5.2,41.4,8.4,70.4,9.7,87c-1.5,16.1-3.5,24.2-6,24.2l-0.6-0.6v-3.6
		l0.6-6.6c0-8.6-4.4-48.1-13.3-118.4C393.4,116.3,394.8,112.9,395.9,112.9z M278.7,113.6h0.6c3.3,0,5.5,2.6,6.6,7.8
		c-0.3,2-0.9,3.1-1.8,3.1l-5.5-3.6h-0.6l-1.9,1.8v11.5c-0.8,10-1.8,15.1-3,15.1c-3.6-7.1-7.8-12.7-12.7-16.9l-4.2,0.6
		c-3.7-2.4-5.5-4.6-5.5-6.7h-0.6c0.6-4.6,1.8-7,3.6-7.2c3,0,9,5.4,18.1,16.3l1.2-1.2V125C275,117.4,276.8,113.6,278.7,113.6z
		 M104.2,114.1c3.6,1.9,5.4,4.8,5.4,8.5c-0.5,2-1.1,3.1-1.8,3.1l-6-4.3c-1.5,0-2.7,6.8-3.6,20.5c-2.2,9.1-5.1,15.2-8.8,18.3
		c-3.7,3.1-6.2,4.6-7.5,4.6v-0.6c7.7-8.6,11.5-14.1,11.5-16.3v-0.6c-3.5-10.5-6.8-15.7-9.7-15.7l-2.4,0.6c-4-2.4-6-4.8-6-7.2
		c0.6-4.4,1.6-6.6,3-6.6c4.1,0.3,9.7,6.1,16.9,17.5h0.6C96.8,121.4,99.6,114.1,104.2,114.1z M522.7,114.1h1.9v1.9
		c0,3.2-6.3,7.8-18.8,13.8l-35.6,21.7h-0.6l-0.6-2.4c0-3.1,6.6-8.1,19.9-15.1L522.7,114.1z M310.1,116v0.6l-1.2,9.7v2.4
		c0,2.2,1.2,4.2,3.6,6c1.2,0,2.3-1.2,3.1-3.6h0.6l0.6,0.6h0.6c-1.2,6.8-3,10.2-5.4,10.2h-0.6c-3.6-1.7-5.4-5.5-5.4-11.4v-2.4
		C307.7,120,309.1,116,310.1,116z M212.3,118.4l0.6,0.6v0.6c0,4-7.1,8-21.2,12.1c0,0.9-7.4,3.9-22.3,9l-0.6-0.6
		c0-4.5,6.4-8.5,19.3-12.1C202.1,121.6,210.1,118.4,212.3,118.4z M439.4,121.4c0.5,1.7,1.6,2.9,3.1,3.6h1.2l1.2-1.2v-2.4l-1.2-2.4
		h-1.9L439.4,121.4z M615.2,121.4v1.9c0,0.8,1.4,2,4.2,3.6h3.1V125c-0.8-3.6-1.8-5.4-3.1-5.4h-2.4L615.2,121.4z M130.8,125.6h0.6
		l1.2,1.2l-4.2,21.7v7.8c0.9,6.9,3.1,10.3,6.6,10.3l3.1-6h1.2l0.6,2.4c0,5.4-1.8,9.9-5.4,13.3H132c-5.6-3.5-8.5-9.3-8.5-17.3
		S126,139.9,130.8,125.6z M356.7,130.5c1.3,0.4,2.1,1.2,2.4,2.4c0,4-7.6,8.6-22.9,13.8l-59.8,29L248,191.4h-2.4v-0.6
		c0-5.6,3.6-9.6,10.9-12.1C276.5,166.4,309.9,150.3,356.7,130.5z M199,149.8h0.6l3,9.7c-0.8,6-3,9-6.6,9l-4.3-0.6
		c-3,2.8-5.6,4.2-7.8,4.2c-2.8-1.2-4.3-3-4.3-5.4v-1.9l1.2-7.2h1.2v2.4c0,2.2,0.8,3.6,2.4,4.3h3.1l1.8-1.9v-7.2l0.6-4.2h1.8
		c1.1,6.4,2.3,9.7,3.6,9.7h1.2l1.2-1.2l-0.6-6C197.6,151,198.2,149.8,199,149.8z M531.8,150.4h0.6v0.6c-2,4.2-3,7.9-3,10.9
		c0,5,1.6,8.3,4.8,9.7c0.8,0,2.2-1.6,4.2-4.8h0.6c0,5.4-1.8,9.4-5.5,12.1h-1.8c-3.7-2.4-5.5-6.3-5.5-11.6S528.2,156.2,531.8,150.4z
		 M63.2,152.2h0.6l1.2,1.2c-3.2,11.1-4.8,19.4-4.8,24.7c1.1,8.9,3.5,13.3,7.2,13.3l4.3-4.8l0.6,0.6c0,8.2-2.4,12.8-7.2,13.8h-0.6
		c-5.6-4.2-8.5-10.1-8.5-17.5C57.1,174.9,59.5,164.4,63.2,152.2z M452.7,155.2h1.2c1.3,0,4.4,3,9.1,9.1c-1.1,3.4-3,6-5.5,7.8h-1.2
		c-4.5-3.6-7.3-5.4-8.5-5.4c-2.8,4.8-4.6,7.2-5.4,7.2c-6.9-2.6-10.3-5.3-10.3-7.9c0-3.3,1.8-6.1,5.5-8.5l8.5,4.3h0.6L452.7,155.2z
		 M621.8,155.2h1.2l-3,9.7v2.4c0.6,4.5,1.6,6.7,3,6.7h1.2c1.6-0.8,2.4-1.8,2.4-3.1h1.2v1.2h0.6c0,3.7-2,6.9-6,9.7
		c-3.7-1.3-5.5-5-5.5-10.9C616.9,167.8,618.5,162.6,621.8,155.2z M488.9,167.9c8.9,8.3,13.3,13.3,13.3,15.1l-0.6,0.6h-4.3v1.8
		c6.9,11.1,10.3,19.1,10.3,24.2c0,10.3-4.2,18.3-12.7,24.2c-3.6,2.5-5.4,5.7-5.4,9.7v3.6c1.6,12.1,7.4,18.1,17.5,18.1h1.2
		c15.5,0,32.4-10.3,50.7-30.8l2.4-3.6v-1.9c0-1-0.8-1.6-2.4-1.8l-12.6,2.4h-2.4c-9.3,0-13.9-3.6-13.9-10.9V215
		c2.8-11.3,7.7-16.9,14.5-16.9h1.2c4.6,0,10.6,4.8,18.1,14.5h0.6l21.1-13.3h0.6c0.6,0.8,1.2,4.4,1.8,10.9c3.6,4.8,7.8,7.2,12.7,7.2
		c9,0,16.6-6.8,22.9-20.5h1.8v0.6l-1.8,7.2v1.9c2.9,4,7.1,6,12.6,6h1.2c2.4,0,3.6-0.8,3.6-2.4l-3-7.2c0.9-5.6,1.9-8.5,3-8.5h0.6
		c2,1.4,3.8,5.8,5.4,13.3c-1.1,11.3-5.3,16.9-12.6,16.9h-1.2c-4.2,0-8.9-2.6-13.9-7.9h-1.2c-5.9,8.1-12.5,12.1-19.8,12.1
		s-12.8-4.8-16.4-14.5l-0.6-0.6h-1.2c-8.9,5.9-13.3,10.3-13.3,13.3c0,13.7-13.1,28.8-39.3,45.3c-7.5,3.2-13.9,4.8-19.3,4.8
		c-13,0-20.6-7.8-22.9-23.5l0.6-0.6v-10.2h-1.9c-24.9,17-43.8,26.1-56.8,27.1l-24.7,4.8v-1.2c7.1-3.6,19.2-8.8,36.2-15.7
		c19.6-10.1,37.7-21.6,54.4-34.4c6-5.5,9-8.8,9-9.7c0-2.4-3.4-9.7-10.2-21.7l-5.5-14.5v-0.6C486.9,170.9,487.7,167.9,488.9,167.9z
		 M330.7,169.1h0.6c4.4,6.2,6.6,11.6,6.6,16.3c0,6.4-2,9.7-6,9.7c-1.9,0-4.3-1-7.2-3l-8.5,7.2H315c-3.4,0-5.6-2.8-6.6-8.5v-1.2
		c0-7.2,0.6-10.9,1.8-10.9c0.8,0,1.2,1.8,1.2,5.4h0.6l-0.6,0.6v1.8c0,2.2,1,3.8,3.1,4.8h3.6c0.7,0,1.9-1.4,3.6-4.2l-0.6-14.5
		l0.6-1.9h1.8c1.3,10.9,4,16.3,7.9,16.3l3,0.6v-2.4c-3.2-5.5-4.8-9.5-4.8-12.1L330.7,169.1z M464.2,176.9h0.6l0.6,1.9
		c-1,5.8-4.6,12.8-10.9,21.1v0.6c8.4,6.4,12.6,11.8,12.6,16.3c0,11.5-6.4,19.6-19.3,24.2c-3.2,0.3-4.8,0.7-4.8,1.2
		c-5.2-1.8-7.8-5-7.8-9.7l-0.6-1.8c0-4.6,2-12,6-22.4v-1.2c-10.5-9.6-15.7-15.4-15.7-17.5V186c0-3,0.6-4.6,1.9-4.8
		c9.3,3.7,14.5,6.1,15.7,7.2v0.6c0,1-1,1.6-3.1,1.9v0.6c3,3.7,5.6,5.5,7.9,5.5h0.6C449.4,195.8,454.9,189.1,464.2,176.9z
		 M191.2,181.8h1.2c3.4,0,6.7,2.4,9.7,7.2c0,2.3-1.6,4.7-4.8,7.2h-1.9c-5-2.7-7.6-4.5-7.8-5.4v-1.2
		C188.6,185,189.8,182.4,191.2,181.8z M109.1,187.8c3.4,0,6.8,3,10.2,9.1c-1.3,3.3-3.3,5.7-6,7.2l-8.5-6c-0.9,0-3.3,2.4-7.2,7.2H97
		c-5.9-3.1-9.1-5.3-9.7-6.7c0-3.4,1.6-6.2,4.8-8.5h0.6c1.3,0,4,1.2,7.9,3.6h2.4c1.1-0.4,2.5-2.2,4.2-5.4l0.6-0.6H109.1z
		 M274.6,192.6v0.6l-2.4,10.9c0.6,5.6,1.9,8.5,3.6,8.5h1.8c0.9,0,1.5-1,1.9-3.1c0.8,0,1.2,0.6,1.2,1.9c0,4.4-1.4,7.4-4.3,9
		c-4.8,0-7.2-3.8-7.2-11.4C271,198.1,272.8,192.6,274.6,192.6z M135.7,205.4h2.4c7.2,6.3,10.9,13.6,10.9,21.7v1.8
		c0,11-10.7,19.4-32,25.4c-9.2,4-19.5,6-30.8,6h-2.4c-13.8,0-22.9-4.6-27.2-13.8c-1.2-1.2-2.4-5.2-3.6-12.1
		c3.5-16.5,6.4-24.8,8.5-24.8H62v1.2c-2,5.9-3.1,12.1-3.1,18.8c0,8.5,5.2,14.6,15.7,18.1l15.7,1.8c14.6,0,31.9-5.4,51.9-16.3
		l1.2-1.9v-3.6l-9.7-15.1L135.7,205.4z M446.6,210.7c-4.8,6.3-7.2,10.8-7.2,13.3c0.8,3.7,1.8,5.5,3.1,5.5h1.8
		c5.8,0,11.4-2.8,16.9-8.5v-1.2C459.3,216.7,454.5,213.6,446.6,210.7z M537.9,215.6v0.6l7.2,1.2c4.4,0,6.6-0.6,6.6-1.9V215
		c-2.3-2.8-5.1-4.3-8.5-4.3h-1.8C539.1,212.1,537.9,213.7,537.9,215.6z M99.4,212h1.2l-1.2,4.8v5.5c0,3.1,1,5.1,3,6h0.6
		c1.6-0.8,2.4-1.8,2.4-3.1h0.6l1.2,1.2c-1.2,6.4-2.6,9.7-4.2,9.7h-2.4c-3.2-2-4.8-5.4-4.8-10.2C95.8,223.6,97,218.9,99.4,212z
		 M189.4,221.1c0.8,2,2.4,3,4.8,3h4.3l4.2-0.6v-0.6c0-1.4-3-3.1-9-4.8h-1.2C190.6,219,189.6,220,189.4,221.1z M299.9,248.8v0.6
		l3,0.6h4.3c20.7,0,37.4-5.6,50.1-16.9v-2.4c-5-7.7-11.4-11.5-19.3-11.5h-5.4c-7.9,0-16.8,6.4-26.6,19.3
		C301.9,243.7,299.9,247.2,299.9,248.8z M632.1,238.5h0.6v1.9c-1.4,8.4-4.2,12.6-8.5,12.6l-5.4-0.6l-7.2,3h-0.6l-7.2-1.8h-1.8
		c-3,0-10.2,4.2-21.7,12.6l-10.9,3.1l-0.6-0.6v-0.6c1,0,11.5-6.7,31.4-20l6-1.2l7.2,2.4c2.3-0.3,5.1-2.5,8.5-6.6
		c1.6,2.4,3.2,3.6,4.8,3.6c1.6,0,2.4-1.2,2.4-3.6L632.1,238.5z M388.1,247c2.4,0.9,3.6,2.5,3.6,4.8c0,5.8-3.4,11.8-10.3,18.1h-0.6
		c0-1.3,2.2-5,6.6-10.9l0.6-2.4c0-1-0.8-1.6-2.4-1.8l-3.6,2.4l-0.6-0.6h-0.6C382.9,250.2,385.3,247,388.1,247z M145.9,257.3l0.6,0.6
		v1.9c0,3.5-7.1,7.7-21.2,12.6c-17.3,7.7-27,11.5-29,11.5V282c0-3.7,5.6-7.1,16.9-10.2C114.3,270.7,125.2,265.9,145.9,257.3z
		 M222,257.3h2.4c1.1,0,2.1,1.8,3.1,5.4c0,6-2.4,11.6-7.2,16.9l-0.6-0.6l4.3-10.9v-1.9l-1.9-1.8h-1.2l-2.4,1.8h-0.6v-0.6
		C217.8,262.4,219.2,259.5,222,257.3z"/>
</g>
</svg>
