<?xml version="1.0" encoding="utf-8"?>
<!-- Generator: Adobe Illustrator 25.2.3, SVG Export Plug-In . SVG Version: 6.00 Build 0)  -->
<svg version="1.1" xmlns="http://www.w3.org/2000/svg" xmlns:xlink="http://www.w3.org/1999/xlink" x="0px" y="0px"
	 viewBox="0 0 700 395" style="enable-background:new 0 0 700 395;" xml:space="preserve">
<style type="text/css">
	.st0{fill:#000222;}
	.st1{fill:#FFFFFF;}
</style>
<g id="Layer_1">
	<rect class="st0" width="700" height="395"/>
</g>
<g id="Layer_3">
	<g>
		<path class="st1" d="M273.5,368.6l1.1,4.2c0.2,0.9,0.5,1.8,0.6,2.6h0.1c0.2-0.8,0.5-1.7,0.7-2.6l1.3-4.2h1.3l1.3,4.1
			c0.3,1,0.5,1.9,0.7,2.7h0.1c0.1-0.8,0.4-1.7,0.6-2.7l1.2-4.1h1.5l-2.7,8.2H280l-1.3-3.9c-0.3-0.9-0.5-1.7-0.7-2.7h0
			c-0.2,1-0.5,1.8-0.7,2.7l-1.3,3.9h-1.4l-2.5-8.2H273.5z"/>
		<path class="st1" d="M286.3,368.6l1.1,4.2c0.2,0.9,0.5,1.8,0.6,2.6h0.1c0.2-0.8,0.5-1.7,0.7-2.6l1.3-4.2h1.3l1.3,4.1
			c0.3,1,0.5,1.9,0.7,2.7h0.1c0.1-0.8,0.4-1.7,0.6-2.7l1.2-4.1h1.5l-2.7,8.2h-1.4l-1.3-3.9c-0.3-0.9-0.5-1.7-0.7-2.7h0
			c-0.2,1-0.5,1.8-0.7,2.7l-1.3,3.9h-1.4l-2.5-8.2H286.3z"/>
		<path class="st1" d="M299,368.6l1.1,4.2c0.2,0.9,0.5,1.8,0.6,2.6h0.1c0.2-0.8,0.5-1.7,0.7-2.6l1.3-4.2h1.3l1.3,4.1
			c0.3,1,0.5,1.9,0.7,2.7h0.1c0.1-0.8,0.4-1.7,0.6-2.7l1.2-4.1h1.5l-2.7,8.2h-1.4l-1.3-3.9c-0.3-0.9-0.5-1.7-0.7-2.7h0
			c-0.2,1-0.5,1.8-0.7,2.7l-1.3,3.9h-1.4l-2.5-8.2H299z"/>
		<path class="st1" d="M309.9,375.9c0-0.6,0.4-1.1,1-1.1c0.6,0,1,0.4,1,1.1c0,0.6-0.4,1.1-1,1.1C310.3,377,309.9,376.5,309.9,375.9z
			"/>
		<path class="st1" d="M313.5,375.3c0.4,0.3,1.2,0.6,2,0.6c1.1,0,1.6-0.5,1.6-1.2c0-0.7-0.4-1.1-1.5-1.5c-1.5-0.5-2.2-1.3-2.2-2.3
			c0-1.3,1.1-2.4,2.8-2.4c0.8,0,1.6,0.2,2,0.5l-0.4,1.1c-0.3-0.2-0.9-0.5-1.7-0.5c-0.9,0-1.4,0.5-1.4,1.1c0,0.7,0.5,1,1.6,1.4
			c1.4,0.5,2.2,1.3,2.2,2.5c0,1.4-1.1,2.5-3.1,2.5c-0.9,0-1.7-0.2-2.3-0.6L313.5,375.3z"/>
		<path class="st1" d="M327.4,374.6c0,0.9,0,1.6,0.1,2.2h-1.3l-0.1-1.3h0c-0.4,0.7-1.3,1.5-2.7,1.5c-1.3,0-2.8-0.7-2.8-3.6v-4.8h1.5
			v4.6c0,1.6,0.5,2.6,1.8,2.6c1,0,1.7-0.7,2-1.4c0.1-0.2,0.1-0.5,0.1-0.8v-5h1.5V374.6z"/>
		<path class="st1" d="M329.8,371.1c0-1,0-1.8-0.1-2.6h1.3l0.1,1.6h0.1c0.4-1.1,1.3-1.8,2.3-1.8c0.2,0,0.3,0,0.4,0.1v1.4
			c-0.2,0-0.3-0.1-0.5-0.1c-1.1,0-1.8,0.8-2,1.9c0,0.2-0.1,0.4-0.1,0.7v4.4h-1.5V371.1z"/>
		<path class="st1" d="M339.9,376.8l-0.1-1h-0.1c-0.5,0.6-1.3,1.2-2.5,1.2c-1.7,0-2.5-1.2-2.5-2.4c0-2,1.8-3.1,4.9-3.1v-0.2
			c0-0.7-0.2-1.9-1.9-1.9c-0.8,0-1.6,0.2-2.1,0.6l-0.3-1c0.7-0.4,1.7-0.7,2.7-0.7c2.5,0,3.1,1.7,3.1,3.4v3.1c0,0.7,0,1.4,0.1,2
			H339.9z M339.7,372.6c-1.6,0-3.5,0.3-3.5,1.9c0,1,0.6,1.4,1.4,1.4c1.1,0,1.8-0.7,2-1.4c0.1-0.2,0.1-0.3,0.1-0.5V372.6z"/>
		<path class="st1" d="M343.5,364.7h1.5v5.1h0c0.2-0.4,0.6-0.8,1.1-1.1c0.4-0.3,1-0.4,1.5-0.4c1.1,0,2.9,0.7,2.9,3.5v4.9H349v-4.7
			c0-1.3-0.5-2.4-1.9-2.4c-1,0-1.7,0.7-2,1.5c-0.1,0.2-0.1,0.4-0.1,0.7v5h-1.5V364.7z"/>
		<path class="st1" d="M358.6,375.5L358.6,375.5c-0.5,0.8-1.4,1.5-2.7,1.5c-1.9,0-3.5-1.7-3.5-4.2c0-3.1,2-4.4,3.7-4.4
			c1.3,0,2.1,0.6,2.5,1.4h0l0.1-1.2h1.4c0,0.7-0.1,1.4-0.1,2.3v9.3h-1.5V375.5z M358.6,371.9c0-0.2,0-0.4-0.1-0.6
			c-0.2-0.9-1-1.7-2.1-1.7c-1.5,0-2.5,1.3-2.5,3.2c0,1.6,0.8,3.1,2.4,3.1c1,0,1.8-0.6,2.1-1.6c0.1-0.2,0.1-0.5,0.1-0.7V371.9z"/>
		<path class="st1" d="M369.4,374.6c0,0.9,0,1.6,0.1,2.2h-1.3l-0.1-1.3h0c-0.4,0.7-1.3,1.5-2.7,1.5c-1.3,0-2.8-0.7-2.8-3.6v-4.8h1.5
			v4.6c0,1.6,0.5,2.6,1.8,2.6c1,0,1.7-0.7,2-1.4c0.1-0.2,0.1-0.5,0.1-0.8v-5h1.5V374.6z"/>
		<path class="st1" d="M371.9,371.1c0-1,0-1.8-0.1-2.6h1.3l0.1,1.6h0.1c0.4-1.1,1.3-1.8,2.3-1.8c0.2,0,0.3,0,0.4,0.1v1.4
			c-0.2,0-0.3-0.1-0.5-0.1c-1.1,0-1.8,0.8-2,1.9c0,0.2-0.1,0.4-0.1,0.7v4.4h-1.5V371.1z"/>
		<path class="st1" d="M381.9,376.8l-0.1-1h-0.1c-0.5,0.6-1.3,1.2-2.5,1.2c-1.7,0-2.5-1.2-2.5-2.4c0-2,1.8-3.1,4.9-3.1v-0.2
			c0-0.7-0.2-1.9-1.9-1.9c-0.8,0-1.6,0.2-2.1,0.6l-0.3-1c0.7-0.4,1.7-0.7,2.7-0.7c2.5,0,3.1,1.7,3.1,3.4v3.1c0,0.7,0,1.4,0.1,2
			H381.9z M381.7,372.6c-1.6,0-3.5,0.3-3.5,1.9c0,1,0.6,1.4,1.4,1.4c1.1,0,1.8-0.7,2-1.4c0.1-0.2,0.1-0.3,0.1-0.5V372.6z"/>
		<path class="st1" d="M385.6,370.8c0-0.9,0-1.5-0.1-2.2h1.3l0.1,1.4h0c0.4-0.8,1.4-1.5,2.7-1.5c1.1,0,2.9,0.7,2.9,3.5v4.9h-1.5
			v-4.7c0-1.3-0.5-2.4-1.9-2.4c-1,0-1.8,0.7-2,1.5c-0.1,0.2-0.1,0.4-0.1,0.7v4.9h-1.5V370.8z"/>
		<path class="st1" d="M394.6,375.9c0-0.6,0.4-1.1,1-1.1c0.6,0,1,0.4,1,1.1c0,0.6-0.4,1.1-1,1.1C395,377,394.6,376.5,394.6,375.9z"
			/>
		<path class="st1" d="M404.4,376.5c-0.4,0.2-1.3,0.5-2.4,0.5c-2.5,0-4.1-1.7-4.1-4.2c0-2.5,1.7-4.4,4.4-4.4c0.9,0,1.7,0.2,2.1,0.4
			l-0.3,1.2c-0.4-0.2-0.9-0.4-1.7-0.4c-1.9,0-2.9,1.4-2.9,3.1c0,1.9,1.2,3.1,2.9,3.1c0.8,0,1.4-0.2,1.8-0.4L404.4,376.5z"/>
		<path class="st1" d="M413.5,372.6c0,3-2.1,4.4-4.1,4.4c-2.2,0-3.9-1.6-3.9-4.2c0-2.8,1.8-4.4,4.1-4.4
			C411.9,368.4,413.5,370.1,413.5,372.6z M406.9,372.7c0,1.8,1,3.2,2.5,3.2c1.4,0,2.5-1.3,2.5-3.2c0-1.4-0.7-3.2-2.5-3.2
			S406.9,371.1,406.9,372.7z"/>
		<path class="st1" d="M415.4,370.8c0-0.9,0-1.5-0.1-2.2h1.3l0.1,1.3h0.1c0.5-0.8,1.2-1.5,2.6-1.5c1.1,0,2,0.7,2.3,1.6h0
			c0.3-0.5,0.6-0.8,0.9-1.1c0.5-0.4,1-0.6,1.8-0.6c1.1,0,2.7,0.7,2.7,3.6v4.8h-1.5v-4.7c0-1.6-0.6-2.5-1.8-2.5
			c-0.9,0-1.5,0.6-1.8,1.4c-0.1,0.2-0.1,0.5-0.1,0.7v5.1h-1.5v-4.9c0-1.3-0.6-2.3-1.7-2.3c-0.9,0-1.6,0.7-1.9,1.5
			c-0.1,0.2-0.1,0.5-0.1,0.7v5h-1.5V370.8z"/>
	</g>
</g>
<g id="Layer_4">
	<path class="st1" d="M385.6,105.3h1.8c2.1,1.1,3.2,3,3.2,5.7l-0.7,11.3c4.2,4.9,6.3,8,6.3,9.4l-1.8,3.2l-7.5-5l-15.1,13.8
		c-10.7,5.9-17.4,8.8-20.1,8.8v-1.3L368,140c6.7-4.5,11.3-8.5,13.8-12v-1.8c-2.5-3-3.8-5.3-3.8-7v-1.3
		C378,112.6,380.5,108.4,385.6,105.3z M522.7,106.6c3.7,1.6,5.6,4.6,5.6,8.8l-1.8,2.5h-1.3l-3.8-3.1h-2.5c-1.7,0.6-2.5,2.2-2.5,5
		c-0.5,18.5-2,27.7-4.4,27.7h-1.3c-4.4-12.2-9.6-18.3-15.7-18.3c-3.4-2.5-5-4.8-5-6.9v-1.3c0-2.3,0.8-3.8,2.5-4.4
		c4.4,0,10.7,5.7,18.9,17l3.1-18.9c1.8-3.7,4.4-6.5,7.5-8.2H522.7z M257.2,107.8l0.6,0.7c-1.7,6.4-2.5,11.6-2.5,15.7
		c1.1,3.2,2.2,4.9,3.2,5h1.8c1.3,0,1.9-0.8,1.9-2.5h1.3v1.9c-0.3,3-2,5.7-5,8.1h-1.9c-3.4-1.9-5-5.3-5-10.1
		C251.5,121.8,253.4,115.5,257.2,107.8z M469.2,109.1l1.3,1.9c0,3.2-13,11.6-39,25.2l-18.2,11.3H412l-0.7-1.9c0-3.6,4-7.2,12-10.7
		C451.9,117.7,467.2,109.1,469.2,109.1z M568,109.1c4.2,0,6.3,5,6.3,15.1v2.5l4.4,8.2v0.6c-0.4,1.7-1.2,2.5-2.5,2.5l-3.8-2.5h-2.5
		c-22.5,19.7-38.9,29.6-49.1,29.6v-0.7l35.2-22.6c5.1-3.7,8.4-6.7,10.1-8.8c-4.2-4.6-6.3-8.2-6.3-10.7
		C561.5,113.5,564.3,109.1,568,109.1z M382.4,114.8v0.6c0,3,1.3,4.4,3.8,4.4l0.7-0.7v-4.4l-1.3-1.3h-1.9L382.4,114.8z M207.5,113.5
		c5,2.4,7.5,5.3,7.5,8.8c-0.8,2.9-1.7,4.4-2.5,4.4c-3.2-3.4-5.7-5-7.5-5h-0.6c-1.3,0.3-1.9,2-1.9,5v7c0,20.5-7.5,34.6-22.6,42.1H178
		v-0.6c11.7-10.8,17.6-17.7,17.6-20.8c-4.6-12.1-10.5-18.2-17.6-18.2c-3.4-2.3-5-4.4-5-6.3c0.7-3.8,1.5-5.7,2.5-5.7h0.6
		c7.8,2.6,14.5,8.4,20.1,17.6l1.9,2.5l0.6-1.8C198.7,123.2,201.6,113.5,207.5,113.5z M563.6,119.2c0,2.3,1.7,4.2,5,5.7h1.9v-3.2
		c-0.6-3.4-1.8-5-3.8-5C564.8,117.5,563.7,118.3,563.6,119.2z M342.8,122.3c2.1,0.7,3.1,2.1,3.1,4.4c-2.1,11.4-3.7,17-5,17l-0.6-0.7
		l1.8-12.6h-2.5c-20.1,11.7-36.6,17.6-49.7,17.6h-4.4c-1.2,0-1.8,2.1-1.8,6.3l-1.9,1.9c-1.1-3.2-4.2-8.1-9.4-14.5v-0.6
		c0.4-3,1-4.4,1.8-4.4c4.5,1.7,10,2.9,16.4,3.8c10.6,0,25.5-4.8,44.7-14.4C335.3,125.1,337.8,123.8,342.8,122.3z M128.2,127.4
		l0.7,0.6c-2.5,5.6-3.8,12.2-3.8,19.5v0.6c0,3.6,1.3,6.3,3.8,8.2h0.6l3.2-2.5h0.6v1.3c0,3.6-1.7,6.6-5,8.8c-4,0-6.3-4-6.9-12v-0.6
		C121.3,144.6,123.6,136.6,128.2,127.4z M476.2,147.5h0.6c-2.1,5.6-3.1,10-3.1,13.2c0,5.5,1.9,8.2,5.6,8.2l3.2-5h0.6l0.7,0.6v0.7
		c0,5.6-1.9,9.6-5.7,11.9h-0.6c-4.6,0-7-3.8-7-11.3v-1.8C470.5,157.7,472.4,152.2,476.2,147.5z M394.4,151.3
		c6.7,2.8,10.1,5.9,10.1,9.4h0.6c-1.2,3.2-3.3,5.9-6.3,8.2l-8.8-6.3l-6.3,8.1h-1.3c-4.9-3-8-6-9.4-8.8c2.1-5.9,4.2-8.8,6.3-8.8
		l8.1,5h0.7L394.4,151.3z M570.5,153.8v1.3l-3.2,10.1v0.6c0,5.9,1.3,8.8,3.8,8.8l3.8-3.8l0.7,0.7v0.6c-1.5,6.3-3.1,9.5-5,9.5H568
		c-1.8,0-3.3-3.6-4.4-10.7C563.6,165.9,565.9,160.3,570.5,153.8z M241.5,157.6l0.7,0.6c-2.5,7.6-3.8,12.6-3.8,15.1
		c0,4.2,1.5,7.2,4.4,8.8l3.8-3.8l0.7,1.9c0,3.9-1.5,7-4.4,9.4h-2.5c-3.4-1.7-5-5.9-5-12.4C235.2,170.7,237.3,164.1,241.5,157.6z
		 M430.9,164.5h0.6c9.2,9.2,13.8,14.7,13.8,16.4l-0.6,0.7h-4.4v0.6c6.3,12.9,9.5,20.8,9.5,23.9v1.3c0,10.7-2.7,18.1-8.2,22.1
		c-6.7,5.9-10.1,9.8-10.1,11.9l-0.6,5c0,10.8,4.6,17.5,13.8,20.1l5.6,0.7h2.5c13.7,0,30.7-11.1,51-33.4l1.3-1.8v-2.5
		c0-0.8-0.6-1.3-1.9-1.3l-16.4,2.5c-9.6-1-14.4-5.2-14.4-12.6c0-9.9,5-16.8,15.1-20.8c6.2,0,13.1,5,20.7,15.1
		c2.6,0,10-4.4,22.1-13.2l2.5,1.8v1.3l-0.7,5.7c3.4,6.7,7.1,10.1,11.3,10.1h5c7.5,0,14.7-6.7,21.4-20.1l0.7-0.7h1.8v0.7l-2.5,9.4
		c3.1,4.6,8.3,7,15.8,7l2.5-1.9l-3.2-7.5c1.4-6.3,2.7-9.4,3.8-9.4c2.1,0,4,5,5.7,15.1c-2.1,10.9-5.9,16.4-11.3,16.4h-3.2
		c-4.4,0-9.4-2.9-15.1-8.8c-6.5,8.4-13.9,12.6-22,12.6c-10.5-3.5-15.8-8.7-15.8-15.8v-0.6h-0.6c-2.7,0-7.7,4-15.1,11.9
		c0,16.7-15.3,33.7-46,51l-15.1,3.1c-9.2,0-16.6-5-22-15.1l-1.9-7.5v-6.9l0.7-7.5h-1.9c-27.7,18-47,27-57.9,27l-25.8,5.7l-1.9-0.7
		v-1.8c27.1-9.9,53.3-22.7,78.7-38.4c12.6-8.7,21.2-15.9,25.8-21.4v-1.3c0-2-3.4-9.7-10.1-23.2c-3.4-7.9-5-12.7-5-14.5L430.9,164.5z
		 M407,173.9v0.6c0,5.9-3.8,13.5-11.3,22.6v1.3c8.4,6.5,12.6,12.4,12.6,17.6c0,11.7-7.4,20.1-22.1,25.2h-5c-4.2-2.2-6.3-5.3-6.3-9.4
		v-1.3c0-7.5,2.1-15.9,6.3-25.2l-15.7-17v-7.5l0.6-3.1h0.7c10.3,3.4,15.7,5.9,16.4,7.5v1.3c0,0.8-0.8,1.3-2.5,1.3v1.3
		c3.5,3.7,6,5.6,7.5,5.6c0.7,0,6.6-6.9,17.6-20.7H407z M144,176.4c3.4,1.3,5,4.2,5,8.8l-0.7,1.8h-1.8c-1.8-1.7-3.5-2.5-5-2.5h-1.3
		v13.3c-0.7,11.7-2,17.6-3.8,17.6c-6.1-11.7-11.4-17.6-15.8-17.6c-5-1-7.5-3-7.5-6.3v-0.7c0-3.2,0.8-5.1,2.5-5.6h0.7
		c4,0,10.7,6.1,20.1,18.2l0.6-0.6v-16.4C138.3,179.8,140.6,176.4,144,176.4z M328.9,176.4c11.4,0,20.6,5.9,27.7,17.6l1.3,5.6
		c-2.6,10.1-6.8,16.8-12.6,20.1c-16.3,11.4-32.3,17-47.8,17h-1.3l-14.5-1.3c-2.1,9.3-6.5,17.5-13.2,24.5
		c-25.8,19.7-54.6,29.6-86.2,29.6s-57.2-11.7-76.8-35.2v-1.9l0.7-0.6h1.3c19.9,16.3,46.5,24.5,79.9,24.5h3.8c30.6,0,58.3-11.3,83-34
		l1.9-5.6c0-2.5-2.5-9-7.5-19.5l1.8-8.8h1.3c1.4,0.7,3.5,4,6.3,10.1c1.8,1.7,3.5,2.5,5,2.5h0.7c1.8-1.5,6.2-8.4,13.2-20.7
		C308.6,184.4,319.3,176.4,328.9,176.4z M290.5,223l3.8,1.3h6.3c17,0,33.4-6.5,49.1-19.5v-0.6c-6.4-9.7-14.6-14.5-24.5-14.5
		C313.4,189.6,301.8,200.7,290.5,223z M196.2,197.8h0.7v0.6l-3.8,25.2c0.7,10.5,3.2,15.8,7.5,15.8l3.8-6.3h1.3l0.6,1.8
		c0,6.9-2.5,12-7.5,15.1c-4.4,0-7.9-5.9-10.7-17.6v-1.3C189.8,212.3,192.5,201.2,196.2,197.8z M379.9,221.7v3.8
		c0.8,2.1,2.3,3.1,4.4,3.1c4.8,0,10.5-2.7,16.9-8.1l0.7-0.7v-0.6c-1.7-3.9-6.5-7.3-14.5-10.1C384.3,211.8,381.8,216,379.9,221.7z
		 M481.2,214.2v1.3c0,1.2,2.3,1.8,6.9,1.8h3.8c2.2,0,3.4-0.6,3.8-1.8c-2-3-4.7-4.4-8.1-4.4h-1.3C483.9,211,482.3,212.1,481.2,214.2z
		 M238.9,216h0.7c-2.1,6.8-3.2,12-3.2,15.8c0.6,5.4,1.6,8.1,3.2,8.1h0.6c1.7-0.8,2.5-1.9,2.5-3.1h0.7l1.3,1.3
		c-1.5,6.3-3.6,9.4-6.3,9.4c-3.1,0-5-3.8-5.7-11.3C232.7,229.5,234.7,222.7,238.9,216z M150.3,219.2h0.6l-2.5,12.6v4.4
		c0.4,4.6,1.9,7,4.4,7l3.1-3.8h0.7v2.5c0,3-1.7,6-5,8.8h-1.3c-3.8-3-5.7-6.5-5.7-10.7C144.6,232.3,146.5,225.4,150.3,219.2z
		 M318.2,239.4h0.7v0.6c-2.1,5.9-3.2,10.7-3.2,14.5v3.8c0,2.3,1.1,4,3.2,5h1.8c0.7,0,1.5-1.3,2.5-3.8h0.7l0.6,0.6h0.7
		c0,4.1-1.9,7.9-5.7,11.3h-0.6c-5-1.3-7.5-4.8-7.5-10.7v-0.7C313.6,246.3,315.9,239.4,318.2,239.4z M576.8,241.9h1.8v0.6
		c-1.1,9.2-3.8,13.8-8.1,13.8h-1.3l-5-1.3c-3,2.5-6.3,3.8-10.1,3.8l-5-2.5h-1.3c-3.4,0-12,4.6-25.8,13.8l-9.4,2.5l-0.7-0.6v-1.3
		c1.7,0,12.6-6.7,32.7-20.1l6.3-1.3l6.3,2.5h1.3c2.5,0,5.4-2.1,8.8-6.3c1.9,2.5,3.8,3.8,5.7,3.8C574,249.4,575.3,246.9,576.8,241.9z
		"/>
</g>
</svg>
