<?xml version="1.0" encoding="utf-8"?>
<!-- Generator: Adobe Illustrator 25.2.3, SVG Export Plug-In . SVG Version: 6.00 Build 0)  -->
<svg version="1.1" xmlns="http://www.w3.org/2000/svg" xmlns:xlink="http://www.w3.org/1999/xlink" x="0px" y="0px"
	 viewBox="0 0 700 395" style="enable-background:new 0 0 700 395;" xml:space="preserve">
<style type="text/css">
	.st0{fill:#000222;}
	.st1{fill:#FFFFFF;}
</style>
<g id="Layer_1">
	<rect class="st0" width="700" height="395"/>
</g>
<g id="Layer_3">
	<g>
		<path class="st1" d="M273.5,368.6l1.1,4.2c0.2,0.9,0.5,1.8,0.6,2.6h0.1c0.2-0.8,0.5-1.7,0.7-2.6l1.3-4.2h1.3l1.3,4.1
			c0.3,1,0.5,1.9,0.7,2.7h0.1c0.1-0.8,0.4-1.7,0.6-2.7l1.2-4.1h1.5l-2.7,8.2H280l-1.3-3.9c-0.3-0.9-0.5-1.7-0.7-2.7h0
			c-0.2,1-0.5,1.8-0.7,2.7l-1.3,3.9h-1.4l-2.5-8.2H273.5z"/>
		<path class="st1" d="M286.3,368.6l1.1,4.2c0.2,0.9,0.5,1.8,0.6,2.6h0.1c0.2-0.8,0.5-1.7,0.7-2.6l1.3-4.2h1.3l1.3,4.1
			c0.3,1,0.5,1.9,0.7,2.7h0.1c0.1-0.8,0.4-1.7,0.6-2.7l1.2-4.1h1.5l-2.7,8.2h-1.4l-1.3-3.9c-0.3-0.9-0.5-1.7-0.7-2.7h0
			c-0.2,1-0.5,1.8-0.7,2.7l-1.3,3.9h-1.4l-2.5-8.2H286.3z"/>
		<path class="st1" d="M299,368.6l1.1,4.2c0.2,0.9,0.5,1.8,0.6,2.6h0.1c0.2-0.8,0.5-1.7,0.7-2.6l1.3-4.2h1.3l1.3,4.1
			c0.3,1,0.5,1.9,0.7,2.7h0.1c0.1-0.8,0.4-1.7,0.6-2.7l1.2-4.1h1.5l-2.7,8.2h-1.4l-1.3-3.9c-0.3-0.9-0.5-1.7-0.7-2.7h0
			c-0.2,1-0.5,1.8-0.7,2.7l-1.3,3.9h-1.4l-2.5-8.2H299z"/>
		<path class="st1" d="M309.9,375.9c0-0.6,0.4-1.1,1-1.1c0.6,0,1,0.4,1,1.1c0,0.6-0.4,1.1-1,1.1C310.3,377,309.9,376.5,309.9,375.9z
			"/>
		<path class="st1" d="M313.5,375.3c0.4,0.3,1.2,0.6,2,0.6c1.1,0,1.6-0.5,1.6-1.2c0-0.7-0.4-1.1-1.5-1.5c-1.5-0.5-2.2-1.3-2.2-2.3
			c0-1.3,1.1-2.4,2.8-2.4c0.8,0,1.6,0.2,2,0.5l-0.4,1.1c-0.3-0.2-0.9-0.5-1.7-0.5c-0.9,0-1.4,0.5-1.4,1.1c0,0.7,0.5,1,1.6,1.4
			c1.4,0.5,2.2,1.3,2.2,2.5c0,1.4-1.1,2.5-3.1,2.5c-0.9,0-1.7-0.2-2.3-0.6L313.5,375.3z"/>
		<path class="st1" d="M327.4,374.6c0,0.9,0,1.6,0.1,2.2h-1.3l-0.1-1.3h0c-0.4,0.7-1.3,1.5-2.7,1.5c-1.3,0-2.8-0.7-2.8-3.6v-4.8h1.5
			v4.6c0,1.6,0.5,2.6,1.8,2.6c1,0,1.7-0.7,2-1.4c0.1-0.2,0.1-0.5,0.1-0.8v-5h1.5V374.6z"/>
		<path class="st1" d="M329.8,371.1c0-1,0-1.8-0.1-2.6h1.3l0.1,1.6h0.1c0.4-1.1,1.3-1.8,2.3-1.8c0.2,0,0.3,0,0.4,0.1v1.4
			c-0.2,0-0.3-0.1-0.5-0.1c-1.1,0-1.8,0.8-2,1.9c0,0.2-0.1,0.4-0.1,0.7v4.4h-1.5V371.1z"/>
		<path class="st1" d="M339.9,376.8l-0.1-1h-0.1c-0.5,0.6-1.3,1.2-2.5,1.2c-1.7,0-2.5-1.2-2.5-2.4c0-2,1.8-3.1,4.9-3.1v-0.2
			c0-0.7-0.2-1.9-1.9-1.9c-0.8,0-1.6,0.2-2.1,0.6l-0.3-1c0.7-0.4,1.7-0.7,2.7-0.7c2.5,0,3.1,1.7,3.1,3.4v3.1c0,0.7,0,1.4,0.1,2
			H339.9z M339.7,372.6c-1.6,0-3.5,0.3-3.5,1.9c0,1,0.6,1.4,1.4,1.4c1.1,0,1.8-0.7,2-1.4c0.1-0.2,0.1-0.3,0.1-0.5V372.6z"/>
		<path class="st1" d="M343.5,364.7h1.5v5.1h0c0.2-0.4,0.6-0.8,1.1-1.1c0.4-0.3,1-0.4,1.5-0.4c1.1,0,2.9,0.7,2.9,3.5v4.9H349v-4.7
			c0-1.3-0.5-2.4-1.9-2.4c-1,0-1.7,0.7-2,1.5c-0.1,0.2-0.1,0.4-0.1,0.7v5h-1.5V364.7z"/>
		<path class="st1" d="M358.6,375.5L358.6,375.5c-0.5,0.8-1.4,1.5-2.7,1.5c-1.9,0-3.5-1.7-3.5-4.2c0-3.1,2-4.4,3.7-4.4
			c1.3,0,2.1,0.6,2.5,1.4h0l0.1-1.2h1.4c0,0.7-0.1,1.4-0.1,2.3v9.3h-1.5V375.5z M358.6,371.9c0-0.2,0-0.4-0.1-0.6
			c-0.2-0.9-1-1.7-2.1-1.7c-1.5,0-2.5,1.3-2.5,3.2c0,1.6,0.8,3.1,2.4,3.1c1,0,1.8-0.6,2.1-1.6c0.1-0.2,0.1-0.5,0.1-0.7V371.9z"/>
		<path class="st1" d="M369.4,374.6c0,0.9,0,1.6,0.1,2.2h-1.3l-0.1-1.3h0c-0.4,0.7-1.3,1.5-2.7,1.5c-1.3,0-2.8-0.7-2.8-3.6v-4.8h1.5
			v4.6c0,1.6,0.5,2.6,1.8,2.6c1,0,1.7-0.7,2-1.4c0.1-0.2,0.1-0.5,0.1-0.8v-5h1.5V374.6z"/>
		<path class="st1" d="M371.9,371.1c0-1,0-1.8-0.1-2.6h1.3l0.1,1.6h0.1c0.4-1.1,1.3-1.8,2.3-1.8c0.2,0,0.3,0,0.4,0.1v1.4
			c-0.2,0-0.3-0.1-0.5-0.1c-1.1,0-1.8,0.8-2,1.9c0,0.2-0.1,0.4-0.1,0.7v4.4h-1.5V371.1z"/>
		<path class="st1" d="M381.9,376.8l-0.1-1h-0.1c-0.5,0.6-1.3,1.2-2.5,1.2c-1.7,0-2.5-1.2-2.5-2.4c0-2,1.8-3.1,4.9-3.1v-0.2
			c0-0.7-0.2-1.9-1.9-1.9c-0.8,0-1.6,0.2-2.1,0.6l-0.3-1c0.7-0.4,1.7-0.7,2.7-0.7c2.5,0,3.1,1.7,3.1,3.4v3.1c0,0.7,0,1.4,0.1,2
			H381.9z M381.7,372.6c-1.6,0-3.5,0.3-3.5,1.9c0,1,0.6,1.4,1.4,1.4c1.1,0,1.8-0.7,2-1.4c0.1-0.2,0.1-0.3,0.1-0.5V372.6z"/>
		<path class="st1" d="M385.6,370.8c0-0.9,0-1.5-0.1-2.2h1.3l0.1,1.4h0c0.4-0.8,1.4-1.5,2.7-1.5c1.1,0,2.9,0.7,2.9,3.5v4.9h-1.5
			v-4.7c0-1.3-0.5-2.4-1.9-2.4c-1,0-1.8,0.7-2,1.5c-0.1,0.2-0.1,0.4-0.1,0.7v4.9h-1.5V370.8z"/>
		<path class="st1" d="M394.6,375.9c0-0.6,0.4-1.1,1-1.1c0.6,0,1,0.4,1,1.1c0,0.6-0.4,1.1-1,1.1C395,377,394.6,376.5,394.6,375.9z"
			/>
		<path class="st1" d="M404.4,376.5c-0.4,0.2-1.3,0.5-2.4,0.5c-2.5,0-4.1-1.7-4.1-4.2c0-2.5,1.7-4.4,4.4-4.4c0.9,0,1.7,0.2,2.1,0.4
			l-0.3,1.2c-0.4-0.2-0.9-0.4-1.7-0.4c-1.9,0-2.9,1.4-2.9,3.1c0,1.9,1.2,3.1,2.9,3.1c0.8,0,1.4-0.2,1.8-0.4L404.4,376.5z"/>
		<path class="st1" d="M413.5,372.6c0,3-2.1,4.4-4.1,4.4c-2.2,0-3.9-1.6-3.9-4.2c0-2.8,1.8-4.4,4.1-4.4
			C411.9,368.4,413.5,370.1,413.5,372.6z M406.9,372.7c0,1.8,1,3.2,2.5,3.2c1.4,0,2.5-1.3,2.5-3.2c0-1.4-0.7-3.2-2.5-3.2
			S406.9,371.1,406.9,372.7z"/>
		<path class="st1" d="M415.4,370.8c0-0.9,0-1.5-0.1-2.2h1.3l0.1,1.3h0.1c0.5-0.8,1.2-1.5,2.6-1.5c1.1,0,2,0.7,2.3,1.6h0
			c0.3-0.5,0.6-0.8,0.9-1.1c0.5-0.4,1-0.6,1.8-0.6c1.1,0,2.7,0.7,2.7,3.6v4.8h-1.5v-4.7c0-1.6-0.6-2.5-1.8-2.5
			c-0.9,0-1.5,0.6-1.8,1.4c-0.1,0.2-0.1,0.5-0.1,0.7v5.1h-1.5v-4.9c0-1.3-0.6-2.3-1.7-2.3c-0.9,0-1.6,0.7-1.9,1.5
			c-0.1,0.2-0.1,0.5-0.1,0.7v5h-1.5V370.8z"/>
	</g>
</g>
<g id="Layer_4">
	<path class="st1" d="M336.8,103.3h2c9,18.7,13.5,30.1,13.5,34.1h-1.3l-4.5-3.9h-1.3v3.2l9.6,72.7l1.3,18v5.1
		c-1.8,14.6-4,21.9-6.4,21.9l-0.6-0.7l0.6-9.6v-1.3c-2.5-32-7.6-74.4-15.4-127.3l-0.6-2L336.8,103.3z M270.6,104.6
		c2.7,0,4.2,3.2,4.5,9.7v6.4l3.9,8.3c-0.4,2.2-1.3,3.3-2.6,3.3c-2.6-1.7-4.5-2.6-5.7-2.6c-16,17.4-30.6,28.3-43.7,32.7v-0.6
		l36.6-30.3c2.2-2.2,3.3-4.1,3.3-5.7c-4.3-3-6.4-5.8-6.4-8.4C261.4,108.9,264.8,104.6,270.6,104.6z M301.5,104.6h0.6
		c9,15,13.5,24.2,13.5,27.7l-0.7,1.9h-1.3l-3.2-3.2h-2c6.5,44.7,9.7,70,9.7,75.8c0,17.1-5.8,27.8-17.4,32.1l-46.3,15.4
		c-5.9,1.7-18.9,12.6-39.2,32.7c-4.9,3-8.8,4.5-11.6,4.5h-3.9c-10.3,0-16.7-7.1-19.3-21.3c0-7.6,5.3-20.9,16-39.9v-1.3h-0.6
		c-22,6.6-38.7,17.1-50.1,31.5c-12.3,17.1-22.4,25.7-30.3,25.7c-9.1,0-16.1-4.5-21.2-13.5l-2-10.3c0.7-9.7,5-20.9,12.9-33.4v-1.9
		C101.1,221.8,99,216,99,210v-3.2c0-8.5,2.8-19.6,8.4-33.4h1.3v0.6c-3,13-4.5,22.6-4.5,29v1.9c0.1,6.7,2.1,11.3,5.8,13.5
		c2.9,0,5.3-3.2,7-9.7h1.3l0.7,2c0,8.6-3.9,15.5-11.6,20.6c-6.9,12.9-10.3,23.6-10.3,32.1s3.4,12.9,10.3,12.9
		c10.6,0,20.9-6.9,30.9-20.6c13.8-19.1,31.4-31.6,52.7-37.3c6.3-1.9,10.8-3.9,13.5-5.8v-1.9c-3.2-4.5-5.1-8.8-5.7-12.9
		c1.6-10.7,6.5-16.1,14.7-16.1c5.4,0,13.4,6.2,23.8,18.7l0.6,3.2c0,8.2-5.1,13.6-15.4,16.1c-4.3,1.1-6.4,3.9-6.4,8.3h-1.9l-3.3-3.2
		c-6.7,0-14.8,12-24.4,36l-0.6,7.7v1.9c0,7.3,4.3,11,12.9,11c7.3,0,18.7-8.1,34-24.4c13.4-12.6,31.8-21.2,55.3-25.7
		c14.2-4.6,22.2-8.9,23.8-12.9v-5.1c-4.3-40.2-9-73.4-14.1-99.7C298.7,107.6,300,104.6,301.5,104.6z M532.2,107.2
		c1.9,0,3.6,2.4,5.1,7.1c-0.6,2.6-1.2,3.9-1.9,3.9h-1.3c-2.2-2.2-4.2-3.3-5.8-3.3c-2.1,1-3.2,3.1-3.2,6.4v7.7c0,7.7-0.9,14.4-2.6,20
		h-1.3c-6.3-12-11.7-18-16.1-18c-1.6,0-3.9-1.9-7-5.8v-2.6c0-2.3,0.9-3.8,2.6-4.5c4.7,0,11.4,5.6,19.9,16.7h0.7v-0.7
		C521.3,116.2,524.9,107.2,532.2,107.2z M579.2,108.5c3.2,0,5.1,4.9,5.7,14.8v3.9c2.5,2.6,4,5.1,4.5,7.7c-0.5,1.7-1.3,2.6-2.6,2.6
		l-3.9-2.6h-0.7c-1.5,0-5.3,3-11.6,9c-16.4,13.6-29.3,20.9-38.6,21.9h-0.6c2.9-2.7,13.6-9.8,32.1-21.3c5.6-4.1,9.9-7.9,12.9-11.6
		v-0.6c-4.7-4.6-7.1-8.1-7.1-10.3C571.5,113,574.7,108.5,579.2,108.5z M390.8,109.1h2c2.1,0.6,3.2,3.4,3.2,8.3v2l-0.6,7
		c4.3,4.3,6.4,7.1,6.4,8.4v0.6c-0.3,2.2-1,3.3-2,3.3c-3.9-3-6.5-4.5-7.7-4.5L376.7,149c-11,6-17.2,9-18.6,9h-1.3v-0.7
		c15.1-10.6,25.1-18.7,30.2-24.4V131c-2.6-3.8-3.9-6.6-3.9-8.4C383.1,117.5,385.7,113,390.8,109.1z M185.1,109.7h0.7v0.7
		c-1.7,2.8-2.8,6.4-3.3,10.9c0,3,1.1,5.4,3.3,7.1h1.3c1.7-0.9,2.6-2,2.6-3.3h0.6l0.7,0.7h0.6c0,3.4-1.9,6.6-5.7,9.6h-2
		c-3-1.4-4.5-4.6-4.5-9.6C180.7,116.8,182.7,111.4,185.1,109.7z M140.8,111c3.5,2.4,5.6,5.4,6.4,9c-0.9,1.9-1.7,3-2.6,3.3l-5.8-4.5
		h-0.6l-1.3,1.3v8.4c-1.2,14.1-2.7,21.2-4.5,21.2c-5.3-12-8.9-18-10.9-18h-0.7c-5.8,9.9-14,16.5-24.4,20h-1.3v-1.3
		c6.1-3,12.9-8.5,20.6-16.7v-2l-5.1-5.7v-3.3c0-2.8,1.3-4.7,3.9-5.7c4.4,0.6,10.4,6.8,18,18.6l1.3-1.3v-9
		C133.7,116.5,136.1,111.8,140.8,111z M265.5,113.6v1.3c0,1.3,1.9,2.4,5.7,3.3v-3.9c-0.9-1.7-1.9-2.6-3.2-2.6L265.5,113.6z
		 M476.9,111l0.7,2c0,3.2-11.6,11.1-34.7,23.7c-13.9,9.4-21.9,14.1-23.8,14.1h-0.6v-1.3h-0.7c0-3.8,7.3-9.4,21.9-16.7
		C449.9,125.7,462.3,118.4,476.9,111z M573.3,119.4c2.1,3.4,4.4,5.1,7.1,5.1l0.6-0.7v-0.6c-0.6-4.7-1.7-7.1-3.2-7.1h-2
		C574.2,117.1,573.3,118.2,573.3,119.4z M387.6,118.7v0.7c0,3,1.5,4.5,4.5,4.5v-5.1l-1.9-1.9h-0.7L387.6,118.7z M236.5,132.3h1.3
		v0.6c0,4.9-6,9.4-18,13.5c-48,19-72,32-72,39.2c4.7,2.7,7.1,5.3,7.1,7.7l-2,5.8c-5,0-8.7-3-10.9-9c0-6.6,5.1-14.3,15.4-23.1
		C176,156.8,202.3,145.3,236.5,132.3z M484,149.6h0.6v0.7l-2.6,11.6c0,6.4,2.1,9.6,6.4,9.6l3.3-4.5h0.6v1.9
		c-1,6.9-3.2,10.3-6.4,10.3c-4.7-2.3-7-6.6-7-12.9C480.4,158.7,482.2,153.1,484,149.6z M278.4,154.1l3.9,12.2
		c-1.4,6.9-4.4,10.3-9,10.3l-5.1-1.9c-3.5,2.6-6.1,3.9-7.7,3.9h-0.7c-3.8,0-5.7-2.4-5.7-7.1v-2.6c0-5.5,0.6-8.3,1.9-8.3
		c0.9,7.3,2.1,10.9,3.9,10.9h0.7c4.7,0,7-2.1,7-6.4l-0.6-7l1.3-3.3h0.6c1.3,0,2.2,4.1,2.6,12.3l2,1.3h3.9l-1.3-9.7
		C276.5,155.6,277.4,154.1,278.4,154.1z M580.5,154.7h1.3l-3.3,10.3v1.3c0,3.4,1.1,5.9,3.3,7.7h1.9l3.3-3.2l0.6,0.6v0.7
		c-1.4,6.4-3.5,9.6-6.4,9.6c-3.8-2.1-5.7-5.7-5.7-10.9C575.8,166.6,577.5,161.2,580.5,154.7z M400.5,156h0.6
		c6.9,2.9,10.3,6.1,10.3,9.7c-1.5,5.1-3.7,7.7-6.4,7.7l-7.7-5.8h-0.6c-0.8,0-2.5,2.4-5.1,7.1l-0.7,0.6h-2.6c-3.3-1.9-6.3-4.5-9-7.7
		c0-3,1.7-6,5.1-9h2c3.6,2.6,6.2,3.9,7.7,3.9h0.6L400.5,156z M439.6,168.9h0.7c9,8,13.5,13.1,13.5,15.4h-1.3v0.7l-0.6-0.7h-1.3
		l-1.3,1.3c6.9,13.5,10.3,22.5,10.3,27v3.3c0,8.7-5.6,17.5-16.7,26.3c-1.3,2.2-2,4.4-2,6.4v4.5c0,9.7,5.6,16.1,16.7,19.3h6.4
		c11.8,0,27.9-10.5,48.3-31.5c3-3.3,4.5-5.8,4.5-7.7v-0.6l-1.9-2l-17.4,3.3c-9.8,0-14.7-4.9-14.7-14.8c0-7.7,4.7-14.1,14.1-19.3h1.9
		c5,0,11.8,4.9,20.6,14.8h0.7c2.3,0,9.6-4.5,21.9-13.5h0.6l2,3.3l-0.7,5.7c3,6.9,7.7,10.3,14.1,10.3c10.3,0,18.3-7.1,23.8-21.2
		l1.9-1.3h1.3v0.6l-1.9,9.7c2.5,4.7,7.4,7,14.7,7c2.6,0,3.9-0.9,3.9-2.6l-3.2-7.7c0-3.1,1.1-6.3,3.2-9.6c2.6,0,4.6,5.6,5.8,16.7
		c-1.3,10.7-5.3,16-12.3,16h-1.3c-4.5,0-10-3-16.7-9c-6.3,9-12.7,13.5-19.3,13.5c-10.1,0-16.5-5.1-19.3-15.4v-0.7
		c-2.3,0-7.4,3.7-15.4,11c0,12.1-5.1,22.3-15.4,30.9c-18.2,18-33.8,27-46.9,27c-10.1,0-17.6-5.6-22.5-16.7
		c-1.3-3.7-1.9-7.1-1.9-10.3l0.6-9.7h-0.6L406.9,266c-8.1,5.4-22.1,10.1-41.8,14.1l-15.4,3.2l-0.6-0.6V282c3.4-2.7,14.7-7.9,34-15.4
		c22.6-12.6,40.2-23.3,52.7-32.1c8.7-6.5,14.7-12.1,18-16.7v-0.6c0-2.1-4.3-11.5-12.9-28.3l-3.9-10.3v-0.7
		C437.5,171.9,438.4,168.9,439.6,168.9z M412.6,178.6h0.7l0.6,0.6h0.7c0,4.1-3.7,11.8-11,23.1v1.3c8.6,6.7,12.9,12.3,12.9,16.7
		c0,11.3-4.7,19-14.1,23.1c-1,1.4-4.5,2.9-10.3,4.5c-5.1,0-8.3-4.3-9.6-12.9c0.9-8.1,2.8-15.8,5.7-23.1v-1.3
		c-10.7-10.6-16-17.3-16-20v-4.5c0.2-2.6,0.9-3.9,1.9-3.9c10.5,4.1,15.9,6.8,16.1,8.3l-2,2.6v1.3c2.7,3,5.5,4.5,8.4,4.5L412.6,178.6
		z M258.4,193.3c2.4,0,5.8,2.6,10.3,7.7v0.7c-2,6-3.7,9-5.1,9h-0.6c-5.9-3.3-8.9-5.9-9-7.7C253.9,199.7,255.4,196.4,258.4,193.3z
		 M206.4,196.6v0.6c0.5,3.8,2.8,7.9,7,12.3h1.3c3.8,0,7-1.5,9.7-4.5v-0.6c-5-6.5-9.1-9.7-12.3-9.7h-1.9
		C207.6,194.9,206.4,195.5,206.4,196.6z M491.1,218.4c1.7,1.3,3.6,1.9,5.8,1.9h5.7l3.3-0.6v-1.3c-1.7-3-4.9-4.5-9.7-4.5
		C493.3,215,491.6,216.5,491.1,218.4z M387.6,227.4c0,3.8,1.1,6.1,3.2,7h3.9c4.6,0,9.7-3.4,15.4-10.3c0-2.2-4.7-5.2-14.1-9
		C393.8,215.2,391,219.2,387.6,227.4z M322.7,240.3h0.7v0.6l-2,14.1c0.7,5.1,1.8,7.7,3.3,7.7h0.6l3.9-4.5h0.7v0.6
		c0,5.1-2.1,9-6.4,11.6c-3.9-0.9-5.8-4.5-5.8-10.9C317.7,253.6,319.5,247.2,322.7,240.3z M592.6,243.4c0,8.6-3,13.8-9,15.4l-5.7-1.3
		l-9,3.9l-7.1-2.6h-1.3c-3.4,0-11.7,4.7-25,14.1l-9,3.3l-0.7-0.7v-1.3c1.2,0,11.3-6.6,30.3-19.9c3.1-1.7,5.4-2.6,7-2.6l9,2.6
		c3.3,0,6.1-2.4,8.4-7.1h1.3c0,1.7,0.9,3,2.6,3.9h3.2c0.9,0,2.2-2.6,3.9-7.7H592.6z M271.9,253.7h1.3l-2,7.7v4.5
		c0,2.3,1.1,4.1,3.3,5.1h1.3c1.7-0.9,2.6-2,2.6-3.3h1.3v0.7c0,4.1-1.7,7.3-5.1,9.6h-2c-3.4-2.3-5.1-5.1-5.1-8.4
		S268.9,261.1,271.9,253.7z M171.7,271.1l0.6,0.6v0.7c0,4.2-7.3,8.5-21.9,12.9c0,1-4.5,2.9-13.5,5.7l-1.3-1.3
		c0-2.7,7.1-6.8,21.2-12.2C158.6,276.1,163.5,273.9,171.7,271.1z"/>
</g>
</svg>
