<?xml version="1.0" encoding="utf-8"?>
<!-- Generator: Adobe Illustrator 25.2.3, SVG Export Plug-In . SVG Version: 6.00 Build 0)  -->
<svg version="1.1" id="Layer_1" xmlns="http://www.w3.org/2000/svg" xmlns:xlink="http://www.w3.org/1999/xlink" x="0px" y="0px"
	 viewBox="0 0 700 395" style="enable-background:new 0 0 700 395;" xml:space="preserve">
<style type="text/css">
	.st0{fill:#000222;}
	.st1{fill:#FFFFFF;}
</style>
<g id="Layer_1_1_">
	<rect y="-0.5" class="st0" width="700" height="395"/>
</g>
<g id="Layer_3">
	<g>
		<path class="st1" d="M273.5,368.6l1.1,4.2c0.2,0.9,0.5,1.8,0.6,2.6h0.1c0.2-0.8,0.5-1.7,0.7-2.6l1.3-4.2h1.3l1.3,4.1
			c0.3,1,0.5,1.9,0.7,2.7h0.1c0.1-0.8,0.4-1.7,0.6-2.7l1.2-4.1h1.5l-2.7,8.2H280l-1.3-3.9c-0.3-0.9-0.5-1.7-0.7-2.7l0,0
			c-0.2,1-0.5,1.8-0.7,2.7l-1.3,3.9h-1.4l-2.5-8.2H273.5z"/>
		<path class="st1" d="M286.3,368.6l1.1,4.2c0.2,0.9,0.5,1.8,0.6,2.6h0.1c0.2-0.8,0.5-1.7,0.7-2.6l1.3-4.2h1.3l1.3,4.1
			c0.3,1,0.5,1.9,0.7,2.7h0.1c0.1-0.8,0.4-1.7,0.6-2.7l1.2-4.1h1.5l-2.7,8.2h-1.4l-1.3-3.9c-0.3-0.9-0.5-1.7-0.7-2.7l0,0
			c-0.2,1-0.5,1.8-0.7,2.7l-1.3,3.9h-1.4l-2.5-8.2H286.3z"/>
		<path class="st1" d="M299,368.6l1.1,4.2c0.2,0.9,0.5,1.8,0.6,2.6h0.1c0.2-0.8,0.5-1.7,0.7-2.6l1.3-4.2h1.3l1.3,4.1
			c0.3,1,0.5,1.9,0.7,2.7h0.1c0.1-0.8,0.4-1.7,0.6-2.7l1.2-4.1h1.5l-2.7,8.2h-1.4l-1.3-3.9c-0.3-0.9-0.5-1.7-0.7-2.7l0,0
			c-0.2,1-0.5,1.8-0.7,2.7l-1.3,3.9H300l-2.5-8.2H299z"/>
		<path class="st1" d="M309.9,375.9c0-0.6,0.4-1.1,1-1.1s1,0.4,1,1.1c0,0.6-0.4,1.1-1,1.1S309.9,376.5,309.9,375.9z"/>
		<path class="st1" d="M313.5,375.3c0.4,0.3,1.2,0.6,2,0.6c1.1,0,1.6-0.5,1.6-1.2s-0.4-1.1-1.5-1.5c-1.5-0.5-2.2-1.3-2.2-2.3
			c0-1.3,1.1-2.4,2.8-2.4c0.8,0,1.6,0.2,2,0.5l-0.4,1.1c-0.3-0.2-0.9-0.5-1.7-0.5c-0.9,0-1.4,0.5-1.4,1.1c0,0.7,0.5,1,1.6,1.4
			c1.4,0.5,2.2,1.3,2.2,2.5c0,1.4-1.1,2.5-3.1,2.5c-0.9,0-1.7-0.2-2.3-0.6L313.5,375.3z"/>
		<path class="st1" d="M327.4,374.6c0,0.9,0,1.6,0.1,2.2h-1.3l-0.1-1.3l0,0c-0.4,0.7-1.3,1.5-2.7,1.5c-1.3,0-2.8-0.7-2.8-3.6v-4.8
			h1.5v4.6c0,1.6,0.5,2.6,1.8,2.6c1,0,1.7-0.7,2-1.4c0.1-0.2,0.1-0.5,0.1-0.8v-5h1.5v6H327.4z"/>
		<path class="st1" d="M329.8,371.1c0-1,0-1.8-0.1-2.6h1.3l0.1,1.6h0.1c0.4-1.1,1.3-1.8,2.3-1.8c0.2,0,0.3,0,0.4,0.1v1.4
			c-0.2,0-0.3-0.1-0.5-0.1c-1.1,0-1.8,0.8-2,1.9c0,0.2-0.1,0.4-0.1,0.7v4.4h-1.5L329.8,371.1L329.8,371.1z"/>
		<path class="st1" d="M339.9,376.8l-0.1-1h-0.1c-0.5,0.6-1.3,1.2-2.5,1.2c-1.7,0-2.5-1.2-2.5-2.4c0-2,1.8-3.1,4.9-3.1v-0.2
			c0-0.7-0.2-1.9-1.9-1.9c-0.8,0-1.6,0.2-2.1,0.6l-0.3-1c0.7-0.4,1.7-0.7,2.7-0.7c2.5,0,3.1,1.7,3.1,3.4v3.1c0,0.7,0,1.4,0.1,2
			H339.9z M339.7,372.6c-1.6,0-3.5,0.3-3.5,1.9c0,1,0.6,1.4,1.4,1.4c1.1,0,1.8-0.7,2-1.4c0.1-0.2,0.1-0.3,0.1-0.5V372.6z"/>
		<path class="st1" d="M343.5,364.7h1.5v5.1l0,0c0.2-0.4,0.6-0.8,1.1-1.1c0.4-0.3,1-0.4,1.5-0.4c1.1,0,2.9,0.7,2.9,3.5v4.9H349V372
			c0-1.3-0.5-2.4-1.9-2.4c-1,0-1.7,0.7-2,1.5c-0.1,0.2-0.1,0.4-0.1,0.7v5h-1.5V364.7z"/>
		<path class="st1" d="M358.6,375.5L358.6,375.5c-0.5,0.8-1.4,1.5-2.7,1.5c-1.9,0-3.5-1.7-3.5-4.2c0-3.1,2-4.4,3.7-4.4
			c1.3,0,2.1,0.6,2.5,1.4l0,0l0.1-1.2h1.4c0,0.7-0.1,1.4-0.1,2.3v9.3h-1.5v-4.7H358.6z M358.6,371.9c0-0.2,0-0.4-0.1-0.6
			c-0.2-0.9-1-1.7-2.1-1.7c-1.5,0-2.5,1.3-2.5,3.2c0,1.6,0.8,3.1,2.4,3.1c1,0,1.8-0.6,2.1-1.6c0.1-0.2,0.1-0.5,0.1-0.7v-1.7H358.6z"
			/>
		<path class="st1" d="M369.4,374.6c0,0.9,0,1.6,0.1,2.2h-1.3l-0.1-1.3l0,0c-0.4,0.7-1.3,1.5-2.7,1.5c-1.3,0-2.8-0.7-2.8-3.6v-4.8
			h1.5v4.6c0,1.6,0.5,2.6,1.8,2.6c1,0,1.7-0.7,2-1.4c0.1-0.2,0.1-0.5,0.1-0.8v-5h1.5v6H369.4z"/>
		<path class="st1" d="M371.9,371.1c0-1,0-1.8-0.1-2.6h1.3l0.1,1.6h0.1c0.4-1.1,1.3-1.8,2.3-1.8c0.2,0,0.3,0,0.4,0.1v1.4
			c-0.2,0-0.3-0.1-0.5-0.1c-1.1,0-1.8,0.8-2,1.9c0,0.2-0.1,0.4-0.1,0.7v4.4h-1.5L371.9,371.1L371.9,371.1z"/>
		<path class="st1" d="M381.9,376.8l-0.1-1h-0.1c-0.5,0.6-1.3,1.2-2.5,1.2c-1.7,0-2.5-1.2-2.5-2.4c0-2,1.8-3.1,4.9-3.1v-0.2
			c0-0.7-0.2-1.9-1.9-1.9c-0.8,0-1.6,0.2-2.1,0.6l-0.3-1c0.7-0.4,1.7-0.7,2.7-0.7c2.5,0,3.1,1.7,3.1,3.4v3.1c0,0.7,0,1.4,0.1,2
			H381.9z M381.7,372.6c-1.6,0-3.5,0.3-3.5,1.9c0,1,0.6,1.4,1.4,1.4c1.1,0,1.8-0.7,2-1.4c0.1-0.2,0.1-0.3,0.1-0.5V372.6z"/>
		<path class="st1" d="M385.6,370.8c0-0.9,0-1.5-0.1-2.2h1.3l0.1,1.4l0,0c0.4-0.8,1.4-1.5,2.7-1.5c1.1,0,2.9,0.7,2.9,3.5v4.9H391
			v-4.7c0-1.3-0.5-2.4-1.9-2.4c-1,0-1.8,0.7-2,1.5c-0.1,0.2-0.1,0.4-0.1,0.7v4.9h-1.5v-6.1H385.6z"/>
		<path class="st1" d="M394.6,375.9c0-0.6,0.4-1.1,1-1.1s1,0.4,1,1.1c0,0.6-0.4,1.1-1,1.1S394.6,376.5,394.6,375.9z"/>
		<path class="st1" d="M404.4,376.5c-0.4,0.2-1.3,0.5-2.4,0.5c-2.5,0-4.1-1.7-4.1-4.2s1.7-4.4,4.4-4.4c0.9,0,1.7,0.2,2.1,0.4
			l-0.3,1.2c-0.4-0.2-0.9-0.4-1.7-0.4c-1.9,0-2.9,1.4-2.9,3.1c0,1.9,1.2,3.1,2.9,3.1c0.8,0,1.4-0.2,1.8-0.4L404.4,376.5z"/>
		<path class="st1" d="M413.5,372.6c0,3-2.1,4.4-4.1,4.4c-2.2,0-3.9-1.6-3.9-4.2c0-2.8,1.8-4.4,4.1-4.4
			C411.9,368.4,413.5,370.1,413.5,372.6z M406.9,372.7c0,1.8,1,3.2,2.5,3.2c1.4,0,2.5-1.3,2.5-3.2c0-1.4-0.7-3.2-2.5-3.2
			S406.9,371.1,406.9,372.7z"/>
		<path class="st1" d="M415.4,370.8c0-0.9,0-1.5-0.1-2.2h1.3l0.1,1.3h0.1c0.5-0.8,1.2-1.5,2.6-1.5c1.1,0,2,0.7,2.3,1.6l0,0
			c0.3-0.5,0.6-0.8,0.9-1.1c0.5-0.4,1-0.6,1.8-0.6c1.1,0,2.7,0.7,2.7,3.6v4.8h-1.5V372c0-1.6-0.6-2.5-1.8-2.5
			c-0.9,0-1.5,0.6-1.8,1.4c-0.1,0.2-0.1,0.5-0.1,0.7v5.1h-1.5v-4.9c0-1.3-0.6-2.3-1.7-2.3c-0.9,0-1.6,0.7-1.9,1.5
			c-0.1,0.2-0.1,0.5-0.1,0.7v5h-1.5v-5.9H415.4z"/>
	</g>
	<path class="st1" d="M529.9,98.1c2.2,0.6,4.3,3,6.5,7.2c-0.9,3.5-1.8,5.2-2.6,5.2h-0.7l-4.5-3.9h-0.7c-3,0-4.5,2.8-4.5,8.5v8.5
		c-0.6,12.6-1.9,18.9-3.9,18.9c-6-13.1-12.1-19.6-18.3-19.6l-5.9-5.8v-3.3c0-1.8,0.9-3.3,2.6-4.5c4.4,0,11.4,6.1,20.9,18.3l0.7-0.7
		v-3.2c0-13.1,2.6-21.4,7.8-24.9L529.9,98.1z M577,99.4h2.6c3.5,2.1,5.2,6.2,5.2,12.5v5.2c0,1.6,1.7,4.4,5.2,8.5
		c-0.9,2.6-1.8,3.9-2.6,3.9c-2.4-1.7-4.4-2.6-5.9-2.6c-0.9,0-4.9,3.5-11.8,10.5c-19,15.3-32.5,22.9-40.6,22.9v-0.7
		c21.5-13.7,36.5-24.3,45.2-32l2.6-3.3l-7.2-8.5v-1.3C569.8,107.9,572.2,102.8,577,99.4z M384.7,100.7c1.2,0,2.5,2.4,3.9,7.2
		l-0.7,9.2v1.9c4.4,4.1,6.5,7.4,6.5,9.9c-0.4,1.7-1.3,2.6-2.6,2.6l-6.5-4.6c-2,0-6.2,3.7-12.4,11.2c-8.9,7-14.8,10.5-17.7,10.5
		l-0.6-0.7v-1.3l23.5-19.6l1.3-1.9l-4.6-9.2v-2C376.8,105.1,380.1,100.7,384.7,100.7z M239.5,102.7v1.3c-1.3,4.3-2,8-2,11.1
		c0.5,4,1.3,5.9,2.6,5.9h1.3l2.6-2h0.7v0.7c0,4-1.5,7-4.6,9.2c-4.4-0.6-6.5-4.1-6.5-10.5C235.8,107.9,237.8,102.7,239.5,102.7z
		 M300.3,102.7h0.7c0,1.4,4.1,9.9,12.4,25.5l1.3,4.6l-1.3,1.3h-0.6c-2.7-2.6-4.7-3.9-5.9-3.9v0.6l15.1,102v5.2
		c0,14.8-6.1,23.3-18.3,25.6l-4.6,0.6c-7.7,0-14.9-4.4-21.5-13.1c-3.8,7-8,10.5-12.5,10.5c-2.4,0-7.7-1.7-15.7-5.2
		c-4.8,6.6-9.3,9.9-13.3,9.9c-4.1,0-8.3-2.6-12.8-7.8c-4.4,6.1-10,9.2-17,9.2c-4.4,0-9.2-2.4-14.4-7.2h-0.6
		c-8.8,6.3-16.2,9.6-22.2,9.9c-22.7,0-34-21.8-34-65.4c-3.5-44.8-7-74.5-10.5-89c1.6-5.7,2.9-8.5,3.9-8.5h1.9
		c3.8,15.5,8.2,55.6,13.1,120.3c3.4,19.7,11.5,29.5,24.2,29.5h1.3c12.4,0,21.3-5.5,26.8-16.4l2-1.3h1.3l0.6,2
		c-0.9,1.7-1.3,4.1-1.3,7.2c0,3.6,3.5,6,10.5,7.2c6.4,0,13.4-5.5,20.9-16.4h0.7l1.3,1.3l-1.3,5.2v1.3c0,2.1,1.3,3.8,3.9,5.2h4.5
		c4,0,8.5-5.2,13.8-15.7h1.3c0.4,7.4,4.1,11.2,11.1,11.2h2.6c2.4,0,4.1-1.1,5.2-3.3V242c0-4.8-3.1-17.6-9.2-38.5
		c0.8-5.2,1.9-7.8,3.3-7.8c3.7,3.3,8.5,17.2,14.4,41.9c4.4,9.1,10.1,13.7,17,13.7c11.3-1.5,17-3.4,17-5.8v-2.6
		c-8.7-57.1-14.4-97.5-17-121l-2.6-7.2C297.5,106.6,299,102.7,300.3,102.7z M472.4,102.7l1.3,1.3c0,3.6-3.7,7.1-11.2,10.5
		c-31.5,20.1-48.3,30.1-50.3,30.1l-0.7-0.7v-1.3c0-3.8,9.6-10.8,28.8-20.9C460.3,109,471,102.7,472.4,102.7z M333,103.3h0.7
		l11.8,28.2l0.6,2.6l-0.6,1.9h-1.3l-3.9-3.2H339v0.6c9.1,68.2,13.7,104.6,13.7,109.3l-0.6,4.5l0.6,2c0,7.4-1.7,13.3-5.2,17.6
		l-1.3-1.3c0-16-4.8-57.9-14.4-125.6l-3.2-24.2C328.5,109.7,330,105.5,333,103.3z M573.1,110.6c0.2,1.4,2.2,3.1,5.8,5.2h1.3l1.3-1.3
		c-0.9-4.8-1.9-7.2-3.2-7.2h-0.7C574.6,107.2,573.1,108.3,573.1,110.6z M184.6,107.9h0.6c4.4,0,6.5,3.7,6.5,11.1l-1.3,1.3h-1.3
		l-5.2-4.5l-2.6,2.6v9.8c-0.6,12.2-1.7,18.3-3.2,18.3h-1.3c-5.4-13.5-11.5-20.2-18.3-20.2l-3.3-3.9v-2c0-3.9,1.1-5.8,3.3-5.8
		c4.4,0,10.3,5.9,17.6,17.6h2v-5.8C178,117.1,180.2,111,184.6,107.9z M378.8,111.9c0.7,2,2,3.5,3.9,4.5h0.7l1.3-1.3v-1.9
		c0-2.3-0.7-3.6-2-3.9C380.6,109.2,379.2,110.1,378.8,111.9z M100.8,114.5v1.3l-2.6,10.5c0,6.5,1.7,9.8,5.2,9.8l3.2-3.9l0.7,0.7h0.6
		c-1.3,7.4-3.5,11.1-6.5,11.1c-2.5,0-4.7-3.3-6.5-9.8c0.9-8.5,2.6-15.1,5.2-19.6h0.7V114.5z M269.6,127.6c1.6,1,3.8,5.4,6.5,13.1
		c-1.5,6.5-4.1,9.8-7.8,9.8l-7.8-1.3c-1.5,2.2-3.6,3.7-6.5,4.6c-4.4,0-6.5-3.3-6.5-9.9c0.8-5.2,1.6-7.8,2.6-7.8
		c0.7,6.1,1.8,9.2,3.2,9.2h2.6c1.7-0.9,3.1-2.2,3.9-3.9l-1.3-7.8l1.3-4.5h1.3c1.2,0,2,3.5,2.6,10.5c1.7,1.7,3.5,2.6,5.2,2.6l0.7-0.7
		v-0.6l-2-9.2C268.1,128.9,268.7,127.6,269.6,127.6z M233,134.1l1.3,1.9c0,4.6-3.3,7.9-9.9,9.9c-34.5,17.7-58.5,31-71.9,39.9h-2.6
		c0-7.2,8.7-14.6,26.2-22.2c1.6-1.7,19.9-11.3,54.9-28.8L233,134.1z M481.5,142.6v1.3l-2.6,10.5v0.7c0,7.4,1.9,11.1,5.8,11.1
		c1,0,2.1-1.9,3.3-5.8h1.3v0.6c-1.1,9.2-3.3,13.8-6.5,13.8c-3.5,0-6-3.7-7.2-11.2v-3.9C477.5,148.2,479.5,142.6,481.5,142.6z
		 M580.9,146.5h1.3v1.3l-3.3,10.5v2.6c0.6,4.8,1.7,7.2,3.3,7.2h1.9c1,0,1.7-1.1,2-3.3h0.6l0.7,0.7h0.6c0,4-1.9,7.5-5.8,10.5h-1.3
		c-3.5-1.8-5.2-5.5-5.2-11.2v-2.6C575.7,159.7,577.4,154.4,580.9,146.5z M393.2,149.8h2c6.1,4.5,9.2,7.3,9.2,8.5v0.7
		c0,3.2-1.7,6.2-5.2,9.2c-1.3,0-4.6-2-9.9-5.9H388l-5.2,7.8h-0.6c-7-2.8-10.5-5.6-10.5-8.5H371c0-3,1.7-6.1,5.2-9.2h2l6.5,4.5h2.6
		C390.3,152.4,392.3,150,393.2,149.8z M100.8,155.6h0.6c-1.3,7-1.9,12.9-1.9,17.7c1,4.8,2.9,7.2,5.8,7.2l2-4.5h1.3v1.3h0.6
		c-1.7,7.4-3.7,11.1-5.8,11.1h-0.7c-4.4-3.2-6.5-7.3-6.5-12.4C97.1,163.1,98.6,156.3,100.8,155.6z M433.1,162.9h1.3
		c9.6,8.7,14.4,14.2,14.4,16.3v0.7h-3.3l-1.3,1.3l9.2,18.3l2,10.5c0,11.5-5.7,21.1-17,28.8c-1.7,3.8-2.6,6.6-2.6,8.5v6.5
		c0,8.4,5.4,14.5,16.3,18.3h6.5c13.3,0,29.8-10.5,49.7-31.4c4.4-4.5,6.5-7.8,6.5-9.8l-0.6-2.6h-0.7l-19.6,2.6
		c-9.6,0-14.4-5.5-14.4-16.4c3.1-12.6,8.4-18.9,15.7-18.9h2.6c4.4,0,10.9,5.2,19.6,15.7h0.7c3.4-0.8,10.6-5.8,21.5-15.1h2l1.9,3.3
		l-0.6,3.2v1.3c0,6.4,4.6,10.3,13.7,11.8h3.9c8.1,0,15.3-7.2,21.6-21.5l1.9-1.3h1.3v0.6l-2.6,9.2c2.5,5.2,8.2,7.8,17,7.8
		c1.7-0.6,2.6-1.3,2.6-1.9v-1.3l-3.2-7.8c1.1-6.1,2.2-9.2,3.2-9.2h0.7c2.4,1.3,4.3,6.5,5.8,15.7c0,10.3-4.4,16.5-13.1,18.3h-1.3
		c-4.9,0-10.4-3.1-16.3-9.2c-0.9,0-2.9,2.2-5.9,6.5c-6.7,5.2-12.4,7.8-17,7.8c-11.7-2.7-17.6-8.4-17.6-17h-2
		c-10,6.3-15,11.8-15,16.3c0,17.2-16.6,35.3-49.7,54.3l-14.4,2.6c-14.5,0-23.3-9.4-26.2-28.2l0.6-0.6V247h-2.6
		c-25.2,18-45.2,28-60.2,30.1l-29.4,6.5L338,283v-0.7c0.6-1.5,12.4-6.7,35.3-15.7c25.5-13.7,46.2-26.7,62.2-39.2
		c7.8-6.6,12.4-11.1,13.7-13.7V213l-15.7-32.7l-2.6-8.5L433.1,162.9z M258.4,165.5c3.2,0,6.7,2.8,10.5,8.5c-2.2,5-4,7.8-5.2,8.5
		h-0.6c-2.8,0-6.1-2.4-9.9-7.2v-0.6C253.5,171.5,255.3,168.5,258.4,165.5z M407.6,173.3c-0.3,7.2-3.8,14.8-10.5,22.8l-1.3,3.9
		c9.6,6,14.4,11.7,14.4,17c0,11.2-4.8,19.2-14.4,24.2c-5.1,3.5-8.7,5.2-11.1,5.2c-7-1.4-10.5-6.2-10.5-14.4c0-6,2.4-14.3,7.2-24.9
		c0-0.9-4.1-4.6-12.4-11.2l-5.9-7.8v-5.2c0-3.5,0.9-5.2,2.6-5.2c9.2,3.6,14.7,6.2,16.4,7.8v2l-2.6,0.6v1.3c0,0.8,2.4,2.7,7.2,5.9h2
		c1.2-0.6,6.9-8,17-22.2h1.9V173.3z M289.2,175.3h0.6l-2.6,9.9c0.6,5.6,1.7,8.5,3.3,8.5h0.6c1.7-0.9,2.6-2.2,2.6-3.9h1.3l0.7,2.6
		c-1.9,6.1-3.7,9.2-5.2,9.2h-2c-3-2.2-4.5-5.4-4.5-9.8V191C284,184.3,285.7,179.1,289.2,175.3z M230.4,177.9h2.6
		c3.9,3,5.8,6.1,5.8,9.2v1.3l-1.9,2l-5.2-3.3h-1.3l-0.7,0.7H229l0.6,7.8v9.2l0.7,0.6l-2,10.5H227c-4.2-6.3-7.7-10.9-10.5-13.7
		c-0.7-0.9-3.1-1.3-7.2-1.3c-3.1-1.4-4.6-3.4-4.6-5.9v-2c0-3.2,0.7-4.9,2-5.2h2.6c3,1.3,8,5.4,15,12.4h0.7l0.6-0.6h0.7l-0.7-7.8V191
		C226.8,182.2,228.3,177.9,230.4,177.9z M176.7,187l0.6,0.7v0.6l-2.6,14.4v7.2c0,7.4,2.2,11.1,6.5,11.1c1-0.2,2.2-1.9,3.3-5.2h0.6
		l1.3,1.3c-1.8,10.1-4.4,15.1-7.8,15.1c-4.4,0-7.5-4.6-9.2-13.8v-5.8c0-6,2.2-14.6,6.5-25.6H176.7z M110,205.3
		c5.2,1.4,7.8,3.8,7.8,7.2c-1.7,4.3-3,6.5-3.9,6.5h-1.3l-4.6-3.9h-3.9c-3,1.6-4.5,3.6-4.5,5.9s4.1,4.3,12.4,5.9h2l13.7-3.3h0.7
		l1.3,1.3v0.7c0,5.2-7,9.2-20.9,11.8l-13.1,8.5h-1.3v-0.6c0-3.1,1.5-6.6,4.5-10.5c-5.2-2.8-7.8-6.1-7.8-9.9
		c1.6-6.2,6.2-12,13.8-17.6L110,205.3z M488,215.2c2.3,1.3,5.1,1.9,8.5,1.9s6-0.6,7.8-1.9c-2.3-3.5-4.9-5.2-7.8-5.2H492
		C489.4,211.4,488,213.1,488,215.2z M379.5,227c1.2,2.9,2.5,4.7,3.9,5.2h0.6c6.9,0,13.3-3.5,19-10.5v-1.3c-2.7-3.1-6.7-6-11.8-8.5
		h-3.9C382.1,217.6,379.5,222.6,379.5,227z M593.3,240.1l0.7,1.9c-1.7,10.1-5.4,15.1-11.2,15.1l-3.9-1.3c-5.3,3-8.8,4.5-10.5,4.5
		l-7.8-3.2c-2.8,0-12.4,5.7-28.8,17L524,276l-0.6-0.6v-0.7l34.6-23.5l6.5-1.3l6.5,2.6h0.7c3,0,6.1-2.4,9.2-7.2h0.6
		c1.7,2.6,3.5,3.9,5.2,3.9h0.7c0.8,0,2.3-3.1,4.5-9.2h1.4V240.1z M132.2,249.8h0.6l1.3,1.3c0,3.8-6.5,8.1-19.6,13.1l-16.3,8.5
		l-1.3-2C97.3,267,109.1,260.1,132.2,249.8z M293.1,267.5l1.3,1.9c0,4.7-6.5,8.9-19.6,12.5c-3.6,2.2-11,5-22.2,8.5v-1.3
		c0-4.7,4.4-8,13.1-9.8L293.1,267.5z M189.8,272.8c2.6,0.9,3.9,2.6,3.9,5.2v1.3c0,5.8-3.5,11.7-10.5,17.6h-0.7v-0.6l7.2-11.8v-1.3
		l-1.3-1.3h-1.3l-2.6,1.9l-0.7-0.6h-0.6C183.3,279.3,185.4,275.8,189.8,272.8z"/>
</g>
</svg>
