<?xml version="1.0" encoding="utf-8"?>
<!-- Generator: Adobe Illustrator 25.2.3, SVG Export Plug-In . SVG Version: 6.00 Build 0)  -->
<svg version="1.1" xmlns="http://www.w3.org/2000/svg" xmlns:xlink="http://www.w3.org/1999/xlink" x="0px" y="0px"
	 viewBox="0 0 700 395" style="enable-background:new 0 0 700 395;" xml:space="preserve">
<style type="text/css">
	.st0{fill:#000222;}
	.st1{fill:#FFFFFF;}
</style>
<g id="Layer_1">
	<rect class="st0" width="700" height="395"/>
</g>
<g id="Layer_3">
	<g>
		<path class="st1" d="M273.5,368.6l1.1,4.2c0.2,0.9,0.5,1.8,0.6,2.6h0.1c0.2-0.8,0.5-1.7,0.7-2.6l1.3-4.2h1.3l1.3,4.1
			c0.3,1,0.5,1.9,0.7,2.7h0.1c0.1-0.8,0.4-1.7,0.6-2.7l1.2-4.1h1.5l-2.7,8.2H280l-1.3-3.9c-0.3-0.9-0.5-1.7-0.7-2.7h0
			c-0.2,1-0.5,1.8-0.7,2.7l-1.3,3.9h-1.4l-2.5-8.2H273.5z"/>
		<path class="st1" d="M286.3,368.6l1.1,4.2c0.2,0.9,0.5,1.8,0.6,2.6h0.1c0.2-0.8,0.5-1.7,0.7-2.6l1.3-4.2h1.3l1.3,4.1
			c0.3,1,0.5,1.9,0.7,2.7h0.1c0.1-0.8,0.4-1.7,0.6-2.7l1.2-4.1h1.5l-2.7,8.2h-1.4l-1.3-3.9c-0.3-0.9-0.5-1.7-0.7-2.7h0
			c-0.2,1-0.5,1.8-0.7,2.7l-1.3,3.9h-1.4l-2.5-8.2H286.3z"/>
		<path class="st1" d="M299,368.6l1.1,4.2c0.2,0.9,0.5,1.8,0.6,2.6h0.1c0.2-0.8,0.5-1.7,0.7-2.6l1.3-4.2h1.3l1.3,4.1
			c0.3,1,0.5,1.9,0.7,2.7h0.1c0.1-0.8,0.4-1.7,0.6-2.7l1.2-4.1h1.5l-2.7,8.2h-1.4l-1.3-3.9c-0.3-0.9-0.5-1.7-0.7-2.7h0
			c-0.2,1-0.5,1.8-0.7,2.7l-1.3,3.9h-1.4l-2.5-8.2H299z"/>
		<path class="st1" d="M309.9,375.9c0-0.6,0.4-1.1,1-1.1c0.6,0,1,0.4,1,1.1c0,0.6-0.4,1.1-1,1.1C310.3,377,309.9,376.5,309.9,375.9z
			"/>
		<path class="st1" d="M313.5,375.3c0.4,0.3,1.2,0.6,2,0.6c1.1,0,1.6-0.5,1.6-1.2c0-0.7-0.4-1.1-1.5-1.5c-1.5-0.5-2.2-1.3-2.2-2.3
			c0-1.3,1.1-2.4,2.8-2.4c0.8,0,1.6,0.2,2,0.5l-0.4,1.1c-0.3-0.2-0.9-0.5-1.7-0.5c-0.9,0-1.4,0.5-1.4,1.1c0,0.7,0.5,1,1.6,1.4
			c1.4,0.5,2.2,1.3,2.2,2.5c0,1.4-1.1,2.5-3.1,2.5c-0.9,0-1.7-0.2-2.3-0.6L313.5,375.3z"/>
		<path class="st1" d="M327.4,374.6c0,0.9,0,1.6,0.1,2.2h-1.3l-0.1-1.3h0c-0.4,0.7-1.3,1.5-2.7,1.5c-1.3,0-2.8-0.7-2.8-3.6v-4.8h1.5
			v4.6c0,1.6,0.5,2.6,1.8,2.6c1,0,1.7-0.7,2-1.4c0.1-0.2,0.1-0.5,0.1-0.8v-5h1.5V374.6z"/>
		<path class="st1" d="M329.8,371.1c0-1,0-1.8-0.1-2.6h1.3l0.1,1.6h0.1c0.4-1.1,1.3-1.8,2.3-1.8c0.2,0,0.3,0,0.4,0.1v1.4
			c-0.2,0-0.3-0.1-0.5-0.1c-1.1,0-1.8,0.8-2,1.9c0,0.2-0.1,0.4-0.1,0.7v4.4h-1.5V371.1z"/>
		<path class="st1" d="M339.9,376.8l-0.1-1h-0.1c-0.5,0.6-1.3,1.2-2.5,1.2c-1.7,0-2.5-1.2-2.5-2.4c0-2,1.8-3.1,4.9-3.1v-0.2
			c0-0.7-0.2-1.9-1.9-1.9c-0.8,0-1.6,0.2-2.1,0.6l-0.3-1c0.7-0.4,1.7-0.7,2.7-0.7c2.5,0,3.1,1.7,3.1,3.4v3.1c0,0.7,0,1.4,0.1,2
			H339.9z M339.7,372.6c-1.6,0-3.5,0.3-3.5,1.9c0,1,0.6,1.4,1.4,1.4c1.1,0,1.8-0.7,2-1.4c0.1-0.2,0.1-0.3,0.1-0.5V372.6z"/>
		<path class="st1" d="M343.5,364.7h1.5v5.1h0c0.2-0.4,0.6-0.8,1.1-1.1c0.4-0.3,1-0.4,1.5-0.4c1.1,0,2.9,0.7,2.9,3.5v4.9H349v-4.7
			c0-1.3-0.5-2.4-1.9-2.4c-1,0-1.7,0.7-2,1.5c-0.1,0.2-0.1,0.4-0.1,0.7v5h-1.5V364.7z"/>
		<path class="st1" d="M358.6,375.5L358.6,375.5c-0.5,0.8-1.4,1.5-2.7,1.5c-1.9,0-3.5-1.7-3.5-4.2c0-3.1,2-4.4,3.7-4.4
			c1.3,0,2.1,0.6,2.5,1.4h0l0.1-1.2h1.4c0,0.7-0.1,1.4-0.1,2.3v9.3h-1.5V375.5z M358.6,371.9c0-0.2,0-0.4-0.1-0.6
			c-0.2-0.9-1-1.7-2.1-1.7c-1.5,0-2.5,1.3-2.5,3.2c0,1.6,0.8,3.1,2.4,3.1c1,0,1.8-0.6,2.1-1.6c0.1-0.2,0.1-0.5,0.1-0.7V371.9z"/>
		<path class="st1" d="M369.4,374.6c0,0.9,0,1.6,0.1,2.2h-1.3l-0.1-1.3h0c-0.4,0.7-1.3,1.5-2.7,1.5c-1.3,0-2.8-0.7-2.8-3.6v-4.8h1.5
			v4.6c0,1.6,0.5,2.6,1.8,2.6c1,0,1.7-0.7,2-1.4c0.1-0.2,0.1-0.5,0.1-0.8v-5h1.5V374.6z"/>
		<path class="st1" d="M371.9,371.1c0-1,0-1.8-0.1-2.6h1.3l0.1,1.6h0.1c0.4-1.1,1.3-1.8,2.3-1.8c0.2,0,0.3,0,0.4,0.1v1.4
			c-0.2,0-0.3-0.1-0.5-0.1c-1.1,0-1.8,0.8-2,1.9c0,0.2-0.1,0.4-0.1,0.7v4.4h-1.5V371.1z"/>
		<path class="st1" d="M381.9,376.8l-0.1-1h-0.1c-0.5,0.6-1.3,1.2-2.5,1.2c-1.7,0-2.5-1.2-2.5-2.4c0-2,1.8-3.1,4.9-3.1v-0.2
			c0-0.7-0.2-1.9-1.9-1.9c-0.8,0-1.6,0.2-2.1,0.6l-0.3-1c0.7-0.4,1.7-0.7,2.7-0.7c2.5,0,3.1,1.7,3.1,3.4v3.1c0,0.7,0,1.4,0.1,2
			H381.9z M381.7,372.6c-1.6,0-3.5,0.3-3.5,1.9c0,1,0.6,1.4,1.4,1.4c1.1,0,1.8-0.7,2-1.4c0.1-0.2,0.1-0.3,0.1-0.5V372.6z"/>
		<path class="st1" d="M385.6,370.8c0-0.9,0-1.5-0.1-2.2h1.3l0.1,1.4h0c0.4-0.8,1.4-1.5,2.7-1.5c1.1,0,2.9,0.7,2.9,3.5v4.9h-1.5
			v-4.7c0-1.3-0.5-2.4-1.9-2.4c-1,0-1.8,0.7-2,1.5c-0.1,0.2-0.1,0.4-0.1,0.7v4.9h-1.5V370.8z"/>
		<path class="st1" d="M394.6,375.9c0-0.6,0.4-1.1,1-1.1c0.6,0,1,0.4,1,1.1c0,0.6-0.4,1.1-1,1.1C395,377,394.6,376.5,394.6,375.9z"
			/>
		<path class="st1" d="M404.4,376.5c-0.4,0.2-1.3,0.5-2.4,0.5c-2.5,0-4.1-1.7-4.1-4.2c0-2.5,1.7-4.4,4.4-4.4c0.9,0,1.7,0.2,2.1,0.4
			l-0.3,1.2c-0.4-0.2-0.9-0.4-1.7-0.4c-1.9,0-2.9,1.4-2.9,3.1c0,1.9,1.2,3.1,2.9,3.1c0.8,0,1.4-0.2,1.8-0.4L404.4,376.5z"/>
		<path class="st1" d="M413.5,372.6c0,3-2.1,4.4-4.1,4.4c-2.2,0-3.9-1.6-3.9-4.2c0-2.8,1.8-4.4,4.1-4.4
			C411.9,368.4,413.5,370.1,413.5,372.6z M406.9,372.7c0,1.8,1,3.2,2.5,3.2c1.4,0,2.5-1.3,2.5-3.2c0-1.4-0.7-3.2-2.5-3.2
			S406.9,371.1,406.9,372.7z"/>
		<path class="st1" d="M415.4,370.8c0-0.9,0-1.5-0.1-2.2h1.3l0.1,1.3h0.1c0.5-0.8,1.2-1.5,2.6-1.5c1.1,0,2,0.7,2.3,1.6h0
			c0.3-0.5,0.6-0.8,0.9-1.1c0.5-0.4,1-0.6,1.8-0.6c1.1,0,2.7,0.7,2.7,3.6v4.8h-1.5v-4.7c0-1.6-0.6-2.5-1.8-2.5
			c-0.9,0-1.5,0.6-1.8,1.4c-0.1,0.2-0.1,0.5-0.1,0.7v5.1h-1.5v-4.9c0-1.3-0.6-2.3-1.7-2.3c-0.9,0-1.6,0.7-1.9,1.5
			c-0.1,0.2-0.1,0.5-0.1,0.7v5h-1.5V370.8z"/>
	</g>
</g>
<g id="Layer_4">
	<path class="st1" d="M404.6,102.7c0.7,0,2,1.8,4,5.3l-1.3,13.3c4.4,3.5,6.6,6.2,6.6,8c-0.5,2.2-1.4,3.4-2.7,3.4
		c-4.4-2.7-7.3-4-8.7-4c-10.3,11.3-21.6,19.3-33.9,23.9h-2v-0.7l30-22.6l2-3.3c0-1.6-1.3-4-4-7.4c0-8.9,2.9-14.2,8.7-16H404.6z
		 M272.2,103.4l-3.3,11.3v0.7c0,2.7,1.3,4.6,4,5.9l2-3.3h1.3v1.3c0,4.4-1.5,7.7-4.6,9.9c-4.4,0-6.6-3-6.6-8.9
		C264.9,114.5,267.4,108.8,272.2,103.4z M354,104.1h4v1.3h0.6c0,4.7-5.8,8.5-17.3,11.3c-33.9,11.9-62,25.2-84.4,39.9l-6,5.9v2l9.3,8
		v2c-0.5,4.4-1.4,6.6-2.7,6.6h-0.6c-8-4.2-12-8.6-12-13.3c0-13.4,18.2-27.5,54.5-42.6C319.8,116,338,109,354,104.1z M548.8,104.1
		c2.1,0,3.8,2.5,5.3,7.4c-0.9,2.7-1.8,4-2.7,4h-0.6l-5.3-4c-3.1,1.3-4.7,3.3-4.7,5.9l0.7,4.7c-1.2,16.4-2.7,24.6-4.7,24.6
		c-6.6-13.3-12.8-19.9-18.6-19.9l-4.6-4.6v-2c0-4,1.1-5.9,3.3-5.9c4.8,0.8,11.3,6.8,19.3,17.9h0.6c0.8-18.1,4.2-27.2,10-27.2
		L548.8,104.1z M227,105.4c2.7,1,4.7,15,6,41.9v8l0.6,2.7l-0.6,0.6c1.1,50.5,3,75.8,5.9,75.8c5.9,12.4,17.7,18.6,35.3,18.6h2.7
		c14.9,0,26-2.7,33.2-8v-1.3c-5.3-2.2-10.4-8.8-15.3-19.9l-1.3-7.3c0-12.2,7.3-22.4,22-30.6c4.6-2.2,10.4-3.4,17.5-3.4
		c7.1,0,15,4,23.7,12v1.3c-3.4-1.3-9.9-2.4-19.3-3.3c-24.4,4.6-36.5,10.3-36.5,17.3c0,8.7,6.9,16.9,20.6,24.6c3.3,1.4,6.9,2,10.6,2
		c6,0,19.9-5.6,41.9-16.7l3.3-0.6l0.7,0.6v0.7c-3.4,9.8-7.4,14.6-12,14.6c-44.8,20.8-75.4,31.2-91.8,31.2
		c-19.9,0-33.4-6.9-40.6-20.6c-4.4-14.7-6.6-26-6.6-34l0.7-2.7l-1.3-9.3l0.6-0.6v-0.7l-0.6-8l0.6-4.6l-0.6-0.7v-0.6l0.6-0.7
		c0-24.1-1.8-46.3-5.3-66.5C223.9,110.2,225.7,106.2,227,105.4z M587.4,121.3c1.5-10.2,4.3-15.2,8.6-15.2s6.7,6.9,7.4,20.6
		c2.7,3,4,5,4,6c-0.4,2.2-1.3,3.3-2.7,3.3l-4-2.7h-0.6c-2,0-6.4,3.8-13.3,11.3c-17,12.8-30.3,19.7-39.9,20.6h-0.7
		c0-0.8,7.8-5.7,23.3-14.6c9.2-5.1,17.3-11.6,24.6-19.2V130C589.6,126.1,587.4,123.2,587.4,121.3z M489.7,106.7h1.3l1.3,1.3
		c0,3.8-9.3,10.2-27.9,19.3c-20.4,12.8-31.5,19.2-33.2,19.2l-0.7-2c0-4.6,16.4-15.2,49.2-31.9L489.7,106.7z M148.5,107.4
		c3.9,0,6.6,3.5,8,10.6c-0.6,2.2-1.2,3.3-2,3.3h-0.7l-5.3-4.6h-0.6l-2,2v1.3c-0.9,17.1-2.7,26.6-5.3,28.6h-1.3
		c-1.5-6.7-5.5-12.9-12-18.6c-0.6,0-2.6,3.8-5.9,11.3l-15.3,10v-0.7l16.7-19.9v-1.3c-3.5-2.8-5.3-5.4-5.3-8h-0.7
		c0.9-4.4,2.2-6.6,4-6.6c6.4,2.9,12.9,9.3,19.3,19.3h2v-6C142.6,114.9,144.9,108.1,148.5,107.4z M193.1,108.7h1.3l-2,12v4.6
		c0,2.4,0.9,4,2.7,4.7h0.7c1.8-0.9,2.7-2.2,2.7-4h0.6l0.7,0.6h0.6c-1.7,7.1-3.4,11.1-5.3,12h-2c-3.1-2.1-4.7-5.5-4.6-10.2
		C188.6,123.6,190.1,117.1,193.1,108.7z M398.5,114.1c1.1,2.2,2.9,3.3,5.3,3.3v-4.6l-2.7-2.7C399.4,110.5,398.5,111.8,398.5,114.1z
		 M591.4,116c1.2,4.4,3.6,6.6,7.4,6.6V120c0-3.4-0.9-5.3-2.7-5.9h-2.7L591.4,116z M499,147.9v0.7l-2.7,10.6v1.3c0,4,1.5,7.1,4.6,9.3
		h1.3l4-4.7h0.7v1.3c0,6.5-2.5,10.3-7.4,11.3c-4.4-2.3-6.6-6.5-6.6-12.7C495,153.7,497,147.9,499,147.9z M179.1,150h2.7
		c5.9,3.6,9,6.7,9.3,9.3c-0.7,3-2.7,5.6-5.9,8c-7.6-2.9-11.3-6-11.3-9.3C175.6,153.8,177.3,151.2,179.1,150z M412.6,151.3
		c7.1,3.2,10.6,6.7,10.6,10.6c-1.1,3.1-2.8,5.7-5.3,8c-1.7,0-5.1-2.2-10-6.6h-0.6l-5.3,8h-1.3v0.6c-2.2,0-5.7-2.7-10.6-8v-2
		c0-3,1.8-5.9,5.3-8.7l10.6,5.3h0.6C406.5,156.6,408.5,154.2,412.6,151.3z M314.8,153.3c5,2.9,8.5,6.2,10.6,10
		c0,1.2-2.2,3.6-6.6,7.3h-2c-6.2-3.8-9.3-6.6-9.3-8.6C310,156.2,312.5,153.3,314.8,153.3z M597.4,154.6h1.3
		c-2.2,5.1-3.4,8.9-3.4,11.3c0,4.6,1.3,7.4,4,8.6h0.7l3.3-2.7h0.7v0.7c0,3.7-1.6,6.8-4.7,9.3h-0.6c-3.1,0-5.3-2.7-6.6-8
		C592.1,168.8,593.9,162.4,597.4,154.6z M98.7,164.6c0.9,0,1.3,0.7,1.3,2c-6.7,14.7-10,27.5-10,38.6v1.3c1.1,8,3.3,12,6.6,12
		c3.5-2.1,5.3-4.7,5.3-8h0.7l1.3,1.3c0,8-4.4,14.9-13.3,20.7c-7.6,13.1-11.3,23.7-11.3,31.9c0,5.6,2.2,10,6.6,13.3h6.6
		c7.6,0,20-9.8,37.2-29.3c11.5-10,24.8-16.7,39.9-19.9c21.8-4.3,32.6-8.9,32.6-14c0-2.5-4.4-4.3-13.3-5.3l-5.3,0.7
		c-8.4,0-13.3-4-14.6-12v-0.7c0-9.9,4.6-16.8,13.9-20.6l4-1.3c6.6,0,13.4,8,20.7,23.9c1.3,3,2,7.3,2,12.9s-3.1,11.8-9.3,18.3
		c-2.5,2.2-18.3,7.4-47.2,15.3c-9.1,3.1-22,13.7-38.6,31.9c-6.1,7.5-13.9,11.3-23.3,11.3c-10.6-4.1-16-13-16-26.6
		c0-6.7,4.7-18,14-33.9v-0.7c-3.1-7.2-4.7-13.6-4.7-19.2C84.7,196.8,89.3,182.2,98.7,164.6z M452.4,165.2c8.9,8.9,13.3,14.2,13.3,16
		v1.3H465l-3.3-0.6l-0.7,2c6.7,13.1,10,20.4,10,22l0.6,4.6c0,12.4-5.1,21.7-15.2,27.9c-2.9,2.5-4.9,6.5-6,12
		c2.3,15.1,8.7,22.6,19.3,22.6h8c11.7,0,28.5-11.3,50.5-33.9l2-2.7v-3.4c0-0.9-0.7-1.3-2-1.3c-6.3,1.4-13.2,2-20.7,2
		c-5.6,0-9.3-4-11.3-12v-4c3.2-12.4,9-18.6,17.3-18.6c5.4,0,11.6,5.1,18.6,15.2l2,0.7c2.3,0,8.7-4,19.3-12l4-1.3l2,2v6.6
		c0,6,5.1,9.6,15.3,10.6h1.3c8.3,0,15.8-7.3,22.6-21.9l2-0.7l0.7,0.7v0.6l-2.7,8v1.3c3.5,4.9,7.7,7.4,12.6,7.4h4.7l2-2v-2.7
		l-3.3-5.3c1.3-6.6,2.6-9.9,4-9.9c2.2,0,4.2,5.5,5.9,16.6c-1.6,11.5-6.7,17.3-15.2,17.3c-4.4,0-9.8-3.3-16-9.9
		c-6.7,8.9-14.1,13.3-22,13.3h-0.6c-8.1,0-13.7-4.7-16.7-14l-0.6-2.7c-11.5,4.7-17.3,10-17.3,16c0,10.9-10.2,24-30.6,39.3
		c-12.5,9.3-23,13.9-31.3,13.9h-3.3c-11.1,0-18.9-6.9-23.3-20.6l-0.6-10V249c0-0.9-0.7-1.3-2-1.3c-28.7,18.6-48.9,27.9-60.5,27.9
		c0,0.8-9.5,2.6-28.6,5.3l-0.6-0.6v-0.7c41-15.1,74.7-33.1,101.1-53.8c6.2-5.4,9.3-9.2,9.3-11.3c-1.7-4.8-5.5-12.5-11.3-23.2
		l-5.9-16C449.6,168.6,451,165.2,452.4,165.2z M141.9,167.9h0.7c-4,14.6-6,23.3-6,26v2.7c0,6,1.6,10.2,4.7,12.6c2.5,0,4.3-2,5.3-5.9
		l0.6-0.7h0.7l0.6,0.7c-1.7,11.1-4.5,16.6-8.6,16.6c-3.5,0-6.4-5.5-8.7-16.6C132.2,191.5,135.7,179.7,141.9,167.9z M424.5,175.2h1.3
		v0.6c-0.2,4.6-4.2,12.8-12,24.6v0.6c8.9,5.3,13.3,11.3,13.3,18c0,13.5-8.4,22.3-25.3,26.6c-7.1,0-10.6-4.9-10.6-14.6
		c0.9-5.3,3.1-12.6,6.6-22v-2c-11.1-9.9-16.7-16.8-16.7-20.7v-2.7c0-3.5,0.9-5.3,2.7-5.3c9.7,4.3,15.2,7.2,16.7,8.7l-3.4,3.3
		c3.3,4,6.1,6,8.7,6C406.7,196.5,412.9,189.4,424.5,175.2z M178.5,193.2v0.7c0,1.8,3.3,2.7,9.9,2.7h3.4v-1.3h0.6
		c0-1.4-1.8-3.1-5.3-5.3h-3.3C181.4,189.9,179.6,191,178.5,193.2z M273.5,190.5l0.7,0.7v0.6c-3.5,10.3-5.3,17.7-5.3,22
		c0.4,8.4,2,12.6,4.6,12.6h1.3c0.8,0,1.9-2,3.4-5.9h0.6l0.7,0.6v0.7c-1.7,9.8-4.2,14.6-7.4,14.6h-1.3c-4.8-3.3-7.3-7.2-7.3-12
		l0.6-0.7v-4.6c0-5.4,2.9-14.9,8.7-28.6H273.5z M397.2,225.1v4.7l2.7,2.7h4.7c4,0,9.3-3.1,16-9.3v-1.3c0-2.3-4.9-5.6-14.6-10
		C400.1,216.7,397.2,221.2,397.2,225.1z M504.3,217.1c0.9,2.2,3.2,3.4,6.6,3.4h2c4.9,0,7.4-0.7,7.4-2c-2.4-3.1-4.9-4.6-7.4-4.6h-3.3
		C507.2,213.8,505.4,214.9,504.3,217.1z M608.1,245.7v2c0,6.5-2.9,11.2-8.7,14l-5.9-1.3h-1.3c-2.7,2.2-5.4,3.3-8,3.3h-2
		c-1.4-1.3-4.3-2.2-8.6-2.7c-4.6,2-13,6.9-25.3,14.6l-10,2.7v-0.6l36.6-23.3h3.3l7.4,2.7h3.3c1.5,0,3.7-2.2,6.6-6.6h0.7
		c2,2.7,3.9,4,5.8,4c1.9,0,2.8-1.1,2.8-3.3l2-5.3H608.1z M226.4,258.3l0.6,0.7v0.6c0,5.3-14.4,12.9-43.2,22.6v-1.3h-0.7
		c0-4.2,8.2-9.1,24.6-14.6C213.8,262.6,220,260,226.4,258.3z M342.1,259h0.6c2.7,1.9,4,3.7,4,5.3c0,7-5.3,15-16,23.9l-4.6,0.6v-0.6
		c10.6-8.9,16-14.9,16-18V269l-2-2c-1.6,0-3.4,0.9-5.3,2.7h-0.6C334.1,263.9,336.7,260.4,342.1,259z M167.1,261v0.7
		c0,4.8-3.3,7.9-9.9,9.3l-18.6,8v-2C138.6,272,148.1,266.7,167.1,261z M163.9,275h1.3v1.3h0.6c0,4.3-7.1,8.2-21.3,12
		c0,1-3.1,2.3-9.3,4l-0.6-0.7v-0.6C134.6,286.2,144.3,280.8,163.9,275z"/>
</g>
</svg>
