<?xml version="1.0" encoding="utf-8"?>
<!-- Generator: Adobe Illustrator 25.2.3, SVG Export Plug-In . SVG Version: 6.00 Build 0)  -->
<svg version="1.1" xmlns="http://www.w3.org/2000/svg" xmlns:xlink="http://www.w3.org/1999/xlink" x="0px" y="0px"
	 viewBox="0 0 700 395" style="enable-background:new 0 0 700 395;" xml:space="preserve">
<style type="text/css">
	.st0{fill:#000222;}
	.st1{fill:#FFFFFF;}
</style>
<g id="Layer_1">
	<rect class="st0" width="700" height="395"/>
</g>
<g id="Layer_3">
	<g>
		<path class="st1" d="M273.5,368.6l1.1,4.2c0.2,0.9,0.5,1.8,0.6,2.6h0.1c0.2-0.8,0.5-1.7,0.7-2.6l1.3-4.2h1.3l1.3,4.1
			c0.3,1,0.5,1.9,0.7,2.7h0.1c0.1-0.8,0.4-1.7,0.6-2.7l1.2-4.1h1.5l-2.7,8.2H280l-1.3-3.9c-0.3-0.9-0.5-1.7-0.7-2.7h0
			c-0.2,1-0.5,1.8-0.7,2.7l-1.3,3.9h-1.4l-2.5-8.2H273.5z"/>
		<path class="st1" d="M286.3,368.6l1.1,4.2c0.2,0.9,0.5,1.8,0.6,2.6h0.1c0.2-0.8,0.5-1.7,0.7-2.6l1.3-4.2h1.3l1.3,4.1
			c0.3,1,0.5,1.9,0.7,2.7h0.1c0.1-0.8,0.4-1.7,0.6-2.7l1.2-4.1h1.5l-2.7,8.2h-1.4l-1.3-3.9c-0.3-0.9-0.5-1.7-0.7-2.7h0
			c-0.2,1-0.5,1.8-0.7,2.7l-1.3,3.9h-1.4l-2.5-8.2H286.3z"/>
		<path class="st1" d="M299,368.6l1.1,4.2c0.2,0.9,0.5,1.8,0.6,2.6h0.1c0.2-0.8,0.5-1.7,0.7-2.6l1.3-4.2h1.3l1.3,4.1
			c0.3,1,0.5,1.9,0.7,2.7h0.1c0.1-0.8,0.4-1.7,0.6-2.7l1.2-4.1h1.5l-2.7,8.2h-1.4l-1.3-3.9c-0.3-0.9-0.5-1.7-0.7-2.7h0
			c-0.2,1-0.5,1.8-0.7,2.7l-1.3,3.9h-1.4l-2.5-8.2H299z"/>
		<path class="st1" d="M309.9,375.9c0-0.6,0.4-1.1,1-1.1c0.6,0,1,0.4,1,1.1c0,0.6-0.4,1.1-1,1.1C310.3,377,309.9,376.5,309.9,375.9z
			"/>
		<path class="st1" d="M313.5,375.3c0.4,0.3,1.2,0.6,2,0.6c1.1,0,1.6-0.5,1.6-1.2c0-0.7-0.4-1.1-1.5-1.5c-1.5-0.5-2.2-1.3-2.2-2.3
			c0-1.3,1.1-2.4,2.8-2.4c0.8,0,1.6,0.2,2,0.5l-0.4,1.1c-0.3-0.2-0.9-0.5-1.7-0.5c-0.9,0-1.4,0.5-1.4,1.1c0,0.7,0.5,1,1.6,1.4
			c1.4,0.5,2.2,1.3,2.2,2.5c0,1.4-1.1,2.5-3.1,2.5c-0.9,0-1.7-0.2-2.3-0.6L313.5,375.3z"/>
		<path class="st1" d="M327.4,374.6c0,0.9,0,1.6,0.1,2.2h-1.3l-0.1-1.3h0c-0.4,0.7-1.3,1.5-2.7,1.5c-1.3,0-2.8-0.7-2.8-3.6v-4.8h1.5
			v4.6c0,1.6,0.5,2.6,1.8,2.6c1,0,1.7-0.7,2-1.4c0.1-0.2,0.1-0.5,0.1-0.8v-5h1.5V374.6z"/>
		<path class="st1" d="M329.8,371.1c0-1,0-1.8-0.1-2.6h1.3l0.1,1.6h0.1c0.4-1.1,1.3-1.8,2.3-1.8c0.2,0,0.3,0,0.4,0.1v1.4
			c-0.2,0-0.3-0.1-0.5-0.1c-1.1,0-1.8,0.8-2,1.9c0,0.2-0.1,0.4-0.1,0.7v4.4h-1.5V371.1z"/>
		<path class="st1" d="M339.9,376.8l-0.1-1h-0.1c-0.5,0.6-1.3,1.2-2.5,1.2c-1.7,0-2.5-1.2-2.5-2.4c0-2,1.8-3.1,4.9-3.1v-0.2
			c0-0.7-0.2-1.9-1.9-1.9c-0.8,0-1.6,0.2-2.1,0.6l-0.3-1c0.7-0.4,1.7-0.7,2.7-0.7c2.5,0,3.1,1.7,3.1,3.4v3.1c0,0.7,0,1.4,0.1,2
			H339.9z M339.7,372.6c-1.6,0-3.5,0.3-3.5,1.9c0,1,0.6,1.4,1.4,1.4c1.1,0,1.8-0.7,2-1.4c0.1-0.2,0.1-0.3,0.1-0.5V372.6z"/>
		<path class="st1" d="M343.5,364.7h1.5v5.1h0c0.2-0.4,0.6-0.8,1.1-1.1c0.4-0.3,1-0.4,1.5-0.4c1.1,0,2.9,0.7,2.9,3.5v4.9H349v-4.7
			c0-1.3-0.5-2.4-1.9-2.4c-1,0-1.7,0.7-2,1.5c-0.1,0.2-0.1,0.4-0.1,0.7v5h-1.5V364.7z"/>
		<path class="st1" d="M358.6,375.5L358.6,375.5c-0.5,0.8-1.4,1.5-2.7,1.5c-1.9,0-3.5-1.7-3.5-4.2c0-3.1,2-4.4,3.7-4.4
			c1.3,0,2.1,0.6,2.5,1.4h0l0.1-1.2h1.4c0,0.7-0.1,1.4-0.1,2.3v9.3h-1.5V375.5z M358.6,371.9c0-0.2,0-0.4-0.1-0.6
			c-0.2-0.9-1-1.7-2.1-1.7c-1.5,0-2.5,1.3-2.5,3.2c0,1.6,0.8,3.1,2.4,3.1c1,0,1.8-0.6,2.1-1.6c0.1-0.2,0.1-0.5,0.1-0.7V371.9z"/>
		<path class="st1" d="M369.4,374.6c0,0.9,0,1.6,0.1,2.2h-1.3l-0.1-1.3h0c-0.4,0.7-1.3,1.5-2.7,1.5c-1.3,0-2.8-0.7-2.8-3.6v-4.8h1.5
			v4.6c0,1.6,0.5,2.6,1.8,2.6c1,0,1.7-0.7,2-1.4c0.1-0.2,0.1-0.5,0.1-0.8v-5h1.5V374.6z"/>
		<path class="st1" d="M371.9,371.1c0-1,0-1.8-0.1-2.6h1.3l0.1,1.6h0.1c0.4-1.1,1.3-1.8,2.3-1.8c0.2,0,0.3,0,0.4,0.1v1.4
			c-0.2,0-0.3-0.1-0.5-0.1c-1.1,0-1.8,0.8-2,1.9c0,0.2-0.1,0.4-0.1,0.7v4.4h-1.5V371.1z"/>
		<path class="st1" d="M381.9,376.8l-0.1-1h-0.1c-0.5,0.6-1.3,1.2-2.5,1.2c-1.7,0-2.5-1.2-2.5-2.4c0-2,1.8-3.1,4.9-3.1v-0.2
			c0-0.7-0.2-1.9-1.9-1.9c-0.8,0-1.6,0.2-2.1,0.6l-0.3-1c0.7-0.4,1.7-0.7,2.7-0.7c2.5,0,3.1,1.7,3.1,3.4v3.1c0,0.7,0,1.4,0.1,2
			H381.9z M381.7,372.6c-1.6,0-3.5,0.3-3.5,1.9c0,1,0.6,1.4,1.4,1.4c1.1,0,1.8-0.7,2-1.4c0.1-0.2,0.1-0.3,0.1-0.5V372.6z"/>
		<path class="st1" d="M385.6,370.8c0-0.9,0-1.5-0.1-2.2h1.3l0.1,1.4h0c0.4-0.8,1.4-1.5,2.7-1.5c1.1,0,2.9,0.7,2.9,3.5v4.9h-1.5
			v-4.7c0-1.3-0.5-2.4-1.9-2.4c-1,0-1.8,0.7-2,1.5c-0.1,0.2-0.1,0.4-0.1,0.7v4.9h-1.5V370.8z"/>
		<path class="st1" d="M394.6,375.9c0-0.6,0.4-1.1,1-1.1c0.6,0,1,0.4,1,1.1c0,0.6-0.4,1.1-1,1.1C395,377,394.6,376.5,394.6,375.9z"
			/>
		<path class="st1" d="M404.4,376.5c-0.4,0.2-1.3,0.5-2.4,0.5c-2.5,0-4.1-1.7-4.1-4.2c0-2.5,1.7-4.4,4.4-4.4c0.9,0,1.7,0.2,2.1,0.4
			l-0.3,1.2c-0.4-0.2-0.9-0.4-1.7-0.4c-1.9,0-2.9,1.4-2.9,3.1c0,1.9,1.2,3.1,2.9,3.1c0.8,0,1.4-0.2,1.8-0.4L404.4,376.5z"/>
		<path class="st1" d="M413.5,372.6c0,3-2.1,4.4-4.1,4.4c-2.2,0-3.9-1.6-3.9-4.2c0-2.8,1.8-4.4,4.1-4.4
			C411.9,368.4,413.5,370.1,413.5,372.6z M406.9,372.7c0,1.8,1,3.2,2.5,3.2c1.4,0,2.5-1.3,2.5-3.2c0-1.4-0.7-3.2-2.5-3.2
			S406.9,371.1,406.9,372.7z"/>
		<path class="st1" d="M415.4,370.8c0-0.9,0-1.5-0.1-2.2h1.3l0.1,1.3h0.1c0.5-0.8,1.2-1.5,2.6-1.5c1.1,0,2,0.7,2.3,1.6h0
			c0.3-0.5,0.6-0.8,0.9-1.1c0.5-0.4,1-0.6,1.8-0.6c1.1,0,2.7,0.7,2.7,3.6v4.8h-1.5v-4.7c0-1.6-0.6-2.5-1.8-2.5
			c-0.9,0-1.5,0.6-1.8,1.4c-0.1,0.2-0.1,0.5-0.1,0.7v5.1h-1.5v-4.9c0-1.3-0.6-2.3-1.7-2.3c-0.9,0-1.6,0.7-1.9,1.5
			c-0.1,0.2-0.1,0.5-0.1,0.7v5h-1.5V370.8z"/>
	</g>
</g>
<g id="Layer_4">
	<path class="st1" d="M224.9,97.9l1.9,0.7v1.3c0,3.6-5.1,6.5-15.2,8.6c-36.4,14.8-57.6,24.3-63.7,28.6l-1.3,2.7
		c0,1.3,0.6,1.9,1.9,1.9l3.4,4.7l-1.3,3.3h-0.7c-3.1,0-5.5-2.2-7.3-6.6c1-8.7,5.4-14.3,13.3-16.6C164.9,121.2,188,111.6,224.9,97.9z
		 M113.9,107.9h2.7c3.1,1.8,4.7,4.9,4.7,9.3l-0.7,1.9h-1.3l-4.6-3.3h-2c-1.3,0-2.4,6.2-3.3,18.6c-1.9,6.6-3.3,9.9-4,9.9h-0.7
		c-5.2-12.8-9.8-19.2-13.9-19.2l-0.7,0.6h-0.6c-5.3-1.9-8-4.1-8-6.6c0-2.2,1.1-4.4,3.3-6.6h0.7c5.3,0,11.7,6.2,19.2,18.6v0.7h2
		C107.5,117.7,110,109.7,113.9,107.9z M430.7,107.9h1.3c2.2,1.1,3.3,2.9,3.3,5.3v0.6l-1.3,11.3l6.6,9.9l-0.6,2.7h-2l-5.9-4h-2
		c-12.6,11.9-24.3,19.2-35.1,22h-2c0.1-0.9,10-7.5,29.9-19.9c2.2-2.3,3.3-4.3,3.3-6l-4-7.3C422,116.4,424.9,111.5,430.7,107.9z
		 M369.6,111.9c4,1.5,5.9,3.9,5.9,7.3v3.4l-1.3,7.3v1.3l2,6l-1.3,4h-0.7l-2.7-2h-1.3c-15.6,14.5-29.7,24-42.5,28.6h-1.9V167
		c23.2-16.1,36.9-26.4,41.2-31.2v-0.7c-4-5-6-8.1-6-9.3C360.9,120,363.8,115.4,369.6,111.9z M574.7,114.5h1.3
		c3.1,1.9,4.7,4.2,4.7,6.6v0.6c0,1.7-0.7,3-2,4l-5.3-4h-0.6c-3.1,0-4.7,3.5-4.7,10.6c-1.3,12.3-2.6,20.2-4,23.9h-0.6
		c-6.9-13.7-13.1-20.5-18.6-20.5c-2.9-2.3-4.5-4.3-4.7-6c0-3.7,1.1-5.7,3.4-5.9c3.5,0,9.9,6,19.2,17.9h0.7
		C564.7,123.6,568.5,114.5,574.7,114.5z M278.6,115.2c4,1.4,6,4.2,6,8.7c-0.6,2.2-1.3,3.3-2,3.3c-3.2-2.7-5.5-4-6.6-4
		c-1.8,0.5-2.7,1.8-2.7,4v2c0,11-1.1,19.2-3.3,24.5h-2c-5.2-10.6-9.4-15.9-12.6-15.9c-4,7.7-8.4,12.6-13.3,14.6
		c-6.5,3.9-11.2,5.9-14,6l-0.6-0.7v-1.3c8.7-4,16.4-9.5,23.2-16.6l0.7-2.7v-0.7c-4-4-6-6.4-6-7.3c0.5-2.5,1.8-4.5,4-6
		c3.4,0,9.8,6,19.3,18h0.6C270.4,124.8,273.5,116.1,278.6,115.2z M426,119.9l4,3.3h1.3l0.7-3.3c0-2.3-0.7-3.6-2-4
		C427.3,115.9,426,117.2,426,119.9z M519,115.2l0.7,2c0,2.9-11.1,9.5-33.2,19.9c-18.3,10.2-28,15.2-29.2,15.2v-1.9
		c0-4,10.2-10.6,30.5-19.9C506.4,120.3,516.8,115.2,519,115.2z M622.6,117.8c4,0,6,3.5,6,10.6v9.3l4.6,6.6c-0.6,2.2-1.2,3.4-1.9,3.4
		c-2.7-1.8-4.7-2.7-6-2.7h-0.6c-20.2,17.5-37.3,27.3-51.2,29.2h-0.6v-0.7c2.4-2,9.9-6.2,22.6-12.6c14.6-8.6,23-14.8,25.2-18.6
		c-4.4-5.3-6.6-8.6-6.6-10C614,126.5,616.8,121.6,622.6,117.8z M317.8,118.5v0.6l-1.3,10c0.2,7.1,1.6,10.6,4,10.6l4-4v1.3
		c0,5.7-2.2,9-6.6,9.9c-3.1-1.1-4.7-4.8-4.7-11.2v-2.7C314.5,123.4,316,118.5,317.8,118.5z M366.2,120.5c-0.9,0-1.3,0.6-1.3,1.8
		s1.8,3,5.3,5.6h2v-2.7c0-2.4-0.9-3.9-2.7-4.7H366.2z M198.9,121.2c2.7,0,6.3,30.3,10.6,90.9c1.6,27,7.1,41.8,16.6,44.5l4,0.6h5.9
		c6.5,0,14.3-6.4,23.3-19.2l0.6-0.7h1.3c0.6,0,1.5,3.3,2.7,10c3,3.4,5.9,5.8,8.7,7.3h1.9c1.8-1.2,7.5-8.8,17.3-22.6
		c8.7-10.7,18.9-17.5,30.5-20.5l0.7,0.6h2.7l0.6-0.6c9.7,1.8,17.2,5.6,22.6,11.2c3.5,5.2,5.3,9.4,5.3,12.7c-1.8,8.1-4,13.6-6.6,16.6
		v1.3l1.3,1.3h0.7c22.8-5.7,37.2-11,43.1-15.9V238c0-3.2-5.5-5-16.6-5.3v0.6c-12-1.5-18-5.5-18-12c2.7-14.6,7.6-21.9,14.6-21.9
		l0.7-0.7l1.9-0.6c6.1,0,12.5,5.3,19.3,15.9c3.1,6.1,4.6,11.4,4.6,15.9c0,11.3-4,18.8-12,22.6c-12.9,6.2-31.2,11.5-55.1,15.9
		l-23.3,2.7h-1.9l-0.7,0.6l-0.6-0.6l-8,0.6c-7.6,0-15.8-0.9-24.6-2.7h-0.6c-1.8,0-4,1.8-6.6,5.3h-1.3v-0.6l1.9-4.7v-2.7
		c-6.2-6.5-9.3-10.5-9.3-12h-2.7c-6.7,10.2-14.7,15.3-23.9,15.3c-10.4,0-18.2-6.6-23.2-19.9h-2c0,7.1-6.6,12.4-19.9,15.9h-1.3
		c-9.9,0-15.7-3.5-17.3-10.6c-0.9-4.4-1.8-6.6-2.7-6.6c-3.6,1.1-13.5,5.8-29.8,13.9c-16.5,6.2-30.2,9.3-41.3,9.3s-20.8-2.4-29.1-7.3
		c-8.4-6-12.7-14.2-12.7-24.6c0.8-9.6,3.7-18,8.7-25.2v-0.6c-2.7-7-4-12.1-4-15.3c0-6.6,2.4-18.5,7.3-35.9h2v1.3l-4.7,22.6v8.7
		c0,3.2,1.8,6.3,5.3,9.3h2c1.4,0,2.7-2.7,4-8h1.3l0.6,1.9c-1.5,11.5-5.2,17.3-11.2,17.3c-1.5,1.8-3,5.1-4.7,10v10.6
		c0,6.1,4.2,11.9,12.7,17.3c7.6,3.5,16.5,5.3,26.6,5.3c16.8,0,40.2-8.2,70.4-24.6l2.7-0.6l1.3,1.9l-0.7,8.7c2.1,5.7,6.8,8.6,14,8.6
		c11.9-2.4,17.9-6.4,17.9-12l0.7-6.6c-2.2-33.2-5.1-67.9-8.7-104.2v-1.3C196.6,124.3,198,121.6,198.9,121.2z M618,127.8v1.9
		c0.9,1.7,2.7,3.3,5.3,4.7h1.3c0.9,0,1.3-0.7,1.3-2c-0.7-4.8-1.8-7.3-3.4-7.3C620.2,125.2,618.7,126.1,618,127.8z M440.6,156.3
		c5.8,4.2,8.7,7.6,8.7,10.2s-2.2,5.1-6.6,7.8l-10-6.6c-2.5,4.6-4.5,7.3-5.9,8H426c-5.7-3.4-9-6.3-9.9-8.7c1.4-5.4,3-8.2,4.6-8.6h3.4
		l7.3,5.3h0.7l5.3-7.3H440.6z M525,156.3v0.7l-1.3,1.3v-0.7L525,156.3z M523.7,159v1.3l-0.7,2l-0.6-0.7h-0.7
		C522.3,159.9,523,159,523.7,159z M113.3,159.7h8.6c4.4,0.5,6.6,1.4,6.6,2.7c-2.8,8.3-7.9,14.3-15.2,17.9l-7.3,2h-0.6l10.6-10
		c0-0.9-0.7-1.3-2-1.3c-7.3,0-12.3,0.9-15.2,2.7L98,173v-0.7C98,165.7,103.1,161.5,113.3,159.7z M521.6,162.4l0.7,0.6h0.6l-0.6,0.7
		v5.9c0,3.5,1.3,6.2,4,8c1.8,0,3.5-1.3,5.3-4h0.6c-1.6,8-3.8,12-6.6,12c-3.7,0-5.9-4-6.6-12L521.6,162.4z M623.9,166.3v1.3l-1.9,1.9
		v-1.3L623.9,166.3z M172.4,167.7v0.6c-2.7,9.9-4,16.1-4,18.6c0,5.7,1.6,9.4,4.7,11.3h0.6c2.7-1.7,4-3.7,4-6h0.7l0.6,0.7h0.7
		c-1.8,10.2-4.3,15.2-7.3,15.2c-4.3,0-7-4.6-8-13.9v-0.7c0-4.9,2.2-13.5,6.6-25.9H172.4z M365.6,171.6h1.9c5.3,3.2,8,6.1,8,8.6
		c-0.6,1.9-2.6,4.6-5.9,8c-2.2-0.6-5.3-3-9.3-7.3v-2.7C361.7,175.2,363.5,173,365.6,171.6z M620.6,171.6h0.6l-0.6,4.6
		c0,6.2,1.8,9.3,5.3,9.3l2.7-1.9h0.6c-1.9,6.2-3.7,9.3-5.3,9.3c-4.4-0.7-6.6-4-6.6-10C618.1,177.9,619.3,174.2,620.6,171.6z
		 M477.8,172.3l13.3,14.6v0.7l-1.3,1.3h-4c5.1,10.4,8.5,18.6,10,24.5v1.3c0,14.2-5.5,24.3-16.6,30.5c-3.5,3.9-5.3,8.1-5.3,12.7
		c0,10,5.5,17.1,16.6,21.2h6.6c17.2,0,36.2-11.7,57.1-35.2v-1.3l-2.7-2.7c-4.2,1.4-9.7,2-16.6,2c-9.7-1.1-14.6-5-14.6-12v-3.4
		c0-8.7,4.9-15.1,14.6-19.2h2.7c5.9,0,12.3,5.3,19.3,15.9h1.3c4-0.9,11-4.9,21.2-12l3.3-0.7c0,9.9,2.4,15.8,7.3,18
		c1.7,1.3,3.6,1.9,5.9,1.9h6c6.5,0,13.3-6.6,20.5-19.9l0.7-0.6h1.9v1.3c0,1.5-0.6,3-1.9,4.6v3.4c0,3.7,3.5,6.4,10.6,8h5.9l2-2v-1.9
		l-3.4-4.7c1.9-7.1,3.5-10.6,4.7-10.6c1.8,1.7,3.6,6.8,5.3,15.3c-2.2,11.9-6.2,17.9-12,17.9h-4.7c-3.9,0-8.8-3.3-14.6-9.9
		c-7.1,8.4-14.2,12.6-21.2,12.6c-12.4-1.9-18.6-7.9-18.6-17.9h-0.6c-12,5.1-18,12.4-18,21.9c-4,11.9-17.9,24.9-41.8,39.2
		c-8,3.5-15.3,5.3-22,5.3c-14.3,0-22.7-8.9-25.2-26.6l1.3-13.3h-0.6c-1.5,0-4.6,1.8-9.3,5.3c-25.4,14.6-44.5,21.9-57.1,21.9l-25.9,4
		v-1.9l39.2-14.6c24.4-10.5,46.1-22.9,65.1-37.2c4.8-3.9,7.3-7,7.3-9.3v-0.7c0-1.4-4-10.9-12-28.5l-3.3-10.6
		C475.5,175.2,476.6,172.3,477.8,172.3z M303.2,173.6h0.6c3.5,8.4,5.3,13.7,5.3,15.9c-1.1,6.7-3.5,10-7.3,10l-8.7-3.4
		c-4,4.9-6.8,7.3-8.6,7.3c-3.8,0-6.3-2.9-7.3-8.7c0.6-7.1,1.5-10.6,2.7-10.6h0.7l-0.7,2c0,6.6,2.2,9.9,6.6,9.9
		c3.5-1.8,5.3-4,5.3-6.6l-0.6-8.6c0.4-3.1,1-4.7,1.8-4.7c0.8,0,2,4.2,3.5,12.7c2.7,2.2,4.6,3.3,5.9,3.3l2-1.3l-3.4-11.2
		C301.4,175.6,302.1,173.6,303.2,173.6z M450.6,180.2h0.6v0.7c0,4.5-4.2,12.5-12.6,23.9c0,0.8,2.7,3,8,6.6c3.1,5.7,4.6,9.7,4.6,12
		c0,12.3-6.2,20.5-18.6,24.5c0,1.4-3.3,2-9.9,2c-4.4-1.8-6.6-6-6.6-12.8s2.4-14.9,7.3-24.3v-1.3c-10.6-10.8-15.9-17-15.9-18.6
		l-0.6-4.7c0.6-4,1.5-5.9,2.7-5.9c10.6,5.1,16.1,8.2,16.6,9.3c0,1-1.1,1.7-3.3,1.9v1.3c2.8,3.5,5.4,5.3,8,5.3h1.3L450.6,180.2z
		 M242.1,184.2v0.7c-2.7,8-4,13.5-4,16.6v1.3c0,3.5,1.3,6.2,4,8h1.3c1.1,0,2.2-1.8,3.3-5.3h1.3v0.7c0,5.7-2.4,10.5-7.3,14.6
		c-3.9,0-6.1-3.1-6.6-9.3v-6.6C236.7,193.5,239.3,186.6,242.1,184.2z M105.9,206.8c5.1,3.5,8.1,5.3,9.1,5.3c1,0,2.8-1.8,5.5-5.3h2.7
		c5.1,4,8,6.9,8.7,8.7v0.6c0,2.2-1.8,5.1-5.3,8.7c-5.7-4.4-9.3-6.6-10.6-6.6c-1.2,0.5-2.8,2.5-4.7,5.9h-2.7
		c-5.7-3.4-8.6-6.5-8.6-9.3C101.1,211.7,103.1,209,105.9,206.8z M367,214.8c1.2,2.7,3.8,4,8,4h4l3.3-0.6v-1.3
		c-2.7-3.5-6-5.3-9.9-5.3C369.8,211.5,368.1,212.6,367,214.8z M421.4,230.1v3.3l3.3,3.4h3.4c5.2,0,10.7-3.1,16.6-9.3v-2
		c-5.2-5.3-10.1-8.4-14.6-9.3C424.3,221.6,421.4,226.2,421.4,230.1z M529,224.1v1.3c0,1.2,1.8,2.1,5.3,2.7h5.3l4.6-0.6v-1.3
		c-2.7-3.5-6-5.3-9.9-5.3C531.9,220.8,530.2,221.9,529,224.1z M282,254.6v2c0.2,1.3,2,1.9,5.3,1.9h11.2c17.1,0,32.1-4.4,45.2-13.3
		l2-2.7v-1.3c-4.4-10.2-10-15.2-16.6-15.2c0-0.8-1.5-1.2-4.6-1.3h-8C308.4,224.8,296.9,234.7,282,254.6z M630.5,257.3l0.7,0.7v0.6
		c-2.5,9.3-5.4,14-8.7,14l-8-1.3l-7.3,3.3l-8-3.3c-5.6,0-14.3,4.2-25.9,12.6c-5.7,2.2-9.9,3.4-12.6,3.4v-2c1.8,0,13.1-6.4,33.8-19.2
		l5.3-2l7.3,3.4h2.7c2.5,0,5.6-2.2,9.3-6.6h0.6c0,3.1,2,4.6,6,4.6C628.2,259.9,629.8,257.3,630.5,257.3z M153.1,263.9h1.3v0.7
		l-2.7,10.6c1.7,4.4,3.4,6.6,5.3,6.6l2.7-1.3v1.3c-1.2,4.8-3,7.3-5.3,7.3c-4-2.3-6-5.4-6-9.3C148.4,277.9,150,272.6,153.1,263.9z
		 M319.1,275.2l1.9,0.6c0,4.8-9.1,9-27.2,12.7l-29.9,8.6l-0.6-1.9c0-3.2,11.5-7.6,34.5-13.3L319.1,275.2z"/>
</g>
</svg>
