<?xml version="1.0" encoding="utf-8"?>
<!-- Generator: Adobe Illustrator 25.2.3, SVG Export Plug-In . SVG Version: 6.00 Build 0)  -->
<svg version="1.1" xmlns="http://www.w3.org/2000/svg" xmlns:xlink="http://www.w3.org/1999/xlink" x="0px" y="0px"
	 viewBox="0 0 700 395" style="enable-background:new 0 0 700 395;" xml:space="preserve">
<style type="text/css">
	.st0{fill:#000222;}
	.st1{fill:#FFFFFF;}
</style>
<g id="Layer_1">
	<rect class="st0" width="700" height="395"/>
</g>
<g id="Layer_3">
	<g>
		<path class="st1" d="M273.5,368.6l1.1,4.2c0.2,0.9,0.5,1.8,0.6,2.6h0.1c0.2-0.8,0.5-1.7,0.7-2.6l1.3-4.2h1.3l1.3,4.1
			c0.3,1,0.5,1.9,0.7,2.7h0.1c0.1-0.8,0.4-1.7,0.6-2.7l1.2-4.1h1.5l-2.7,8.2H280l-1.3-3.9c-0.3-0.9-0.5-1.7-0.7-2.7h0
			c-0.2,1-0.5,1.8-0.7,2.7l-1.3,3.9h-1.4l-2.5-8.2H273.5z"/>
		<path class="st1" d="M286.3,368.6l1.1,4.2c0.2,0.9,0.5,1.8,0.6,2.6h0.1c0.2-0.8,0.5-1.7,0.7-2.6l1.3-4.2h1.3l1.3,4.1
			c0.3,1,0.5,1.9,0.7,2.7h0.1c0.1-0.8,0.4-1.7,0.6-2.7l1.2-4.1h1.5l-2.7,8.2h-1.4l-1.3-3.9c-0.3-0.9-0.5-1.7-0.7-2.7h0
			c-0.2,1-0.5,1.8-0.7,2.7l-1.3,3.9h-1.4l-2.5-8.2H286.3z"/>
		<path class="st1" d="M299,368.6l1.1,4.2c0.2,0.9,0.5,1.8,0.6,2.6h0.1c0.2-0.8,0.5-1.7,0.7-2.6l1.3-4.2h1.3l1.3,4.1
			c0.3,1,0.5,1.9,0.7,2.7h0.1c0.1-0.8,0.4-1.7,0.6-2.7l1.2-4.1h1.5l-2.7,8.2h-1.4l-1.3-3.9c-0.3-0.9-0.5-1.7-0.7-2.7h0
			c-0.2,1-0.5,1.8-0.7,2.7l-1.3,3.9h-1.4l-2.5-8.2H299z"/>
		<path class="st1" d="M309.9,375.9c0-0.6,0.4-1.1,1-1.1c0.6,0,1,0.4,1,1.1c0,0.6-0.4,1.1-1,1.1C310.3,377,309.9,376.5,309.9,375.9z
			"/>
		<path class="st1" d="M313.5,375.3c0.4,0.3,1.2,0.6,2,0.6c1.1,0,1.6-0.5,1.6-1.2c0-0.7-0.4-1.1-1.5-1.5c-1.5-0.5-2.2-1.3-2.2-2.3
			c0-1.3,1.1-2.4,2.8-2.4c0.8,0,1.6,0.2,2,0.5l-0.4,1.1c-0.3-0.2-0.9-0.5-1.7-0.5c-0.9,0-1.4,0.5-1.4,1.1c0,0.7,0.5,1,1.6,1.4
			c1.4,0.5,2.2,1.3,2.2,2.5c0,1.4-1.1,2.5-3.1,2.5c-0.9,0-1.7-0.2-2.3-0.6L313.5,375.3z"/>
		<path class="st1" d="M327.4,374.6c0,0.9,0,1.6,0.1,2.2h-1.3l-0.1-1.3h0c-0.4,0.7-1.3,1.5-2.7,1.5c-1.3,0-2.8-0.7-2.8-3.6v-4.8h1.5
			v4.6c0,1.6,0.5,2.6,1.8,2.6c1,0,1.7-0.7,2-1.4c0.1-0.2,0.1-0.5,0.1-0.8v-5h1.5V374.6z"/>
		<path class="st1" d="M329.8,371.1c0-1,0-1.8-0.1-2.6h1.3l0.1,1.6h0.1c0.4-1.1,1.3-1.8,2.3-1.8c0.2,0,0.3,0,0.4,0.1v1.4
			c-0.2,0-0.3-0.1-0.5-0.1c-1.1,0-1.8,0.8-2,1.9c0,0.2-0.1,0.4-0.1,0.7v4.4h-1.5V371.1z"/>
		<path class="st1" d="M339.9,376.8l-0.1-1h-0.1c-0.5,0.6-1.3,1.2-2.5,1.2c-1.7,0-2.5-1.2-2.5-2.4c0-2,1.8-3.1,4.9-3.1v-0.2
			c0-0.7-0.2-1.9-1.9-1.9c-0.8,0-1.6,0.2-2.1,0.6l-0.3-1c0.7-0.4,1.7-0.7,2.7-0.7c2.5,0,3.1,1.7,3.1,3.4v3.1c0,0.7,0,1.4,0.1,2
			H339.9z M339.7,372.6c-1.6,0-3.5,0.3-3.5,1.9c0,1,0.6,1.4,1.4,1.4c1.1,0,1.8-0.7,2-1.4c0.1-0.2,0.1-0.3,0.1-0.5V372.6z"/>
		<path class="st1" d="M343.5,364.7h1.5v5.1h0c0.2-0.4,0.6-0.8,1.1-1.1c0.4-0.3,1-0.4,1.5-0.4c1.1,0,2.9,0.7,2.9,3.5v4.9H349v-4.7
			c0-1.3-0.5-2.4-1.9-2.4c-1,0-1.7,0.7-2,1.5c-0.1,0.2-0.1,0.4-0.1,0.7v5h-1.5V364.7z"/>
		<path class="st1" d="M358.6,375.5L358.6,375.5c-0.5,0.8-1.4,1.5-2.7,1.5c-1.9,0-3.5-1.7-3.5-4.2c0-3.1,2-4.4,3.7-4.4
			c1.3,0,2.1,0.6,2.5,1.4h0l0.1-1.2h1.4c0,0.7-0.1,1.4-0.1,2.3v9.3h-1.5V375.5z M358.6,371.9c0-0.2,0-0.4-0.1-0.6
			c-0.2-0.9-1-1.7-2.1-1.7c-1.5,0-2.5,1.3-2.5,3.2c0,1.6,0.8,3.1,2.4,3.1c1,0,1.8-0.6,2.1-1.6c0.1-0.2,0.1-0.5,0.1-0.7V371.9z"/>
		<path class="st1" d="M369.4,374.6c0,0.9,0,1.6,0.1,2.2h-1.3l-0.1-1.3h0c-0.4,0.7-1.3,1.5-2.7,1.5c-1.3,0-2.8-0.7-2.8-3.6v-4.8h1.5
			v4.6c0,1.6,0.5,2.6,1.8,2.6c1,0,1.7-0.7,2-1.4c0.1-0.2,0.1-0.5,0.1-0.8v-5h1.5V374.6z"/>
		<path class="st1" d="M371.9,371.1c0-1,0-1.8-0.1-2.6h1.3l0.1,1.6h0.1c0.4-1.1,1.3-1.8,2.3-1.8c0.2,0,0.3,0,0.4,0.1v1.4
			c-0.2,0-0.3-0.1-0.5-0.1c-1.1,0-1.8,0.8-2,1.9c0,0.2-0.1,0.4-0.1,0.7v4.4h-1.5V371.1z"/>
		<path class="st1" d="M381.9,376.8l-0.1-1h-0.1c-0.5,0.6-1.3,1.2-2.5,1.2c-1.7,0-2.5-1.2-2.5-2.4c0-2,1.8-3.1,4.9-3.1v-0.2
			c0-0.7-0.2-1.9-1.9-1.9c-0.8,0-1.6,0.2-2.1,0.6l-0.3-1c0.7-0.4,1.7-0.7,2.7-0.7c2.5,0,3.1,1.7,3.1,3.4v3.1c0,0.7,0,1.4,0.1,2
			H381.9z M381.7,372.6c-1.6,0-3.5,0.3-3.5,1.9c0,1,0.6,1.4,1.4,1.4c1.1,0,1.8-0.7,2-1.4c0.1-0.2,0.1-0.3,0.1-0.5V372.6z"/>
		<path class="st1" d="M385.6,370.8c0-0.9,0-1.5-0.1-2.2h1.3l0.1,1.4h0c0.4-0.8,1.4-1.5,2.7-1.5c1.1,0,2.9,0.7,2.9,3.5v4.9h-1.5
			v-4.7c0-1.3-0.5-2.4-1.9-2.4c-1,0-1.8,0.7-2,1.5c-0.1,0.2-0.1,0.4-0.1,0.7v4.9h-1.5V370.8z"/>
		<path class="st1" d="M394.6,375.9c0-0.6,0.4-1.1,1-1.1c0.6,0,1,0.4,1,1.1c0,0.6-0.4,1.1-1,1.1C395,377,394.6,376.5,394.6,375.9z"
			/>
		<path class="st1" d="M404.4,376.5c-0.4,0.2-1.3,0.5-2.4,0.5c-2.5,0-4.1-1.7-4.1-4.2c0-2.5,1.7-4.4,4.4-4.4c0.9,0,1.7,0.2,2.1,0.4
			l-0.3,1.2c-0.4-0.2-0.9-0.4-1.7-0.4c-1.9,0-2.9,1.4-2.9,3.1c0,1.9,1.2,3.1,2.9,3.1c0.8,0,1.4-0.2,1.8-0.4L404.4,376.5z"/>
		<path class="st1" d="M413.5,372.6c0,3-2.1,4.4-4.1,4.4c-2.2,0-3.9-1.6-3.9-4.2c0-2.8,1.8-4.4,4.1-4.4
			C411.9,368.4,413.5,370.1,413.5,372.6z M406.9,372.7c0,1.8,1,3.2,2.5,3.2c1.4,0,2.5-1.3,2.5-3.2c0-1.4-0.7-3.2-2.5-3.2
			S406.9,371.1,406.9,372.7z"/>
		<path class="st1" d="M415.4,370.8c0-0.9,0-1.5-0.1-2.2h1.3l0.1,1.3h0.1c0.5-0.8,1.2-1.5,2.6-1.5c1.1,0,2,0.7,2.3,1.6h0
			c0.3-0.5,0.6-0.8,0.9-1.1c0.5-0.4,1-0.6,1.8-0.6c1.1,0,2.7,0.7,2.7,3.6v4.8h-1.5v-4.7c0-1.6-0.6-2.5-1.8-2.5
			c-0.9,0-1.5,0.6-1.8,1.4c-0.1,0.2-0.1,0.5-0.1,0.7v5.1h-1.5v-4.9c0-1.3-0.6-2.3-1.7-2.3c-0.9,0-1.6,0.7-1.9,1.5
			c-0.1,0.2-0.1,0.5-0.1,0.7v5h-1.5V370.8z"/>
	</g>
</g>
<g id="Layer_4">
	<path class="st1" d="M291.7,100.5c3.6,2,5.4,5.1,5.4,9.4l-0.7,6.7c2.5,1.8,4.8,4.5,6.7,8.1v2.7l-1.3,1.3h-0.6c-2.8-2.7-5-4-6.7-4
		h-0.7c-14.6,16.2-29.6,26.6-45.1,31v-0.6c20.2-13.6,33.9-24.4,41.1-32.3V122l-7.4-8.7C283.8,104.8,286.9,100.5,291.7,100.5z
		 M340.3,103.2c9,16.5,13.5,28,13.5,34.4h-1.3l-4-2.7h-0.7v1.3H347l9.4,84.9c-1.9,15.7-4.9,23.5-8.8,23.5l-6.7,2.1h-0.6
		c-4.3,0-8.8-2.2-13.5-6.7h-1.3c-4.1,7.2-9.9,10.8-17.5,10.8c-1.2,0-3.9-2.5-8.1-7.5c-6.7,6.8-13.2,10.2-19.6,10.2h-2.7
		c-6.6,0-11.5-6.3-14.8-18.9h-1.3l-15.4,8.7c-2.3,12-6.2,20.6-11.5,25.6c-18.4,16.6-33.5,25-45.1,25l-4.8,0.6
		c-7.4-2-12.6-5.6-15.4-10.8l-2.7-10.8v-1.3l1.3-12.8h-0.7c-1.2,0-11.7,6-31.6,18.1c-9.2,4.2-21.7,7.1-37.7,8.8l-17.5,4.7
		c3.8-3.2,17.5-9.7,41.1-19.5c1.4-1.6,10.9-6.5,28.3-14.8c20.2-12.2,34.6-22.5,43.1-31v-0.7c0-2.9-4-11.7-12.1-26.2l-6-12.8
		c0.8-6.3,1.9-9.4,3.3-9.4h0.7c6,5.4,9.6,9.2,10.8,11.5v0.6c0,0.9-0.9,1.3-2.7,1.3c7.2,15,10.8,23.8,10.8,26.3v6.7
		c0,10.1-7.4,20.2-22.3,30.3c-2.2,0-3.6,5.2-4,15.5c2.9,8.5,7.4,12.8,13.5,12.8l8.1,0.7c9.2,0,23.6-8.5,43.1-25.6l2.7-4v-3.4
		l-1.3-1.3l-11.4,2.1h-5.4c-8.6-2.1-12.8-6.1-12.8-12.1c2.2-14.4,8-21.6,17.5-21.6c5.3,0,11.1,5.1,17.5,15.4h1.3
		c6.9-2.5,14.8-6.5,23.6-12.1h1.3l1.3,1.3l-0.7,8.8c0,6.5,4,10.3,12.1,11.4h3.4c5.3,0,12.1-4.9,20.2-14.8l2-0.6v0.6l-0.6,6.1v2l4,4
		h0.6c7.8,0,13-4.3,15.5-12.8l4-4h0.6l-0.6,6.7c3.8,4,7.8,6,12.1,6c4.5-0.3,6.7-1.6,6.7-4c-8.1-74.7-12.8-113.3-14.2-115.9
		C335.5,109.8,337.1,106.2,340.3,103.2z M578.7,103.9h0.6c3.2,0,5.4,2.5,6.7,7.4l-1.3,4h-1.3c-2.3-2.2-4.3-3.3-6-3.3H576
		c-1.8,0.7-2.7,2.3-2.7,4.7v10.2c-0.5,13.5-1.6,20.2-3.4,20.2h-1.3c-5-13.1-11.3-19.6-18.9-19.6c-3.1-2.8-4.7-5.7-4.7-8.7
		c0.8-2,1.7-3.2,2.7-3.4h1.3c5.4,1,11.7,6.6,18.9,16.9h1.3c0-13.4,2-22.2,6-26.3L578.7,103.9z M627.2,105.2h1.3
		c4.5,0,6.7,6.5,6.7,19.5c3.1,2.6,4.7,5.1,4.7,7.5l-0.6,2.7h-0.7l-6.7-2.7c-19.8,18.9-36.8,29.9-51.2,33h-0.6v-0.6
		c20.1-12.3,35.6-23.3,46.4-33.1v-2c-4.5-4.6-6.7-7.5-6.7-8.8C619.8,113.7,622.3,108.5,627.2,105.2z M433.9,105.9
		c2.3,0,3.9,2.5,4.8,7.5l-0.7,10.8c4.5,4.6,6.7,7.7,6.7,9.4l-0.6,2.7h-2.1c-3.4-2.7-5.8-4-7.4-4h-0.7c-12.7,13-22.8,20.4-30.3,22.2
		c-0.7,1.1-2.5,2-5.4,2.7l-0.7-0.6v-0.7c0.8-1.5,6-5.1,15.5-10.8c10.8-8.6,16.2-13.5,16.2-14.8v-2c-2.7-3.2-4-6.1-4-8.8
		C425.1,113.2,428,108.7,433.9,105.9z M287,109.9c0,1.4,1.8,2.7,5.4,4l1.3-2c-0.6-1.9-1.7-3.2-3.3-4h-0.7L287,109.9z M521.4,107.2
		h0.7l1.3,1.3v0.7c-0.1,3.8-11.7,12.1-35,24.9l-25,15.5h-1.3l-0.6-2.7c1.1-4,11.2-11.1,30.3-21.6L521.4,107.2z M375.3,107.9h1.3
		c4.7,9.3,8.9,19.7,12.8,31v0.6l-1.3,1.3c-2.8-2.7-4.8-4-6-4v0.7l10.1,90.9v2.7c0,15.3-1.8,25-5.4,29h-0.6l-0.7-3.4v-13.5
		c-1.8-23.4-6.5-64.9-14.1-124.6V118C372.4,111.3,373.8,107.9,375.3,107.9z M144.2,111.3h1.3v1.3l-3.3,10.2c0.5,8.1,1.9,12.4,4,12.8
		h2l2.7-2h0.7c-0.7,6.7-2.9,10.1-6.7,10.1c-3.6-2.8-5.4-7.5-5.4-14.1v-2.1C140.3,122.2,141.8,116.8,144.2,111.3z M623.2,116
		c0,2.2,2.5,4,7.4,5.4h0.7v-2.1c-0.4-4.5-1.7-6.7-4-6.7C625.4,113.3,624,114.4,623.2,116z M87.6,112.6h1.3c3.4,0,6.1,2.9,8.1,8.8
		c-0.9,2-1.8,3.1-2.7,3.3l-6-4.7h-1.3l-2.1,2v14.2c0,10.3-0.9,15.4-2.7,15.4c-5.4-10.3-9.9-15.4-13.5-15.4
		c-4.7,10.4-10.6,17.3-17.5,20.8c-1.1,1.6-4.2,3.7-9.4,6.1h-1.3v-0.7c16.1-14.7,24.2-22.8,24.3-24.3v-3.3c-4.5-2.8-6.7-5.7-6.7-8.8
		c0.5-3.1,1.2-4.7,2.1-4.7h0.6c3.8,0,10.5,5.1,20.2,15.4h0.7v-8.1C83.2,118,85.2,112.6,87.6,112.6z M429.2,116
		c0.3,3.6,1.9,5.4,4.7,5.4l0.7-0.7V116l-2.1-2.1h-1.3L429.2,116z M230.4,114v0.7c0,4.4-3.4,7.3-10.1,8.7L159,157.8l-0.6-2.1
		c0-4.3,12.6-12.5,37.7-24.9C215.3,119.6,226.7,114,230.4,114z M305.9,140.9h2.1l2.7,10.2v0.6c0,6.3-2.7,9.4-8.1,9.4l-4.8-1.3
		l-8.1,4.8c-4-1.7-6-4.4-6-8.1v-4.8l0.6-4.7h0.7c0.7,0,1.6,2.7,2.7,8.1l2,1.3h2.7c2.3-1.3,3.4-3.1,3.4-5.4l-0.7-5.4l0.7-3.4h0.6
		c1.4,0,2.5,2.9,3.4,8.8l3.3,2.7h1.3l2.1-2.1l-1.3-7.4L305.9,140.9z M531.6,147.6v1.3c-1.8,4.9-2.7,9.1-2.7,12.8s1.6,6.6,4.7,8.7
		h2.1c1.1,0,2-1.6,2.7-4.7h1.3c0,6.5-2,11-6.1,13.5c-3.4,0-6-4-8.1-12.1C527,156.8,529,150.3,531.6,147.6z M631.9,153h0.7v0.7
		c-2.3,4.2-3.4,7.8-3.4,10.8c0.6,5.8,1.7,8.7,3.4,8.7h2c1,0,1.7-1.1,2.1-3.3h0.6l1.3,1.3c-2,6.3-3.8,9.4-5.4,9.4h-2
		c-2.1,0-3.9-3.6-5.4-10.8C627.8,160.7,629.8,155.1,631.9,153z M137.4,154.4c7.2,2.3,10.8,5.7,10.8,10.2c0,1.7-0.9,4.4-2.7,8.1h-1.3
		l-6.7-5.4h-6c-16.2,9.6-24.3,18.2-24.3,25.6v3.3c0,5,7.4,7.5,22.2,7.5v-0.7l0.7,0.7h0.6l3.4-0.7c10.3,1,15.4,6,15.4,14.8
		c-2.2,9-4.7,13.5-7.4,13.5c-8.8,9.2-21.8,18.1-39.1,26.9c-11.6,4.1-20.4,6.1-26.3,6.1c-17.2,0-28.5-7-33.7-20.9
		c-1.8-4.6-2.7-9.7-2.7-15.4v-6.7c0-5.3,3.4-15.9,10.2-31.7l0.6-0.6h2.1v0.6c-5,13.1-7.5,23.7-7.5,31.7c0,14.6,6.7,24.3,20.2,28.9
		l8.8,0.7h6.7c14.1,0,33.6-9.7,58.6-29l0.7-2.7l-7.5-2l-9.4,0.6c-12.8,0-20.2-3.8-22.2-11.4l-1.3-6.7c3.1-13.5,7.8-23.6,14.1-30.4
		C123.9,159.7,131.6,154.7,137.4,154.4z M444.6,154.4c6,3.7,9.4,7.1,10.2,10.2c-1.9,5.4-3.9,8.1-6.1,8.1c-5.4-4.1-8.8-6.1-10.1-6.1
		c-2.8,5.7-5,8.6-6.7,8.8c-4.3-2.3-7.8-5.2-10.8-8.8c1.9-5.5,3.7-8.7,5.4-9.4l10.1,4.8h0.7l6.7-7.5H444.6z M235.2,159.1
		c2.6,0.8,5,3.5,7.4,8.1c-0.6,2.2-1.3,3.3-2,3.3h-0.7l-4.7-3.3h-2.1l-1.3,1.3v12.1c0,5.1-0.7,10.5-2,16.2h-1.3
		c-6-11.3-11.4-16.9-16.2-16.9c-4.5-1.3-6.7-3.3-6.7-6c0.5-4.5,1.4-6.7,2.7-6.7h0.6c4.9,0,10.9,5.4,18.2,16.2h1.3v-4
		C229.1,165.9,231.4,159.1,235.2,159.1z M484.4,167.9l14.8,14.8v2.1h-5.4c0,1.9,3.4,8.6,10.1,20.2l2.1,7.4c0,13.1-5.8,23.4-17.5,31
		c-1.8,3.8-2.7,7.4-2.7,10.8c0,9.9,4.7,16.9,14.1,20.9l4,0.6h6.7c13.2,0,30.3-11.2,51.2-33.7c2.3-2.6,3.4-4.8,3.4-6.7v-0.6l-2.1-2.1
		c-8.3,2.3-14.8,3.4-19.5,3.4c-9-1.5-13.5-5.8-13.5-12.8v-3.3c2.8-12.6,8.6-18.9,17.5-18.9c4.8,0,11.5,5.1,20.2,15.4h1.3
		c8.2-4.7,15.4-9.7,21.6-14.8c1.1,0,2.2,1.1,3.3,3.4l-0.6,6c3.2,6.8,7.4,10.2,12.8,10.2h8.1c7.7-4,12.5-8.5,14.2-13.5
		c2.5-5.2,4.5-8.4,6-9.4l1.3,1.3v2c-1.3,1.7-2,3.3-2,4.8v1.3c1.7,5.4,5.8,8.1,12.1,8.1h3.3c2.3,0,3.7-0.7,4-2.1l-3.3-8.7l2-8.8h1.3
		c2.5,0,4.5,5.2,6.1,15.5c-1.3,11.7-5.4,17.5-12.1,17.5h-1.3c-5.6,0-11.5-2.9-17.5-8.8h-0.7c-5.6,9-12.7,13.5-21.3,13.5
		s-14.5-4.7-17.8-14.1c0-1.8-0.7-2.7-2-2.7c-10.4,6.8-15.5,12.2-15.5,16.2c0,12-9.6,25.5-28.9,40.4c-4.7,5.6-13.5,10.3-26.3,14.1
		c-3.1,0.2-4.7,0.6-4.7,1.3l-0.7-0.6h-1.3l-2.7,0.6c-12.2,0-20.5-7.6-24.9-22.9v-14.8H481L448,271c-8.7,4.6-18.6,8-29.6,10.1
		l-26.3,5.4l-0.6-0.6v-1.3c19.2-6.6,42.3-18.1,69.3-34.4c14.7-9,27.7-19.1,39.1-30.3v-0.7c0-3.3-3.1-10-9.4-20.2
		c-3.1-4.3-6-11.7-8.7-22.2C482.3,170.8,483.2,167.9,484.4,167.9z M303.2,169.2c5.9,3.2,9.5,6.6,10.8,10.2c-1.7,5.1-3.5,8.1-5.4,8.7
		h-2c-5.9-4.9-8.8-8.7-8.8-11.4C299.6,172.5,301.4,170,303.2,169.2z M456.8,178h1.3c-1.3,8.1-3.6,14.4-6.7,18.9
		c-1.2,0.5-2.8,2.5-4.7,6c0,2.6,2.5,5.1,7.4,7.5c3.1,3.1,5.3,7.1,6.7,12.1c0,12.9-7.4,21.9-22.2,26.9l-4,0.6
		c-5.2,0-8.4-3.8-9.4-11.4c0-7.4,2.2-16.2,6.7-26.3c-12.2-11-18.2-17.9-18.2-20.8v-4.8c0.3-2.7,1-4,2.1-4l16.8,7.5v1.3
		c0,0.9-0.7,1.3-2,1.3l-0.7,0.6v1.3c3.5,4.1,6.6,6.1,9.4,6.1L456.8,178z M69.4,186.1h1.3c10.3,10.4,15.4,21.2,15.4,32.3v3.3
		c0,9.5-0.9,14.2-2.7,14.2l-0.6-2.1l0.6-4.7c0-12.5-4.9-25.1-14.8-37.7v-2.1L69.4,186.1z M316,186.1c4.1,0,7.7,3.4,10.8,10.1
		c0,1.3-2,3.5-6.1,6.7l-9.4-4.7h-0.6l-7.5,7.4c-4.8-2.5-8.8-5.1-12.1-8.1c2-6.7,4.5-10.1,7.5-10.1l8.1,5.4h0.6
		C308.8,192.8,311.7,190.6,316,186.1z M538.9,218.4v1.3c0.5,1.3,1.8,2,4,2h8.1l3.4-0.6v-2.7c-3.7-2.3-6.6-3.4-8.8-3.4h-0.6
		C541,215.9,538.9,217.1,538.9,218.4z M430.5,227.9v4c0,3.1,1.6,4.7,4.7,4.7h2.7c7.7-1.9,13.1-5.3,16.2-10.1
		c0-3.5-5.4-6.9-16.2-10.2C437.1,216.6,434.6,220.4,430.5,227.9z M216.3,232.5v0.7c0,1.2,1.8,2.1,5.4,2.7h5.4l3.3-0.7v-1.3
		c-1.6-3.1-4.8-4.7-9.4-4.7C218.2,230.1,216.6,231.2,216.3,232.5z M367.8,243.3v0.7c-2.7,7.4-4,14.1-4,20.2c0,3.6,1.8,5.6,5.4,6
		l2.1-2h0.6c-1.4,5.8-3.9,8.7-7.4,8.7c-1.5-0.7-3.1-3.8-4.8-9.4c1.5-10.6,4-18.7,7.5-24.3H367.8z M643.4,245.4l1.3,1.3
		c-2,9.9-5.4,14.8-10.2,14.8l-5.4-1.3c-4.2,2.7-7.1,4-8.7,4l-10.2-2.7c-2.2,0-9.4,4.3-21.6,12.8c-5.4,3.2-9.4,4.8-12.1,4.8h-1.3
		v-1.3c9-4.9,18.7-11.4,29-19.6l10.1-4l6.7,2.7h4c1.5-0.6,3.7-2.8,6.7-6.7l3.4,3.4h3.3c1.4,0,2.5-2.5,3.4-7.5l0.6-0.6H643.4z
		 M320,259.5h0.6c0,7.2-4.5,10.8-13.5,10.8c0,0.9-1.1,1.3-3.3,1.3l-6.7-1.3h-4c-21,13.1-32.9,19.6-35.8,19.6v-1.3
		c23.5-16.2,36.9-24.3,40.4-24.3h2.1l6,1.3l6.1-4h0.6l2.1,1.3h2L320,259.5z"/>
</g>
</svg>
