<?xml version="1.0" encoding="utf-8"?>
<!-- Generator: Adobe Illustrator 25.2.3, SVG Export Plug-In . SVG Version: 6.00 Build 0)  -->
<svg version="1.1" xmlns="http://www.w3.org/2000/svg" xmlns:xlink="http://www.w3.org/1999/xlink" x="0px" y="0px"
	 viewBox="0 0 700 395" style="enable-background:new 0 0 700 395;" xml:space="preserve">
<style type="text/css">
	.st0{fill:#000222;}
	.st1{fill:#FFFFFF;}
</style>
<g id="Layer_1">
	<rect class="st0" width="700" height="395"/>
</g>
<g id="Layer_3">
	<g>
		<path class="st1" d="M273.5,368.6l1.1,4.2c0.2,0.9,0.5,1.8,0.6,2.6h0.1c0.2-0.8,0.5-1.7,0.7-2.6l1.3-4.2h1.3l1.3,4.1
			c0.3,1,0.5,1.9,0.7,2.7h0.1c0.1-0.8,0.4-1.7,0.6-2.7l1.2-4.1h1.5l-2.7,8.2H280l-1.3-3.9c-0.3-0.9-0.5-1.7-0.7-2.7h0
			c-0.2,1-0.5,1.8-0.7,2.7l-1.3,3.9h-1.4l-2.5-8.2H273.5z"/>
		<path class="st1" d="M286.3,368.6l1.1,4.2c0.2,0.9,0.5,1.8,0.6,2.6h0.1c0.2-0.8,0.5-1.7,0.7-2.6l1.3-4.2h1.3l1.3,4.1
			c0.3,1,0.5,1.9,0.7,2.7h0.1c0.1-0.8,0.4-1.7,0.6-2.7l1.2-4.1h1.5l-2.7,8.2h-1.4l-1.3-3.9c-0.3-0.9-0.5-1.7-0.7-2.7h0
			c-0.2,1-0.5,1.8-0.7,2.7l-1.3,3.9h-1.4l-2.5-8.2H286.3z"/>
		<path class="st1" d="M299,368.6l1.1,4.2c0.2,0.9,0.5,1.8,0.6,2.6h0.1c0.2-0.8,0.5-1.7,0.7-2.6l1.3-4.2h1.3l1.3,4.1
			c0.3,1,0.5,1.9,0.7,2.7h0.1c0.1-0.8,0.4-1.7,0.6-2.7l1.2-4.1h1.5l-2.7,8.2h-1.4l-1.3-3.9c-0.3-0.9-0.5-1.7-0.7-2.7h0
			c-0.2,1-0.5,1.8-0.7,2.7l-1.3,3.9h-1.4l-2.5-8.2H299z"/>
		<path class="st1" d="M309.9,375.9c0-0.6,0.4-1.1,1-1.1c0.6,0,1,0.4,1,1.1c0,0.6-0.4,1.1-1,1.1C310.3,377,309.9,376.5,309.9,375.9z
			"/>
		<path class="st1" d="M313.5,375.3c0.4,0.3,1.2,0.6,2,0.6c1.1,0,1.6-0.5,1.6-1.2c0-0.7-0.4-1.1-1.5-1.5c-1.5-0.5-2.2-1.3-2.2-2.3
			c0-1.3,1.1-2.4,2.8-2.4c0.8,0,1.6,0.2,2,0.5l-0.4,1.1c-0.3-0.2-0.9-0.5-1.7-0.5c-0.9,0-1.4,0.5-1.4,1.1c0,0.7,0.5,1,1.6,1.4
			c1.4,0.5,2.2,1.3,2.2,2.5c0,1.4-1.1,2.5-3.1,2.5c-0.9,0-1.7-0.2-2.3-0.6L313.5,375.3z"/>
		<path class="st1" d="M327.4,374.6c0,0.9,0,1.6,0.1,2.2h-1.3l-0.1-1.3h0c-0.4,0.7-1.3,1.5-2.7,1.5c-1.3,0-2.8-0.7-2.8-3.6v-4.8h1.5
			v4.6c0,1.6,0.5,2.6,1.8,2.6c1,0,1.7-0.7,2-1.4c0.1-0.2,0.1-0.5,0.1-0.8v-5h1.5V374.6z"/>
		<path class="st1" d="M329.8,371.1c0-1,0-1.8-0.1-2.6h1.3l0.1,1.6h0.1c0.4-1.1,1.3-1.8,2.3-1.8c0.2,0,0.3,0,0.4,0.1v1.4
			c-0.2,0-0.3-0.1-0.5-0.1c-1.1,0-1.8,0.8-2,1.9c0,0.2-0.1,0.4-0.1,0.7v4.4h-1.5V371.1z"/>
		<path class="st1" d="M339.9,376.8l-0.1-1h-0.1c-0.5,0.6-1.3,1.2-2.5,1.2c-1.7,0-2.5-1.2-2.5-2.4c0-2,1.8-3.1,4.9-3.1v-0.2
			c0-0.7-0.2-1.9-1.9-1.9c-0.8,0-1.6,0.2-2.1,0.6l-0.3-1c0.7-0.4,1.7-0.7,2.7-0.7c2.5,0,3.1,1.7,3.1,3.4v3.1c0,0.7,0,1.4,0.1,2
			H339.9z M339.7,372.6c-1.6,0-3.5,0.3-3.5,1.9c0,1,0.6,1.4,1.4,1.4c1.1,0,1.8-0.7,2-1.4c0.1-0.2,0.1-0.3,0.1-0.5V372.6z"/>
		<path class="st1" d="M343.5,364.7h1.5v5.1h0c0.2-0.4,0.6-0.8,1.1-1.1c0.4-0.3,1-0.4,1.5-0.4c1.1,0,2.9,0.7,2.9,3.5v4.9H349v-4.7
			c0-1.3-0.5-2.4-1.9-2.4c-1,0-1.7,0.7-2,1.5c-0.1,0.2-0.1,0.4-0.1,0.7v5h-1.5V364.7z"/>
		<path class="st1" d="M358.6,375.5L358.6,375.5c-0.5,0.8-1.4,1.5-2.7,1.5c-1.9,0-3.5-1.7-3.5-4.2c0-3.1,2-4.4,3.7-4.4
			c1.3,0,2.1,0.6,2.5,1.4h0l0.1-1.2h1.4c0,0.7-0.1,1.4-0.1,2.3v9.3h-1.5V375.5z M358.6,371.9c0-0.2,0-0.4-0.1-0.6
			c-0.2-0.9-1-1.7-2.1-1.7c-1.5,0-2.5,1.3-2.5,3.2c0,1.6,0.8,3.1,2.4,3.1c1,0,1.8-0.6,2.1-1.6c0.1-0.2,0.1-0.5,0.1-0.7V371.9z"/>
		<path class="st1" d="M369.4,374.6c0,0.9,0,1.6,0.1,2.2h-1.3l-0.1-1.3h0c-0.4,0.7-1.3,1.5-2.7,1.5c-1.3,0-2.8-0.7-2.8-3.6v-4.8h1.5
			v4.6c0,1.6,0.5,2.6,1.8,2.6c1,0,1.7-0.7,2-1.4c0.1-0.2,0.1-0.5,0.1-0.8v-5h1.5V374.6z"/>
		<path class="st1" d="M371.9,371.1c0-1,0-1.8-0.1-2.6h1.3l0.1,1.6h0.1c0.4-1.1,1.3-1.8,2.3-1.8c0.2,0,0.3,0,0.4,0.1v1.4
			c-0.2,0-0.3-0.1-0.5-0.1c-1.1,0-1.8,0.8-2,1.9c0,0.2-0.1,0.4-0.1,0.7v4.4h-1.5V371.1z"/>
		<path class="st1" d="M381.9,376.8l-0.1-1h-0.1c-0.5,0.6-1.3,1.2-2.5,1.2c-1.7,0-2.5-1.2-2.5-2.4c0-2,1.8-3.1,4.9-3.1v-0.2
			c0-0.7-0.2-1.9-1.9-1.9c-0.8,0-1.6,0.2-2.1,0.6l-0.3-1c0.7-0.4,1.7-0.7,2.7-0.7c2.5,0,3.1,1.7,3.1,3.4v3.1c0,0.7,0,1.4,0.1,2
			H381.9z M381.7,372.6c-1.6,0-3.5,0.3-3.5,1.9c0,1,0.6,1.4,1.4,1.4c1.1,0,1.8-0.7,2-1.4c0.1-0.2,0.1-0.3,0.1-0.5V372.6z"/>
		<path class="st1" d="M385.6,370.8c0-0.9,0-1.5-0.1-2.2h1.3l0.1,1.4h0c0.4-0.8,1.4-1.5,2.7-1.5c1.1,0,2.9,0.7,2.9,3.5v4.9h-1.5
			v-4.7c0-1.3-0.5-2.4-1.9-2.4c-1,0-1.8,0.7-2,1.5c-0.1,0.2-0.1,0.4-0.1,0.7v4.9h-1.5V370.8z"/>
		<path class="st1" d="M394.6,375.9c0-0.6,0.4-1.1,1-1.1c0.6,0,1,0.4,1,1.1c0,0.6-0.4,1.1-1,1.1C395,377,394.6,376.5,394.6,375.9z"
			/>
		<path class="st1" d="M404.4,376.5c-0.4,0.2-1.3,0.5-2.4,0.5c-2.5,0-4.1-1.7-4.1-4.2c0-2.5,1.7-4.4,4.4-4.4c0.9,0,1.7,0.2,2.1,0.4
			l-0.3,1.2c-0.4-0.2-0.9-0.4-1.7-0.4c-1.9,0-2.9,1.4-2.9,3.1c0,1.9,1.2,3.1,2.9,3.1c0.8,0,1.4-0.2,1.8-0.4L404.4,376.5z"/>
		<path class="st1" d="M413.5,372.6c0,3-2.1,4.4-4.1,4.4c-2.2,0-3.9-1.6-3.9-4.2c0-2.8,1.8-4.4,4.1-4.4
			C411.9,368.4,413.5,370.1,413.5,372.6z M406.9,372.7c0,1.8,1,3.2,2.5,3.2c1.4,0,2.5-1.3,2.5-3.2c0-1.4-0.7-3.2-2.5-3.2
			S406.9,371.1,406.9,372.7z"/>
		<path class="st1" d="M415.4,370.8c0-0.9,0-1.5-0.1-2.2h1.3l0.1,1.3h0.1c0.5-0.8,1.2-1.5,2.6-1.5c1.1,0,2,0.7,2.3,1.6h0
			c0.3-0.5,0.6-0.8,0.9-1.1c0.5-0.4,1-0.6,1.8-0.6c1.1,0,2.7,0.7,2.7,3.6v4.8h-1.5v-4.7c0-1.6-0.6-2.5-1.8-2.5
			c-0.9,0-1.5,0.6-1.8,1.4c-0.1,0.2-0.1,0.5-0.1,0.7v5.1h-1.5v-4.9c0-1.3-0.6-2.3-1.7-2.3c-0.9,0-1.6,0.7-1.9,1.5
			c-0.1,0.2-0.1,0.5-0.1,0.7v5h-1.5V370.8z"/>
	</g>
</g>
<g id="Layer_4">
	<path class="st1" d="M312.8,98.8c1.4,0,2.7,2.6,3.9,7.9l-0.7,7.9l6,8.6l-1.3,3.9h-1.3l-6-3.9c-19.3,19-35.1,30.6-47.4,34.8
		l-0.6-0.6v-0.7c22.6-17,36.9-28.8,42.7-35.5v-1.3l-5.9-7.2v-2C303.6,102.7,307.1,98.8,312.8,98.8z M382.6,99.5
		c1.6,0,6,10.5,13.2,31.6l-0.7,1.9c-1.7,0-3.7-1.1-5.9-3.2h-0.7c7.5,63.5,11.2,100.8,11.2,111.9c0,6.1-1.6,13.3-4.7,21.7h-1.9V262
		h-0.7l0.7-3.2c0-12.9-4.8-62.9-14.5-150C380.2,102.6,381.5,99.5,382.6,99.5z M348.4,100.8h1.9l11.8,30.9l-0.6,2.6h-1.3l-3.3-2.6
		H355c4.5,32.6,7.3,60,8.5,82.3c0,14.1-4.2,23.1-12.5,26.9l-47.4,16.5c-6.1,3.6-16.9,13.7-32.3,30.3c-6,4.4-10.6,6.6-13.8,6.6h-2
		c-12.5,0-19.5-7.5-21.1-22.4v-2c0-7.5,4.6-20.3,13.9-38.2l-0.7-0.6H247l-4.7,4.6l-4.6-0.6c-23.5,6.7-45,22.3-64.5,46.7
		c-9.1,9.7-16.6,14.5-22.4,14.5c-13.6-1.5-20.4-8.3-20.4-20.4v-2.6c0-2.6,1.8-10.1,5.3-22.4v-0.7h-0.6
		c-23.8,8.4-38.3,12.5-43.4,12.5l-10.5,0.6c-17.1,0-28.7-6.3-34.9-19c-1.8-5.4-2.6-10-2.6-13.6s2-11.2,6-22.6
		c-3.5-5.7-5.3-11.8-5.3-18.4c0-9.4,3.7-23,11.1-40.8h2c-5.3,20.1-7.9,31.7-7.9,34.9v1.9c1,7.5,3.4,11.2,7.2,11.2h2
		c0-2.2,1.1-4.4,3.2-6.6h0.7l0.6,2.6c0,9.9-3.7,15.8-11.1,17.7c-1.8,3.2-2.6,6.7-2.6,10.5v4.7c0,12.6,8.3,20.7,25,24.3h9.8
		c23,0,48.1-9,75-26.9l1.3-2v-3.2c-3.5-2.2-5.9-3.3-7.2-3.3h-12.5c-10.5,0-15.8-3.9-15.8-11.8c2-13.6,8-20.4,17.8-20.4
		c7.1,0,14.3,7.7,21.7,23l2,12.5c0,9.7-4.2,16.3-12.5,19.7c-9.2,5.1-13.8,10.4-13.8,15.8c-4,7.7-6,14.5-6,20.4v1.3
		c1.1,7.5,4.6,11.2,10.5,11.2c9.5,0,22.7-10.5,39.5-31.6c16.4-14.4,29.2-23,38.2-25.7l4.7-3.9v-1.3c-12.8-10.4-19.1-16.1-19.1-17.1
		c-0.9-1.7-1.3-4.1-1.3-7.2v-2c0-9.2,11.4-14.7,34.2-16.4l5.3,1.3l0.7-0.7h0.6c38.2,4.9,57.3,8.6,57.3,11.2v1.3
		c0,7.8-6.4,13.7-19.1,17.7l-27.6,13.9c-12.7,19.4-19,33.5-19,42.1v4.6c0,5.8,3.3,10,9.8,12.5c10.3,0,23.7-9.9,40.2-29.7
		c12.6-10.4,29.3-17.4,50-21.1c11.8-3.6,17.7-7.1,17.7-10.5v-3.2c-7-66.6-11.2-103-12.5-109.2L348.4,100.8z M206.9,101.4
		c4.9,0,7.3,6.4,7.3,19.1c2.2,2,3.2,3.9,3.2,5.9v2l-1.3,1.3h-0.6c-1.6-1.3-3.2-2-4.7-2c-12.6,15.4-20.3,23.1-23,23.1
		c-10.1,9.2-19.3,15.3-27.6,18.4h-1.3L197,137c6.1-6.1,9.2-10.3,9.2-12.5c-5.3-5.4-7.9-8.7-7.9-9.9v-1.9
		C198.3,109.1,201.2,105.4,206.9,101.4z M579.3,103.4c4,1.3,6,3.7,6,7.2c0,2.3-0.7,3.6-2,3.9l-5.3-3.9h-1.3c-2.2,0-3.2,5.7-3.2,17.1
		c-1.2,11.9-2.5,17.8-3.9,17.8l-12.5-17.8c-7.4-1.2-11.1-3.9-11.1-7.9v-1.3c0-2.5,1.1-4,3.2-4.6c5.5,1.5,11.4,7,17.8,16.4v0.7h1.9
		v-0.7c0-13.6,2.9-22.4,8.6-26.3L579.3,103.4z M149,104.1v0.7l-3.2,22.4v3.2c0.6,5.3,2.5,7.9,5.9,7.9l4.7-5.9h0.6l0.7,2.6
		c0,5.4-2.2,9.8-6.6,13.2h-2.6c-5.3-3.6-7.9-8.6-7.9-15c0-6.4,2.4-16.1,7.2-29.1H149z M437.9,104.1c1.6,0,3,2.4,3.9,7.3l-0.7,10.5
		c4.4,4.6,6.6,7.6,6.6,9.2c-0.4,1.8-1.3,2.6-2.6,2.6c-3.9-2.6-6.5-3.9-7.9-3.9l-14.5,13.8c-9.8,5.4-16.4,8.5-19.7,9.2l-0.6-0.6
		c0.9-2.1,9.3-8.2,25-18.4c3.5-3.7,5.3-6.2,5.3-7.3l-4.7-9.2C429.8,108.4,433.1,104.1,437.9,104.1z M627.4,104.8
		c3.9,1.3,5.9,5.3,5.9,11.8v7.2l4.7,6v3.2c0,0.9-0.7,1.3-2,1.3c-2.6-1.8-4.6-2.6-5.9-2.6c-22.9,21.1-39.8,31.6-50.7,31.6v-0.6
		l38.9-25.7l6.6-6.6v-1.9l-6-7.3v-1.3C618.8,112.2,621.6,107.2,627.4,104.8z M101.6,105.4h0.7c3,2.5,4.6,4.9,4.6,7.3
		c-0.6,2.2-1.2,3.2-1.9,3.2h-0.7c-2.3-2.2-4.2-3.2-5.9-3.2l-0.7,1.9c0,23.2-4.6,38.1-13.8,44.7l-6,4.7h-0.6v-1.3
		c9.7-10.7,14.5-17.7,14.5-21.1c-4.8-12.8-10.7-19.1-17.8-19.1l-3.9-3.9v-0.6c0-4.9,0.7-7.3,2-7.3h0.6c4.9,0.5,11.7,6.6,20.4,18.4
		h0.6v-5.9C93.7,112.7,96.3,106.8,101.6,105.4z M306.9,109.3c2.3,2.2,4.3,3.3,6,3.3V108l-2-1.9C308.2,106.1,306.9,107.2,306.9,109.3
		z M258.9,106.7c8.8,0.6,13.2,1.8,13.2,3.3v1.3c-3.2,8.3-7.8,14-13.9,17.1c-2.1,1.6-4.7,2.7-7.9,3.2l-1.9-0.6v-0.7
		c7.9-5.8,11.8-9.1,11.8-9.8v-0.7h-5.3c-4.2,0-8.8,1.3-13.9,3.9l-1.3-1.3v-0.6c2.7-8.8,6.6-13.2,11.8-13.2L258.9,106.7z M524,106.7
		l0.7,0.7v0.6c0,3.6-9.4,10.4-28.3,20.4l-30.3,18.4h-1.9v-2.6c0-3.3,7.5-8.8,22.4-16.5C507.2,115.2,519.6,108.2,524,106.7z
		 M203.6,110.6c0,2.2,1.5,4,4.6,5.3h1.3V114c0-3.1-1.5-4.7-4.6-4.7L203.6,110.6z M432.6,114c0,2.2,1.1,3.7,3.2,4.6h0.7l1.3-1.3v-1.3
		c0-2.2-0.7-3.5-2-3.9h-1.3L432.6,114z M622.1,115.9c0.2,1.4,2.2,3.2,5.9,5.3h0.7c0.9,0,1.3-0.6,1.3-1.9c0-4.4-1.5-6.6-4.7-6.6h-0.6
		C623,113.5,622.1,114.6,622.1,115.9z M326,142.9h1.9l6,15.1c-0.6,7-3.1,10.5-7.3,10.5c-1.5,0-4.5-1.3-9.2-3.9c-3,3.8-5.9,6-8.5,6.6
		c-4.4-1.6-6.6-4.7-6.6-9.2l1.9-11.1h1.3v9.2c1.1,1.9,2.2,3,3.3,3.2c4.5,0,6.9-2.6,7.2-7.9v-5.9l-0.6-0.7l1.3-4.6h1.3
		c0.8,0,2.1,4.6,3.9,13.8l2.6,2h3.9c-2.2-6.8-3.3-11.5-3.3-13.9L326,142.9z M531.9,146.2v2c-1.8,3-2.6,7.1-2.6,12.5
		c1.3,5.7,3.5,8.6,6.6,8.6c1.5-4,2.6-6,3.3-6l0.6,2c0,4.5-1.8,8.2-5.3,11.1h-0.6c-4.4,0-7.1-4.4-7.9-13.2
		C527.3,155.6,529.3,149.9,531.9,146.2z M233.9,149.5c3.7,0,7.2,2.8,10.5,8.5c0,2.6-1.8,5.5-5.3,8.6h-1.3c-6.1-4-9.2-7.1-9.2-9.2
		C230.5,153,232.2,150.4,233.9,149.5z M447.7,151.4c6.1,4.3,9.2,7.8,9.2,10.5c0,1.8-1.8,4.2-5.3,7.3c-1.9,0-4.9-2-9.2-6l-7.2,8.6
		h-0.7c-7-3.9-10.5-7.2-10.5-9.9c2.2-4.9,3.9-7.5,5.3-7.9h2l6.6,4.7h1.9l6.6-7.3H447.7z M628.7,152.8h1.3v0.7l-2.6,8.5v2.6
		c0,4.9,1.8,7.3,5.3,7.3l2.6-2.6h0.6v0.6c0,4-2,7.3-5.9,9.9c-4-1.1-6-4.8-6-11.2C624.7,163.6,626.2,158.4,628.7,152.8z M128.6,154.8
		h1.9c5.8,3.5,8.9,6.1,9.2,7.9c-2,5-4,7.8-5.9,8.5c-4.3-1.7-7.8-4.3-10.5-7.9C124.8,158.3,126.5,155.5,128.6,154.8z M484.5,165.3
		h1.3l13.9,14.5v0.6l-1.3,1.3h-3.3v3.3c7,10.4,10.5,19.2,10.5,26.3c0,11.2-5.7,20.8-17.1,29c-1.8,4.1-2.6,7.8-2.6,11.1v0.7
		c0,8.8,5.1,15.1,15.2,19h9.2c14.6,0,32.6-12.5,54-37.5c0-2.2-0.9-3.5-2.6-3.9c-7,1.8-13,2.6-17.8,2.6c-9.2-1.2-13.8-5.4-13.8-12.5
		v-0.6c0-9.8,4.6-16.8,13.8-21.1h2c5.6,0,12.3,5,20.4,15.1h3.3l19-13.2h2c0.6,0,1.3,0.9,1.9,2.6l-0.6,3.3
		c1.4,8.3,5.6,12.5,12.5,12.5h5.3c7.7,0,14.7-6.8,21.1-20.4l2-1.3h0.6l-2.6,9.2v0.6c1.2,2.6,4.5,5,9.9,7.3h7.9
		c1.3,0,1.9-0.9,1.9-2.6l-3.2-7.9c1.3-6.1,2.4-9.2,3.2-9.2c2.2,0,4.2,5,6,15.1c0,11.9-4.6,17.8-13.9,17.8c-4.5,0-10-2.9-16.4-8.6
		h-0.7c-6.1,8.4-12.5,12.5-19,12.5h-3.9c-7,0-12-4.6-15.2-13.9l-0.6-1.9h-2c-9.7,6.4-14.5,10.8-14.5,13.2c0,12.7-7.9,25-23.7,36.8
		c-14,12.7-26.5,19-37.5,19H505c-15.4-2.7-23.1-12.1-23.1-28.3v-9.2l-30.3,17.7c-6.7,4.9-19.7,9.2-38.8,13.2l-21.1,3.3v-0.7
		c0.6-1.5,12.3-6.6,34.8-15.1l39.5-22.4c22.8-15.2,34.2-25.1,34.2-29.7c-9.1-16.7-15-29.6-17.7-38.8L484.5,165.3z M459.5,174.5v1.3
		c0,6.2-3.7,14.1-11.1,23.7v1.3c9.2,7,13.8,13.4,13.8,19c0,13.3-8.8,21.8-26.3,25.7c-4.4,0-7.2-3.7-8.5-11.2
		c0-7.1,2.2-16.1,6.6-26.9c-11.9-9.8-17.8-16.4-17.8-19.7v-3.3c0-3.5,0.9-5.3,2.6-5.3c9.9,3.9,15.4,6.8,16.5,8.6v0.6l-2,2.6v0.7
		c0.4,1.1,2.6,2.9,6.6,5.3h1.3c2.1-1.5,7.8-8.9,17.1-22.4H459.5z M188.4,177.8l0.7,0.7c-2.6,7.7-3.9,13-3.9,15.8
		c0.7,6.1,2,9.2,3.9,9.2c1.8-0.9,2.6-2,2.6-3.3h1.3v1.3c-1.3,6.1-3.1,9.2-5.3,9.2c-4-1.7-6-4.8-6-9.2v-2.6
		C184.1,184.8,186.3,177.8,188.4,177.8z M98.9,183l0.7,0.7l-3.9,19.7v6.6c0,4.7,1.8,8,5.3,9.8c1.8,0,3.1-1.8,3.9-5.3h0.6
		c0.9,0,1.3,0.7,1.3,2c-0.8,8.8-3.1,13.2-7.2,13.2c-4,0-6.9-5.7-8.6-17.1C92.9,198.2,95.5,188.3,98.9,183z M320.7,185.7
		c3.2,0,6.9,3.1,11.1,9.2c-2.3,5.3-4.3,7.9-5.9,7.9c-2.8-0.7-6.3-3.3-10.5-7.9v-0.6C317.5,188.5,319.3,185.7,320.7,185.7z
		 M214.8,198.8v0.7c15.9,13.6,24.9,20.4,27,20.4c6.5-0.8,20.7-7.2,42.7-19v-0.7c-15.9-3.9-30.2-5.9-42.7-5.9h-0.7l-0.6,0.6l-0.7-0.6
		C223.1,194.8,214.8,196.4,214.8,198.8z M134.5,200.1l6.6,2c4.9,0,7.3-0.7,7.3-2c0-0.6-1.8-2-5.3-3.9h-4.7
		C135.8,196.2,134.5,197.5,134.5,200.1z M431.9,227.8c0.9,2.4,2.2,3.9,3.9,4.7h0.7c6.1,0,12.2-3.1,18.4-9.2v-0.7
		c0-2.7-3.9-6-11.8-9.8h-2.6C434.8,217.5,431.9,222.6,431.9,227.8z M538.5,215.9v0.7c0,1.2,2.2,2.1,6.6,2.6h0.7
		c5.3,0,7.9-0.9,7.9-2.6l-5.3-3.9h-6.6L538.5,215.9z M639.2,242.9h1.9v0.6c-2,9.7-4.4,14.5-7.2,14.5l-9.2-0.6
		c-2.5,2.6-4.9,3.9-7.3,3.9l-7.9-2.6h-1.3c-2.5,0-11.7,5-27.6,15.1l-7.2,2l-0.7-0.7v-0.6l34.2-22.4l4.7-0.7l8.5,2.6h2
		c4.4-3.2,6.6-5.6,6.6-7.2h0.6c1.8,2.6,3.5,3.9,5.3,3.9h0.7C636.6,250.8,637.9,248.2,639.2,242.9z M358.9,251.5v0.7
		c-3.1,7.5-4.7,12.4-4.7,14.5c0,5.7,1.3,8.5,3.9,8.5l4.7-4.6v0.6c-1.3,7-3.9,10.5-7.9,10.5c-2.4,0-3.9-2.6-4.7-7.9v-2.6
		C352.1,262.4,354.9,255.8,358.9,251.5z M212.1,262l-0.6,7.9v2.6c0,3.4,0.9,5.4,2.6,6h1.9l3.3-2.6h0.6v0.6c-1.7,6.1-4.1,9.2-7.2,9.2
		c-3.5-1.6-5.3-4.7-5.3-9.2v-0.6C207.6,270,209.1,265.4,212.1,262z M120,264h0.7v0.6c0,3.7-5.3,7.2-15.8,10.5L72,288.3l-1.3-1.3
		c0-3,10.7-8.3,32.2-15.8C111.1,266.4,116.8,264,120,264z"/>
</g>
</svg>
