<?xml version="1.0" encoding="utf-8"?>
<!-- Generator: Adobe Illustrator 25.2.3, SVG Export Plug-In . SVG Version: 6.00 Build 0)  -->
<svg version="1.1" xmlns="http://www.w3.org/2000/svg" xmlns:xlink="http://www.w3.org/1999/xlink" x="0px" y="0px"
	 viewBox="0 0 700 395" style="enable-background:new 0 0 700 395;" xml:space="preserve">
<style type="text/css">
	.st0{fill:#000222;}
	.st1{fill:#FFFFFF;}
</style>
<g id="Layer_1">
	<rect class="st0" width="700" height="395"/>
</g>
<g id="Layer_3">
	<g>
		<path class="st1" d="M273.5,368.6l1.1,4.2c0.2,0.9,0.5,1.8,0.6,2.6h0.1c0.2-0.8,0.5-1.7,0.7-2.6l1.3-4.2h1.3l1.3,4.1
			c0.3,1,0.5,1.9,0.7,2.7h0.1c0.1-0.8,0.4-1.7,0.6-2.7l1.2-4.1h1.5l-2.7,8.2H280l-1.3-3.9c-0.3-0.9-0.5-1.7-0.7-2.7h0
			c-0.2,1-0.5,1.8-0.7,2.7l-1.3,3.9h-1.4l-2.5-8.2H273.5z"/>
		<path class="st1" d="M286.3,368.6l1.1,4.2c0.2,0.9,0.5,1.8,0.6,2.6h0.1c0.2-0.8,0.5-1.7,0.7-2.6l1.3-4.2h1.3l1.3,4.1
			c0.3,1,0.5,1.9,0.7,2.7h0.1c0.1-0.8,0.4-1.7,0.6-2.7l1.2-4.1h1.5l-2.7,8.2h-1.4l-1.3-3.9c-0.3-0.9-0.5-1.7-0.7-2.7h0
			c-0.2,1-0.5,1.8-0.7,2.7l-1.3,3.9h-1.4l-2.5-8.2H286.3z"/>
		<path class="st1" d="M299,368.6l1.1,4.2c0.2,0.9,0.5,1.8,0.6,2.6h0.1c0.2-0.8,0.5-1.7,0.7-2.6l1.3-4.2h1.3l1.3,4.1
			c0.3,1,0.5,1.9,0.7,2.7h0.1c0.1-0.8,0.4-1.7,0.6-2.7l1.2-4.1h1.5l-2.7,8.2h-1.4l-1.3-3.9c-0.3-0.9-0.5-1.7-0.7-2.7h0
			c-0.2,1-0.5,1.8-0.7,2.7l-1.3,3.9h-1.4l-2.5-8.2H299z"/>
		<path class="st1" d="M309.9,375.9c0-0.6,0.4-1.1,1-1.1c0.6,0,1,0.4,1,1.1c0,0.6-0.4,1.1-1,1.1C310.3,377,309.9,376.5,309.9,375.9z
			"/>
		<path class="st1" d="M313.5,375.3c0.4,0.3,1.2,0.6,2,0.6c1.1,0,1.6-0.5,1.6-1.2c0-0.7-0.4-1.1-1.5-1.5c-1.5-0.5-2.2-1.3-2.2-2.3
			c0-1.3,1.1-2.4,2.8-2.4c0.8,0,1.6,0.2,2,0.5l-0.4,1.1c-0.3-0.2-0.9-0.5-1.7-0.5c-0.9,0-1.4,0.5-1.4,1.1c0,0.7,0.5,1,1.6,1.4
			c1.4,0.5,2.2,1.3,2.2,2.5c0,1.4-1.1,2.5-3.1,2.5c-0.9,0-1.7-0.2-2.3-0.6L313.5,375.3z"/>
		<path class="st1" d="M327.4,374.6c0,0.9,0,1.6,0.1,2.2h-1.3l-0.1-1.3h0c-0.4,0.7-1.3,1.5-2.7,1.5c-1.3,0-2.8-0.7-2.8-3.6v-4.8h1.5
			v4.6c0,1.6,0.5,2.6,1.8,2.6c1,0,1.7-0.7,2-1.4c0.1-0.2,0.1-0.5,0.1-0.8v-5h1.5V374.6z"/>
		<path class="st1" d="M329.8,371.1c0-1,0-1.8-0.1-2.6h1.3l0.1,1.6h0.1c0.4-1.1,1.3-1.8,2.3-1.8c0.2,0,0.3,0,0.4,0.1v1.4
			c-0.2,0-0.3-0.1-0.5-0.1c-1.1,0-1.8,0.8-2,1.9c0,0.2-0.1,0.4-0.1,0.7v4.4h-1.5V371.1z"/>
		<path class="st1" d="M339.9,376.8l-0.1-1h-0.1c-0.5,0.6-1.3,1.2-2.5,1.2c-1.7,0-2.5-1.2-2.5-2.4c0-2,1.8-3.1,4.9-3.1v-0.2
			c0-0.7-0.2-1.9-1.9-1.9c-0.8,0-1.6,0.2-2.1,0.6l-0.3-1c0.7-0.4,1.7-0.7,2.7-0.7c2.5,0,3.1,1.7,3.1,3.4v3.1c0,0.7,0,1.4,0.1,2
			H339.9z M339.7,372.6c-1.6,0-3.5,0.3-3.5,1.9c0,1,0.6,1.4,1.4,1.4c1.1,0,1.8-0.7,2-1.4c0.1-0.2,0.1-0.3,0.1-0.5V372.6z"/>
		<path class="st1" d="M343.5,364.7h1.5v5.1h0c0.2-0.4,0.6-0.8,1.1-1.1c0.4-0.3,1-0.4,1.5-0.4c1.1,0,2.9,0.7,2.9,3.5v4.9H349v-4.7
			c0-1.3-0.5-2.4-1.9-2.4c-1,0-1.7,0.7-2,1.5c-0.1,0.2-0.1,0.4-0.1,0.7v5h-1.5V364.7z"/>
		<path class="st1" d="M358.6,375.5L358.6,375.5c-0.5,0.8-1.4,1.5-2.7,1.5c-1.9,0-3.5-1.7-3.5-4.2c0-3.1,2-4.4,3.7-4.4
			c1.3,0,2.1,0.6,2.5,1.4h0l0.1-1.2h1.4c0,0.7-0.1,1.4-0.1,2.3v9.3h-1.5V375.5z M358.6,371.9c0-0.2,0-0.4-0.1-0.6
			c-0.2-0.9-1-1.7-2.1-1.7c-1.5,0-2.5,1.3-2.5,3.2c0,1.6,0.8,3.1,2.4,3.1c1,0,1.8-0.6,2.1-1.6c0.1-0.2,0.1-0.5,0.1-0.7V371.9z"/>
		<path class="st1" d="M369.4,374.6c0,0.9,0,1.6,0.1,2.2h-1.3l-0.1-1.3h0c-0.4,0.7-1.3,1.5-2.7,1.5c-1.3,0-2.8-0.7-2.8-3.6v-4.8h1.5
			v4.6c0,1.6,0.5,2.6,1.8,2.6c1,0,1.7-0.7,2-1.4c0.1-0.2,0.1-0.5,0.1-0.8v-5h1.5V374.6z"/>
		<path class="st1" d="M371.9,371.1c0-1,0-1.8-0.1-2.6h1.3l0.1,1.6h0.1c0.4-1.1,1.3-1.8,2.3-1.8c0.2,0,0.3,0,0.4,0.1v1.4
			c-0.2,0-0.3-0.1-0.5-0.1c-1.1,0-1.8,0.8-2,1.9c0,0.2-0.1,0.4-0.1,0.7v4.4h-1.5V371.1z"/>
		<path class="st1" d="M381.9,376.8l-0.1-1h-0.1c-0.5,0.6-1.3,1.2-2.5,1.2c-1.7,0-2.5-1.2-2.5-2.4c0-2,1.8-3.1,4.9-3.1v-0.2
			c0-0.7-0.2-1.9-1.9-1.9c-0.8,0-1.6,0.2-2.1,0.6l-0.3-1c0.7-0.4,1.7-0.7,2.7-0.7c2.5,0,3.1,1.7,3.1,3.4v3.1c0,0.7,0,1.4,0.1,2
			H381.9z M381.7,372.6c-1.6,0-3.5,0.3-3.5,1.9c0,1,0.6,1.4,1.4,1.4c1.1,0,1.8-0.7,2-1.4c0.1-0.2,0.1-0.3,0.1-0.5V372.6z"/>
		<path class="st1" d="M385.6,370.8c0-0.9,0-1.5-0.1-2.2h1.3l0.1,1.4h0c0.4-0.8,1.4-1.5,2.7-1.5c1.1,0,2.9,0.7,2.9,3.5v4.9h-1.5
			v-4.7c0-1.3-0.5-2.4-1.9-2.4c-1,0-1.8,0.7-2,1.5c-0.1,0.2-0.1,0.4-0.1,0.7v4.9h-1.5V370.8z"/>
		<path class="st1" d="M394.6,375.9c0-0.6,0.4-1.1,1-1.1c0.6,0,1,0.4,1,1.1c0,0.6-0.4,1.1-1,1.1C395,377,394.6,376.5,394.6,375.9z"
			/>
		<path class="st1" d="M404.4,376.5c-0.4,0.2-1.3,0.5-2.4,0.5c-2.5,0-4.1-1.7-4.1-4.2c0-2.5,1.7-4.4,4.4-4.4c0.9,0,1.7,0.2,2.1,0.4
			l-0.3,1.2c-0.4-0.2-0.9-0.4-1.7-0.4c-1.9,0-2.9,1.4-2.9,3.1c0,1.9,1.2,3.1,2.9,3.1c0.8,0,1.4-0.2,1.8-0.4L404.4,376.5z"/>
		<path class="st1" d="M413.5,372.6c0,3-2.1,4.4-4.1,4.4c-2.2,0-3.9-1.6-3.9-4.2c0-2.8,1.8-4.4,4.1-4.4
			C411.9,368.4,413.5,370.1,413.5,372.6z M406.9,372.7c0,1.8,1,3.2,2.5,3.2c1.4,0,2.5-1.3,2.5-3.2c0-1.4-0.7-3.2-2.5-3.2
			S406.9,371.1,406.9,372.7z"/>
		<path class="st1" d="M415.4,370.8c0-0.9,0-1.5-0.1-2.2h1.3l0.1,1.3h0.1c0.5-0.8,1.2-1.5,2.6-1.5c1.1,0,2,0.7,2.3,1.6h0
			c0.3-0.5,0.6-0.8,0.9-1.1c0.5-0.4,1-0.6,1.8-0.6c1.1,0,2.7,0.7,2.7,3.6v4.8h-1.5v-4.7c0-1.6-0.6-2.5-1.8-2.5
			c-0.9,0-1.5,0.6-1.8,1.4c-0.1,0.2-0.1,0.5-0.1,0.7v5.1h-1.5v-4.9c0-1.3-0.6-2.3-1.7-2.3c-0.9,0-1.6,0.7-1.9,1.5
			c-0.1,0.2-0.1,0.5-0.1,0.7v5h-1.5V370.8z"/>
	</g>
</g>
<g id="Layer_4">
	<path class="st1" d="M307.9,101.4h0.6c1.3,0,2.6,2.6,3.8,7.7v6.4l3.2,7.1v1.9l-1.3,1.3H313l-2-1.3h-1.3
		c-13.8,15.1-27.2,25.2-40.2,30h-1.3c1.5-2,11.7-10.6,30.6-25.5c3.8-3.1,5.7-5.7,5.7-7.7c-1.9,0-3.6-2.4-5.1-7.1
		C301.3,105.7,304.1,101.4,307.9,101.4z M392.2,107.8h1.9c0,1.5,3,8.5,8.9,21.1l3.8,11.5l-0.6,0.6h-2l-4.4-4.4
		c-0.9,0-1.3,0.6-1.3,1.9c7.7,49.1,12.5,84.2,14.6,105.3l-0.6,3.1l0.6,0.7c-1.4,11.1-2.8,16.6-4.4,16.6c-1.3,0-2.4-8.9-3.2-26.8
		l-17.2-118.7C389.9,111.4,391.1,107.8,392.2,107.8z M303.4,111.6l3.2,2.6h2.6v-0.6c0-2.3-0.9-3.8-2.6-4.5h-1.3L303.4,111.6z
		 M360.8,108.5c4.1,7.1,8.6,17.4,13.4,30.6l-0.7,1.9h-1.3l-3.8-3.1h-1.3l12.2,78.4l1.9,20.4v3.2c-1.2,8.6-3.4,14.6-6.4,17.9
		c-5.1,4.7-11.5,7-19.1,7c-6.2,0-11.7-6.2-16.6-18.5c-0.4-3.4-1.2-5.1-2.6-5.1c-1.4,7.2-13.5,19.1-36.3,35.7
		c-8.3,3.8-14.7,5.7-19.1,5.7c-9.4-2.2-14-7.3-14-15.3v-7.7l1.3-12.1l-2-0.7c-26.7,15.3-49,23-67,23c-16.5,0-27.1-8.7-31.9-26.1
		c-2.6-7.7-5.1-32.8-7.7-75.3c-1.7-20.8-4.3-36.5-7.7-47.2c0.9-7.3,2.3-10.9,4.4-10.9c4.1,0,9,39.1,14.7,117.4
		c0,10.9,5.7,19.9,17.2,26.8c4.1,1.4,8.8,2.2,14,2.6c18.5,0,40-7.4,64.5-22.3l0.6-0.7v-0.6c-4-1.7-14.9-4.1-32.5-7.1
		c-4.3,1.7-12.6,3-24.9,3.8c-1.7-0.6-2.6-1.2-2.6-1.9c0-7.7,7.5-13,22.4-16h2.6c31.8,8.1,54.7,12.2,68.9,12.2l15.9-0.7l0.7,0.7v0.6
		c0,3.5-1.7,7.1-5.1,10.9h-12.2c-19.1,1-28.7,5.3-28.7,12.8l-1.3,8.3c0,7,3.6,11.3,10.8,12.8c12.5,0,29.6-11.5,51.1-34.5l2-3.1
		c0-10.3-4.7-27.7-14-52.3c-1,0-1.8-2.6-2.6-7.7l1.3-7.7h0.6c4.4,0,10.6,14.7,18.5,44c2.9,22.7,6.8,36.4,11.5,40.8
		c3.4,2.2,6.8,3.2,10.2,3.2h3.1c8.1-2.7,12.2-5,12.2-7.1v-2.6l-19.1-123.8C357.8,112.1,359.3,108.5,360.8,108.5z M447,108.5
		c2.9,1,4.4,3.6,4.4,7.7v0.6l-0.6,8.9l6.4,8.9c-0.6,2.2-1.2,3.2-2,3.2h-0.6c-3.6-2.6-5.9-3.8-7.1-3.8l-11.5,10.2
		c-4.7,3.4-11.5,7.2-20.4,11.5h-3.1V155c0-0.9,5.1-4.5,15.3-10.8c6.5-4.3,11.4-8.8,14.6-13.4c-2.9-4.4-4.4-7.4-4.4-8.9
		C440.4,113,443.4,108.5,447,108.5z M209.7,109.1h0.6c4.7,1,7.1,4.2,7.1,9.6l-0.7,1.9c-1.5,0-3.6-1-6.4-3.1h-3.1
		c0,12.6-1.5,21.7-4.5,27.4h-1.3c-5.3-11.1-10.2-16.6-14.6-16.6c-2.7,0-5.1-1.7-7.1-5.1v-1.9c0.9-3.9,1.9-5.8,3.2-5.8
		c4.8,0,11.1,5.8,19.1,17.3h1.3v-3.8C203.4,118.6,205.5,112,209.7,109.1z M584.2,109.1h3.2c2.9,2.1,4.4,4.5,4.4,7.1
		c-0.4,2.6-1,3.8-1.9,3.8h-1.3c-2.8-2.6-5-3.8-6.4-3.8c-1.7,1.9-2.6,3.3-2.6,4.4c0,12.2-1.1,22-3.2,29.4h-1.3
		c-6.4-12.8-12.3-19.1-17.9-19.1c-3.4-2-5.1-4.2-5.1-6.4c1-3.8,2-5.7,3.2-5.7c3.5,0,9.7,5.3,18.5,15.9h1.3
		C575.3,121,578.2,112.5,584.2,109.1z M531.9,111.1l0.7,0.6v1.3c0,3.7-9.8,10.5-29.4,20.4c-18.4,11.5-28.4,17.3-30,17.3v-2.6
		c0-3.4,9.4-10,28.1-19.8C517.8,118.4,528,112.6,531.9,111.1z M630.8,111.1h3.1c2.3,0,4,6.6,5.1,19.7c1.2,0.1,2.5,2,3.8,5.8
		l-1.9,3.1l-5.8-3.1c-22.4,20-38.6,30-48.5,30l-0.6,0.7h-0.7l-0.6-0.7v-0.6c19.6-11,34.2-20.8,44-29.4l1.3-2V134
		c-4.3-3.6-6.4-6.8-6.4-9.6C623.8,119.1,626.1,114.7,630.8,111.1z M442.5,119.3c0.6,1.8,1.6,3,3.2,3.8h1.9v-4.4l-1.9-2h-1.3
		C443.4,116.8,442.8,117.6,442.5,119.3z M89,116.8c2,0,4.3,2.1,7.1,6.4v2l-2,1.9l-7-2.6l-2,2v3.1l0.7,14l-2,12.2h-1.3
		c-5.6-9.4-9.4-15.2-11.5-17.3l-2.6-1.3H68l-5.8,11.5c-9.8,9.8-15.9,14.7-18.5,14.7h-0.7v-0.7l19.1-21l0.7-3.2v-1.3
		c-3.9-2.5-5.8-4.4-5.8-5.7c0.5-5.1,1.3-7.7,2.6-7.7c6.9,0,14,6,21.1,17.9H82v-8.9C82.9,122.1,85.2,116.8,89,116.8z M281.7,117.4
		c0.9,0,1.3,0.6,1.3,1.9c0,4.7-8.1,10.2-24.2,16.6c-29,15.7-51.4,28.3-67,37.7l-10.9,8.3h-0.6v-1.3h-0.7c0-8,13.4-18.4,40.2-31.2
		C258.7,128.1,279.3,117.4,281.7,117.4z M630.1,118c-1.7,1.5-2.6,2.7-2.6,3.7c0,1,1.7,2.6,5.1,4.6h2v-2
		C634.7,120.2,633.2,118,630.1,118z M126.7,118.7l0.6,0.6h0.7l-5.8,22.4c0,7.8,1.7,12.7,5.1,14.6h1.3c1.4,0,2.4-2.1,3.2-6.4h1.9v1.3
		h0.7c-2,9.8-4.2,14.7-6.4,14.7h-1.3c-5.1,0-8.1-5.5-8.9-16.6C117.8,141.5,120.7,131.3,126.7,118.7z M320.7,133.3h0.6
		c3,2.8,5.1,7.5,6.4,14c-1.2,6.4-3.5,9.6-7,9.6l-5.8-2.6c-4,3.8-6.5,5.7-7.7,5.7h-2.6l-3.1-3.8v-8.9l0.6-4.4h1.3
		c0.5,6.4,1.3,9.5,2.6,9.5h3.2c2.1-1.1,3.1-3,3.1-5.7l-0.6-9.6l0.6-0.6h2c1.6,8.1,3.3,12.1,5.1,12.1h3.8v-1.3
		c-2.2-5.3-3.2-9.1-3.2-11.5L320.7,133.3z M538.9,149.9h0.6v0.7c-2.1,4.7-3.1,8.3-3.1,10.8c0.3,6.8,2.4,10.2,6.4,10.2
		c1.4-3.4,2.5-5.1,3.1-5.1l0.7,0.7v1.3c0,6.2-2.4,9.8-7.1,10.8c-4.3-2-6.4-5.8-6.4-11.4S535.1,156.3,538.9,149.9z M455.3,155h2.6
		c5.6,4,8.3,7.1,8.3,9.3s-1.7,4.8-5.1,8c-1.4,0-4.8-1.9-10.2-5.8c-2.9,4.9-4.8,7.4-5.8,7.7c-7.2-2.4-10.8-5.4-10.8-8.9
		c1.8-5.5,3.7-8.3,5.7-8.3l9.6,5.1h0.6C450.7,159.9,452.4,157.5,455.3,155z M634.7,156.3h0.6l-3.1,9.6v1.3c0,4.8,1,7.7,3.1,8.9
		c2.2-0.7,3.2-1.8,3.2-3.2h1.9c0,4-1.9,7.4-5.7,10.2c-3.3,0-5.4-3.6-6.4-10.8C629.7,165,631.9,159.7,634.7,156.3z M493.6,167.8h0.7
		l13.4,14v0.7c0,0.9-1.5,1.3-4.4,1.3l-0.7,1.9c5.3,9.1,8.7,16.4,10.2,21.7v7.7c0,8.4-5.7,17.3-17.2,26.8c-1.3,2.1-2,4.9-2,8.3v0.6
		c1.4,13.2,7.4,19.8,17.9,19.8h6.4c12.6,0,29.5-11.3,50.5-33.9l1.3-1.9v-2l-2-1.9l-16.6,2.6c-9.8,0-14.6-4.7-14.6-14
		c0-9.6,4.9-16.3,14.6-19.8h0.7c6.7,0,13.5,5.1,20.4,15.3h2.6l17.2-12.1l4.5-2l1.3,3.2l-0.7,3.8c0,6.4,3.8,10.7,11.5,12.8h2.6
		c10.1,0,17.3-6,21.7-17.9c1.4-2.6,2.9-3.8,4.5-3.8v1.9l-2,6.4v0.7c0,3.2,3,5.9,8.9,8.3h5.8c2.6,0,3.8-1.3,3.8-3.8
		c-1,0-2-2.1-3.2-6.4c0.6-5.9,1.6-9.1,3.2-9.5c3.8,3.4,5.7,8.1,5.7,14c0,12.3-4.7,18.5-14,18.5h-0.6c-4.1,0-9-2.8-14.7-8.3l-8.3,8.3
		c-3.6,2-7.6,3.5-12.2,4.5c-11.9-2.4-17.9-8-17.9-16.6H590c-9.8,6.6-14.7,10.8-14.7,12.8c0,10.7-5.3,20.2-15.9,28.7
		c-16.8,16.6-31.5,24.9-44.1,24.9h-2.6c-13.2,0-21-8.1-23.6-24.2l0.6-12.2c-1.1,0-10.9,5.8-29.4,17.3c-9.7,5.1-19.5,8.7-29.4,10.8
		l-27.4,5.1H403l-1.3-1.3c2-1.7,13.7-6.6,35.1-14.6c21.1-10.2,43.2-24.2,66.4-42.1l3.8-5.1v-2.6c0-1.2-4.1-9.8-12.2-25.5l-3.8-11.5
		C491.5,171,492.3,167.8,493.6,167.8z M92.2,173.6h0.6l-1.9,9.5c0,9,1.9,13.4,5.7,13.4h0.7c0.4-2.6,1-3.8,1.9-3.8h0.7v0.6
		c-1,7.3-2.5,10.9-4.5,10.9c-5.1,0-7.7-4.7-7.7-14v-2.6C89.3,179,90.8,174.3,92.2,173.6z M287.5,176.7h1.3l-1.3,16
		c0,2.5,1.3,4.6,3.8,6.4h0.6c0.9,0,1.7-1.3,2.6-3.8h1.3v3.8c-1.4,5.1-2.9,7.7-4.4,7.7h-0.7c-4.7,0-7-4.1-7-12.2
		C283.7,192.1,285,186.2,287.5,176.7z M467.5,177.4h1.3v0.6c0,5.8-3.6,13.3-10.9,22.4c0,1.5,2.8,4.7,8.3,9.5c2.6,3.3,4,6.8,4.4,10.2
		c0,11.7-7,20.1-21,24.9l-5.1,0.6c-4.5,0-7.3-3.8-8.3-11.5c0-6.2,2.1-14.3,6.4-24.2v-1.3c-11.1-10-16.6-16.1-16.6-18.5v-3.8
		c0-3.4,0.9-5.1,2.6-5.1c8.9,3.6,14.2,6.2,16,7.7v1.9l-3.2,0.7v0.6c3.1,3.9,6.1,5.8,8.9,5.8L467.5,177.4z M48.8,178.7l1.3,1.3
		c-2.2,7-3.2,14.5-3.2,22.3v1.3c0.8,7.3,3.1,10.9,7.1,10.9c1.1,0,2.2-2.4,3.1-7.1h0.7c0.9,0,1.3,0.7,1.3,2
		c0,11.1-3.4,16.6-10.2,16.6c-1.3,0-2.4,6.6-3.2,19.7c0,10.6,6,18.4,17.9,23.7l9.6,1.3H75c18.8,0,41.7-10.4,68.9-31.3v-1.9
		l-10.8-32.6c0-2.3-1.1-5.9-3.2-10.8c0.5-3.7,1.3-6.9,2.6-9.6h1.3c8.1,8.8,12.2,14.5,12.2,17.3l-0.7,0.6h-0.6l-3.2-0.6v1.3l7.7,24.8
		l0.7,7.7v0.7c-2.4,10.6-5.2,15.9-8.3,15.9c-4.6,4.7-15.9,12.2-33.8,22.4c-13.8,6-24.6,8.9-32.6,8.9h-3.8
		c-11.4,0-20.8-6.2-28.1-18.5L40.5,252c0.1-7.7,2.2-17.7,6.4-30v-0.7c-2.6-3.9-3.8-8.1-3.8-12.8v-3.1c0-6.9,1.7-15.9,5.1-26.8H48.8z
		 M244.7,178.7h3.2c3.8,2.3,6.8,4.8,8.9,7.7v0.6c-2,5.6-3.7,8.3-5.1,8.3c-2.4,0-6.1-2.4-10.9-7.1v-1.3
		C242,182.1,243.3,179.3,244.7,178.7z M195.6,186.4l0.6,0.6v0.7c-2.1,5.8-3.1,10.7-3.1,14.6s1.7,6,5.1,6.4l2.6-1.9l0.6,0.6v0.7
		c0,3.5-1.5,6.3-4.4,8.3h-1.3c-3.9-0.3-5.8-4.1-5.8-11.3C189.8,197.8,191.8,191.6,195.6,186.4z M441.3,227.2v0.6
		c0,3.4,1.7,5.1,5.1,5.1h1.3c10.7-3.1,16-6.5,16-10.2c-4.9-6-9.8-8.9-14.7-8.9C445.4,216.6,442.8,221.1,441.3,227.2z M544.6,218.3
		l6.4,2.6c5.6-0.5,8.3-1.3,8.3-2.6c-2-3-4.8-4.5-8.3-4.5h-0.6C547.1,213.8,545.1,215.3,544.6,218.3z M98.6,222.7
		c4.7,1.7,8.1,4.3,10.2,7.7c-2.4,5.6-4.1,8.3-5.1,8.3h-1.3c-6.4-3.2-9.6-5.8-9.6-7.7C94.8,226.2,96.7,223.4,98.6,222.7z
		 M644.2,243.8v1.3h0.7c-2.4,9.4-5,14-7.7,14h-0.7l-7-1.3c-2.2,2.6-5.4,3.8-9.6,3.8l-5.7-2.6c-4.4,0-12.9,4.5-25.5,13.4
		c-5.4,2.2-9.4,3.2-12.2,3.2c22.7-15.8,35.5-23.7,38.3-23.7l9.6,3.2c2.6,0,5.2-2.4,7.7-7.1h1.9c0,2.6,1.5,3.8,4.5,3.8
		c1,0,2.4-2.8,4.4-8.3H644.2z M335.3,258.4h0.7l-1.3,5.1v7.7c0,2.3,0.9,3.8,2.6,4.5l3.1-2.6l0.7,0.6h0.6c0,3.5-1.7,6.7-5.1,9.6h-1.3
		c-2.8-1.9-4.5-4.4-5.1-7.7C330.2,268.8,331.9,263,335.3,258.4z M162.4,266.8h1.3l0.6,1.9c0,3.4-8.3,8.7-24.8,16l-16,8.9l-1.3-1.3
		v-2.6C123.9,286.7,137.4,279.1,162.4,266.8z"/>
</g>
</svg>
