<?xml version="1.0" encoding="utf-8"?>
<!-- Generator: Adobe Illustrator 25.2.3, SVG Export Plug-In . SVG Version: 6.00 Build 0)  -->
<svg version="1.1" xmlns="http://www.w3.org/2000/svg" xmlns:xlink="http://www.w3.org/1999/xlink" x="0px" y="0px"
	 viewBox="0 0 700 395" style="enable-background:new 0 0 700 395;" xml:space="preserve">
<style type="text/css">
	.st0{fill:#000222;}
	.st1{fill:#FFFFFF;}
</style>
<g id="Layer_1">
	<rect class="st0" width="700" height="395"/>
</g>
<g id="Layer_3">
	<g>
		<path class="st1" d="M273.5,368.6l1.1,4.2c0.2,0.9,0.5,1.8,0.6,2.6h0.1c0.2-0.8,0.5-1.7,0.7-2.6l1.3-4.2h1.3l1.3,4.1
			c0.3,1,0.5,1.9,0.7,2.7h0.1c0.1-0.8,0.4-1.7,0.6-2.7l1.2-4.1h1.5l-2.7,8.2H280l-1.3-3.9c-0.3-0.9-0.5-1.7-0.7-2.7h0
			c-0.2,1-0.5,1.8-0.7,2.7l-1.3,3.9h-1.4l-2.5-8.2H273.5z"/>
		<path class="st1" d="M286.3,368.6l1.1,4.2c0.2,0.9,0.5,1.8,0.6,2.6h0.1c0.2-0.8,0.5-1.7,0.7-2.6l1.3-4.2h1.3l1.3,4.1
			c0.3,1,0.5,1.9,0.7,2.7h0.1c0.1-0.8,0.4-1.7,0.6-2.7l1.2-4.1h1.5l-2.7,8.2h-1.4l-1.3-3.9c-0.3-0.9-0.5-1.7-0.7-2.7h0
			c-0.2,1-0.5,1.8-0.7,2.7l-1.3,3.9h-1.4l-2.5-8.2H286.3z"/>
		<path class="st1" d="M299,368.6l1.1,4.2c0.2,0.9,0.5,1.8,0.6,2.6h0.1c0.2-0.8,0.5-1.7,0.7-2.6l1.3-4.2h1.3l1.3,4.1
			c0.3,1,0.5,1.9,0.7,2.7h0.1c0.1-0.8,0.4-1.7,0.6-2.7l1.2-4.1h1.5l-2.7,8.2h-1.4l-1.3-3.9c-0.3-0.9-0.5-1.7-0.7-2.7h0
			c-0.2,1-0.5,1.8-0.7,2.7l-1.3,3.9h-1.4l-2.5-8.2H299z"/>
		<path class="st1" d="M309.9,375.9c0-0.6,0.4-1.1,1-1.1c0.6,0,1,0.4,1,1.1c0,0.6-0.4,1.1-1,1.1C310.3,377,309.9,376.5,309.9,375.9z
			"/>
		<path class="st1" d="M313.5,375.3c0.4,0.3,1.2,0.6,2,0.6c1.1,0,1.6-0.5,1.6-1.2c0-0.7-0.4-1.1-1.5-1.5c-1.5-0.5-2.2-1.3-2.2-2.3
			c0-1.3,1.1-2.4,2.8-2.4c0.8,0,1.6,0.2,2,0.5l-0.4,1.1c-0.3-0.2-0.9-0.5-1.7-0.5c-0.9,0-1.4,0.5-1.4,1.1c0,0.7,0.5,1,1.6,1.4
			c1.4,0.5,2.2,1.3,2.2,2.5c0,1.4-1.1,2.5-3.1,2.5c-0.9,0-1.7-0.2-2.3-0.6L313.5,375.3z"/>
		<path class="st1" d="M327.4,374.6c0,0.9,0,1.6,0.1,2.2h-1.3l-0.1-1.3h0c-0.4,0.7-1.3,1.5-2.7,1.5c-1.3,0-2.8-0.7-2.8-3.6v-4.8h1.5
			v4.6c0,1.6,0.5,2.6,1.8,2.6c1,0,1.7-0.7,2-1.4c0.1-0.2,0.1-0.5,0.1-0.8v-5h1.5V374.6z"/>
		<path class="st1" d="M329.8,371.1c0-1,0-1.8-0.1-2.6h1.3l0.1,1.6h0.1c0.4-1.1,1.3-1.8,2.3-1.8c0.2,0,0.3,0,0.4,0.1v1.4
			c-0.2,0-0.3-0.1-0.5-0.1c-1.1,0-1.8,0.8-2,1.9c0,0.2-0.1,0.4-0.1,0.7v4.4h-1.5V371.1z"/>
		<path class="st1" d="M339.9,376.8l-0.1-1h-0.1c-0.5,0.6-1.3,1.2-2.5,1.2c-1.7,0-2.5-1.2-2.5-2.4c0-2,1.8-3.1,4.9-3.1v-0.2
			c0-0.7-0.2-1.9-1.9-1.9c-0.8,0-1.6,0.2-2.1,0.6l-0.3-1c0.7-0.4,1.7-0.7,2.7-0.7c2.5,0,3.1,1.7,3.1,3.4v3.1c0,0.7,0,1.4,0.1,2
			H339.9z M339.7,372.6c-1.6,0-3.5,0.3-3.5,1.9c0,1,0.6,1.4,1.4,1.4c1.1,0,1.8-0.7,2-1.4c0.1-0.2,0.1-0.3,0.1-0.5V372.6z"/>
		<path class="st1" d="M343.5,364.7h1.5v5.1h0c0.2-0.4,0.6-0.8,1.1-1.1c0.4-0.3,1-0.4,1.5-0.4c1.1,0,2.9,0.7,2.9,3.5v4.9H349v-4.7
			c0-1.3-0.5-2.4-1.9-2.4c-1,0-1.7,0.7-2,1.5c-0.1,0.2-0.1,0.4-0.1,0.7v5h-1.5V364.7z"/>
		<path class="st1" d="M358.6,375.5L358.6,375.5c-0.5,0.8-1.4,1.5-2.7,1.5c-1.9,0-3.5-1.7-3.5-4.2c0-3.1,2-4.4,3.7-4.4
			c1.3,0,2.1,0.6,2.5,1.4h0l0.1-1.2h1.4c0,0.7-0.1,1.4-0.1,2.3v9.3h-1.5V375.5z M358.6,371.9c0-0.2,0-0.4-0.1-0.6
			c-0.2-0.9-1-1.7-2.1-1.7c-1.5,0-2.5,1.3-2.5,3.2c0,1.6,0.8,3.1,2.4,3.1c1,0,1.8-0.6,2.1-1.6c0.1-0.2,0.1-0.5,0.1-0.7V371.9z"/>
		<path class="st1" d="M369.4,374.6c0,0.9,0,1.6,0.1,2.2h-1.3l-0.1-1.3h0c-0.4,0.7-1.3,1.5-2.7,1.5c-1.3,0-2.8-0.7-2.8-3.6v-4.8h1.5
			v4.6c0,1.6,0.5,2.6,1.8,2.6c1,0,1.7-0.7,2-1.4c0.1-0.2,0.1-0.5,0.1-0.8v-5h1.5V374.6z"/>
		<path class="st1" d="M371.9,371.1c0-1,0-1.8-0.1-2.6h1.3l0.1,1.6h0.1c0.4-1.1,1.3-1.8,2.3-1.8c0.2,0,0.3,0,0.4,0.1v1.4
			c-0.2,0-0.3-0.1-0.5-0.1c-1.1,0-1.8,0.8-2,1.9c0,0.2-0.1,0.4-0.1,0.7v4.4h-1.5V371.1z"/>
		<path class="st1" d="M381.9,376.8l-0.1-1h-0.1c-0.5,0.6-1.3,1.2-2.5,1.2c-1.7,0-2.5-1.2-2.5-2.4c0-2,1.8-3.1,4.9-3.1v-0.2
			c0-0.7-0.2-1.9-1.9-1.9c-0.8,0-1.6,0.2-2.1,0.6l-0.3-1c0.7-0.4,1.7-0.7,2.7-0.7c2.5,0,3.1,1.7,3.1,3.4v3.1c0,0.7,0,1.4,0.1,2
			H381.9z M381.7,372.6c-1.6,0-3.5,0.3-3.5,1.9c0,1,0.6,1.4,1.4,1.4c1.1,0,1.8-0.7,2-1.4c0.1-0.2,0.1-0.3,0.1-0.5V372.6z"/>
		<path class="st1" d="M385.6,370.8c0-0.9,0-1.5-0.1-2.2h1.3l0.1,1.4h0c0.4-0.8,1.4-1.5,2.7-1.5c1.1,0,2.9,0.7,2.9,3.5v4.9h-1.5
			v-4.7c0-1.3-0.5-2.4-1.9-2.4c-1,0-1.8,0.7-2,1.5c-0.1,0.2-0.1,0.4-0.1,0.7v4.9h-1.5V370.8z"/>
		<path class="st1" d="M394.6,375.9c0-0.6,0.4-1.1,1-1.1c0.6,0,1,0.4,1,1.1c0,0.6-0.4,1.1-1,1.1C395,377,394.6,376.5,394.6,375.9z"
			/>
		<path class="st1" d="M404.4,376.5c-0.4,0.2-1.3,0.5-2.4,0.5c-2.5,0-4.1-1.7-4.1-4.2c0-2.5,1.7-4.4,4.4-4.4c0.9,0,1.7,0.2,2.1,0.4
			l-0.3,1.2c-0.4-0.2-0.9-0.4-1.7-0.4c-1.9,0-2.9,1.4-2.9,3.1c0,1.9,1.2,3.1,2.9,3.1c0.8,0,1.4-0.2,1.8-0.4L404.4,376.5z"/>
		<path class="st1" d="M413.5,372.6c0,3-2.1,4.4-4.1,4.4c-2.2,0-3.9-1.6-3.9-4.2c0-2.8,1.8-4.4,4.1-4.4
			C411.9,368.4,413.5,370.1,413.5,372.6z M406.9,372.7c0,1.8,1,3.2,2.5,3.2c1.4,0,2.5-1.3,2.5-3.2c0-1.4-0.7-3.2-2.5-3.2
			S406.9,371.1,406.9,372.7z"/>
		<path class="st1" d="M415.4,370.8c0-0.9,0-1.5-0.1-2.2h1.3l0.1,1.3h0.1c0.5-0.8,1.2-1.5,2.6-1.5c1.1,0,2,0.7,2.3,1.6h0
			c0.3-0.5,0.6-0.8,0.9-1.1c0.5-0.4,1-0.6,1.8-0.6c1.1,0,2.7,0.7,2.7,3.6v4.8h-1.5v-4.7c0-1.6-0.6-2.5-1.8-2.5
			c-0.9,0-1.5,0.6-1.8,1.4c-0.1,0.2-0.1,0.5-0.1,0.7v5.1h-1.5v-4.9c0-1.3-0.6-2.3-1.7-2.3c-0.9,0-1.6,0.7-1.9,1.5
			c-0.1,0.2-0.1,0.5-0.1,0.7v5h-1.5V370.8z"/>
	</g>
</g>
<g id="Layer_4">
	<path class="st1" d="M321.1,98.1h2.8c6.5,13.7,10.9,24.3,13.1,31.7l-0.6,2.1h-2.1l-2.8-2.1H330v0.7l11,73.8v5.5l-2.8,15.2v2.8
		c7.7,1.8,20.6,3.7,38.6,5.5c1.8-0.7,2.8-1.3,2.8-2l-15.8-121.5l3.4-11.8h1.4c1.2,0.1,6,10,14.5,29.7v2l-2.1,1.4l-4.1-3.4h-1.4v0.6
		c8.9,70.4,14,105.6,15.2,105.6h16.6l3.5,0.6v0.7c0,4.1-2.1,8.3-6.3,12.4h-13.1c-1.3,0-2.9,5.7-4.9,17.2c-0.7,0-1.4,1.6-2,4.9h-2.1
		l-0.6-4.9v-12.4c0-2.5-0.9-4-2.8-4.8c-8.6,0-24.1,5.3-46.3,15.8c-26.9,11.5-47.2,17.3-60.7,17.3h-1.4c-19.6,0-32.5-8.7-38.6-26.2
		c-3.2-8.3-6.9-44.4-11-108.4l-6.2-35.2c0-5.1,1.6-8.8,4.8-11c4.7,0,10.2,44.2,16.6,132.5c2.3,11.8,5.8,19.8,10.4,24.1
		c6.4,6,14.2,9,23.5,9h0.6c19.3,0,43.5-6.9,72.5-20.7v-1.4c-16.3-3.7-31.5-5.5-45.6-5.5h-4.1l-1.4-1.4v-1.4
		c0-8.3,6.9-12.4,20.7-12.4l20.7-4.1l0.6-2.1l-16.6-106.9C317.6,107.7,318.7,103.8,321.1,98.1z M274.8,101.6h2.1
		c2.6,0,4.2,3.7,4.8,11l-0.6,2.8h-1.4c-2.5-3.3-4.8-4.9-6.9-4.9c-3,26.7-6.2,40-9.7,40c-4.2,7-9.7,11.6-16.6,13.8l-0.7-0.6V163
		l17.9-20v-3.5c-5.2-11.5-10.3-17.2-15.2-17.2c-3.2-2.5-4.8-5.1-4.8-7.7s1.1-4.6,3.4-6.1c3.7,0,9.2,5.5,16.6,16.6l1.4,3.4h1.4
		C267.9,112,270.7,103.1,274.8,101.6z M150.5,103.6c4.6,0,6.9,3.5,6.9,10.4l-2.8,1.4l-4.1-2.8l-2,0.6c-0.9,18-2.8,27.7-5.5,29
		c-6.9-13.8-13.3-20.7-19.3-20.7c-2.3-1.9-3.5-3.7-3.5-5.5c0.4-4.6,1.7-6.9,4.1-6.9c5.5,1.9,11.7,7.9,18.7,17.9h0.6v-5.5
		C143.6,113.1,145.9,107.1,150.5,103.6z M429.4,103.6h1.4c1.3,0,2.5,2.1,3.5,6.3l-0.7,11.7c0,1.2,2.3,4,6.9,8.3v1.4
		c0,2.4-0.7,3.8-2,4.1c-1.7,0-4.2-1.4-7.6-4.1h-1.4c-11.2,11.5-22.7,19.6-34.5,24.2l-2-0.7v-1.4c0-0.8,4.1-3.8,12.4-8.9
		c10.5-7.2,16.9-13,19.3-17.3c-3.3-4.4-4.9-7.6-4.9-9.7C421.4,108.2,424.6,103.6,429.4,103.6z M579.2,104.4h0.6
		c2,0.8,3.9,3.6,5.5,8.3c-1.1,3.2-2,4.8-2.8,4.8c-2.8-2.8-5.1-4.1-6.9-4.1H575c-1.8,0.8-2.8,2.4-2.8,4.9c0,13.3-1.4,23.8-4.1,31.7
		h-0.7c-0.7,0-3.3-4.4-7.5-13.2c-2.9-4.4-7-7.2-12.4-8.3c-3.3-2.3-4.9-4.6-4.9-6.9c0.5-4.1,1.4-6.2,2.8-6.2
		c6.4,0,12.8,5.7,19.3,17.2h2.1C567.7,113.8,571.8,104.4,579.2,104.4z M619.2,122.3c1.8-10.6,5-15.9,9.6-15.9
		c4.6,0,6.9,7.1,6.9,21.4c2.8,2.8,4.4,5.1,4.8,6.9l-2,4.1l-6.3-3.5c-25.8,22.1-44.2,33.1-55.2,33.1v-0.6c0.9-1.5,7.3-5.6,19.3-12.4
		c19.8-12.5,29.7-20.6,29.7-24.2C621.5,127.7,619.2,124.7,619.2,122.3z M186.4,107.1h0.7v0.6c-2.8,7.9-4.1,13.8-4.1,17.8
		s1.6,7.1,4.8,9.2h0.7l3.4-2.8h0.7v0.6c0,6.9-2.3,10.4-6.9,10.4c-3.6,0-5.9-4.1-6.9-12.4C178.9,122.3,181.4,114.5,186.4,107.1z
		 M520.5,107.1l0.7,0.6v1.4c0,4.2-12.7,12.7-38,25.6l-24.1,14.4H457l-0.6-2c0-3.9,10.3-11.3,31-22.1
		C507.6,113.1,518.7,107.1,520.5,107.1z M424.6,114.7v0.7l2.8,2.8h1.4l1.4-1.4v-2.1l-2.1-2h-1.4L424.6,114.7z M623.3,118.2v0.6
		c2.8,3.3,5.3,4.9,7.5,4.9l0.7-0.7c-0.9-5-2.1-7.5-3.5-7.5h-2L623.3,118.2z M87.1,116.1h0.7v2.1l-4.9,21.3v4.1
		c0,6.2,1.8,10.3,5.5,12.4h1.4c1.3,0,2.2-1.8,2.8-5.5l0.7-0.6h1.4l0.6,3.4v1.4c0,9.2-2.8,13.8-8.3,13.8c-6-3.1-8.9-9.3-8.9-18.6
		v-1.4C78.9,136.2,81.8,125.3,87.1,116.1z M299,125.1h0.6v0.6c-2.3,6.9-3.4,12.2-3.4,15.9v0.6c0,4.6,1.4,6.9,4.1,6.9l2-3.4h2.1v0.6
		c0,5-2.1,9.2-6.3,12.4h-1.4c-3.7-3.5-5.5-7.7-5.5-12.7C291.3,141.2,293.9,134.2,299,125.1z M528.1,148.5h0.6v0.6
		c-2.3,6.9-3.4,12.2-3.4,15.9c1.2,5,3.3,7.5,6.2,7.5l0.7-0.6c1.5-3.3,2.6-4.9,3.4-4.9h0.7v3.5c-1.3,7.4-3.9,11-7.6,11h-0.6
		c-2.3,0-4.6-3.2-6.9-9.7l0.6-2.8v-0.7l-0.6-0.6C524,155,526.3,148.5,528.1,148.5z M438.4,153.3c3.3,0,7.1,3.7,11.7,11
		c0,3.4-2.3,6.7-6.9,9.7l-8.9-6.9h-0.7c-3.6,5.8-5.9,8.8-6.9,9c-2.6,0-6.5-3.2-11.7-9.7c2.2-6.9,4.5-10.4,6.9-10.4
		c5.3,3.7,8.7,5.5,10.3,5.5C434.3,157.5,436.4,154.7,438.4,153.3z M630.2,156.1h2v0.7c-2.8,6.4-4.1,11-4.1,13.8c1,5,2.4,7.5,4.1,7.5
		l4.9-4.1l0.6,0.7v1.4c0,3.3-2.1,6.5-6.2,9.7h-0.7c-4.6,0-6.9-3.9-6.9-11.8C625.6,167.1,627.7,161.1,630.2,156.1z M321.1,161.6h0.6
		l0.7,2.1c0,3.8-7.1,8.4-21.4,13.8c-32.9,16.3-50,26.4-51.1,30.4v2c1.8,0,4.1,1.8,6.9,5.5v2.1l-2.8,2.8c-6-1.3-8.9-3.8-8.9-7.6
		c0-12.2,11-22.3,33.1-30.4C298.8,170.7,313.1,163.8,321.1,161.6z M187.2,162.3c5.2,2.3,8.6,5.3,10.3,8.9c0,3-2.3,6.2-6.9,9.7
		c-3.1,0-6.3-3-9.7-8.9C181.8,168.5,183.9,165.3,187.2,162.3z M48.4,163.7h0.7v0.6l-3.5,20.1v0.6c0,7.4,2.1,11,6.3,11l2-4.8h1.4v1.4
		H56c0,5.2-1.8,9-5.5,11.7h-0.7c-3.8,0-6.6-3.7-8.3-11C41.5,179.6,43.8,169.7,48.4,163.7z M145,166.5v0.6
		c-2.8,9.4-4.1,15.8-4.1,19.2c0,3.4,1.4,6.2,4.1,8.4h1.4l4.1-3.4h0.7l0.6,2c-1.7,5.8-4,9.4-6.9,11c-3.3,0-6-3.9-8.3-11.7
		c0-7.4,2.3-16.1,6.9-26.2H145z M479.8,168.5c9.6,8.5,14.4,14.2,14.4,17.3l-0.6,0.6h-4.1v2.8c7.4,11.5,11,20.3,11,26.2
		c0,13.4-6,23.7-17.9,31.1c-1.8,2.2-2.8,6.6-2.8,13.1v2.8c3.1,10.1,7.4,15.2,13.1,15.2c0.3,1.4,2.1,2.1,5.5,2.1
		c18,0,37.8-11.5,59.4-34.5l2.8-4.1v-1.4c0-1.2-0.9-1.9-2.8-2.1l-17.2,2.8c-10.6-1.3-15.9-6-15.9-13.8v-1.4
		c1.9-14.7,8.3-22.1,19.3-22.1c6.9,2,13.3,7.5,19.3,16.6h0.7c2.3,0,9.7-4.4,22.1-13.1l3.4-0.7l1.4,4.1v7.6c2.8,5.5,7.8,8.3,15.2,8.3
		h2.8c7.7,0,14.6-6.4,20.7-19.3l3.5-3.5h0.6l0.7,0.7h0.6l-3.4,9.7v0.6c2.8,4.6,7.8,6.9,15.2,6.9h2.8c1.3,0,2-0.9,2-2.8l-3.4-7.5
		c1.2-6.4,2.3-9.7,3.4-9.7h1.4c3.7,5.1,5.5,10.8,5.5,17.2c-1.6,12-6.2,17.9-13.8,17.9c-5.8,0-12-3.2-18.6-9.7
		c-7.1,8.8-14.7,13.2-23.1,13.2s-14.2-4.1-17.7-12.4c-0.3-3.3-1-4.9-2-4.9h-0.7c-10.6,6.1-15.8,11.6-15.8,16.6
		c0,10-7.1,20.8-21.4,32.5c-16.7,15.2-31.2,22.7-43.4,22.7h-2.1c-11.8,0-20.1-6.9-24.8-20.7l-0.6-8.9v-2.1l0.6-6.2l-1.4-2.1
		c-31.5,21.2-54.7,31.7-69.7,31.7l-23.5,4.9l-0.7-0.7v-0.6c0-1.8,12-7.1,35.9-15.9c28.3-15.3,48.6-27.5,60.7-36.5
		c10.3-7.9,16.1-13.2,17.3-15.9v-0.6c0-2.3-4.4-11.8-13.2-28.3l-4.1-11.7C477,172.4,478.2,168.5,479.8,168.5z M450.8,178.2h0.6
		l1.4,1.4c-0.7,6.5-4.8,14.8-12.4,24.8v0.7c9.2,7,13.8,13.2,13.8,18.6c0,13.6-7.1,22.8-21.3,27.6c0,0.9-1.6,1.4-4.9,1.4
		c-7.4,0-11-4.6-11-13.8c1.4-9.2,3.7-17.5,6.9-24.8v-1.4c-11.5-11.3-17.2-18.3-17.2-20.7v-1.4c0-5.5,0.9-8.3,2.8-8.3h0.6l15.2,7.6
		l1.4,1.4h0.7c-0.5,1.8-1.4,2.8-2.8,2.8v1.4c2,3.2,4.3,4.8,6.9,4.8h1.4L450.8,178.2z M201,178.9c6.9,4.2,10.3,7.9,10.3,11
		c-2.6,4.1-4.6,6.6-6.2,7.5c-1.8,0-5.1-1.8-9.7-5.5h-0.7c-4,5.1-6.8,7.6-8.3,7.6c-5.9-4.2-9.1-6.9-9.7-8.3v-0.7
		c1.5-6.9,3.4-10.3,5.5-10.3h0.7l9.7,6.2h0.6c0.7,0,2.4-2.3,4.9-6.9L201,178.9z M100.2,179.6c1.8,0,6,3.7,12.4,11v1.4
		c0,2.5-2.1,5.5-6.3,9c-2-0.6-5.5-3.2-10.3-7.6H94c-3.4,4.6-5.7,6.9-6.9,6.9c-5.4-2.6-9.3-5.6-11.7-8.9V190c0-3.4,1.8-6.6,5.5-9.7
		l11,6.9h0.6c0.9,0,3-2.3,6.3-6.9h1.4V179.6z M274.1,214.1v2.1l-2.1,13.1c0.5,6,1.7,9,3.5,9h0.6l3.5-2.8h1.4v0.6
		c0,4.8-2.1,8.7-6.3,11.8c-3.4,0-6-3.9-7.5-11.8l0.6-2.8v-0.6l-0.6-0.7C270.4,220,272.7,214.1,274.1,214.1z M423.2,232.7
		c0,2.5,1.1,4.4,3.4,5.5h2.8c4,0,9.8-3,17.3-9v-2c-0.1-1.5-4.9-4.8-14.5-9.7C429.6,217.6,426.6,222.6,423.2,232.7z M208.5,218.2
		c2,1.7,4.1,5.6,6.3,11.8c0,15.1-3.5,23.8-10.4,26.2c-4.9,2.3-9.6,3.4-14.1,3.4s-9.2-3.7-14.1-11l-0.7-2.8H174
		c-10,11.5-21.7,17.3-35.2,17.3h-2.1c-6.1,0-13.6-4.6-22.7-13.8c-3.4-6.7-6-10.7-7.6-11.8H105c-7,0-14.6,9-22.7,27
		C78,280.1,72.9,288,67.1,288c-10.4,0-17.7-9-22.1-27c-1.4-3.4-2.1-8.5-2.1-15.2v-5.5l1.4-8.9H45c1.2,0,2.4,7.1,3.4,21.3
		c5,14.3,11,21.4,17.9,21.4c5.3,0,10.4-8.7,15.2-26.2c7.4-13.3,15.4-21.6,24.2-24.8c3.9,0,8.2,4.8,13.1,14.4
		c7.1,7.4,13.6,11,19.3,11h6.3c12.3,0,23.6-7.4,33.8-22.1h1.4l0.7-0.6l1.4,1.4v0.6l-0.7,6.9c2.7,7.4,7.1,11,13.2,11
		s10.7-1.8,13.8-5.5v-2c0-2.6-1.2-5.9-3.5-9.7C205.5,221.7,206.9,218.2,208.5,218.2z M534.3,221.7v0.6c0.7,1.8,2.4,2.8,4.9,2.8h4.8
		c3.4,0,5.2-0.7,5.5-2l-5.5-4.1H537L534.3,221.7z M640.6,251.3c0.9,0,1.4,0.7,1.4,2.1c-1.7,10.1-5.2,15.2-10.3,15.2l-5.5-1.4
		l-9.7,4.1c-5-2.3-8.6-3.5-11-3.5c-5.3,2.2-13.1,6.8-23.5,13.8c-2.1,1.4-6.1,2.8-11.8,4.1l-2-0.6v-0.7l33.1-21.3
		c2.5-1.8,5.7-2.8,9.7-2.8h0.6c2.5,1.8,4.5,2.8,6.3,2.8h0.6c3.3,0,7-2.5,11-7.6h0.7c0,3.3,1.6,4.9,4.8,4.9c1.2,0,2.6-2.8,4.1-8.3
		l0.7-0.7H640.6z M125.1,268.6h3.4v2c0,3.9-9.4,9.9-28.3,17.9c-1.1,1.7-6.4,4.4-15.9,8.3v-2.8c0-4.1,8.3-9.6,24.8-16.6L125.1,268.6z
		 M231.3,270l1.4,1.4c0,5.6-6.9,10.2-20.7,13.8c-6.9,3.9-12.4,6.2-16.6,6.9v-1.4c0-5.3,5.1-9.3,15.2-11.8
		C216.4,275.7,223.3,272.8,231.3,270z M168.5,274.8c8.8,3.6,13.2,7.3,13.2,11v0.7c0,1.5-2.5,4-7.6,7.5l-11-6.9
		c-4.4,5.5-7.1,8.3-8.3,8.3c-5-2.1-8.9-5.4-11.7-9.7c1.3-3.9,3.3-6.9,6.2-8.9h0.7c1.8,0,5,1.8,9.7,5.5h2L168.5,274.8z M334.9,274.8
		h2c6.9,3.7,10.4,7.1,10.4,10.4v0.6c0,3.1-1.6,6.1-4.9,9h-0.6c-3.6,0-7.8-3.5-12.4-10.4C329.3,280.6,331.2,277.4,334.9,274.8z"/>
</g>
</svg>
