<?xml version="1.0" encoding="utf-8"?>
<!-- Generator: Adobe Illustrator 25.2.3, SVG Export Plug-In . SVG Version: 6.00 Build 0)  -->
<svg version="1.1" xmlns="http://www.w3.org/2000/svg" xmlns:xlink="http://www.w3.org/1999/xlink" x="0px" y="0px"
	 viewBox="0 0 700 395" style="enable-background:new 0 0 700 395;" xml:space="preserve">
<style type="text/css">
	.st0{fill:#000222;}
	.st1{fill:#FFFFFF;}
</style>
<g id="Layer_1">
	<rect class="st0" width="700" height="395"/>
</g>
<g id="Layer_3">
	<g>
		<path class="st1" d="M273.5,368.6l1.1,4.2c0.2,0.9,0.5,1.8,0.6,2.6h0.1c0.2-0.8,0.5-1.7,0.7-2.6l1.3-4.2h1.3l1.3,4.1
			c0.3,1,0.5,1.9,0.7,2.7h0.1c0.1-0.8,0.4-1.7,0.6-2.7l1.2-4.1h1.5l-2.7,8.2H280l-1.3-3.9c-0.3-0.9-0.5-1.7-0.7-2.7h0
			c-0.2,1-0.5,1.8-0.7,2.7l-1.3,3.9h-1.4l-2.5-8.2H273.5z"/>
		<path class="st1" d="M286.3,368.6l1.1,4.2c0.2,0.9,0.5,1.8,0.6,2.6h0.1c0.2-0.8,0.5-1.7,0.7-2.6l1.3-4.2h1.3l1.3,4.1
			c0.3,1,0.5,1.9,0.7,2.7h0.1c0.1-0.8,0.4-1.7,0.6-2.7l1.2-4.1h1.5l-2.7,8.2h-1.4l-1.3-3.9c-0.3-0.9-0.5-1.7-0.7-2.7h0
			c-0.2,1-0.5,1.8-0.7,2.7l-1.3,3.9h-1.4l-2.5-8.2H286.3z"/>
		<path class="st1" d="M299,368.6l1.1,4.2c0.2,0.9,0.5,1.8,0.6,2.6h0.1c0.2-0.8,0.5-1.7,0.7-2.6l1.3-4.2h1.3l1.3,4.1
			c0.3,1,0.5,1.9,0.7,2.7h0.1c0.1-0.8,0.4-1.7,0.6-2.7l1.2-4.1h1.5l-2.7,8.2h-1.4l-1.3-3.9c-0.3-0.9-0.5-1.7-0.7-2.7h0
			c-0.2,1-0.5,1.8-0.7,2.7l-1.3,3.9h-1.4l-2.5-8.2H299z"/>
		<path class="st1" d="M309.9,375.9c0-0.6,0.4-1.1,1-1.1c0.6,0,1,0.4,1,1.1c0,0.6-0.4,1.1-1,1.1C310.3,377,309.9,376.5,309.9,375.9z
			"/>
		<path class="st1" d="M313.5,375.3c0.4,0.3,1.2,0.6,2,0.6c1.1,0,1.6-0.5,1.6-1.2c0-0.7-0.4-1.1-1.5-1.5c-1.5-0.5-2.2-1.3-2.2-2.3
			c0-1.3,1.1-2.4,2.8-2.4c0.8,0,1.6,0.2,2,0.5l-0.4,1.1c-0.3-0.2-0.9-0.5-1.7-0.5c-0.9,0-1.4,0.5-1.4,1.1c0,0.7,0.5,1,1.6,1.4
			c1.4,0.5,2.2,1.3,2.2,2.5c0,1.4-1.1,2.5-3.1,2.5c-0.9,0-1.7-0.2-2.3-0.6L313.5,375.3z"/>
		<path class="st1" d="M327.4,374.6c0,0.9,0,1.6,0.1,2.2h-1.3l-0.1-1.3h0c-0.4,0.7-1.3,1.5-2.7,1.5c-1.3,0-2.8-0.7-2.8-3.6v-4.8h1.5
			v4.6c0,1.6,0.5,2.6,1.8,2.6c1,0,1.7-0.7,2-1.4c0.1-0.2,0.1-0.5,0.1-0.8v-5h1.5V374.6z"/>
		<path class="st1" d="M329.8,371.1c0-1,0-1.8-0.1-2.6h1.3l0.1,1.6h0.1c0.4-1.1,1.3-1.8,2.3-1.8c0.2,0,0.3,0,0.4,0.1v1.4
			c-0.2,0-0.3-0.1-0.5-0.1c-1.1,0-1.8,0.8-2,1.9c0,0.2-0.1,0.4-0.1,0.7v4.4h-1.5V371.1z"/>
		<path class="st1" d="M339.9,376.8l-0.1-1h-0.1c-0.5,0.6-1.3,1.2-2.5,1.2c-1.7,0-2.5-1.2-2.5-2.4c0-2,1.8-3.1,4.9-3.1v-0.2
			c0-0.7-0.2-1.9-1.9-1.9c-0.8,0-1.6,0.2-2.1,0.6l-0.3-1c0.7-0.4,1.7-0.7,2.7-0.7c2.5,0,3.1,1.7,3.1,3.4v3.1c0,0.7,0,1.4,0.1,2
			H339.9z M339.7,372.6c-1.6,0-3.5,0.3-3.5,1.9c0,1,0.6,1.4,1.4,1.4c1.1,0,1.8-0.7,2-1.4c0.1-0.2,0.1-0.3,0.1-0.5V372.6z"/>
		<path class="st1" d="M343.5,364.7h1.5v5.1h0c0.2-0.4,0.6-0.8,1.1-1.1c0.4-0.3,1-0.4,1.5-0.4c1.1,0,2.9,0.7,2.9,3.5v4.9H349v-4.7
			c0-1.3-0.5-2.4-1.9-2.4c-1,0-1.7,0.7-2,1.5c-0.1,0.2-0.1,0.4-0.1,0.7v5h-1.5V364.7z"/>
		<path class="st1" d="M358.6,375.5L358.6,375.5c-0.5,0.8-1.4,1.5-2.7,1.5c-1.9,0-3.5-1.7-3.5-4.2c0-3.1,2-4.4,3.7-4.4
			c1.3,0,2.1,0.6,2.5,1.4h0l0.1-1.2h1.4c0,0.7-0.1,1.4-0.1,2.3v9.3h-1.5V375.5z M358.6,371.9c0-0.2,0-0.4-0.1-0.6
			c-0.2-0.9-1-1.7-2.1-1.7c-1.5,0-2.5,1.3-2.5,3.2c0,1.6,0.8,3.1,2.4,3.1c1,0,1.8-0.6,2.1-1.6c0.1-0.2,0.1-0.5,0.1-0.7V371.9z"/>
		<path class="st1" d="M369.4,374.6c0,0.9,0,1.6,0.1,2.2h-1.3l-0.1-1.3h0c-0.4,0.7-1.3,1.5-2.7,1.5c-1.3,0-2.8-0.7-2.8-3.6v-4.8h1.5
			v4.6c0,1.6,0.5,2.6,1.8,2.6c1,0,1.7-0.7,2-1.4c0.1-0.2,0.1-0.5,0.1-0.8v-5h1.5V374.6z"/>
		<path class="st1" d="M371.9,371.1c0-1,0-1.8-0.1-2.6h1.3l0.1,1.6h0.1c0.4-1.1,1.3-1.8,2.3-1.8c0.2,0,0.3,0,0.4,0.1v1.4
			c-0.2,0-0.3-0.1-0.5-0.1c-1.1,0-1.8,0.8-2,1.9c0,0.2-0.1,0.4-0.1,0.7v4.4h-1.5V371.1z"/>
		<path class="st1" d="M381.9,376.8l-0.1-1h-0.1c-0.5,0.6-1.3,1.2-2.5,1.2c-1.7,0-2.5-1.2-2.5-2.4c0-2,1.8-3.1,4.9-3.1v-0.2
			c0-0.7-0.2-1.9-1.9-1.9c-0.8,0-1.6,0.2-2.1,0.6l-0.3-1c0.7-0.4,1.7-0.7,2.7-0.7c2.5,0,3.1,1.7,3.1,3.4v3.1c0,0.7,0,1.4,0.1,2
			H381.9z M381.7,372.6c-1.6,0-3.5,0.3-3.5,1.9c0,1,0.6,1.4,1.4,1.4c1.1,0,1.8-0.7,2-1.4c0.1-0.2,0.1-0.3,0.1-0.5V372.6z"/>
		<path class="st1" d="M385.6,370.8c0-0.9,0-1.5-0.1-2.2h1.3l0.1,1.4h0c0.4-0.8,1.4-1.5,2.7-1.5c1.1,0,2.9,0.7,2.9,3.5v4.9h-1.5
			v-4.7c0-1.3-0.5-2.4-1.9-2.4c-1,0-1.8,0.7-2,1.5c-0.1,0.2-0.1,0.4-0.1,0.7v4.9h-1.5V370.8z"/>
		<path class="st1" d="M394.6,375.9c0-0.6,0.4-1.1,1-1.1c0.6,0,1,0.4,1,1.1c0,0.6-0.4,1.1-1,1.1C395,377,394.6,376.5,394.6,375.9z"
			/>
		<path class="st1" d="M404.4,376.5c-0.4,0.2-1.3,0.5-2.4,0.5c-2.5,0-4.1-1.7-4.1-4.2c0-2.5,1.7-4.4,4.4-4.4c0.9,0,1.7,0.2,2.1,0.4
			l-0.3,1.2c-0.4-0.2-0.9-0.4-1.7-0.4c-1.9,0-2.9,1.4-2.9,3.1c0,1.9,1.2,3.1,2.9,3.1c0.8,0,1.4-0.2,1.8-0.4L404.4,376.5z"/>
		<path class="st1" d="M413.5,372.6c0,3-2.1,4.4-4.1,4.4c-2.2,0-3.9-1.6-3.9-4.2c0-2.8,1.8-4.4,4.1-4.4
			C411.9,368.4,413.5,370.1,413.5,372.6z M406.9,372.7c0,1.8,1,3.2,2.5,3.2c1.4,0,2.5-1.3,2.5-3.2c0-1.4-0.7-3.2-2.5-3.2
			S406.9,371.1,406.9,372.7z"/>
		<path class="st1" d="M415.4,370.8c0-0.9,0-1.5-0.1-2.2h1.3l0.1,1.3h0.1c0.5-0.8,1.2-1.5,2.6-1.5c1.1,0,2,0.7,2.3,1.6h0
			c0.3-0.5,0.6-0.8,0.9-1.1c0.5-0.4,1-0.6,1.8-0.6c1.1,0,2.7,0.7,2.7,3.6v4.8h-1.5v-4.7c0-1.6-0.6-2.5-1.8-2.5
			c-0.9,0-1.5,0.6-1.8,1.4c-0.1,0.2-0.1,0.5-0.1,0.7v5.1h-1.5v-4.9c0-1.3-0.6-2.3-1.7-2.3c-0.9,0-1.6,0.7-1.9,1.5
			c-0.1,0.2-0.1,0.5-0.1,0.7v5h-1.5V370.8z"/>
	</g>
</g>
<g id="Layer_4">
	<path class="st1" d="M317.5,102.4l0.7,0.7v1.8c-0.5,2.2-12.8,8.5-36.9,18.8c-17.9,8.9-26.9,15-26.9,18.2l3.8,4.3v1.9l-1.9,1.8
		c-3.7-1.2-5.6-3.5-5.6-6.8c0-8.5,16.3-19.3,48.8-32.5C308,105.1,314,102.4,317.5,102.4z M245.6,118.7l2.5,1.9v2.5
		c-0.5,1.1-11.2,7.1-32.2,17.9s-35.7,20.1-44.1,27.7v2.5c4.2,1.7,6.3,4.2,6.3,7.5v0.7l-1.3,1.3c-5.4,0-8.4-3.3-8.8-10
		c0-8,11.7-17.6,35-28.8C211.8,136.4,226,128.6,245.6,118.7z M304.4,118.7c0.8,0,1.6,1.3,2.5,3.8l-1.3,3.8h-1.3
		c-1.6-1.2-3-1.8-4.4-1.8l-1.8,2.5v1.3l5.6,1.3l7.5-0.7l0.7,1.9c0,1.7-5.2,4.2-15.7,7.5h-0.6v-1.9c0-1.4-1.3-3.3-3.8-5.6v-0.7
		c0-3.1,3.5-6.9,10.6-11.3H304.4z M372.5,119.9h0.7c1.1,0.5,3.6,5.3,7.5,14.4c3.7,7.4,5.6,13.2,5.6,17.5v0.6H385l-3.8-3.1H380
		l9.4,62.6l1.3,18.8v0.6c0,26.6-12.7,44.5-38.2,53.8L330,292l-1.3-1.3c1.8-1.6,9.8-6,23.8-13.2c18.8-12.4,28.2-22.4,28.2-30V247
		c0-9.2-12.5-24.5-37.5-45.7c-19.1-18.7-32.8-35-41.3-48.8l-0.7-8.1v-0.7c0.1-2.1,0.5-3.1,1.3-3.1c7.6,4.6,15.5,10.9,23.8,18.8v1.3
		l-6.8-0.7v1.3c0,2.8,18.3,21.8,55,57c6.2,9.1,9.3,15.3,9.3,18.8v1.8h1.3c-1.7-17.7-3.9-35.2-6.8-52.5l-6.9-51.3
		c-0.7,0-1.1-1.4-1.3-4.3L372.5,119.9z M403.2,120.6h1.3c7.5,17.6,11.3,28,11.3,31.3h-1.9c-1.9-1.7-3.3-2.5-4.3-2.5v0.6
		c7.9,52.3,11.8,84.8,11.8,97.6v3.8c0,3.3-1.3,8.3-3.8,15h-1.3l-0.6-3.1v-4.4c0-12.3-5.4-55-16.3-128.2l-0.7-0.7
		C398.8,126.7,400.3,123.6,403.2,120.6z M454.5,120.6c1.3,0,2.6,2.1,3.8,6.3l-0.7,8.8v0.6c0,1.8,1.7,4.1,5,6.9l1.3,3.8
		c-0.4,1.7-1.2,2.5-2.5,2.5l-7.5-4.4l-13.8,12.5c-3.9,3.2-10.1,6.3-18.8,9.4v-1.3l26.9-20.7l1.3-3.8c-2.9-2.5-4.4-5.4-4.4-8.8
		C447.3,124.6,450.4,120.6,454.5,120.6z M588.9,120.6c3.8,1.3,5.7,3.6,5.7,6.8v0.7c0,2.2-0.6,3.4-1.9,3.8h-0.6l-5-3.8h-1.3
		c-2.5,0-3.8,8.3-3.8,25c-0.6,0-1.2,2.7-1.9,8.1h-1.3c-6.3-11.7-11.1-17.5-14.3-17.5c-5.4-2.2-8.2-4.7-8.2-7.5
		c0.5-3.7,1.8-5.6,3.8-5.6c4.5,1.3,10.3,6.8,17.5,16.3h1.3v-3.8C578.9,130.6,582.3,123.1,588.9,120.6z M151.8,123.1h1.3
		c4.6,9.7,9.1,45.4,13.8,106.9c2.5,20.1,6,31.1,10.6,33.2c4.7,4.6,11.2,6.8,19.4,6.8c24.4-3.8,36.9-8.8,37.5-15
		c-2.5-7.4-3.8-12.4-3.8-15c2.4-15,7-22.5,13.7-22.5c6.7,0,11.3,7.9,13.8,23.8c0,6.8-2.7,13.1-8.2,18.8v1.9
		c3.2,3.7,9.2,5.6,18.2,5.6h1.8c18.2-4.2,33.1-10.5,44.5-18.8v-1.3l-20-5h-2.5c-1.4,1.1-8.9,2.6-22.5,4.4h-1.3l-1.9-1.9
		c0-8.3,7.5-14,22.5-16.8l36.9,9.3c9.5,1.7,18.8,2.5,28.1,2.5h5l3.2,0.7v3.1c-2.1,4.1-4.1,7-6.3,8.8L355,252h-0.6l-2.5,0.6l-4.4-0.6
		c-12.7,0-21.6,2.3-26.9,6.8c-18.4,9.3-31,15.2-37.7,17.6s-11.7,3.6-14.8,3.6h-5c-7.5,0-15-4.2-22.5-12.5h-0.7l-18.1,8.8
		c-10.2,4.2-19.2,6.3-26.9,6.3c-14,0-23.5-6-28.8-18.1c-2.8,0-6.5-31.3-11.3-93.8c-2.5-18.1-5-30.8-7.5-38.2
		C148.8,126.5,150.3,123.4,151.8,123.1z M635.9,123.1c3.3,0,5,6.3,5,18.8l3.8,5v2.5l-1.3,1.3l-6.3-2.5c-20.1,18.3-36.1,28.4-48.2,30
		h-1.3v-1.3c19.2-10.3,34.1-20.3,44.5-30V145l-5.7-6.8c0.7-10,3.2-15,7.5-15H635.9z M536.4,123.7v1.3h0.7c0,3.8-9,10-26.9,18.8
		l-28.8,18.2h-1.8l-0.7-1.9c0-3.7,6.1-8.3,18.2-13.8C509.4,137.6,522.6,130.1,536.4,123.7z M88.5,127.4c4.6,3.1,6.9,5.6,6.9,7.5
		c-0.9,2.5-1.7,3.8-2.5,3.8l-5-3.1h-1.3l-1.3,1.3v9.3c0,7.3-0.8,14.2-2.5,20.7h-0.7C77.9,158,74.1,152.4,71,150l-7.5,12.5
		c-8.5,9.4-16.2,15.2-23.1,17.5h-0.7l-0.6-0.6h-0.7c0-0.7,6.3-6.1,18.8-16.3c6.3-7.1,9.4-11.9,9.4-14.4c-4.6-3.4-6.9-5.9-6.9-7.5
		c0-4.2,1.5-6.3,4.4-6.3c2.2,0,8,5.8,17.5,17.5h0.6v-10C82.3,134.4,84.4,129.4,88.5,127.4z M449.5,131.9c0.7,2.1,1.9,3.1,3.8,3.1
		l1.3-1.8v-0.7c0-2.2-0.8-3.7-2.5-4.3C450.3,128.5,449.5,129.8,449.5,131.9z M629.6,133.1c1.9,3.3,4.2,5,6.8,5l0.7-0.7v-0.6
		c0-4.6-1.7-6.9-5-6.9C630.5,130.8,629.6,131.9,629.6,133.1z M353.8,131.2c-2.9,7.2-4.3,12.6-4.3,16.3v1.9c0,3.8,1.4,6.7,4.3,8.8
		h0.7l3.1-3.2h0.7v1.3h0.6c-2.2,6.3-4,9.4-5.6,9.4h-0.7c-4.2-2.9-6.3-6.5-6.3-10.7c0-7.7,2.1-15.6,6.3-23.8H353.8z M116.1,133.7v0.7
		l-1.8,11.8c0,3.5,1.4,6.4,4.3,8.8h1.3c0.9,0,1.6-1,1.9-3.1h1.3v2.5c0,3.6-1.5,6.3-4.4,8.1c-4.6-1.2-6.8-4.5-6.8-10v-3.8
		C113.2,138.7,114.6,133.7,116.1,133.7z M221.8,152.5h0.6v0.7c-1.2,3.6-1.8,8.4-1.8,14.3c0,2.2,1.4,4.5,4.3,6.9l3.8-3.8h0.7v0.6
		c0,4.5-1.9,8.1-5.7,10.7h-0.6c-3.8-2.2-5.7-6.2-5.7-11.9v-0.6C218.5,158.1,220,152.5,221.8,152.5z M278.1,155.6l0.6,0.6l-1.8,8.8
		c0.3,7.5,2.1,11.3,5.6,11.3l1.9-3.8h0.6l0.7,0.7h0.6c0,4.9-1.7,8.5-5,10.6h-1.8c-3.8-2.1-5.7-6-5.7-11.8
		C273.7,166.2,275.2,160.7,278.1,155.6z M543.3,161.2h0.6c-2.1,6.2-3.1,10.6-3.1,13.2c0.3,3.4,2,6.4,5,8.8c1.2,0,2.5-1.9,3.8-5.7
		h0.6l0.7,1.9c0,4.3-1.7,7.8-5,10.6h-2.5c-3.8-2.7-5.7-6-5.7-10C537.7,172.6,539.5,166.3,543.3,161.2z M462,165.6
		c2.9,0,6.4,3.3,10.6,10c-1.7,3.9-3.3,6.4-5,7.5h-1.8c-4.4-3.8-7.3-5.7-8.8-5.7l-5.7,7.5c-2.9,0-6.4-2.7-10.6-8.1
		c1.9-5.8,4-8.8,6.3-8.8l7.5,4.3c2.1,0,4.1-2.1,6.3-6.3h1.3V165.6z M635.9,167.5h1.3v0.7l-3.2,9.3c0.6,5.8,1.6,8.8,3.2,8.8h1.8
		c0.8,0,1.3-0.6,1.3-1.8l0.7-0.7h0.6l0.7,0.7h0.6c-1.7,6.2-3.9,9.3-6.8,9.3c-2.5,0-4.2-3.8-5-11.3
		C630.9,180.2,632.6,175.2,635.9,167.5z M118.6,173.7h2.5c4.8,2.6,7.7,5.3,8.8,8.2c-0.9,2.5-2.6,5-5,7.5c-2.6,0-6.1-2.5-10.6-7.5
		C116.3,176.5,117.7,173.7,118.6,173.7z M500.1,178.7l12.5,14.4v0.6l-1.3,1.3h-3.1v1.3c6.2,12.2,9.3,19.1,9.3,20.7l0.7,6.3
		c0,9.8-5.8,19.2-17.5,28.1l-1.3,5.7v5c0,8.3,4.6,14.2,13.8,17.5l6.8,0.6c13.3,0,29.4-10,48.2-30c3.3-3.4,5-6.1,5-8.1l-3.2-1.9
		c-6.1,1.7-10.8,2.5-14.3,2.5h-2.5c-8.3,0-12.5-4.6-12.5-13.8c2.7-12.5,7.7-18.8,15-18.8c5.7,0,12.1,4.8,19.3,14.4h1.9
		c1.1,0,7.8-4.2,20-12.5h1.3c1.2,0,1.8,3.5,1.8,10.6c3.8,5,7.6,7.5,11.3,7.5h5.7c6.8,0,13.5-6.7,20-20l0.6-0.6h1.9v1.3l-2.5,8.8
		c3.8,4.2,8,6.3,12.5,6.3h3.8l1.8-1.9v-0.6c0-1.5-0.8-3.4-2.5-5.7v-0.6c0.4-6.2,1.5-9.5,3.2-10c3.7,4,5.6,9.8,5.6,17.5
		c-2.1,9.6-6.4,14.3-13.1,14.3c-5-0.2-10.2-3.1-15.7-8.8h-0.6c-7,8.3-13.4,12.5-19.4,12.5c-11.7-1.7-17.5-6.7-17.5-15l-0.6-0.6v-0.7
		h-1.3c-9.6,6.3-14.4,10.7-14.4,13.2c0,15.8-14,31.9-41.9,48.1c-7.4,3.3-13.5,5-18.2,5c-11.2,0-18.9-6.3-23.1-18.8l-0.7-7.5v-5.6
		l0.7-3.2l-0.7-0.6h-0.6L472,270.1c-11.1,7.9-29.7,13.7-55.7,17.5c0,0.6-1.7,1-5,1.3l-0.6-0.6v-0.7c0.7-1.1,12.3-6.3,35-15.6
		c17.6-8.6,37.2-20.9,58.8-36.9l7.5-8.1v-3.2c-10.5-21.9-15.7-33.5-15.7-35C497.3,182.1,498.6,178.7,500.1,178.7z M54.2,183.7
		l0.6,0.7c-2.1,5.6-3.1,10.1-3.1,13.8v3.1c0,5,1.7,7.5,5,7.5l0.6-1.8h0.7l0.6,0.6h0.7c-1.4,6.3-3.1,9.4-5,9.4
		c-3.2-1.2-5.1-5.6-5.7-13.2v-0.6C50.6,190.2,52.5,183.7,54.2,183.7z M84.2,186.9l0.6,0.6h0.7c-2.1,7-3.6,14.1-4.4,21.3
		c0,7.4,1.7,12,5,13.8h1.3l0.7-0.6c1.3-2.9,2.4-4.4,3.1-4.4l1.3,1.3v3.2c-1.9,7.5-4.2,11.3-6.8,11.3c-4.2,0-6.9-5-8.2-15v-5.7
		C80.1,195.4,82.4,186.9,84.2,186.9z M473.8,187.5h0.7l0.6,2.5c0,3.1-3.5,10.1-10.6,21.3v1.3c6.8,4.6,11,10,12.5,16.3
		c0,11.6-6.5,19.8-19.4,24.4c0,0.8-1.4,1.3-4.3,1.3h-1.9c-4.6,0-7.3-3.6-8.1-10.7c0-7.2,2.1-15.3,6.3-24.4l-15.7-16.9l-0.6-3.8v-1.8
		c0-3.1,0.6-4.7,1.8-5h1.3c9.6,4,14.6,6.7,15,8.1v1.3l-3.1,0.7v0.6c2.9,3.8,5.6,5.7,8.1,5.7h0.7L473.8,187.5z M247.4,191.9
		c6.7,3.4,10,6.3,10,8.8c-1.7,3.9-3.5,6.4-5.6,7.5h-1.9c-4.1-3.3-6.8-5-8.1-5c-0.8,0-2.5,1.9-5,5.6l-0.7,0.7h-1.3
		c-7.1-2.9-10.6-5.3-10.6-6.9c1.1-5.8,3.4-8.8,6.8-8.8c4.1,2.5,6.8,3.8,8.2,3.8h1.3C243.1,193.8,245.4,191.9,247.4,191.9z
		 M309.4,196.9h1.8c6,0,9.3,1.3,10,3.8c0,5.6-6,10.6-18.1,15v-1.3l6.3-6.3v-1.9h-7.5l-6.9,3.2h-0.6v-1.3
		C296.4,200.7,301.4,196.9,309.4,196.9z M125.5,203.2c10.7,0,18.4,10,23.1,30v1.3c0,12.2-4.2,20.3-12.5,24.4
		c-10.8,8-25.4,14.4-43.8,19.4l-15.6,1.8h-3.8c-14.6,0-24.6-7.1-30-21.3l-1.3-7.5c2.2-12.3,5.1-20.8,8.8-25.6h1.3v0.6
		c-2.9,6.8-4.4,12-4.4,15.7v1.3c0,11.9,6.5,19.8,19.4,23.8l6.8,0.6h5c17.7,0,37.1-6.7,58.2-20c3.7-2.3,5.8-4.2,6.3-5.6V240
		c-2.3-3.3-5.2-5-8.8-5l-6.9,1.3l-0.6-0.6h-3.2c-9.2-0.7-13.8-4.5-13.8-11.3c0-9.6,5-16.7,15-21.3H125.5z M204.9,205.7
		c3.2,0,5.5,3.5,6.9,10.6v0.7l-1.9,1.8l-5.6-5h-0.7l-1.3,1.3l0.7,14.4c-0.4,8.3-1.5,12.5-3.2,12.5c-6.3-9.6-11.9-14.4-16.8-14.4
		c-2.5-2.8-3.8-4.6-3.8-5.6c0.6-4.2,1.9-6.3,3.8-6.3c2.6,0,7.4,4.4,14.3,13.1h1.9v-3.1l-0.7-8.8
		C200.5,209.4,202.6,205.7,204.9,205.7z M118.6,221.3c1.3,1.1,3.2,1.7,5.7,1.9c5.4-0.3,8.1-1,8.1-1.9v-0.6c-1.3-2.5-3.6-3.8-6.8-3.8
		h-1.9C120.2,216.9,118.6,218.4,118.6,221.3z M448.2,238.8l3.1,3.2h3.8c10-3.2,15-6.7,15-10.7c-6.3-5.4-10.9-8.1-13.8-8.1
		c-1.7,0-4.4,3.9-8.1,11.8V238.8z M549.6,226.3v1.3c0.6,1.7,2.4,2.5,5.6,2.5h0.7l0.6-0.6l1.9,0.6l4.3-0.6v-1.9
		c-1.7-2.5-3.8-3.8-6.3-3.8h-4.3L549.6,226.3z M236.2,235v2.5c2.3,9.2,4.4,13.8,6.3,13.8h1.3c3.6-1.9,6.5-4.4,8.8-7.5
		c0-4.3-2.7-8.7-8.1-13.1h-1.9C240.1,230.7,238,232.1,236.2,235z M644.7,253.2h1.8v0.6c0,8-2.9,12.8-8.8,14.4h-0.6l-5-1.3
		c-3.6,2.5-6.5,3.8-8.8,3.8l-7.5-2.5c-3.3,0-11.9,4.6-25.7,13.8l-9.3,2.5v-0.7c21.7-15,34-22.5,36.9-22.5l8.8,3.2
		c2-0.2,4.9-2.5,8.8-6.9l2.5,3.8h1.3C641.8,261.3,643.7,258.6,644.7,253.2z M155.5,265.7l0.6,1.8c0,3.2-4.4,6.1-13.1,8.8
		c-22,10.8-33.6,16.3-35,16.3l-0.7-0.6v-0.7c0-4.1,8.6-9.3,25.7-15.6C145.5,269.1,153,265.7,155.5,265.7z"/>
</g>
</svg>
