<?xml version="1.0" encoding="utf-8"?>
<!-- Generator: Adobe Illustrator 25.2.3, SVG Export Plug-In . SVG Version: 6.00 Build 0)  -->
<svg version="1.1" xmlns="http://www.w3.org/2000/svg" xmlns:xlink="http://www.w3.org/1999/xlink" x="0px" y="0px"
	 viewBox="0 0 700 395" style="enable-background:new 0 0 700 395;" xml:space="preserve">
<style type="text/css">
	.st0{fill:#000222;}
	.st1{fill:#FFFFFF;}
</style>
<g id="Layer_1">
	<rect class="st0" width="700" height="395"/>
</g>
<g id="Layer_3">
	<g>
		<path class="st1" d="M273.5,368.6l1.1,4.2c0.2,0.9,0.5,1.8,0.6,2.6h0.1c0.2-0.8,0.5-1.7,0.7-2.6l1.3-4.2h1.3l1.3,4.1
			c0.3,1,0.5,1.9,0.7,2.7h0.1c0.1-0.8,0.4-1.7,0.6-2.7l1.2-4.1h1.5l-2.7,8.2H280l-1.3-3.9c-0.3-0.9-0.5-1.7-0.7-2.7h0
			c-0.2,1-0.5,1.8-0.7,2.7l-1.3,3.9h-1.4l-2.5-8.2H273.5z"/>
		<path class="st1" d="M286.3,368.6l1.1,4.2c0.2,0.9,0.5,1.8,0.6,2.6h0.1c0.2-0.8,0.5-1.7,0.7-2.6l1.3-4.2h1.3l1.3,4.1
			c0.3,1,0.5,1.9,0.7,2.7h0.1c0.1-0.8,0.4-1.7,0.6-2.7l1.2-4.1h1.5l-2.7,8.2h-1.4l-1.3-3.9c-0.3-0.9-0.5-1.7-0.7-2.7h0
			c-0.2,1-0.5,1.8-0.7,2.7l-1.3,3.9h-1.4l-2.5-8.2H286.3z"/>
		<path class="st1" d="M299,368.6l1.1,4.2c0.2,0.9,0.5,1.8,0.6,2.6h0.1c0.2-0.8,0.5-1.7,0.7-2.6l1.3-4.2h1.3l1.3,4.1
			c0.3,1,0.5,1.9,0.7,2.7h0.1c0.1-0.8,0.4-1.7,0.6-2.7l1.2-4.1h1.5l-2.7,8.2h-1.4l-1.3-3.9c-0.3-0.9-0.5-1.7-0.7-2.7h0
			c-0.2,1-0.5,1.8-0.7,2.7l-1.3,3.9h-1.4l-2.5-8.2H299z"/>
		<path class="st1" d="M309.9,375.9c0-0.6,0.4-1.1,1-1.1c0.6,0,1,0.4,1,1.1c0,0.6-0.4,1.1-1,1.1C310.3,377,309.9,376.5,309.9,375.9z
			"/>
		<path class="st1" d="M313.5,375.3c0.4,0.3,1.2,0.6,2,0.6c1.1,0,1.6-0.5,1.6-1.2c0-0.7-0.4-1.1-1.5-1.5c-1.5-0.5-2.2-1.3-2.2-2.3
			c0-1.3,1.1-2.4,2.8-2.4c0.8,0,1.6,0.2,2,0.5l-0.4,1.1c-0.3-0.2-0.9-0.5-1.7-0.5c-0.9,0-1.4,0.5-1.4,1.1c0,0.7,0.5,1,1.6,1.4
			c1.4,0.5,2.2,1.3,2.2,2.5c0,1.4-1.1,2.5-3.1,2.5c-0.9,0-1.7-0.2-2.3-0.6L313.5,375.3z"/>
		<path class="st1" d="M327.4,374.6c0,0.9,0,1.6,0.1,2.2h-1.3l-0.1-1.3h0c-0.4,0.7-1.3,1.5-2.7,1.5c-1.3,0-2.8-0.7-2.8-3.6v-4.8h1.5
			v4.6c0,1.6,0.5,2.6,1.8,2.6c1,0,1.7-0.7,2-1.4c0.1-0.2,0.1-0.5,0.1-0.8v-5h1.5V374.6z"/>
		<path class="st1" d="M329.8,371.1c0-1,0-1.8-0.1-2.6h1.3l0.1,1.6h0.1c0.4-1.1,1.3-1.8,2.3-1.8c0.2,0,0.3,0,0.4,0.1v1.4
			c-0.2,0-0.3-0.1-0.5-0.1c-1.1,0-1.8,0.8-2,1.9c0,0.2-0.1,0.4-0.1,0.7v4.4h-1.5V371.1z"/>
		<path class="st1" d="M339.9,376.8l-0.1-1h-0.1c-0.5,0.6-1.3,1.2-2.5,1.2c-1.7,0-2.5-1.2-2.5-2.4c0-2,1.8-3.1,4.9-3.1v-0.2
			c0-0.7-0.2-1.9-1.9-1.9c-0.8,0-1.6,0.2-2.1,0.6l-0.3-1c0.7-0.4,1.7-0.7,2.7-0.7c2.5,0,3.1,1.7,3.1,3.4v3.1c0,0.7,0,1.4,0.1,2
			H339.9z M339.7,372.6c-1.6,0-3.5,0.3-3.5,1.9c0,1,0.6,1.4,1.4,1.4c1.1,0,1.8-0.7,2-1.4c0.1-0.2,0.1-0.3,0.1-0.5V372.6z"/>
		<path class="st1" d="M343.5,364.7h1.5v5.1h0c0.2-0.4,0.6-0.8,1.1-1.1c0.4-0.3,1-0.4,1.5-0.4c1.1,0,2.9,0.7,2.9,3.5v4.9H349v-4.7
			c0-1.3-0.5-2.4-1.9-2.4c-1,0-1.7,0.7-2,1.5c-0.1,0.2-0.1,0.4-0.1,0.7v5h-1.5V364.7z"/>
		<path class="st1" d="M358.6,375.5L358.6,375.5c-0.5,0.8-1.4,1.5-2.7,1.5c-1.9,0-3.5-1.7-3.5-4.2c0-3.1,2-4.4,3.7-4.4
			c1.3,0,2.1,0.6,2.5,1.4h0l0.1-1.2h1.4c0,0.7-0.1,1.4-0.1,2.3v9.3h-1.5V375.5z M358.6,371.9c0-0.2,0-0.4-0.1-0.6
			c-0.2-0.9-1-1.7-2.1-1.7c-1.5,0-2.5,1.3-2.5,3.2c0,1.6,0.8,3.1,2.4,3.1c1,0,1.8-0.6,2.1-1.6c0.1-0.2,0.1-0.5,0.1-0.7V371.9z"/>
		<path class="st1" d="M369.4,374.6c0,0.9,0,1.6,0.1,2.2h-1.3l-0.1-1.3h0c-0.4,0.7-1.3,1.5-2.7,1.5c-1.3,0-2.8-0.7-2.8-3.6v-4.8h1.5
			v4.6c0,1.6,0.5,2.6,1.8,2.6c1,0,1.7-0.7,2-1.4c0.1-0.2,0.1-0.5,0.1-0.8v-5h1.5V374.6z"/>
		<path class="st1" d="M371.9,371.1c0-1,0-1.8-0.1-2.6h1.3l0.1,1.6h0.1c0.4-1.1,1.3-1.8,2.3-1.8c0.2,0,0.3,0,0.4,0.1v1.4
			c-0.2,0-0.3-0.1-0.5-0.1c-1.1,0-1.8,0.8-2,1.9c0,0.2-0.1,0.4-0.1,0.7v4.4h-1.5V371.1z"/>
		<path class="st1" d="M381.9,376.8l-0.1-1h-0.1c-0.5,0.6-1.3,1.2-2.5,1.2c-1.7,0-2.5-1.2-2.5-2.4c0-2,1.8-3.1,4.9-3.1v-0.2
			c0-0.7-0.2-1.9-1.9-1.9c-0.8,0-1.6,0.2-2.1,0.6l-0.3-1c0.7-0.4,1.7-0.7,2.7-0.7c2.5,0,3.1,1.7,3.1,3.4v3.1c0,0.7,0,1.4,0.1,2
			H381.9z M381.7,372.6c-1.6,0-3.5,0.3-3.5,1.9c0,1,0.6,1.4,1.4,1.4c1.1,0,1.8-0.7,2-1.4c0.1-0.2,0.1-0.3,0.1-0.5V372.6z"/>
		<path class="st1" d="M385.6,370.8c0-0.9,0-1.5-0.1-2.2h1.3l0.1,1.4h0c0.4-0.8,1.4-1.5,2.7-1.5c1.1,0,2.9,0.7,2.9,3.5v4.9h-1.5
			v-4.7c0-1.3-0.5-2.4-1.9-2.4c-1,0-1.8,0.7-2,1.5c-0.1,0.2-0.1,0.4-0.1,0.7v4.9h-1.5V370.8z"/>
		<path class="st1" d="M394.6,375.9c0-0.6,0.4-1.1,1-1.1c0.6,0,1,0.4,1,1.1c0,0.6-0.4,1.1-1,1.1C395,377,394.6,376.5,394.6,375.9z"
			/>
		<path class="st1" d="M404.4,376.5c-0.4,0.2-1.3,0.5-2.4,0.5c-2.5,0-4.1-1.7-4.1-4.2c0-2.5,1.7-4.4,4.4-4.4c0.9,0,1.7,0.2,2.1,0.4
			l-0.3,1.2c-0.4-0.2-0.9-0.4-1.7-0.4c-1.9,0-2.9,1.4-2.9,3.1c0,1.9,1.2,3.1,2.9,3.1c0.8,0,1.4-0.2,1.8-0.4L404.4,376.5z"/>
		<path class="st1" d="M413.5,372.6c0,3-2.1,4.4-4.1,4.4c-2.2,0-3.9-1.6-3.9-4.2c0-2.8,1.8-4.4,4.1-4.4
			C411.9,368.4,413.5,370.1,413.5,372.6z M406.9,372.7c0,1.8,1,3.2,2.5,3.2c1.4,0,2.5-1.3,2.5-3.2c0-1.4-0.7-3.2-2.5-3.2
			S406.9,371.1,406.9,372.7z"/>
		<path class="st1" d="M415.4,370.8c0-0.9,0-1.5-0.1-2.2h1.3l0.1,1.3h0.1c0.5-0.8,1.2-1.5,2.6-1.5c1.1,0,2,0.7,2.3,1.6h0
			c0.3-0.5,0.6-0.8,0.9-1.1c0.5-0.4,1-0.6,1.8-0.6c1.1,0,2.7,0.7,2.7,3.6v4.8h-1.5v-4.7c0-1.6-0.6-2.5-1.8-2.5
			c-0.9,0-1.5,0.6-1.8,1.4c-0.1,0.2-0.1,0.5-0.1,0.7v5.1h-1.5v-4.9c0-1.3-0.6-2.3-1.7-2.3c-0.9,0-1.6,0.7-1.9,1.5
			c-0.1,0.2-0.1,0.5-0.1,0.7v5h-1.5V370.8z"/>
	</g>
</g>
<g id="Layer_4">
	<path class="st1" d="M248.5,102.2h0.7v2.5c0,3.3-5.2,6.7-15.7,10c-1.2,1.4-14.5,8.5-40.1,21.3L167,152.4c-1.7,1.8-2.5,3.5-2.5,5
		c4.2,2.7,6.3,5.4,6.3,8.2v1.8l-1.8,1.9c-5.9-2.5-8.8-6.9-8.8-13.2c0-8,14.8-18.9,44.5-32.6c3.2-2.3,12.6-7.1,28.2-14.4
		C240.1,104.5,245.3,102.2,248.5,102.2z M157.6,103.5c3.7,1.8,5.6,4.7,5.6,8.8l-1.8,3.2l-5-3.8h-0.7l-1.8,1.8v8.2
		c-0.8,12.1-2.1,18.1-3.8,18.1h-0.7c-3.6-6.7-7.5-12-11.9-15.6c-1.1,0-3.4,3.5-6.9,10.6c-8.6,8.8-14.1,13.2-16.3,13.2v-1.9
		c11.7-12.1,17.6-19.7,17.6-22.6v-0.6c-3.7-3.5-5.6-5.8-5.6-6.9c0-4.2,1.3-6.3,3.8-6.3c3.6,0,9.9,5.2,18.8,15.7h0.6
		C150.2,110.8,152.9,103.5,157.6,103.5z M338.7,105.4c3.8,0.8,5.7,3.5,5.7,8.1v1.9l-0.7,7.5c3.3,2.3,5,5.3,5,8.8
		c-0.6,1.7-1.2,2.5-1.8,2.5h-0.7l-3.8-3.2h-1.8c-16.3,16.1-28.2,25.1-35.8,27h-1.3v-0.7c3.6-4.2,13.2-12.5,28.8-25.1
		c2.1-1.8,3.2-3.5,3.2-5l-6.3-7.5C329.4,113.6,332.5,108.8,338.7,105.4z M540,105.4c4.2,1.6,6.3,4.1,6.3,7.5
		c-0.3,2.9-0.9,4.3-1.9,4.3h-1.3l-4.3-3.8h-1.3c-2.5,0-3.8,5.4-3.8,16.3h0.6c-1.3,11.3-2.6,17-3.8,17h-1.8c0-3.2-3.6-8.8-10.7-17
		c-7.1-1.8-10.6-4.5-10.6-8.1v-1.9c0.9-2.5,1.8-3.8,2.5-3.8h1.3c4.1,0,9.9,5.2,17.6,15.7h0.6c0-12.6,2.7-21,8.2-25.1L540,105.4z
		 M405.2,106h1.3c1.3,0,2.4,2.1,3.2,6.3l-0.7,11.3c4.2,2.8,6.3,5.7,6.3,8.8v0.7l-1.8,2.5l-7.5-5l-12,11.3
		c-8.1,5.9-14.5,9.4-19.4,10.6l-1.3,1.3h-1.9l-0.6-0.6h-0.7c1-2.2,8.1-7.5,21.3-15.7c5.9-4.3,8.8-7.7,8.8-10v-0.6
		c-2.5-3-3.8-5.5-3.8-7.5C398,110.4,400.9,106,405.2,106z M314.3,107.2l1.3,1.9c0,4.5-7.1,9.5-21.3,15c-4.8,3.1-23.2,12.5-55.2,28.2
		l-17,10h-1.8v-1.3c0-6.2,6.3-11.8,18.8-16.9C286,119.7,311.1,107.3,314.3,107.2z M584.4,107.2h1.9c3.3,1.8,5,5.5,5,11.3v5
		c0,1.7,1.7,4.6,5,8.8c-1,2.5-1.8,3.8-2.5,3.8h-0.7c-1.8-1.7-3.5-2.5-5-2.5L571.3,148c-13.9,9.6-24.5,14.8-32,15.6h-0.6v-0.6
		l35.1-23.2c6.2-5,9.4-8.4,9.4-10c-4.2-2.8-6.3-5.5-6.3-8.1C576.9,114.7,579.4,109.9,584.4,107.2z M487.3,108.5l1.3,1.9
		c0,3.7-9.8,10.6-29.5,20.6l-27.6,17l-1.8-1.3c0-5.1,3.5-8.9,10.6-11.3C449.2,129.5,464.9,120.5,487.3,108.5z M335,115.4
		c0.3,1.4,1.6,2.7,3.8,3.8h1.9v-0.7c0-3.3-1.1-5-3.2-5l-1.8,1.9H335z M400.8,116.7c0.8,1.9,1.6,2.9,2.5,3.1h1.8l0.7-3.1l-1.9-3.2
		C401.8,114.2,400.8,115.3,400.8,116.7z M580.7,117.9c0,1.9,2.1,3.3,6.3,4.3h0.7V121c0-3.2-0.8-5-2.5-5.6h-2.5L580.7,117.9z
		 M494.8,146.1h0.6l-3.1,13.8c0,3,1.3,5.5,3.8,7.5h1.8c0.7,0,1.5-1.4,2.5-4.3h0.7l1.3,1.3c-1.4,8.4-3.5,12.5-6.4,12.5
		s-5.3-3.6-7.4-10.7l0.6-0.6v-3.2C491.1,151.5,492.9,146.1,494.8,146.1z M414.6,151.1c5.1,3.2,8.2,6.4,9.4,9.4
		c-1.2,3.5-3,6.4-5.6,8.8h-0.7l-7.5-5.7h-1.3l-5,6.9h-1.3v0.6c-2.9-1-6.2-3.5-10-7.5v-1.8c1.3-5.5,3.4-8.2,6.3-8.2h0.7l6.3,4.4h1.3
		c1.3-0.4,2.7-2.5,4.3-6.3L414.6,151.1z M587.6,151.8l0.6,0.6h0.7c-2.5,5-3.8,8.9-3.8,12c0.9,4.6,2.2,6.9,3.8,6.9l4.3-3.8l0.7,1.9
		c0,3.8-1.9,7.2-5.7,10h-1.8c-2,0-3.6-3.3-5-10C581.3,163.5,583.4,157.6,587.6,151.8z M143.8,153h0.6c8.6,8.8,15.9,24.3,22,46.4
		c3.9,30.5,8.3,45.7,13.1,45.7c0,0.8,2.1,1.6,6.3,2.5h3.2c7.4,0,14.7-6.7,21.9-20.1l2.5-1.8h0.7c8.9,16.7,24.3,25.1,46.4,25.1
		c19.6,0,42.2-5.9,67.7-17.6V232c-2.7-0.8-19.4-2.1-50.1-3.8l-1.3-2.5c0-10.3,15.5-21.8,46.4-34.5l0.6-1.8l-2.5-9.4v-0.6
		c2.2-10.9,6.6-16.3,13.2-16.3s13.7,4.6,21.4,13.8l2.5,5.6c0,6.5-5.7,11.1-17,13.8c-4,1.6-6.2,3.6-6.9,6.3h-1.3l-3.8-1.3
		c-13.8,4.6-23.8,9.2-30.1,13.8v1.3l48.2,4.4v-0.7l0.7,0.7h31.3c3.3,0,5,1.3,5,3.8c-0.7,0-2.6,3.1-5.7,9.4l-4.3,0.7h-12l-3.8,1.3
		l-0.6-0.7h-0.7c-4.4,0-22.8,7.1-55.2,21.3c-17.7,5-29.6,7.5-35.7,7.5h-6.3c-7.7,0-17.5-1.4-29.5-4.3v0.6c0,7.6-2.1,12.2-6.3,13.8
		c-8.1,0-13.8-7.1-16.9-21.3v-3.8h-0.7c-6.2,8-13.8,12-22.6,12c-10.4-3.2-15.6-7.8-15.6-13.8c-1,0-2.3-4.8-3.8-14.5h-1.9
		c-3.3,9.1-14.8,20-34.4,32.6c-9.8,5.5-18.1,8.2-25.1,8.2c-10.1,0-15.8-8.8-17-26.3c0-8,2.7-17.2,8.2-27.6v-3.2
		c-3-4.7-4.4-8.9-4.4-12.5c0-9.1,2.7-21.3,8.2-36.4l0.6-0.6h1.9c-3.8,15.4-5.7,25.7-5.7,30.7s1.7,8.6,5,10.7h0.7
		c1.2,0,2.4-2.3,3.8-6.9h1.8l0.7,2.5c0,6.6-2.9,11.9-8.8,15.7c-2.1,3.6-4.2,10.3-6.3,20.1v2.5c0,11.7,4,17.6,11.9,17.6
		c14,0,30.9-9.4,50.8-28.2l6.3-9.4c0-8.5-6.7-28.8-20.1-60.8C141.9,155.7,142.8,153,143.8,153z M274.8,153h0.7l1.3,1.3l-2.5,14.4
		v8.2c0,3.6,1.4,6.3,4.3,8.1h1.9c0.2-3.4,1.1-5.3,2.5-5.6h0.6l0.7,2.5c-0.9,9.2-3.3,13.8-6.9,13.8c-5.4-3.2-8.1-7.5-8.1-12.8
		S271,167.5,274.8,153z M449,164.3h1.9c5.4,5.1,9.8,9.9,13.1,14.4v1.3l-1.3,1.3h-3.1v2.5c6.7,9.4,10,18.1,10,26.3
		c0,9.7-5.7,18.5-17,26.3c-1.2,2.2-1.8,4.3-1.8,6.3v6.9c2.8,10.4,8,15.6,15.6,15.6l3.8,0.7c15.4,0,33.4-11.9,53.9-35.8
		c0-2.1-0.6-3.4-1.8-3.8h-1.3c-0.7,0.8-5.9,1.9-15.7,3.2c-8.7-1.4-13.1-5.2-13.1-11.3v-5.7c0-4.6,3.3-9.8,10-15.6
		c2.9,0,4.3-0.4,4.3-1.3c5.3,0,12,4.8,20.1,14.4h0.7c3,0,9.2-3.8,18.8-11.3l3.8-1.3c1.2,0,2.1,4,2.5,12c3.6,4.2,8.6,6.3,15,6.3
		c6.9,0,13.8-6.9,20.6-20.7h1.3l0.7-0.6l0.6,0.6l0.7,1.9l-2.5,6.3v1.8c3.7,4.2,7.5,6.3,11.3,6.3h4.3l1.9-1.8l-3.2-8.2
		c1.3-5.9,2.3-8.8,3.2-8.8h1.3c3.7,4.3,5.6,9.5,5.6,15.7c-2.3,10.9-6.1,16.3-11.3,16.3h-1.8c-5.2,0-10.8-2.9-17-8.8h-0.6
		c-5.2,8.4-11.9,12.5-20.1,12.5c-10.9-2-16.3-7.2-16.3-15.7h-1.9c-9.2,6.4-13.8,10.8-13.8,13.2c0,15.5-14.4,31.8-43.2,48.9
		l-12.5,3.8h-8.2c-11.3-3.2-16.9-7.2-16.9-12c-1.4-0.6-2.9-4.5-4.4-11.9l0.7-0.7v-6.9l0.6-4.4c-1.2,0-8.3,4.2-21.3,12.5
		c-17.3,10.5-31.1,15.7-41.4,15.7l-22.6,5l-0.6-0.7v-1.8l35.7-15c22.7-11.6,44-25.4,63.9-41.4c2.1-2.2,3.2-4.1,3.2-5.9
		s-3.8-9.4-11.3-23l-5-14.5L449,164.3z M425.2,173.1l0.7,0.6h0.6c0,5.1-3.5,13-10.6,23.8v0.7c0,0.8,2.9,3.3,8.8,7.5
		c0.9,0.9,2,4.1,3.1,9.4v4.4c0,9.8-7.7,17.1-23.2,21.9h-2.5c-3.7,0-6.2-4-7.5-11.9c0-5.6,2.1-13.5,6.3-23.8V205
		c-10.5-9.8-15.7-15.4-15.7-16.9l-0.6-4.4c0-2.4,0.6-4.5,1.8-6.3c10.6,4.1,16.2,7,17,8.8v1.3l-2.5,0.7v1.3c2.4,2.8,4.7,4.5,6.9,5
		c1.1,0,6.7-7.1,17-21.3H425.2z M327.4,178.7c2.8,5.1,4.7,7.8,5.7,8.2h1.3c5.8-1.4,8.7-2.6,8.8-3.8c0-1.5-2.9-3.6-8.8-6.3h-3.2
		C328.7,177.1,327.4,177.7,327.4,178.7z M210.8,176.9h1.3c0.9,0,2.6,4.6,5,13.8c-0.6,7.1-3.5,10.6-8.8,10.6l-4.3-2.5
		c-4.1,3.3-6.8,5-8.2,5c-2.8,0-4.7-2.3-5.6-6.9v-10c0.2-2.5,0.8-3.8,1.8-3.8h0.7l0.6,3.1v6.9c1,2.1,2.3,3.1,3.8,3.1
		c3.3-1.7,5-4,5-6.9l-1.3-6.9c1-2.9,1.8-4.3,2.5-4.3c1.3,1,2.3,5.2,3.2,12.5l2.5,1.8h3.1l0.7-1.8c-1.7-3.6-2.5-6.4-2.5-8.2v-1.3
		L210.8,176.9z M133.1,188.1h0.7l-1.9,13.1c0.4,5.5,1.5,8.2,3.2,8.2h1.8c0.3-2.1,0.9-3.2,1.9-3.2h1.3v2.5c0,3-1.5,5.9-4.4,8.8H135
		c-4.6,0-6.9-4.4-6.9-13.1C128.1,199.4,129.8,193.9,133.1,188.1z M246.6,193.7l0.6,0.7l-1.8,11.9c0.9,4.6,2.2,6.9,3.8,6.9h0.6
		l3.2-2.5l1.3,1.3c-1.3,6.7-3.4,10-6.3,10c-3.3,0-5.4-4.4-6.3-13.2C241.6,204.5,243.3,199.5,246.6,193.7z M400.1,225.7l3.2,2.5h3.1
		c6.5-1.6,11.5-4.7,15-9.4c0-2.2-4.4-5.1-13.1-8.8c-2.5,0-5.2,4-8.2,12V225.7z M501.1,211.3v2.5c0.4,1.3,1.6,1.9,3.8,1.9h5.6
		l3.2-0.7v-1.3c-1.3-2.5-3.6-3.8-6.9-3.8h-1.3L501.1,211.3z M597.6,238.3l0.6,2.5c-1.3,8.7-5,13.1-11.3,13.1l-3.8-1.3
		c-3.2,2.5-5.9,3.8-8.1,3.8h-0.7c-1.5,0-3.4-0.8-5.6-2.5h-1.9c-2.9,0-11.9,5-26.9,15l-7.5,1.9l-0.7-0.7v-0.6
		c21.2-15.5,33.8-23.2,37.6-23.2c3.6,1.7,6.4,2.5,8.2,2.5h1.8c0.7,0,3-2.3,6.9-6.9h1.3c0,2.9,1.3,4.3,3.8,4.3c1.1,0,2.6-2.5,4.3-7.5
		l0.7-0.6H597.6z M214.6,247.6v0.7c2.3,6.7,5.2,10,8.8,10v-0.7c0-2.6-2.5-5.9-7.5-10H214.6z M345,248.3c3.3,0.8,5,1.6,5,2.5v1.3
		c0,2.8-4,7.6-11.9,14.4l-0.7,0.7v0.6l1.9,1.9h1.8c5.7,0,13-2.9,22-8.8h0.6l0.7,0.6v0.7c-7.7,10.4-16.5,15.6-26.3,15.6
		c-2.5,0-4.8-1.4-6.9-4.3c0.4-3.6,3.7-9.1,10-16.3l-0.6-0.7l-3.2,0.7h-3.1l-1.3-1.3C333.1,251.4,337.1,248.9,345,248.3z M167,262.1
		h1.3v1.3h0.7c-0.8,4.6-3.7,6.9-8.8,6.9c-11.8,6.3-19.3,9.4-22.6,9.4l-0.7-0.7h-0.6c0-4,5.2-7.5,15.6-10.6
		C159.1,264.2,164.1,262.1,167,262.1z M170.1,274l0.6,1.9c0,3.6-5.2,6.7-15.6,9.4c-9.5,5-15.6,7.5-18.2,7.5l-0.6-0.6v-0.7
		C136.3,287.2,147.6,281.4,170.1,274z"/>
</g>
</svg>
