<?xml version="1.0" encoding="utf-8"?>
<!-- Generator: Adobe Illustrator 25.2.3, SVG Export Plug-In . SVG Version: 6.00 Build 0)  -->
<svg version="1.1" xmlns="http://www.w3.org/2000/svg" xmlns:xlink="http://www.w3.org/1999/xlink" x="0px" y="0px"
	 viewBox="0 0 700 395" style="enable-background:new 0 0 700 395;" xml:space="preserve">
<style type="text/css">
	.st0{fill:#000222;}
	.st1{fill:#FFFFFF;}
</style>
<g id="Layer_1">
	<rect class="st0" width="700" height="395"/>
</g>
<g id="Layer_3">
	<g>
		<path class="st1" d="M273.5,368.6l1.1,4.2c0.2,0.9,0.5,1.8,0.6,2.6h0.1c0.2-0.8,0.5-1.7,0.7-2.6l1.3-4.2h1.3l1.3,4.1
			c0.3,1,0.5,1.9,0.7,2.7h0.1c0.1-0.8,0.4-1.7,0.6-2.7l1.2-4.1h1.5l-2.7,8.2H280l-1.3-3.9c-0.3-0.9-0.5-1.7-0.7-2.7h0
			c-0.2,1-0.5,1.8-0.7,2.7l-1.3,3.9h-1.4l-2.5-8.2H273.5z"/>
		<path class="st1" d="M286.3,368.6l1.1,4.2c0.2,0.9,0.5,1.8,0.6,2.6h0.1c0.2-0.8,0.5-1.7,0.7-2.6l1.3-4.2h1.3l1.3,4.1
			c0.3,1,0.5,1.9,0.7,2.7h0.1c0.1-0.8,0.4-1.7,0.6-2.7l1.2-4.1h1.5l-2.7,8.2h-1.4l-1.3-3.9c-0.3-0.9-0.5-1.7-0.7-2.7h0
			c-0.2,1-0.5,1.8-0.7,2.7l-1.3,3.9h-1.4l-2.5-8.2H286.3z"/>
		<path class="st1" d="M299,368.6l1.1,4.2c0.2,0.9,0.5,1.8,0.6,2.6h0.1c0.2-0.8,0.5-1.7,0.7-2.6l1.3-4.2h1.3l1.3,4.1
			c0.3,1,0.5,1.9,0.7,2.7h0.1c0.1-0.8,0.4-1.7,0.6-2.7l1.2-4.1h1.5l-2.7,8.2h-1.4l-1.3-3.9c-0.3-0.9-0.5-1.7-0.7-2.7h0
			c-0.2,1-0.5,1.8-0.7,2.7l-1.3,3.9h-1.4l-2.5-8.2H299z"/>
		<path class="st1" d="M309.9,375.9c0-0.6,0.4-1.1,1-1.1c0.6,0,1,0.4,1,1.1c0,0.6-0.4,1.1-1,1.1C310.3,377,309.9,376.5,309.9,375.9z
			"/>
		<path class="st1" d="M313.5,375.3c0.4,0.3,1.2,0.6,2,0.6c1.1,0,1.6-0.5,1.6-1.2c0-0.7-0.4-1.1-1.5-1.5c-1.5-0.5-2.2-1.3-2.2-2.3
			c0-1.3,1.1-2.4,2.8-2.4c0.8,0,1.6,0.2,2,0.5l-0.4,1.1c-0.3-0.2-0.9-0.5-1.7-0.5c-0.9,0-1.4,0.5-1.4,1.1c0,0.7,0.5,1,1.6,1.4
			c1.4,0.5,2.2,1.3,2.2,2.5c0,1.4-1.1,2.5-3.1,2.5c-0.9,0-1.7-0.2-2.3-0.6L313.5,375.3z"/>
		<path class="st1" d="M327.4,374.6c0,0.9,0,1.6,0.1,2.2h-1.3l-0.1-1.3h0c-0.4,0.7-1.3,1.5-2.7,1.5c-1.3,0-2.8-0.7-2.8-3.6v-4.8h1.5
			v4.6c0,1.6,0.5,2.6,1.8,2.6c1,0,1.7-0.7,2-1.4c0.1-0.2,0.1-0.5,0.1-0.8v-5h1.5V374.6z"/>
		<path class="st1" d="M329.8,371.1c0-1,0-1.8-0.1-2.6h1.3l0.1,1.6h0.1c0.4-1.1,1.3-1.8,2.3-1.8c0.2,0,0.3,0,0.4,0.1v1.4
			c-0.2,0-0.3-0.1-0.5-0.1c-1.1,0-1.8,0.8-2,1.9c0,0.2-0.1,0.4-0.1,0.7v4.4h-1.5V371.1z"/>
		<path class="st1" d="M339.9,376.8l-0.1-1h-0.1c-0.5,0.6-1.3,1.2-2.5,1.2c-1.7,0-2.5-1.2-2.5-2.4c0-2,1.8-3.1,4.9-3.1v-0.2
			c0-0.7-0.2-1.9-1.9-1.9c-0.8,0-1.6,0.2-2.1,0.6l-0.3-1c0.7-0.4,1.7-0.7,2.7-0.7c2.5,0,3.1,1.7,3.1,3.4v3.1c0,0.7,0,1.4,0.1,2
			H339.9z M339.7,372.6c-1.6,0-3.5,0.3-3.5,1.9c0,1,0.6,1.4,1.4,1.4c1.1,0,1.8-0.7,2-1.4c0.1-0.2,0.1-0.3,0.1-0.5V372.6z"/>
		<path class="st1" d="M343.5,364.7h1.5v5.1h0c0.2-0.4,0.6-0.8,1.1-1.1c0.4-0.3,1-0.4,1.5-0.4c1.1,0,2.9,0.7,2.9,3.5v4.9H349v-4.7
			c0-1.3-0.5-2.4-1.9-2.4c-1,0-1.7,0.7-2,1.5c-0.1,0.2-0.1,0.4-0.1,0.7v5h-1.5V364.7z"/>
		<path class="st1" d="M358.6,375.5L358.6,375.5c-0.5,0.8-1.4,1.5-2.7,1.5c-1.9,0-3.5-1.7-3.5-4.2c0-3.1,2-4.4,3.7-4.4
			c1.3,0,2.1,0.6,2.5,1.4h0l0.1-1.2h1.4c0,0.7-0.1,1.4-0.1,2.3v9.3h-1.5V375.5z M358.6,371.9c0-0.2,0-0.4-0.1-0.6
			c-0.2-0.9-1-1.7-2.1-1.7c-1.5,0-2.5,1.3-2.5,3.2c0,1.6,0.8,3.1,2.4,3.1c1,0,1.8-0.6,2.1-1.6c0.1-0.2,0.1-0.5,0.1-0.7V371.9z"/>
		<path class="st1" d="M369.4,374.6c0,0.9,0,1.6,0.1,2.2h-1.3l-0.1-1.3h0c-0.4,0.7-1.3,1.5-2.7,1.5c-1.3,0-2.8-0.7-2.8-3.6v-4.8h1.5
			v4.6c0,1.6,0.5,2.6,1.8,2.6c1,0,1.7-0.7,2-1.4c0.1-0.2,0.1-0.5,0.1-0.8v-5h1.5V374.6z"/>
		<path class="st1" d="M371.9,371.1c0-1,0-1.8-0.1-2.6h1.3l0.1,1.6h0.1c0.4-1.1,1.3-1.8,2.3-1.8c0.2,0,0.3,0,0.4,0.1v1.4
			c-0.2,0-0.3-0.1-0.5-0.1c-1.1,0-1.8,0.8-2,1.9c0,0.2-0.1,0.4-0.1,0.7v4.4h-1.5V371.1z"/>
		<path class="st1" d="M381.9,376.8l-0.1-1h-0.1c-0.5,0.6-1.3,1.2-2.5,1.2c-1.7,0-2.5-1.2-2.5-2.4c0-2,1.8-3.1,4.9-3.1v-0.2
			c0-0.7-0.2-1.9-1.9-1.9c-0.8,0-1.6,0.2-2.1,0.6l-0.3-1c0.7-0.4,1.7-0.7,2.7-0.7c2.5,0,3.1,1.7,3.1,3.4v3.1c0,0.7,0,1.4,0.1,2
			H381.9z M381.7,372.6c-1.6,0-3.5,0.3-3.5,1.9c0,1,0.6,1.4,1.4,1.4c1.1,0,1.8-0.7,2-1.4c0.1-0.2,0.1-0.3,0.1-0.5V372.6z"/>
		<path class="st1" d="M385.6,370.8c0-0.9,0-1.5-0.1-2.2h1.3l0.1,1.4h0c0.4-0.8,1.4-1.5,2.7-1.5c1.1,0,2.9,0.7,2.9,3.5v4.9h-1.5
			v-4.7c0-1.3-0.5-2.4-1.9-2.4c-1,0-1.8,0.7-2,1.5c-0.1,0.2-0.1,0.4-0.1,0.7v4.9h-1.5V370.8z"/>
		<path class="st1" d="M394.6,375.9c0-0.6,0.4-1.1,1-1.1c0.6,0,1,0.4,1,1.1c0,0.6-0.4,1.1-1,1.1C395,377,394.6,376.5,394.6,375.9z"
			/>
		<path class="st1" d="M404.4,376.5c-0.4,0.2-1.3,0.5-2.4,0.5c-2.5,0-4.1-1.7-4.1-4.2c0-2.5,1.7-4.4,4.4-4.4c0.9,0,1.7,0.2,2.1,0.4
			l-0.3,1.2c-0.4-0.2-0.9-0.4-1.7-0.4c-1.9,0-2.9,1.4-2.9,3.1c0,1.9,1.2,3.1,2.9,3.1c0.8,0,1.4-0.2,1.8-0.4L404.4,376.5z"/>
		<path class="st1" d="M413.5,372.6c0,3-2.1,4.4-4.1,4.4c-2.2,0-3.9-1.6-3.9-4.2c0-2.8,1.8-4.4,4.1-4.4
			C411.9,368.4,413.5,370.1,413.5,372.6z M406.9,372.7c0,1.8,1,3.2,2.5,3.2c1.4,0,2.5-1.3,2.5-3.2c0-1.4-0.7-3.2-2.5-3.2
			S406.9,371.1,406.9,372.7z"/>
		<path class="st1" d="M415.4,370.8c0-0.9,0-1.5-0.1-2.2h1.3l0.1,1.3h0.1c0.5-0.8,1.2-1.5,2.6-1.5c1.1,0,2,0.7,2.3,1.6h0
			c0.3-0.5,0.6-0.8,0.9-1.1c0.5-0.4,1-0.6,1.8-0.6c1.1,0,2.7,0.7,2.7,3.6v4.8h-1.5v-4.7c0-1.6-0.6-2.5-1.8-2.5
			c-0.9,0-1.5,0.6-1.8,1.4c-0.1,0.2-0.1,0.5-0.1,0.7v5.1h-1.5v-4.9c0-1.3-0.6-2.3-1.7-2.3c-0.9,0-1.6,0.7-1.9,1.5
			c-0.1,0.2-0.1,0.5-0.1,0.7v5h-1.5V370.8z"/>
	</g>
</g>
<g id="Layer_4">
	<path class="st1" d="M308.2,103.8h0.6c6.7,14.2,10.3,23.3,10.7,27.3l-1.2,1.2l-4.2-3.6l-1.2,1.2l8.3,73l-0.6,0.6l0.6,4.7
		c0,13.3-4.3,21.4-13,24.4l-6.5,1.2l-17.2-3.6c-9.8,4.3-17.1,6.5-21.9,6.5H259c-8.3,0-14.3-3.2-17.8-9.5c-2.2-3.9-3.6-5.9-4.2-5.9
		h-1.2c-12.8,12.6-28,19-45.6,19c-13.9-3.9-20.8-7.9-20.8-11.9c-4-5.3-5.9-12.2-5.9-20.7l3-20.8l-0.6-0.6h-0.6
		c-7.9,4.5-11.9,7.4-11.9,8.9c-0.7,3.2-1.5,4.7-2.4,4.7l-2.4-1.7c-5.1,0-11.3,6.7-18.4,20.2c-3.2,9.1-4.7,16.4-4.7,21.9
		c0,15,6.7,26,20.2,33.2c10.4,4.4,22.7,6.6,36.8,6.6c20.6,0,35.6-1,45.1-3l1.8,0.6v0.6c0,2.2-13,6.5-39.1,13h-20.2
		c-19.9,0-34.8-7.9-44.5-23.7c-3.2-7.6-4.7-14.5-4.7-20.7l0.6-2.4v-1.2l-0.6-0.6c1.1-15.8,5.5-30.2,13-43.2c4.7-4.7,7.1-7.7,7.1-8.9
		c0-1.6-5.9-6-17.8-13c-2.4-3.4-3.6-6.4-3.6-8.9v-1.2c0-8.2,6.7-13.4,20.2-15.4l12.5-1.2c11.4,0,20.9,0.4,28.5,1.2v-0.6l1.7,0.6
		c16.6,0,24.9,1.8,24.9,5.3v1.2c0,5.2-8.7,11.5-26.1,19c-7.5,2.4-11.2,7.3-11.2,14.9l-1.2,4.7v4.1c0,12.8,4.5,20.9,13.6,24.4
		c4.5,2,7.9,2.9,10.1,2.9h7.7c11.2,0,24.5-7.1,39.8-21.3h1.2l1.2,1.2v4.2c2.8,7.9,7.4,11.9,13.6,11.9c0,0.8,3.2,1.2,9.6,1.2
		c6.4,0,10.1-1.2,11.2-3.6v-3l-0.6-0.6c0-9.5,4.3-18.2,13-26.1l3-0.6c5.5,2.1,8.3,7,8.3,14.9v0.6c0,2.7-1,7.3-3,13.7l4.7,1.2h4.2
		c3.5,0,6.3-1.4,8.3-4.2v-5.9l-10.7-98.4C304.1,109.8,305.4,106.7,308.2,103.8z M339.6,103.8h1.2l10,28.5l-1.2,1.8l-3.6-2.4h-1.2
		v1.2l8.3,80.6c0,10.8-1.4,19.1-4.1,24.9h-1.8l-0.6-3v-8.9c-1.2-18.7-5-56.6-11.3-113.8C337,106.8,338.4,103.8,339.6,103.8z
		 M187.2,108h1.8c3.5,2,5.3,4.5,5.3,7.7c-0.8,1.8-1.6,2.8-2.4,3c-3-2.4-5.1-3.6-6.5-3.6l-0.6,5.9v4.1l0.6,0.6l-0.6,0.6v3l0.6,0.6
		c-1.4,9.1-2.8,13.7-4.2,13.7h-0.6c-5.4-12.3-11.4-18.4-17.8-18.4c-2-1.8-3-4-3-6.5c0.9-2.4,1.7-3.6,2.4-3.6h1.2
		c3.4,0,9.2,4.9,17.2,14.8l1.2-8.3h-0.6C183.1,112.5,185.1,108,187.2,108z M383.5,108.6h0.6c2,0.8,3,3,3,6.6l-0.6,9.5l4.2,4.1
		c1.2,1.7,1.7,3.3,1.7,4.7c-0.6,1.6-1.2,2.4-1.7,2.4l-7.1-4.7c-13.3,12.8-23,19.5-29.1,20.2l-0.6-0.6h-0.6c0-1.1,6.3-5.9,19-14.2
		c4-3.3,5.9-5.9,5.9-7.7v-1.2c-2-2.4-2.9-4.7-2.9-7.1C376.4,112.5,379.2,108.6,383.5,108.6z M511,108.6c4,0,5.9,3,5.9,8.9l-1.2,1.2
		h-1.2l-4.1-3h-0.6c-2.7,0-4.1,1.6-4.1,4.7v6.6c0,11.8-1.2,18.3-3.6,19.5c-5.6-11.4-11.2-17.2-16.6-17.2c-3.2-2.6-4.7-4.8-4.7-6.6
		l1.2-4.7h1.7c3.9,0,9.8,5.3,17.8,16h0.6c0-15,2.8-23.5,8.3-25.5H511z M554.3,109.7c4,0.6,5.9,5.3,5.9,14.2v2.4
		c0,1.3,1.4,3.6,4.1,7.1l-0.6,3h-0.6c-1.3,0-2.7-0.6-4.1-1.8h-1.2c-1.5,0-5.7,3.4-12.5,10.1c-16.5,11.9-28,17.8-34.4,17.8v-1.2
		c14.5-7.5,28.2-16.8,41-27.9l0.6-1.7c-4-4.1-5.9-7.1-5.9-8.9v-1.2c0-3.5,2.4-7.4,7.1-11.9H554.3z M461.2,111.6h0.6v1.2h0.6
		c0,3.1-7.5,8.4-22.5,16l-31.4,19l-1.2-1.2v-2.9c7.1-6.3,21.5-15.2,43.2-26.7C456.5,113.3,460,111.6,461.2,111.6z M228.7,113.3
		c8.7,0,13,1,13,3v1.2c-4.4,8.9-9.9,14.4-16.6,16.6l-1.7,0.6l-0.6-0.6v-0.6l8.3-8.3V124h-0.6l-5.4-0.6l-10.7,2.4l-0.6-1.8
		c2.7-7.1,7.5-10.7,14.2-10.7H228.7z M378.8,117.5c0,3.2,1.6,4.7,4.7,4.7v-4.7l-1.8-1.8h-1.2L378.8,117.5z M135,116.3h0.6v0.6
		c-1.6,4.8-2.4,9.2-2.4,13c1.1,2.6,2.2,4.2,3.6,4.7h1.2c0.6,0,1.4-1.2,2.4-3.6h0.6l0.6,0.6v1.2c-1.5,6.3-3.1,9.5-4.7,9.5h-0.6
		c-4-2.1-5.9-5-5.9-8.9v-0.6C130.3,125.6,131.9,120,135,116.3z M550.1,121.1c2.3,2.4,4.5,3.6,6.6,3.6v-4.7l-1.2-2.4h-3.6
		C550.7,117.9,550.1,119,550.1,121.1z M297,119.2h2.9l0.6,1.8c0,2.8-6.5,6.4-19.6,10.7c-20.1,9.1-30.9,13.6-32.6,13.6l-0.6-0.6v-0.6
		c0-4,8.7-8.9,26.1-14.8L297,119.2z M467.7,147.1h1.2c-2,4.7-3,8.8-3,12.1s1.4,6,4.2,8h1.2c0.9,0,1.9-1.6,2.9-4.7h1.2
		c0,5.9-2,9.8-5.9,11.9c-3,0-5.1-3.6-6.5-10.7v-1.8C463,159.7,464.6,154.7,467.7,147.1z M391.2,151.3h1.2c0.9,0,3.9,2.8,8.9,8.3
		c0,2.4-1.8,5.1-5.4,8.3h-0.6l-7.7-5.9h-0.6c-0.9,0.2-2.7,2.8-5.4,7.7H380c-4.6-3.2-7.6-5.8-8.9-7.7v-0.6c0-2.6,1.8-5.4,5.4-8.3
		c4.3,3.2,7.3,4.7,8.9,4.7L391.2,151.3z M557.2,151.9v0.6l-2.9,9.5v2.4c0,3.3,1.4,5.2,4.1,5.9l3.6-2.9l0.6,0.6v0.6
		c-1.9,5.9-3.9,8.9-5.9,8.9c-3.6-1.6-5.4-5-5.4-10.2S553.3,156.9,557.2,151.9z M126.2,166.7c0.8,1.7,4.7,4.5,11.9,8.3
		c6.8,6.3,10.8,9.5,11.9,9.5c13.5-8.4,24.8-14.8,33.8-19v-1.7l-28.5-1.2h-9.5l-2.4,0.6l-0.6-0.6h-0.6
		C131.5,163.6,126.2,165,126.2,166.7z M283.3,163.1c6.3,2.6,9.5,5.3,9.5,8.3v0.6c-2.4,4.3-4.1,6.5-5.3,6.5c-3.9-1.5-6.9-3.7-8.9-6.5
		v-1.8C280.4,166.6,282,164.2,283.3,163.1z M426.8,163.7c8.3,8.2,12.5,12.9,12.5,14.2l-0.6,0.6h-4.1v1.8c6.3,9.8,9.5,17.1,9.5,21.9
		v5.9c0,7.6-5.3,15.7-16,24.4l-1.7,5.3c0,9.8,3.3,16.3,10,19.6l5.9,1.7h2.4c16.1,0,33.3-10.9,51.6-32.6l0.6-2.4v-0.6l-1.2-1.2H495
		l-14.9,1.8h-2.4c-7.1-1.3-10.7-3.7-10.7-7.1l-0.6-7.1c0-8.6,4.7-14.3,14.2-17.2c5.9,0.7,11.8,5.3,17.8,13.7l1.7,0.6l20.2-12.4h0.6
		l1.2,1.2v6.5c0,5.4,4.5,8.5,13.6,9.5h3c6.1,0,12-6.1,17.8-18.3l1.7-1.2h1.2c0,2.3-0.8,4.7-2.4,7.1v1.7c2.8,4.4,7.4,6.6,13.7,6.6
		h0.6c2,0,3.2-0.8,3.6-2.4l-2.9-7.1v-0.6l1.7-7.1h1.8c3.2,4,4.7,8.9,4.7,14.9c-1.7,9.9-5.6,14.8-11.9,14.8h-1.2
		c-3.4,0-8.2-2.8-14.2-8.3h-1.2c-4.9,7.9-10.4,11.9-16.6,11.9h-3c-7.1,0-12-4.7-14.8-14.2c0-0.8-0.6-1.2-1.8-1.2
		c-9.1,5.7-13.6,10.4-13.6,14.2c0,10.3-7.5,21.2-22.5,32.7c-11.9,10.6-23.5,16-35,16c-10.1,0-17.2-5.9-21.3-17.8l-0.6-7.7l0.6-6.6
		l-1.2-2.4c-25.3,17-43.3,25.5-53.9,25.5l-9.5,2.9l-0.6-0.6h-0.6c-7.3,2-12.3,2.9-14.9,2.9h-1.2v-0.6c1.4-1.9,11.5-6.2,30.3-13
		c25-12.3,45.4-25.1,61-38.6c4.4-4,6.6-6.7,6.6-8.3L425,177.3l-1.2-5.3C424.2,166.5,425.2,163.7,426.8,163.7z M241.8,164.9h2.4
		c3.6,2.2,6.4,4.5,8.3,7.1v1.2c0,2.4-1.6,4.7-4.7,7.1c-2.4-0.5-5.6-2.1-9.5-4.7h-0.6c-2.7,4-4.7,5.9-5.9,5.9
		c-6.7-3.4-10.1-6-10.1-7.7c0.9-3.5,2.9-6.3,5.9-8.3l7.1,4.7h0.6C236.9,170.2,239,168.5,241.8,164.9z M402.5,172h0.6v0.6
		c0,5.9-3.3,13.2-10,22v1.2c8.3,6,12.4,11.1,12.4,15.4c0,6.1-1.8,11.3-5.3,15.4c-6.2,5-11.6,8-16,8.9h-1.7c-6,0-8.9-3.7-8.9-11.2
		c0-5.4,2-12.9,5.9-22.5v-0.6c-10.6-9.8-16-15.7-16-17.8v-1.2c0.4-4.3,1.2-6.5,2.4-6.5h0.6l14.2,6.5v1.8c0,0.8-0.6,1.2-1.7,1.2v1.7
		l6.5,4.7C386.6,191.3,392.3,184.7,402.5,172z M203.3,186.8h0.6v0.6c-1.6,5.6-2.4,9.8-2.4,12.4v1.2c0,2.2,1,3.7,3,4.7h0.6l3-2.4h0.6
		v0.6c0,3.5-1.4,6.4-4.1,8.9h-1.8c-3.2-2-4.7-4.9-4.7-8.9v-3.6C199.9,192.5,201.7,187.9,203.3,186.8z M282.1,211.7v1.8
		c2.2,2.7,4.3,4.1,6.6,4.1c2.6-1.3,4.6-2.9,5.9-4.7v-2.4c0-3.1-1.4-5.5-4.2-7.1h-0.6C286.1,203.4,283.5,206.2,282.1,211.7z
		 M378.1,218.8c0,2.7,1.4,4.5,4.2,5.4c5,0,10.5-3.2,16.6-9.5v-1.2c-3.6-4-7.9-6.7-13-8.3C380.7,209.7,378.1,214.3,378.1,218.8z
		 M473.6,209.4c0,1.3,2.6,2.1,7.7,2.4l6.6-0.6V210c-2-3.2-5.2-4.7-9.5-4.7C476.6,205.9,475,207.3,473.6,209.4z M167.1,233.7v1.2h0.6
		c0,4.3-2,6.5-5.9,6.5c-7.4,3.9-16.1,7.5-26.1,10.7l-0.6-0.6v-3c0.4-2.1,10.9-7,31.5-14.8H167.1z M564.3,234.3h1.2
		c0.8,0,1.2,0.6,1.2,1.8c-1.8,7.9-4.7,11.9-8.9,11.9l-5.4-1.2l-5.3,3.6h-2.4l-8.3-2.4c-2,0-10.3,4.7-24.9,14.2l-7.7,1.2v-1.2
		c1.7,0,11-5.9,27.9-17.8c3.5-2,6.2-3,8.3-3l5.9,2.4h2.9c1.1-0.2,3.2-2.2,6.6-5.9c1.7,2.4,3.5,3.6,5.3,3.6
		C562,241.4,563.2,239,564.3,234.3z M326.6,236.1h1.2v0.6c-2,6.7-3,11.4-3,14.2c0.5,2.8,1.3,4.2,2.4,4.2h1.8l2.9-3l0.6,0.6h0.6
		c-1.4,6.3-3.8,9.5-7.1,9.5h-0.6c-2.8-1.8-4.2-4.4-4.2-7.7v-0.6C321.2,250.9,323,245,326.6,236.1z M235.8,236.6h0.6
		c-2.4,5.5-3.6,9.6-3.6,12.5c0,4.7,1.6,7.1,4.7,7.1l3.6-3.6h0.6v0.6c0,4.1-1.8,7.5-5.3,10.1h-2.4c-3.2-1.5-4.7-5.1-4.7-10.7
		C231.7,242,233.8,236.6,235.8,236.6z"/>
</g>
</svg>
