<?xml version="1.0" encoding="utf-8"?>
<!-- Generator: Adobe Illustrator 25.2.3, SVG Export Plug-In . SVG Version: 6.00 Build 0)  -->
<svg version="1.1" xmlns="http://www.w3.org/2000/svg" xmlns:xlink="http://www.w3.org/1999/xlink" x="0px" y="0px"
	 viewBox="0 0 700 395" style="enable-background:new 0 0 700 395;" xml:space="preserve">
<style type="text/css">
	.st0{fill:#000222;}
	.st1{fill:#FFFFFF;}
</style>
<g id="Layer_1">
	<rect class="st0" width="700" height="395"/>
</g>
<g id="Layer_3">
	<g>
		<path class="st1" d="M273.5,368.6l1.1,4.2c0.2,0.9,0.5,1.8,0.6,2.6h0.1c0.2-0.8,0.5-1.7,0.7-2.6l1.3-4.2h1.3l1.3,4.1
			c0.3,1,0.5,1.9,0.7,2.7h0.1c0.1-0.8,0.4-1.7,0.6-2.7l1.2-4.1h1.5l-2.7,8.2H280l-1.3-3.9c-0.3-0.9-0.5-1.7-0.7-2.7h0
			c-0.2,1-0.5,1.8-0.7,2.7l-1.3,3.9h-1.4l-2.5-8.2H273.5z"/>
		<path class="st1" d="M286.3,368.6l1.1,4.2c0.2,0.9,0.5,1.8,0.6,2.6h0.1c0.2-0.8,0.5-1.7,0.7-2.6l1.3-4.2h1.3l1.3,4.1
			c0.3,1,0.5,1.9,0.7,2.7h0.1c0.1-0.8,0.4-1.7,0.6-2.7l1.2-4.1h1.5l-2.7,8.2h-1.4l-1.3-3.9c-0.3-0.9-0.5-1.7-0.7-2.7h0
			c-0.2,1-0.5,1.8-0.7,2.7l-1.3,3.9h-1.4l-2.5-8.2H286.3z"/>
		<path class="st1" d="M299,368.6l1.1,4.2c0.2,0.9,0.5,1.8,0.6,2.6h0.1c0.2-0.8,0.5-1.7,0.7-2.6l1.3-4.2h1.3l1.3,4.1
			c0.3,1,0.5,1.9,0.7,2.7h0.1c0.1-0.8,0.4-1.7,0.6-2.7l1.2-4.1h1.5l-2.7,8.2h-1.4l-1.3-3.9c-0.3-0.9-0.5-1.7-0.7-2.7h0
			c-0.2,1-0.5,1.8-0.7,2.7l-1.3,3.9h-1.4l-2.5-8.2H299z"/>
		<path class="st1" d="M309.9,375.9c0-0.6,0.4-1.1,1-1.1c0.6,0,1,0.4,1,1.1c0,0.6-0.4,1.1-1,1.1C310.3,377,309.9,376.5,309.9,375.9z
			"/>
		<path class="st1" d="M313.5,375.3c0.4,0.3,1.2,0.6,2,0.6c1.1,0,1.6-0.5,1.6-1.2c0-0.7-0.4-1.1-1.5-1.5c-1.5-0.5-2.2-1.3-2.2-2.3
			c0-1.3,1.1-2.4,2.8-2.4c0.8,0,1.6,0.2,2,0.5l-0.4,1.1c-0.3-0.2-0.9-0.5-1.7-0.5c-0.9,0-1.4,0.5-1.4,1.1c0,0.7,0.5,1,1.6,1.4
			c1.4,0.5,2.2,1.3,2.2,2.5c0,1.4-1.1,2.5-3.1,2.5c-0.9,0-1.7-0.2-2.3-0.6L313.5,375.3z"/>
		<path class="st1" d="M327.4,374.6c0,0.9,0,1.6,0.1,2.2h-1.3l-0.1-1.3h0c-0.4,0.7-1.3,1.5-2.7,1.5c-1.3,0-2.8-0.7-2.8-3.6v-4.8h1.5
			v4.6c0,1.6,0.5,2.6,1.8,2.6c1,0,1.7-0.7,2-1.4c0.1-0.2,0.1-0.5,0.1-0.8v-5h1.5V374.6z"/>
		<path class="st1" d="M329.8,371.1c0-1,0-1.8-0.1-2.6h1.3l0.1,1.6h0.1c0.4-1.1,1.3-1.8,2.3-1.8c0.2,0,0.3,0,0.4,0.1v1.4
			c-0.2,0-0.3-0.1-0.5-0.1c-1.1,0-1.8,0.8-2,1.9c0,0.2-0.1,0.4-0.1,0.7v4.4h-1.5V371.1z"/>
		<path class="st1" d="M339.9,376.8l-0.1-1h-0.1c-0.5,0.6-1.3,1.2-2.5,1.2c-1.7,0-2.5-1.2-2.5-2.4c0-2,1.8-3.1,4.9-3.1v-0.2
			c0-0.7-0.2-1.9-1.9-1.9c-0.8,0-1.6,0.2-2.1,0.6l-0.3-1c0.7-0.4,1.7-0.7,2.7-0.7c2.5,0,3.1,1.7,3.1,3.4v3.1c0,0.7,0,1.4,0.1,2
			H339.9z M339.7,372.6c-1.6,0-3.5,0.3-3.5,1.9c0,1,0.6,1.4,1.4,1.4c1.1,0,1.8-0.7,2-1.4c0.1-0.2,0.1-0.3,0.1-0.5V372.6z"/>
		<path class="st1" d="M343.5,364.7h1.5v5.1h0c0.2-0.4,0.6-0.8,1.1-1.1c0.4-0.3,1-0.4,1.5-0.4c1.1,0,2.9,0.7,2.9,3.5v4.9H349v-4.7
			c0-1.3-0.5-2.4-1.9-2.4c-1,0-1.7,0.7-2,1.5c-0.1,0.2-0.1,0.4-0.1,0.7v5h-1.5V364.7z"/>
		<path class="st1" d="M358.6,375.5L358.6,375.5c-0.5,0.8-1.4,1.5-2.7,1.5c-1.9,0-3.5-1.7-3.5-4.2c0-3.1,2-4.4,3.7-4.4
			c1.3,0,2.1,0.6,2.5,1.4h0l0.1-1.2h1.4c0,0.7-0.1,1.4-0.1,2.3v9.3h-1.5V375.5z M358.6,371.9c0-0.2,0-0.4-0.1-0.6
			c-0.2-0.9-1-1.7-2.1-1.7c-1.5,0-2.5,1.3-2.5,3.2c0,1.6,0.8,3.1,2.4,3.1c1,0,1.8-0.6,2.1-1.6c0.1-0.2,0.1-0.5,0.1-0.7V371.9z"/>
		<path class="st1" d="M369.4,374.6c0,0.9,0,1.6,0.1,2.2h-1.3l-0.1-1.3h0c-0.4,0.7-1.3,1.5-2.7,1.5c-1.3,0-2.8-0.7-2.8-3.6v-4.8h1.5
			v4.6c0,1.6,0.5,2.6,1.8,2.6c1,0,1.7-0.7,2-1.4c0.1-0.2,0.1-0.5,0.1-0.8v-5h1.5V374.6z"/>
		<path class="st1" d="M371.9,371.1c0-1,0-1.8-0.1-2.6h1.3l0.1,1.6h0.1c0.4-1.1,1.3-1.8,2.3-1.8c0.2,0,0.3,0,0.4,0.1v1.4
			c-0.2,0-0.3-0.1-0.5-0.1c-1.1,0-1.8,0.8-2,1.9c0,0.2-0.1,0.4-0.1,0.7v4.4h-1.5V371.1z"/>
		<path class="st1" d="M381.9,376.8l-0.1-1h-0.1c-0.5,0.6-1.3,1.2-2.5,1.2c-1.7,0-2.5-1.2-2.5-2.4c0-2,1.8-3.1,4.9-3.1v-0.2
			c0-0.7-0.2-1.9-1.9-1.9c-0.8,0-1.6,0.2-2.1,0.6l-0.3-1c0.7-0.4,1.7-0.7,2.7-0.7c2.5,0,3.1,1.7,3.1,3.4v3.1c0,0.7,0,1.4,0.1,2
			H381.9z M381.7,372.6c-1.6,0-3.5,0.3-3.5,1.9c0,1,0.6,1.4,1.4,1.4c1.1,0,1.8-0.7,2-1.4c0.1-0.2,0.1-0.3,0.1-0.5V372.6z"/>
		<path class="st1" d="M385.6,370.8c0-0.9,0-1.5-0.1-2.2h1.3l0.1,1.4h0c0.4-0.8,1.4-1.5,2.7-1.5c1.1,0,2.9,0.7,2.9,3.5v4.9h-1.5
			v-4.7c0-1.3-0.5-2.4-1.9-2.4c-1,0-1.8,0.7-2,1.5c-0.1,0.2-0.1,0.4-0.1,0.7v4.9h-1.5V370.8z"/>
		<path class="st1" d="M394.6,375.9c0-0.6,0.4-1.1,1-1.1c0.6,0,1,0.4,1,1.1c0,0.6-0.4,1.1-1,1.1C395,377,394.6,376.5,394.6,375.9z"
			/>
		<path class="st1" d="M404.4,376.5c-0.4,0.2-1.3,0.5-2.4,0.5c-2.5,0-4.1-1.7-4.1-4.2c0-2.5,1.7-4.4,4.4-4.4c0.9,0,1.7,0.2,2.1,0.4
			l-0.3,1.2c-0.4-0.2-0.9-0.4-1.7-0.4c-1.9,0-2.9,1.4-2.9,3.1c0,1.9,1.2,3.1,2.9,3.1c0.8,0,1.4-0.2,1.8-0.4L404.4,376.5z"/>
		<path class="st1" d="M413.5,372.6c0,3-2.1,4.4-4.1,4.4c-2.2,0-3.9-1.6-3.9-4.2c0-2.8,1.8-4.4,4.1-4.4
			C411.9,368.4,413.5,370.1,413.5,372.6z M406.9,372.7c0,1.8,1,3.2,2.5,3.2c1.4,0,2.5-1.3,2.5-3.2c0-1.4-0.7-3.2-2.5-3.2
			S406.9,371.1,406.9,372.7z"/>
		<path class="st1" d="M415.4,370.8c0-0.9,0-1.5-0.1-2.2h1.3l0.1,1.3h0.1c0.5-0.8,1.2-1.5,2.6-1.5c1.1,0,2,0.7,2.3,1.6h0
			c0.3-0.5,0.6-0.8,0.9-1.1c0.5-0.4,1-0.6,1.8-0.6c1.1,0,2.7,0.7,2.7,3.6v4.8h-1.5v-4.7c0-1.6-0.6-2.5-1.8-2.5
			c-0.9,0-1.5,0.6-1.8,1.4c-0.1,0.2-0.1,0.5-0.1,0.7v5.1h-1.5v-4.9c0-1.3-0.6-2.3-1.7-2.3c-0.9,0-1.6,0.7-1.9,1.5
			c-0.1,0.2-0.1,0.5-0.1,0.7v5h-1.5V370.8z"/>
	</g>
</g>
<g id="Layer_4">
	<path class="st1" d="M568.2,106.1c1.8,0,3.5,2.3,5,6.8c-0.6,2.5-1.2,3.7-1.8,3.7h-0.7l-3.7-3.1h-3.1c-1.7,0-2.5,3.3-2.5,9.9
		l0.6,0.6c-0.9,14.5-2.4,21.7-4.3,21.7c-5.8-12-11.6-18-17.4-18c-3-2.4-4.7-4.4-5-6.2c0.7-3.7,2-5.5,3.7-5.5
		c3.5,0.7,9.5,6.2,17.9,16.7h0.7l0.6-3.1v-2.5C558.3,114.8,561.6,107.7,568.2,106.1z M434.3,107.3c2.1,1.8,3.1,4.3,3.1,7.4l-0.7,8.7
		l6.2,8.7c-0.6,2-1.2,3.1-1.8,3.1h-0.7c-3.3-2.5-5.8-3.7-7.4-3.7c-10.3,10.6-20.2,17.8-29.8,21.7l-1.2-1.2v-0.7
		c14.9-10.3,23.8-17.5,26.7-21.7v-1.9c-2.5-3.1-3.7-6-3.7-8.7C426.7,111.2,429.8,107.3,434.3,107.3z M612.3,107.3
		c4.5,0,6.8,6.4,6.8,19.2c2.5,2.3,3.7,4.4,3.7,6.2l-1.2,2.5c-2.5-1.7-4.3-2.5-5.5-2.5h-1.2c-19.6,18-33.5,27.7-41.6,29.2l-5,1.2
		h-0.6c0.6-1.3,10.3-7.9,29.1-19.8c9.5-6.9,14.3-11.5,14.3-13.6c-4.6-3.7-6.9-6.6-6.9-8.7C606.3,111.9,609,107.3,612.3,107.3z
		 M278.1,107.9c2.4,0,4.7,3.3,6.9,9.9L283,129l6.2,9.3l-1.2,5.5h-1.2l-6.2-5h-1.2c-14.4,15.6-29.9,27.2-46.5,34.7l-0.7-0.6v-0.7
		c4-3.8,12.9-10.6,26.7-20.4c9.9-8,15-13.2,15.5-15.5c-3.7-4.4-6-8.5-6.8-12.4C269.2,113.3,272.7,107.9,278.1,107.9z M332.1,107.9
		h0.6l14.3,28.5c-0.7,1.7-1.3,2.5-1.9,2.5l-4.3-3.7h-1.2l9.3,55.8v3.7l-0.6,18.6c12.8,2.9,24.4,4.4,34.7,4.4l1.2-2.5
		c-1.7-15.4-6.4-47.7-14.3-96.7c1.3-6.2,2.5-9.3,3.7-9.3h1.9c5.8,11.7,9.7,20.8,11.7,27.3v1.2l-1.2,1.2c-2.6-2.5-4.4-3.7-5.5-3.7
		v0.7l13,81.8l0.7,0.6h11.7c3.1,0,4.7,0.8,5,2.5c-1.8,6.2-4.5,9.3-8,9.3h-6.9l-1.8,1.8v6.2c-0.4,11-2.1,17.6-5,19.8l-1.2-1.2v-7.4
		c0-11.4-1-17.6-3.1-18.6c-7.9,0-25,6.4-51.4,19.3c-14.2,5.3-25,8-32.2,8h-3.7c-12.7,0-20.7-6.4-24.2-19.2l-0.6-6.2l1.2-11.8h-1.9
		l-25.4,13.1l-1.2,5h-1.9l-2.5-1.9h-1.8c-10.4,2.7-21.7,9.9-34.1,21.7l-21.1,24.8c-5.6,3.7-9.9,5.5-13,5.5h-3.1
		c-6.4,0-11.8-5.4-16.1-16.1l-0.6-3.1c0-4.4,1-12.4,3.1-24.2l-0.6-0.6h-1.9c-18.4,9.1-35.3,13.6-50.8,13.6l-2.5,0.6
		c-18,0-30-5.4-36-16.1c-1.2-2.7-1.8-6.1-1.8-10.1c0-4,1.7-11.2,5-21.5c-3.7-7.3-5.6-12.2-5.6-14.9c1.3-13.4,3.3-23.5,6.2-30.4h1.2
		v3.7c-2.5,10.6-3.7,18.1-3.7,22.3c1.9,5.8,3.6,8.7,5,8.7h1.2l4.4-4.3h0.6l0.7,3.1c-1,4.1-3.7,9.1-8.1,14.9
		c-1.2,4.8-1.8,8.9-1.8,12.4c0,10.8,9.3,17.6,27.9,20.5c24.4,0,47.1-6.2,68.2-18.6l1.9-2.5v-3.1l-8.7-13.6l1.8-7.4
		c7.9,3.2,11.8,9.8,11.8,19.8v0.7c0,7-2.9,13.4-8.7,19.2c-3.3,8.2-5,15.2-5,21.1v3.7c0,6.6,3.1,10.7,9.3,12.4h3.1
		c7.6,0,17.9-9.1,31-27.3c9.2-10,20-17.8,32.2-23.6v-0.6c0-1.9-4.8-7.1-14.3-15.5l-1.8-6.2c0-13.2,11.4-19.8,34.1-19.8l6.2,0.7V186
		c32.7,3.8,49,6.9,49,9.3c0,7.1-4.1,12-12.4,14.9l-11.8,7.4c-1.2,1.5-1.8,2.9-1.8,4.3v7.4c2.5,10.7,9.6,16.1,21.1,16.1h7.4
		c9,0,24.9-5.6,47.7-16.7v-0.7c0-1.3-11.8-3.4-35.3-6.2l-9.3,1.2l-1.8-0.6v-1.2c0-6.9,4.7-10.8,14.2-11.8
		c14.1-0.7,21.1-2.5,21.1-5.5v-2.5l-14.2-86.8C330.1,110.2,331.3,107.9,332.1,107.9z M514.9,109.1l1.2,1.9c0,3.3-8.3,9-24.8,17.4
		c-0.2,0.7-10.5,6.9-31,18.6h-1.2v-1.9c0-3.2,7-8.3,21.1-15.5C501,116.7,512.6,109.8,514.9,109.1z M166.5,113.5l6.2,10.5
		c5,8.7,7.4,14.4,7.4,17.4v0.7h-1.8c-1.9-1.7-3.3-2.5-4.4-2.5v0.6c0,2.9,4.4,26.8,13.1,71.9l1.8,14.9c-0.9,14.5-2.2,21.7-3.7,21.7
		c-0.8,0-2.1-8.7-3.7-26c-6.6-33.3-12.6-66.2-17.9-98.6l-0.7-0.6C162.8,119.8,164,116.5,166.5,113.5z M204.9,113.5l-1.2,9.9
		c0,3.1,1,5.2,3.1,6.2h0.6l3.1-2.5h0.6v0.6c0,4.5-1.7,7.4-5,8.7c-2.8,0-4.7-3.3-5.5-9.9C202.3,117.8,203.7,113.5,204.9,113.5z
		 M428.8,118.5l3.7,3.1h1.2v-5c0-1-0.8-1.7-2.5-1.8C429.6,115.1,428.8,116.4,428.8,118.5z M608.6,116v1.2c0,2.9,2.1,4.7,6.2,5.5
		l0.6-0.6v-2.5c0-2.3-1-3.9-3.1-5h-2.5L608.6,116z M113.2,116.6c5,1.4,7.4,4.1,7.4,8.1l-1.8,2.5h-1.2l-3.7-2.5h-1.9
		c-1.2,0-1.8,3.7-1.8,11.2v2.5l0.6,0.6l-2.5,11.2h-0.6c-0.6,0-2.5-3.1-5.6-9.3c-3.9-4.6-6.5-6.9-8-6.9c-5.1,9.5-12.7,16.4-23,20.5
		v-0.7c12.2-11.2,18.4-17.4,18.6-18.6v-1.2l-2.5-7.4c0.1-2.1,0.9-3.8,2.5-5c3.3,0.6,8.8,5.4,16.8,14.3
		C108.4,123,110.7,116.6,113.2,116.6z M271.9,120.3v1.2c3.1,3.7,5.8,5.6,8.1,5.6l0.6-0.7v-1.8c0-5-1.7-7.4-5-7.4
		C273.9,117.8,272.7,118.8,271.9,120.3z M254.5,125.9h0.7l1.2,1.2v1.2c0,3.1-3.7,5.6-11.2,7.4c-16.7,8.8-35.3,19.5-55.8,32.2h-0.7
		l-0.6-0.7v-0.6c0-4,3.1-7.3,9.3-9.9C210.4,147.8,229.4,137.5,254.5,125.9z M314.7,130.2h2.5c2,0.7,3.1,3.4,3.1,8.1v6.8
		c3.7,4.1,5.6,7.2,5.6,9.3l-1.9,2.5h-1.2l-3.7-2.5h-1.2c-11.4,12-21.5,19.5-30.3,22.3v-0.7l25.4-22.3l1.2-2.5
		c-4.1-4.5-6.2-7.6-6.2-9.3v-1.2C307.8,136.4,310.1,132.9,314.7,130.2z M312.2,138.9v1.2l2.5,2.5h2.5v-1.8c0-2.1-0.6-3.4-1.9-3.7
		H314L312.2,138.9z M146.6,146.3h1.2v0.7l-2.5,14.9h0.7l-0.7,0.6v6.2c1.5,6.2,3.4,9.3,5.6,9.3c1.2,0,2.5-1.9,3.7-5.6h1.2v0.7
		c0,9.5-2.5,14.2-7.4,14.2c-4.6-2.9-6.9-7.9-6.9-15.2S143.3,156.2,146.6,146.3z M523,147v0.6l-1.2,1.2v-0.6L523,147z M521.1,148.8
		h0.7v2.5l-1.2,5.6v3.1c0.8,5.4,2.1,8.1,3.7,8.1h1.8c1.1,0,1.9-1.5,2.5-4.4h0.7c0.8,0,1.2,0.6,1.2,1.9c-1.9,6.6-3.8,9.9-5.6,9.9
		c-4.4,0-6.8-3.9-7.4-11.8C517.4,160.6,518.6,155.6,521.1,148.8z M615.4,152v1.2l-2.5,8v4.4c0.8,3.7,1.9,5.5,3.1,5.5h1.2l3.7-3.1
		v1.2c-1.4,5.8-3.3,8.7-5.6,8.7c-3.7,0-5.5-3.5-5.5-10.6C609.8,163,611.7,157.8,615.4,152z M441.8,152.5h1.9
		c5.8,4.5,8.7,7.6,8.7,9.3c-0.6,2.3-2.3,4.8-5,7.4c-1.3,0-4.4-1.9-9.3-5.6h-0.6l-5.6,7.4H430c-5.8-3.7-8.7-6.4-8.7-8
		c1.5-4.7,3.1-7.4,5-8.1l8.7,4.4h1.2L441.8,152.5z M110.7,163.7v1.2l-2.5,9.9v1.2c0,3.1,1,5.4,3.1,6.9h1.2l2.5-1.9l1.2,1.2
		c0,3.4-1.2,6.1-3.7,8.1h-2.5c-3.3-2.5-5-5.6-5-9.3v-2.5C106.9,170.2,108.8,165.3,110.7,163.7z M478.4,164.9h0.6
		c8.7,7.9,13.1,12.8,13.1,14.9l-0.7,0.7h-3.7v1.8c7.1,10.9,10.6,18.8,10.6,23.6c0,12.5-4.5,21.4-13.6,26.7c-3.3,1.9-5,6.6-5,14.1
		s4.1,13.2,12.4,16.9l6.8,1.2c15.9,0,33.9-11.6,54-34.7v-3.7l-1.2-1.2c-7.5,1.7-13.9,2.5-19.3,2.5c-6,0-9.7-3.9-11.2-11.8v-1.2
		c0-10.3,5-16.7,14.9-19.2c5.2,0,11.7,4.7,19.3,14.2c3.4,0,10.2-4.1,20.4-12.4h1.2v-0.6l2.5,1.8v3.1c0,8.7,4.4,13,13.1,13h1.8
		c8.3,0,15.3-6.2,21.1-18.6l2.5-1.8h0.7l-1.9,9.3c2.3,4.1,6.4,6.2,12.4,6.2h3.7l1.9-1.8c0-1.4-1-3.7-3.1-6.9l1.9-9.3h1.8
		c1.9,0,3.5,4.7,5,14.2c0,11.2-4.7,16.8-14.2,16.8c-4.7-0.7-9.5-3.6-14.3-8.7c-6.6,8.3-12.8,12.4-18.6,12.4H590
		c-6.8,0-11.8-4.1-14.9-12.4l-0.7-2.5h-0.6c-1.5,0-4.8,2.1-9.9,6.2c-3.3,0-5.4,5.2-6.2,15.5c-9.4,17.7-24.9,31.6-46.5,41.6l-9.9,1.8
		h-3.1c-12.6,0-20-8.3-22.3-24.8v-10.5h-1.2c-27.7,18.6-47.3,27.9-58.9,27.9l-23.6,5.6l-0.6-0.7v-0.6c0.5-1.7,9.4-5.6,26.6-11.8
		c27.9-13.7,51.9-29,71.9-45.9c1.7-1.7,2.5-3.4,2.5-5.1c0-1.7-4.1-10.5-12.4-26.5l-3.7-10.6L478.4,164.9z M452.9,174.3h1.9v0.6
		c-1.3,7.2-3.6,12.8-6.9,16.8c-0.7,0-1.9,1.7-3.7,5v1.8c8.3,6.4,12.4,12,12.4,16.8c0,10.2-4.7,17.4-14.2,21.7
		c0,1.4-3.5,2.4-10.6,3.1c-4.1,0-6.8-3.5-8-10.6c0-7.4,2.1-14.9,6.2-22.3v-1.8c-10.7-10.9-16.1-16.9-16.1-18v-5.5l0.6-3.1
		c11.2,3.4,16.8,5.9,16.8,7.4v0.7c0,0.8-0.6,1.2-1.9,1.2v1.8l6.2,5h1.9L452.9,174.3z M221,203.4v1.2l19.3,17.4h1.8
		c4.4,0,17.8-6.2,40.3-18.6v-1.2c-10.6-2-23-3.5-37.2-4.3l-0.7,0.6H244l-0.7-0.6h-0.6C228.3,198.8,221,200.6,221,203.4z
		 M124.3,200.3c5.8,3.7,8.7,6.8,8.7,9.5s-1.4,5-4.3,7.2c-1.7,0-4.5-1.7-8.7-5h-1.2l-6.2,6.9h-1.2c-6.2-3.8-9.3-6.3-9.3-7.4
		c2.1-5.4,4-8.1,5.6-8.1l8.7,3.7h0.6c1-0.2,2.5-2.3,4.4-6.2l0.6-0.6H124.3z M529.2,211.5v1.2c0,1.3,2.9,2.1,8.7,2.5
		c3.3-0.4,5-1.1,5-1.9v-0.6c-2.4-2.9-4.7-4.4-6.9-4.4C531.5,209.1,529.2,210.1,529.2,211.5z M435.6,209c-4.5,5.7-6.8,10.9-6.8,15.5
		v0.7c1,2,2.7,3.1,5,3.1c5.6,0,11.2-3.1,16.7-9.3C450.4,215.2,445.5,211.9,435.6,209z M624,237.5h0.7l1.2,1.2
		c-1.8,8.7-4.7,13-8.7,13l-5-1.2h-0.7c-3.1,2.5-6.4,3.7-9.9,3.7c-2.3-1.7-4.6-2.5-6.9-2.5s-10.1,4.5-23.4,13.6
		c-3.7,1.7-7.1,2.5-9.9,2.5c19-13.8,31-21.4,36-22.9l9.3,3.1c2.4,0,4.7-2.3,6.9-6.8h1.8c0,2.5,1.9,3.7,5.6,3.7L624,237.5z
		 M355,251.2c2.1,0.4,3.6,1.2,4.4,2.5c0,1.4-4.1,6.6-12.4,15.5v0.7l1.8,1.8h5c3.2,0,9-2.7,17.4-8h0.7l0.6,0.6v0.7
		c-8.8,9.5-16.2,14.2-22.3,14.2c-5-0.9-7.4-2.4-7.4-4.3c1.3-4.5,4-9.5,8.1-14.9v-1.2H350l-6.8,1.2v-2.5
		C345.5,253.2,349.4,251.2,355,251.2z M226.7,255.4h0.6c-1.2,2.8-1.8,5.6-1.8,8.7v1.9c0,4.5,1.7,6.8,5,6.8l1.2-2.5h1.8
		c0,4-1.7,7.1-5,9.3h-1.8c-2.9-1.9-4.4-5.5-4.4-10.6C223.7,260,225.2,255.4,226.7,255.4z M253.3,255.4h0.7c5.1,3.2,8.4,5.9,9.9,8.1
		v0.6c0,3.7-1.5,6.6-4.4,8.7h-1.2c-6.3-4.4-9.6-7.5-9.9-9.3C248.3,261.1,250,258.4,253.3,255.4z M138,261.6l0.7,1.9
		c0,3.6-5.4,6.7-16.1,9.3c-0.6,1-9.2,4.8-26,11.2c-4.1,2.1-7.4,3.1-9.9,3.1h-0.7v-1.9c0.1-2.6,15.6-9.8,46.5-21.7
		C132.4,262.6,134.3,262,138,261.6z"/>
</g>
</svg>
