<?xml version="1.0" encoding="utf-8"?>
<!-- Generator: Adobe Illustrator 25.2.3, SVG Export Plug-In . SVG Version: 6.00 Build 0)  -->
<svg version="1.1" id="Layer_1" xmlns="http://www.w3.org/2000/svg" xmlns:xlink="http://www.w3.org/1999/xlink" x="0px" y="0px"
	 viewBox="0 0 700 395" style="enable-background:new 0 0 700 395;" xml:space="preserve">
<style type="text/css">
	.st0{fill:#000222;}
	.st1{fill:#FFFFFF;}
</style>
<g id="Layer_1_1_">
	<rect y="-0.5" class="st0" width="700" height="395"/>
</g>
<g id="Layer_3">
	<g>
		<path class="st1" d="M273.5,368.6l1.1,4.2c0.2,0.9,0.5,1.8,0.6,2.6h0.1c0.2-0.8,0.5-1.7,0.7-2.6l1.3-4.2h1.3l1.3,4.1
			c0.3,1,0.5,1.9,0.7,2.7h0.1c0.1-0.8,0.4-1.7,0.6-2.7l1.2-4.1h1.5l-2.7,8.2H280l-1.3-3.9c-0.3-0.9-0.5-1.7-0.7-2.7l0,0
			c-0.2,1-0.5,1.8-0.7,2.7l-1.3,3.9h-1.4l-2.5-8.2H273.5z"/>
		<path class="st1" d="M286.3,368.6l1.1,4.2c0.2,0.9,0.5,1.8,0.6,2.6h0.1c0.2-0.8,0.5-1.7,0.7-2.6l1.3-4.2h1.3l1.3,4.1
			c0.3,1,0.5,1.9,0.7,2.7h0.1c0.1-0.8,0.4-1.7,0.6-2.7l1.2-4.1h1.5l-2.7,8.2h-1.4l-1.3-3.9c-0.3-0.9-0.5-1.7-0.7-2.7l0,0
			c-0.2,1-0.5,1.8-0.7,2.7l-1.3,3.9h-1.4l-2.5-8.2H286.3z"/>
		<path class="st1" d="M299,368.6l1.1,4.2c0.2,0.9,0.5,1.8,0.6,2.6h0.1c0.2-0.8,0.5-1.7,0.7-2.6l1.3-4.2h1.3l1.3,4.1
			c0.3,1,0.5,1.9,0.7,2.7h0.1c0.1-0.8,0.4-1.7,0.6-2.7l1.2-4.1h1.5l-2.7,8.2h-1.4l-1.3-3.9c-0.3-0.9-0.5-1.7-0.7-2.7l0,0
			c-0.2,1-0.5,1.8-0.7,2.7l-1.3,3.9H300l-2.5-8.2H299z"/>
		<path class="st1" d="M309.9,375.9c0-0.6,0.4-1.1,1-1.1s1,0.4,1,1.1c0,0.6-0.4,1.1-1,1.1S309.9,376.5,309.9,375.9z"/>
		<path class="st1" d="M313.5,375.3c0.4,0.3,1.2,0.6,2,0.6c1.1,0,1.6-0.5,1.6-1.2s-0.4-1.1-1.5-1.5c-1.5-0.5-2.2-1.3-2.2-2.3
			c0-1.3,1.1-2.4,2.8-2.4c0.8,0,1.6,0.2,2,0.5l-0.4,1.1c-0.3-0.2-0.9-0.5-1.7-0.5c-0.9,0-1.4,0.5-1.4,1.1c0,0.7,0.5,1,1.6,1.4
			c1.4,0.5,2.2,1.3,2.2,2.5c0,1.4-1.1,2.5-3.1,2.5c-0.9,0-1.7-0.2-2.3-0.6L313.5,375.3z"/>
		<path class="st1" d="M327.4,374.6c0,0.9,0,1.6,0.1,2.2h-1.3l-0.1-1.3l0,0c-0.4,0.7-1.3,1.5-2.7,1.5c-1.3,0-2.8-0.7-2.8-3.6v-4.8
			h1.5v4.6c0,1.6,0.5,2.6,1.8,2.6c1,0,1.7-0.7,2-1.4c0.1-0.2,0.1-0.5,0.1-0.8v-5h1.5v6H327.4z"/>
		<path class="st1" d="M329.8,371.1c0-1,0-1.8-0.1-2.6h1.3l0.1,1.6h0.1c0.4-1.1,1.3-1.8,2.3-1.8c0.2,0,0.3,0,0.4,0.1v1.4
			c-0.2,0-0.3-0.1-0.5-0.1c-1.1,0-1.8,0.8-2,1.9c0,0.2-0.1,0.4-0.1,0.7v4.4h-1.5L329.8,371.1L329.8,371.1z"/>
		<path class="st1" d="M339.9,376.8l-0.1-1h-0.1c-0.5,0.6-1.3,1.2-2.5,1.2c-1.7,0-2.5-1.2-2.5-2.4c0-2,1.8-3.1,4.9-3.1v-0.2
			c0-0.7-0.2-1.9-1.9-1.9c-0.8,0-1.6,0.2-2.1,0.6l-0.3-1c0.7-0.4,1.7-0.7,2.7-0.7c2.5,0,3.1,1.7,3.1,3.4v3.1c0,0.7,0,1.4,0.1,2
			H339.9z M339.7,372.6c-1.6,0-3.5,0.3-3.5,1.9c0,1,0.6,1.4,1.4,1.4c1.1,0,1.8-0.7,2-1.4c0.1-0.2,0.1-0.3,0.1-0.5V372.6z"/>
		<path class="st1" d="M343.5,364.7h1.5v5.1l0,0c0.2-0.4,0.6-0.8,1.1-1.1c0.4-0.3,1-0.4,1.5-0.4c1.1,0,2.9,0.7,2.9,3.5v4.9H349V372
			c0-1.3-0.5-2.4-1.9-2.4c-1,0-1.7,0.7-2,1.5c-0.1,0.2-0.1,0.4-0.1,0.7v5h-1.5V364.7z"/>
		<path class="st1" d="M358.6,375.5L358.6,375.5c-0.5,0.8-1.4,1.5-2.7,1.5c-1.9,0-3.5-1.7-3.5-4.2c0-3.1,2-4.4,3.7-4.4
			c1.3,0,2.1,0.6,2.5,1.4l0,0l0.1-1.2h1.4c0,0.7-0.1,1.4-0.1,2.3v9.3h-1.5v-4.7H358.6z M358.6,371.9c0-0.2,0-0.4-0.1-0.6
			c-0.2-0.9-1-1.7-2.1-1.7c-1.5,0-2.5,1.3-2.5,3.2c0,1.6,0.8,3.1,2.4,3.1c1,0,1.8-0.6,2.1-1.6c0.1-0.2,0.1-0.5,0.1-0.7v-1.7H358.6z"
			/>
		<path class="st1" d="M369.4,374.6c0,0.9,0,1.6,0.1,2.2h-1.3l-0.1-1.3l0,0c-0.4,0.7-1.3,1.5-2.7,1.5c-1.3,0-2.8-0.7-2.8-3.6v-4.8
			h1.5v4.6c0,1.6,0.5,2.6,1.8,2.6c1,0,1.7-0.7,2-1.4c0.1-0.2,0.1-0.5,0.1-0.8v-5h1.5v6H369.4z"/>
		<path class="st1" d="M371.9,371.1c0-1,0-1.8-0.1-2.6h1.3l0.1,1.6h0.1c0.4-1.1,1.3-1.8,2.3-1.8c0.2,0,0.3,0,0.4,0.1v1.4
			c-0.2,0-0.3-0.1-0.5-0.1c-1.1,0-1.8,0.8-2,1.9c0,0.2-0.1,0.4-0.1,0.7v4.4h-1.5L371.9,371.1L371.9,371.1z"/>
		<path class="st1" d="M381.9,376.8l-0.1-1h-0.1c-0.5,0.6-1.3,1.2-2.5,1.2c-1.7,0-2.5-1.2-2.5-2.4c0-2,1.8-3.1,4.9-3.1v-0.2
			c0-0.7-0.2-1.9-1.9-1.9c-0.8,0-1.6,0.2-2.1,0.6l-0.3-1c0.7-0.4,1.7-0.7,2.7-0.7c2.5,0,3.1,1.7,3.1,3.4v3.1c0,0.7,0,1.4,0.1,2
			H381.9z M381.7,372.6c-1.6,0-3.5,0.3-3.5,1.9c0,1,0.6,1.4,1.4,1.4c1.1,0,1.8-0.7,2-1.4c0.1-0.2,0.1-0.3,0.1-0.5V372.6z"/>
		<path class="st1" d="M385.6,370.8c0-0.9,0-1.5-0.1-2.2h1.3l0.1,1.4l0,0c0.4-0.8,1.4-1.5,2.7-1.5c1.1,0,2.9,0.7,2.9,3.5v4.9H391
			v-4.7c0-1.3-0.5-2.4-1.9-2.4c-1,0-1.8,0.7-2,1.5c-0.1,0.2-0.1,0.4-0.1,0.7v4.9h-1.5v-6.1H385.6z"/>
		<path class="st1" d="M394.6,375.9c0-0.6,0.4-1.1,1-1.1s1,0.4,1,1.1c0,0.6-0.4,1.1-1,1.1S394.6,376.5,394.6,375.9z"/>
		<path class="st1" d="M404.4,376.5c-0.4,0.2-1.3,0.5-2.4,0.5c-2.5,0-4.1-1.7-4.1-4.2s1.7-4.4,4.4-4.4c0.9,0,1.7,0.2,2.1,0.4
			l-0.3,1.2c-0.4-0.2-0.9-0.4-1.7-0.4c-1.9,0-2.9,1.4-2.9,3.1c0,1.9,1.2,3.1,2.9,3.1c0.8,0,1.4-0.2,1.8-0.4L404.4,376.5z"/>
		<path class="st1" d="M413.5,372.6c0,3-2.1,4.4-4.1,4.4c-2.2,0-3.9-1.6-3.9-4.2c0-2.8,1.8-4.4,4.1-4.4
			C411.9,368.4,413.5,370.1,413.5,372.6z M406.9,372.7c0,1.8,1,3.2,2.5,3.2c1.4,0,2.5-1.3,2.5-3.2c0-1.4-0.7-3.2-2.5-3.2
			S406.9,371.1,406.9,372.7z"/>
		<path class="st1" d="M415.4,370.8c0-0.9,0-1.5-0.1-2.2h1.3l0.1,1.3h0.1c0.5-0.8,1.2-1.5,2.6-1.5c1.1,0,2,0.7,2.3,1.6l0,0
			c0.3-0.5,0.6-0.8,0.9-1.1c0.5-0.4,1-0.6,1.8-0.6c1.1,0,2.7,0.7,2.7,3.6v4.8h-1.5V372c0-1.6-0.6-2.5-1.8-2.5
			c-0.9,0-1.5,0.6-1.8,1.4c-0.1,0.2-0.1,0.5-0.1,0.7v5.1h-1.5v-4.9c0-1.3-0.6-2.3-1.7-2.3c-0.9,0-1.6,0.7-1.9,1.5
			c-0.1,0.2-0.1,0.5-0.1,0.7v5h-1.5v-5.9H415.4z"/>
	</g>
	<path class="st1" d="M543.2,106.8c4.2,1.7,6.3,4.4,6.3,8.2c-0.6,2.1-1.2,3.2-1.9,3.2h-1.3c-2.8-2.5-5.1-3.8-7-3.8
		c-1.7,1.7-2.5,3.9-2.5,6.3v5.7c-0.6,15.2-1.8,22.8-3.8,22.8h-1.3c-5.2-12.7-10.9-19-17.1-19c-3.3-2.5-5.2-4.9-5.8-6.9
		c0.5-3.8,1.7-5.8,3.8-5.8c4.2,0,10.5,5.9,19,17.8h0.7c0.2-16.8,3.2-26.1,8.9-27.9L543.2,106.8z M345.2,108h1.3
		c1.1,0.1,5.3,9,12.7,26.6l1.3,5.7v1.9h-0.6l-4.5-3.2h-1.3v0.7l12.1,92v19c-0.5,9.9-1.7,14.9-3.8,15.2h-0.7
		c-0.3-2.9-0.7-4.4-1.3-4.4l0.7-0.7c0-10-5.9-57-17.8-140.9l-0.7-1.9H342L345.2,108z M401.1,108c2.4,0,3.9,2.3,4.5,6.9v0.7
		l-0.7,10.7c4.7,3.6,7,6.5,7,8.8s-0.6,3.6-1.9,3.9l-6.9-4.4h-2.5c-11.8,12.5-22.4,20.1-31.7,22.8h-1.3v-1.3l24.7-18.4
		c3-3.2,4.5-5.5,4.5-6.9c-3-4.4-4.5-7.6-4.5-9.6C392.2,114.9,395.1,110.5,401.1,108z M589.5,108h2.5c2.5,0,4.4,6.8,5.7,20.3
		c2.5,2.1,3.8,4.4,3.8,6.9c-0.6,1.7-1.2,2.5-1.9,2.5c-2.5-1.7-4.9-2.5-7-2.5c-16.2,17.1-32.7,27.9-49.5,32.4l-0.6-0.7v-0.6
		c17.7-9.7,32.9-20.5,45.7-32.4l0.6-2.5c-4-3.3-6.3-6.5-6.9-9.5c1.9-8.9,4.2-13.4,6.9-13.4L589.5,108z M262.7,109.3h0.7l-1.9,8.9
		c0.7,5.5,1.8,8.2,3.2,8.2h1.3l2.5-1.9h0.6v0.6c0,3.9-1.5,7.1-4.4,9.6h-1.9c-1.9,0-3.3-3-4.4-8.9C258.3,120,259.8,114.5,262.7,109.3
		z M305.9,109.3h1.3c9.8,16.4,14.6,26.6,14.6,30.5l-0.7,1.9h-2.5c0-1.2-1.3-2.9-3.8-5.1h-0.6c6.1,60.1,11.4,90.1,15.8,90.1l5.1-1.3
		h3.8c9.8,0,14.6,4,14.6,12.1l0.6,2.5v1.3c-1,11-4.3,16.5-10.2,16.5c-5.1,0-11.7-4.7-19.6-14h-0.7c-1.4,0-10.5,4-27.2,12
		c-10.3,2.5-18.1,3.8-23.5,3.8c-14.8,0-26-7-33.6-20.9c-3.2-6.4-5.9-24.6-8.3-54.6c0-16.1-3-36.6-8.9-61.6
		c1.3-6.8,2.6-10.2,3.8-10.2c4.4,0,9.3,33.8,14.6,101.5c2.7,13.5,6.5,21.9,11.4,25.4c7.6,4.7,13.5,7,17.8,7h12
		c11.4-1.3,24.1-6.2,38.1-14.6v-1.3c-5.5-31-10.7-67.4-15.8-109.1c-0.8,0-1.3-0.6-1.3-1.9C303.7,112.7,304.8,109.3,305.9,109.3z
		 M488,110.6l0.6,0.6v0.7c0,3.3-4.7,7.3-14,12L429,151.8l-0.6-0.6v-1.9c0-3.3,6.1-8.1,18.4-14.6c2.1-2.2,14.6-9.8,37.5-22.8
		c0.1-0.8,1.4-1.5,3.8-1.9L488,110.6L488,110.6z M203.1,114.4h1.9v1.3c0,3.7-4.7,7.2-14,10.7l-43.8,26.1h-0.6
		c-0.8,0-1.3-0.6-1.3-1.9c1.6-4,13-12,34.3-24.1L203.1,114.4z M585.7,120l5.7,4.5l1.9-1.9v-1.3c-0.8-3.8-1.9-5.7-3.2-5.7h-1.3
		C586.8,116.5,585.7,118,585.7,120z M396,118.8v0.7c0.8,1.7,2.1,3,3.8,3.8h0.7l1.3-1.3v-3.8l-1.9-1.9h-1.3L396,118.8z M118.1,122
		c6.8,3.7,10.2,7.1,10.2,10.2c-0.8,3.2-2.5,6-5.1,8.2c-1.5,0-4.9-1.9-10.2-5.7h-1.3l-5.1,7.6h-1.3c-3,0-6.6-2.8-10.7-8.3
		c1.5-4.7,3.4-7.9,5.7-9.5l10.2,5.1h1.3C114,124.5,116.2,122,118.1,122z M273.6,151.8c1.1-11,3.3-16.5,6.4-16.5s5.7,3.4,7.6,10.2
		l-1.3,3.8H285l-5.1-5.1h-2.5l-0.7,3.2v1.9c0,16.1-1,24.1-3.1,24.1c-6.5-12.7-12.5-19-17.8-19l-3.8-5.1c1-3.8,2.1-5.7,3.1-5.7h0.7
		c3.4,0,8.9,5.1,16.5,15.2l1.3-1.9L273.6,151.8L273.6,151.8z M495,150.5h1.3v0.7c-1.7,3.8-2.5,6.7-2.5,8.9v2.5
		c0,7.2,1.7,10.7,5.1,10.7c1.3,0,2.6-2.1,3.8-6.3h0.7l0.6,1.9c-1.6,8-3.7,12-6.3,12c-5.1-2.2-7.6-6.6-7.6-13.3
		C489.9,164.9,491.6,159.1,495,150.5z M170.8,155c9.2,17.1,14.3,30.5,15.2,39.9c4.6,32.1,12.4,48.2,23.4,48.2h3.8
		c4.1,0,6.6-2.1,7.6-6.3c-5.5-8.6-8.2-13.4-8.2-14.6v-0.7l1.3-7.6h1.3c7.6,7.8,11.4,15.5,11.4,22.8c0,12.7-5.9,19-17.8,19
		c-9.9,0-17.7-9.9-23.5-29.8H184c0,9.5-14.2,22-42.5,37.4l-7.6,1.3h-1.3c-10.6,0-15.9-6.3-15.9-19l3.2-20.9V224h-3.2l-2.5,0.7
		c-5.9-2.2-8.9-5.6-8.8-10.2s2.1-12.6,6.3-24.1v-1.9c-11.4-10-17.1-15.7-17.1-17.1c0-2.8,0.6-6.2,1.9-10.2
		c7.6,2.8,12.7,5.3,15.2,7.6v1.9c-1.2,0-1.9,0.4-1.9,1.3c2.7,3.4,5.2,5.1,7.6,5.1h1.3c3.8-3.9,8-10.7,12.7-20.3h1.9v0.7
		c0,3-3,10.6-8.9,22.8v1.3c8.9,6.7,13.4,13.9,13.4,21.6v1.3c0,6-4,11.7-12.1,17.1c-2.9,5.9-4.4,10.9-4.4,15.2v7
		c1.8,5.9,4.8,8.9,8.9,8.9h2.5c9.2,0,22.3-7.4,39.3-22.2c6.3-5.3,9.5-9.7,9.5-13.3V214c0-8.1-4.7-24.2-14-48.2
		C168.6,158.6,169.6,155,170.8,155z M593.9,155v0.6l-3.1,10.8v1.3c0.8,5.5,2.1,8.2,3.8,8.2l4.4-3.8l0.7,0.7c0,5.7-2.3,9.1-7,10.2
		c-3.4-2.5-5.1-5.9-5.1-10.2C589.7,160.9,591.9,155,593.9,155z M410.6,156.3h1.3c6.3,4,9.5,7.6,9.5,10.7c0,1.6-1.7,3.9-5.1,7
		c-1.6,0-4.8-1.9-9.5-5.8h-0.7c-2.5,1.9-4.2,4.4-5.1,7.6h-3.8c-3.3-1.8-6.4-4.5-9.5-8.2c1.2-3.7,3.3-6.6,6.3-8.9h0.6
		c3.7,2.9,6.4,4.4,8.3,4.4h1.3L410.6,156.3z M448.7,169.5h1.9l13.4,14v1.9c-3,0.4-4.5,1-4.5,1.9l9.6,19l1.3,7.6
		c0,12.4-5.9,22.5-17.8,30.5c-1.3,3.3-1.9,6.2-1.9,8.9v0.7c0,8.7,3.8,15.1,11.4,19l10.2,1.9c14.8,0,32.6-11.4,53.3-34.3
		c1.7-1.7,2.5-3.4,2.5-5.1v-1.3l-1.9-1.9l-16.5,3.1c-10.2-0.8-15.2-4.2-15.2-10.2V221c0-9.2,4.4-15.6,13.3-19l1.9-0.7
		c5.9,0,12.6,5.1,20.3,15.2h2.5c4.2-1.7,11.1-6.5,20.9-14.6c2.1,0.7,3.2,1.9,3.2,3.8l-0.7,4.4c0,6.1,4.7,9.9,14,11.4h1.9
		c8.9,0,16.3-7,22.2-20.9l1.9-1.3h1.3v0.6l-2.5,8.9c1.5,5.1,7,7.6,16.5,7.6l2.5-1.9V212l-3.2-5.8c1.1-6.3,2.2-9.5,3.2-9.5h0.6
		c3.8,4.1,5.8,8.9,5.8,14.6c0,10.8-4.5,16.9-13.4,18.4h-1.3c-6-1-11.1-4-15.2-8.9c-0.8,0-2.7,2.1-5.7,6.3c-4.9,4.6-11,6.9-18.4,6.9
		c-8.9-2.9-13.3-6.3-13.3-10.2c-1.3-3.8-2.4-5.7-3.2-5.7h-1.3c-9.3,6.1-14,10.5-14,13.3c0,15.3-14,32.1-41.9,50.2
		c-7.6,4.2-14.4,6.3-20.3,6.3c-12,0-20.5-6.8-25.4-20.3l-0.6-5.8l0.6-5.7v-6.3h-1.9c-14.4,10.1-29.6,18.8-45.7,26l-42.6,9.6V285
		c0-2,11-7.1,33-15.2c25.9-12.9,48.5-27.2,67.9-43.1l6.9-8.2v-1.9c-8-14-13.9-26.5-17.8-37.4L448.7,169.5z M209.4,171.5
		c1.9,0.7,3.4,1.9,4.5,3.8v0.6l-1.3,4.5h-1.9c-1.9-1.7-3.4-2.5-4.4-2.5c-3,1.2-4.5,3.1-4.5,5.7c3.6,3,7.6,4.5,12.1,4.5
		c3-1.7,6.4-2.5,10.2-2.5h0.6l0.7,1.9c0,2.4-6.1,5.4-18.4,8.9c0,1-1.9,1.8-5.7,2.5l-0.7-0.6H200l1.9-5.8l-5.1-6.3
		c0-3.7,3.8-8.5,11.4-14.6L209.4,171.5L209.4,171.5z M305.9,177.2l1.3,1.3v0.7c0,3.6-7.4,8.4-22.2,14.6L254.5,209h-1.9v-1.3H252
		c0-4.6,9.5-10.7,28.5-18.4C296.1,181.2,304.5,177.2,305.9,177.2z M423.3,179.1h1.3c0,6.4-3.8,14.4-11.4,24.1v1.3
		c8.9,6.9,13.3,13.1,13.3,18.4c0,10.3-4,17.3-12,21c-3.9,2.7-8.4,4.5-13.4,5.7c-4.7,0-7.9-3.6-9.5-10.7c0-10,2.1-18.2,6.3-24.8v-2.5
		c-11.8-10.2-17.8-16.5-17.8-19v-1.3c0-3.6,0.6-6.1,1.9-7.6c10.5,4.1,16.3,6.7,17.2,7.6v1.9c-1.7,0.2-2.5,0.8-2.5,1.9v0.7
		c0.2,0.8,3,2.7,8.2,5.7C405.6,201.3,411.7,193.9,423.3,179.1z M154.9,189.3h0.7l-0.7,0.6v1.3l-0.6,8.3c0,5.5,1.9,8.2,5.7,8.2
		l2.5-3.8h0.7l0.6,1.9c-2,6.8-4.1,10.2-6.3,10.2c-4.2-2.4-6.3-6.5-6.3-12.1C152.1,194.1,153.4,189.3,154.9,189.3z M117.5,192.4
		c-4.2,5.3-6.3,9.8-6.3,13.4v2.5c1,2.5,2.7,3.8,5.1,3.8c10.5-3.2,15.8-5.9,15.8-8.3v-0.6C127.9,197.6,123,194,117.5,192.4z
		 M291.9,205.1l1.3,1.3c-2.1,4.1-3.1,8.3-3.1,12.7c0.1,2.3,1.2,4.2,3.1,5.8l3.8-3.2l0.7,0.7v2.5c0,3.1-2.1,5.8-6.3,8.2
		c-2.8-2.7-4.5-5.7-5.1-8.9l0.6-0.6V221l-0.6-0.7C288.7,210.1,290.6,205.1,291.9,205.1z M502.6,219v1.3c0.5,1.3,1.7,1.9,3.8,1.9h7.6
		c2.2,0,3.5-0.6,3.8-1.9v-0.6c-2.5-3-5.9-4.5-10.2-4.5C506,215.2,504.3,216.5,502.6,219z M396.7,230.5c0.5,3.8,2.4,5.8,5.7,5.8h1.3
		c4.6,0,10.1-3.4,16.5-10.2v-1.3c-6.3-5.5-11.5-8.3-15.8-8.3C399.2,222.4,396.7,227,396.7,230.5z M112.4,231.1l1.3,1.9
		c0,3.9-5.9,8-17.8,12.1l-13.4,6.3h-1.9l-0.7-1.9c0-3.2,5.1-6.6,15.2-10.2L112.4,231.1z M337,238.7v1.3c0,2,3,3.2,8.9,3.8l0.6-0.7
		v-0.6c-1.7-3-4.2-4.5-7.6-4.5L337,238.7z M604.8,244.4v3.8c-2.5,8.5-5.4,12.7-8.9,12.7c-1.7-0.8-4-1.3-7-1.3
		c-2,2.5-4.5,3.8-7.6,3.8l-8.9-2.5c-2.2,0-10.7,4.9-25.4,14.6c-4.1,2.1-7.7,3.1-10.7,3.1V278l13.3-8.3
		c13.1-10.5,21.6-15.8,25.4-15.8l10.2,2.5c2.4,0,4.8-2.3,7-7h1.9c0,1.6,1.1,2.8,3.2,3.8h1.9c0.8,0,2.3-3,4.5-8.9L604.8,244.4
		L604.8,244.4z M240.6,258.4l1.3,1.9c0,3.6-5.7,6.9-17.2,10.2l-29.2,10.7l-0.6-0.6v-0.7c0-4,8.5-8.4,25.4-13.3L240.6,258.4z"/>
</g>
</svg>
