<?xml version="1.0" encoding="utf-8"?>
<!-- Generator: Adobe Illustrator 25.2.3, SVG Export Plug-In . SVG Version: 6.00 Build 0)  -->
<svg version="1.1" xmlns="http://www.w3.org/2000/svg" xmlns:xlink="http://www.w3.org/1999/xlink" x="0px" y="0px"
	 viewBox="0 0 700 395" style="enable-background:new 0 0 700 395;" xml:space="preserve">
<style type="text/css">
	.st0{fill:#000222;}
	.st1{fill:#FFFFFF;}
</style>
<g id="Layer_1">
	<rect class="st0" width="700" height="395"/>
</g>
<g id="Layer_3">
	<g>
		<path class="st1" d="M273.5,368.6l1.1,4.2c0.2,0.9,0.5,1.8,0.6,2.6h0.1c0.2-0.8,0.5-1.7,0.7-2.6l1.3-4.2h1.3l1.3,4.1
			c0.3,1,0.5,1.9,0.7,2.7h0.1c0.1-0.8,0.4-1.7,0.6-2.7l1.2-4.1h1.5l-2.7,8.2H280l-1.3-3.9c-0.3-0.9-0.5-1.7-0.7-2.7h0
			c-0.2,1-0.5,1.8-0.7,2.7l-1.3,3.9h-1.4l-2.5-8.2H273.5z"/>
		<path class="st1" d="M286.3,368.6l1.1,4.2c0.2,0.9,0.5,1.8,0.6,2.6h0.1c0.2-0.8,0.5-1.7,0.7-2.6l1.3-4.2h1.3l1.3,4.1
			c0.3,1,0.5,1.9,0.7,2.7h0.1c0.1-0.8,0.4-1.7,0.6-2.7l1.2-4.1h1.5l-2.7,8.2h-1.4l-1.3-3.9c-0.3-0.9-0.5-1.7-0.7-2.7h0
			c-0.2,1-0.5,1.8-0.7,2.7l-1.3,3.9h-1.4l-2.5-8.2H286.3z"/>
		<path class="st1" d="M299,368.6l1.1,4.2c0.2,0.9,0.5,1.8,0.6,2.6h0.1c0.2-0.8,0.5-1.7,0.7-2.6l1.3-4.2h1.3l1.3,4.1
			c0.3,1,0.5,1.9,0.7,2.7h0.1c0.1-0.8,0.4-1.7,0.6-2.7l1.2-4.1h1.5l-2.7,8.2h-1.4l-1.3-3.9c-0.3-0.9-0.5-1.7-0.7-2.7h0
			c-0.2,1-0.5,1.8-0.7,2.7l-1.3,3.9h-1.4l-2.5-8.2H299z"/>
		<path class="st1" d="M309.9,375.9c0-0.6,0.4-1.1,1-1.1c0.6,0,1,0.4,1,1.1c0,0.6-0.4,1.1-1,1.1C310.3,377,309.9,376.5,309.9,375.9z
			"/>
		<path class="st1" d="M313.5,375.3c0.4,0.3,1.2,0.6,2,0.6c1.1,0,1.6-0.5,1.6-1.2c0-0.7-0.4-1.1-1.5-1.5c-1.5-0.5-2.2-1.3-2.2-2.3
			c0-1.3,1.1-2.4,2.8-2.4c0.8,0,1.6,0.2,2,0.5l-0.4,1.1c-0.3-0.2-0.9-0.5-1.7-0.5c-0.9,0-1.4,0.5-1.4,1.1c0,0.7,0.5,1,1.6,1.4
			c1.4,0.5,2.2,1.3,2.2,2.5c0,1.4-1.1,2.5-3.1,2.5c-0.9,0-1.7-0.2-2.3-0.6L313.5,375.3z"/>
		<path class="st1" d="M327.4,374.6c0,0.9,0,1.6,0.1,2.2h-1.3l-0.1-1.3h0c-0.4,0.7-1.3,1.5-2.7,1.5c-1.3,0-2.8-0.7-2.8-3.6v-4.8h1.5
			v4.6c0,1.6,0.5,2.6,1.8,2.6c1,0,1.7-0.7,2-1.4c0.1-0.2,0.1-0.5,0.1-0.8v-5h1.5V374.6z"/>
		<path class="st1" d="M329.8,371.1c0-1,0-1.8-0.1-2.6h1.3l0.1,1.6h0.1c0.4-1.1,1.3-1.8,2.3-1.8c0.2,0,0.3,0,0.4,0.1v1.4
			c-0.2,0-0.3-0.1-0.5-0.1c-1.1,0-1.8,0.8-2,1.9c0,0.2-0.1,0.4-0.1,0.7v4.4h-1.5V371.1z"/>
		<path class="st1" d="M339.9,376.8l-0.1-1h-0.1c-0.5,0.6-1.3,1.2-2.5,1.2c-1.7,0-2.5-1.2-2.5-2.4c0-2,1.8-3.1,4.9-3.1v-0.2
			c0-0.7-0.2-1.9-1.9-1.9c-0.8,0-1.6,0.2-2.1,0.6l-0.3-1c0.7-0.4,1.7-0.7,2.7-0.7c2.5,0,3.1,1.7,3.1,3.4v3.1c0,0.7,0,1.4,0.1,2
			H339.9z M339.7,372.6c-1.6,0-3.5,0.3-3.5,1.9c0,1,0.6,1.4,1.4,1.4c1.1,0,1.8-0.7,2-1.4c0.1-0.2,0.1-0.3,0.1-0.5V372.6z"/>
		<path class="st1" d="M343.5,364.7h1.5v5.1h0c0.2-0.4,0.6-0.8,1.1-1.1c0.4-0.3,1-0.4,1.5-0.4c1.1,0,2.9,0.7,2.9,3.5v4.9H349v-4.7
			c0-1.3-0.5-2.4-1.9-2.4c-1,0-1.7,0.7-2,1.5c-0.1,0.2-0.1,0.4-0.1,0.7v5h-1.5V364.7z"/>
		<path class="st1" d="M358.6,375.5L358.6,375.5c-0.5,0.8-1.4,1.5-2.7,1.5c-1.9,0-3.5-1.7-3.5-4.2c0-3.1,2-4.4,3.7-4.4
			c1.3,0,2.1,0.6,2.5,1.4h0l0.1-1.2h1.4c0,0.7-0.1,1.4-0.1,2.3v9.3h-1.5V375.5z M358.6,371.9c0-0.2,0-0.4-0.1-0.6
			c-0.2-0.9-1-1.7-2.1-1.7c-1.5,0-2.5,1.3-2.5,3.2c0,1.6,0.8,3.1,2.4,3.1c1,0,1.8-0.6,2.1-1.6c0.1-0.2,0.1-0.5,0.1-0.7V371.9z"/>
		<path class="st1" d="M369.4,374.6c0,0.9,0,1.6,0.1,2.2h-1.3l-0.1-1.3h0c-0.4,0.7-1.3,1.5-2.7,1.5c-1.3,0-2.8-0.7-2.8-3.6v-4.8h1.5
			v4.6c0,1.6,0.5,2.6,1.8,2.6c1,0,1.7-0.7,2-1.4c0.1-0.2,0.1-0.5,0.1-0.8v-5h1.5V374.6z"/>
		<path class="st1" d="M371.9,371.1c0-1,0-1.8-0.1-2.6h1.3l0.1,1.6h0.1c0.4-1.1,1.3-1.8,2.3-1.8c0.2,0,0.3,0,0.4,0.1v1.4
			c-0.2,0-0.3-0.1-0.5-0.1c-1.1,0-1.8,0.8-2,1.9c0,0.2-0.1,0.4-0.1,0.7v4.4h-1.5V371.1z"/>
		<path class="st1" d="M381.9,376.8l-0.1-1h-0.1c-0.5,0.6-1.3,1.2-2.5,1.2c-1.7,0-2.5-1.2-2.5-2.4c0-2,1.8-3.1,4.9-3.1v-0.2
			c0-0.7-0.2-1.9-1.9-1.9c-0.8,0-1.6,0.2-2.1,0.6l-0.3-1c0.7-0.4,1.7-0.7,2.7-0.7c2.5,0,3.1,1.7,3.1,3.4v3.1c0,0.7,0,1.4,0.1,2
			H381.9z M381.7,372.6c-1.6,0-3.5,0.3-3.5,1.9c0,1,0.6,1.4,1.4,1.4c1.1,0,1.8-0.7,2-1.4c0.1-0.2,0.1-0.3,0.1-0.5V372.6z"/>
		<path class="st1" d="M385.6,370.8c0-0.9,0-1.5-0.1-2.2h1.3l0.1,1.4h0c0.4-0.8,1.4-1.5,2.7-1.5c1.1,0,2.9,0.7,2.9,3.5v4.9h-1.5
			v-4.7c0-1.3-0.5-2.4-1.9-2.4c-1,0-1.8,0.7-2,1.5c-0.1,0.2-0.1,0.4-0.1,0.7v4.9h-1.5V370.8z"/>
		<path class="st1" d="M394.6,375.9c0-0.6,0.4-1.1,1-1.1c0.6,0,1,0.4,1,1.1c0,0.6-0.4,1.1-1,1.1C395,377,394.6,376.5,394.6,375.9z"
			/>
		<path class="st1" d="M404.4,376.5c-0.4,0.2-1.3,0.5-2.4,0.5c-2.5,0-4.1-1.7-4.1-4.2c0-2.5,1.7-4.4,4.4-4.4c0.9,0,1.7,0.2,2.1,0.4
			l-0.3,1.2c-0.4-0.2-0.9-0.4-1.7-0.4c-1.9,0-2.9,1.4-2.9,3.1c0,1.9,1.2,3.1,2.9,3.1c0.8,0,1.4-0.2,1.8-0.4L404.4,376.5z"/>
		<path class="st1" d="M413.5,372.6c0,3-2.1,4.4-4.1,4.4c-2.2,0-3.9-1.6-3.9-4.2c0-2.8,1.8-4.4,4.1-4.4
			C411.9,368.4,413.5,370.1,413.5,372.6z M406.9,372.7c0,1.8,1,3.2,2.5,3.2c1.4,0,2.5-1.3,2.5-3.2c0-1.4-0.7-3.2-2.5-3.2
			S406.9,371.1,406.9,372.7z"/>
		<path class="st1" d="M415.4,370.8c0-0.9,0-1.5-0.1-2.2h1.3l0.1,1.3h0.1c0.5-0.8,1.2-1.5,2.6-1.5c1.1,0,2,0.7,2.3,1.6h0
			c0.3-0.5,0.6-0.8,0.9-1.1c0.5-0.4,1-0.6,1.8-0.6c1.1,0,2.7,0.7,2.7,3.6v4.8h-1.5v-4.7c0-1.6-0.6-2.5-1.8-2.5
			c-0.9,0-1.5,0.6-1.8,1.4c-0.1,0.2-0.1,0.5-0.1,0.7v5.1h-1.5v-4.9c0-1.3-0.6-2.3-1.7-2.3c-0.9,0-1.6,0.7-1.9,1.5
			c-0.1,0.2-0.1,0.5-0.1,0.7v5h-1.5V370.8z"/>
	</g>
</g>
<g id="Layer_4">
	<path class="st1" d="M501.8,106.1c3.9,2.5,5.9,4.7,5.9,6.6c-0.5,2.5-1.4,4.3-2.7,5.3c-3.4-2.7-5.8-4-7.2-4c-2.7,1.1-4,10.6-4,28.5
		l-0.7,4.6l-2.7,2c-5.6-12.8-11.8-19.3-18.6-19.3c-3.1-2.4-4.6-4.8-4.6-7.2V122c0.2-2.7,0.9-4,1.9-4h1.3c4.9,0,11.3,5.7,19.3,17.2
		l1.3-1.9v-10C491.2,115.5,494.7,109.8,501.8,106.1z M548.8,106.8c4.4,0,6.6,4.2,6.6,12.5v4.7l4.7,8.6v2l-0.7,1.9h-0.6l-6.6-1.9
		h-0.7c-18.7,18.6-35.5,29.2-50.4,31.8c1.9-2.1,9.7-7.2,23.2-15.3l15.2-10.6l8-8.6c-4.4-4.4-6.6-7.7-6.6-10v-1.3
		C540.8,115.3,543.5,110.7,548.8,106.8z M358,108.7c3.1,0.5,4.7,3,4.7,7.3v2.7l-0.7,8l6.6,6.6v1.9l-0.6,3.4h-0.7c-1.6,0-4-1.3-7.2-4
		h-2c-10.2,11.8-21.2,19.6-33.1,23.1v-1.3l28.5-22.5l0.6-0.6v-2c-3.1-3.9-4.6-6.8-4.6-8.6C349.4,116.7,352.2,112,358,108.7z
		 M445.4,110.7h0.7v0.6c0,4.6-2.4,7.5-7.3,8.7l-28.4,17.2c-14.1,9.2-22.3,13.9-24.6,13.9l-0.6-0.6v-0.7c0-4.1,13.9-13.5,41.7-28.4
		C437.5,114.3,443.7,110.7,445.4,110.7z M544.2,118c2.1,4,4.5,6,7.2,6l0.7-0.7v-2.7c0-2.4-1.1-4.1-3.4-5.3h-0.6
		C545.9,115.3,544.6,116.2,544.2,118z M353.4,119.3v1.3l4,4h0.6l1.3-1.3v-4l-2.7-2.7H356L353.4,119.3z M314.9,116.7l1.3,2.7
		c-1.1,11.5-2.4,17.2-4,17.2l-0.7-0.6l1.3-10.6l-0.6-0.7H311c-17.3,8.8-30.9,13.3-41.1,13.3h-9.3l-2,2v5.3c0,2.3-0.6,3.6-1.9,4h-0.7
		v-0.7c0-3.8-2-9.1-5.9-15.9c0.8-3.5,1.6-5.3,2.7-5.3h1.3c0,1.1,4.2,1.9,12.5,2.7h7.3c9.5,0,22.7-4.4,39.8-13.3H314.9z M224.8,118.7
		c3.5,1.8,5.3,4,5.3,6.8s-0.9,4.5-2.7,5.2c-2.7-2.7-4.9-4-6.6-4c-1.8,0.6-2.7,2.6-2.7,5.9v4.7c-0.6,15.5-2,23.9-4,25.2l-8-13.3
		c-4.2-4.9-7.3-7.3-9.3-7.3c-3.8,8.7-9.1,14.7-15.9,17.9l-6,1.9v-0.6c12.1-10.8,18.3-17.2,18.6-19.3l-5.3-5.9v-2.7c0-4,1.1-6,3.4-6
		c6.4,2.9,12.6,8.7,18.6,17.2c0,1.6,1.3,3.4,4,5.3h0.6v-18.6C216.7,122.9,220,118.7,224.8,118.7z M139.3,129.9v1.3l-1.9,8v2.7
		c0,3.9,1.5,6.8,4.6,8.7h0.7l4-4.7v3.4c0,2.9-1.6,5.8-4.7,8.6h-2.7c-3.5-2.4-5.3-6.4-5.3-12.1C134,140.1,135.8,134.8,139.3,129.9z
		 M452.7,151.1h1.3l-1.3,3.4H452v-1.3L452.7,151.1z M452,154.5v1.3l-1.3,5.9c0,3.9,1.3,7.7,4,11.3h3.4l1.9-4.7h1.3v2.7
		c0,3.4-2,6.7-5.9,10c-4.9-1.9-7.3-6.3-7.3-13.3C449.1,158.9,450.4,154.5,452,154.5z M551.4,155.1h0.7v2l-0.7,0.6h-0.6v-0.6
		L551.4,155.1z M367.9,156.4c7.1,3.2,10.6,7.2,10.6,11.9l-5.3,6l-10-5.3h-0.6l-6,8c-3.1-0.6-6.8-3.3-11.2-8v-2c2.1-5.3,4-8,5.9-8
		c5.5,3.5,9.1,5.3,10.6,5.3C364.5,159.8,366.5,157.1,367.9,156.4z M550.1,157.7h0.7v2l-1.3,4v1.9c0,2.9,0.6,5.8,1.9,8.7h3.4
		c0.9,0,1.3-0.7,1.3-2l0.6-0.6h0.7l0.6,0.6v0.7c0,4.8-2,7.7-5.9,8.6h-1.3c-1.6-0.2-3.2-3.3-4.7-9.3
		C546.6,167.8,547.9,163,550.1,157.7z M300.4,159.8c6.6,2.1,9.9,5.2,9.9,9.3v0.6c-3.1,4.4-5.5,6.6-7.2,6.6c-4.8-3.5-7.9-5.3-9.3-5.3
		l-6.6,6.6l-9.3-6.6c0.9-4.4,2.9-7.5,5.9-9.3l10,4.7L300.4,159.8z M155.9,169.1c3.5,2.2,5.3,5.5,5.3,9.9l-0.7,2h-0.6
		c-2.6-2.7-5-4-7.3-4l-1.3,1.9v0.7l0.7,0.6l-0.7,0.7v5.9l0.7,2.7c-2.4,19.4-5,29.2-8,29.2c-1.2,4.3-7.2,8.7-17.9,13.3h-0.6v-0.6
		c13.7-11.4,20.5-18.9,20.5-22.5v-0.7c-3.8-11-8.6-16.5-14.6-16.5c-4.4-1.9-6.6-4.6-6.6-8c0-1.8,1.1-3.8,3.4-6
		c4.2,0,10.6,6.2,19.2,18.6l1.3-1.3V181C148.6,174,151,170.1,155.9,169.1z M407,169.7c9.3,8.6,14,13.9,14,15.9
		c-3.1,0.4-4.7,0.8-4.7,1.3c0,1.6,3.3,8.7,10,21.2l1.3,6c-1.2,11.6-3.2,18-6,19.2c-9.2,9-13.9,14.5-13.9,16.6l-0.7,5.9
		c0,9.9,6,16.8,17.9,20.6h4.6c13.8,0,31-10.6,51.7-31.8c3.1-3.2,4.7-5.9,4.7-8v-2l-1.3-1.3h-0.7l-18.6,3.4
		c-5.2-0.9-8.7-2.4-10.5-4.5c-1.8-2.1-2.7-5.3-2.7-9.5v-1.9c2.8-12.4,7.9-18.6,15.3-18.6c6.1,0,13.3,5.1,21.8,15.2h0.7
		c4.2-1.9,11.5-6.7,21.8-14.6h1.3l1.3,2v6.6c0,6.2,5.3,9.7,15.9,10.6h2c6.8-2,11.7-5.5,14.6-10.6l7.2-11.9h1.3v0.6l-1.9,8v1.3
		c3.1,4.9,8.2,7.3,15.2,7.3c2.7-0.5,4-1.1,4-2v-1.3c0-1.6-0.9-3.6-2.7-5.9v-2.7l2-8h1.3c3.9,5.1,5.9,10.6,5.9,16.5
		c-2.1,10.6-5.6,15.9-10.6,15.9l-4,0.7c-4.2,0-9.5-3.1-15.9-9.3h-0.6c-4.4,6.6-7.7,9.9-10,9.9c-2.1,1.6-6.3,2.9-12.5,4
		c-8.1,0-13.8-5.5-17.2-16.5h-1.3c-10.2,6.8-15.3,11.9-15.3,15.2c0,11.1-7.7,23-23.1,35.8c-13.1,13.3-27.7,19.9-43.7,19.9
		c-6.2,0-12.4-4.2-18.6-12.5l-3.4-14l0.7-11.2h-1.3c-27.6,19.4-46.9,29.2-57.7,29.2l-29.8,6.6l-0.7-0.7v-0.6
		c1.6-1.8,13.6-7.1,35.8-15.9c19.7-10,40.2-23,61.7-39.1c6.6-6.4,9.9-10.2,9.9-11.2c0-1.8-4.2-10.5-12.5-25.9l-4.7-13.9
		C404.3,173,405.2,169.7,407,169.7z M381.2,179.7v2.7c-0.4,5.8-3.9,13.1-10.6,21.8v1.3c8.8,7.5,13.3,13.5,13.3,17.9l-0.7,0.6v5.3
		c0,8.9-7.7,16-23.1,21.2h-2.7c-5.8-1.1-8.7-5-8.7-11.9c0-8.4,2.2-16.1,6.6-23.1v-2l-17.8-17.8v-7.3c0.2-2.7,0.9-4,1.9-4
		c7.1,2.5,12.9,5.4,17.2,8.7c0,1.3-0.9,1.9-2.7,1.9l-0.6,0.7v1.9c4.7,3.1,7.8,4.7,9.3,4.7c0.9,0,6-6.6,15.2-19.9
		c0.9,0,1.3-0.7,1.3-2l0.7-0.6H381.2z M299.6,185.6c8.7,0,15.5,8.6,20.6,25.9v2.7c0,19.1-8.4,32.5-25.2,40.4
		c-13.6,9.7-32,17.6-55,23.9l-33.7,4l-4-0.6l-0.7,0.6c-27.4,0-51.9-9.3-73.5-27.8c-4.9-2.7-7.3-5.4-7.3-8v-0.6h1.3
		c25.7,15.9,53.1,23.9,82.2,23.9h4.7c26,0,53.6-8,82.8-23.9c15.5-10.2,23.2-17.5,23.2-21.9c0-3.2-3.3-5-10-5.3h-3.3l-2.7,0.7
		c-9.7-1.4-14.6-5.3-14.6-11.9v-2C284.4,196.7,289.5,190,299.6,185.6z M257.9,186.9l-2.7,11.9v2c0,3.7,1.5,6.8,4.6,9.3h2
		c0.2-3.1,0.9-4.7,1.9-4.7l0.7,0.7v1.3c0,6.3-2.2,9.8-6.6,10.6c-4-2.4-6-5.9-6-10.6c0-6.8,1.6-13.6,4.7-20.6H257.9z M220.1,188.2
		h0.7v4l-3.4,19.9c0,7.3,2,12.6,6,15.9h1.3c1.4,0,2.7-2.7,4-8h0.6l1.3,1.3c-1.5,11.1-3.5,16.6-5.9,16.6h-2c-5.5,0-8.8-7.1-9.9-21.2
		C215.6,200,218,190.5,220.1,188.2z M293,202.8v1.3l2.7,1.3h6.6l3.4-0.6v-2l-6-2.7h-4L293,202.8z M180.4,200.2h0.7l-2,10.6v1.3
		c0,7.1,1.8,10.6,5.3,10.6c0.9,0,1.8-1.3,2.7-4h1.3v1.3h0.7c-2.2,7.1-4,10.6-5.3,10.6h-2.7c-3.5-3.2-5.3-6.9-5.3-11.2v-3.4
		C175.8,211.9,177.3,206.6,180.4,200.2z M460,220v0.7c0,1.3,2.9,2.2,8.7,2.7l7.2-1.3v-2.7l-5.9-3.4h-5.3
		C461.5,217.9,460,219.3,460,220z M354,228.7v5.9c1.1,2.2,3.3,3.4,6.6,3.4c9.4-3.2,15-6.5,16.6-10v-0.6c-5.5-6.7-10.6-10-15.3-10
		C360.8,217.4,358.2,221.1,354,228.7z M317.6,243.9h1.3v1.3l-2.7,13.3v2c0.6,4.8,1.7,7.2,3.3,7.2h0.7c0.9,0,1.8-1.5,2.7-4.6h1.3v1.3
		c-1.2,7.5-3,11.2-5.3,11.2c-4-2.2-6-4.8-6-8v-5.9C312.9,258.6,314.5,252.7,317.6,243.9z M562.7,245.2h0.6v2
		c0,7.1-3.1,11.7-9.3,13.9l-6.6-1.3c-0.8,1.4-3.2,3-7.2,4.7c-4.6-2.2-8.1-3.4-10.6-3.4c-1.4,0-9.6,5.1-24.6,15.3l-9.9,3.3l-0.7-0.6
		v-1.3c1.9,0,11.5-6.2,28.5-18.6c4.2-3.1,8.2-4.7,11.9-4.7l6.6,2.7h0.6c5.3-1.3,8-3.7,8-7.2h1.3c1.8,2.7,4.2,4,7.3,4
		C560.2,248.1,561.5,245.2,562.7,245.2z"/>
</g>
</svg>
