<?xml version="1.0" encoding="utf-8"?>
<!-- Generator: Adobe Illustrator 25.2.3, SVG Export Plug-In . SVG Version: 6.00 Build 0)  -->
<svg version="1.1" xmlns="http://www.w3.org/2000/svg" xmlns:xlink="http://www.w3.org/1999/xlink" x="0px" y="0px"
	 viewBox="0 0 700 395" style="enable-background:new 0 0 700 395;" xml:space="preserve">
<style type="text/css">
	.st0{fill:#000222;}
	.st1{fill:#FFFFFF;}
</style>
<g id="Layer_1">
	<rect class="st0" width="700" height="395"/>
</g>
<g id="Layer_3">
	<g>
		<path class="st1" d="M273.5,368.6l1.1,4.2c0.2,0.9,0.5,1.8,0.6,2.6h0.1c0.2-0.8,0.5-1.7,0.7-2.6l1.3-4.2h1.3l1.3,4.1
			c0.3,1,0.5,1.9,0.7,2.7h0.1c0.1-0.8,0.4-1.7,0.6-2.7l1.2-4.1h1.5l-2.7,8.2H280l-1.3-3.9c-0.3-0.9-0.5-1.7-0.7-2.7h0
			c-0.2,1-0.5,1.8-0.7,2.7l-1.3,3.9h-1.4l-2.5-8.2H273.5z"/>
		<path class="st1" d="M286.3,368.6l1.1,4.2c0.2,0.9,0.5,1.8,0.6,2.6h0.1c0.2-0.8,0.5-1.7,0.7-2.6l1.3-4.2h1.3l1.3,4.1
			c0.3,1,0.5,1.9,0.7,2.7h0.1c0.1-0.8,0.4-1.7,0.6-2.7l1.2-4.1h1.5l-2.7,8.2h-1.4l-1.3-3.9c-0.3-0.9-0.5-1.7-0.7-2.7h0
			c-0.2,1-0.5,1.8-0.7,2.7l-1.3,3.9h-1.4l-2.5-8.2H286.3z"/>
		<path class="st1" d="M299,368.6l1.1,4.2c0.2,0.9,0.5,1.8,0.6,2.6h0.1c0.2-0.8,0.5-1.7,0.7-2.6l1.3-4.2h1.3l1.3,4.1
			c0.3,1,0.5,1.9,0.7,2.7h0.1c0.1-0.8,0.4-1.7,0.6-2.7l1.2-4.1h1.5l-2.7,8.2h-1.4l-1.3-3.9c-0.3-0.9-0.5-1.7-0.7-2.7h0
			c-0.2,1-0.5,1.8-0.7,2.7l-1.3,3.9h-1.4l-2.5-8.2H299z"/>
		<path class="st1" d="M309.9,375.9c0-0.6,0.4-1.1,1-1.1c0.6,0,1,0.4,1,1.1c0,0.6-0.4,1.1-1,1.1C310.3,377,309.9,376.5,309.9,375.9z
			"/>
		<path class="st1" d="M313.5,375.3c0.4,0.3,1.2,0.6,2,0.6c1.1,0,1.6-0.5,1.6-1.2c0-0.7-0.4-1.1-1.5-1.5c-1.5-0.5-2.2-1.3-2.2-2.3
			c0-1.3,1.1-2.4,2.8-2.4c0.8,0,1.6,0.2,2,0.5l-0.4,1.1c-0.3-0.2-0.9-0.5-1.7-0.5c-0.9,0-1.4,0.5-1.4,1.1c0,0.7,0.5,1,1.6,1.4
			c1.4,0.5,2.2,1.3,2.2,2.5c0,1.4-1.1,2.5-3.1,2.5c-0.9,0-1.7-0.2-2.3-0.6L313.5,375.3z"/>
		<path class="st1" d="M327.4,374.6c0,0.9,0,1.6,0.1,2.2h-1.3l-0.1-1.3h0c-0.4,0.7-1.3,1.5-2.7,1.5c-1.3,0-2.8-0.7-2.8-3.6v-4.8h1.5
			v4.6c0,1.6,0.5,2.6,1.8,2.6c1,0,1.7-0.7,2-1.4c0.1-0.2,0.1-0.5,0.1-0.8v-5h1.5V374.6z"/>
		<path class="st1" d="M329.8,371.1c0-1,0-1.8-0.1-2.6h1.3l0.1,1.6h0.1c0.4-1.1,1.3-1.8,2.3-1.8c0.2,0,0.3,0,0.4,0.1v1.4
			c-0.2,0-0.3-0.1-0.5-0.1c-1.1,0-1.8,0.8-2,1.9c0,0.2-0.1,0.4-0.1,0.7v4.4h-1.5V371.1z"/>
		<path class="st1" d="M339.9,376.8l-0.1-1h-0.1c-0.5,0.6-1.3,1.2-2.5,1.2c-1.7,0-2.5-1.2-2.5-2.4c0-2,1.8-3.1,4.9-3.1v-0.2
			c0-0.7-0.2-1.9-1.9-1.9c-0.8,0-1.6,0.2-2.1,0.6l-0.3-1c0.7-0.4,1.7-0.7,2.7-0.7c2.5,0,3.1,1.7,3.1,3.4v3.1c0,0.7,0,1.4,0.1,2
			H339.9z M339.7,372.6c-1.6,0-3.5,0.3-3.5,1.9c0,1,0.6,1.4,1.4,1.4c1.1,0,1.8-0.7,2-1.4c0.1-0.2,0.1-0.3,0.1-0.5V372.6z"/>
		<path class="st1" d="M343.5,364.7h1.5v5.1h0c0.2-0.4,0.6-0.8,1.1-1.1c0.4-0.3,1-0.4,1.5-0.4c1.1,0,2.9,0.7,2.9,3.5v4.9H349v-4.7
			c0-1.3-0.5-2.4-1.9-2.4c-1,0-1.7,0.7-2,1.5c-0.1,0.2-0.1,0.4-0.1,0.7v5h-1.5V364.7z"/>
		<path class="st1" d="M358.6,375.5L358.6,375.5c-0.5,0.8-1.4,1.5-2.7,1.5c-1.9,0-3.5-1.7-3.5-4.2c0-3.1,2-4.4,3.7-4.4
			c1.3,0,2.1,0.6,2.5,1.4h0l0.1-1.2h1.4c0,0.7-0.1,1.4-0.1,2.3v9.3h-1.5V375.5z M358.6,371.9c0-0.2,0-0.4-0.1-0.6
			c-0.2-0.9-1-1.7-2.1-1.7c-1.5,0-2.5,1.3-2.5,3.2c0,1.6,0.8,3.1,2.4,3.1c1,0,1.8-0.6,2.1-1.6c0.1-0.2,0.1-0.5,0.1-0.7V371.9z"/>
		<path class="st1" d="M369.4,374.6c0,0.9,0,1.6,0.1,2.2h-1.3l-0.1-1.3h0c-0.4,0.7-1.3,1.5-2.7,1.5c-1.3,0-2.8-0.7-2.8-3.6v-4.8h1.5
			v4.6c0,1.6,0.5,2.6,1.8,2.6c1,0,1.7-0.7,2-1.4c0.1-0.2,0.1-0.5,0.1-0.8v-5h1.5V374.6z"/>
		<path class="st1" d="M371.9,371.1c0-1,0-1.8-0.1-2.6h1.3l0.1,1.6h0.1c0.4-1.1,1.3-1.8,2.3-1.8c0.2,0,0.3,0,0.4,0.1v1.4
			c-0.2,0-0.3-0.1-0.5-0.1c-1.1,0-1.8,0.8-2,1.9c0,0.2-0.1,0.4-0.1,0.7v4.4h-1.5V371.1z"/>
		<path class="st1" d="M381.9,376.8l-0.1-1h-0.1c-0.5,0.6-1.3,1.2-2.5,1.2c-1.7,0-2.5-1.2-2.5-2.4c0-2,1.8-3.1,4.9-3.1v-0.2
			c0-0.7-0.2-1.9-1.9-1.9c-0.8,0-1.6,0.2-2.1,0.6l-0.3-1c0.7-0.4,1.7-0.7,2.7-0.7c2.5,0,3.1,1.7,3.1,3.4v3.1c0,0.7,0,1.4,0.1,2
			H381.9z M381.7,372.6c-1.6,0-3.5,0.3-3.5,1.9c0,1,0.6,1.4,1.4,1.4c1.1,0,1.8-0.7,2-1.4c0.1-0.2,0.1-0.3,0.1-0.5V372.6z"/>
		<path class="st1" d="M385.6,370.8c0-0.9,0-1.5-0.1-2.2h1.3l0.1,1.4h0c0.4-0.8,1.4-1.5,2.7-1.5c1.1,0,2.9,0.7,2.9,3.5v4.9h-1.5
			v-4.7c0-1.3-0.5-2.4-1.9-2.4c-1,0-1.8,0.7-2,1.5c-0.1,0.2-0.1,0.4-0.1,0.7v4.9h-1.5V370.8z"/>
		<path class="st1" d="M394.6,375.9c0-0.6,0.4-1.1,1-1.1c0.6,0,1,0.4,1,1.1c0,0.6-0.4,1.1-1,1.1C395,377,394.6,376.5,394.6,375.9z"
			/>
		<path class="st1" d="M404.4,376.5c-0.4,0.2-1.3,0.5-2.4,0.5c-2.5,0-4.1-1.7-4.1-4.2c0-2.5,1.7-4.4,4.4-4.4c0.9,0,1.7,0.2,2.1,0.4
			l-0.3,1.2c-0.4-0.2-0.9-0.4-1.7-0.4c-1.9,0-2.9,1.4-2.9,3.1c0,1.9,1.2,3.1,2.9,3.1c0.8,0,1.4-0.2,1.8-0.4L404.4,376.5z"/>
		<path class="st1" d="M413.5,372.6c0,3-2.1,4.4-4.1,4.4c-2.2,0-3.9-1.6-3.9-4.2c0-2.8,1.8-4.4,4.1-4.4
			C411.9,368.4,413.5,370.1,413.5,372.6z M406.9,372.7c0,1.8,1,3.2,2.5,3.2c1.4,0,2.5-1.3,2.5-3.2c0-1.4-0.7-3.2-2.5-3.2
			S406.9,371.1,406.9,372.7z"/>
		<path class="st1" d="M415.4,370.8c0-0.9,0-1.5-0.1-2.2h1.3l0.1,1.3h0.1c0.5-0.8,1.2-1.5,2.6-1.5c1.1,0,2,0.7,2.3,1.6h0
			c0.3-0.5,0.6-0.8,0.9-1.1c0.5-0.4,1-0.6,1.8-0.6c1.1,0,2.7,0.7,2.7,3.6v4.8h-1.5v-4.7c0-1.6-0.6-2.5-1.8-2.5
			c-0.9,0-1.5,0.6-1.8,1.4c-0.1,0.2-0.1,0.5-0.1,0.7v5.1h-1.5v-4.9c0-1.3-0.6-2.3-1.7-2.3c-0.9,0-1.6,0.7-1.9,1.5
			c-0.1,0.2-0.1,0.5-0.1,0.7v5h-1.5V370.8z"/>
	</g>
</g>
<g id="Layer_4">
	<path class="st1" d="M350,101.1v2.5c0,1.6-13,7.2-39.1,16.7l-0.6-0.6v-1.9C311.6,115.5,324.8,109.9,350,101.1z M200,112.9h0.6
		c2.9,0,5,2.5,6.2,7.4l-1.8,2.5h-0.7c-2.1-2-4-3.1-5.5-3.1l-1.9,1.8v13.6c0,3-0.6,6.8-1.8,11.2h-0.7c-5.7-8.7-10.8-13-15.5-13
		c-2.9-2.5-4.4-4.5-4.4-6.2c0.3-2.9,1.4-4.4,3.1-4.4c3.1,0,8.2,4.1,15.5,12.4h1.2v-8C194.4,120.8,196.3,116,200,112.9z M296.1,117.2
		c4.1,5.6,7.8,13.8,11.2,24.8v0.6l-1.2,1.2l-1.8-1.2h-1.9l9.9,66.4l1.9,17.4l-0.7,2.5l0.7,3.7c0,3.9-1,9.3-3.1,16.1h-0.6
		c-1.3-0.3-1.9-1.9-1.9-5v-5.6c-2-20.8-7.4-57.8-16.1-110.9v-0.7C293.4,120.3,294.7,117.2,296.1,117.2z M371.7,117.8h1.2
		c7.8,14.4,11.8,23.3,11.8,26.7l-0.7,0.6h-1.2l-3.1-2.5l-1.2,1.2c6.6,45.2,10.7,77.8,12.4,98c-1,16.5-4.4,24.8-9.9,24.8
		c-2.5,2.1-7.2,3.7-14.3,5c-9.7,0-16.1-8.3-19.2-24.8h-1.9c-4.3,10.2-17.1,20.9-38.4,32.2l-11.7,3.1c-8.8,0-13.9-5.8-15.5-17.4
		l0.7-8.1l-0.7-1.8h-2.5c-26.6,18.2-49.3,28.6-68.2,31l-22.9,6.2l-0.7-0.7v-1.8c46.6-19.5,79.3-36.6,98-51.5
		c2.5-1.3,4.4-3.2,5.6-5.5v-0.7c0-1.5-5.4-13.1-16.1-34.7l2.5-8.7h1.2c7.4,6.8,11.3,10.9,11.7,12.4v0.7l-2.5,3.7
		c5.8,11.3,8.7,19.3,8.7,24.1c0,6.4-3.5,13.6-10.5,21.7l-0.7,9.3c1.9,7.1,5.5,10.6,10.6,10.6c12.2,0,28.5-9.7,48.9-29.2l1.9-2.5
		v-1.8c0-12.4-5.2-32.2-15.5-59.5v-1.2l1.2-5.6h1.2c5.8,6.3,11,17.9,15.5,34.7c3.3,25.1,5.8,40.4,7.4,45.9c4,5,7.3,7.4,9.9,7.4h3.7
		c7.2,0,12.8-2.5,16.7-7.4v-7.4l-16.1-114.7l-0.6-2.5C368.6,123.4,369.7,120.3,371.7,117.8z M589.4,117.8c3.3,1.8,5,4.1,5,6.9
		l-1.9,3.7c-2.8-2.1-4.9-3.1-6.2-3.1c-2.5,0-3.7,1.2-3.7,3.7c0,18.6-1.2,27.9-3.7,27.9h-0.6c-5.2-11.6-10.6-17.4-16.1-17.4
		c-3.7-2.5-5.6-4.8-5.6-6.9l1.2-4.3h1.9c3.7,0,9.9,5.6,18.6,16.7c0.7-1.1,1.3-7.1,1.8-17.9C582.8,120.9,585.9,117.8,589.4,117.8z
		 M404.6,118.5c5.1,8.8,9,17.5,11.7,26v1.2l-1.2,1.2l-4.3-3.1l-0.7,0.7v0.6l10.6,95.5c-1,14.8-2.6,22.6-5,23.6h-0.7l-0.6-2.5
		l0.6-0.6c0-8.9-4.7-53.8-14.2-134.6C402.2,121.1,403.4,118.5,404.6,118.5z M625.3,131.5c2.5-8.7,5.2-13,8.1-13s5,3.5,6.1,10.5
		l-0.6,1.9c0,4,1.7,8.1,5,12.4c-0.6,2-1.2,3.1-1.9,3.1c-2.2-1.7-4.1-2.5-5.5-2.5h-0.7c-21.1,19.8-36.1,29.8-45.2,29.8l-0.7,0.7h-0.6
		v-0.7c3.1-2.8,12.4-8.8,27.9-17.9c9.9-7.3,14.9-12.3,14.9-14.9C628.3,138.5,626.1,135.4,625.3,131.5z M453.5,119.7h0.7
		c2.9,1.2,4.3,3.7,4.3,7.4l-0.6,9.3c4.1,4.4,6.2,7.1,6.2,8.1l-0.7,2.5h-1.8l-4.4-3.1h-3.1c-12.3,12.6-22.9,19.9-31.7,21.7H422v-0.7
		c0-0.7,3.9-3.6,11.7-8.7c11.2-7.9,16.8-13.1,16.8-15.5c-2.2-2.9-3.7-5.6-4.4-8.1C446.1,127.1,448.6,122.7,453.5,119.7z
		 M337.6,121.5h0.6c1,0,1.9,2.3,2.5,6.9c0,4.8-2.1,7.7-6.2,8.7l-2.5-0.7h-0.6l-6.9,3.7c-2.9-0.7-4.3-2.6-4.3-5.5v-1.2l0.6-3.1h1.2
		c0,1.8,0.8,3.1,2.5,3.7c3.7,0,5.6-3.5,5.6-10.5h0.6l0.7,0.6c1.1,4.1,2.1,6.2,3.1,6.2h1.2l1.9-1.8l-0.7-5L337.6,121.5z M536,121.5
		l0.6,2.5c0,2-8.9,8-26.6,18l-29.2,17.4l-0.6-0.7v-3.1c5.2-4.8,16.8-12.2,34.7-22.3C525.9,126.3,532.9,122.4,536,121.5z M89,141.4
		c1.8-12,3.8-17.9,6.1-17.9s4.4,2.3,6.3,6.8c-0.6,2.1-1.2,3.1-1.8,3.1c-1.4,0-2.9-0.6-4.4-1.9H94c-0.9,0-1.8,6-2.5,18l-1.2,5
		l-0.6,0.6H89c-5-10.3-8.5-15.5-10.5-15.5c-3.4,0-6.1-2.7-8.1-8.1c0-2.8,1-4.5,3.1-5c2.7,0,7.7,5,14.9,14.9H89z M151.6,123.4h0.6
		c2.3,0,4.8,14.9,7.4,44.6c2.4,49.5,6.9,75.3,13.6,77.5c5,4.1,11.6,6.2,19.8,6.2c10.5,0,22.9-3.9,37.2-11.7l1.2-1.9v-1.2
		c0-1.9-3.3-7.1-9.9-15.5v-1.9l1.2-6.2h1.9c7.8,6.4,11.7,12.8,11.7,19.3c0,10.9-2.9,17.5-8.7,19.8c-14.1,7-26.7,10.5-37.8,10.5
		c-18.6,0-28.9-11.6-31-34.7c-3.3-40.8-6.8-72.8-10.6-96.1C149.5,126.3,150.5,123.4,151.6,123.4z M275,124.7h0.7v2.5l-0.7-0.7h-0.6
		L275,124.7z M629,128.4c0,2.8,2.3,4.8,6.8,6.2l0.7-0.7v-0.6c-0.4-5-1.5-7.4-3.1-7.4h-1.8L629,128.4z M449.8,129v1.2
		c1.2,2.5,2.6,3.7,4.4,3.7l1.2-1.8c-0.3-3.3-0.9-5-1.9-5h-1.8L449.8,129z M261.3,129l0.7,0.7v0.6c0,3.4-7.2,8.1-21.7,14.3L174,181.1
		h-0.7l-0.6-1.8c0-5,12.4-13.4,37.2-25.5c24-13.2,41.2-21.7,51.4-25.4V129z M273.2,130.9l1.2,1.2v6.8c0,4.3,1.8,6.8,5.5,7.4l1.9-3.1
		h1.2v1.2c0,4.7-2.1,7.6-6.2,8.7c-3.3-2.1-5-5.8-5-11.2L273.2,130.9z M329.5,146.3c3.5,0,6.6,3.1,9.3,9.3c-1.8,3.3-3.7,5.6-5.6,6.8
		h-0.6c-5-3.9-7.4-7-7.4-9.3V152C327.4,148.3,328.8,146.4,329.5,146.3z M134.3,150.1c-2.5,12.2-3.7,20.3-3.7,24.2v1.2
		c1.7,5.8,3.5,8.7,5.5,8.7c0.9,0,2.4-1.5,4.4-4.4h0.6c0,6.7-2.3,11.2-6.8,13.6c-5-2.8-7.4-7.1-7.4-13v-3.1
		c1.2-12.1,3.3-21.2,6.2-27.3H134.3z M48.1,155.7h1.2l0.7,1.8c-3.3,12.9-5,21-5,24.2v5.5c1.2,6.6,2.7,9.9,4.4,9.9s3.6-1.4,5.5-4.3
		h0.6c0,6-2.3,10.3-6.8,13c-5.4-2.9-8.1-8-8.1-15.5l0.7-0.7V186C41.3,180.2,43.6,170.1,48.1,155.7z M246.5,161.2h0.7v0.7
		c-2.5,8.9-3.7,16.5-3.7,22.9c0,5,2.1,7.9,6.2,8.7l2.5-6.2h0.6l1.2,1.2v3.7c0,4.1-2.1,7.7-6.2,10.6h-1.2c-4.5-2.3-6.8-7-6.8-14.3
		v-0.6C239.7,179.4,241.9,170.5,246.5,161.2z M541.6,162.5h0.7l-0.7,7.4v2.5c1,4.6,2.3,6.9,3.7,6.9h1.9c1.7-0.8,2.5-2.1,2.5-3.7h1.2
		v1.8c-1.3,6.2-3.3,9.3-6.2,9.3h-0.7c-3.7-2.4-5.5-6.6-5.5-12.4L541.6,162.5z M462.9,164.4c3.4,0,6.9,3.1,10.5,9.3
		c-1.9,5-3.8,7.4-5.5,7.4l-7.4-5.5h-1.2c-1,0.2-2.9,2.7-5.6,7.4H453c-7.1-3-10.6-5.9-10.6-8.7c2.1-5,4-7.4,5.6-7.4l7.4,4.3h1.8
		c1.5-0.7,3.2-3,5-6.8H462.9z M635.8,164.9v1.9l-1.2,2.5H634v-0.7C634.4,166.2,635,164.9,635.8,164.9z M633.3,169.9h0.7
		c0,8.3,1,12.4,3.1,12.4s3.1-0.6,3.1-1.8h1.8c-1.4,5.3-2.8,8-4.3,8h-2.5c-2.9-2.9-4.4-6.2-4.4-9.9L633.3,169.9z M92.1,171.1v5.6
		c0.3,5.8,1.5,8.7,3.7,8.7c1.2,0,1.8-0.6,1.8-1.9h1.9v0.7c-1.2,5-2.5,7.4-3.7,7.4h-2.5c-2.9-1.5-4.4-4.8-4.4-9.9
		C90,174.7,91,171.1,92.1,171.1z M499.4,176.8h0.7c8.7,7.7,13,12.7,13,14.9c-2.5,0.4-3.7,1-3.7,1.8l5,9.9c3.3,6.1,5,11,5,14.9
		c0,11.8-4.7,20.7-14.2,26.7c-2.5,2.1-3.7,5.5-3.7,9.9v5c0,6.5,4.1,11.9,12.4,16.1l9.3,0.6c13.9,0,31.1-11.8,51.5-35.3v-3.1
		c0-1-0.8-1.7-2.5-1.8c-6.1,2-12.1,3.1-18,3.1c-7.8-1.8-11.7-6.1-11.7-13c2.5-13.2,7.7-19.8,15.5-19.8c4.9,0,11.1,5,18.6,14.9
		c3.9,0,10.1-3.9,18.6-11.8l4.4-1.8c0.9,1.9,2,6.2,3.1,13c3.9,3.7,7.4,5.6,10.6,5.6h4.3c7.5,0,14-6.4,19.3-19.3l2.5-1.8h0.6v0.6
		l-1.8,7.4v1.9c3.9,4.5,8.4,6.8,13.6,6.8c3.3-0.5,5-1.3,5-2.5l-3.1-8l1.9-8.7h1.2c3.7,4.4,5.5,9.4,5.5,14.9
		c-1.8,10.7-5.5,16.1-11.2,16.1H647c-2.6,0-7.1-2.7-13.6-8.1c-6.4,6.3-10.5,9.8-12.4,10.6l-6.2,1.2h-4.3c-6.3,0-11.1-4.5-14.3-13.6
		l-1.2-1.2h-0.6c-9.5,5.8-14.3,10.3-14.3,13.6c0,10.3-6,20.2-17.9,29.8c-14.6,13.6-24.9,20.4-31,20.4v-0.6c-3.8,2-7.7,3.1-11.8,3.1
		c-9.5,0-16.8-6.6-21.7-19.8l-0.7-5l0.7-5.5V253h-1.2c-23.1,15.8-40.3,24.9-51.5,27.3l-31.6,6.2v-0.6c1.5-1.7,12.4-6.6,32.8-14.9
		c21.2-10.6,42.7-24.6,64.5-42.2l3.7-5c0-2-4.3-11.5-13-28.5l-3.7-9.3L499.4,176.8z M475.9,186v0.7c0,5.3-3.5,12.9-10.5,22.9
		l9.3,8.7l3.7,8.1c0,10.7-3.7,17.7-11.2,21.1c-5.2,3.3-9.1,5-11.7,5h-1.9c-5,0-7.4-3.7-7.4-11.1s1.9-15.1,5.6-23.1
		c0-0.8-3.5-4.7-10.6-11.7c-4.1-3.8-6.2-7.1-6.2-9.9c0.3-3.7,1-5.6,1.9-5.6c10,3,15.2,5.3,15.5,6.9v0.6c0,0.8-0.6,1.2-1.8,1.2v1.9
		c3,3.3,5.7,5,8,5c0.8,0,4.8-5,11.8-14.9L475.9,186z M193.1,202.1h1.2l-0.6,4.4c0,7.8,1.7,11.7,5,11.7c1.2,0,1.8-0.6,1.8-1.8
		l0.7-0.7h1.2c-0.7,6.2-2.7,9.3-6.1,9.3c-3.4,0-5.1-4.5-5.1-13.6L193.1,202.1z M95.9,210.2c2.9-4,5-6,6.4-6.1
		c1.4-0.1,4.4,2.4,9.1,7.3v1.8c0,2.1-1.4,4.4-4.3,6.9h-0.7c-1.2,0-4.2-1.7-9.3-5l-6.2,6.2h-1.2c-4.6-2.3-7.7-4.5-9.3-6.9
		c0-3.7,1.7-6.6,5-8.7L95.9,210.2z M134.9,212c7.9,5.9,11.8,12.9,11.8,21.1c0,10-5.8,17.3-17.4,21.7c-21.4,9.1-40.6,13.6-57.7,13.6
		s-27.6-6.4-31.6-19.3l-1.9-7.4V240c0-4.3,2.1-10.9,6.2-19.8h1.2v0.6l-2.5,11.8c0,13.4,8.5,21.4,25.5,24.1h2.5
		c24.1,0,46.2-5.6,66.3-16.7l2.5-1.9l0.7-0.6V235c0-2.1-2.7-6.9-8.1-14.3l-0.6-0.6v-0.7C132.5,215.2,133.5,212.8,134.9,212z
		 M550.3,223.2v1.2c0,1.3,2.1,2.1,6.2,2.5c5-0.3,7.4-0.9,7.4-1.8v-0.7c-2-2.9-4.3-4.3-6.8-4.3h-0.7
		C553.3,220.1,551.2,221.2,550.3,223.2z M450.5,233.1v4.4c1.2,2,2.4,3.1,3.7,3.1c6.8,0,12.8-3.3,17.9-9.9v-0.6
		c-1.3-3.1-5.9-6-13.6-8.7h-0.6C454.7,224,452.2,227.9,450.5,233.1z M645.7,249.2h1.2v1.2h0.7c-1.8,8.3-4.9,12.4-9.3,12.4l-5.5-1.2
		c-2.8,2.5-5.5,3.7-8.1,3.7l-5-1.8H616c-2.8,0-10.4,4.3-22.9,13l-8.7,3.1V279c20-14.9,31.8-22.3,35.3-22.3l5,2.5h3.7
		c2.2,0,4.9-2.1,8.1-6.2c0.8,1.7,2.1,2.9,3.7,3.7h2.5C643.8,256.7,644.8,254.2,645.7,249.2z M182.6,266.6c1.7,0,4.5,2.5,8.7,7.4v2.5
		c-2.3,3.7-4,5.8-5,6.2h-1.2c-4.2-3.3-6.9-5-8.1-5l-5,6.2c-5.5-2.5-8.8-5-9.9-7.4c0-2.8,1.9-5.6,5.6-8.7c4.4,3.3,7.3,5,8.7,5
		c0.8,0,2.4-1.8,5-5.5h1.2V266.6z M128.7,267.3h2.5v1.2c0,3.5-7.2,7.7-21.7,12.4l-31,13c-0.8,0-1.2-0.6-1.2-1.8
		c0-2.5,8-6.8,24.1-13.1L128.7,267.3z M272.5,275.3h0.7v0.7c0,3.5-4.5,6.6-13.6,9.3l-16.8,7.4l-1.8-0.6c0-3.6,5.8-7.1,17.4-10.6
		C258.7,280.5,263.5,278.4,272.5,275.3z"/>
</g>
</svg>
