<?xml version="1.0" encoding="utf-8"?>
<!-- Generator: Adobe Illustrator 25.2.3, SVG Export Plug-In . SVG Version: 6.00 Build 0)  -->
<svg version="1.1" xmlns="http://www.w3.org/2000/svg" xmlns:xlink="http://www.w3.org/1999/xlink" x="0px" y="0px"
	 viewBox="0 0 700 395" style="enable-background:new 0 0 700 395;" xml:space="preserve">
<style type="text/css">
	.st0{fill:#000222;}
	.st1{fill:#FFFFFF;}
</style>
<g id="Layer_1">
	<rect class="st0" width="700" height="395"/>
</g>
<g id="Layer_3">
	<g>
		<path class="st1" d="M273.5,368.6l1.1,4.2c0.2,0.9,0.5,1.8,0.6,2.6h0.1c0.2-0.8,0.5-1.7,0.7-2.6l1.3-4.2h1.3l1.3,4.1
			c0.3,1,0.5,1.9,0.7,2.7h0.1c0.1-0.8,0.4-1.7,0.6-2.7l1.2-4.1h1.5l-2.7,8.2H280l-1.3-3.9c-0.3-0.9-0.5-1.7-0.7-2.7h0
			c-0.2,1-0.5,1.8-0.7,2.7l-1.3,3.9h-1.4l-2.5-8.2H273.5z"/>
		<path class="st1" d="M286.3,368.6l1.1,4.2c0.2,0.9,0.5,1.8,0.6,2.6h0.1c0.2-0.8,0.5-1.7,0.7-2.6l1.3-4.2h1.3l1.3,4.1
			c0.3,1,0.5,1.9,0.7,2.7h0.1c0.1-0.8,0.4-1.7,0.6-2.7l1.2-4.1h1.5l-2.7,8.2h-1.4l-1.3-3.9c-0.3-0.9-0.5-1.7-0.7-2.7h0
			c-0.2,1-0.5,1.8-0.7,2.7l-1.3,3.9h-1.4l-2.5-8.2H286.3z"/>
		<path class="st1" d="M299,368.6l1.1,4.2c0.2,0.9,0.5,1.8,0.6,2.6h0.1c0.2-0.8,0.5-1.7,0.7-2.6l1.3-4.2h1.3l1.3,4.1
			c0.3,1,0.5,1.9,0.7,2.7h0.1c0.1-0.8,0.4-1.7,0.6-2.7l1.2-4.1h1.5l-2.7,8.2h-1.4l-1.3-3.9c-0.3-0.9-0.5-1.7-0.7-2.7h0
			c-0.2,1-0.5,1.8-0.7,2.7l-1.3,3.9h-1.4l-2.5-8.2H299z"/>
		<path class="st1" d="M309.9,375.9c0-0.6,0.4-1.1,1-1.1c0.6,0,1,0.4,1,1.1c0,0.6-0.4,1.1-1,1.1C310.3,377,309.9,376.5,309.9,375.9z
			"/>
		<path class="st1" d="M313.5,375.3c0.4,0.3,1.2,0.6,2,0.6c1.1,0,1.6-0.5,1.6-1.2c0-0.7-0.4-1.1-1.5-1.5c-1.5-0.5-2.2-1.3-2.2-2.3
			c0-1.3,1.1-2.4,2.8-2.4c0.8,0,1.6,0.2,2,0.5l-0.4,1.1c-0.3-0.2-0.9-0.5-1.7-0.5c-0.9,0-1.4,0.5-1.4,1.1c0,0.7,0.5,1,1.6,1.4
			c1.4,0.5,2.2,1.3,2.2,2.5c0,1.4-1.1,2.5-3.1,2.5c-0.9,0-1.7-0.2-2.3-0.6L313.5,375.3z"/>
		<path class="st1" d="M327.4,374.6c0,0.9,0,1.6,0.1,2.2h-1.3l-0.1-1.3h0c-0.4,0.7-1.3,1.5-2.7,1.5c-1.3,0-2.8-0.7-2.8-3.6v-4.8h1.5
			v4.6c0,1.6,0.5,2.6,1.8,2.6c1,0,1.7-0.7,2-1.4c0.1-0.2,0.1-0.5,0.1-0.8v-5h1.5V374.6z"/>
		<path class="st1" d="M329.8,371.1c0-1,0-1.8-0.1-2.6h1.3l0.1,1.6h0.1c0.4-1.1,1.3-1.8,2.3-1.8c0.2,0,0.3,0,0.4,0.1v1.4
			c-0.2,0-0.3-0.1-0.5-0.1c-1.1,0-1.8,0.8-2,1.9c0,0.2-0.1,0.4-0.1,0.7v4.4h-1.5V371.1z"/>
		<path class="st1" d="M339.9,376.8l-0.1-1h-0.1c-0.5,0.6-1.3,1.2-2.5,1.2c-1.7,0-2.5-1.2-2.5-2.4c0-2,1.8-3.1,4.9-3.1v-0.2
			c0-0.7-0.2-1.9-1.9-1.9c-0.8,0-1.6,0.2-2.1,0.6l-0.3-1c0.7-0.4,1.7-0.7,2.7-0.7c2.5,0,3.1,1.7,3.1,3.4v3.1c0,0.7,0,1.4,0.1,2
			H339.9z M339.7,372.6c-1.6,0-3.5,0.3-3.5,1.9c0,1,0.6,1.4,1.4,1.4c1.1,0,1.8-0.7,2-1.4c0.1-0.2,0.1-0.3,0.1-0.5V372.6z"/>
		<path class="st1" d="M343.5,364.7h1.5v5.1h0c0.2-0.4,0.6-0.8,1.1-1.1c0.4-0.3,1-0.4,1.5-0.4c1.1,0,2.9,0.7,2.9,3.5v4.9H349v-4.7
			c0-1.3-0.5-2.4-1.9-2.4c-1,0-1.7,0.7-2,1.5c-0.1,0.2-0.1,0.4-0.1,0.7v5h-1.5V364.7z"/>
		<path class="st1" d="M358.6,375.5L358.6,375.5c-0.5,0.8-1.4,1.5-2.7,1.5c-1.9,0-3.5-1.7-3.5-4.2c0-3.1,2-4.4,3.7-4.4
			c1.3,0,2.1,0.6,2.5,1.4h0l0.1-1.2h1.4c0,0.7-0.1,1.4-0.1,2.3v9.3h-1.5V375.5z M358.6,371.9c0-0.2,0-0.4-0.1-0.6
			c-0.2-0.9-1-1.7-2.1-1.7c-1.5,0-2.5,1.3-2.5,3.2c0,1.6,0.8,3.1,2.4,3.1c1,0,1.8-0.6,2.1-1.6c0.1-0.2,0.1-0.5,0.1-0.7V371.9z"/>
		<path class="st1" d="M369.4,374.6c0,0.9,0,1.6,0.1,2.2h-1.3l-0.1-1.3h0c-0.4,0.7-1.3,1.5-2.7,1.5c-1.3,0-2.8-0.7-2.8-3.6v-4.8h1.5
			v4.6c0,1.6,0.5,2.6,1.8,2.6c1,0,1.7-0.7,2-1.4c0.1-0.2,0.1-0.5,0.1-0.8v-5h1.5V374.6z"/>
		<path class="st1" d="M371.9,371.1c0-1,0-1.8-0.1-2.6h1.3l0.1,1.6h0.1c0.4-1.1,1.3-1.8,2.3-1.8c0.2,0,0.3,0,0.4,0.1v1.4
			c-0.2,0-0.3-0.1-0.5-0.1c-1.1,0-1.8,0.8-2,1.9c0,0.2-0.1,0.4-0.1,0.7v4.4h-1.5V371.1z"/>
		<path class="st1" d="M381.9,376.8l-0.1-1h-0.1c-0.5,0.6-1.3,1.2-2.5,1.2c-1.7,0-2.5-1.2-2.5-2.4c0-2,1.8-3.1,4.9-3.1v-0.2
			c0-0.7-0.2-1.9-1.9-1.9c-0.8,0-1.6,0.2-2.1,0.6l-0.3-1c0.7-0.4,1.7-0.7,2.7-0.7c2.5,0,3.1,1.7,3.1,3.4v3.1c0,0.7,0,1.4,0.1,2
			H381.9z M381.7,372.6c-1.6,0-3.5,0.3-3.5,1.9c0,1,0.6,1.4,1.4,1.4c1.1,0,1.8-0.7,2-1.4c0.1-0.2,0.1-0.3,0.1-0.5V372.6z"/>
		<path class="st1" d="M385.6,370.8c0-0.9,0-1.5-0.1-2.2h1.3l0.1,1.4h0c0.4-0.8,1.4-1.5,2.7-1.5c1.1,0,2.9,0.7,2.9,3.5v4.9h-1.5
			v-4.7c0-1.3-0.5-2.4-1.9-2.4c-1,0-1.8,0.7-2,1.5c-0.1,0.2-0.1,0.4-0.1,0.7v4.9h-1.5V370.8z"/>
		<path class="st1" d="M394.6,375.9c0-0.6,0.4-1.1,1-1.1c0.6,0,1,0.4,1,1.1c0,0.6-0.4,1.1-1,1.1C395,377,394.6,376.5,394.6,375.9z"
			/>
		<path class="st1" d="M404.4,376.5c-0.4,0.2-1.3,0.5-2.4,0.5c-2.5,0-4.1-1.7-4.1-4.2c0-2.5,1.7-4.4,4.4-4.4c0.9,0,1.7,0.2,2.1,0.4
			l-0.3,1.2c-0.4-0.2-0.9-0.4-1.7-0.4c-1.9,0-2.9,1.4-2.9,3.1c0,1.9,1.2,3.1,2.9,3.1c0.8,0,1.4-0.2,1.8-0.4L404.4,376.5z"/>
		<path class="st1" d="M413.5,372.6c0,3-2.1,4.4-4.1,4.4c-2.2,0-3.9-1.6-3.9-4.2c0-2.8,1.8-4.4,4.1-4.4
			C411.9,368.4,413.5,370.1,413.5,372.6z M406.9,372.7c0,1.8,1,3.2,2.5,3.2c1.4,0,2.5-1.3,2.5-3.2c0-1.4-0.7-3.2-2.5-3.2
			S406.9,371.1,406.9,372.7z"/>
		<path class="st1" d="M415.4,370.8c0-0.9,0-1.5-0.1-2.2h1.3l0.1,1.3h0.1c0.5-0.8,1.2-1.5,2.6-1.5c1.1,0,2,0.7,2.3,1.6h0
			c0.3-0.5,0.6-0.8,0.9-1.1c0.5-0.4,1-0.6,1.8-0.6c1.1,0,2.7,0.7,2.7,3.6v4.8h-1.5v-4.7c0-1.6-0.6-2.5-1.8-2.5
			c-0.9,0-1.5,0.6-1.8,1.4c-0.1,0.2-0.1,0.5-0.1,0.7v5.1h-1.5v-4.9c0-1.3-0.6-2.3-1.7-2.3c-0.9,0-1.6,0.7-1.9,1.5
			c-0.1,0.2-0.1,0.5-0.1,0.7v5h-1.5V370.8z"/>
	</g>
</g>
<g id="Layer_4">
	<path class="st1" d="M298.2,108.5c3.2,0.6,4.9,3.7,4.9,9.2l-0.6,6.7c2.9,2.2,4.3,4.7,4.3,7.3l-1.9,2.4h-0.6c-1.5-1.2-3-1.8-4.3-1.8
		h-0.6c-11.9,12.8-21,20.3-27.5,22.5h-0.6v-0.6c16.6-15.6,24.9-23.9,24.9-25v-0.6c-4.1-4.7-6.1-7.7-6.1-9.2
		C290.3,114.2,292.9,110.6,298.2,108.5z M329.3,109.8c7.7,14.5,11.6,23.6,11.6,27.5v1.2l-1.2,1.2H339l-2.4-1.9h-1.2v1.9l8,57.3
		c0,16.3-7.3,26.6-21.9,31c-8.1,3.2-32.9,7.5-74.3,12.8c-1.4,0.4-2.6,3.1-3.7,7.9c-3.4,10.8-18.3,22.4-44.5,34.8c-7,2-12.1,3-15.2,3
		c-13-2.5-19.5-7.8-19.5-15.8c-1,0-1.6-3.2-1.9-9.7l3.1-19.5h-0.6L141,253c-4.3,2.3-18.3,5.2-42.1,8.5c0,0.8-2.8,1.4-8.5,1.8v-0.6
		c4.2-3,13.3-6.9,27.5-11.6c25.6-10,48.6-22.6,68.8-37.8c4.1-4,6.1-6.8,6.1-8.5v-3.7c-11.4-19.9-17.1-31.5-17.1-34.7
		c1.4-6.1,2.6-9.2,3.7-9.2l11.6,12.2v1.2c0,1-1,1.6-3.1,1.9v2.4c6.9,10.5,10.4,18.4,10.4,23.7c0,13.4-7.1,24.4-21.4,32.9
		c-5.8,3-8.8,9.7-9.1,20.1v7.3c1.9,9.7,6.6,14.6,14,14.6h9.2c12.6-1.6,27.2-9.7,43.9-24.4c0-1.2,1-2.9,3-4.9v-0.6l-1.2-1.2h-12.2
		c-7.2,0-11.9-3.2-14-9.7l-0.6-4.2c3.4-11,8.6-16.5,15.8-16.5c3.2,0,8.9,5.7,17.1,17.1h3.1c4.1,0,8.9-4.7,14.6-14l1.2-9.7v-0.6
		c0-8.4-4.3-37.2-12.8-86.5c1.6-4,2.8-6,3.7-6.1c8.1,13.4,12.2,22,12.2,25.6l-1.2,1.2l-3.7-1.8v3.7l7.3,44.4l0.6,11l-1.2,10.4
		l1.2,1.8c15.7-14.2,26-21.3,31-21.3l6.1-0.6c13.8,2.7,20.7,6.5,20.7,11.6l0.6,2.4l-4.9,17.1h0.6c10.2-2.7,15.3-6.2,15.3-10.4v-2.4
		c-4.1-26-7.9-54.4-11.6-85.3l-0.6-0.6C326.7,112.8,328.1,109.8,329.3,109.8z M359.2,111c1.4,0.9,5.6,11,12.8,30.5l-0.6,2.4h-1.2
		c-2.2-2-3.8-3-4.9-3v1.8c7.3,54.7,11,85.1,11,91.4c-1,11.9-2.4,18.2-4.3,18.9h-1.8v-3.1l-0.6-0.6l0.6-0.6v-0.6
		c-7.7-74-12.8-116.5-15.3-127.4C356.4,114.2,357.8,111,359.2,111z M176.9,112.8c2.3,0,3.8,2.2,4.3,6.7v0.6l-1.2,1.2h-0.6
		c-1.5-1.2-2.9-1.9-4.2-1.9c-0.9,0-1.5,2.4-1.9,7.3l0.6,3.1l-2.4,14h-1.2c-4.2-8-8-13-11.6-15.2c-5,10.6-9.1,16.7-12.2,18.3
		c-7.9,5.7-13.1,8.5-15.8,8.5v-0.6c15.9-12.5,23.8-20.8,23.8-24.9v-1.2c-3.2-2.5-4.9-4.6-4.9-6.1c0.8-3.7,1.6-5.5,2.4-5.5h2.4
		c5.4,2.6,10.4,7.5,15.2,14.6h0.6C170.9,119.1,173.2,112.8,176.9,112.8z M294.6,117.1v0.6c0,0.8,1.4,2,4.2,3.7l1.2-1.2v-0.6
		c0-2.8-1-4.2-3-4.2L294.6,117.1z M408.5,115.3c1.5,0,2.7,2.2,3.7,6.7l-1.2,9.7c4.1,3.4,6.1,6.3,6.1,8.5l-0.6,2.4h-1.9l-5.4-3.7
		h-0.6c-1.5,0-4.7,2.7-9.7,8c-4,3.6-11.3,7.9-21.9,12.8h-1.2l-1.2-1.2l13.4-8.5c8-5.3,13.3-10,15.8-14c-2.8-4.5-4.2-7.6-4.2-9.2
		C401.6,119.1,404.6,115.3,408.5,115.3z M223.9,116.5h0.6l-5.4,17.6v8.5c0.9,5.7,2.1,8.5,3.7,8.5h2.4c0.9,0,1.9-1.8,3-5.4h1.2v0.6
		c0,7-1.8,11.9-5.4,14.6h-2.4c-4.9-4.1-7.3-9.3-7.3-15.8C216.1,132.2,219.3,122.7,223.9,116.5z M540.8,117.7
		c3.2,1.6,4.9,3.7,4.9,6.1c0,2.5-0.6,3.9-1.9,4.2l-4.9-3.7h-1.8c-2.4,0-3.7,7.7-3.7,23.2l-2.4,8.5l-0.6,0.6h-0.6l-0.6-0.6
		c-4.8-12.2-10.3-18.3-16.4-18.3c-2.3-1.7-3.7-3.5-4.3-5.4c0-3,1-5.1,3.1-6.1c3.8,0.8,9.7,6.3,17.6,16.4h1.2
		c0-12.8,2.2-20.7,6.7-23.7L540.8,117.7z M488.4,119.5h0.6v2.4c0,2.1-7.3,6.9-21.9,14.6c-21.3,12.2-32.7,18.3-34.1,18.3v-0.6
		l-0.6-0.6v-0.6c0-2.7,4.9-6.4,14.6-11C454.6,136.8,468.4,129.3,488.4,119.5z M584,120.2h1.9c2.4,0,4.1,4.7,4.9,14l-0.6,2.4
		c2.9,4.4,4.3,7.2,4.3,8.5l-0.6,1.9h-2.4l-4.9-2.4c-19.2,18-35,27.8-47.5,29.2v-0.6c2.3-2.5,7.4-5.6,15.3-9.1
		c1.3-1.6,8.8-6.7,22.5-15.3l6.1-6.1c-4.4-5.4-6.7-8.6-6.7-9.7C576.1,128.3,578.7,124.1,584,120.2z M404.3,123.8v2.4l2.4,2.4h0.6
		l1.2-1.2v-3.1l-1.8-1.8h-1.2L404.3,123.8z M579.8,131.1l4.9,3.7h1.2l1.2-1.2v-1.9c0-2.2-1-3.8-3.1-4.9
		C581.2,126.8,579.8,128.3,579.8,131.1z M310.4,149.4h0.6l3.7,11.5c-0.7,6.1-2.9,9.2-6.7,9.2c-1.4,0-3.2-0.8-5.5-2.4h-0.6
		c-3,3.6-5.7,5.4-8,5.4c-2.8,0-4.8-2-6.1-6.1c0.5-7.3,1.4-11,2.4-11l1.2,2.4l-0.6,3.1c0,2.2,0.8,3.6,2.4,4.2h1.8
		c3.2,0,4.9-1.8,4.9-5.4v-7.3l0.6-3.1h0.6c0.8,0,1.8,3.1,3.1,9.2c1.6,2.4,3.4,3.7,5.4,3.7l0.6-0.6v-0.6l-1.9-8
		C309,150.8,309.6,149.4,310.4,149.4z M148.9,159.2v2.4c-2.4,10.2-3.7,18-3.7,23.2v4.2c0,7.4,2.4,11.8,7.3,13.4
		c1.6-2.3,2.4-4.3,2.4-6.1h0.6c0.8,0,1.2,0.6,1.2,1.9c0,6.6-2,11.1-6.1,13.4h-0.6c-6.1-1.8-9.1-8.1-9.1-18.9
		c0-5.8,2.2-16.8,6.7-32.9l0.6-0.6H148.9z M415.2,159.2h1.2c6.1,4.7,9.1,8.1,9.1,10.3c-1.9,4.3-3.9,6.7-6.1,7.3l-7.9-6.1
		c-0.6,0-2.7,2.4-6.1,7.3h-0.6c-6.5-2.3-9.7-5.2-9.7-8.5c1.2-4.4,2.9-7.1,4.9-7.9h1.2l6.7,4.2h1.8c0.8,0,2-1.6,3.7-4.9L415.2,159.2z
		 M493.2,159.2h0.6v0.6l-1.2,10.4c1.6,4.9,3.1,7.3,4.3,7.3h1.2l0.6-0.6c0.8,0,1.2-1,1.2-3l0.6-0.6h0.6l0.6,0.6h0.6
		c0,5.7-2,9.4-6.1,11c-4.4-1.2-6.7-5.1-6.7-11.6C489.6,169.8,490.8,165.2,493.2,159.2z M586.4,164v0.6c-2,5.6-3,9.5-3,11.6
		c0.9,4.1,1.9,6.1,3,6.1h1.9c1.2,0,1.8-0.8,1.8-2.4h1.2v0.6c-0.6,5.7-2.6,8.5-6.1,8.5c-2.1,0-3.7-3-4.9-9.1
		C580.3,174.7,582.4,169.4,586.4,164z M226.9,170.7h0.6v0.6l-1.2,12.2c1.7,4.4,3.1,6.7,4.2,6.7h0.6c1,0,1.8-1.4,2.4-4.2h1.2l0.6,1.8
		c-1.5,6.5-3.3,9.7-5.4,9.7c-3.7,0-5.9-4.5-6.7-13.4C223.3,181.8,224.5,177.3,226.9,170.7z M451.8,173.1
		c8.5,8.3,12.8,13.2,12.8,14.6c-2.8,0.6-4.2,1.2-4.2,1.9l8.5,19.5l0.6,3.7c0,13-5.5,22.5-16.4,28.6c-1.6,3.4-2.4,6.7-2.4,9.7
		c0,9.4,3.8,15.7,11.5,18.9c1.6,0.8,3.8,1.2,6.7,1.2h0.6c16,0,33.4-10.6,52.4-31.7l1.9-2.4v-1.2l-1.9-2.4c-6.3,1.6-12,2.4-17.1,2.4
		c-8.5-0.8-12.8-4.9-12.8-12.2c0-9.6,4.5-16.1,13.4-19.5h1.2c5.7,0,12.2,4.9,19.5,14.6h2.4l18.8-12.2c1.9,0.5,2.9,1.4,3.1,2.4
		l-0.6,5.4c1.4,6.9,6.1,10.4,14.1,10.4h1.2c7.4,0,14.5-6.7,21.3-20.1h1.9v1.2h0.6c-1.6,2.8-2.4,5.6-2.4,8.5s4.5,5.2,13.4,6.8
		c2.9-0.4,4.3-1.1,4.3-1.9l-3.1-7.3c0.5-5.6,1.6-8.7,3.1-9.1h0.6c1.5,0,3.1,4.1,4.9,12.2c-1,12.2-5.3,18.3-12.8,18.3
		c-5.1-0.7-10.4-3.5-15.8-8.5h-1.2c-4.2,7.3-10.3,11-18.3,11h-0.6c-7.6,0-12.9-4.3-15.8-12.8l-0.6-2.4h-1.9
		c-9.3,6.2-14,10.5-14,12.8c0,10.6-6.7,20.9-20.1,31c-13.6,12.6-27.7,18.9-42,18.9c-7.7-2.1-12.4-4.8-14.1-8
		c-2.5-2.7-4.6-7-6.1-12.8v-4.3l0.6-10.3h-0.6c-1.1,0-7,3.2-17.6,9.7c-12.5,8.8-29.5,14.7-51.2,17.6l-13.4,2.4l-0.6-0.6v-1.9
		c18.1-4.8,43.7-17,76.8-36.6c13.1-8.7,21-15.2,23.8-19.5V217c-6.2-12.1-11.3-23.9-15.3-35.3C450,176,451,173.1,451.8,173.1z
		 M427.4,181.1l0.6,0.6c-1,6.3-4.9,13.9-11.5,22.6v1.2c8.1,5,12.2,10.7,12.2,17.1c0,10.7-7.3,18.4-21.9,23.2h-2.4
		c-5.3,0-8-3.9-8-11.6c0-6.1,2-13.4,6.1-21.9c0-1.6-4.1-6.2-12.2-14c-2-2.1-3-4-3-5.5v-4.2c0-2.2,0.8-3.6,2.4-4.3l14.6,8v0.6
		c0,0.8-0.6,1.2-1.9,1.2l-0.6,0.6v1.2c0.3,1,2.4,2.7,6.1,4.9h2.4L427.4,181.1z M258.6,226.2v1.2c9,0,24.9-3.2,47.5-9.7
		c8.1-4.4,12.4-7.5,12.8-9.2v-1.2c-3.6-6.1-10.9-9.1-21.9-9.1C289.5,198.1,276.7,207.5,258.6,226.2z M400.6,229.8
		c0.5,1.7,1.5,2.9,3,3.7h4.9c5.1-1.4,9.6-4,13.4-8V225c0-3.2-4.3-6.4-12.8-9.7h-0.6C403.2,220.3,400.6,225.2,400.6,229.8z
		 M499.3,220.7c0,1.5,2.2,2.5,6.7,3.1h3.7c2.1,0,3.3-0.6,3.7-1.9v-0.6c-1.5-2.4-3.9-3.7-7.3-3.7h-0.6
		C502.2,217.6,500.2,218.7,499.3,220.7z M218.4,227.4c0,1.8,3.7,2.8,11,3v-0.6c0-1.8-1.4-3.5-4.2-4.9h-4.3L218.4,227.4z
		 M343.3,240.2h0.6l-1.2,12.2c1.2,4.5,2.5,6.7,3.7,6.7h0.6c0.9,0,1.5-1,1.8-3.1h1.2v1.2h0.6c-1.4,5.7-2.8,8.5-4.3,8.5h-0.6
		c-3.1,0-5.1-2.6-6.1-7.9v-8C340.9,243.4,342.1,240.2,343.3,240.2z M292.2,242.6c2.5,0,4.6,2.7,6.1,8l-0.6,3h-1.8l-3.7-3h-1.9
		l-1.2,1.2v6.1c0,5.5-1,11.2-3,17.1h-1.9c-3.9-9.7-8.8-14.6-14.6-14.6c-2.4-1.9-3.7-3.8-3.7-5.5c0.8-3.2,1.6-4.9,2.4-4.9h1.2
		c2.7,0,7.7,4.3,15.3,12.8h0.6C285.5,251.3,287.8,244.6,292.2,242.6z M593.7,247.5h0.6v1.2h0.6c-2,8.6-4.8,12.8-8.5,12.8v0.6
		l-4.9-1.2H581c-4.4,2.1-7.6,3.1-9.7,3.1l-4.9-2.4c-5.3,0-11.4,2.6-18.3,7.9c-7.1,4.5-12.6,6.7-16.5,6.7h-1.2
		c21-14.2,33.2-21.4,36.6-21.4c3.1,1.6,5.5,2.4,7.3,2.4h0.6c2.5,0,5.3-2,8.5-6.1c1.8,2.4,3.6,3.7,5.4,3.7h1.2
		C591.8,249.9,593,247.5,593.7,247.5z M152,259.7l1.8,1.2c0,3.8-5.1,7.3-15.2,10.4c-12.1,5.4-20.8,8.8-26.2,10.3
		c-0.8,0-1.2-0.6-1.2-1.8c0-2.5,12-8.4,36-17.7L152,259.7z"/>
</g>
</svg>
