<?xml version="1.0" encoding="utf-8"?>
<!-- Generator: Adobe Illustrator 25.2.3, SVG Export Plug-In . SVG Version: 6.00 Build 0)  -->
<svg version="1.1" xmlns="http://www.w3.org/2000/svg" xmlns:xlink="http://www.w3.org/1999/xlink" x="0px" y="0px"
	 viewBox="0 0 700 395" style="enable-background:new 0 0 700 395;" xml:space="preserve">
<style type="text/css">
	.st0{fill:#000222;}
	.st1{fill:#FFFFFF;}
</style>
<g id="Layer_1">
	<rect class="st0" width="700" height="395"/>
</g>
<g id="Layer_3">
	<g>
		<path class="st1" d="M273.5,368.6l1.1,4.2c0.2,0.9,0.5,1.8,0.6,2.6h0.1c0.2-0.8,0.5-1.7,0.7-2.6l1.3-4.2h1.3l1.3,4.1
			c0.3,1,0.5,1.9,0.7,2.7h0.1c0.1-0.8,0.4-1.7,0.6-2.7l1.2-4.1h1.5l-2.7,8.2H280l-1.3-3.9c-0.3-0.9-0.5-1.7-0.7-2.7h0
			c-0.2,1-0.5,1.8-0.7,2.7l-1.3,3.9h-1.4l-2.5-8.2H273.5z"/>
		<path class="st1" d="M286.3,368.6l1.1,4.2c0.2,0.9,0.5,1.8,0.6,2.6h0.1c0.2-0.8,0.5-1.7,0.7-2.6l1.3-4.2h1.3l1.3,4.1
			c0.3,1,0.5,1.9,0.7,2.7h0.1c0.1-0.8,0.4-1.7,0.6-2.7l1.2-4.1h1.5l-2.7,8.2h-1.4l-1.3-3.9c-0.3-0.9-0.5-1.7-0.7-2.7h0
			c-0.2,1-0.5,1.8-0.7,2.7l-1.3,3.9h-1.4l-2.5-8.2H286.3z"/>
		<path class="st1" d="M299,368.6l1.1,4.2c0.2,0.9,0.5,1.8,0.6,2.6h0.1c0.2-0.8,0.5-1.7,0.7-2.6l1.3-4.2h1.3l1.3,4.1
			c0.3,1,0.5,1.9,0.7,2.7h0.1c0.1-0.8,0.4-1.7,0.6-2.7l1.2-4.1h1.5l-2.7,8.2h-1.4l-1.3-3.9c-0.3-0.9-0.5-1.7-0.7-2.7h0
			c-0.2,1-0.5,1.8-0.7,2.7l-1.3,3.9h-1.4l-2.5-8.2H299z"/>
		<path class="st1" d="M309.9,375.9c0-0.6,0.4-1.1,1-1.1c0.6,0,1,0.4,1,1.1c0,0.6-0.4,1.1-1,1.1C310.3,377,309.9,376.5,309.9,375.9z
			"/>
		<path class="st1" d="M313.5,375.3c0.4,0.3,1.2,0.6,2,0.6c1.1,0,1.6-0.5,1.6-1.2c0-0.7-0.4-1.1-1.5-1.5c-1.5-0.5-2.2-1.3-2.2-2.3
			c0-1.3,1.1-2.4,2.8-2.4c0.8,0,1.6,0.2,2,0.5l-0.4,1.1c-0.3-0.2-0.9-0.5-1.7-0.5c-0.9,0-1.4,0.5-1.4,1.1c0,0.7,0.5,1,1.6,1.4
			c1.4,0.5,2.2,1.3,2.2,2.5c0,1.4-1.1,2.5-3.1,2.5c-0.9,0-1.7-0.2-2.3-0.6L313.5,375.3z"/>
		<path class="st1" d="M327.4,374.6c0,0.9,0,1.6,0.1,2.2h-1.3l-0.1-1.3h0c-0.4,0.7-1.3,1.5-2.7,1.5c-1.3,0-2.8-0.7-2.8-3.6v-4.8h1.5
			v4.6c0,1.6,0.5,2.6,1.8,2.6c1,0,1.7-0.7,2-1.4c0.1-0.2,0.1-0.5,0.1-0.8v-5h1.5V374.6z"/>
		<path class="st1" d="M329.8,371.1c0-1,0-1.8-0.1-2.6h1.3l0.1,1.6h0.1c0.4-1.1,1.3-1.8,2.3-1.8c0.2,0,0.3,0,0.4,0.1v1.4
			c-0.2,0-0.3-0.1-0.5-0.1c-1.1,0-1.8,0.8-2,1.9c0,0.2-0.1,0.4-0.1,0.7v4.4h-1.5V371.1z"/>
		<path class="st1" d="M339.9,376.8l-0.1-1h-0.1c-0.5,0.6-1.3,1.2-2.5,1.2c-1.7,0-2.5-1.2-2.5-2.4c0-2,1.8-3.1,4.9-3.1v-0.2
			c0-0.7-0.2-1.9-1.9-1.9c-0.8,0-1.6,0.2-2.1,0.6l-0.3-1c0.7-0.4,1.7-0.7,2.7-0.7c2.5,0,3.1,1.7,3.1,3.4v3.1c0,0.7,0,1.4,0.1,2
			H339.9z M339.7,372.6c-1.6,0-3.5,0.3-3.5,1.9c0,1,0.6,1.4,1.4,1.4c1.1,0,1.8-0.7,2-1.4c0.1-0.2,0.1-0.3,0.1-0.5V372.6z"/>
		<path class="st1" d="M343.5,364.7h1.5v5.1h0c0.2-0.4,0.6-0.8,1.1-1.1c0.4-0.3,1-0.4,1.5-0.4c1.1,0,2.9,0.7,2.9,3.5v4.9H349v-4.7
			c0-1.3-0.5-2.4-1.9-2.4c-1,0-1.7,0.7-2,1.5c-0.1,0.2-0.1,0.4-0.1,0.7v5h-1.5V364.7z"/>
		<path class="st1" d="M358.6,375.5L358.6,375.5c-0.5,0.8-1.4,1.5-2.7,1.5c-1.9,0-3.5-1.7-3.5-4.2c0-3.1,2-4.4,3.7-4.4
			c1.3,0,2.1,0.6,2.5,1.4h0l0.1-1.2h1.4c0,0.7-0.1,1.4-0.1,2.3v9.3h-1.5V375.5z M358.6,371.9c0-0.2,0-0.4-0.1-0.6
			c-0.2-0.9-1-1.7-2.1-1.7c-1.5,0-2.5,1.3-2.5,3.2c0,1.6,0.8,3.1,2.4,3.1c1,0,1.8-0.6,2.1-1.6c0.1-0.2,0.1-0.5,0.1-0.7V371.9z"/>
		<path class="st1" d="M369.4,374.6c0,0.9,0,1.6,0.1,2.2h-1.3l-0.1-1.3h0c-0.4,0.7-1.3,1.5-2.7,1.5c-1.3,0-2.8-0.7-2.8-3.6v-4.8h1.5
			v4.6c0,1.6,0.5,2.6,1.8,2.6c1,0,1.7-0.7,2-1.4c0.1-0.2,0.1-0.5,0.1-0.8v-5h1.5V374.6z"/>
		<path class="st1" d="M371.9,371.1c0-1,0-1.8-0.1-2.6h1.3l0.1,1.6h0.1c0.4-1.1,1.3-1.8,2.3-1.8c0.2,0,0.3,0,0.4,0.1v1.4
			c-0.2,0-0.3-0.1-0.5-0.1c-1.1,0-1.8,0.8-2,1.9c0,0.2-0.1,0.4-0.1,0.7v4.4h-1.5V371.1z"/>
		<path class="st1" d="M381.9,376.8l-0.1-1h-0.1c-0.5,0.6-1.3,1.2-2.5,1.2c-1.7,0-2.5-1.2-2.5-2.4c0-2,1.8-3.1,4.9-3.1v-0.2
			c0-0.7-0.2-1.9-1.9-1.9c-0.8,0-1.6,0.2-2.1,0.6l-0.3-1c0.7-0.4,1.7-0.7,2.7-0.7c2.5,0,3.1,1.7,3.1,3.4v3.1c0,0.7,0,1.4,0.1,2
			H381.9z M381.7,372.6c-1.6,0-3.5,0.3-3.5,1.9c0,1,0.6,1.4,1.4,1.4c1.1,0,1.8-0.7,2-1.4c0.1-0.2,0.1-0.3,0.1-0.5V372.6z"/>
		<path class="st1" d="M385.6,370.8c0-0.9,0-1.5-0.1-2.2h1.3l0.1,1.4h0c0.4-0.8,1.4-1.5,2.7-1.5c1.1,0,2.9,0.7,2.9,3.5v4.9h-1.5
			v-4.7c0-1.3-0.5-2.4-1.9-2.4c-1,0-1.8,0.7-2,1.5c-0.1,0.2-0.1,0.4-0.1,0.7v4.9h-1.5V370.8z"/>
		<path class="st1" d="M394.6,375.9c0-0.6,0.4-1.1,1-1.1c0.6,0,1,0.4,1,1.1c0,0.6-0.4,1.1-1,1.1C395,377,394.6,376.5,394.6,375.9z"
			/>
		<path class="st1" d="M404.4,376.5c-0.4,0.2-1.3,0.5-2.4,0.5c-2.5,0-4.1-1.7-4.1-4.2c0-2.5,1.7-4.4,4.4-4.4c0.9,0,1.7,0.2,2.1,0.4
			l-0.3,1.2c-0.4-0.2-0.9-0.4-1.7-0.4c-1.9,0-2.9,1.4-2.9,3.1c0,1.9,1.2,3.1,2.9,3.1c0.8,0,1.4-0.2,1.8-0.4L404.4,376.5z"/>
		<path class="st1" d="M413.5,372.6c0,3-2.1,4.4-4.1,4.4c-2.2,0-3.9-1.6-3.9-4.2c0-2.8,1.8-4.4,4.1-4.4
			C411.9,368.4,413.5,370.1,413.5,372.6z M406.9,372.7c0,1.8,1,3.2,2.5,3.2c1.4,0,2.5-1.3,2.5-3.2c0-1.4-0.7-3.2-2.5-3.2
			S406.9,371.1,406.9,372.7z"/>
		<path class="st1" d="M415.4,370.8c0-0.9,0-1.5-0.1-2.2h1.3l0.1,1.3h0.1c0.5-0.8,1.2-1.5,2.6-1.5c1.1,0,2,0.7,2.3,1.6h0
			c0.3-0.5,0.6-0.8,0.9-1.1c0.5-0.4,1-0.6,1.8-0.6c1.1,0,2.7,0.7,2.7,3.6v4.8h-1.5v-4.7c0-1.6-0.6-2.5-1.8-2.5
			c-0.9,0-1.5,0.6-1.8,1.4c-0.1,0.2-0.1,0.5-0.1,0.7v5.1h-1.5v-4.9c0-1.3-0.6-2.3-1.7-2.3c-0.9,0-1.6,0.7-1.9,1.5
			c-0.1,0.2-0.1,0.5-0.1,0.7v5h-1.5V370.8z"/>
	</g>
</g>
<g id="Layer_4">
	<path class="st1" d="M368.8,106.3h0.6c6.2,11.6,10.9,22.6,14,33.1l-0.6,1.9h-1.3l-4.5-3.8l-0.6,0.7h-0.7l9.6,92.8v1.9
		c-0.8,15.7-2.5,24-5.1,24.8l-1.3-1.3l0.6-10.8c-8-75.8-12.9-118.4-14.6-127.7l-0.7-0.7C366,110.8,367.5,107.2,368.8,106.3z
		 M556.3,106.9h3.2c1.2,0,2.7,2.3,4.4,7c-0.6,2.5-1.2,3.8-1.9,3.8h-1.3l-3.8-3.2h-2.5c-1.7,0.7-2.5,2.2-2.5,4.5v1.9
		c0,12.7-0.8,21.6-2.5,26.7h-1.3c-6.3-11.4-11.4-17.1-15.3-17.1c-5.1-1.9-7.6-4.5-7.6-7.6h-0.7c0.8-3.4,1.7-5.1,2.5-5.1h1.3
		c4.4,0,10.5,5.3,18.5,15.9h1.3v-9.5C548.1,116.8,550.8,111.1,556.3,106.9z M604.6,107.6c3.1,0,5.2,6.6,6.4,19.7
		c2.5,1.5,3.8,3.6,3.8,6.4c-0.4,1.7-1.2,2.5-2.5,2.5l-5.1-2.5c-18.8,17.9-35.1,28.5-48.9,31.8v-1.3c1.4-1.6,8.8-6.5,22.2-14.6
		c14.4-9.9,21.6-16.2,21.6-19.1c-4.2-3.2-6.4-6-6.4-8.3C596.6,112.4,599.6,107.6,604.6,107.6z M334.4,108.2c5,7.3,9.7,16.9,14,28.7
		l-0.7,1.9c-1.6,0-3.5-1-5.7-3.1h-1.3v0.6C347.6,183,351,209.3,351,215v8.3c0,17-6.8,25.4-20.3,25.4c-7.2,0-13-4-17.2-12.1
		c-8.9,11.5-18.7,17.2-29.2,17.2c-12.7-1.6-19.1-7.4-19.1-17.2h-0.6l0.6-3.1v-2.5l-1.3-1.3h-0.6c-6.1,0-17.1,4.4-33.1,13.3
		c-11.3,5.5-21.1,8.3-29.2,8.3l-10.2-0.7l-1.3,1.9v3.1c0,5.9-1.3,8.9-3.8,8.9c-11-3.4-16.5-9.1-16.5-17.1c-1.4-4.7-2.6-7-3.8-7h-7.6
		c-13.5,1.2-31.5,13.8-54.1,37.6c-7.6,7.2-14.1,10.8-19.7,10.8c-8.3,0-14-6.8-17.2-20.3V264c0-7.6,3.6-17,10.8-28
		c1.2-1,1.9-2.5,1.9-4.5v-0.6l-4.4-12.7c0-8.2,3.2-20.7,9.5-37.6h1.3v0.7l-5.1,20.3l-0.6,8.2v0.7c0,6.6,2.1,10.6,6.4,12h0.6
		c1.2-0.1,2.5-2.2,3.8-6.4h0.7l1.3,1.3c-2.3,10.6-5.1,15.9-8.3,15.9c-9.3,11.2-14,21-14,29.2v7.6c1.6,5.1,5.3,7.6,10.8,7.6
		c6.8,0,16.8-7,29.8-21c18.8-19.5,37-29.2,54.7-29.2c3.4,0,5.1-0.4,5.1-1.3c11.2,7.6,20.5,11.4,28,11.4h6.4c8.2,0,19.9-4.2,35-12.7
		v-0.6c-6.2-3.4-14.2-5.9-24.2-7.6h-0.7c-1.7,1.7-5.7,2.5-12,2.5h-14.7l-1.3-1.3c0-8.9,8.3-14.4,24.8-16.5l30.5,10.2
		c9.8,2.9,25.9,5.1,48.3,6.4l0.6,1.9c-2.8,6.4-5.1,9.6-7,9.6l-10.9-0.7c-1.7,0-2.7,0.8-3.1,2.5c0,5.4,5.3,8.6,15.9,9.6
		c10.7,0,20.3-6.8,28.7-20.3l2.5-0.7c0,8.6,3.6,13.7,10.8,15.3l3.2,0.7h3.1c6.4-0.8,9.6-3,9.6-6.4v-8.3l-14-102.3
		C331.5,111.8,332.8,108.2,334.4,108.2z M419.6,108.8c2.2,0,3.9,2.7,5.1,8.2l-0.7,5.8v3.8c4.2,4.1,6.4,7.1,6.4,8.9l-1.9,2.5
		l-5.1-3.2h-2.5c-2,0-6.3,3.8-12.7,11.4c-10.5,6.4-16.9,9.6-19.1,9.6h-0.7v-1.3l17.2-13.4c5-3.3,8.4-6.4,10.2-9.5v-1.3
		c-3-3.6-4.5-6.3-4.5-8.3C411.3,116.9,414.1,112.5,419.6,108.8z M502.3,110.7h1.9v1.3h0.7c0,3.7-11,11.5-33.1,23.6
		c-14.9,9.7-23.2,14.6-24.8,14.6l-0.6-1.9c0-3.4,6.1-8.3,18.4-14.7L502.3,110.7z M312.8,113.9v1.3h0.6c0,5-6.6,9-19.7,12
		c-29.3,11.5-62.8,26.8-100.4,45.8H192v-1.3h-0.7c0-5,6.8-10.1,20.3-15.3c21.8-12.7,54.8-26.9,99.2-42.6H312.8z M598.9,119l5.7,4.4
		h1.9v-1.9c0-4.2-1.5-6.4-4.5-6.4C600,115.9,598.9,117.1,598.9,119z M415.8,119v1.3l3.1,3.1h1.3l0.7-3.1c-0.3-2.1-1-3.2-1.9-3.2
		h-1.3L415.8,119z M197.7,120.3c7.2,0,10.8,1.7,10.8,5.1c-1.9,5.7-6.6,10.1-14,13.3l-5.8,1.9H187v-0.7l9.5-8.9l-1.3-1.3h-6.4
		c-4.2,0-7.8,1.5-10.8,4.5h-1.3c2.8-9.3,7.5-14,14-14H197.7z M123.4,122.1c5.5,3.1,8.2,6,8.2,8.9c-0.6,2.1-1.2,3.2-1.9,3.2
		c-1.4,0-3.8-1.3-7-3.8h-1.3c-1,0-2.1,7.6-3.1,22.9l-1.9,6.4h-1.9c-3.3-8.8-7.8-15.1-13.4-19.1c-3.4,6-9.4,11.9-17.8,17.8h-0.6v-1.3
		L96,141.9v-1.3l-4.4-5.8v-3.1c0-2.3,0.8-3.8,2.5-4.5c5.3,0,12.5,6.8,21.6,20.3C117.3,130.6,119.9,122.1,123.4,122.1z M307.1,145
		c3.4,5.9,5.1,11.2,5.1,15.9v0.6c0,4.9-2.1,7.6-6.4,8.3l-7.6-2.5c-3.4,5.1-6.6,7.6-9.5,7.6h-1.9c-3.4-1.7-5.1-4.5-5.1-8.3l1.9-15.3
		h1.3v1.3h0.6l-0.6,3.2v7c0,3,1.5,4.5,4.4,4.5h2.5c1.8,0,3.3-2.1,4.5-6.4v-2.5l-0.7-8.9c0.6-2.1,1.2-3.2,1.9-3.2
		c1.1,0,2.1,4,3.1,12.1c2.1,2.5,4.3,3.8,6.4,3.8l0.7-1.9l-2.5-10.2C305.4,146.7,306,145,307.1,145z M511.8,148.8h0.7l-3.2,11.4
		c0.8,6.8,3.1,10.2,7,10.2l3.1-5.1l0.7,0.7c0,5.1-1.9,9.2-5.8,12c-3.6,0-6.1-3.2-7.6-9.5v-2.5C508.6,154.6,510.2,148.8,511.8,148.8z
		 M607.1,153.3v1.3l-2.5,6.4v4.4c0.6,4.7,1.7,7,3.2,7h1.3l3.1-3.2h0.7v1.3h0.6c-2.3,6.4-4.4,9.6-6.4,9.6c-3.8-2.2-5.7-5.4-5.7-9.6
		v-2.5C603.8,158.2,605.7,153.3,607.1,153.3z M429.8,154.6c6.1,3.3,9.5,6.4,10.2,9.5c-1.3,4.7-3,7.5-5.1,8.3h-1.3l-7-5.1h-1.9
		c-0.8,0-1.7,1.3-2.5,3.8c-1.4,2.5-2.7,3.8-3.8,3.8c-6.8-3.8-10.2-6.8-10.2-8.9c1.7-5.9,3.6-8.9,5.7-8.9l8.9,5.1
		c1,0,2.5-1.9,4.5-5.8L429.8,154.6z M152.6,158.4h0.6l1.9,1.9c-3,9.4-4.5,18.1-4.5,26.1v3.1c0,5.3,1.7,8.9,5.1,10.9h1.3
		c2.5-1.4,3.8-3.7,3.8-7h0.7l1.3,1.3c-1.9,10.6-4.3,15.9-7,15.9h-0.6c-5.3,0-8.4-5.3-9.6-15.9v-3.8
		C145.6,183.5,147.9,172.7,152.6,158.4z M250.5,159.7h0.6c4,0,6.4,3,7,8.9v0.6l-1.3,1.3c-1.6,0-3.3-0.8-5.1-2.5h-1.9l-1.3,1.3v6.4
		c0,14.9-1,22.3-3.1,22.3h-0.7c-5.1-12.3-11-18.5-17.8-18.5c-1.7-1.8-2.5-3.4-2.5-5.1c0.5-3.4,1.3-5.1,2.5-5.1h1.3
		c4.5,0,10,5.3,16.5,15.9h0.7v-11.4C245.4,166.1,247.1,161.4,250.5,159.7z M467.3,167.9h0.7c8.9,7.9,13.3,13,13.3,15.3l-4.4,0.7v2.5
		c7.2,10.5,10.8,18.8,10.8,24.8c0,10.3-3.4,17.9-10.2,22.9c-5.5,3.9-8.2,8.8-8.2,14.7v2.5c0,9.6,5.5,15.7,16.5,18.4h6.4
		c12.4,0,29-11.2,49.6-33.7l2.5-4.5v-0.6l-1.9-1.9l-17.8,3.2c-9.3-1.4-14-5.9-14-13.4c2.3-13.6,7.6-20.3,15.9-20.3
		c5.2,0,12,4.9,20.3,14.7h0.6c4.9-2.1,11.9-6.8,21-14c1.7,0,2.5,3.4,2.5,10.2c3.2,4.9,6.8,7.7,10.8,8.2h8.9
		c6.8-2.5,12.5-9.3,17.2-20.3l1.9-1.3l1.3,1.3l-1.9,7.6c0,4.4,4.7,7,14,7.6h0.6l3.2-0.6v-2.5l-2.5-7v-0.6c0.8-5.5,1.9-8.3,3.1-8.3
		c3.8,3.6,5.8,8.9,5.8,15.9v1.3c-1.2,10.2-5.7,15.3-13.4,15.3h-1.3c-3.6,0-8.4-3-14.6-8.9c-6.8,8.9-13.6,13.3-20.3,13.3h-2.5
		c-7.1,0-12.1-5.3-15.3-15.9h-1.9c-9.3,6.2-14,11.1-14,14.6c0,13.7-12.7,29.2-38.1,46.5c-7.7,4.6-15.1,7-22.2,7H487
		c-14.9-3.3-22.3-11.8-22.3-25.4v-10.2c-1.2,0-10.3,5.5-27.3,16.5c-18.1,9.3-32.5,14-43.2,14c-7.9,2.5-12.9,3.8-15.3,3.8l-0.7-0.6
		v-1.3c21.7-9.1,40.3-18,55.9-26.7c15.3-9.4,29.5-19.6,42.6-30.5c2.9-2.9,4.4-5.3,4.4-7v-1.9c-1.6-4.4-5.2-11.4-10.8-21l-5.8-15.3
		C465.3,170.9,466.1,167.9,467.3,167.9z M441.8,176.8h0.7c0,7.8-3.4,15.9-10.2,24.2v1.3c8.9,7,13.3,12.9,13.3,17.8
		c0,9.8-4,16.6-12,20.3c-1.9,2.1-6.2,4.1-12.7,5.8c-5.5,0-8.4-4.2-8.9-12.7c0-6.6,1.9-14.5,5.7-23.6c0-0.8-5.3-5.9-15.9-15.3
		l-1.3-5.7c0-4.7,0.8-7,2.5-7c9.3,4.1,14.6,6.8,15.9,8.3v1.3c-1.2,0-1.9,0.4-1.9,1.3v0.6l5.7,5.1h2.5L441.8,176.8z M115.8,181.3h1.3
		l-1.9,10.8v1.9c0.8,5.5,1.9,8.2,3.2,8.2h1.9l3.2-3.1h0.6v0.6c-1.2,6.8-2.9,10.2-5.1,10.2h-1.3c-3.8-2.4-5.7-6.7-5.7-12.7
		C111.9,194.6,113.2,189.3,115.8,181.3z M305.2,181.9c5.9,3.9,9.1,7.1,9.5,9.6c-2.1,4.3-3.8,6.6-5.1,7h-2.5l-7.6-7
		C301.4,185.1,303.3,181.9,305.2,181.9z M518.8,216.2c2.1,1.7,4.9,2.5,8.2,2.5l6.4-1.3v-1.3c-2.4-2.9-5.5-4.4-9.5-4.4
		C520.8,213.2,519.1,214.7,518.8,216.2z M417.1,223.9v6.4l2.5,2.5h3.8c10.2-3.3,15.3-6.9,15.3-10.8c-4.1-4.3-8.7-7.1-14-8.3
		C423.5,213.7,421,217.1,417.1,223.9z M618.6,240.4l0.7,1.9c-2.1,8.9-5.1,13.3-8.9,13.3l-5.8-0.6l-8.9,3.8l-8.9-3.2
		c-1.4,0-9.5,4.9-24.2,14.7c-4.4,1.7-7.7,2.5-10.2,2.5v-0.7l31.8-21.6l5.8-1.9l8.2,3.1c1.7,0,4.7-2.5,8.9-7.6l2.5,3.8h3.8
		c0.7,0,2-2.5,3.8-7.6H618.6z M314.1,251.8v0.7c-1.3,2.5-2.1,6.5-2.5,12c1.2,4.2,2.3,6.4,3.1,6.4h1.3l3.2-2.5l0.6,0.7
		c-1.6,5.9-3.3,8.9-5.1,8.9h-0.6c-3.8-0.5-5.8-3.6-5.8-9.6C309.8,260.2,311.7,254.7,314.1,251.8z M240.4,256.3
		c5.1,3.3,8.7,6.4,10.8,9.5c-2.4,5.5-4.5,8.3-6.4,8.3c-5.6-2.5-9-5.5-10.2-8.9C236.3,259.3,238.2,256.3,240.4,256.3z M206.6,256.9
		h0.7v0.7l-1.9,6.4v7.6c0,2.3,0.8,3.7,2.5,4.4h1.3l3.8-3.8l0.7,0.7c-2.1,7.2-3.8,10.8-5.1,10.8h-0.7c-4.2,0-6.4-3.2-6.4-9.5
		C201.5,269.4,203.2,263.6,206.6,256.9z M167.2,261.4l0.7,0.6v0.7c0,3.9-7.9,9-23.6,15.3c-6.8,5.1-11.9,7.6-15.3,7.6h-0.6v-0.7
		c0-3.5,5.9-7.7,17.8-12.7C147.3,270.5,154.3,266.9,167.2,261.4z"/>
</g>
</svg>
