<?xml version="1.0" encoding="utf-8"?>
<!-- Generator: Adobe Illustrator 25.2.3, SVG Export Plug-In . SVG Version: 6.00 Build 0)  -->
<svg version="1.1" xmlns="http://www.w3.org/2000/svg" xmlns:xlink="http://www.w3.org/1999/xlink" x="0px" y="0px"
	 viewBox="0 0 700 395" style="enable-background:new 0 0 700 395;" xml:space="preserve">
<style type="text/css">
	.st0{fill:#000222;}
	.st1{fill:#FFFFFF;}
</style>
<g id="Layer_1">
	<rect class="st0" width="700" height="395"/>
</g>
<g id="Layer_3">
	<g>
		<path class="st1" d="M273.5,368.6l1.1,4.2c0.2,0.9,0.5,1.8,0.6,2.6h0.1c0.2-0.8,0.5-1.7,0.7-2.6l1.3-4.2h1.3l1.3,4.1
			c0.3,1,0.5,1.9,0.7,2.7h0.1c0.1-0.8,0.4-1.7,0.6-2.7l1.2-4.1h1.5l-2.7,8.2H280l-1.3-3.9c-0.3-0.9-0.5-1.7-0.7-2.7h0
			c-0.2,1-0.5,1.8-0.7,2.7l-1.3,3.9h-1.4l-2.5-8.2H273.5z"/>
		<path class="st1" d="M286.3,368.6l1.1,4.2c0.2,0.9,0.5,1.8,0.6,2.6h0.1c0.2-0.8,0.5-1.7,0.7-2.6l1.3-4.2h1.3l1.3,4.1
			c0.3,1,0.5,1.9,0.7,2.7h0.1c0.1-0.8,0.4-1.7,0.6-2.7l1.2-4.1h1.5l-2.7,8.2h-1.4l-1.3-3.9c-0.3-0.9-0.5-1.7-0.7-2.7h0
			c-0.2,1-0.5,1.8-0.7,2.7l-1.3,3.9h-1.4l-2.5-8.2H286.3z"/>
		<path class="st1" d="M299,368.6l1.1,4.2c0.2,0.9,0.5,1.8,0.6,2.6h0.1c0.2-0.8,0.5-1.7,0.7-2.6l1.3-4.2h1.3l1.3,4.1
			c0.3,1,0.5,1.9,0.7,2.7h0.1c0.1-0.8,0.4-1.7,0.6-2.7l1.2-4.1h1.5l-2.7,8.2h-1.4l-1.3-3.9c-0.3-0.9-0.5-1.7-0.7-2.7h0
			c-0.2,1-0.5,1.8-0.7,2.7l-1.3,3.9h-1.4l-2.5-8.2H299z"/>
		<path class="st1" d="M309.9,375.9c0-0.6,0.4-1.1,1-1.1c0.6,0,1,0.4,1,1.1c0,0.6-0.4,1.1-1,1.1C310.3,377,309.9,376.5,309.9,375.9z
			"/>
		<path class="st1" d="M313.5,375.3c0.4,0.3,1.2,0.6,2,0.6c1.1,0,1.6-0.5,1.6-1.2c0-0.7-0.4-1.1-1.5-1.5c-1.5-0.5-2.2-1.3-2.2-2.3
			c0-1.3,1.1-2.4,2.8-2.4c0.8,0,1.6,0.2,2,0.5l-0.4,1.1c-0.3-0.2-0.9-0.5-1.7-0.5c-0.9,0-1.4,0.5-1.4,1.1c0,0.7,0.5,1,1.6,1.4
			c1.4,0.5,2.2,1.3,2.2,2.5c0,1.4-1.1,2.5-3.1,2.5c-0.9,0-1.7-0.2-2.3-0.6L313.5,375.3z"/>
		<path class="st1" d="M327.4,374.6c0,0.9,0,1.6,0.1,2.2h-1.3l-0.1-1.3h0c-0.4,0.7-1.3,1.5-2.7,1.5c-1.3,0-2.8-0.7-2.8-3.6v-4.8h1.5
			v4.6c0,1.6,0.5,2.6,1.8,2.6c1,0,1.7-0.7,2-1.4c0.1-0.2,0.1-0.5,0.1-0.8v-5h1.5V374.6z"/>
		<path class="st1" d="M329.8,371.1c0-1,0-1.8-0.1-2.6h1.3l0.1,1.6h0.1c0.4-1.1,1.3-1.8,2.3-1.8c0.2,0,0.3,0,0.4,0.1v1.4
			c-0.2,0-0.3-0.1-0.5-0.1c-1.1,0-1.8,0.8-2,1.9c0,0.2-0.1,0.4-0.1,0.7v4.4h-1.5V371.1z"/>
		<path class="st1" d="M339.9,376.8l-0.1-1h-0.1c-0.5,0.6-1.3,1.2-2.5,1.2c-1.7,0-2.5-1.2-2.5-2.4c0-2,1.8-3.1,4.9-3.1v-0.2
			c0-0.7-0.2-1.9-1.9-1.9c-0.8,0-1.6,0.2-2.1,0.6l-0.3-1c0.7-0.4,1.7-0.7,2.7-0.7c2.5,0,3.1,1.7,3.1,3.4v3.1c0,0.7,0,1.4,0.1,2
			H339.9z M339.7,372.6c-1.6,0-3.5,0.3-3.5,1.9c0,1,0.6,1.4,1.4,1.4c1.1,0,1.8-0.7,2-1.4c0.1-0.2,0.1-0.3,0.1-0.5V372.6z"/>
		<path class="st1" d="M343.5,364.7h1.5v5.1h0c0.2-0.4,0.6-0.8,1.1-1.1c0.4-0.3,1-0.4,1.5-0.4c1.1,0,2.9,0.7,2.9,3.5v4.9H349v-4.7
			c0-1.3-0.5-2.4-1.9-2.4c-1,0-1.7,0.7-2,1.5c-0.1,0.2-0.1,0.4-0.1,0.7v5h-1.5V364.7z"/>
		<path class="st1" d="M358.6,375.5L358.6,375.5c-0.5,0.8-1.4,1.5-2.7,1.5c-1.9,0-3.5-1.7-3.5-4.2c0-3.1,2-4.4,3.7-4.4
			c1.3,0,2.1,0.6,2.5,1.4h0l0.1-1.2h1.4c0,0.7-0.1,1.4-0.1,2.3v9.3h-1.5V375.5z M358.6,371.9c0-0.2,0-0.4-0.1-0.6
			c-0.2-0.9-1-1.7-2.1-1.7c-1.5,0-2.5,1.3-2.5,3.2c0,1.6,0.8,3.1,2.4,3.1c1,0,1.8-0.6,2.1-1.6c0.1-0.2,0.1-0.5,0.1-0.7V371.9z"/>
		<path class="st1" d="M369.4,374.6c0,0.9,0,1.6,0.1,2.2h-1.3l-0.1-1.3h0c-0.4,0.7-1.3,1.5-2.7,1.5c-1.3,0-2.8-0.7-2.8-3.6v-4.8h1.5
			v4.6c0,1.6,0.5,2.6,1.8,2.6c1,0,1.7-0.7,2-1.4c0.1-0.2,0.1-0.5,0.1-0.8v-5h1.5V374.6z"/>
		<path class="st1" d="M371.9,371.1c0-1,0-1.8-0.1-2.6h1.3l0.1,1.6h0.1c0.4-1.1,1.3-1.8,2.3-1.8c0.2,0,0.3,0,0.4,0.1v1.4
			c-0.2,0-0.3-0.1-0.5-0.1c-1.1,0-1.8,0.8-2,1.9c0,0.2-0.1,0.4-0.1,0.7v4.4h-1.5V371.1z"/>
		<path class="st1" d="M381.9,376.8l-0.1-1h-0.1c-0.5,0.6-1.3,1.2-2.5,1.2c-1.7,0-2.5-1.2-2.5-2.4c0-2,1.8-3.1,4.9-3.1v-0.2
			c0-0.7-0.2-1.9-1.9-1.9c-0.8,0-1.6,0.2-2.1,0.6l-0.3-1c0.7-0.4,1.7-0.7,2.7-0.7c2.5,0,3.1,1.7,3.1,3.4v3.1c0,0.7,0,1.4,0.1,2
			H381.9z M381.7,372.6c-1.6,0-3.5,0.3-3.5,1.9c0,1,0.6,1.4,1.4,1.4c1.1,0,1.8-0.7,2-1.4c0.1-0.2,0.1-0.3,0.1-0.5V372.6z"/>
		<path class="st1" d="M385.6,370.8c0-0.9,0-1.5-0.1-2.2h1.3l0.1,1.4h0c0.4-0.8,1.4-1.5,2.7-1.5c1.1,0,2.9,0.7,2.9,3.5v4.9h-1.5
			v-4.7c0-1.3-0.5-2.4-1.9-2.4c-1,0-1.8,0.7-2,1.5c-0.1,0.2-0.1,0.4-0.1,0.7v4.9h-1.5V370.8z"/>
		<path class="st1" d="M394.6,375.9c0-0.6,0.4-1.1,1-1.1c0.6,0,1,0.4,1,1.1c0,0.6-0.4,1.1-1,1.1C395,377,394.6,376.5,394.6,375.9z"
			/>
		<path class="st1" d="M404.4,376.5c-0.4,0.2-1.3,0.5-2.4,0.5c-2.5,0-4.1-1.7-4.1-4.2c0-2.5,1.7-4.4,4.4-4.4c0.9,0,1.7,0.2,2.1,0.4
			l-0.3,1.2c-0.4-0.2-0.9-0.4-1.7-0.4c-1.9,0-2.9,1.4-2.9,3.1c0,1.9,1.2,3.1,2.9,3.1c0.8,0,1.4-0.2,1.8-0.4L404.4,376.5z"/>
		<path class="st1" d="M413.5,372.6c0,3-2.1,4.4-4.1,4.4c-2.2,0-3.9-1.6-3.9-4.2c0-2.8,1.8-4.4,4.1-4.4
			C411.9,368.4,413.5,370.1,413.5,372.6z M406.9,372.7c0,1.8,1,3.2,2.5,3.2c1.4,0,2.5-1.3,2.5-3.2c0-1.4-0.7-3.2-2.5-3.2
			S406.9,371.1,406.9,372.7z"/>
		<path class="st1" d="M415.4,370.8c0-0.9,0-1.5-0.1-2.2h1.3l0.1,1.3h0.1c0.5-0.8,1.2-1.5,2.6-1.5c1.1,0,2,0.7,2.3,1.6h0
			c0.3-0.5,0.6-0.8,0.9-1.1c0.5-0.4,1-0.6,1.8-0.6c1.1,0,2.7,0.7,2.7,3.6v4.8h-1.5v-4.7c0-1.6-0.6-2.5-1.8-2.5
			c-0.9,0-1.5,0.6-1.8,1.4c-0.1,0.2-0.1,0.5-0.1,0.7v5.1h-1.5v-4.9c0-1.3-0.6-2.3-1.7-2.3c-0.9,0-1.6,0.7-1.9,1.5
			c-0.1,0.2-0.1,0.5-0.1,0.7v5h-1.5V370.8z"/>
	</g>
</g>
<g id="Layer_4">
	<path class="st1" d="M327.7,104.6c8.1,15.2,12.2,24.2,12.2,27v2h-1.4l-4.1-2v0.6c0,7.5,3.6,33,10.8,76.4v4.7
		c0,13.8-2.7,23-8.1,27.8c-6.6,4-13.1,6-19.6,6h-4.8c-6.2-0.8-12.7-5.8-19.6-14.9h-2.1c-20.1,9.5-39.1,14.2-56.8,14.2
		c-7.1,0-15.9-1.1-26.3-3.4c-0.9,0.8-1.6,5.6-2.1,14.2c-1.6,2.2-3.2,3.3-4.7,3.3c-7.7,0-13.6-5.6-17.6-16.9c-1.1-6.3-2-9.5-2.7-9.5
		h-4.8c-17,0-40.7,14-70.9,41.9c-7,6.3-13.5,10.1-19.7,11.4c-8.6,0-15.1-6.3-19.6-18.9l-0.7-5.4c0-11.4,5.4-24.9,16.2-40.6v-2
		c-4-8.3-6-14.2-6-17.6c0-6.7,3.2-19.4,9.5-37.9h0.6l0.7,0.6c-4.1,11.8-6.1,20.9-6.1,27v5.4c0,6.8,2.5,10.8,7.5,12.2l5.4-6.8
		l0.6,0.7c0,4.2-5.2,14.6-15.5,31.1c-5.9,10.8-8.8,20.5-8.8,29c1,7.2,4.6,10.8,10.8,10.8c10.6,0,23.3-8.1,37.9-24.3
		c25.9-20.3,47.5-30.8,64.9-31.7c1.7,0,2.8-1.4,3.4-4.1h2C199,227.2,216,233,239.2,233h4.7c12,0,25.5-3.4,40.6-10.2l2.7-2l0.7-0.7
		v-0.6l-2.7-12.9c0-13.5,5-22,14.9-25.7h0.6c5.4,0,9.9,6.6,13.5,19.7c0,8.1-3.8,16.4-11.4,25v2.1c3,4,6.6,6,10.8,6h4.1
		c11.2,0,18.5-2.5,21.6-7.4c0-5.5-5-41.8-14.9-108.9l-0.7-0.6l-0.6-2.1C324.5,108.2,326.1,104.8,327.7,104.6z M556.9,104.6
		c0.8,0,2.1,1.6,4.1,4.7v2.7l-0.7,3.4h-1.4c-2.3-2.3-4.4-3.4-6-3.4h-1.4c-1.8,0.7-2.7,2.3-2.7,4.8v5.4c-0.6,16.6-2,25-4.1,25
		c-6.7-13-13.2-19.6-19.7-19.6c-3.1-2.3-4.7-4.8-4.7-7.4c0-2.7,1.1-4.3,3.3-4.7c3.9,0,10.5,5.6,19.7,16.9l1.4-1.4v-2.7
		c0.8-15.7,4.1-23.6,10.1-23.6H556.9z M604.3,104.6c3.2,0,5.5,5,6.8,14.9l-0.7,0.6v1.4l5.4,10.8l-2,2.1v0.6
		c-2.7-1.8-4.7-2.7-6.1-2.7H607c-21.3,19.4-37.1,30-47.3,31.8l-2.7,0.6h-0.7l31.1-20.9c9.9-7.3,14.9-12,14.9-14.2
		c-4.5-4.6-6.8-8-6.8-10.1v-1.4C597.4,109.1,600.3,104.6,604.3,104.6z M356.8,105.9h1.4c2,0,6.3,10.6,12.8,31.7l-0.6,0.7H369
		l-4.1-2.1v0.7l11.4,93.3v2.7l0.7,0.6l-0.7,0.7v3.3l0.7,0.7l-0.7,0.6v5.4c0,4-1.1,9.4-3.3,16.2h-0.7l-1.4-1.4v-0.6
		c0-12.8-5-57.7-14.9-134.6l-2-10.1L356.8,105.9z M374.4,155.9c14.7-10.7,24.8-18.8,30.4-24.3v-2.1c-2.7-3.4-4.1-6.1-4.1-8.1v-2
		c0-5.4,2.7-9.7,8.1-12.9c3.2,1.2,4.8,3.9,4.8,8.1l-0.7,10.8c4.5,3.2,6.8,6.4,6.8,9.5L419,137h-2.1c-3.4-2.7-5.8-4.1-7.4-4.1
		c-15,14.7-26.2,22.6-33.8,23.6h-1.4V155.9z M230.3,107.3l1.4,1.4c0,5.3-5.2,9-15.5,10.8c-54,22.2-86,36.4-96,42.6h-2.1
		c0-5.8,2.7-9.6,8.1-11.4C169.5,130.2,204.2,115.8,230.3,107.3z M496.1,108.6h1.4l1.4,1.4c0,3.4-12.4,11.9-37.2,25.7
		c-14.2,9.4-22.3,14.2-24.3,14.2v-1.4h-0.6c0-3.9,7.2-9.5,21.6-16.9L496.1,108.6z M308.8,109.2l1.4,2.1c0,4.1-10.1,9.6-30.4,16.2
		c-11.5,5.4-30.5,13.3-56.8,23.6l-25.7,12.2l-2.1-0.6c0-6,6.8-11.2,20.3-15.6C239.5,135.9,270.6,123.2,308.8,109.2z M114,111.3
		c4.5,1.6,6.8,4.3,6.8,8.1l-2,2.7h-1.4l-4.8-3.4c-1.8,0.5-2.7,1.4-2.7,2.7c0,9.5-1.1,19.2-3.3,29.1h-1.4
		c-6.8-14.4-13.3-21.6-19.7-21.6c-2.7-3.1-4.1-5.1-4.1-6.1c1.1-4,2.3-6,3.4-6c4.4,1.3,11,7.3,19.6,18.2c0.9,0,1.4-1.8,1.4-5.4
		C108.4,117.4,111.1,111.3,114,111.3z M598.9,115.4v1.4c2.4,3.1,4.9,4.7,7.4,4.7h0.7v-3.3c0-3.6-1.6-5.4-4.8-5.4h-0.6L598.9,115.4z
		 M404.8,116.7v2l3.4,3.4l2-2.1c0-3.3-0.7-5.1-2-5.4h-1.4L404.8,116.7z M300,153.2c6.7,3.6,10.1,7.2,10.1,10.8
		c0,2.3-1.8,4.7-5.4,7.4h-1.4l-8.7-6l-8.1,6.8h-2.1c-3.9-2.4-6.6-4.7-8.1-6.8c0-3.8,1.6-6.9,4.8-9.5h2c4.4,3.1,7.6,4.7,9.5,4.7
		L300,153.2z M607,153.9h0.6l-2.7,7.5v6c0,2.7,1.4,5,4.1,6.8l4.1-3.3l0.7,0.6c-1.1,6.3-3.6,9.5-7.5,9.5c-3.1-2.3-4.7-5.7-4.7-10.4
		S603.4,160.4,607,153.9z M419,155.2h0.6c5.5,3.2,8.9,6.6,10.2,10.2c-0.9,2.8-2.7,5.5-5.4,8.1h-1.4l-7.5-5.4h-1.4
		c-0.7,0-2.5,2.5-5.4,7.4l-2,0.7c-3.5-1.5-6.9-4.2-10.2-8.1v-0.7c1.8-5.8,3.6-8.7,5.4-8.7c1.8,0,4.5,1.4,8.2,4.1h2.1L419,155.2z
		 M504.2,155.2v8.8c0,2.8,1.6,5.2,4.7,7.4h1.4l4.1-4.7v1.4h0.7c-1.7,7.6-3.9,11.4-6.8,11.4c-3.7,0-6.2-4.3-7.5-12.8
		C501.4,159.4,502.5,155.5,504.2,155.2z M150.5,168.7c0.9,0,1.4,0.7,1.4,2.1c-3.6,12.1-5.4,20.3-5.4,24.3c1.1,7.6,3.1,11.4,6.1,11.4
		c1.3,0,2.7-2,4.1-6h0.6c0.9,0,1.4,0.7,1.4,2c0,6.2-2.5,11.1-7.4,14.9c-6.3-2.6-9.5-8.7-9.5-18.2v-1.4c0-4.4,2.7-14.1,8.1-29.1
		H150.5z M459.6,168.7c9.4,9.1,14.2,14,14.2,14.8c0,0.8-1.6,1.5-4.7,2.1v2.7c7.6,11.8,11.4,20.6,11.4,26.3
		c0,12.2-5.9,22.6-17.6,31.1c-1.3,1.3-2.2,5.2-2.7,11.5c0,8.8,5.2,15.4,15.6,19.6l5.4,0.7c17.9,0,37.5-13.1,58.8-39.2v-2.7l-2-2.1
		l-18.3,3.4c-9.2,0-14.2-5.2-14.9-15.6c0-8.3,4.7-15.1,14.2-20.3h2c5.8,0,13,5,21.6,14.9h3.4c12.7-9.4,19.9-14.2,21.6-14.2l1.4,4.1
		l-0.7,4.1c2.5,7.6,6.8,11.4,12.9,11.4h4.7c8.3,0,15.7-7.4,22.4-22.3l0.6-0.7h2.1v0.7l-2.1,8.1v1.4c0,2.9,4.5,5.3,13.5,7.4h2.1
		c3.1,0,4.7-1.1,4.7-3.3l-3.3-6.1V206l2-10.2h1.4c3.6,4.9,5.4,9.2,5.4,12.9v4.1c-1.3,11.2-5.4,16.9-12.2,16.9l-2.7,0.7
		c-3.4,0-8.8-3.4-16.2-10.2c-6.7,9.9-13.9,14.9-21.6,14.9c-12.1-1.9-18.2-7.5-18.2-16.9l-0.7-0.7h-1.4
		c-10.3,7.5-15.5,12.9-15.5,16.2c0,10.7-5.6,20.9-16.9,30.5c-17.2,17.5-32.7,26.3-46.6,26.3h-1.4c-14.1,0-22.4-8.6-25.1-25.7v-12.2
		h-0.6l-29.7,18.3c-8.3,5.6-20.3,10.2-35.9,13.5l-25,4.7h-0.7v-0.6c3.8-2.5,17.4-8.6,40.6-18.3c20.7-12.1,39.9-24.5,57.5-37.1
		c8.1-7.5,12.2-12.3,12.2-14.4c0-2.1-5-12.4-14.9-31c0-1.6-1.1-4.5-3.4-8.7C457.2,172.1,458.3,168.7,459.6,168.7z M247.3,170.8
		c4.5,0.7,6.8,3.9,6.8,9.5c-0.5,2.7-1.2,4.1-2.1,4.1h-1.4c0-1.6-1.8-3.4-5.4-5.4c-0.9,1.7-1.4,4.2-1.4,7.4v7.5
		c-0.4,11.8-2,18.5-4.7,20.3h-0.7c-5.7-14-11.6-21-17.6-21c-2.2-2.3-3.3-4.6-3.3-6.6s1.1-3.7,3.3-4.8h2.1
		c5.2,3.5,10.6,9.6,16.2,18.2l1.4-2v-4.1l-0.7-0.7l0.7-0.6v-4.1l-0.7-0.7C242.1,176.4,244.6,170.8,247.3,170.8z M431.2,178.9
		l1.4,1.4c-0.3,5.6-3.9,13.3-10.8,23v2.7c8.2,5.5,12.7,11.4,13.5,17.6c0,12.9-6.8,21.9-20.3,27c0,0.9-1.4,1.4-4.1,1.4
		c-6.3,0-9.9-4.1-10.8-12.2c1.1-12.5,3.2-20.6,6-24.3v-2.7c-11.2-11.2-16.9-17.3-16.9-18.3l-0.7-4.1l1.4-6h0.7
		c11,3.5,16.6,6.2,16.9,8.1c0,0.9-0.7,1.4-2,1.4l-0.7,0.6v0.7c2.7,4,5.6,6,8.8,6h0.6L431.2,178.9z M290.5,201.2c2,9.5,4,14.2,6,14.2
		h1.4c6.8-4.1,10.2-7.3,10.2-9.5c-3.1-8.1-6.5-12.2-10.2-12.2C294.6,193.8,292.1,196.3,290.5,201.2z M513.7,218.8v1.4
		c0,1.3,2.3,2.2,6.8,2.7c5.8-0.5,8.7-1.4,8.7-2.7c-1.7-3.1-4.6-4.7-8.7-4.7h-1.4C516.6,215.4,514.8,216.6,513.7,218.8z M405.5,229.6
		v4.1c0,3.2,1.6,4.8,4.7,4.8h2.1c4.6,0,10-3.4,16.2-10.2v-0.6c0-3.4-4.7-6.8-14.2-10.2h-1.4C411.4,218.1,408.9,222.1,405.5,229.6z
		 M190.5,236.4v0.7c0,2.7,2.3,5.4,6.8,8.1h0.6v-1.4c0-2.7-1.8-5.2-5.4-7.5H190.5z M619.1,246.5v2.7c-1.6,8.5-4.8,12.8-9.5,12.8
		l-5.4-1.4c-3.9,2.7-6.9,4.1-8.8,4.1s-3.8-0.7-5.4-2h-4.7c-2.6,0-11,4.7-25.1,14.2c-4.1,2.3-7.5,3.4-10.1,3.4
		c21.5-16.7,34.7-25.1,39.8-25.1c2.6,1.8,5.7,2.7,9.5,2.7c1.1,0,3.8-2.5,8.1-7.4h0.7c0,2.7,1.4,4.1,4.1,4.1h1.4
		c1.4,0,2.6-2.5,3.3-7.5l0.7-0.6H619.1z M346.6,250.6c2.4,0,3.8,2.5,4.1,7.4c0,7.1-4.1,13.2-12.2,18.3v-0.7l8.1-11.4v-4.1l-1.4-1.4
		c-1.5,0-3.1,0.7-4.7,2l-0.7-0.6v-0.7C339.9,256.3,342.1,253.4,346.6,250.6z M266.2,252c3.1,0,5.3,3.4,6.8,10.1l-0.7,2.7h-2
		c-3-3.6-5.5-5.4-7.5-5.4c-1.1,1-2.2,5.9-3.3,14.9c-1.7,6.3-3.1,9.5-4.1,9.5s-1.9-2-2.7-6c-2.6-4.3-7.3-8.1-14.2-11.5l-0.6-2.7
		c0.4-4,1.3-6,2.7-6c4.1,0,9.1,5,14.9,14.9v0.6h2C258.8,258.9,261.8,252,266.2,252z M176.2,266.1h1.4v1.4c0,3.3-6.1,7.4-18.2,12.2
		c-14.4,6.3-22.5,9.5-24.3,9.5v-1.4h-0.7C134.3,284.7,148.3,277.5,176.2,266.1z"/>
</g>
</svg>
