<?xml version="1.0" encoding="utf-8"?>
<!-- Generator: Adobe Illustrator 25.2.3, SVG Export Plug-In . SVG Version: 6.00 Build 0)  -->
<svg version="1.1" xmlns="http://www.w3.org/2000/svg" xmlns:xlink="http://www.w3.org/1999/xlink" x="0px" y="0px"
	 viewBox="0 0 700 395" style="enable-background:new 0 0 700 395;" xml:space="preserve">
<style type="text/css">
	.st0{fill:#000222;}
	.st1{fill:#FFFFFF;}
</style>
<g id="Layer_1">
	<rect class="st0" width="700" height="395"/>
</g>
<g id="Layer_3">
	<g>
		<path class="st1" d="M273.5,368.6l1.1,4.2c0.2,0.9,0.5,1.8,0.6,2.6h0.1c0.2-0.8,0.5-1.7,0.7-2.6l1.3-4.2h1.3l1.3,4.1
			c0.3,1,0.5,1.9,0.7,2.7h0.1c0.1-0.8,0.4-1.7,0.6-2.7l1.2-4.1h1.5l-2.7,8.2H280l-1.3-3.9c-0.3-0.9-0.5-1.7-0.7-2.7h0
			c-0.2,1-0.5,1.8-0.7,2.7l-1.3,3.9h-1.4l-2.5-8.2H273.5z"/>
		<path class="st1" d="M286.3,368.6l1.1,4.2c0.2,0.9,0.5,1.8,0.6,2.6h0.1c0.2-0.8,0.5-1.7,0.7-2.6l1.3-4.2h1.3l1.3,4.1
			c0.3,1,0.5,1.9,0.7,2.7h0.1c0.1-0.8,0.4-1.7,0.6-2.7l1.2-4.1h1.5l-2.7,8.2h-1.4l-1.3-3.9c-0.3-0.9-0.5-1.7-0.7-2.7h0
			c-0.2,1-0.5,1.8-0.7,2.7l-1.3,3.9h-1.4l-2.5-8.2H286.3z"/>
		<path class="st1" d="M299,368.6l1.1,4.2c0.2,0.9,0.5,1.8,0.6,2.6h0.1c0.2-0.8,0.5-1.7,0.7-2.6l1.3-4.2h1.3l1.3,4.1
			c0.3,1,0.5,1.9,0.7,2.7h0.1c0.1-0.8,0.4-1.7,0.6-2.7l1.2-4.1h1.5l-2.7,8.2h-1.4l-1.3-3.9c-0.3-0.9-0.5-1.7-0.7-2.7h0
			c-0.2,1-0.5,1.8-0.7,2.7l-1.3,3.9h-1.4l-2.5-8.2H299z"/>
		<path class="st1" d="M309.9,375.9c0-0.6,0.4-1.1,1-1.1c0.6,0,1,0.4,1,1.1c0,0.6-0.4,1.1-1,1.1C310.3,377,309.9,376.5,309.9,375.9z
			"/>
		<path class="st1" d="M313.5,375.3c0.4,0.3,1.2,0.6,2,0.6c1.1,0,1.6-0.5,1.6-1.2c0-0.7-0.4-1.1-1.5-1.5c-1.5-0.5-2.2-1.3-2.2-2.3
			c0-1.3,1.1-2.4,2.8-2.4c0.8,0,1.6,0.2,2,0.5l-0.4,1.1c-0.3-0.2-0.9-0.5-1.7-0.5c-0.9,0-1.4,0.5-1.4,1.1c0,0.7,0.5,1,1.6,1.4
			c1.4,0.5,2.2,1.3,2.2,2.5c0,1.4-1.1,2.5-3.1,2.5c-0.9,0-1.7-0.2-2.3-0.6L313.5,375.3z"/>
		<path class="st1" d="M327.4,374.6c0,0.9,0,1.6,0.1,2.2h-1.3l-0.1-1.3h0c-0.4,0.7-1.3,1.5-2.7,1.5c-1.3,0-2.8-0.7-2.8-3.6v-4.8h1.5
			v4.6c0,1.6,0.5,2.6,1.8,2.6c1,0,1.7-0.7,2-1.4c0.1-0.2,0.1-0.5,0.1-0.8v-5h1.5V374.6z"/>
		<path class="st1" d="M329.8,371.1c0-1,0-1.8-0.1-2.6h1.3l0.1,1.6h0.1c0.4-1.1,1.3-1.8,2.3-1.8c0.2,0,0.3,0,0.4,0.1v1.4
			c-0.2,0-0.3-0.1-0.5-0.1c-1.1,0-1.8,0.8-2,1.9c0,0.2-0.1,0.4-0.1,0.7v4.4h-1.5V371.1z"/>
		<path class="st1" d="M339.9,376.8l-0.1-1h-0.1c-0.5,0.6-1.3,1.2-2.5,1.2c-1.7,0-2.5-1.2-2.5-2.4c0-2,1.8-3.1,4.9-3.1v-0.2
			c0-0.7-0.2-1.9-1.9-1.9c-0.8,0-1.6,0.2-2.1,0.6l-0.3-1c0.7-0.4,1.7-0.7,2.7-0.7c2.5,0,3.1,1.7,3.1,3.4v3.1c0,0.7,0,1.4,0.1,2
			H339.9z M339.7,372.6c-1.6,0-3.5,0.3-3.5,1.9c0,1,0.6,1.4,1.4,1.4c1.1,0,1.8-0.7,2-1.4c0.1-0.2,0.1-0.3,0.1-0.5V372.6z"/>
		<path class="st1" d="M343.5,364.7h1.5v5.1h0c0.2-0.4,0.6-0.8,1.1-1.1c0.4-0.3,1-0.4,1.5-0.4c1.1,0,2.9,0.7,2.9,3.5v4.9H349v-4.7
			c0-1.3-0.5-2.4-1.9-2.4c-1,0-1.7,0.7-2,1.5c-0.1,0.2-0.1,0.4-0.1,0.7v5h-1.5V364.7z"/>
		<path class="st1" d="M358.6,375.5L358.6,375.5c-0.5,0.8-1.4,1.5-2.7,1.5c-1.9,0-3.5-1.7-3.5-4.2c0-3.1,2-4.4,3.7-4.4
			c1.3,0,2.1,0.6,2.5,1.4h0l0.1-1.2h1.4c0,0.7-0.1,1.4-0.1,2.3v9.3h-1.5V375.5z M358.6,371.9c0-0.2,0-0.4-0.1-0.6
			c-0.2-0.9-1-1.7-2.1-1.7c-1.5,0-2.5,1.3-2.5,3.2c0,1.6,0.8,3.1,2.4,3.1c1,0,1.8-0.6,2.1-1.6c0.1-0.2,0.1-0.5,0.1-0.7V371.9z"/>
		<path class="st1" d="M369.4,374.6c0,0.9,0,1.6,0.1,2.2h-1.3l-0.1-1.3h0c-0.4,0.7-1.3,1.5-2.7,1.5c-1.3,0-2.8-0.7-2.8-3.6v-4.8h1.5
			v4.6c0,1.6,0.5,2.6,1.8,2.6c1,0,1.7-0.7,2-1.4c0.1-0.2,0.1-0.5,0.1-0.8v-5h1.5V374.6z"/>
		<path class="st1" d="M371.9,371.1c0-1,0-1.8-0.1-2.6h1.3l0.1,1.6h0.1c0.4-1.1,1.3-1.8,2.3-1.8c0.2,0,0.3,0,0.4,0.1v1.4
			c-0.2,0-0.3-0.1-0.5-0.1c-1.1,0-1.8,0.8-2,1.9c0,0.2-0.1,0.4-0.1,0.7v4.4h-1.5V371.1z"/>
		<path class="st1" d="M381.9,376.8l-0.1-1h-0.1c-0.5,0.6-1.3,1.2-2.5,1.2c-1.7,0-2.5-1.2-2.5-2.4c0-2,1.8-3.1,4.9-3.1v-0.2
			c0-0.7-0.2-1.9-1.9-1.9c-0.8,0-1.6,0.2-2.1,0.6l-0.3-1c0.7-0.4,1.7-0.7,2.7-0.7c2.5,0,3.1,1.7,3.1,3.4v3.1c0,0.7,0,1.4,0.1,2
			H381.9z M381.7,372.6c-1.6,0-3.5,0.3-3.5,1.9c0,1,0.6,1.4,1.4,1.4c1.1,0,1.8-0.7,2-1.4c0.1-0.2,0.1-0.3,0.1-0.5V372.6z"/>
		<path class="st1" d="M385.6,370.8c0-0.9,0-1.5-0.1-2.2h1.3l0.1,1.4h0c0.4-0.8,1.4-1.5,2.7-1.5c1.1,0,2.9,0.7,2.9,3.5v4.9h-1.5
			v-4.7c0-1.3-0.5-2.4-1.9-2.4c-1,0-1.8,0.7-2,1.5c-0.1,0.2-0.1,0.4-0.1,0.7v4.9h-1.5V370.8z"/>
		<path class="st1" d="M394.6,375.9c0-0.6,0.4-1.1,1-1.1c0.6,0,1,0.4,1,1.1c0,0.6-0.4,1.1-1,1.1C395,377,394.6,376.5,394.6,375.9z"
			/>
		<path class="st1" d="M404.4,376.5c-0.4,0.2-1.3,0.5-2.4,0.5c-2.5,0-4.1-1.7-4.1-4.2c0-2.5,1.7-4.4,4.4-4.4c0.9,0,1.7,0.2,2.1,0.4
			l-0.3,1.2c-0.4-0.2-0.9-0.4-1.7-0.4c-1.9,0-2.9,1.4-2.9,3.1c0,1.9,1.2,3.1,2.9,3.1c0.8,0,1.4-0.2,1.8-0.4L404.4,376.5z"/>
		<path class="st1" d="M413.5,372.6c0,3-2.1,4.4-4.1,4.4c-2.2,0-3.9-1.6-3.9-4.2c0-2.8,1.8-4.4,4.1-4.4
			C411.9,368.4,413.5,370.1,413.5,372.6z M406.9,372.7c0,1.8,1,3.2,2.5,3.2c1.4,0,2.5-1.3,2.5-3.2c0-1.4-0.7-3.2-2.5-3.2
			S406.9,371.1,406.9,372.7z"/>
		<path class="st1" d="M415.4,370.8c0-0.9,0-1.5-0.1-2.2h1.3l0.1,1.3h0.1c0.5-0.8,1.2-1.5,2.6-1.5c1.1,0,2,0.7,2.3,1.6h0
			c0.3-0.5,0.6-0.8,0.9-1.1c0.5-0.4,1-0.6,1.8-0.6c1.1,0,2.7,0.7,2.7,3.6v4.8h-1.5v-4.7c0-1.6-0.6-2.5-1.8-2.5
			c-0.9,0-1.5,0.6-1.8,1.4c-0.1,0.2-0.1,0.5-0.1,0.7v5.1h-1.5v-4.9c0-1.3-0.6-2.3-1.7-2.3c-0.9,0-1.6,0.7-1.9,1.5
			c-0.1,0.2-0.1,0.5-0.1,0.7v5h-1.5V370.8z"/>
	</g>
</g>
<g id="Layer_4">
	<path class="st1" d="M262.7,104.9l1.3,1.3c0,4.8-6.6,8.7-19.7,11.8c-22.9,9.6-50.1,22.3-81.4,38.1h-0.6c0-5.5,7-11,21-16.5
		C205.8,127,232.3,115.4,262.7,104.9z M340.9,106.3c7.9,15.1,12.3,25.2,13.1,30.2h-2l-3.9-3.3h-0.6l9.2,76.8v3.9
		c0,11-3.7,18-11.2,21c-8.8,1.2-13.1,2.7-13.1,4.6c0,15.9-8.3,27.9-24.9,36.1c-11.3,7-21.8,10.5-31.5,10.5h-1.9
		c-13.4,0-20.9-7.7-22.3-23v-3.9c0-7.4,3.3-21,9.8-40.7l-1.9-0.6c-19.7,2.2-29.6,4.3-29.6,6.6v0.6c3.5,4.9,5.3,9.1,5.3,12.5
		c-1.6,10.5-5.1,15.8-10.5,15.8c-9.5,0-16.7-7.2-21.6-21.7h-0.7c-6.5,8.8-13.1,13.1-19.7,13.1l-11.1-0.6
		c-1.9,11.1-5.2,18.4-9.9,21.6c-8.8,9.8-25.9,17.2-51.2,22.3h-7.9l-0.6,0.7c-7.6,0-16.4-3.7-26.3-11.2c-5.7-9.2-8.6-16.4-8.6-21.6
		c0-7.4,2.9-19.4,8.6-36.1v-0.6c-3.1-4.1-4.6-9-4.6-14.4c1.8-11.4,3.7-20,6-25.6h0.6v2l-3.2,18.4c1.8,8.3,4,12.4,6.5,12.4
		c2.5,0,4.7-2.8,6.6-8.5h0.6v0.6c-1,7.8-4.7,15.1-11.1,21.7c-3.1,8.4-4.6,14.3-4.6,17.7v4.6c0,11.5,5.9,19.8,17.8,24.9
		c3.5,2.2,9.2,3.2,17.1,3.2c18.2,0,36.8-7,55.8-21l3.3-4.6c0-6.1-2.6-15.3-7.9-27.6l1.9-9.2h1.3c0.9,0,1.8,2,2.6,5.9
		c4.8,7.9,9.7,11.8,14.4,11.8l2.6,1.3c9.5,0,17.4-4.1,23.6-12.4c2.6-4.1,13.1-7.2,31.5-9.2l19.1-3.9v-2c-7.5-4.4-14-6.6-19.7-6.6
		c-15.6-1-23.7-2.3-24.3-3.9v-0.6c0-6.1,6.6-10.3,19.7-12.5l38.1,15.1c12.1,4.8,25.9,8.9,41.4,12.4v2c-2.8,5.3-4.8,7.9-6,7.9
		l-26.9-3.9c-7.9,0-12.5,2.4-13.8,7.2c-4,6.7-6.9,17.8-8.5,33.5c2.4,12.3,8.7,18.4,19,18.4c15.4,0,31.4-6.6,48-19.7
		c3-3,4.6-5.5,4.6-7.3V246l-5.3-22.3c0.6-5.7,1.5-8.5,2.6-8.5l0.7,0.6c1.8,5.7,5.7,8.6,11.8,8.6c7.5,0,12.1-1.8,13.7-5.3
		c0-4.7-4.4-39.5-13.1-104.4C337.5,111.7,338.6,108.9,340.9,106.3z M371,109.5c2,2.6,6.4,11.8,13.1,27.6v2l-1.3,1.3l-5.3-4.6
		l-0.7,0.7c0.9,12.9,3.7,35,8.6,66.3l-0.7,0.7v0.6l2,23c0,8.1-1.8,16-5.3,23.6h-0.7l-0.6-0.7l0.6-7.9c0-15.6-4.6-57.2-13.7-124.7
		C368.6,112.4,369.9,109.8,371,109.5z M120.9,110.8c4.4,1.5,6.6,4.8,6.6,9.9v0.6l-1.3,1.3h-0.6c-2.3-3-4.5-4.6-6.6-4.6l-2,1.9
		c-0.3,19.3-1.4,28.9-3.2,28.9c-5.5-8.6-9.2-13.4-11.2-14.4h-0.6c-0.9,0-2.9,2.9-6,8.6c-11.1,8.3-18.4,12.4-21.6,12.4h-0.7v-0.6
		c13.5-9.5,21.4-16,23.6-19.7v-1.3c0-1-2-3.6-5.9-7.9v-2c0.1-1.8,0.9-3.6,2.6-5.3c3.3,0.9,9.2,6.6,17.7,17.1l2,0.7v-0.7
		C113.7,121.2,116.1,112.9,120.9,110.8z M418.9,112.1h2.6c1.1,0,2.2,1.8,3.3,5.3l-1.3,11.2c3.9,4.6,5.9,7.7,5.9,9.2l-0.6,2.6
		c-1.6,0-4-1.3-7.3-3.9h-1.9c-13.5,12.8-23.8,19.6-30.9,20.3v-1.3c13.5-8.9,22.3-15.4,26.3-19.7l1.3-3.2c-3-3.2-4.6-5.8-4.6-7.9
		C413.9,116.3,416.3,112.1,418.9,112.1z M560.7,115.4h1.3c0.9,0,2.5,2,4.6,5.9l-1.3,3.9h-2c-2.6-2.6-4.8-3.9-6.6-3.9
		c-2,0-3.6,9.2-4.6,27.6l-2,6.6h-0.6c-6.1-12.7-12-19-17.8-19c-3-2.3-4.6-4.5-4.6-6.6c0.4-3.5,1.3-5.3,2.6-5.3
		c4.5,0,10.8,6.1,19,18.4c0.8-1,1.9-7.4,3.3-19.1C554.8,118.3,557.7,115.4,560.7,115.4z M155,116.1v1.3l-1.3,3.3h-0.6V120
		C153.5,117.4,154.2,116.1,155,116.1z M298.8,116.1v4.6c0,4.8,1.8,7.2,5.3,7.2h1.3c0-1.3,0.4-1.9,1.3-1.9c0,5.7-1.8,8.5-5.3,8.5
		h-1.3c-2.6-1.8-3.9-3.9-3.9-6.6v-1.3C296.5,119.6,297.4,116.1,298.8,116.1z M506.3,116.8v0.6c0,3.5-3.9,7-11.8,10.5l-45.9,25.6
		h-1.3l-0.7-0.7v-0.6c0-3.2,7-8.2,21-15.1C482.8,128.2,495.8,121.4,506.3,116.8z M598.8,131.2c3-9.2,5.9-13.8,8.5-13.8
		c2.7,0,4.6,3.3,5.9,9.9l-0.6,0.6v0.7c0,5.3,1.5,10.1,4.6,14.4v1.9l-1.3,1.3l-7.2-3.2c-15.3,16-31.3,25.8-48,29.5
		c2.4-2.2,9.6-6.5,21.7-13.1c11.3-6.7,18.9-12.5,22.9-17.7v-1.3C601.1,136.1,598.9,133.1,598.8,131.2z M415.7,122.6v0.7l3.2,3.2
		c1.8-0.4,2.6-1.7,2.6-3.9V122c-1.1-2.2-2.1-3.3-3.2-3.3C416.6,119.2,415.7,120.5,415.7,122.6z M152.4,122.6h1.3v4.6
		c1.3,4.8,2.7,7.2,3.9,7.2h2c0.9,0,1.3-0.6,1.3-1.9l0.6-0.7h0.7l0.6,0.7v0.6c-1.6,4.9-3.1,7.5-4.6,7.9h-2c-3.5-2.2-5.3-5.4-5.3-9.8
		v-2.6L152.4,122.6z M602.1,127.3c0,3.4,2.4,5.6,7.2,6.6l1.3-1.3v-0.7c-0.6-4.8-1.7-7.2-3.2-7.2h-0.7
		C604.3,124.6,602.8,125.5,602.1,127.3z M333,135.8l0.6,0.7v0.6c0,2.9-9.4,7-28.2,12.5c-25.6,8.9-39.1,15.5-40.7,19.7
		c0,0.9,2,2.9,5.9,5.9v1.3l-1.9,2v0.6c-4.4-1.5-6.6-3.3-6.6-5.3c0-11.2,10.3-19.3,30.8-24.2C315.6,140.4,329,135.8,333,135.8z
		 M241.1,145.6c5.5,0.4,9.7,1.3,12.4,2.6v2.6c-4.9,10-11.7,15.1-20.3,15.1c0-0.8,3.9-4,11.8-9.8v-0.7l-4.6-1.3h-4.6
		c-7.9,0.9-11.8,2-11.8,3.3h-0.7c2.3-7.5,7.1-11.2,14.4-11.2L241.1,145.6z M141.3,158.1v0.7l-3.3,15.8v5.3c0,6.5,2,11.1,6,13.7h0.6
		c1,0,1.9-1.8,2.6-5.3h2v1.3h0.6c-2.3,8.8-4.5,13.1-6.6,13.1h-1.9c-4.8-3.7-7.3-9.4-7.3-17.1V185C134,175.8,136.5,166.8,141.3,158.1
		z M430.1,158.8l7.9,7.9v1.3c0,2.3-1.8,5-5.3,7.9h-0.7l-8.5-6.6h-1.3c-2.4,5.3-4.4,7.9-6,7.9c-6.5-3.2-9.8-6.2-9.8-9.2l5.3-7.3
		l9.8,5.3h0.7C425.1,161.2,427.7,158.8,430.1,158.8z M508.9,163.3l0.6,0.7h0.7l-0.7,0.6v4.6c0,3.8,1.5,6.6,4.6,8.5h1.9
		c1.3,0,2-0.9,2-2.6h0.6v2c-1.3,4.8-2.6,7.2-3.9,7.2h-2.6c-2.2,0-3.9-3.5-5.3-10.5L508.9,163.3z M325.1,165.3h0.6
		c3.1,5.3,4.6,9.6,4.6,12.8s-2,6-6,8.2h-2.6l-5.3-2.6c-2.9,3.5-6,5.3-9.2,5.3c-1.3,0-2.6-2.2-3.9-6.6c0.9-2,1.3-4.8,1.3-8.6v-1.9
		h1.3l-0.6,5.9c0,2.7,1.8,4.3,5.3,4.6h0.6c3.1-1.6,4.6-3.8,4.6-6.6l-0.7-7.9l0.7-2h1.9l0.7,2.6l-0.7,0.7v0.6c0,6.1,2.4,9.2,7.3,9.2
		h1.3l-2.6-9.8L325.1,165.3z M173.4,168h1.3c8.3,10.3,12.5,23.2,12.5,38.7c0,2.3-0.9,5.1-2.6,8.6h-1.3v-10.5
		c-0.4-5.7-4.1-16.2-11.2-31.5L173.4,168z M80.2,169.9h0.7v0.7l-2.6,8.5h-0.7v-1.9L80.2,169.9z M466.9,173.2
		c8.3,8.8,12.4,13.6,12.4,14.4v0.6h-3.2l-1.3,1.3c6.5,13.8,9.8,22.1,9.8,24.9v0.7c0,13.5-4.6,22.7-13.7,27.6
		c-4.4,3-6.6,7.4-6.6,13.1v0.6c0,10.4,4.8,17.2,14.4,20.4l3.9,1.3c14.6,0,30.1-7.4,46.6-22.3c7.9-6,12.3-11.4,13.1-16.5l-1.9-1.9
		l-17.8,2.6c-9.2-0.7-13.7-5.3-13.7-13.8c2.9-13.1,8.1-19.7,15.8-19.7c5.1,0,11.8,5.3,20.3,15.8h0.7c5-1.7,12.2-5.8,21.6-12.4h1.3
		l1.3,1.3v7.9c0,5.4,5.3,8.7,15.8,9.8h0.7c8.5,0,15.7-6.6,21.6-19.7l2-1.3h0.6l-2.6,9.2c3.2,5.3,7.3,7.9,12.5,7.9h3.2
		c2.3,0,3.6-0.6,3.9-1.9c0-1.6-1.1-4.4-3.2-8.6c1.5-5.3,2.6-7.9,3.2-7.9h0.7c3,4.3,4.6,8.7,4.6,13.1c0,8.7-3.5,14.6-10.5,17.8h-2.6
		c-5,0-10.5-3.1-16.4-9.2h-0.7c-6.8,8.3-13.8,12.4-21,12.4c-10.9-1.9-16.4-7.2-16.4-15.8l-0.7-0.6v-0.7
		c-11.8,4.6-17.7,10.7-17.7,18.4c0,8.6-11.2,21.3-33.5,38.1c-10.5,6.6-20.6,9.9-30.4,9.9c-9.8,0-16.9-6.1-21.4-18.4l-1.3-7.3
		l1.3-11.8l-0.7-0.6H459c-27.3,17.9-47.2,26.9-59.8,26.9c-1.5,0.9-10.5,2.4-26.9,4.6v-0.7l32.1-13.1c23.8-10.3,47-23.9,69.6-40.7
		c3.5-3.2,5.3-5.8,5.3-7.9v-0.6l-11.8-27.6l-3.9-10.5C464.6,176.3,465.7,173.2,466.9,173.2z M604,175.8h1.3c0.5,5.7,2.2,8.5,5.3,8.5
		l2.6-1.3v1.3c-1.2,2.9-2.5,4.7-3.9,5.3h-1.9c-2.6-1-3.9-4.1-3.9-9.2v-1.3L604,175.8z M107.8,177.2v7.9c0,3.9,1.8,6.1,5.3,6.6l2-1.3
		v3.9c-1.6,3-3.3,4.6-5.3,4.6c-3.1-2.3-4.6-6.4-4.6-12.4v-2C105.8,179.5,106.7,177.2,107.8,177.2z M440.6,181.7v0.7
		c-0.2,5.7-4.2,13.1-11.8,22.3v1.9c8.3,6.8,12.4,12.3,12.4,16.5c0,11.8-5,19.7-15.1,23.6l-9.9,3.2c-4.8,0-7.6-3.5-8.5-10.5v-1.9
		c0-7.5,2.2-14.8,6.6-21.7v-1.3c0-1.8-3.7-6.1-11.2-13.1l-5.3-7.2V189c0.3-2.6,1-3.9,2-3.9h1.3l14.4,6.6v1.3c0,0.9-0.7,1.3-2,1.3
		l-0.6,0.6v1.3c0.4,1.2,2.6,3.2,6.6,6h1.3c2.4,0,5.9-3.7,10.5-11.2L440.6,181.7z M411.7,231.6c0,2.6,1.3,4.6,3.9,6h3.2
		c11-3.1,16.5-6.6,16.5-10.5c-0.8-3-5.6-6.3-14.4-9.9C418.5,217.1,415.4,222,411.7,231.6z M516.8,225c1.9,1.8,4.3,2.6,7.2,2.6
		c5.7-0.3,8.6-1.2,8.6-2.6c0-2-3.3-3.7-9.9-5.3C519.1,219.8,517.2,221.5,516.8,225z M119,224.4h1.3c6.1,3.1,9.2,6.2,9.2,9.2
		c0,2-1.8,4.2-5.3,6.6c-2.7,0-6-2.4-9.9-7.3v-0.6C114.3,230.2,115.9,227.6,119,224.4z M211.5,228.4c0,5.8,4.2,9.7,12.5,11.8h1.9
		v-0.7C222.7,232.1,217.9,228.4,211.5,228.4z M285.7,235.5l0.6,0.7h0.7l-0.7,4.6v2.6c0,4,1.1,6,3.3,6l3.2-2v0.7
		c-1.2,5.3-2.9,7.9-5.3,7.9c-2,0-3.6-2.4-4.6-7.3C283.1,245.7,284,241.4,285.7,235.5z M101.2,248.7c1.2,5.7,2.5,8.6,3.9,8.6h2
		l1.9-1.3h0.7v3.2c-1.9,3.1-3.2,4.6-3.9,4.6h-2c-3-2.2-4.6-6-4.6-11.2C99.7,250,100.3,248.7,101.2,248.7z M355.9,250h0.7l-1.3,5.3
		v3.3c0,3.9,1.8,6.1,5.3,6.6l3.2-3.3v0.7c-2.1,6.1-4.3,9.2-6.6,9.2c-3.5-1.1-5.3-4.6-5.3-10.5C353.5,253.7,354.9,250,355.9,250z
		 M616.5,254.6c-1.6,8.8-4.5,13.1-8.6,13.1l-6.6-1.3l-7.2,3.2h-0.7l-9.8-2.6c-3,0.4-10.5,4.6-22.3,12.5l-9.2,3.2v-0.6
		c18.6-14,30.6-21,36.1-21c3.2,1.8,5.6,2.6,7.3,2.6c3.6,0,6.8-2,9.8-6h0.7c0,1.3,0.9,2.5,2.6,3.3h1.9c2.6,0,3.9-2,3.9-6l0.7-0.6
		H616.5z M185.2,261.8l-1.9,7.3c0.4,7,1.7,10.5,3.9,10.5h1.9c1.3,0,2-1.1,2-3.3h1.3v1.3c-0.9,5.7-3.1,8.6-6.6,8.6
		c-2.9,0-4.8-3.7-6-11.2C181.9,266.2,183.7,261.8,185.2,261.8z M220.1,267c0.5,7.5,2.3,11.2,5.3,11.2l2.6-1.3v0.6c0,4-1.8,6-5.3,6
		H222c-3-1.8-4.6-4.8-4.6-9.2C218,269.5,218.8,267,220.1,267z"/>
</g>
</svg>
