<?xml version="1.0" encoding="utf-8"?>
<!-- Generator: Adobe Illustrator 25.2.3, SVG Export Plug-In . SVG Version: 6.00 Build 0)  -->
<svg version="1.1" xmlns="http://www.w3.org/2000/svg" xmlns:xlink="http://www.w3.org/1999/xlink" x="0px" y="0px"
	 viewBox="0 0 700 395" style="enable-background:new 0 0 700 395;" xml:space="preserve">
<style type="text/css">
	.st0{fill:#000222;}
	.st1{fill:#FFFFFF;}
</style>
<g id="Layer_1">
	<rect class="st0" width="700" height="395"/>
</g>
<g id="Layer_3">
	<g>
		<path class="st1" d="M273.5,368.6l1.1,4.2c0.2,0.9,0.5,1.8,0.6,2.6h0.1c0.2-0.8,0.5-1.7,0.7-2.6l1.3-4.2h1.3l1.3,4.1
			c0.3,1,0.5,1.9,0.7,2.7h0.1c0.1-0.8,0.4-1.7,0.6-2.7l1.2-4.1h1.5l-2.7,8.2H280l-1.3-3.9c-0.3-0.9-0.5-1.7-0.7-2.7h0
			c-0.2,1-0.5,1.8-0.7,2.7l-1.3,3.9h-1.4l-2.5-8.2H273.5z"/>
		<path class="st1" d="M286.3,368.6l1.1,4.2c0.2,0.9,0.5,1.8,0.6,2.6h0.1c0.2-0.8,0.5-1.7,0.7-2.6l1.3-4.2h1.3l1.3,4.1
			c0.3,1,0.5,1.9,0.7,2.7h0.1c0.1-0.8,0.4-1.7,0.6-2.7l1.2-4.1h1.5l-2.7,8.2h-1.4l-1.3-3.9c-0.3-0.9-0.5-1.7-0.7-2.7h0
			c-0.2,1-0.5,1.8-0.7,2.7l-1.3,3.9h-1.4l-2.5-8.2H286.3z"/>
		<path class="st1" d="M299,368.6l1.1,4.2c0.2,0.9,0.5,1.8,0.6,2.6h0.1c0.2-0.8,0.5-1.7,0.7-2.6l1.3-4.2h1.3l1.3,4.1
			c0.3,1,0.5,1.9,0.7,2.7h0.1c0.1-0.8,0.4-1.7,0.6-2.7l1.2-4.1h1.5l-2.7,8.2h-1.4l-1.3-3.9c-0.3-0.9-0.5-1.7-0.7-2.7h0
			c-0.2,1-0.5,1.8-0.7,2.7l-1.3,3.9h-1.4l-2.5-8.2H299z"/>
		<path class="st1" d="M309.9,375.9c0-0.6,0.4-1.1,1-1.1c0.6,0,1,0.4,1,1.1c0,0.6-0.4,1.1-1,1.1C310.3,377,309.9,376.5,309.9,375.9z
			"/>
		<path class="st1" d="M313.5,375.3c0.4,0.3,1.2,0.6,2,0.6c1.1,0,1.6-0.5,1.6-1.2c0-0.7-0.4-1.1-1.5-1.5c-1.5-0.5-2.2-1.3-2.2-2.3
			c0-1.3,1.1-2.4,2.8-2.4c0.8,0,1.6,0.2,2,0.5l-0.4,1.1c-0.3-0.2-0.9-0.5-1.7-0.5c-0.9,0-1.4,0.5-1.4,1.1c0,0.7,0.5,1,1.6,1.4
			c1.4,0.5,2.2,1.3,2.2,2.5c0,1.4-1.1,2.5-3.1,2.5c-0.9,0-1.7-0.2-2.3-0.6L313.5,375.3z"/>
		<path class="st1" d="M327.4,374.6c0,0.9,0,1.6,0.1,2.2h-1.3l-0.1-1.3h0c-0.4,0.7-1.3,1.5-2.7,1.5c-1.3,0-2.8-0.7-2.8-3.6v-4.8h1.5
			v4.6c0,1.6,0.5,2.6,1.8,2.6c1,0,1.7-0.7,2-1.4c0.1-0.2,0.1-0.5,0.1-0.8v-5h1.5V374.6z"/>
		<path class="st1" d="M329.8,371.1c0-1,0-1.8-0.1-2.6h1.3l0.1,1.6h0.1c0.4-1.1,1.3-1.8,2.3-1.8c0.2,0,0.3,0,0.4,0.1v1.4
			c-0.2,0-0.3-0.1-0.5-0.1c-1.1,0-1.8,0.8-2,1.9c0,0.2-0.1,0.4-0.1,0.7v4.4h-1.5V371.1z"/>
		<path class="st1" d="M339.9,376.8l-0.1-1h-0.1c-0.5,0.6-1.3,1.2-2.5,1.2c-1.7,0-2.5-1.2-2.5-2.4c0-2,1.8-3.1,4.9-3.1v-0.2
			c0-0.7-0.2-1.9-1.9-1.9c-0.8,0-1.6,0.2-2.1,0.6l-0.3-1c0.7-0.4,1.7-0.7,2.7-0.7c2.5,0,3.1,1.7,3.1,3.4v3.1c0,0.7,0,1.4,0.1,2
			H339.9z M339.7,372.6c-1.6,0-3.5,0.3-3.5,1.9c0,1,0.6,1.4,1.4,1.4c1.1,0,1.8-0.7,2-1.4c0.1-0.2,0.1-0.3,0.1-0.5V372.6z"/>
		<path class="st1" d="M343.5,364.7h1.5v5.1h0c0.2-0.4,0.6-0.8,1.1-1.1c0.4-0.3,1-0.4,1.5-0.4c1.1,0,2.9,0.7,2.9,3.5v4.9H349v-4.7
			c0-1.3-0.5-2.4-1.9-2.4c-1,0-1.7,0.7-2,1.5c-0.1,0.2-0.1,0.4-0.1,0.7v5h-1.5V364.7z"/>
		<path class="st1" d="M358.6,375.5L358.6,375.5c-0.5,0.8-1.4,1.5-2.7,1.5c-1.9,0-3.5-1.7-3.5-4.2c0-3.1,2-4.4,3.7-4.4
			c1.3,0,2.1,0.6,2.5,1.4h0l0.1-1.2h1.4c0,0.7-0.1,1.4-0.1,2.3v9.3h-1.5V375.5z M358.6,371.9c0-0.2,0-0.4-0.1-0.6
			c-0.2-0.9-1-1.7-2.1-1.7c-1.5,0-2.5,1.3-2.5,3.2c0,1.6,0.8,3.1,2.4,3.1c1,0,1.8-0.6,2.1-1.6c0.1-0.2,0.1-0.5,0.1-0.7V371.9z"/>
		<path class="st1" d="M369.4,374.6c0,0.9,0,1.6,0.1,2.2h-1.3l-0.1-1.3h0c-0.4,0.7-1.3,1.5-2.7,1.5c-1.3,0-2.8-0.7-2.8-3.6v-4.8h1.5
			v4.6c0,1.6,0.5,2.6,1.8,2.6c1,0,1.7-0.7,2-1.4c0.1-0.2,0.1-0.5,0.1-0.8v-5h1.5V374.6z"/>
		<path class="st1" d="M371.9,371.1c0-1,0-1.8-0.1-2.6h1.3l0.1,1.6h0.1c0.4-1.1,1.3-1.8,2.3-1.8c0.2,0,0.3,0,0.4,0.1v1.4
			c-0.2,0-0.3-0.1-0.5-0.1c-1.1,0-1.8,0.8-2,1.9c0,0.2-0.1,0.4-0.1,0.7v4.4h-1.5V371.1z"/>
		<path class="st1" d="M381.9,376.8l-0.1-1h-0.1c-0.5,0.6-1.3,1.2-2.5,1.2c-1.7,0-2.5-1.2-2.5-2.4c0-2,1.8-3.1,4.9-3.1v-0.2
			c0-0.7-0.2-1.9-1.9-1.9c-0.8,0-1.6,0.2-2.1,0.6l-0.3-1c0.7-0.4,1.7-0.7,2.7-0.7c2.5,0,3.1,1.7,3.1,3.4v3.1c0,0.7,0,1.4,0.1,2
			H381.9z M381.7,372.6c-1.6,0-3.5,0.3-3.5,1.9c0,1,0.6,1.4,1.4,1.4c1.1,0,1.8-0.7,2-1.4c0.1-0.2,0.1-0.3,0.1-0.5V372.6z"/>
		<path class="st1" d="M385.6,370.8c0-0.9,0-1.5-0.1-2.2h1.3l0.1,1.4h0c0.4-0.8,1.4-1.5,2.7-1.5c1.1,0,2.9,0.7,2.9,3.5v4.9h-1.5
			v-4.7c0-1.3-0.5-2.4-1.9-2.4c-1,0-1.8,0.7-2,1.5c-0.1,0.2-0.1,0.4-0.1,0.7v4.9h-1.5V370.8z"/>
		<path class="st1" d="M394.6,375.9c0-0.6,0.4-1.1,1-1.1c0.6,0,1,0.4,1,1.1c0,0.6-0.4,1.1-1,1.1C395,377,394.6,376.5,394.6,375.9z"
			/>
		<path class="st1" d="M404.4,376.5c-0.4,0.2-1.3,0.5-2.4,0.5c-2.5,0-4.1-1.7-4.1-4.2c0-2.5,1.7-4.4,4.4-4.4c0.9,0,1.7,0.2,2.1,0.4
			l-0.3,1.2c-0.4-0.2-0.9-0.4-1.7-0.4c-1.9,0-2.9,1.4-2.9,3.1c0,1.9,1.2,3.1,2.9,3.1c0.8,0,1.4-0.2,1.8-0.4L404.4,376.5z"/>
		<path class="st1" d="M413.5,372.6c0,3-2.1,4.4-4.1,4.4c-2.2,0-3.9-1.6-3.9-4.2c0-2.8,1.8-4.4,4.1-4.4
			C411.9,368.4,413.5,370.1,413.5,372.6z M406.9,372.7c0,1.8,1,3.2,2.5,3.2c1.4,0,2.5-1.3,2.5-3.2c0-1.4-0.7-3.2-2.5-3.2
			S406.9,371.1,406.9,372.7z"/>
		<path class="st1" d="M415.4,370.8c0-0.9,0-1.5-0.1-2.2h1.3l0.1,1.3h0.1c0.5-0.8,1.2-1.5,2.6-1.5c1.1,0,2,0.7,2.3,1.6h0
			c0.3-0.5,0.6-0.8,0.9-1.1c0.5-0.4,1-0.6,1.8-0.6c1.1,0,2.7,0.7,2.7,3.6v4.8h-1.5v-4.7c0-1.6-0.6-2.5-1.8-2.5
			c-0.9,0-1.5,0.6-1.8,1.4c-0.1,0.2-0.1,0.5-0.1,0.7v5.1h-1.5v-4.9c0-1.3-0.6-2.3-1.7-2.3c-0.9,0-1.6,0.7-1.9,1.5
			c-0.1,0.2-0.1,0.5-0.1,0.7v5h-1.5V370.8z"/>
	</g>
</g>
<g id="Layer_4">
	<path class="st1" d="M581.9,104.5c3.5,1.3,5.2,4,5.2,7.9l-0.7,3.3h-1.3l-5.8-3.9c-1.8,0.6-3.1,1.7-3.9,3.2v9.9
		c0,12.6-1.3,19.8-3.9,21.5h-0.7c-5.4-12.2-11-18.3-17-18.3c-3.9-2.1-5.8-4.9-5.8-8.5c0.4-2.6,1-3.9,1.9-3.9h1.3
		c3.6,0,10.1,5.7,19.6,17h0.7V132C571.5,113.7,575,104.5,581.9,104.5z M629.1,105.2c4.4,1.4,6.5,5.5,6.5,12.4v7.2
		c3,2.7,4.5,5.3,4.5,7.9l-0.6,1.9l-7.2-2.6h-0.6c-21.4,20.1-37.8,30.8-49.1,32.1v-0.7c0.8-1.5,10.6-8.1,29.5-19.6
		c10-7.4,15-12.4,15-15c-4.4-3.7-6.5-6.9-6.5-9.9c0-4.8,2.6-9.4,7.9-13.7H629.1z M358.2,107.1c8.3,15.8,12.7,26,13.1,30.8v0.6
		c-1.5,0-3.1-0.6-4.6-1.9h-1.3v3.2c5.7,39,8.5,61.2,8.5,66.7c0,13.8-4.2,23-12.5,27.5c-1.5,10-3.2,16.8-5.2,20.3
		c-19.6,22.2-38.6,33.3-56.9,33.3c-13.5,0-21.4-9.4-23.6-28.1l1.3-15.1h-1.3c-9.9,6.6-20.6,9.9-32.1,9.9c-8.7,0-19.6-6.3-32.7-19
		h-1.3c-22.3,13.1-41.1,19.6-56.3,19.6h-1.3c-12.7,0-23.3-6.7-32-20.2c-3.3-6.1-6.4-9.2-9.2-9.2c-10.1,4-17.5,12.1-22.2,24.2
		c-5.6,18.3-11.5,27.5-17.7,27.5c-12.2,0-20.1-12.2-23.6-36.6l-0.6-4.5c0.6-9.6,1.5-14.4,2.6-14.4H50v10.5
		c0,11.4,4.6,21.9,13.8,31.4l4.5,1.3h2.6c4.7,0,10.8-10.7,18.3-32.1c6.8-11.3,14.9-18.5,24.3-21.5c2.8,0.3,7,5.6,12.4,15.7
		c6.2,10,17.1,15,32.7,15c12.6,0,26.4-4.8,41.3-14.4l0.6-2.6c-7-5.6-12-8.5-14.9-8.5s-7.1,1.1-12.6,3.2v-1.3h-0.6
		c2-10,6.4-15,13.1-15c2.9-1.6,11-3.1,24.2-4.6c23.1,1.5,34.7,4.5,34.7,9.2c0,6.9-4.2,11.7-12.5,14.4l-10.5,7.2
		c6.3,7.9,14.1,11.8,23.6,11.8h3.9c11.3,0,22.5-4.8,33.4-14.4l1.3-2v-0.6c-1.3-5.2-5.1-7.9-11.2-7.9L262,217
		c-7.4-2.2-11.1-5.8-11.1-11.1v-2.6c0-9.5,5.2-16.5,15.7-20.9h1.9c4.2,0,9.7,5.4,16.4,16.3l3.9,15.1v7.2c0,5.2-2.4,12.6-7.2,22.2
		L281,255c0,11.4,6.3,17.9,18.9,19.6h3.9c13.8,0,30.6-9.6,50.4-28.8l0.6-3.2v-3.3c0-1-0.9-1.7-2.6-1.9l-12.4,2.6h-1.3
		c-7.6,0-12.2-3.9-13.8-11.8v-0.7c2.2-14,7.4-20.9,15.7-20.9c5.3,0,11,5.2,17,15.7h0.7c6.5-1.2,9.8-4.3,9.8-9.2
		C359.8,149,355,117,353.6,117C355.2,110.4,356.7,107.1,358.2,107.1z M388.9,107.1h0.7c4.7,7,9,17.2,13.1,30.8l-0.7,1.9h-0.6
		l-5.2-3.9h-0.7l9.9,78.5l0.6,26.2c-2.1,10.9-3.8,16.4-5.2,16.4l-0.6-0.7v-0.6c0-19-5-65.6-15.1-140
		C385,112.9,386.3,110.1,388.9,107.1z M439.9,107.1h0.7c2.2,1,3.2,3.2,3.2,6.5v3.3l-0.6,7.9c4.4,3.3,6.5,6.1,6.5,8.5v1.3
		c0,0.9-0.7,1.3-2,1.3c-4.4-2.6-7.2-3.9-8.5-3.9c-9,10.9-19,18.6-30.1,22.9h-2v-1.3c14.4-10,24-17.9,28.8-23.6v-1.3
		c-3.1-3.1-4.8-5.9-5.2-8.5C432.6,111.5,435.7,107.1,439.9,107.1z M295.4,108.4h0.6c8.7,13.4,13.3,22.4,13.8,26.9l-1.3,1.3l-3.9-2.6
		h-1.3l-0.7,1.9c8.3,49.3,12.5,79.3,12.5,89.9c0,10.6-1.7,19.3-5.2,25.9l-1.3-2.6l0.6-4.6V238c-1.3-16.4-6.7-55.9-16.3-118.4
		l-0.7-0.7v-0.6C293,111.7,294.1,108.4,295.4,108.4z M526.3,108.4v3.3c-1.3,2.5-15,11.7-41.2,27.5l-17.7,9.8v-0.6l-0.6-0.7v-0.6
		c0-3.5,9.8-10.7,29.4-21.6C514.9,114.1,525,108.4,526.3,108.4z M252.2,110.4h0.6l2,1.9c0,4.1-3.5,6.9-10.5,8.5
		c-33,13.1-69.2,31.2-108.6,54.3l-0.7-1.9c0-4.6,3.3-8.3,9.9-11.2c34.3-20.9,69.3-37.9,105.3-51L252.2,110.4z M173,112.4v1.3
		l-2.6,7.2v3.9c0.5,3.3,1.4,5,2.6,5.2h2l2.6-2h0.6v1.3c-1.4,5.7-3.8,8.5-7.2,8.5c-2.6-2.4-3.9-5.7-3.9-9.9
		C169.4,117.6,171.4,112.4,173,112.4z M624.4,115v0.7c0,2.9,2.4,4.9,7.2,5.8v-3.9c0-2.3-0.9-3.8-2.6-4.5h-2.6L624.4,115z
		 M435.4,116.3v2c0.9,2.2,2.4,3.2,4.5,3.2l0.7-0.6v-2c0-2.3-0.9-3.8-2.6-4.5h-0.7L435.4,116.3z M332.6,114.4l-0.6,4.5v8.5
		c0,3.5,1.5,5.7,4.5,6.5l3.3-3.9v1.3c0,4.8-1.5,8-4.6,9.8c-4,0-6.4-3.9-7.2-11.8C329.7,119.4,331.2,114.4,332.6,114.4z M86,115h0.6
		c4.4,3.3,6.5,7.2,6.5,11.8l-0.6,0.7h-2l-5.2-4.6h-0.6l-1.3,1.3v9.9c0,7-0.7,13.6-2,19.6h-0.6l-11.2-14.4l-0.6-0.7h-0.7
		c-1.3,0.7-3.3,4.6-5.8,11.8c-7.4,9-14.4,14.5-20.9,16.4h-0.7V166c15.3-13.5,22.9-22.2,22.9-26.2v-1.3c-4.4-3.7-6.5-6.9-6.5-9.8
		c0.5-3.5,1.4-5.2,2.6-5.2c3.2,0,9.5,5.4,18.9,16.3h1.3v-9.2C81.4,120.2,83.4,115,86,115z M271.1,115h0.7l-0.7,6.5v3.9
		c0,2.4,1.3,4.4,3.9,5.9l2-2.6l0.6-0.7h1.3v1.3c0,3.5-1.9,6.5-5.8,9.2c-4-1.7-5.9-5.4-5.9-11.1C268.4,121.6,269.7,117.5,271.1,115z
		 M122,117.6h1.3c-3,11-4.5,19.3-4.5,24.8c0,5.6,1.7,9.9,5.2,13.1h2.6l0.6-0.6c1.3-3.5,2.4-5.2,3.3-5.2l0.6,0.6v0.7
		c-1.9,9.6-4.5,14.4-7.9,14.4c-4.1,0-7.1-5.7-9.2-17C116.7,133.7,119.4,123.5,122,117.6z M532.8,149.7h0.7v1.3l-1.3,7.9v3.9
		c1.1,4.8,2.4,7.2,3.9,7.2h1.9c1-0.2,2.2-1.9,3.3-5.2h0.6l0.7,0.7v0.6c0,3.6-1.7,7.3-5.2,11.2h-1.3c-4.8-0.9-7.2-4.7-7.2-11.2
		C528.9,162.6,530.2,157.2,532.8,149.7z M215.6,151.6c3.9,1.4,5.8,5.1,5.8,11.2l-1.3,1.3c-2.3-2.2-4.2-3.3-5.8-3.3v5.9l0.6,6.5
		l-1.9,13.7h-1.3c-6.7-10.9-13.1-16.3-19-16.3c-1.7-1.2-2.8-2.8-3.2-4.6c0.8-4.4,1.6-6.5,2.6-6.5c3.9,0,9.6,4.8,17,14.4h1.9v-5.2
		l-0.6-7.2C211.6,154.9,213.4,151.6,215.6,151.6z M632.3,152.9v1.3c-1.7,2.5-2.6,6.4-2.6,11.8c1,4,2.1,5.9,3.3,5.9
		c1.6,0,3.3-1.1,5.2-3.3v1.3c0,4-1.7,7.3-5.2,9.9c-4.4-2-6.5-5.7-6.5-11.2C628.6,158.1,630.5,152.9,632.3,152.9z M267.9,154.2
		c2.3,0.8,5.5,3.6,9.8,8.5c-1.3,3.3-3.3,5.9-5.8,7.9h-2l-7.9-5.2l-6.5,6.5h-0.6c-2.7,0-6-2.2-9.9-6.5v-0.7c1.3-5.6,3.5-8.5,6.5-8.5
		l9.2,4.5L267.9,154.2z M353,154.2l1.3,2c0,3.5-12.2,10-36.6,19.6h-0.7v-1.3c0-3.3,4.6-6.6,13.8-9.9L353,154.2z M448.5,154.2h2.6
		c6.1,4.4,9.2,7.7,9.2,9.9c-1.3,3.3-3.3,5.9-5.9,7.9h-0.6l-8.5-5.9h-0.6c-3.6,5.2-5.8,7.9-6.5,7.9c-7-3.3-10.5-6.1-10.5-8.5
		c2.2-5.7,3.7-8.5,4.5-8.5h2l7.2,4.6h2L448.5,154.2z M489,166.7c8.7,8.6,13.1,13.8,13.1,15.7l-0.7,0.6h-3.9l10.5,21.6l0.7,7.2
		c0,11.9-4.6,20.6-13.8,26.2c-3.5,3.5-5.2,7-5.2,10.5v5.2c0,10.6,6.5,16.9,19.6,19c16.8,0,35.6-12,56.3-36l1.3-1.9v-3.3l-1.3-1.3
		l-18.3,3.3c-9.6-1.6-14.4-6.2-14.4-13.8c0-11.4,5.2-18.4,15.7-20.9h1.3c5,0,11.3,4.8,19,14.4h0.6c3.4,0,10.4-4.4,20.9-13.1l2.6-0.6
		l2,3.2l-0.7,3.3c0,8.3,6.1,12.4,18.3,12.4c6.7,0,13.7-7.2,20.9-21.5l0.7-0.7h1.9v0.7l-2.6,9.2c0,3,4.4,5.4,13.1,7.2h2
		c2.3,0,3.8-0.9,4.5-2.6l-3.2-7.9c0.3-6.1,1.4-9.2,3.4-9.2c1.9,0,3.9,5.5,5.8,16.4c-2.2,11.3-6.1,17-11.8,17
		c-7.3,0-13.4-3.3-18.3-9.9c-1,0-2.5,2-4.6,5.9c-6,5.6-12.3,8.5-18.9,8.5h-0.7c-6.8,0-12-5.4-15.7-16.3l-0.6-0.7h-0.7
		c-1,0-4.2,2.6-9.8,7.9c-3.4,0-5.8,6.5-7.2,19.6c-21.8,28.8-42.3,43.2-61.5,43.2c-10,0-17.4-5.9-22.2-17.6c-0.9-2-1.3-4.8-1.3-8.5
		v-11.1h-1.9c-28,19.2-47,28.8-57,28.8c-17.3,4.4-27.4,6.5-30.1,6.5v-0.7c1.3-1.5,13.6-7.1,36.6-17c24.1-12.6,45.2-26.3,63.5-41.2
		c4.4-4.5,6.5-7.5,6.5-9.2l-13.1-26.9l-4.6-11.8C486.7,170,487.8,166.7,489,166.7z M105,173.2h2c5.1,2.5,8.5,5.6,10.5,9.2v1.3
		c-1.3,3.1-3,5.3-5.2,6.5h-2.6c-4.4-3.5-7.5-5.2-9.2-5.2c-2.9,4.6-4.9,7-5.9,7.2c-3.1,0-7.5-2.8-13.1-8.5c2.2-5.6,4-8.4,5.2-8.5h2.6
		l7.2,3.9h2.6L105,173.2z M462.2,176.5h0.7v0.7c0,5.5-3.7,13.6-11.2,24.2v1.3c8.4,6.2,13,11.8,13.8,17c0,11.7-5,19.5-15.1,23.6
		c-3.4,2.4-6.9,3.7-10.5,3.9c-5.2,0-8.3-4.1-9.2-12.4c0-5.8,2.2-14.1,6.5-24.9l-13.1-13.1c-3-1.9-4.5-4.9-4.5-9.2l1.3-5.9
		c11.3,3.7,17,6.3,17,7.9v1.3l-2.6,0.7v1.3c3.4,3.9,6.4,5.8,9.2,5.8L462.2,176.5z M57.9,181.1h0.7l-0.7,6.5c0,8.3,1.3,12.4,3.9,12.4
		h0.7c0.9,0,1.8-1.5,2.6-4.5h1.3v1.3H67c-1.2,7.4-3.2,11.1-5.8,11.1c-3.4,0-5.6-4.6-6.5-13.7C54.6,190.7,55.7,186.3,57.9,181.1z
		 M149.5,183h0.7v0.7l-1.3,3.2h-0.7v-2.6L149.5,183z M147.5,187.6l1.3,1.3v3.9c0,5.6,1.9,8.5,5.8,8.5l2-1.3h1.3v2
		c0,3-1.7,5.4-5.2,7.2c-4.8-2.7-7.2-6.4-7.2-11.1L147.5,187.6z M259.4,201.3c1.7,1.3,3.7,2,5.9,2h0.6l7.2-1.3v-1.3
		c0-0.8-1.5-2.1-4.6-3.9h-5.8C260.5,198.1,259.4,199.6,259.4,201.3z M207,212.5v1.9c2,3.1,4,5.1,5.9,5.9h1.3
		c4.4-2.2,7.2-4.4,8.5-6.5v-0.7l-11.1-1.3L207,212.5z M540.7,217l6.5,2.6c6.1-0.4,9.2-1.3,9.2-2.6c-1.9-3-4.7-4.5-8.5-4.5h-2
		C542.4,212.8,540.7,214.4,540.7,217z M436,228.2v1.3c0,3.5,2.1,5.2,6.3,5.2s9.8-3.5,16.6-10.5v-0.7c-5.4-6.5-10.4-9.8-15.1-9.8
		C441.5,213.8,438.9,218.6,436,228.2z M333.3,224.9c2.2,1.3,4.4,2,6.5,2h3.9l1.9-2c-2.2-3-4.8-4.5-7.8-4.5S333.3,221.9,333.3,224.9z
		 M642.1,242.6h1.3v0.6c-0.7,9.6-3.8,14.4-9.2,14.4l-5.9-1.3c0,1.2-2.8,2.8-8.5,4.6l-8.5-3.3c-2.4,0-11.1,5-26.2,15.1
		c-3.5,1.7-6.8,2.6-9.8,2.6l16.3-11.2c11.4-8.7,19-13.1,22.9-13.1l7.2,2.6c6.1-1,9.2-3.2,9.2-6.5h2c0,1.6,1.5,2.9,4.5,3.9
		C639.1,251,640.6,248.2,642.1,242.6z M378.4,245.2v1.3c-2.2,4-3.2,7.3-3.2,9.8v3.3c0.5,4.4,1.4,6.5,2.6,6.5h1.9
		c0.9,0,1.3-0.9,1.3-2.6l0.7-0.7h0.6l1.3,1.3c-2.7,6.1-4.9,9.2-6.5,9.2h-1.3c-2.4,0-4-3.5-4.5-10.5
		C374.1,251.1,376.5,245.2,378.4,245.2z M184.2,257v0.6l-2,9.2c0,6.6,2,9.9,5.9,9.9l3.9-3.3v0.7c-1.7,6.5-3.9,9.8-6.5,9.8
		c-3.6,0-5.6-3.5-5.9-10.5v-3.2C181,261.3,182.5,257,184.2,257z M269.2,258.3v1.9c0,3.1-2.4,5.1-7.2,5.9c-12.7,7-23,11.8-30.7,14.4
		h-0.7v-0.7c0-3.6,5.9-7.5,17.7-11.8C254.9,264.3,261.8,261,269.2,258.3z M134.5,260.9l0.6,1.9c-0.9,3-12.3,9.3-34,19
		c-5.1,3.5-9.2,5.2-12.4,5.2v-2c4.7-4.7,19.5-12.8,44.5-24.2H134.5z"/>
</g>
</svg>
