<?xml version="1.0" encoding="utf-8"?>
<!-- Generator: Adobe Illustrator 25.2.3, SVG Export Plug-In . SVG Version: 6.00 Build 0)  -->
<svg version="1.1" xmlns="http://www.w3.org/2000/svg" xmlns:xlink="http://www.w3.org/1999/xlink" x="0px" y="0px"
	 viewBox="0 0 700 395" style="enable-background:new 0 0 700 395;" xml:space="preserve">
<style type="text/css">
	.st0{fill:#000222;}
	.st1{fill:#FFFFFF;}
</style>
<g id="Layer_1">
	<rect class="st0" width="700" height="395"/>
</g>
<g id="Layer_3">
	<g>
		<path class="st1" d="M273.5,368.6l1.1,4.2c0.2,0.9,0.5,1.8,0.6,2.6h0.1c0.2-0.8,0.5-1.7,0.7-2.6l1.3-4.2h1.3l1.3,4.1
			c0.3,1,0.5,1.9,0.7,2.7h0.1c0.1-0.8,0.4-1.7,0.6-2.7l1.2-4.1h1.5l-2.7,8.2H280l-1.3-3.9c-0.3-0.9-0.5-1.7-0.7-2.7h0
			c-0.2,1-0.5,1.8-0.7,2.7l-1.3,3.9h-1.4l-2.5-8.2H273.5z"/>
		<path class="st1" d="M286.3,368.6l1.1,4.2c0.2,0.9,0.5,1.8,0.6,2.6h0.1c0.2-0.8,0.5-1.7,0.7-2.6l1.3-4.2h1.3l1.3,4.1
			c0.3,1,0.5,1.9,0.7,2.7h0.1c0.1-0.8,0.4-1.7,0.6-2.7l1.2-4.1h1.5l-2.7,8.2h-1.4l-1.3-3.9c-0.3-0.9-0.5-1.7-0.7-2.7h0
			c-0.2,1-0.5,1.8-0.7,2.7l-1.3,3.9h-1.4l-2.5-8.2H286.3z"/>
		<path class="st1" d="M299,368.6l1.1,4.2c0.2,0.9,0.5,1.8,0.6,2.6h0.1c0.2-0.8,0.5-1.7,0.7-2.6l1.3-4.2h1.3l1.3,4.1
			c0.3,1,0.5,1.9,0.7,2.7h0.1c0.1-0.8,0.4-1.7,0.6-2.7l1.2-4.1h1.5l-2.7,8.2h-1.4l-1.3-3.9c-0.3-0.9-0.5-1.7-0.7-2.7h0
			c-0.2,1-0.5,1.8-0.7,2.7l-1.3,3.9h-1.4l-2.5-8.2H299z"/>
		<path class="st1" d="M309.9,375.9c0-0.6,0.4-1.1,1-1.1c0.6,0,1,0.4,1,1.1c0,0.6-0.4,1.1-1,1.1C310.3,377,309.9,376.5,309.9,375.9z
			"/>
		<path class="st1" d="M313.5,375.3c0.4,0.3,1.2,0.6,2,0.6c1.1,0,1.6-0.5,1.6-1.2c0-0.7-0.4-1.1-1.5-1.5c-1.5-0.5-2.2-1.3-2.2-2.3
			c0-1.3,1.1-2.4,2.8-2.4c0.8,0,1.6,0.2,2,0.5l-0.4,1.1c-0.3-0.2-0.9-0.5-1.7-0.5c-0.9,0-1.4,0.5-1.4,1.1c0,0.7,0.5,1,1.6,1.4
			c1.4,0.5,2.2,1.3,2.2,2.5c0,1.4-1.1,2.5-3.1,2.5c-0.9,0-1.7-0.2-2.3-0.6L313.5,375.3z"/>
		<path class="st1" d="M327.4,374.6c0,0.9,0,1.6,0.1,2.2h-1.3l-0.1-1.3h0c-0.4,0.7-1.3,1.5-2.7,1.5c-1.3,0-2.8-0.7-2.8-3.6v-4.8h1.5
			v4.6c0,1.6,0.5,2.6,1.8,2.6c1,0,1.7-0.7,2-1.4c0.1-0.2,0.1-0.5,0.1-0.8v-5h1.5V374.6z"/>
		<path class="st1" d="M329.8,371.1c0-1,0-1.8-0.1-2.6h1.3l0.1,1.6h0.1c0.4-1.1,1.3-1.8,2.3-1.8c0.2,0,0.3,0,0.4,0.1v1.4
			c-0.2,0-0.3-0.1-0.5-0.1c-1.1,0-1.8,0.8-2,1.9c0,0.2-0.1,0.4-0.1,0.7v4.4h-1.5V371.1z"/>
		<path class="st1" d="M339.9,376.8l-0.1-1h-0.1c-0.5,0.6-1.3,1.2-2.5,1.2c-1.7,0-2.5-1.2-2.5-2.4c0-2,1.8-3.1,4.9-3.1v-0.2
			c0-0.7-0.2-1.9-1.9-1.9c-0.8,0-1.6,0.2-2.1,0.6l-0.3-1c0.7-0.4,1.7-0.7,2.7-0.7c2.5,0,3.1,1.7,3.1,3.4v3.1c0,0.7,0,1.4,0.1,2
			H339.9z M339.7,372.6c-1.6,0-3.5,0.3-3.5,1.9c0,1,0.6,1.4,1.4,1.4c1.1,0,1.8-0.7,2-1.4c0.1-0.2,0.1-0.3,0.1-0.5V372.6z"/>
		<path class="st1" d="M343.5,364.7h1.5v5.1h0c0.2-0.4,0.6-0.8,1.1-1.1c0.4-0.3,1-0.4,1.5-0.4c1.1,0,2.9,0.7,2.9,3.5v4.9H349v-4.7
			c0-1.3-0.5-2.4-1.9-2.4c-1,0-1.7,0.7-2,1.5c-0.1,0.2-0.1,0.4-0.1,0.7v5h-1.5V364.7z"/>
		<path class="st1" d="M358.6,375.5L358.6,375.5c-0.5,0.8-1.4,1.5-2.7,1.5c-1.9,0-3.5-1.7-3.5-4.2c0-3.1,2-4.4,3.7-4.4
			c1.3,0,2.1,0.6,2.5,1.4h0l0.1-1.2h1.4c0,0.7-0.1,1.4-0.1,2.3v9.3h-1.5V375.5z M358.6,371.9c0-0.2,0-0.4-0.1-0.6
			c-0.2-0.9-1-1.7-2.1-1.7c-1.5,0-2.5,1.3-2.5,3.2c0,1.6,0.8,3.1,2.4,3.1c1,0,1.8-0.6,2.1-1.6c0.1-0.2,0.1-0.5,0.1-0.7V371.9z"/>
		<path class="st1" d="M369.4,374.6c0,0.9,0,1.6,0.1,2.2h-1.3l-0.1-1.3h0c-0.4,0.7-1.3,1.5-2.7,1.5c-1.3,0-2.8-0.7-2.8-3.6v-4.8h1.5
			v4.6c0,1.6,0.5,2.6,1.8,2.6c1,0,1.7-0.7,2-1.4c0.1-0.2,0.1-0.5,0.1-0.8v-5h1.5V374.6z"/>
		<path class="st1" d="M371.9,371.1c0-1,0-1.8-0.1-2.6h1.3l0.1,1.6h0.1c0.4-1.1,1.3-1.8,2.3-1.8c0.2,0,0.3,0,0.4,0.1v1.4
			c-0.2,0-0.3-0.1-0.5-0.1c-1.1,0-1.8,0.8-2,1.9c0,0.2-0.1,0.4-0.1,0.7v4.4h-1.5V371.1z"/>
		<path class="st1" d="M381.9,376.8l-0.1-1h-0.1c-0.5,0.6-1.3,1.2-2.5,1.2c-1.7,0-2.5-1.2-2.5-2.4c0-2,1.8-3.1,4.9-3.1v-0.2
			c0-0.7-0.2-1.9-1.9-1.9c-0.8,0-1.6,0.2-2.1,0.6l-0.3-1c0.7-0.4,1.7-0.7,2.7-0.7c2.5,0,3.1,1.7,3.1,3.4v3.1c0,0.7,0,1.4,0.1,2
			H381.9z M381.7,372.6c-1.6,0-3.5,0.3-3.5,1.9c0,1,0.6,1.4,1.4,1.4c1.1,0,1.8-0.7,2-1.4c0.1-0.2,0.1-0.3,0.1-0.5V372.6z"/>
		<path class="st1" d="M385.6,370.8c0-0.9,0-1.5-0.1-2.2h1.3l0.1,1.4h0c0.4-0.8,1.4-1.5,2.7-1.5c1.1,0,2.9,0.7,2.9,3.5v4.9h-1.5
			v-4.7c0-1.3-0.5-2.4-1.9-2.4c-1,0-1.8,0.7-2,1.5c-0.1,0.2-0.1,0.4-0.1,0.7v4.9h-1.5V370.8z"/>
		<path class="st1" d="M394.6,375.9c0-0.6,0.4-1.1,1-1.1c0.6,0,1,0.4,1,1.1c0,0.6-0.4,1.1-1,1.1C395,377,394.6,376.5,394.6,375.9z"
			/>
		<path class="st1" d="M404.4,376.5c-0.4,0.2-1.3,0.5-2.4,0.5c-2.5,0-4.1-1.7-4.1-4.2c0-2.5,1.7-4.4,4.4-4.4c0.9,0,1.7,0.2,2.1,0.4
			l-0.3,1.2c-0.4-0.2-0.9-0.4-1.7-0.4c-1.9,0-2.9,1.4-2.9,3.1c0,1.9,1.2,3.1,2.9,3.1c0.8,0,1.4-0.2,1.8-0.4L404.4,376.5z"/>
		<path class="st1" d="M413.5,372.6c0,3-2.1,4.4-4.1,4.4c-2.2,0-3.9-1.6-3.9-4.2c0-2.8,1.8-4.4,4.1-4.4
			C411.9,368.4,413.5,370.1,413.5,372.6z M406.9,372.7c0,1.8,1,3.2,2.5,3.2c1.4,0,2.5-1.3,2.5-3.2c0-1.4-0.7-3.2-2.5-3.2
			S406.9,371.1,406.9,372.7z"/>
		<path class="st1" d="M415.4,370.8c0-0.9,0-1.5-0.1-2.2h1.3l0.1,1.3h0.1c0.5-0.8,1.2-1.5,2.6-1.5c1.1,0,2,0.7,2.3,1.6h0
			c0.3-0.5,0.6-0.8,0.9-1.1c0.5-0.4,1-0.6,1.8-0.6c1.1,0,2.7,0.7,2.7,3.6v4.8h-1.5v-4.7c0-1.6-0.6-2.5-1.8-2.5
			c-0.9,0-1.5,0.6-1.8,1.4c-0.1,0.2-0.1,0.5-0.1,0.7v5.1h-1.5v-4.9c0-1.3-0.6-2.3-1.7-2.3c-0.9,0-1.6,0.7-1.9,1.5
			c-0.1,0.2-0.1,0.5-0.1,0.7v5h-1.5V370.8z"/>
	</g>
</g>
<g id="Layer_4">
	<path class="st1" d="M575.3,101.2h2.7c3.1,2,4.7,4.3,4.7,6.8v0.6c0,2.3-0.9,3.7-2.7,4.1c-1.1-2.2-3-3.4-5.4-3.4h-1.4
		c-1.8,0.7-2.7,2.3-2.7,4.7v10.3c0,12.5-1.1,19.3-3.4,20.4h-1.4c-5.2-12.3-10.6-18.4-16.3-18.4c-5-2.5-7.5-5.2-7.5-8.2
		c0.4-3.6,1.5-5.4,3.4-5.4c4.2,0,10.7,5.4,19.7,16.3l1.4-1.4v-7.4C566.4,111.5,569.4,105.1,575.3,101.2z M627.1,101.2
		c3.4,0,5.7,6.4,6.8,19.1c2.7,4.1,4.1,6.8,4.1,8.2v1.4l-1.4,1.4h-1.4c-1.7-1.4-3.2-2.1-4.4-2.1s-8,5.7-20.1,17.1
		c-13.7,9.8-24.6,15.5-32.7,17h-0.7v-0.6c23.7-16,38.2-26.3,43.6-30.7c2.3-2.4,3.4-4.4,3.4-6.1c-4.5-4.6-6.8-7.6-6.8-8.9
		C618.7,106.4,621.9,101.2,627.1,101.2z M429,105.3c3.2,0,4.8,3.2,4.8,9.5l-0.7,7.4c5,5.7,7.5,9.3,7.5,10.9v1.4l-1.4,1.4h-2.1
		c-3-2.2-5.2-3.4-6.8-3.4H429c-12.5,13.7-23.6,21.7-33.3,23.8h-0.7v-1.4l25.9-19.7l4.1-4.8v-2c-3.1-4.1-4.7-7.3-4.7-9.5
		C420.1,112.4,423.1,107.9,429,105.3z M519.5,106.7l0.6,0.6v0.7c0,3-9.7,10-29.2,21.1c-20,13.2-30.7,19.8-32,19.8h-0.6l-0.7-2.7
		c2.2-4.1,11.5-10.9,28-20.4c20.2-13.2,31.6-19.8,34-19.8V106.7z M285.4,108c4.1,2.3,6.1,5.2,6.1,8.8v2.1c0,0.9-0.7,1.4-2,1.4
		l-5.4-4.1h-1.4l-2.1,2v1.4c-0.4,18-2,28-4.7,29.9c-6.7-12.2-11.9-18.3-15.7-18.3c-2.8,0-5.3-1.6-7.4-4.8v-0.6
		c0-4.8,1.1-7.8,3.4-8.9c4.6,1.1,11,7,19.1,17.7h1.4v-6.1C276.5,117.4,279.5,110.6,285.4,108z M624.3,108.7
		c-1.8,1.6-2.7,3.2-2.7,4.8l4.7,4.1h2.7v-4.8C627.8,110,626.2,108.7,624.3,108.7z M159.4,110.7c5,1.5,7.5,4.9,7.5,10.2l-0.7,2.7
		h-1.4c-3.1-3.1-5.6-4.7-7.4-4.7l-2.1,2v10.9c-0.7,12.4-1.8,18.8-3.4,19.1l-10.3-16.3c-2.1-2.2-5.3-3.4-9.5-3.4
		c-4.1-2.6-6.1-5.2-6.1-7.9c0-2.7,1.1-4.8,3.4-6.4c4.9,0,11.9,6.4,21.1,19.1l1.4-1.4v-7.4C153,116.2,155.4,110.7,159.4,110.7z
		 M331.7,110.7c7.3,10.9,12,20.6,14.2,29.2v1.4c-1.6,0-3.4-0.9-5.4-2.7l-0.6,0.7v0.6l8.8,64c0,3.6-0.9,8.2-2.7,13.6
		c1.3,3.2,12.2,4.8,32.7,4.8l0.7-0.7V221l-13.6-93.9l-1.4-3.4c1.8-6.8,3.2-10.2,4.1-10.2h0.6c1.3,0,6.3,10,15,29.9v1.4l-1.4,1.4
		l-4.7-3.4h-0.7v4.1c0,7.3,3.9,32.5,11.6,75.6c1.1,1.3,6.6,2,16.3,2h7.4l1.4,1.4v0.7c0,3.1-1.8,6.7-5.4,10.9l-11.5-0.7
		c-4.5,0.2-6.8,0.9-6.8,2.1v8.8c-0.5,12.4-2.3,19.7-5.4,21.8c-0.9,0-1.4-1.1-1.4-3.4h-0.7l0.7-6.8c0-14.1-1.4-21.1-4.1-21.1
		c-3.7,0-22.1,8-55.2,23.9c-14.8,5-24.5,7.4-29.2,7.4h-2.7c-17.2,0-28.4-6.8-33.4-20.4l-4.1-12.3h-2c0,8.7-12.7,21.9-38.1,39.5
		c-5.7,3.4-11.6,6-17.7,7.5c-8.2,0-13.7-4.3-16.3-13l-1.4-8.8l1.4-15h-0.7c-11.7,3.6-19.9,5.4-24.5,5.4c-16.4,0-27.5-6.4-33.3-19.1
		c-3.4-8.2-5.5-12.3-6.2-12.3c-9.1,19.5-25.9,34.3-50.4,44.2c-1.8,0.9-4.2,1.4-7.4,1.4C46.7,264.4,41,257,41,244.1v-0.7
		c0-11.8,3.6-24.7,10.9-38.7v-0.7c-3.1-5.8-4.7-12.4-4.7-19.7v-1.4c0-8.8,3.2-20.8,9.5-36.1h2v0.7l-6.1,25.1l-0.7,9.5
		c0,6,1.6,9.9,4.8,11.6h1.4c1.2,0,2.1-1.8,2.7-5.4h1.4l1.4,1.4c0,8.4-3.2,14.1-9.5,17c-5.4,12.7-8.2,21.8-8.2,27.2v5.4
		c0.8,9.1,4.7,13.6,11.5,13.6l2.7,0.7c9.4-1.5,21-8.1,34.8-19.8c12.2-11.6,18.3-19.5,18.3-23.8c0-11-5.7-31-17-59.9v-0.7l1.4-8.8
		h1.4c3.5,2.8,7.8,10.8,12.9,23.8c4.8,15.1,8.7,32.3,11.6,51.7c5.5,14.5,15.2,21.8,29.2,21.8h2.7c16.9,0,32.1-6.1,45.6-18.3l0.6-2.1
		c-1.2-4.4-4.6-10.7-10.2-19.1v-2.7c0-5,0.7-7.4,2-7.4h0.7c9.1,9.1,13.6,18.6,13.6,28.6v2c0,8.3-5.4,15.2-16.3,20.4
		c-5,2.7-7.5,8.9-7.5,18.4v0.6c0,7.7,5.2,11.6,15.7,11.6c20.3-7.9,37.8-22.6,52.4-44.3V223c-3.7-17.4-11.2-37.3-22.4-59.9
		c0.5-6.8,1.5-10.2,2.7-10.2c15.5,21.6,24.2,42.9,25.9,64c2.5,13.9,6.1,24,10.9,30.6c5.6,5.4,12.9,8.2,21.8,8.2h5.4
		c17.7-1.5,35.6-8.1,53.7-19.7v-2.1c-17-3.6-28.6-5.4-34.7-5.4h-8.2l-0.7,0.7l-2-2.1h-0.7c1.9-7.7,5.8-11.5,11.6-11.5
		c17.2-1.7,25.9-3.3,25.9-4.8v-0.6c0-7.8-4.3-36.8-13-87.1l-0.6-2.1C329.1,114.1,330.5,110.7,331.7,110.7z M424.9,116.2v1.4l2.7,2.7
		h2.1v-4.8l-1.4-1.4H427L424.9,116.2z M77.1,115.5v0.7c-1.4,4.4-2.1,8.2-2.1,11.5v3.4c0,2.7,1.4,4.9,4.1,6.8h0.7l4.1-3.4l0.6,0.7
		c0,3.7-2,7.3-6.1,10.9c-3.7,0-6.2-3.9-7.5-11.6C70.9,127.6,73,121.2,77.1,115.5z M206.4,116.2h2c-2.7,6.7-4.1,13.2-4.1,19.7
		c0,6.5,2.1,9.9,6.2,10.3c1.8-0.7,2.7-2.1,2.7-4.1h2v0.6c0,4.8-2,8.9-6.1,12.3h-2.7c-2.5,0-4.8-4.3-6.8-12.9
		C199.6,136.2,201.9,127.6,206.4,116.2z M528.3,146.1h0.7v0.6c-1.8,4.5-2.7,9.5-2.7,15c0,4.1,2,6.6,6.1,7.5c0.7,0,1.9-1.8,3.4-5.4
		h0.6l0.7,0.6v2.7c-2.1,7.3-4.2,10.9-6.2,10.9c-5.9-2.6-8.8-6.9-8.8-12.9C523.7,154.9,525.7,148.6,528.3,146.1z M327.6,149.5h0.6
		l0.7,2.1c0,3.6-12,10.6-36.1,21.1c-18.5,9.6-28.4,14.3-29.9,14.3h-0.6v-1.4c0-4.1,7.3-9.1,21.8-15
		C309.9,157.3,324.4,150.2,327.6,149.5z M629.1,149.5h1.4v2.7c-1.8,2.7-2.7,5.4-2.7,8.2c0,5.1,1.1,8.3,3.4,9.5h2
		c1,0,1.7-1.1,2.1-3.4h0.6c0.9,0,1.4,0.7,1.4,2c-1.6,6.4-4.4,9.5-8.2,9.5c-3.1-2.8-4.7-6.3-4.7-10.5S625.9,157.4,629.1,149.5z
		 M441.2,154.3c6.1,3.8,9.5,7,10.3,9.5c-0.9,3.6-2.7,6.6-5.4,8.8h-2.1c-4.7-3.6-7.9-5.4-9.5-5.4c-2.7,5.3-4.7,8-6.1,8.2
		c-4.9-1.7-8.8-4.4-11.6-8.2c0.4-3.8,2.5-7.1,6.2-10.2l9.5,5.4c1,0,3.1-2.7,6.1-8.2H441.2z M480.7,167.2c10,8.5,15,13.8,15,15.7
		l-4.7,1.4v2c7.7,11.3,11.5,20.8,11.5,28.6c0,10.4-4.7,19.5-14.2,27.2c-3.2,3.3-4.8,6.3-4.8,8.9v3.4c0,13.2,6.8,20.7,20.4,22.5h2.1
		v-0.7l0.6,0.7h0.7c13.9,0,31.8-12.3,53.7-36.8c1.8-2.7,2.7-4.8,2.7-6.2v-0.6l-1.4-1.4l-19.1,2.7c-10.4,0-15.6-5-15.6-15
		c2.7-11.8,5.9-17.7,9.5-17.7c0-0.8,2.3-1.9,6.8-3.4c5.6,0,12.8,5.2,21.8,15.7h0.6c2.4,0,9.9-5,22.5-15c2.2,0.6,3.4,2.2,3.4,4.7v6.2
		c3.4,5.9,8.4,8.8,15,8.8c10.3,0,18.2-7.3,23.9-21.8l2.7-2h0.6v1.4l-2,8.8c3,5,7.3,7.5,12.9,7.5h2.7c2.4,0,3.7-0.7,4.1-2.1V208
		l-3.4-6.8l2.7-9.5c2.7,0,5.1,5.4,7.4,16.3c-1.1,12.3-5.4,18.4-12.9,18.4H644c-4.7,0-10.2-3-16.3-8.9c-6.9,9.6-14.4,14.3-22.4,14.3
		h-0.7c-8.7,0-14.6-5-17.7-15l-1.4-1.4h-0.6c-10,6.3-15,11.5-15,15.6c0,16.8-15,34.7-44.9,53.8c-7.3,3.1-13.6,4.7-19.1,4.7h-2.1
		c-14.3,0-22.7-9.7-25.1-29.2l0.6-8.2l-0.6-0.7h-1.4c-29,20.4-48.3,30.7-57.9,30.7c-18.8,5-29.7,7.4-32.7,7.4v-0.6
		c1.6-2.5,13.9-8.2,36.8-17.1l41.6-25.9c15.4-11.3,26-20.6,31.9-27.9c0-1.9-5-12.1-15-30.7l-4.1-11.5
		C478.6,170.2,479.5,167.2,480.7,167.2z M157.4,174.7h0.6v0.6c-1.3,3.6-2.2,9.5-2.7,17.7c1.9,4.8,3.5,7.3,4.8,7.5h1.4l3.4-3.4h0.7
		v1.4c0,4.4-1.6,8-4.8,10.9h-2c-4.5-2.8-6.8-7.4-6.8-13.6v-3.4C152.5,185.6,154.3,179.7,157.4,174.7z M454.2,177.4
		c0,7.6-3.6,16.2-10.9,25.9v0.6c9.5,7.3,14.2,13.9,14.2,19.8v1.4c0,13-8.6,21.8-25.9,26.5c-6.4,0-9.5-4.1-9.5-12.3v-5.4
		c0-4.7,1.8-11.7,5.4-21.1v-0.7l-17-15.6c-0.9-2.1-1.4-4.7-1.4-8s0.9-4.9,2.7-4.9l17,6.8v1.4l-2.7,3.4c3.4,3.6,6.4,5.4,8.9,5.4
		c3.5-3.3,9.4-11,17.7-23.1H454.2z M85.9,179.4h0.7c-0.9,1.8-1.6,6.1-2.1,13c1.1,3.6,2.5,5.8,4.1,6.8h0.7l3.4-2.7l0.7,0.6v0.7
		c0,3.9-1.6,7.1-4.8,9.5c-5-1.4-7.4-5.7-7.4-13C81.2,189,82.8,184,85.9,179.4z M288.1,189h0.6c-0.9,2.3-1.4,5.7-1.4,10.3
		c1.2,7.3,2.8,10.9,4.8,10.9h0.6l3.4-3.4l0.6,2.1c-1.3,6.4-3.1,9.5-5.4,9.5h-1.4c-4.1-2.8-6.1-7.4-6.1-13.6v-0.7
		C284,197.8,285.4,192.8,288.1,189z M536.5,218.9l7.5,2.1l8.2-1.4v-1.4c0-1.7-2.7-3.3-8.2-4.8C539,213.5,536.5,215.3,536.5,218.9z
		 M427,231.2v0.7c0,3.4,1.8,5.4,5.4,6.1c5.6-0.9,11.7-4.3,18.3-10.2v-2.1c0-2.3-5-5.2-15-8.8h-1.4C429.4,222.7,427,227.5,427,231.2z
		 M642,242.8h1.4l0.6,2.7c-2.5,9.5-5.7,14.2-9.5,14.2l-5.4-1.4l-9.5,4.8c-3.4-1.8-6.2-2.7-8.2-2.7h-2c-4.3,1-11.8,5.5-22.5,13.6
		c-5.9,3.1-10,4.7-12.3,4.7l-0.6-0.6v-0.7c7.4-4.4,17.6-11.4,30.6-21.1c3.9-2.3,6.8-3.4,8.9-3.4l6.8,2.7h0.6c4,0,7.2-2.5,9.5-7.4
		h1.4c2.1,2.7,4.1,4.1,6.2,4.1C639.3,252.3,640.6,249.1,642,242.8z M122,252.9h0.6l1.4,1.4v2.1c0,2.2-7.9,7.2-23.8,15
		C84,280.4,75,285,73,285v-1.4h-0.7c0-3.4,12-11,36.1-22.5L122,252.9z M351.4,261.1c3.2,1.1,4.8,2,4.8,2.7c0,3.1-3.9,8.1-11.6,15
		v1.4l3.4,0.7c1.5,0,7.2-2.3,17-6.8v0.6c-5.5,9.1-13,13.6-22.4,13.6c-3.2-0.6-4.8-1.5-4.8-2.7c0-2.6,3-7.6,8.9-15V270h-2.1l-3.4,0.6
		l-1.4-1.4C339.8,265.9,343.7,263.2,351.4,261.1z M160.8,263.8h2.1c5.2,3.3,8.6,6.4,10.2,9.5c-1.5,6.4-3.5,9.5-6.1,9.5
		c-5.3-4.1-8.7-6.1-10.3-6.1l-6.1,5.4h-2.1c-4.2-2-7.4-4.3-9.5-6.8v-0.7c0-3.4,1.4-6.6,4.1-9.5h0.7l10.9,4.1h0.6L160.8,263.8z
		 M260.9,270h0.6v0.6c0,3.9-3.8,7-11.5,9.5l-24.5,13.6h-2.1v-1.4h-0.6c0-3.6,5.2-7.4,15.6-11.5C250.7,273.6,258.2,270,260.9,270z"/>
</g>
</svg>
