<?xml version="1.0" encoding="utf-8"?>
<!-- Generator: Adobe Illustrator 25.2.3, SVG Export Plug-In . SVG Version: 6.00 Build 0)  -->
<svg version="1.1" xmlns="http://www.w3.org/2000/svg" xmlns:xlink="http://www.w3.org/1999/xlink" x="0px" y="0px"
	 viewBox="0 0 700 395" style="enable-background:new 0 0 700 395;" xml:space="preserve">
<style type="text/css">
	.st0{fill:#000222;}
	.st1{fill:#FFFFFF;}
</style>
<g id="Layer_1">
	<rect class="st0" width="700" height="395"/>
</g>
<g id="Layer_3">
	<g>
		<path class="st1" d="M273.5,368.6l1.1,4.2c0.2,0.9,0.5,1.8,0.6,2.6h0.1c0.2-0.8,0.5-1.7,0.7-2.6l1.3-4.2h1.3l1.3,4.1
			c0.3,1,0.5,1.9,0.7,2.7h0.1c0.1-0.8,0.4-1.7,0.6-2.7l1.2-4.1h1.5l-2.7,8.2H280l-1.3-3.9c-0.3-0.9-0.5-1.7-0.7-2.7h0
			c-0.2,1-0.5,1.8-0.7,2.7l-1.3,3.9h-1.4l-2.5-8.2H273.5z"/>
		<path class="st1" d="M286.3,368.6l1.1,4.2c0.2,0.9,0.5,1.8,0.6,2.6h0.1c0.2-0.8,0.5-1.7,0.7-2.6l1.3-4.2h1.3l1.3,4.1
			c0.3,1,0.5,1.9,0.7,2.7h0.1c0.1-0.8,0.4-1.7,0.6-2.7l1.2-4.1h1.5l-2.7,8.2h-1.4l-1.3-3.9c-0.3-0.9-0.5-1.7-0.7-2.7h0
			c-0.2,1-0.5,1.8-0.7,2.7l-1.3,3.9h-1.4l-2.5-8.2H286.3z"/>
		<path class="st1" d="M299,368.6l1.1,4.2c0.2,0.9,0.5,1.8,0.6,2.6h0.1c0.2-0.8,0.5-1.7,0.7-2.6l1.3-4.2h1.3l1.3,4.1
			c0.3,1,0.5,1.9,0.7,2.7h0.1c0.1-0.8,0.4-1.7,0.6-2.7l1.2-4.1h1.5l-2.7,8.2h-1.4l-1.3-3.9c-0.3-0.9-0.5-1.7-0.7-2.7h0
			c-0.2,1-0.5,1.8-0.7,2.7l-1.3,3.9h-1.4l-2.5-8.2H299z"/>
		<path class="st1" d="M309.9,375.9c0-0.6,0.4-1.1,1-1.1c0.6,0,1,0.4,1,1.1c0,0.6-0.4,1.1-1,1.1C310.3,377,309.9,376.5,309.9,375.9z
			"/>
		<path class="st1" d="M313.5,375.3c0.4,0.3,1.2,0.6,2,0.6c1.1,0,1.6-0.5,1.6-1.2c0-0.7-0.4-1.1-1.5-1.5c-1.5-0.5-2.2-1.3-2.2-2.3
			c0-1.3,1.1-2.4,2.8-2.4c0.8,0,1.6,0.2,2,0.5l-0.4,1.1c-0.3-0.2-0.9-0.5-1.7-0.5c-0.9,0-1.4,0.5-1.4,1.1c0,0.7,0.5,1,1.6,1.4
			c1.4,0.5,2.2,1.3,2.2,2.5c0,1.4-1.1,2.5-3.1,2.5c-0.9,0-1.7-0.2-2.3-0.6L313.5,375.3z"/>
		<path class="st1" d="M327.4,374.6c0,0.9,0,1.6,0.1,2.2h-1.3l-0.1-1.3h0c-0.4,0.7-1.3,1.5-2.7,1.5c-1.3,0-2.8-0.7-2.8-3.6v-4.8h1.5
			v4.6c0,1.6,0.5,2.6,1.8,2.6c1,0,1.7-0.7,2-1.4c0.1-0.2,0.1-0.5,0.1-0.8v-5h1.5V374.6z"/>
		<path class="st1" d="M329.8,371.1c0-1,0-1.8-0.1-2.6h1.3l0.1,1.6h0.1c0.4-1.1,1.3-1.8,2.3-1.8c0.2,0,0.3,0,0.4,0.1v1.4
			c-0.2,0-0.3-0.1-0.5-0.1c-1.1,0-1.8,0.8-2,1.9c0,0.2-0.1,0.4-0.1,0.7v4.4h-1.5V371.1z"/>
		<path class="st1" d="M339.9,376.8l-0.1-1h-0.1c-0.5,0.6-1.3,1.2-2.5,1.2c-1.7,0-2.5-1.2-2.5-2.4c0-2,1.8-3.1,4.9-3.1v-0.2
			c0-0.7-0.2-1.9-1.9-1.9c-0.8,0-1.6,0.2-2.1,0.6l-0.3-1c0.7-0.4,1.7-0.7,2.7-0.7c2.5,0,3.1,1.7,3.1,3.4v3.1c0,0.7,0,1.4,0.1,2
			H339.9z M339.7,372.6c-1.6,0-3.5,0.3-3.5,1.9c0,1,0.6,1.4,1.4,1.4c1.1,0,1.8-0.7,2-1.4c0.1-0.2,0.1-0.3,0.1-0.5V372.6z"/>
		<path class="st1" d="M343.5,364.7h1.5v5.1h0c0.2-0.4,0.6-0.8,1.1-1.1c0.4-0.3,1-0.4,1.5-0.4c1.1,0,2.9,0.7,2.9,3.5v4.9H349v-4.7
			c0-1.3-0.5-2.4-1.9-2.4c-1,0-1.7,0.7-2,1.5c-0.1,0.2-0.1,0.4-0.1,0.7v5h-1.5V364.7z"/>
		<path class="st1" d="M358.6,375.5L358.6,375.5c-0.5,0.8-1.4,1.5-2.7,1.5c-1.9,0-3.5-1.7-3.5-4.2c0-3.1,2-4.4,3.7-4.4
			c1.3,0,2.1,0.6,2.5,1.4h0l0.1-1.2h1.4c0,0.7-0.1,1.4-0.1,2.3v9.3h-1.5V375.5z M358.6,371.9c0-0.2,0-0.4-0.1-0.6
			c-0.2-0.9-1-1.7-2.1-1.7c-1.5,0-2.5,1.3-2.5,3.2c0,1.6,0.8,3.1,2.4,3.1c1,0,1.8-0.6,2.1-1.6c0.1-0.2,0.1-0.5,0.1-0.7V371.9z"/>
		<path class="st1" d="M369.4,374.6c0,0.9,0,1.6,0.1,2.2h-1.3l-0.1-1.3h0c-0.4,0.7-1.3,1.5-2.7,1.5c-1.3,0-2.8-0.7-2.8-3.6v-4.8h1.5
			v4.6c0,1.6,0.5,2.6,1.8,2.6c1,0,1.7-0.7,2-1.4c0.1-0.2,0.1-0.5,0.1-0.8v-5h1.5V374.6z"/>
		<path class="st1" d="M371.9,371.1c0-1,0-1.8-0.1-2.6h1.3l0.1,1.6h0.1c0.4-1.1,1.3-1.8,2.3-1.8c0.2,0,0.3,0,0.4,0.1v1.4
			c-0.2,0-0.3-0.1-0.5-0.1c-1.1,0-1.8,0.8-2,1.9c0,0.2-0.1,0.4-0.1,0.7v4.4h-1.5V371.1z"/>
		<path class="st1" d="M381.9,376.8l-0.1-1h-0.1c-0.5,0.6-1.3,1.2-2.5,1.2c-1.7,0-2.5-1.2-2.5-2.4c0-2,1.8-3.1,4.9-3.1v-0.2
			c0-0.7-0.2-1.9-1.9-1.9c-0.8,0-1.6,0.2-2.1,0.6l-0.3-1c0.7-0.4,1.7-0.7,2.7-0.7c2.5,0,3.1,1.7,3.1,3.4v3.1c0,0.7,0,1.4,0.1,2
			H381.9z M381.7,372.6c-1.6,0-3.5,0.3-3.5,1.9c0,1,0.6,1.4,1.4,1.4c1.1,0,1.8-0.7,2-1.4c0.1-0.2,0.1-0.3,0.1-0.5V372.6z"/>
		<path class="st1" d="M385.6,370.8c0-0.9,0-1.5-0.1-2.2h1.3l0.1,1.4h0c0.4-0.8,1.4-1.5,2.7-1.5c1.1,0,2.9,0.7,2.9,3.5v4.9h-1.5
			v-4.7c0-1.3-0.5-2.4-1.9-2.4c-1,0-1.8,0.7-2,1.5c-0.1,0.2-0.1,0.4-0.1,0.7v4.9h-1.5V370.8z"/>
		<path class="st1" d="M394.6,375.9c0-0.6,0.4-1.1,1-1.1c0.6,0,1,0.4,1,1.1c0,0.6-0.4,1.1-1,1.1C395,377,394.6,376.5,394.6,375.9z"
			/>
		<path class="st1" d="M404.4,376.5c-0.4,0.2-1.3,0.5-2.4,0.5c-2.5,0-4.1-1.7-4.1-4.2c0-2.5,1.7-4.4,4.4-4.4c0.9,0,1.7,0.2,2.1,0.4
			l-0.3,1.2c-0.4-0.2-0.9-0.4-1.7-0.4c-1.9,0-2.9,1.4-2.9,3.1c0,1.9,1.2,3.1,2.9,3.1c0.8,0,1.4-0.2,1.8-0.4L404.4,376.5z"/>
		<path class="st1" d="M413.5,372.6c0,3-2.1,4.4-4.1,4.4c-2.2,0-3.9-1.6-3.9-4.2c0-2.8,1.8-4.4,4.1-4.4
			C411.9,368.4,413.5,370.1,413.5,372.6z M406.9,372.7c0,1.8,1,3.2,2.5,3.2c1.4,0,2.5-1.3,2.5-3.2c0-1.4-0.7-3.2-2.5-3.2
			S406.9,371.1,406.9,372.7z"/>
		<path class="st1" d="M415.4,370.8c0-0.9,0-1.5-0.1-2.2h1.3l0.1,1.3h0.1c0.5-0.8,1.2-1.5,2.6-1.5c1.1,0,2,0.7,2.3,1.6h0
			c0.3-0.5,0.6-0.8,0.9-1.1c0.5-0.4,1-0.6,1.8-0.6c1.1,0,2.7,0.7,2.7,3.6v4.8h-1.5v-4.7c0-1.6-0.6-2.5-1.8-2.5
			c-0.9,0-1.5,0.6-1.8,1.4c-0.1,0.2-0.1,0.5-0.1,0.7v5.1h-1.5v-4.9c0-1.3-0.6-2.3-1.7-2.3c-0.9,0-1.6,0.7-1.9,1.5
			c-0.1,0.2-0.1,0.5-0.1,0.7v5h-1.5V370.8z"/>
	</g>
</g>
<g id="Layer_4">
	<path class="st1" d="M181.5,110.1l1.1,1.7c0,2.5-8.3,7.2-24.8,14.1c-21.7,10.5-33.6,17.3-35.6,20.3v0.5l4.5,5.1v1.1l-1.7,1.7h-0.6
		c-2.9,0-4.5-1.9-5-5.6c0-7.3,6.2-13.3,18.6-18C147.2,125.8,161.6,118.8,181.5,110.1z M553.5,117.4c3.8,0.8,5.6,3.2,5.6,7.4
		l-1.7,2.3h-0.5l-4.5-3.4c-2.7,0.8-4,2.3-4,4.5v9c0,10.1-0.9,15.5-2.8,16.3c-6-10.1-10.7-15.2-14.1-15.2c-4.5-1.5-6.8-3.6-6.8-6.2
		l1.1-4.5h3.4c2.5,0.4,7.6,5.1,15.3,14.1h0.5l0.6-4l-0.6-0.5l0.6-0.6v-4.5C545.7,125,548.3,120.1,553.5,117.4z M595.3,118
		c3.8,0,5.6,5.4,5.6,16.3c2.6,2,3.9,4,3.9,6.2l-0.5,2.3h-0.6l-6.2-2.3c-15.9,16.2-30.2,25.6-42.8,28.2v-0.6l30.4-20.3l8.4-8.4v-1.1
		c-3.8-3.1-5.6-5.7-5.6-7.9C588.7,122.1,591.2,118,595.3,118z M345,118.5h1.7c7.2,16.5,10.7,25.3,10.7,26.5l-0.6,0.5h-0.5l-4.5-1.1
		v1.1h-0.6c4.5,33.5,7.9,50.2,10.1,50.2l7.9-0.6c9,1.1,13.5,5.1,13.5,11.9v3.4c-1.5,8.6-4.7,12.9-9.5,12.9c-6.6,0-12.6-4.9-18-14.7
		H354c-2.9,0-12.1,4.7-27.7,14.1l-3.9,3.9c0,1.8,13,4.1,38.9,6.8l16.4,0.6h11.3l2.8,0.5v0.6c-1.9,6.4-3.4,9.5-4.5,9.5h-2.8
		c-15.8,0-29.7,3.8-41.7,11.3c-20.4,10.2-36.8,15.3-49.1,15.3h-1.1c-13.6,0-22.2-6.6-25.9-19.8c-1.9,0-5.3-27.4-10.1-82.3
		c-2.3-14.8-4.5-27-6.8-36.6c1.3-5.1,2.6-7.7,4-7.9c3.3,0,7.4,27.4,12.4,82.3c1.9,25.6,4.9,40.3,9,44c4.2,5.6,10.9,8.4,20.3,8.4h6.2
		c9.6,0,24.4-5.1,44.6-15.2v-0.6c-13.8-2.6-27.6-4.5-41.2-5.6v-1.1c0-3.6,3.8-9.2,11.3-16.9c9.3-6.5,21.5-13.8,36.7-21.9v-0.6
		l-10.1-68.2l-0.6-1.7L345,118.5z M388.9,119.1h0.5c3,4.7,7,13.9,11.9,27.6l-1.1,1.1h-0.6l-2.8-2.3h-1.1l-0.6,1.7
		c8.7,49.3,13,78.6,13,87.9v6.8c-1.2,7.1-2.3,10.7-3.4,10.7h-0.6c-2.6-27.4-8.6-67.9-18-121.8l-0.5-0.5l-0.6-2.3
		C385,125.4,386.3,122.4,388.9,119.1z M432.9,121.4c1.5,2,2.3,3.7,2.3,5v2.3l-0.6,6.2l6.2,8.4v1.1l-0.6,2.3h-0.5
		c-1.4,0-3.6-1.1-6.8-3.4h-1.1c-11.9,12-20.7,18.6-26.5,19.8h-0.5v-1.7c13.2-9.7,20.9-16.3,23.1-19.7l-3.9-7.9v-1.7
		C425.2,125,428.2,121.4,432.9,121.4z M503.9,121.9h2.8v1.1c0,2.9-3.9,6.3-11.8,10.1l-37.8,24.3h-1.7v-2.3c0-2.5,3.4-5.5,10.1-9
		L503.9,121.9z M590.8,127c1.9,3.4,4.1,5,6.8,5v-3.4c0-2-1-3.5-2.9-4.5h-1.1L590.8,127z M291.4,124.2h0.6v0.6
		c-1.9,5.7-2.9,11.1-2.9,16.3l2.9,5.6h1.1l3.4-3.9v1.1c0,4.5-1.5,7.6-4.5,9.5h-0.6c-3.4-2.4-5-5.4-5-9v-0.5
		C286.3,136.3,288,129.7,291.4,124.2z M223.7,125.3c2.4,0,4.5,2.1,6.2,6.2l-1.7,4.5h-0.5l-4.5-4l-2.3,2.3v5.1
		c0,16.8-5.5,28.2-16.4,34.4c-1.5,1.9-3.4,2.9-5.6,2.9V176l16.9-18v-1.7c-4.1-8.7-7.5-13-10.1-13c-4.1,0-6.7-2.1-7.9-6.2
		c0.5-3.8,1.2-5.6,2.3-5.6c4.4,0,9.4,4.5,15.3,13.5l1.1,2.3h1.7v-0.6C218.1,133.9,220,126.8,223.7,125.3z M427.3,132.1
		c1.6,1.5,3.1,2.3,4.5,2.3l0.5-0.5v-1.7c0-2-0.8-3.3-2.3-3.9h-0.5C428,128.8,427.3,130.1,427.3,132.1z M164.6,128.2h0.5
		c2.1,0,6,8.6,11.9,25.9v0.5l-1.1,1.1l-2.9-2.3h-1.1c9,41.8,13.5,66.9,13.5,75.4s-3.2,16-9.5,22.7l-1.1,11.3v0.6
		c0,2.8,2.3,5.6,6.8,8.4h5.6c11.9-3.3,32.5-15.5,62-36.6c0-5.5-10.5-11.4-31.6-17.5c-6.2-3.1-13.9-8.7-23.2-16.9l-0.5-6.8v-0.5
		c0-1.4,0.6-2.5,1.7-3.4c8.6,2.8,13.9,5,15.8,6.8v0.5c0,0.8-1.1,1.3-3.4,1.7v1.1c3.6,3.5,14.3,8,32.2,13.5
		c9.4,5.2,14.1,11,14.1,17.4v3.4c0,8-7.1,15.7-21.4,23.2c-24.8,16.9-41.3,25.3-49.6,25.3c-7.4,0-11.5-5.4-12.4-16.3v-1.1l1.7-11.9
		l-1.7-0.5c-4.9,0.6-7.3,1.1-7.3,1.7l-0.6-0.5h-1.1l-1.7,0.5c-9.4,0-17.1-6.2-23.2-18.6l-2.8-0.6c-8.2,3.2-13.9,8.3-16.9,15.3
		l-9.6,23.1c-2.5,2.3-4.5,3.4-6.2,3.4c-11.1,0-17.7-10.9-19.8-32.7v-2.3l1.1-12.9c-3-5.6-4.5-11.7-4.5-18.5s2.8-19,8.5-36.7h1.1v1.1
		l-5.1,22.5l-1.1,9c0,7.9,1.9,12.9,5.6,15.2H89c1.2-0.2,2.1-2.6,2.8-7.3h0.6l1.1,1.1v1.1c0,8.5-2.6,13.6-7.9,15.2l-1.1,1.1v4
		c0,16.1,4.9,25.7,14.7,28.7h2.8c3.3,0,7.6-8.1,13-24.2c7.4-11.1,13.9-17.1,19.7-18c3.3,0,6.8,4.1,10.7,12.4c4,4.5,9,6.8,15.2,6.8
		h5.6c4.5,0,9.4-3,14.7-9c0-3.8-6.2-36-18.6-96.4v-1.1L164.6,128.2z M104.8,128.7c3.8,1.4,5.6,4,5.6,7.9l-0.6,1.7h-2.3l-3.4-2.3
		h-0.5c-1.2,0-1.7,2.4-1.7,7.3h0.6l-0.6,0.6v3.9c-0.8,7.9-1.7,11.9-2.8,11.9c-5.5-10.9-10.3-16.4-14.7-16.4c-3-1.6-4.7-2.9-5.1-3.9
		v-1.7c0-3.4,1-5,2.9-5c2.9,0,8.3,5.1,16.3,15.2C100,135.1,102.1,128.7,104.8,128.7z M334.8,137.2l1.1,2.3c0,2.9-4.7,6.3-14.1,10.1
		c-18.7,10.3-33.7,19.5-45.1,27.6l-1.1,2.3c0,1.4,1.1,3.4,3.4,6.2v1.7l-1.1,1.1c-3.8-0.7-5.6-2.6-5.6-5.6c0-8,6.4-14.9,19.2-20.8
		C301.6,155.3,316.1,147.1,334.8,137.2z M513,155.2h1.1c-1.2,2.3-2.1,6.2-2.9,11.8c0,3.9,1.7,6.2,5.1,6.8h1.7
		c0.8-2.6,1.5-3.9,2.3-3.9l0.6,0.5c-1.1,7.2-3,10.7-5.6,10.7c-3.2,0-5.3-3.8-6.2-11.3C509,166.7,510.3,161.8,513,155.2z M598,158.6
		h0.6c-1.9,4.5-2.9,7.9-2.9,10.3c0,2.4,1,4.4,2.9,6.1h1.7l2.9-2.8l0.5,1.7c-1.5,5.3-3.2,7.9-5,7.9c-3.4-1.7-5.1-4-5.1-6.8v-2.8
		C594.9,163.1,596.4,158.6,598,158.6z M334.8,160.3c3.4,1.3,5,4.3,5,9l-0.5,6.8c1,0,1.7,1.5,2.3,4.5l-0.6,2.9h-0.5
		c-1.4-1.2-2.7-1.7-4-1.7c-6.4,8.3-14.6,15.6-24.8,22c-7.9,5.3-12.9,7.9-15.2,7.9v-1.1c0.1-0.8,5.1-4.5,15.2-11.3
		c13.9-11.6,20.9-17.8,20.9-18.6v-1.1l-5.6-5.6V171C326.9,167.4,329.6,163.9,334.8,160.3z M440.2,162c2.5,0,5.5,2.3,9,6.8v1.7
		c0,1.8-1.3,4.1-3.9,6.8c-1.8,0-4.6-1.7-8.5-5c-1.5,0-3.1,2.4-5,7.3h-0.6c-6.8-2.5-10.1-4.9-10.1-7.3c0.9-3.7,2.4-6.1,4.5-7.4h1.1
		c1.4,0,3.9,1.3,7.4,4L440.2,162z M144.8,163.6h1.1l-0.5,2.3l-0.6-0.5h-0.5L144.8,163.6z M144.3,165.9l0.5,0.6h0.6l-0.6,3.9v2.3
		c0,3,1,5.2,2.9,6.8h1.1c0.6,0,1.5-1.3,2.8-3.9h0.6v0.5c0,4.4-1.3,7.7-4,10.1h-1.7c-3-2.2-4.5-5.7-4.5-10.7L144.3,165.9z
		 M331.4,169.3v1.1l4.5,1.7h1.1c0-2.1-1-3.6-2.9-4.5h-1.1L331.4,169.3z M233.3,168.7v1.1l-2.3,8.4c0.5,6,1.6,9,3.4,9h1.7l2.9-2.8
		h0.5v1.1c-0.9,6-3.1,9-6.8,9c-3-2.7-4.5-6.3-4.5-10.7C230.2,173.8,231.9,168.7,233.3,168.7z M474,172.7h0.6
		c7.9,7.4,11.8,11.8,11.8,13c-2.6,0.5-3.9,1.1-3.9,1.7l7.9,14.7c1.1,2.6,1.7,5.4,1.7,8.5c0,10.4-4.3,18.6-12.9,24.8
		c-2.3,2.1-3.4,5.2-3.4,9.5c0,9.8,5.3,15.8,15.8,18l10.1-0.5l15.8-7.9c16.9-14.8,25.3-23.3,25.3-25.4v-2.3c0-0.9-0.8-1.5-2.3-1.7
		c-7.3,1.9-12.9,2.8-16.9,2.8c-6.8-1.2-10.1-4.5-10.1-10.1L513,215c3.1-10.9,7.5-16.4,13.5-16.4s11.6,4.1,17,12.4h1.7
		c2.3,0,8.1-3.9,17.5-11.8h3.4l0.5,2.8v5.6c2.6,4.9,6.7,7.4,12.4,7.4h0.6c8.9,0,15.4-6.2,19.7-18.6l0.6-0.5h2.3v0.5l-1.7,6.8
		c0.3,4,4.3,6.4,11.9,7.4c3-0.5,4.5-1.2,4.5-2.3l-2.9-7.4v-0.5l1.7-6.8h2.3c2.6,5.8,3.9,10.6,3.9,14.7c-1.1,9-5,13.5-11.8,13.5
		c-4.3,0-8.8-2.5-13.5-7.4h-1.7c0,4.1-5.1,7.9-15.2,11.3h-1.7c-10.1-1-15.2-5.1-15.2-12.4l-1.7-1.1h-0.5
		c-8.3,5.6-12.4,9.5-12.4,11.9c0,11.2-7,22.5-20.9,33.8c-11.4,9.8-21.2,15-29.3,15.8h-6.8c-7.7,0-13.5-5.3-17.4-15.8l-1.1-6.8
		l0.5-1.7l-0.5-2.3l0.5-4.5l-0.5-0.5h-1.7c-21.5,16.3-39.2,25.3-53,27.1l-21.4,5l-0.5-0.5V273c0.7-0.9,11-5.7,31-14.7
		c19.5-11.2,33.8-19.9,42.8-25.9c0-0.7,4.7-5.2,14.1-13.5l3.9-5.6l-15.8-31.6C472.4,175.7,473.1,172.7,474,172.7z M450.9,181.7h1.1
		v0.6c0,4.7-3,11.2-9,19.7v1.1c7.5,6,11.3,10.9,11.3,14.7h0.5c0,11.5-6,19.4-18,23.7l-3.4,0.6h-1.7c-3.5,0-6-3.2-7.4-9.6
		c1.4-10.2,3.2-17.5,5.6-21.9v-0.6c-10.1-8.8-15.2-14.3-15.2-16.3v-2.9c0-3,0.8-4.5,2.3-4.5c8.6,2.9,13.3,4.9,14.1,6.2v0.5
		c0,0.9-0.9,1.5-2.8,1.7v0.5c1.2,1.8,3,3.3,5.6,4.5h3.4C444.2,189.8,448.7,183.8,450.9,181.7z M134.1,194.7c4.7,2.8,7.5,5.2,8.4,7.3
		c-2.4,4.9-4.1,7.4-5,7.4l-7.4-4.5h-1.7l-5.6,5.6h-1.7c-5.3-2.6-7.9-4.6-7.9-6.2c1.4-4.9,3.1-7.3,5.1-7.3l8.4,3.9l5.6-6.2H134.1z
		 M365.8,206.5v1.1c1.2,1.3,3.2,2.6,6.2,4h3.4v-1.7c0-0.6-1.5-1.7-4.5-3.4H365.8z M520.3,213.8v0.5c0,1.3,1.9,2,5.6,2.3
		c5.3-0.3,7.9-0.8,7.9-1.7c-1.8-3-4.6-4.5-8.4-4.5C523.4,210.5,521.7,211.6,520.3,213.8z M428.9,225.6c0,2.3,1.3,4,4,5.1
		c4.6,0,10-2.8,16.3-8.5v-1.7c-5.6-4.9-10.1-7.4-13.5-7.4C433.7,214.1,431.4,218.2,428.9,225.6z M204,221.1h1.1v1.7
		c-1.2,1.3-1.7,4.4-1.7,9.5v1.7c1.1,4.5,2.2,6.8,3.4,6.8l3.4-2.9l0.6,0.6c-1.2,6-2.9,9-5.1,9c-2.2,0-3.9-3-5-9v-5.1
		C200.6,231.5,201.8,227.4,204,221.1z M608.8,235.3l0.5,0.5v0.6c-1.3,8.3-3.9,12.4-7.9,12.4l-4.5-1.1c-2.3,1.9-5.1,3.2-8.4,3.9
		l-5.6-2.3h-4c-14.4,10.2-23.6,15.3-27.6,15.3h-1.1v-1.1c1.4,0,11.1-6.4,29.3-19.2l3.9-1.1l9,2.3c1-0.1,3.3-2.2,6.8-6.2
		c1.8,2.3,3.7,3.4,5.6,3.4C606.1,238.9,607.4,236.4,608.8,235.3z M383.8,249.9h1.1l-2.3,9.5c0.4,4.5,1.5,6.8,3.4,6.8l3.4-3.4
		l1.1,1.1c-0.5,3.5-2.3,6.5-5.6,9h-1.7c-1.5,0-2.8-3-4-9C380.5,258.5,382,253.8,383.8,249.9z M248.5,255v1.1l-1.1,6.2v2.8
		c0,4.2,1.5,6.2,4.5,6.2c1.5-0.8,2.3-1.7,2.3-2.9h0.6l0.5,0.6h0.6c0,4.8-2.3,7.9-6.8,9.5c-2.6-1.5-4.3-4.1-5.1-7.9
		C245.5,260.2,247,255,248.5,255z M152.7,261.7l0.6,1.7c0,3.3-6,7.1-18,11.3c0,0.8-6.2,3.4-18.6,7.9l-0.5-0.6v-0.5
		c0-3.1,6.4-6.8,19.2-11.3C142.1,266.1,147.9,263.2,152.7,261.7z M337.6,269.1c6.8,3.6,10.1,6.6,10.1,9c0,2-1.5,4.3-4.5,6.8h-0.5
		c-2.2,0-5.7-2.5-10.7-7.4C332,275.2,333.8,272.4,337.6,269.1z"/>
</g>
</svg>
