<?xml version="1.0" encoding="utf-8"?>
<!-- Generator: Adobe Illustrator 25.2.3, SVG Export Plug-In . SVG Version: 6.00 Build 0)  -->
<svg version="1.1" xmlns="http://www.w3.org/2000/svg" xmlns:xlink="http://www.w3.org/1999/xlink" x="0px" y="0px"
	 viewBox="0 0 700 395" style="enable-background:new 0 0 700 395;" xml:space="preserve">
<style type="text/css">
	.st0{fill:#000222;}
	.st1{fill:#FFFFFF;}
</style>
<g id="Layer_1">
	<rect class="st0" width="700" height="395"/>
</g>
<g id="Layer_3">
	<g>
		<path class="st1" d="M273.5,368.6l1.1,4.2c0.2,0.9,0.5,1.8,0.6,2.6h0.1c0.2-0.8,0.5-1.7,0.7-2.6l1.3-4.2h1.3l1.3,4.1
			c0.3,1,0.5,1.9,0.7,2.7h0.1c0.1-0.8,0.4-1.7,0.6-2.7l1.2-4.1h1.5l-2.7,8.2H280l-1.3-3.9c-0.3-0.9-0.5-1.7-0.7-2.7h0
			c-0.2,1-0.5,1.8-0.7,2.7l-1.3,3.9h-1.4l-2.5-8.2H273.5z"/>
		<path class="st1" d="M286.3,368.6l1.1,4.2c0.2,0.9,0.5,1.8,0.6,2.6h0.1c0.2-0.8,0.5-1.7,0.7-2.6l1.3-4.2h1.3l1.3,4.1
			c0.3,1,0.5,1.9,0.7,2.7h0.1c0.1-0.8,0.4-1.7,0.6-2.7l1.2-4.1h1.5l-2.7,8.2h-1.4l-1.3-3.9c-0.3-0.9-0.5-1.7-0.7-2.7h0
			c-0.2,1-0.5,1.8-0.7,2.7l-1.3,3.9h-1.4l-2.5-8.2H286.3z"/>
		<path class="st1" d="M299,368.6l1.1,4.2c0.2,0.9,0.5,1.8,0.6,2.6h0.1c0.2-0.8,0.5-1.7,0.7-2.6l1.3-4.2h1.3l1.3,4.1
			c0.3,1,0.5,1.9,0.7,2.7h0.1c0.1-0.8,0.4-1.7,0.6-2.7l1.2-4.1h1.5l-2.7,8.2h-1.4l-1.3-3.9c-0.3-0.9-0.5-1.7-0.7-2.7h0
			c-0.2,1-0.5,1.8-0.7,2.7l-1.3,3.9h-1.4l-2.5-8.2H299z"/>
		<path class="st1" d="M309.9,375.9c0-0.6,0.4-1.1,1-1.1c0.6,0,1,0.4,1,1.1c0,0.6-0.4,1.1-1,1.1C310.3,377,309.9,376.5,309.9,375.9z
			"/>
		<path class="st1" d="M313.5,375.3c0.4,0.3,1.2,0.6,2,0.6c1.1,0,1.6-0.5,1.6-1.2c0-0.7-0.4-1.1-1.5-1.5c-1.5-0.5-2.2-1.3-2.2-2.3
			c0-1.3,1.1-2.4,2.8-2.4c0.8,0,1.6,0.2,2,0.5l-0.4,1.1c-0.3-0.2-0.9-0.5-1.7-0.5c-0.9,0-1.4,0.5-1.4,1.1c0,0.7,0.5,1,1.6,1.4
			c1.4,0.5,2.2,1.3,2.2,2.5c0,1.4-1.1,2.5-3.1,2.5c-0.9,0-1.7-0.2-2.3-0.6L313.5,375.3z"/>
		<path class="st1" d="M327.4,374.6c0,0.9,0,1.6,0.1,2.2h-1.3l-0.1-1.3h0c-0.4,0.7-1.3,1.5-2.7,1.5c-1.3,0-2.8-0.7-2.8-3.6v-4.8h1.5
			v4.6c0,1.6,0.5,2.6,1.8,2.6c1,0,1.7-0.7,2-1.4c0.1-0.2,0.1-0.5,0.1-0.8v-5h1.5V374.6z"/>
		<path class="st1" d="M329.8,371.1c0-1,0-1.8-0.1-2.6h1.3l0.1,1.6h0.1c0.4-1.1,1.3-1.8,2.3-1.8c0.2,0,0.3,0,0.4,0.1v1.4
			c-0.2,0-0.3-0.1-0.5-0.1c-1.1,0-1.8,0.8-2,1.9c0,0.2-0.1,0.4-0.1,0.7v4.4h-1.5V371.1z"/>
		<path class="st1" d="M339.9,376.8l-0.1-1h-0.1c-0.5,0.6-1.3,1.2-2.5,1.2c-1.7,0-2.5-1.2-2.5-2.4c0-2,1.8-3.1,4.9-3.1v-0.2
			c0-0.7-0.2-1.9-1.9-1.9c-0.8,0-1.6,0.2-2.1,0.6l-0.3-1c0.7-0.4,1.7-0.7,2.7-0.7c2.5,0,3.1,1.7,3.1,3.4v3.1c0,0.7,0,1.4,0.1,2
			H339.9z M339.7,372.6c-1.6,0-3.5,0.3-3.5,1.9c0,1,0.6,1.4,1.4,1.4c1.1,0,1.8-0.7,2-1.4c0.1-0.2,0.1-0.3,0.1-0.5V372.6z"/>
		<path class="st1" d="M343.5,364.7h1.5v5.1h0c0.2-0.4,0.6-0.8,1.1-1.1c0.4-0.3,1-0.4,1.5-0.4c1.1,0,2.9,0.7,2.9,3.5v4.9H349v-4.7
			c0-1.3-0.5-2.4-1.9-2.4c-1,0-1.7,0.7-2,1.5c-0.1,0.2-0.1,0.4-0.1,0.7v5h-1.5V364.7z"/>
		<path class="st1" d="M358.6,375.5L358.6,375.5c-0.5,0.8-1.4,1.5-2.7,1.5c-1.9,0-3.5-1.7-3.5-4.2c0-3.1,2-4.4,3.7-4.4
			c1.3,0,2.1,0.6,2.5,1.4h0l0.1-1.2h1.4c0,0.7-0.1,1.4-0.1,2.3v9.3h-1.5V375.5z M358.6,371.9c0-0.2,0-0.4-0.1-0.6
			c-0.2-0.9-1-1.7-2.1-1.7c-1.5,0-2.5,1.3-2.5,3.2c0,1.6,0.8,3.1,2.4,3.1c1,0,1.8-0.6,2.1-1.6c0.1-0.2,0.1-0.5,0.1-0.7V371.9z"/>
		<path class="st1" d="M369.4,374.6c0,0.9,0,1.6,0.1,2.2h-1.3l-0.1-1.3h0c-0.4,0.7-1.3,1.5-2.7,1.5c-1.3,0-2.8-0.7-2.8-3.6v-4.8h1.5
			v4.6c0,1.6,0.5,2.6,1.8,2.6c1,0,1.7-0.7,2-1.4c0.1-0.2,0.1-0.5,0.1-0.8v-5h1.5V374.6z"/>
		<path class="st1" d="M371.9,371.1c0-1,0-1.8-0.1-2.6h1.3l0.1,1.6h0.1c0.4-1.1,1.3-1.8,2.3-1.8c0.2,0,0.3,0,0.4,0.1v1.4
			c-0.2,0-0.3-0.1-0.5-0.1c-1.1,0-1.8,0.8-2,1.9c0,0.2-0.1,0.4-0.1,0.7v4.4h-1.5V371.1z"/>
		<path class="st1" d="M381.9,376.8l-0.1-1h-0.1c-0.5,0.6-1.3,1.2-2.5,1.2c-1.7,0-2.5-1.2-2.5-2.4c0-2,1.8-3.1,4.9-3.1v-0.2
			c0-0.7-0.2-1.9-1.9-1.9c-0.8,0-1.6,0.2-2.1,0.6l-0.3-1c0.7-0.4,1.7-0.7,2.7-0.7c2.5,0,3.1,1.7,3.1,3.4v3.1c0,0.7,0,1.4,0.1,2
			H381.9z M381.7,372.6c-1.6,0-3.5,0.3-3.5,1.9c0,1,0.6,1.4,1.4,1.4c1.1,0,1.8-0.7,2-1.4c0.1-0.2,0.1-0.3,0.1-0.5V372.6z"/>
		<path class="st1" d="M385.6,370.8c0-0.9,0-1.5-0.1-2.2h1.3l0.1,1.4h0c0.4-0.8,1.4-1.5,2.7-1.5c1.1,0,2.9,0.7,2.9,3.5v4.9h-1.5
			v-4.7c0-1.3-0.5-2.4-1.9-2.4c-1,0-1.8,0.7-2,1.5c-0.1,0.2-0.1,0.4-0.1,0.7v4.9h-1.5V370.8z"/>
		<path class="st1" d="M394.6,375.9c0-0.6,0.4-1.1,1-1.1c0.6,0,1,0.4,1,1.1c0,0.6-0.4,1.1-1,1.1C395,377,394.6,376.5,394.6,375.9z"
			/>
		<path class="st1" d="M404.4,376.5c-0.4,0.2-1.3,0.5-2.4,0.5c-2.5,0-4.1-1.7-4.1-4.2c0-2.5,1.7-4.4,4.4-4.4c0.9,0,1.7,0.2,2.1,0.4
			l-0.3,1.2c-0.4-0.2-0.9-0.4-1.7-0.4c-1.9,0-2.9,1.4-2.9,3.1c0,1.9,1.2,3.1,2.9,3.1c0.8,0,1.4-0.2,1.8-0.4L404.4,376.5z"/>
		<path class="st1" d="M413.5,372.6c0,3-2.1,4.4-4.1,4.4c-2.2,0-3.9-1.6-3.9-4.2c0-2.8,1.8-4.4,4.1-4.4
			C411.9,368.4,413.5,370.1,413.5,372.6z M406.9,372.7c0,1.8,1,3.2,2.5,3.2c1.4,0,2.5-1.3,2.5-3.2c0-1.4-0.7-3.2-2.5-3.2
			S406.9,371.1,406.9,372.7z"/>
		<path class="st1" d="M415.4,370.8c0-0.9,0-1.5-0.1-2.2h1.3l0.1,1.3h0.1c0.5-0.8,1.2-1.5,2.6-1.5c1.1,0,2,0.7,2.3,1.6h0
			c0.3-0.5,0.6-0.8,0.9-1.1c0.5-0.4,1-0.6,1.8-0.6c1.1,0,2.7,0.7,2.7,3.6v4.8h-1.5v-4.7c0-1.6-0.6-2.5-1.8-2.5
			c-0.9,0-1.5,0.6-1.8,1.4c-0.1,0.2-0.1,0.5-0.1,0.7v5.1h-1.5v-4.9c0-1.3-0.6-2.3-1.7-2.3c-0.9,0-1.6,0.7-1.9,1.5
			c-0.1,0.2-0.1,0.5-0.1,0.7v5h-1.5V370.8z"/>
	</g>
</g>
<g id="Layer_4">
	<path class="st1" d="M339.5,113.4h0.6c4.6,7.2,8.8,16.2,12.6,27l0.6,3.6l-0.6,0.6h-1.2l-4.8-4.2h-0.6v4.8
		c5.6,45.7,8.4,73.8,8.4,84.2c0,10.4-3.2,17.9-9.6,22.3c-4.8,2.4-10.6,4.2-17.3,5.3c-10.4-1.6-15.6-6.8-15.6-15.6v-1.2l0.6-8.9
		l-0.6-0.6h-0.6c-4.5,1.2-17.1,6.4-37.7,15.6c-7.7,2.8-13.6,4.2-18,4.2c-6.7,0-12.1-3.2-16.2-9.6c-0.6,0-2,2.2-4.2,6.5
		c-2.9,2.8-6.5,4.2-10.8,4.2c-2.8,0-6.2-2.8-10.2-8.4c-6.3,6.4-12.3,9.6-18,9.6c-3.6,0-8.2-3-13.7-9c0-1-3.6-2.2-10.8-3.6l-0.6,0.6
		h-0.6l-2.4-0.6c-14.4,3.1-31.2,14.7-50.3,34.7c-5.6,3.6-10.8,5.8-15.6,6.6c-8,0-13.8-5.2-17.4-15.6l-1.2-6
		c0-7.9,5.4-19.9,16.2-35.9v-0.6c-3.6-4.9-5.4-9.7-5.4-14.4v-0.6c0-8,3-20.2,9-36.6h1.8l0.6,1.8c-3.2,8-5.6,16.4-7.2,25.1l0.6,6.5
		v2.4c1.6,4.1,3.2,6.5,4.8,7.2h0.6c3.6-0.7,5.3-2.7,5.3-6h1.8v1.2h0.6c0,5.6-3.6,11.8-10.8,18.6c-8.8,12-13.2,22-13.2,29.9v4.2
		c0,3.6,1.6,6.4,4.8,8.4h6.6c5.8,0,14.6-5.8,26.3-17.3c19.2-17.2,35.2-25.8,47.9-25.8c5.2,0,11.5,3.6,19.2,10.8l6.5,1.8
		c6.4,0,13.2-5,20.4-15h0.6l1.2,1.2l-1.2,7.2c0,2.9,2.2,4.5,6.5,4.8h1.2c4.3,0,8.3-4,12-12l0.6-0.6h1.2c0.8,0,1.2,2,1.2,6
		c3.2,3.4,6.4,5.1,9.6,5.3h4.2c10.2,0,22-3.8,35.4-11.3v-1.2l-19.2-5.4h-1.2l-19.2,1.8h-4.8l-0.6,0.6l-3-2.4
		c0-7.7,7.4-12.5,22.1-14.4c28.6,8.8,52.7,13.2,72.5,13.2c1.6,0.6,2.4,1.2,2.4,1.8c-2,7.2-4.6,10.8-7.8,10.8l-14.4-1.2h-0.6
		l-1.8,1.8v4.2c1.1,5.6,5.1,8.4,12,8.4h2.4c11.2-2.4,16.8-5.6,16.8-9.6c-2.8-29.5-5.3-51.7-7.7-66.5l0.6-0.6v-0.6
		c-2.7-29.9-4.7-44.9-6-44.9C336.8,117,338.2,114,339.5,113.4z M416.7,113.4h0.6c1.2,0,2.4,2.2,3.6,6.6l-0.6,4.2v4.2
		c0,1.3,1.6,3.9,4.8,7.7l0.6,2.4c-0.6,1.6-1.3,2.4-1.8,2.4h-0.6l-6-4.2h-1.2c-12.1,12.8-21.5,19.2-28.2,19.2v-1.8
		c14-9.3,22-15.8,23.9-19.7v-0.6c-2.4-3.7-3.6-6.3-3.6-7.7v-0.6C409.8,117.4,412.6,113.4,416.7,113.4z M546.7,113.4h1.2
		c2.8,1.8,4.2,4.4,4.2,7.8v0.6l-1.8,1.8h-0.6l-5.3-3.6c-2.1,0-3.3,2-3.6,6v5.3c-0.9,13.6-2.3,20.4-4.2,20.4
		c-5.6-11.2-10.2-16.8-13.7-16.8c-5.2-2.1-7.8-4.4-7.8-6.7c0-2.3,1-4.3,3-5.9c3.8,0,9.6,5.2,17.3,15.6h1.2l0.6-3v-7.7
		C539.1,118,542.3,113.4,546.7,113.4z M370.7,114h0.6c5.4,7.8,10,17.5,13.8,29.3c-0.6,1.6-1.3,2.4-1.8,2.4l-5.3-6h-1.2v1.2
		c6,50,8.9,80.1,8.9,90.3c0,10.2-1.4,18.6-4.2,25.3h-1.2l-1.2-1.2v-21c-6.8-68.8-10.8-106.3-12-112.5
		C368.4,116.7,369.6,114.1,370.7,114z M266.5,114.6c3.6,1.9,5.3,4.1,5.3,6.6v1.8c0,1.2-0.8,1.8-2.4,1.8l-4.2-3h-0.6l-1.8,1.8v6.5
		c0,8.6-1.4,15-4.2,19.2l-10.1-15.6l-3-1.2l-3,0.6c-1.8,0-3.8-1.8-6-5.4c0.6-4.8,1.4-7.2,2.4-7.2h1.2c3.5,0,9.3,5,17.3,15h1.2v-0.6
		C259.6,121.4,262.2,114.6,266.5,114.6z M590.3,114.6h0.6c2.9,0,4.7,6.4,5.3,19.2c1.4,0.5,2.6,2.3,3.6,5.4c-0.6,1.6-1.2,2.4-1.8,2.4
		c-2.4-1.6-4.2-2.4-5.4-2.4h-1.2c-17.2,16.4-31.8,26.2-43.7,29.3H546v-0.6c0.1-0.7,11.8-8.7,35.4-23.9c4-3,6-5.6,6-7.8
		c-4-3.7-6-7.1-6-10.1C583.3,118.4,586.3,114.6,590.3,114.6z M495.8,116.4l0.6,1.8c0,2.9-9.4,9.1-28.2,18.6
		c-16.2,10.4-25.1,15.6-26.9,15.6l-0.6-0.6v-1.2c0-3.5,8.2-9.2,24.6-17.3C482.9,122,493.1,116.4,495.8,116.4z M174.9,118.2
		c3.2,2.2,4.8,5,4.8,8.4l-1.8,2.4h-0.6c-2.7-2.4-4.7-3.6-6-3.6l-1.2,3.6v1.8l0.6,0.6l-0.6,0.6v3.6c0,5.6-1,11.8-3,18.5h-1.2
		c-0.7,0-1.9-2.6-3.6-7.7c-3.1-6.4-7.1-9.6-12-9.6c-4.8-2.2-7.2-4.7-7.2-7.5c0-2.8,1.2-4.7,3.6-5.6c4.2,0,10.5,5.8,19.2,17.3h1.2
		l-0.6-8.4C167.8,122.9,170.6,118.2,174.9,118.2z M204.2,119.4v0.6l-0.6,5.3c1.2,4.8,2.4,7.2,3.6,7.2l3-2.4l1.2,1.2
		c-1.3,5.6-3.5,8.4-6.6,8.4c-2.8-2.3-4.2-5.7-4.2-10.1C201.6,122.8,202.8,119.4,204.2,119.4z M412.6,122.4v0.6
		c0,2.8,1.4,4.2,4.2,4.2v-4.8l-1.8-1.8h-0.6L412.6,122.4z M585.5,124.1v1.2c1.6,2.4,3.6,3.6,6,3.6h0.6v-0.6
		c-0.3-4.4-1.1-6.6-2.4-6.6C587.6,121.8,586.2,122.5,585.5,124.1z M118.6,124.1h1.2c-1.6,5.1-2.4,8.9-2.4,11.4
		c0,4.7,1.2,7.7,3.6,8.9h1.8c0.8,0,1.2-0.6,1.2-1.8l0.6-0.6h0.6l0.6,0.6v0.6c-1.3,5.6-2.7,8.4-4.2,8.4c-4.5,0-7.1-3.6-7.8-10.8v-0.6
		C115.3,132.4,116.9,127,118.6,124.1z M330.5,130.1l1.2,1.8c0,4.3-7.2,8.7-21.6,13.2c-17.9,7.2-38.7,16.5-62.3,28.1
		c-2.1,2-5.1,3.4-8.9,4.2h-0.6v-1.2c0-5.2,8.6-11.4,25.8-18.6c9.8-5.2,31.2-14.1,64-26.9L330.5,130.1z M216.2,146.9
		c7.6,0.4,11.6,1.6,12,3.6v2.4c-5.3,10.4-10.7,15.6-16.2,15.6c0,1.1-1.6,1.9-4.8,2.4H206v-1.2c7.6-5.2,11.4-9,11.4-11.3h-0.6
		l-5.3-0.6l-1.8,0.6l-1.8-0.6l-9.6,2.4v-0.6c0-7.8,5.6-12,16.8-12.6H216.2z M501.7,152.3h1.2c-1.6,4.9-2.4,9.1-2.4,12.5v1.2
		c1,4.4,2.2,6.6,3.6,6.6h1.8c0.6,0,1.4-1.4,2.4-4.2h1.2v0.6c0,5.5-1.8,9.3-5.4,11.3c-4.8-2.1-7.2-6.5-7.2-13.2
		C496.9,164.6,498.5,159.7,501.7,152.3z M319.2,155.3h1.8v1.2h0.6c-3.6,11-5.6,18.1-6,21.6c0.5,9.2,1.9,13.8,4.2,13.8h0.6l3.6-3.6
		l1.2,1.2v0.6c-1.2,8-3.6,12-7.2,12c-2.7,0-4.9-4-6.6-12v-4.2C311.4,178.9,314,168.7,319.2,155.3z M424.6,156.5h0.6
		c6.4,4.6,9.6,8.1,9.6,10.5s-2,4.7-6,6.9l-7.2-5.4h-1.8c-2.7,4.6-4.5,7-5.4,7.2h-1.2c-6-4.3-8.9-7.1-8.9-8.4c1.2-3.6,3-6.4,5.3-8.4
		c4.5,3.2,7.7,4.8,9.6,4.8C421.8,159.1,423.6,156.7,424.6,156.5z M591,157.7h1.2v0.6l-2.4,8.9v2.4c0.5,4.4,1.7,6.6,3.6,6.6l3.6-3
		h0.6v0.6c0,3.9-1.6,6.9-4.8,8.9h-0.6c-2.9,0-4.9-2.8-6-8.4C586.8,169,588.4,163.4,591,157.7z M173.1,167.2h1.2v1.8
		c-5.2,12.8-7.8,20.2-7.8,22.1v1.2c0,7.2,1.8,10.8,5.4,10.8c1.6-1.9,2.4-3.5,2.4-4.8h1.8v3c0,5.5-2.6,9.1-7.7,10.8
		c-4.4-1.8-6.6-6-6.6-12.6C161.7,190.4,165.5,179.6,173.1,167.2z M460.5,169.6l12.5,13.2v1.2l-4.2,0.6v0.6l8.9,18l1.2,6.6
		c0,11-4.4,19.1-13.2,24.5c-3.6,2.9-5.3,6.9-5.3,12c0,9.1,4.8,15.7,14.4,19.8c15,0,28.6-6,40.7-18c10.4-8.2,15.6-14,15.6-17.4v-2.4
		h-2.4l-15,2.4c-8.8-1.3-13.2-5.1-13.2-11.3V217c0-10,5.2-15.9,15.6-18c4.4,0,10.3,4.6,18,13.7h1.8l18.5-12h2.4c0,2,0.4,3,1.2,3
		l-0.6,3c1,7.2,4.5,10.8,10.8,10.8h5.3c6.6,0,13-6.4,19.2-19.2l1.8-0.6l0.6,1.8l-2.4,7.8c2.8,4,6.6,6,11.4,6h4.8
		c1.2,0,1.8-0.8,1.8-2.4l-3-6c0.5-6,1.5-9,3-9h0.6c1.5,0.5,3.1,4.1,4.8,10.8v3.6c0,9-3.8,14.2-11.4,15.6h-0.6
		c-5.3,0-10.5-2.6-15.6-7.7h-0.6c-5.6,7.6-12.2,11.3-19.7,11.3h-0.6c-6.8,0-11.8-4.2-14.9-12.5v-1.8H552c-2.3,0-7.1,3.2-14.4,9.6
		c0,11.1-5,20.6-14.9,28.7c-16,16.4-30.6,24.6-43.7,24.6c-9.5,0-16.7-5.6-21.6-16.8l-1.2-7.2l0.6-10.2H455
		c-15.8,10.2-28.7,17.6-38.9,22.2c-8.8,2.4-22.7,5.4-41.9,8.9v-1.2c2.1-2.2,11.4-6.2,28.1-12c27-13.3,50-27.9,68.9-43.7l1.8-4.8
		c0-1.5-4-9.9-12-25.1l-3.6-10.2C458.2,172.4,459.2,169.6,460.5,169.6z M137.2,170.8h0.6v0.6l-3.6,10.1c0.7,7.2,2.3,10.8,4.8,10.8
		l2.4-4.8h1.2v1.2h0.6c0,3.7-2.2,7.3-6.6,10.8c-3.6-2-5.3-5.8-5.3-11.3C133.4,176.6,135.4,170.8,137.2,170.8z M277.3,172v1.2
		l-1.2,7.8v3c0,3.6,1,5.4,3,5.4l3-1.2l0.6,0.6c0,3.1-1.6,5.7-4.8,7.8h-1.2c-3.2-2.1-4.8-5.7-4.8-10.8
		C273.8,176.6,275.6,172,277.3,172z M435.9,178h0.6l0.6,1.8c-0.7,5.6-4.1,12.2-10.1,19.7v2.4c8,5.7,12,11.3,12,16.8
		c0,10.3-6.2,17.7-18.6,22.2l-4.8,1.2h-3c-4-2.7-6-6.7-6-12c0.4-7.7,2.4-14.4,6-20.4V208c-10.4-10.2-15.6-16.4-15.6-18.5v-0.6
		c0-4.4,0.6-6.5,1.8-6.5l15.6,6.5v1.2c0,0.8-0.6,1.2-1.8,1.2l-0.6,0.6v0.6c1.6,2.3,3.5,3.9,5.4,4.8h3L435.9,178z M217.4,182.3h1.2
		c5.2,4,7.7,6.8,7.7,8.4l-1.8,5.3h3.6c6.4,4.9,9.6,8.3,9.6,10.2c-2,4.2-3.8,6.5-5.4,7.2h-1.2c-5.4-4.8-8.8-7.2-10.1-7.2l-5.4,6H215
		c-2.1,0-5.5-2.6-10.2-7.8c0-2.4,2-5.2,6-8.4l10.8,5.4l1.2-1.2c-4.4-1.9-7.7-4.9-10.1-9V190C212.6,187.5,214.2,184.9,217.4,182.3z
		 M411.9,224.2v3l3,3c6,0,11.8-2.8,17.3-8.4c0-3.4-4.4-6.8-13.2-10.2C416.9,212.1,414.5,216.3,411.9,224.2z M508.4,215.1v0.6
		c0,1.2,1.6,2,4.8,2.4l0.6-0.6h0.6l1.8,0.6c4-0.2,6-0.8,6-1.8c-2.2-2.8-4.4-4.2-6.5-4.2h-4.2L508.4,215.1z M601.1,240.3
		c0.8,0,1.2,0.6,1.2,1.8c-1,5.5-3.2,9.5-6.5,12h-0.6l-6.5-1.2h-0.6c-2.4,2.4-5.6,3.6-9.6,3.6l-3.6-2.4h-3c-2.6,0-10.1,4.4-22.7,13.2
		c-3.6,1.6-6.8,2.4-9.6,2.4v-1.2l30.5-19.8l5.4-1.2l4.8,2.4h1.2c3,0,6.2-2,9.6-6c2.4,2.4,4.4,3.6,6,3.6
		C598.9,242.7,600.3,240.3,601.1,240.3z M365.2,240.9v0.6c-2,5.8-3,10.4-3,13.8c0.8,2.5,1.8,3.9,3,4.2c1.6-0.8,2.4-1.8,2.4-3h0.6
		l0.6,0.6h0.6c-0.9,3.7-2.8,6.9-6,9.6c-2.9,0-4.7-3.6-5.4-10.8C358.1,251.9,360.5,246.9,365.2,240.9z M292.2,252.3h3.6l2.4,2.4v1.2
		c-0.7,1.8-4.1,5.8-10.1,12v1.2l1.2,1.2c4.7,0,10.7-1.8,18-5.3h1.8v1.2c-5.4,7.2-13.1,10.8-23.3,10.8c-1.9-0.8-2.9-1.6-3-2.4
		c0-1.7,2.6-6.7,7.8-15h-6.6v-1.8C285.7,254.1,288.5,252.3,292.2,252.3z M230.6,255.8v1.2c-1.2,2.1-1.8,4.1-1.8,6v4.2l2.4,2.4h1.2
		l2.4-1.8h0.6v0.6c-1.2,5.6-3.2,8.4-6,8.4c-3.2-1.5-4.8-3.5-4.8-6v-3C226.8,259.8,228.8,255.8,230.6,255.8z M180.3,260.6l1.2,1.2
		c0,3.2-5,6.2-15,9c-12.1,5.6-19.3,8.4-21.6,8.4h-0.6v-2.4c0-2,7-5.4,20.9-10.2C172.9,262.6,177.9,260.6,180.3,260.6z"/>
</g>
</svg>
