<?xml version="1.0" encoding="utf-8"?>
<!-- Generator: Adobe Illustrator 25.2.3, SVG Export Plug-In . SVG Version: 6.00 Build 0)  -->
<svg version="1.1" id="Layer_1" xmlns="http://www.w3.org/2000/svg" xmlns:xlink="http://www.w3.org/1999/xlink" x="0px" y="0px"
	 viewBox="0 0 700 395" style="enable-background:new 0 0 700 395;" xml:space="preserve">
<style type="text/css">
	.st0{fill:#000222;}
	.st1{fill:#FFFFFF;}
</style>
<g id="Layer_1_1_">
	<rect y="-0.5" class="st0" width="700" height="395"/>
</g>
<g id="Layer_3">
	<g>
		<path class="st1" d="M273.5,368.6l1.1,4.2c0.2,0.9,0.5,1.8,0.6,2.6h0.1c0.2-0.8,0.5-1.7,0.7-2.6l1.3-4.2h1.3l1.3,4.1
			c0.3,1,0.5,1.9,0.7,2.7h0.1c0.1-0.8,0.4-1.7,0.6-2.7l1.2-4.1h1.5l-2.7,8.2H280l-1.3-3.9c-0.3-0.9-0.5-1.7-0.7-2.7l0,0
			c-0.2,1-0.5,1.8-0.7,2.7l-1.3,3.9h-1.4l-2.5-8.2H273.5z"/>
		<path class="st1" d="M286.3,368.6l1.1,4.2c0.2,0.9,0.5,1.8,0.6,2.6h0.1c0.2-0.8,0.5-1.7,0.7-2.6l1.3-4.2h1.3l1.3,4.1
			c0.3,1,0.5,1.9,0.7,2.7h0.1c0.1-0.8,0.4-1.7,0.6-2.7l1.2-4.1h1.5l-2.7,8.2h-1.4l-1.3-3.9c-0.3-0.9-0.5-1.7-0.7-2.7l0,0
			c-0.2,1-0.5,1.8-0.7,2.7l-1.3,3.9h-1.4l-2.5-8.2H286.3z"/>
		<path class="st1" d="M299,368.6l1.1,4.2c0.2,0.9,0.5,1.8,0.6,2.6h0.1c0.2-0.8,0.5-1.7,0.7-2.6l1.3-4.2h1.3l1.3,4.1
			c0.3,1,0.5,1.9,0.7,2.7h0.1c0.1-0.8,0.4-1.7,0.6-2.7l1.2-4.1h1.5l-2.7,8.2h-1.4l-1.3-3.9c-0.3-0.9-0.5-1.7-0.7-2.7l0,0
			c-0.2,1-0.5,1.8-0.7,2.7l-1.3,3.9H300l-2.5-8.2H299z"/>
		<path class="st1" d="M309.9,375.9c0-0.6,0.4-1.1,1-1.1s1,0.4,1,1.1c0,0.6-0.4,1.1-1,1.1S309.9,376.5,309.9,375.9z"/>
		<path class="st1" d="M313.5,375.3c0.4,0.3,1.2,0.6,2,0.6c1.1,0,1.6-0.5,1.6-1.2s-0.4-1.1-1.5-1.5c-1.5-0.5-2.2-1.3-2.2-2.3
			c0-1.3,1.1-2.4,2.8-2.4c0.8,0,1.6,0.2,2,0.5l-0.4,1.1c-0.3-0.2-0.9-0.5-1.7-0.5c-0.9,0-1.4,0.5-1.4,1.1c0,0.7,0.5,1,1.6,1.4
			c1.4,0.5,2.2,1.3,2.2,2.5c0,1.4-1.1,2.5-3.1,2.5c-0.9,0-1.7-0.2-2.3-0.6L313.5,375.3z"/>
		<path class="st1" d="M327.4,374.6c0,0.9,0,1.6,0.1,2.2h-1.3l-0.1-1.3l0,0c-0.4,0.7-1.3,1.5-2.7,1.5c-1.3,0-2.8-0.7-2.8-3.6v-4.8
			h1.5v4.6c0,1.6,0.5,2.6,1.8,2.6c1,0,1.7-0.7,2-1.4c0.1-0.2,0.1-0.5,0.1-0.8v-5h1.5v6H327.4z"/>
		<path class="st1" d="M329.8,371.1c0-1,0-1.8-0.1-2.6h1.3l0.1,1.6h0.1c0.4-1.1,1.3-1.8,2.3-1.8c0.2,0,0.3,0,0.4,0.1v1.4
			c-0.2,0-0.3-0.1-0.5-0.1c-1.1,0-1.8,0.8-2,1.9c0,0.2-0.1,0.4-0.1,0.7v4.4h-1.5L329.8,371.1L329.8,371.1z"/>
		<path class="st1" d="M339.9,376.8l-0.1-1h-0.1c-0.5,0.6-1.3,1.2-2.5,1.2c-1.7,0-2.5-1.2-2.5-2.4c0-2,1.8-3.1,4.9-3.1v-0.2
			c0-0.7-0.2-1.9-1.9-1.9c-0.8,0-1.6,0.2-2.1,0.6l-0.3-1c0.7-0.4,1.7-0.7,2.7-0.7c2.5,0,3.1,1.7,3.1,3.4v3.1c0,0.7,0,1.4,0.1,2
			H339.9z M339.7,372.6c-1.6,0-3.5,0.3-3.5,1.9c0,1,0.6,1.4,1.4,1.4c1.1,0,1.8-0.7,2-1.4c0.1-0.2,0.1-0.3,0.1-0.5V372.6z"/>
		<path class="st1" d="M343.5,364.7h1.5v5.1l0,0c0.2-0.4,0.6-0.8,1.1-1.1c0.4-0.3,1-0.4,1.5-0.4c1.1,0,2.9,0.7,2.9,3.5v4.9H349V372
			c0-1.3-0.5-2.4-1.9-2.4c-1,0-1.7,0.7-2,1.5c-0.1,0.2-0.1,0.4-0.1,0.7v5h-1.5V364.7z"/>
		<path class="st1" d="M358.6,375.5L358.6,375.5c-0.5,0.8-1.4,1.5-2.7,1.5c-1.9,0-3.5-1.7-3.5-4.2c0-3.1,2-4.4,3.7-4.4
			c1.3,0,2.1,0.6,2.5,1.4l0,0l0.1-1.2h1.4c0,0.7-0.1,1.4-0.1,2.3v9.3h-1.5v-4.7H358.6z M358.6,371.9c0-0.2,0-0.4-0.1-0.6
			c-0.2-0.9-1-1.7-2.1-1.7c-1.5,0-2.5,1.3-2.5,3.2c0,1.6,0.8,3.1,2.4,3.1c1,0,1.8-0.6,2.1-1.6c0.1-0.2,0.1-0.5,0.1-0.7v-1.7H358.6z"
			/>
		<path class="st1" d="M369.4,374.6c0,0.9,0,1.6,0.1,2.2h-1.3l-0.1-1.3l0,0c-0.4,0.7-1.3,1.5-2.7,1.5c-1.3,0-2.8-0.7-2.8-3.6v-4.8
			h1.5v4.6c0,1.6,0.5,2.6,1.8,2.6c1,0,1.7-0.7,2-1.4c0.1-0.2,0.1-0.5,0.1-0.8v-5h1.5v6H369.4z"/>
		<path class="st1" d="M371.9,371.1c0-1,0-1.8-0.1-2.6h1.3l0.1,1.6h0.1c0.4-1.1,1.3-1.8,2.3-1.8c0.2,0,0.3,0,0.4,0.1v1.4
			c-0.2,0-0.3-0.1-0.5-0.1c-1.1,0-1.8,0.8-2,1.9c0,0.2-0.1,0.4-0.1,0.7v4.4h-1.5L371.9,371.1L371.9,371.1z"/>
		<path class="st1" d="M381.9,376.8l-0.1-1h-0.1c-0.5,0.6-1.3,1.2-2.5,1.2c-1.7,0-2.5-1.2-2.5-2.4c0-2,1.8-3.1,4.9-3.1v-0.2
			c0-0.7-0.2-1.9-1.9-1.9c-0.8,0-1.6,0.2-2.1,0.6l-0.3-1c0.7-0.4,1.7-0.7,2.7-0.7c2.5,0,3.1,1.7,3.1,3.4v3.1c0,0.7,0,1.4,0.1,2
			H381.9z M381.7,372.6c-1.6,0-3.5,0.3-3.5,1.9c0,1,0.6,1.4,1.4,1.4c1.1,0,1.8-0.7,2-1.4c0.1-0.2,0.1-0.3,0.1-0.5V372.6z"/>
		<path class="st1" d="M385.6,370.8c0-0.9,0-1.5-0.1-2.2h1.3l0.1,1.4l0,0c0.4-0.8,1.4-1.5,2.7-1.5c1.1,0,2.9,0.7,2.9,3.5v4.9H391
			v-4.7c0-1.3-0.5-2.4-1.9-2.4c-1,0-1.8,0.7-2,1.5c-0.1,0.2-0.1,0.4-0.1,0.7v4.9h-1.5v-6.1H385.6z"/>
		<path class="st1" d="M394.6,375.9c0-0.6,0.4-1.1,1-1.1s1,0.4,1,1.1c0,0.6-0.4,1.1-1,1.1S394.6,376.5,394.6,375.9z"/>
		<path class="st1" d="M404.4,376.5c-0.4,0.2-1.3,0.5-2.4,0.5c-2.5,0-4.1-1.7-4.1-4.2s1.7-4.4,4.4-4.4c0.9,0,1.7,0.2,2.1,0.4
			l-0.3,1.2c-0.4-0.2-0.9-0.4-1.7-0.4c-1.9,0-2.9,1.4-2.9,3.1c0,1.9,1.2,3.1,2.9,3.1c0.8,0,1.4-0.2,1.8-0.4L404.4,376.5z"/>
		<path class="st1" d="M413.5,372.6c0,3-2.1,4.4-4.1,4.4c-2.2,0-3.9-1.6-3.9-4.2c0-2.8,1.8-4.4,4.1-4.4
			C411.9,368.4,413.5,370.1,413.5,372.6z M406.9,372.7c0,1.8,1,3.2,2.5,3.2c1.4,0,2.5-1.3,2.5-3.2c0-1.4-0.7-3.2-2.5-3.2
			S406.9,371.1,406.9,372.7z"/>
		<path class="st1" d="M415.4,370.8c0-0.9,0-1.5-0.1-2.2h1.3l0.1,1.3h0.1c0.5-0.8,1.2-1.5,2.6-1.5c1.1,0,2,0.7,2.3,1.6l0,0
			c0.3-0.5,0.6-0.8,0.9-1.1c0.5-0.4,1-0.6,1.8-0.6c1.1,0,2.7,0.7,2.7,3.6v4.8h-1.5V372c0-1.6-0.6-2.5-1.8-2.5
			c-0.9,0-1.5,0.6-1.8,1.4c-0.1,0.2-0.1,0.5-0.1,0.7v5.1h-1.5v-4.9c0-1.3-0.6-2.3-1.7-2.3c-0.9,0-1.6,0.7-1.9,1.5
			c-0.1,0.2-0.1,0.5-0.1,0.7v5h-1.5v-5.9H415.4z"/>
	</g>
	<path class="st1" d="M271.3,97.6l1.9,1.2c0,3.6-6.6,7.5-19.7,11.7c-12.8,6.6-22.7,11.1-29.5,13.5l-1.2-1.2
		c0-3.6,13.1-10.8,39.3-21.6L271.3,97.6z M174.2,111.1h0.7c2.8,0,5.3,2.9,7.4,8.6c-0.8,1.9-1.6,2.9-2.5,3.1l-5.6-3.7H173l-1.2,1.2
		v0.6l1.2,15.4c0,16.7-6.6,28.4-19.7,35h-1.8c11.9-12.3,17.8-19.9,17.8-22.7v-2.5c-5.2-9.7-11.1-16.1-17.8-19.1c-1.7,0-2.7-1-3.1-3
		c0.5-4.1,1.3-6.1,2.5-6.1h1.9c3.2,2.1,8.1,6.6,14.8,13.5C169,118.8,171.2,112,174.2,111.1z M256.6,116.7c2.9,0,4.3,1.4,4.3,4.3
		l-1.2,3.7H259c-1.4,0-2.8-0.6-4.3-1.8c-2.2,0-3.9,1-4.9,3c1,2.1,2.7,3.1,4.9,3.1h3.7l7.4-1.2l1.8,1.8h0.7c0,2.9-2.3,4.3-6.8,4.3
		l-0.6,0.6l-14.8,4.9v-0.6l1.2-5.6c-2.1-1.1-3.1-2.4-3.1-3.7c0-3.1,3.7-7.4,11.1-12.9L256.6,116.7L256.6,116.7z M335.2,119.7
		c8.2,14.5,12.3,23.5,12.3,27v1.2H347l-4.3-3l-0.6,0.6h-0.7l12.3,84.2v8.6c0,13-5.9,25.5-17.8,37.5c-6.7,5.7-21,11.7-43,17.9
		L291,293v-0.6c1.4-1.9,9.2-6.2,23.4-12.9c18.8-10.9,28.3-19.7,28.3-26.4c0-14.5-19.5-37.2-58.4-68.3c-18.8-21-28.3-32.5-28.3-34.4
		l-1.2-10.4h0.6c12.6,6.2,21.4,12.5,26.5,19l-1.2,1.2l-6.1-1.2v1.2c17.1,18.5,33.1,33.4,47.9,44.9c12.4,12.9,20,25.2,22.7,36.9
		l0.7,3.7v1.8h0.6l1.2-1.2c0-8.6-4.5-42.4-13.5-101.4l-3-16.6C331,125.7,332.4,122.8,335.2,119.7z M559,120.4h3.1
		c2.8,2,4.3,4.2,4.3,6.7c-0.3,2.9-0.9,4.3-1.8,4.3h-0.7c-2.5-2.5-4.5-3.7-6.1-3.7h-0.6c-2.1,0.9-3.1,3-3.1,6.1v9.8
		c0,5.6-0.8,11.6-2.5,17.8H551c-6.5-11.9-11.4-17.8-14.8-17.8c-5.7-2.2-8.6-4.7-8.6-7.4c0.4-3.7,1.2-5.6,2.5-5.6h0.6
		c3.9,0,10.3,5.5,19.1,16.6h0.6C550.4,131.9,553.2,122.8,559,120.4z M606.9,121c3.2,0,5,4.3,5.6,12.9v3.7c0,1,1.6,3.9,4.9,8.6
		c-0.5,2-1.2,3-1.9,3l-4.9-2.5c-1.8,0-7.7,5.1-17.8,15.4c-16.5,10.7-27.2,16-32,16v-0.7c3.4-2.9,9.2-6.6,17.2-11.1l19-13.5
		c5.4-4.6,8-7.6,8-9.2c-4.5-3.3-6.8-6.4-6.8-9.3C600,125.5,602.9,121,606.9,121z M423.2,122.8c2.5,0,3.7,2.9,3.7,8.6v1.2l-0.7,6.7
		c4.1,4.2,6.4,7.1,6.8,8.6c-0.5,2.1-1.2,3.1-1.9,3.1h-0.6c-3.3-2.9-6-4.3-8-4.3c-11.2,12.5-22.7,20.5-34.4,24V170
		c0.9-1.5,8.5-7,22.8-16.6l7.4-8V145c0-1.4-1.2-3.6-3.7-6.8v-1.8C415.7,127.3,418.5,122.8,423.2,122.8z M203.1,123.4v1.9l-1.2,4.9
		c0,8.2,2,12.3,6.1,12.3l1.2-3.1h0.6l1.2,1.2c-0.9,6.6-2.6,9.8-4.9,9.8c-3.1,0-5.5-4.1-7.4-12.3
		C200.2,128.3,201.7,123.4,203.1,123.4z M365.4,123.4h1.8c7.8,15.5,11.7,24.3,11.7,26.5v0.6l-0.7,0.7h-0.6c-3-2.9-5-4.3-6.1-4.3v0.7
		c8.6,56.5,12.9,93.4,12.9,110.6c0,7.9-1.8,15.7-5.5,23.4h-1.2l0.6-12.3c0-12.6-5.1-58.3-15.3-137.1l-0.7-0.6
		C363.5,126.1,364.6,123.4,365.4,123.4z M95,124.1h0.6c3,0,5.2,2.2,6.8,6.7c-0.4,2.9-1.1,4.3-1.9,4.3h-0.6c-1.8-2.1-3.4-3.1-4.9-3.1
		h-1.9l-0.6,3.1v4.9c-0.3,13.1-1.4,19.7-3.1,19.7h-0.6c-4.6-12.3-10.4-18.4-17.2-18.4c-2.5-1.7-3.9-3.6-4.3-5.6
		c0.9-4.1,2-6.1,3.1-6.1c5.4,2.3,11.5,8,18.4,17.2h0.6l0.7-3v-4.3C90,132.3,91.7,127.2,95,124.1z M506.8,124.1h0.6v1.8
		c0,3.2-8,9-23.9,17.2l-32.6,20.3h-1.2l-0.6-1.9c0-3.7,4.9-7.8,14.8-12.3c7.4-5.3,19.3-12.5,35.6-21.5
		C502.6,125.3,505,124.1,506.8,124.1z M308.2,124.6h1.2v0.7c-1.6,6.2-2.5,10.7-2.5,13.5v1.8c0,5.4,1.2,8.6,3.7,9.8h0.7l3.7-3.7v1.9
		c0,3.7-1.6,6.8-4.9,9.2c-3.2,0-5.5-4.5-6.8-13.5L308.2,124.6z M126.9,125.3h0.6c3,0,6.9,26.4,11.7,79.2l-0.7,0.7v0.6
		c0.8,12.3,1.9,18.4,3.1,18.4c10.4-3.3,16.1-6.1,17.2-8.6v-1.2c-1.6-1.9-2.9-5.3-3.7-10.4c2.7-11.1,7.2-16.6,13.6-16.6
		s13.9,5.5,22.7,16.6v1.2c-1.5,7.8-4.8,11.6-9.8,11.6l-11.1,6.8l-0.6,4.3H168l-2.5-1.8c-15.6,6.3-23.4,10.6-23.4,12.9
		c0,10.4,5.5,19.3,16.6,26.5c4.8,2,10.9,3,18.4,3h6.7c16.2-2.2,28.5-5.9,36.9-11.1c4.5-2.5,6.8-4.2,6.8-4.9c-4.5-5.7-9-8.6-13.5-8.6
		h-4.9c-1.7,1.3-3.4,1.9-4.9,1.9l-0.7-0.7v-2.5c0-9.2,10.5-14.7,31.4-16.6h2.5c21.3,2,32,5.1,32,9.2c0,5.8-1.9,9.5-5.6,11.1
		c-9.9,4-15.3,6.9-16,8.6v1.2c5.2,5.7,10.7,8.6,16.6,8.6h0.6c12.1,0,21.1-3.5,27-10.4v-3.1l-11.1-18.4c0-1.6-1.6-4.9-4.9-9.8v-1.8
		l1.9-9.3h0.6c6.4,4.5,11.4,9,14.8,13.5v0.7l-1.2,1.2h-3.7c0,1,2.5,5.3,7.4,12.9c1.3,3,2.1,6.7,2.5,11.1c0,12.4-7.6,20.6-22.7,24.6
		l-10.5,1.2c-8.7,0-17.5-4.9-26.4-14.8l-2.5-0.6h-0.7c-23.9,13.1-42.9,19.7-57.1,19.7c-19.7,0-32.6-7.4-38.8-22.1l-4.9-17.9
		c-9.4,2.3-21.5,14.2-36.2,35.6c-5.5,6.6-11,9.8-16.6,9.8c-11-3-16.6-8.5-16.6-16.6l-0.7-3.1c0-11.6,2.9-22.2,8.6-32
		c1.3-1.5,1.9-2.9,1.9-4.3v-1.2c-3.3-4.5-4.9-10.8-4.9-18.9c0-8.1,2.5-18.6,7.4-31.5h1.8l0.7,1.8c-3.7,8.7-5.6,16.7-5.6,24v1.2
		c0.8,10.7,3.1,16,6.8,16c1.7,0,3.2-2.7,4.3-8h1.2l0.7,2.5c0,7.3-3.3,13.2-9.8,17.9c-5.9,10.2-9,19.2-9.3,27v6.7
		c1.5,5.4,3.9,8,7.4,8H82c7.4-2.3,16.4-12,27-28.9c7.8-7.9,15.5-14,23.4-18.4l1.2-1.8c-2.5-46.6-5.1-73.5-7.9-80.6l-3.1-10.4
		C124.2,129.7,125.6,126,126.9,125.3z M601.4,132c1.7,2.9,3.7,4.3,6.1,4.3h0.6l1.2-1.2c0-4.5-1.6-6.8-4.9-6.8
		C603.3,128.3,602.2,129.6,601.4,132z M417.6,133.2c0.3,1.4,1.6,2.6,3.7,3.7h1.9l0.6-3c0-2.2-0.8-3.7-2.5-4.3h-0.6
		C418.6,130.5,417.6,131.8,417.6,133.2z M245.5,148.7l1.2,1.2c0,4.2-3.3,7.1-9.8,8.6l-49.7,19h-0.7v-1.8c0-3.8,9.4-8.7,28.3-14.8
		L245.5,148.7z M514.7,161.5h0.7c-2.1,5.6-3.1,10.1-3.1,13.5c0,4.9,2,7.8,6.1,8.6c0.9,0,1.7-1.6,2.5-4.9h1.2v1.2h0.7
		c-1.9,7.8-3.9,11.7-6.1,11.7c-3.6,0-6.1-3.9-7.4-11.7C509.2,173.9,511.1,167.8,514.7,161.5z M608.8,166.4h1.2c0,1.4-1,3.7-3.1,6.8
		v4.9c0.7,4.9,1.7,7.4,3.1,7.4h1.8l3.1-3.1h0.6v0.7c0,3.8-1.8,7.1-5.5,9.8c-3,0-5-3.5-6.1-10.5C604.7,177.5,606.3,172.2,608.8,166.4
		z M433.6,168.3c1.4,0,4.5,3.1,9.3,9.2c-0.8,2.7-2.9,5.4-6.1,8c-4.4-3.7-7.5-5.6-9.3-5.6h-0.6l-5.6,7.4h-1.2c-6.1-3.2-9.2-6-9.2-8.6
		c1.4-5.3,3.5-7.9,6.1-7.9l7.4,4.9h1.2c0.7,0,2.3-2.3,4.9-6.8l0.6-0.6L433.6,168.3L433.6,168.3z M108.5,168.9v0.7l-2.5,12.9v4.3
		c0,2.4,1.2,4.5,3.7,6.1h1.2l2.5-1.9h0.6v0.7c-1.2,6.1-2.8,9.2-4.9,9.2c-4.1-1.9-6.1-5.7-6.1-11.6
		C104.2,177.6,106,170.8,108.5,168.9z M241.8,172c9.5,0.6,14.2,1.8,14.2,3.7c-3.6,7.8-7.9,11.6-12.9,11.6c0,0.7-2.5,1.3-7.4,1.9
		v-0.7l9.3-7.4V180l-3.1-0.6h-2.5l-7.4,3v-1.2C232,176.9,235.3,173.8,241.8,172z M469.9,181.2h0.6c9,7.9,13.5,12.8,13.5,14.8h-3.7
		l-1.2,1.2v0.7l8.6,16l1.9,6.1v6.1c0,9-4.7,17-14.2,23.9c-3.3,3-4.9,7.9-4.9,14.8c2.8,11.9,9.2,17.9,19.1,17.9h3
		c15.8,0,33.8-12.5,54.1-37.5c0-2.1-0.6-3.4-1.8-3.7l-15.4,2.5H527l-0.6,0.7c-8.6-1.4-12.9-5.7-12.9-12.9V231
		c0-10.4,4.7-17,14.2-19.7h0.6c6,0,12.6,4.7,19.7,14.1h1.9c2.2,0,9-4.3,20.2-12.9h1.9c0.7,0,1.3,1,1.8,3l-0.6,0.7v0.6
		c0,7.6,3.9,12.2,11.6,13.5h3.7c8.8,0,15.6-6.1,20.3-18.4l1.8-2.5l0.7-0.6h1.8v3c-1.6,2.7-2.5,4.7-2.5,6.1c2,4.5,7.2,7,15.4,7.4
		l3-1.2v-1.8l-3-8c1.2-5.3,2.2-7.9,3-7.9h0.7c3.7,3.7,5.5,8.8,5.5,15.3c-1.5,10.3-4.8,15.4-9.8,15.4l-3.7,0.6
		c-4.7,0-9.8-2.9-15.3-8.6c-6.9,9-13.8,13.5-20.9,13.5h-0.7c-10.7-2.1-16-7.2-16-15.3l-0.6-0.7H567c-9.8,6.6-14.8,10.9-14.8,12.9
		c0,12.1-7.2,24-21.6,35.6c-14.8,13.1-26.6,19.7-35.6,19.7h-3.7c-12.4,0-20.4-6.6-23.9-19.7l-0.7-5.6l0.7-10.4v-0.7h-1.2
		c-22.5,16.2-41.4,25.8-56.5,28.9l-28.3,6.1l-1.2-1.2c2.8-2.2,14.3-7.3,34.4-15.4c17.8-9,36-20.4,54.7-34.4
		c9.8-7.4,14.8-12.5,14.8-15.3v-0.7L471.2,200l-3.7-11.1V188C468,183.5,468.9,181.2,469.9,181.2z M213,184.9v0.7l-1.2,11.6v0.7
		c0,3.2,1.2,5.7,3.7,7.4h1.8c0.9,0,1.6-1,1.9-3.1h0.6l1.2,1.2c-2,6.2-3.7,9.3-4.9,9.3h-2.5c-2.1-0.7-4-3.9-5.5-9.8l0.6-0.7v-6.1
		C210.5,188.6,212,184.9,213,184.9z M444.7,189.8h0.7v0.7c0,5.5-3.5,13-10.5,22.7v1.9c8.6,6.7,12.9,12.2,12.9,16.6
		c0,10.9-4.9,18.5-14.8,22.8c0,0.8-3.1,2-9.3,3.7c-5.6,0-8.9-3.7-9.8-11.1c0-7.4,2-15.6,6.1-24.6c0-1.5-2.5-3.7-7.4-6.8
		c-6.6-6-9.8-10.5-9.8-13.5v-2.5c0-3,0.6-4.6,1.9-4.9c10.2,3.9,15.7,6.4,16.6,7.4v1.9l-3,0.6v1.2c1.5,2.5,4.5,4.3,9.2,5.6
		L444.7,189.8z M261.5,192.9h0.7c6.1,3.6,9.2,6.6,9.2,9.2c-1.3,3.1-3.1,5.5-5.5,7.4c-3,0-6.3-2.6-9.8-7.9
		C258.6,196.1,260.4,193.2,261.5,192.9z M160.7,202.7v1.8l6.1,7.4h1.2c7-2.5,10.5-4.3,10.5-5.5c-3.5-4.5-7.2-6.8-11.1-6.8
		C163,200.3,160.7,201.3,160.7,202.7z M520.9,229.1c1.7,1.6,4,2.5,6.8,2.5c5.7-0.3,8.6-1.1,8.6-2.5c-1.4-2.8-3.9-4.3-7.4-4.3h-4.3
		C522.1,226,520.9,227.4,520.9,229.1z M418.8,239v0.7c0,3.1,0.8,4.9,2.5,5.5h4.3c4.5,0,9.8-3.1,16-9.2v-0.7c0-2.7-4.7-5.7-14.2-9.2
		h-1.2C421.7,230.7,419.3,235,418.8,239z M318,226.7l0.7,0.7v0.6c-2.1,5.2-3.1,10.8-3.1,16.6c1,3.2,2.3,5,3.7,5.5h0.7
		c1.2,0,1.8-0.8,1.8-2.5h1.9v0.7c-0.9,6.1-2.6,9.2-4.9,9.2c-4.1-1.9-6.1-5.5-6.1-11.1C314.6,233.2,316.4,226.7,318,226.7z
		 M182.2,231.6h0.6v1.2l-2.5,13.5c1.3,4,2.5,6,3.7,6.1h0.7c0.8,0,1.2-0.6,1.2-1.8l0.6-0.7h1.2c0,5.2-1.2,8.7-3.7,10.5h-1.2
		c-3.3-2.9-4.9-6.6-4.9-11.1C178.9,238.4,180.4,232.5,182.2,231.6z M232.6,240.2c2.2,4.1,4.7,6.1,7.4,6.1c2.8-0.6,5.8-2.4,9.2-5.5
		c-1.3-1.3-5.1-1.9-11.6-1.9h-3.7L232.6,240.2z M619.2,253.1h0.7l0.6,0.6h0.7c-1.6,9.8-4.5,14.8-8.6,14.8l-6.8-1.2
		c-0.8,1.4-3.2,2.9-7.4,4.3l-6.7-2.5h-1.9c-3.1,0-10,3.9-20.9,11.6c-4,2.7-8.5,4.5-13.5,5.6l-0.6-0.7V285l32.5-21.6l6.1-1.2l6.8,2.5
		c3.2,0,6.3-2.5,9.2-7.4c1.7,2.9,3.6,4.3,5.6,4.3h0.6C616.3,261.8,617.6,258.9,619.2,253.1z M234.4,269.7l0.7,1.9
		c-1.6,3-2.5,6.3-2.5,9.8v3c0,2.5,1.2,4.5,3.7,6.1h0.6l3.7-3v1.8c0,3-1.6,5.7-4.9,8h-0.6c-2.9,0-4.9-3.1-6.1-9.3
		C231,275.8,232.8,269.7,234.4,269.7z M140.4,275.8v1.9c0,3.7-6.6,7.8-19.7,12.3c-7.8,4.3-13.1,6.8-16,7.4h-1.9l-0.6-0.7h-0.7
		c0-2.5,7.2-6.8,21.6-12.9C132.9,278.5,138.6,275.8,140.4,275.8z"/>
</g>
</svg>
