<?xml version="1.0" encoding="utf-8"?>
<!-- Generator: Adobe Illustrator 25.2.3, SVG Export Plug-In . SVG Version: 6.00 Build 0)  -->
<svg version="1.1" xmlns="http://www.w3.org/2000/svg" xmlns:xlink="http://www.w3.org/1999/xlink" x="0px" y="0px"
	 viewBox="0 0 700 395" style="enable-background:new 0 0 700 395;" xml:space="preserve">
<style type="text/css">
	.st0{fill:#000222;}
	.st1{fill:#FFFFFF;}
</style>
<g id="Layer_1">
	<rect class="st0" width="700" height="395"/>
</g>
<g id="Layer_3">
	<g>
		<path class="st1" d="M273.5,368.6l1.1,4.2c0.2,0.9,0.5,1.8,0.6,2.6h0.1c0.2-0.8,0.5-1.7,0.7-2.6l1.3-4.2h1.3l1.3,4.1
			c0.3,1,0.5,1.9,0.7,2.7h0.1c0.1-0.8,0.4-1.7,0.6-2.7l1.2-4.1h1.5l-2.7,8.2H280l-1.3-3.9c-0.3-0.9-0.5-1.7-0.7-2.7h0
			c-0.2,1-0.5,1.8-0.7,2.7l-1.3,3.9h-1.4l-2.5-8.2H273.5z"/>
		<path class="st1" d="M286.3,368.6l1.1,4.2c0.2,0.9,0.5,1.8,0.6,2.6h0.1c0.2-0.8,0.5-1.7,0.7-2.6l1.3-4.2h1.3l1.3,4.1
			c0.3,1,0.5,1.9,0.7,2.7h0.1c0.1-0.8,0.4-1.7,0.6-2.7l1.2-4.1h1.5l-2.7,8.2h-1.4l-1.3-3.9c-0.3-0.9-0.5-1.7-0.7-2.7h0
			c-0.2,1-0.5,1.8-0.7,2.7l-1.3,3.9h-1.4l-2.5-8.2H286.3z"/>
		<path class="st1" d="M299,368.6l1.1,4.2c0.2,0.9,0.5,1.8,0.6,2.6h0.1c0.2-0.8,0.5-1.7,0.7-2.6l1.3-4.2h1.3l1.3,4.1
			c0.3,1,0.5,1.9,0.7,2.7h0.1c0.1-0.8,0.4-1.7,0.6-2.7l1.2-4.1h1.5l-2.7,8.2h-1.4l-1.3-3.9c-0.3-0.9-0.5-1.7-0.7-2.7h0
			c-0.2,1-0.5,1.8-0.7,2.7l-1.3,3.9h-1.4l-2.5-8.2H299z"/>
		<path class="st1" d="M309.9,375.9c0-0.6,0.4-1.1,1-1.1c0.6,0,1,0.4,1,1.1c0,0.6-0.4,1.1-1,1.1C310.3,377,309.9,376.5,309.9,375.9z
			"/>
		<path class="st1" d="M313.5,375.3c0.4,0.3,1.2,0.6,2,0.6c1.1,0,1.6-0.5,1.6-1.2c0-0.7-0.4-1.1-1.5-1.5c-1.5-0.5-2.2-1.3-2.2-2.3
			c0-1.3,1.1-2.4,2.8-2.4c0.8,0,1.6,0.2,2,0.5l-0.4,1.1c-0.3-0.2-0.9-0.5-1.7-0.5c-0.9,0-1.4,0.5-1.4,1.1c0,0.7,0.5,1,1.6,1.4
			c1.4,0.5,2.2,1.3,2.2,2.5c0,1.4-1.1,2.5-3.1,2.5c-0.9,0-1.7-0.2-2.3-0.6L313.5,375.3z"/>
		<path class="st1" d="M327.4,374.6c0,0.9,0,1.6,0.1,2.2h-1.3l-0.1-1.3h0c-0.4,0.7-1.3,1.5-2.7,1.5c-1.3,0-2.8-0.7-2.8-3.6v-4.8h1.5
			v4.6c0,1.6,0.5,2.6,1.8,2.6c1,0,1.7-0.7,2-1.4c0.1-0.2,0.1-0.5,0.1-0.8v-5h1.5V374.6z"/>
		<path class="st1" d="M329.8,371.1c0-1,0-1.8-0.1-2.6h1.3l0.1,1.6h0.1c0.4-1.1,1.3-1.8,2.3-1.8c0.2,0,0.3,0,0.4,0.1v1.4
			c-0.2,0-0.3-0.1-0.5-0.1c-1.1,0-1.8,0.8-2,1.9c0,0.2-0.1,0.4-0.1,0.7v4.4h-1.5V371.1z"/>
		<path class="st1" d="M339.9,376.8l-0.1-1h-0.1c-0.5,0.6-1.3,1.2-2.5,1.2c-1.7,0-2.5-1.2-2.5-2.4c0-2,1.8-3.1,4.9-3.1v-0.2
			c0-0.7-0.2-1.9-1.9-1.9c-0.8,0-1.6,0.2-2.1,0.6l-0.3-1c0.7-0.4,1.7-0.7,2.7-0.7c2.5,0,3.1,1.7,3.1,3.4v3.1c0,0.7,0,1.4,0.1,2
			H339.9z M339.7,372.6c-1.6,0-3.5,0.3-3.5,1.9c0,1,0.6,1.4,1.4,1.4c1.1,0,1.8-0.7,2-1.4c0.1-0.2,0.1-0.3,0.1-0.5V372.6z"/>
		<path class="st1" d="M343.5,364.7h1.5v5.1h0c0.2-0.4,0.6-0.8,1.1-1.1c0.4-0.3,1-0.4,1.5-0.4c1.1,0,2.9,0.7,2.9,3.5v4.9H349v-4.7
			c0-1.3-0.5-2.4-1.9-2.4c-1,0-1.7,0.7-2,1.5c-0.1,0.2-0.1,0.4-0.1,0.7v5h-1.5V364.7z"/>
		<path class="st1" d="M358.6,375.5L358.6,375.5c-0.5,0.8-1.4,1.5-2.7,1.5c-1.9,0-3.5-1.7-3.5-4.2c0-3.1,2-4.4,3.7-4.4
			c1.3,0,2.1,0.6,2.5,1.4h0l0.1-1.2h1.4c0,0.7-0.1,1.4-0.1,2.3v9.3h-1.5V375.5z M358.6,371.9c0-0.2,0-0.4-0.1-0.6
			c-0.2-0.9-1-1.7-2.1-1.7c-1.5,0-2.5,1.3-2.5,3.2c0,1.6,0.8,3.1,2.4,3.1c1,0,1.8-0.6,2.1-1.6c0.1-0.2,0.1-0.5,0.1-0.7V371.9z"/>
		<path class="st1" d="M369.4,374.6c0,0.9,0,1.6,0.1,2.2h-1.3l-0.1-1.3h0c-0.4,0.7-1.3,1.5-2.7,1.5c-1.3,0-2.8-0.7-2.8-3.6v-4.8h1.5
			v4.6c0,1.6,0.5,2.6,1.8,2.6c1,0,1.7-0.7,2-1.4c0.1-0.2,0.1-0.5,0.1-0.8v-5h1.5V374.6z"/>
		<path class="st1" d="M371.9,371.1c0-1,0-1.8-0.1-2.6h1.3l0.1,1.6h0.1c0.4-1.1,1.3-1.8,2.3-1.8c0.2,0,0.3,0,0.4,0.1v1.4
			c-0.2,0-0.3-0.1-0.5-0.1c-1.1,0-1.8,0.8-2,1.9c0,0.2-0.1,0.4-0.1,0.7v4.4h-1.5V371.1z"/>
		<path class="st1" d="M381.9,376.8l-0.1-1h-0.1c-0.5,0.6-1.3,1.2-2.5,1.2c-1.7,0-2.5-1.2-2.5-2.4c0-2,1.8-3.1,4.9-3.1v-0.2
			c0-0.7-0.2-1.9-1.9-1.9c-0.8,0-1.6,0.2-2.1,0.6l-0.3-1c0.7-0.4,1.7-0.7,2.7-0.7c2.5,0,3.1,1.7,3.1,3.4v3.1c0,0.7,0,1.4,0.1,2
			H381.9z M381.7,372.6c-1.6,0-3.5,0.3-3.5,1.9c0,1,0.6,1.4,1.4,1.4c1.1,0,1.8-0.7,2-1.4c0.1-0.2,0.1-0.3,0.1-0.5V372.6z"/>
		<path class="st1" d="M385.6,370.8c0-0.9,0-1.5-0.1-2.2h1.3l0.1,1.4h0c0.4-0.8,1.4-1.5,2.7-1.5c1.1,0,2.9,0.7,2.9,3.5v4.9h-1.5
			v-4.7c0-1.3-0.5-2.4-1.9-2.4c-1,0-1.8,0.7-2,1.5c-0.1,0.2-0.1,0.4-0.1,0.7v4.9h-1.5V370.8z"/>
		<path class="st1" d="M394.6,375.9c0-0.6,0.4-1.1,1-1.1c0.6,0,1,0.4,1,1.1c0,0.6-0.4,1.1-1,1.1C395,377,394.6,376.5,394.6,375.9z"
			/>
		<path class="st1" d="M404.4,376.5c-0.4,0.2-1.3,0.5-2.4,0.5c-2.5,0-4.1-1.7-4.1-4.2c0-2.5,1.7-4.4,4.4-4.4c0.9,0,1.7,0.2,2.1,0.4
			l-0.3,1.2c-0.4-0.2-0.9-0.4-1.7-0.4c-1.9,0-2.9,1.4-2.9,3.1c0,1.9,1.2,3.1,2.9,3.1c0.8,0,1.4-0.2,1.8-0.4L404.4,376.5z"/>
		<path class="st1" d="M413.5,372.6c0,3-2.1,4.4-4.1,4.4c-2.2,0-3.9-1.6-3.9-4.2c0-2.8,1.8-4.4,4.1-4.4
			C411.9,368.4,413.5,370.1,413.5,372.6z M406.9,372.7c0,1.8,1,3.2,2.5,3.2c1.4,0,2.5-1.3,2.5-3.2c0-1.4-0.7-3.2-2.5-3.2
			S406.9,371.1,406.9,372.7z"/>
		<path class="st1" d="M415.4,370.8c0-0.9,0-1.5-0.1-2.2h1.3l0.1,1.3h0.1c0.5-0.8,1.2-1.5,2.6-1.5c1.1,0,2,0.7,2.3,1.6h0
			c0.3-0.5,0.6-0.8,0.9-1.1c0.5-0.4,1-0.6,1.8-0.6c1.1,0,2.7,0.7,2.7,3.6v4.8h-1.5v-4.7c0-1.6-0.6-2.5-1.8-2.5
			c-0.9,0-1.5,0.6-1.8,1.4c-0.1,0.2-0.1,0.5-0.1,0.7v5.1h-1.5v-4.9c0-1.3-0.6-2.3-1.7-2.3c-0.9,0-1.6,0.7-1.9,1.5
			c-0.1,0.2-0.1,0.5-0.1,0.7v5h-1.5V370.8z"/>
	</g>
</g>
<g id="Layer_4">
	<path class="st1" d="M411.9,117.4c0.9,0.4,4.9,10,12,28.9v1.1l-1.1,1.1c-2.4-2.3-4.1-3.4-5.1-3.4v2.9c6.8,51.6,10.2,85,10.2,100
		c0,7.3-1.3,11.8-3.9,13.6h-0.6l-0.5-2.9v-0.5c-0.8-13.7-4.9-52.7-12.5-117c-0.8-8-1.5-12.1-2.3-12.5
		C408.8,121.2,410.1,117.4,411.9,117.4z M372.8,117.9h0.5c1.2,0,4.9,8.9,11.4,26.7l-1.1,1.7l-3.9-2.8h-1.1v1.1
		c3.8,36.5,8,64.5,12.5,84.1l0.5,0.5h0.6l11.4-1.1c6.7,0,10.5,4,11.4,12v6.2c-1.9,8-4.9,12-9.1,12c-5.6,0-12-5.1-19.3-15.4h-0.6
		c-13.4,5.7-22.7,8.6-27.8,8.6h-5.7l-6.8-0.6l-1.1,1.7v3.4c0,7.3-2.1,11.3-6.3,11.9c-7.9,0-14-6.8-18.2-20.4c0-0.8-0.6-1.1-1.7-1.1
		c-5.3,4.3-11.4,7.1-18.2,8.6c-9.5,0-15.9-4.2-19.3-12.5l-0.6-2.3h-0.5c-8,10.2-16.3,15.3-25,15.3h-2.3c-8.9,0-15-4.3-18.2-13
		l-0.6-3.4v-9.1h-2.3c-1.4,0-12.6,4.2-33.5,12.5c-3.1,1.1-7.9,2-14.2,2.8c-7.6,0-13.4-3.8-17.6-11.4h-1.1
		c-6.6,9.8-15.3,14.8-26.1,14.8s-19.9-6.6-27.3-19.8l-4-1.1h-1.1c-8.9,5.4-15.5,14.2-19.8,26.7c-4.5,11-9.4,16.5-14.6,16.5
		c-5.3,0-10.6-7-16.1-21.1L54.1,239l0.6-0.6v-0.5l-0.6-2.9c1.2-11.4,2.3-17,3.4-17l0.6,0.6v0.5l-0.6,12.5
		c1.4,18.2,6.7,27.3,15.9,27.3c3.9,0,9.2-8.5,15.9-25.5c5.4-8.7,12-14.6,19.9-17.6c3.6,0,7.6,4,11.9,12c5.6,6.4,11.5,9.6,17.6,9.6
		h3.4c10.3,0,18.5-6.1,24.4-18.2l0.6-0.5h2.3c0,9,5.3,14.1,15.9,15.3c7.1,0,18.1-3.2,32.9-9.6v-0.6c-4.7-2.5-12.3-5.4-22.7-8.5
		l-5.1,1.1h-9.6l-0.6,0.5l-0.5-0.5H179l-6.2,0.5l-1.1-1.1c0-7.7,6.8-12,20.4-13l2.8-0.6c28.4,11.5,50.9,17.3,67.6,17.6l0.5,1.7
		c-2.4,6.1-4.8,9.1-7.3,9.1l-17-1.1l-0.6,0.6v2.8c2.7,8,7.2,12,13.6,12h5.7c8,0,16-6.1,23.9-18.2l2.9-0.6v2.3
		c1.1,10.2,5.7,15.4,13.6,15.4h6.8c4.8,0,11.8-5.9,21-17.6l2.3-0.5c0,7.2,8.2,12.1,24.5,14.8h5.1c10.3,0,18.8-2.5,25.6-7.4v-2.8
		c-5.3-30.9-9.5-63.5-12.5-97.7c-0.7,0-1.1-1.9-1.1-5.7C370.4,120.8,371.5,117.9,372.8,117.9z M582.3,117.9c2.1,0,4,2.1,5.7,6.3
		c-0.4,2.6-0.9,3.9-1.7,3.9h-0.6c-2-1.9-3.7-2.8-5.1-2.8c-2.3,0-3.4,1.1-3.4,3.4c0,13.3-1,22.2-2.9,26.7h-1.7
		c0-3.7-3.6-8.8-10.8-15.3c-3.9,0-6.9-2.3-9.1-6.8c0-3.8,1.3-5.7,4-5.7c3.1,0.5,8.2,5.4,15.3,14.8h1.1v-0.6
		C574.1,125.9,577.1,117.9,582.3,117.9z M623.8,119.1c4.1,0,6.2,6.3,6.2,18.8c1.3,0.5,2.4,2.1,3.4,5.1l-0.5,2.3l-6.3-2.3h-0.5
		c-16.7,16-29.6,24.7-38.6,26.1c0,0.9-1.7,1.4-5.1,1.7v-0.6l27.3-17.6c8.7-6.4,13.1-10.5,13.1-12.5c-4.2-3.1-6.3-5.9-6.3-8.6
		C618,123.2,620.5,119.1,623.8,119.1z M459.6,119.7c2.7,0.9,4,3.4,4,7.3l-0.6,8.6c3.8,3.8,5.7,6.6,5.7,8.5l-0.5,1.7H467
		c-1.3,0-3.4-1.1-6.3-3.4h-1.1c-8.5,9.6-17.9,16.4-28.4,20.4h-1.7v-1.1c15.7-10.8,24.5-17.9,26.7-21.6v-0.6
		c-2.6-3.5-3.9-5.9-3.9-7.3V131C452.3,126.2,454.7,122.4,459.6,119.7z M250.1,120.8c2.4,0.7,4.6,3.3,6.8,8c-0.9,2.3-1.7,3.4-2.3,3.4
		H254l-5.1-4h-1.1c-1.3,0-2.6,7.2-4,21.6l-1.7,4.5h-0.6c-0.7,0-1.8-2.1-3.4-6.2c-1-4.6-5.7-9.9-14.2-15.9l-0.6-3.4
		c0.9-2.7,1.7-4,2.3-4h1.7c6.9,5.6,11.5,11.2,13.6,17h1.1C244,127.8,246.6,120.8,250.1,120.8z M534.6,121.4l0.6,0.6v0.5
		c0,3.8-8.3,10-25,18.8l-25.6,15.9h-1.7V156h-0.6c0-3.4,6.3-8.3,18.8-14.8C512.1,134,523.3,127.3,534.6,121.4z M329,123.6l0.6,0.6
		v2.8c0,3-11.4,8.3-34.1,15.9c-0.5,0.8-9,4.7-25.6,12c-25.1,12.2-39.3,19.7-42.6,22.7l-1.7-0.6v-0.5c0-5.3,4.2-9.4,12.5-12.5
		c11.9-7.3,34-17.7,66.5-31.3C304.6,131.8,312.7,128.8,329,123.6z M207.4,124.2l0.6,1.7c0,4.3-6.6,8.7-19.9,13.1
		c-27.8,13.8-49.5,25.1-65.3,34.1c-0.8,1.2-2.9,2.5-6.3,3.9l-0.5-0.5v-0.6c0-5.5,7.4-11.5,22.1-18.2c7.9-5.2,27.8-15.2,59.7-30.1
		C201.2,125.6,204.4,124.4,207.4,124.2z M353.4,124.2v0.5c-1.5,4-2.3,7.3-2.3,9.7v5.7c1.6,2.6,2.7,3.9,3.4,3.9
		c1.5-0.8,2.3-1.9,2.3-3.4h0.5l1.1,1.1c-1.6,5.7-3.1,8.6-4.5,8.6c-3.5,0-5.6-2.9-6.2-8.6v-0.5C347.8,135.2,349.7,129.5,353.4,124.2z
		 M108.6,124.8v0.6c-3.4,10.2-5.1,17.4-5.1,21.6v2.3c0,5.7,1.7,8.5,5.1,8.5l2.3-5.1h1.1l0.6,1.7c-1.5,8-3.7,12-6.8,12
		c-4.5-1.5-6.8-4.9-6.8-10.2v-2.3c0-7.7,2.8-17.4,8.5-29H108.6z M81.4,125.4c3.4,1.6,5.1,4.3,5.1,8c-0.5,1.9-1.1,2.8-1.7,2.8
		c-2.7-2.3-4.7-3.4-6.2-3.4l-1.1,1.7v3.9c0,20.9-3,33-9.1,36.4c-3.9,4.5-9.4,8.5-16.5,12h-1.1v-0.6c15.1-13.2,22.7-21.2,22.7-23.9
		v-1.1c0-3.8-3.4-8.9-10.2-15.3c-5.7-1.5-8.5-4-8.5-7.4v-1.1c0-2.1,0.9-3.4,2.8-3.9c2.5,0.1,8,5.1,16.5,15.3h0.5v-5.7
		C74.5,131.2,76.8,125.4,81.4,125.4z M619.3,129.9l5.1,3.9h1.7V131c0-2.9-0.8-4.6-2.3-5.1h-1.7C620.2,126.7,619.3,128,619.3,129.9z
		 M455.7,128.8v1.1c1,2.3,2.3,3.4,3.9,3.4l0.6-0.6v-3.9l-1.7-1.7h-1.1L455.7,128.8z M199,145.8l0.5,0.5v0.6
		c-3.4,8.2-5.1,14.8-5.1,20c0,5.1,1.3,8.5,3.9,10.1h1.7c0.7,0,1.6-1.7,2.8-5.1h1.1l0.6,1.7c-1.8,8.3-4.5,12.5-8,12.5
		c-4.2-1.3-6.3-6-6.3-14.2v-1.7C190.4,162.8,193.3,154.7,199,145.8z M541.4,156.6h0.6c-0.8,1-1.7,4.4-2.9,10.2v0.6
		c0,4.8,1.7,7.4,5.1,8h0.5l0.6-0.6c0.8,0,1.1-0.9,1.1-2.8l0.5-0.6h0.6l0.5,0.6v0.5c-0.8,6.5-2.7,9.7-5.7,9.7h-1.1
		c-3.4-2.3-5.1-5.9-5.1-10.8C538,161.5,539.7,156.6,541.4,156.6z M626.6,160.6v0.5l-2.3,8v4c0,3,1.3,4.5,4,4.5
		c1.1,0,1.7-0.8,1.7-2.3h1.7v0.5c-1.5,5.7-3.2,8.6-5.1,8.6c-3.4-0.7-5.1-3.8-5.1-9.3S623.2,164.7,626.6,160.6z M467.6,161.7h1.7
		c3.3,2,5.7,4.1,7.3,6.2v3.4l-3.9,5.7H471c-3.8-3.4-6.5-5.1-8-5.1l-4.5,6.8h-1.7c-5.3-2.9-8-5.5-8-8v-1.1c2.1-3.4,3.6-5.3,4.5-5.7
		l8.5,3.9h0.6C465.2,163.8,466.9,161.7,467.6,161.7z M320.5,162.9c9.8,0.8,14.8,2.3,14.8,4.5v0.5c0,4.2-4.4,9.2-13.1,14.8
		c-1.4,0-3.3,0.8-5.7,2.3h-2.3v-1.1c7.6-4.7,11.4-7.9,11.4-9.6H325l-3.4-0.6h-7.4l-9.1,2.9c2.4-8.7,6.8-13.1,13.1-13.1L320.5,162.9z
		 M361.9,167.9c2.3,0.8,3.4,2.9,3.4,6.3l-0.5,9.6c2.6,3.6,3.9,5.9,3.9,6.8c-0.8,2.3-1.5,3.4-2.3,3.4l-4.5-3.4
		c-12.5,12.1-23.1,19.3-31.8,21.6v-1.1c15.9-11.1,24.9-18.9,27.3-23.2c-3.8-3.8-5.7-6.5-5.7-8C353.5,171.9,356.9,167.9,361.9,167.9z
		 M501.6,172.5l12,12.5v1.7h-4.5v1.7c6.3,9.7,9.7,17.3,10.2,22.7c0,10.1-5.3,19.2-15.9,27.3l-1.1,4.5v5.7c0,8,5.5,13.1,16.4,15.4
		c15.7,0,32.6-10.8,50.6-32.4v-2.8l-1.1-1.1h-1.7c-5.3,1.5-9.5,2.3-12.5,2.3h-2.8c-7.6,0-11.4-4.4-11.4-13.1
		c1.5-7.1,4.2-11.8,8-14.2c2-1.5,3.9-2.3,5.7-2.3c4.7,0,10.8,4.3,18.2,13h1.7c7-4,12.8-8,17.6-11.9h1.7c1.2,0.3,1.7,1.8,1.7,4.5v5.1
		c2.2,4.5,6.8,6.8,13.7,6.8s13.2-6.1,18.6-18.2l1.7-1.1h1.1c0,2.2-0.8,4.5-2.3,6.8v1.7c3.1,4.1,6.9,6.2,11.4,6.2h3.4l1.7-1.7v-1.1
		l-2.3-5.7c0-2.4,0.6-5.2,1.7-8.6h2.3c2.6,5.5,3.9,10.2,3.9,14.2c-1.2,9.4-5.3,14.2-12.5,14.2c-4.5,0-9-2.4-13.6-7.3h-0.5
		c-5.6,7.6-11.5,11.4-17.6,11.4c-8.8,0-14.1-4.7-15.9-14.2c-9.8,4.5-14.8,9.3-14.8,14.2c0,12.3-12.9,26.7-38.6,43.2
		c-7.5,2.6-12.8,3.9-15.9,3.9c-12,0-19.2-7.6-21.6-22.7l0.6-10.8h-1.1c-25.7,18.2-44.7,27.3-56.8,27.3c-2.5,1.1-9,2.6-19.3,4.5
		l-0.6-0.6V273l35.2-16.5c18.9-9.9,36.3-21.5,52.3-34.6c3.8-3.3,5.7-5.9,5.7-8l-12.5-24.5l-2.8-9.1v-1.1
		C499.8,174.7,500.7,172.5,501.6,172.5z M356.9,177v0.6c1.5,2.3,3,3.4,4.5,3.4l0.5-0.6v-2.3c0-1.9-0.6-3.1-1.7-3.4h-1.1L356.9,177z
		 M478.4,181h0.5l0.6,1.7c-0.8,4.4-4,11.2-9.7,20.4v0.6c7.6,5.3,11.4,10.4,11.4,15.3c0,11.4-6.4,18.9-19.3,22.7l-2.3,0.6
		c-4.6,0-7.4-3.6-8.5-10.8c1-8,2.9-15,5.7-21v-1.1c-9.8-8.6-14.8-14.1-14.8-16.5V189c0.2-2.3,0.8-3.4,1.7-3.4
		c9.7,3.2,14.6,5.5,14.8,6.8c0,1.1-0.8,1.7-2.3,1.7v1.7c2.5,2.6,4.7,3.9,6.8,3.9h0.6L478.4,181z M282.4,186.1c3.2,1.5,6.5,4.1,9.7,8
		v1.7c-2.4,3.8-4.5,5.7-6.3,5.7l-9.1-5.1c-3,3.4-4.9,5.1-5.7,5.1c-6.1-3.3-9.1-5.8-9.1-7.4c2-4.9,4.2-7.3,6.8-7.3l7.4,4.5l5.7-5.1
		H282.4z M155.8,188.4h1.7c5.3,3.3,8,6,8,8c-0.3,2.6-1.6,5-3.9,7.4h-1.7c-4.6-3.3-7.4-5.9-8.5-8
		C152.9,191.6,154.4,189.1,155.8,188.4z M106.3,189h1.1c6.5,3.9,9.7,7.1,9.7,9.6c-1.9,4.5-3.6,6.8-5.1,6.8l-9.1-6.2h-1.1l-5.7,5.7
		c-2.2,0-5.4-2.3-9.6-6.8c1-5.7,2.5-8.6,4.5-8.6l8.5,5.1C101.3,194.7,103.6,192.8,106.3,189z M547.1,216.8l5.1,1.7h3.4
		c2.8,0,4.3-0.6,4.5-1.7v-0.5c-2.4-2.7-4.6-4-6.8-4C549.2,212.2,547.1,213.7,547.1,216.8z M455.7,225.9c0,3.2,2.1,4.9,6.2,5.1
		c2.9,0,7.5-2.9,13.6-8.6v-1.1c-1.1-2.2-4.5-4.6-10.2-7.3h-2.8C459.6,215.7,457.3,219.7,455.7,225.9z M634.6,238.4h0.6
		c0.8,0,1.1,0.6,1.1,1.7c-2.3,7.9-4.8,11.9-7.4,11.9c-1.5-0.8-3.5-1.1-6.2-1.1c-3,2.3-5.3,3.4-6.8,3.4L609,252h-1.7
		c-1.6,0-8.9,4.4-22.1,13.1c-3.5,1.9-6.1,2.8-8,2.8h-0.6v-2.3c5.7-2.8,15.2-8.8,28.4-18.2l5.7-1.7l6.3,2.3h2.3
		c1.1-0.4,3.3-2.4,6.8-6.3h0.5c0,2.1,1.5,3.5,4.5,4C632.3,244.5,633.4,242,634.6,238.4z M397.7,240.6c2.3,4.2,5.7,6.3,10.2,6.3
		l1.7-2.3V244c-1.4-3-4.6-4.5-9.6-4.5C398.5,239.6,397.7,240,397.7,240.6z M326.2,241.2v0.5c0,4.7,3,9.1,9.1,13.1h1.7
		c0-3.1-2.1-6.9-6.2-11.4C329.1,242,327.6,241.2,326.2,241.2z M208.6,250.3v1.1l-1.7,8.5v3.4c0,3,0.9,4.9,2.8,5.7h0.6l2.8-2.8
		l0.6,0.5v0.6c0,2.8-1.9,5.6-5.7,8.5h-1.1c-2.7-1.4-4-4.7-4-10.1C202.9,260.3,204.8,255.2,208.6,250.3z M133.6,254.9l0.6,1.7
		c0,3-3.8,5.6-11.4,8c-6.2,4-14.7,8-25.6,12h-1.1v-2.3c0-1.5,5.9-4.9,17.6-10.2C125.4,257.9,132,254.9,133.6,254.9z M380.7,255.4
		c1.8,0,2.9,1.7,3.4,5.1c0,5-3.8,10.1-11.4,15.3l-0.6-0.5c4.9-6,7.4-9.8,7.4-11.4v-0.6l-1.1-1.1h-1.1l-2.9,1.7v-0.6
		C374.4,259.1,376.5,256.5,380.7,255.4z M275.6,256c2.4,0,3.7,1.7,4,5.1c0,6.6-3.8,12.1-11.4,16.5v-1.1c5.3-5.8,8-9.8,8-12l-1.7-1.1
		h-1.1c-0.9,0-1.4,1-1.7,2.9h-1.1l-0.6-1.7C271.6,259.6,273.5,256.8,275.6,256z"/>
</g>
</svg>
