<?xml version="1.0" encoding="utf-8"?>
<!-- Generator: Adobe Illustrator 25.2.3, SVG Export Plug-In . SVG Version: 6.00 Build 0)  -->
<svg version="1.1" xmlns="http://www.w3.org/2000/svg" xmlns:xlink="http://www.w3.org/1999/xlink" x="0px" y="0px"
	 viewBox="0 0 700 395" style="enable-background:new 0 0 700 395;" xml:space="preserve">
<style type="text/css">
	.st0{fill:#000222;}
	.st1{fill:#FFFFFF;}
</style>
<g id="Layer_1">
	<rect class="st0" width="700" height="395"/>
</g>
<g id="Layer_3">
	<g>
		<path class="st1" d="M273.5,368.6l1.1,4.2c0.2,0.9,0.5,1.8,0.6,2.6h0.1c0.2-0.8,0.5-1.7,0.7-2.6l1.3-4.2h1.3l1.3,4.1
			c0.3,1,0.5,1.9,0.7,2.7h0.1c0.1-0.8,0.4-1.7,0.6-2.7l1.2-4.1h1.5l-2.7,8.2H280l-1.3-3.9c-0.3-0.9-0.5-1.7-0.7-2.7h0
			c-0.2,1-0.5,1.8-0.7,2.7l-1.3,3.9h-1.4l-2.5-8.2H273.5z"/>
		<path class="st1" d="M286.3,368.6l1.1,4.2c0.2,0.9,0.5,1.8,0.6,2.6h0.1c0.2-0.8,0.5-1.7,0.7-2.6l1.3-4.2h1.3l1.3,4.1
			c0.3,1,0.5,1.9,0.7,2.7h0.1c0.1-0.8,0.4-1.7,0.6-2.7l1.2-4.1h1.5l-2.7,8.2h-1.4l-1.3-3.9c-0.3-0.9-0.5-1.7-0.7-2.7h0
			c-0.2,1-0.5,1.8-0.7,2.7l-1.3,3.9h-1.4l-2.5-8.2H286.3z"/>
		<path class="st1" d="M299,368.6l1.1,4.2c0.2,0.9,0.5,1.8,0.6,2.6h0.1c0.2-0.8,0.5-1.7,0.7-2.6l1.3-4.2h1.3l1.3,4.1
			c0.3,1,0.5,1.9,0.7,2.7h0.1c0.1-0.8,0.4-1.7,0.6-2.7l1.2-4.1h1.5l-2.7,8.2h-1.4l-1.3-3.9c-0.3-0.9-0.5-1.7-0.7-2.7h0
			c-0.2,1-0.5,1.8-0.7,2.7l-1.3,3.9h-1.4l-2.5-8.2H299z"/>
		<path class="st1" d="M309.9,375.9c0-0.6,0.4-1.1,1-1.1c0.6,0,1,0.4,1,1.1c0,0.6-0.4,1.1-1,1.1C310.3,377,309.9,376.5,309.9,375.9z
			"/>
		<path class="st1" d="M313.5,375.3c0.4,0.3,1.2,0.6,2,0.6c1.1,0,1.6-0.5,1.6-1.2c0-0.7-0.4-1.1-1.5-1.5c-1.5-0.5-2.2-1.3-2.2-2.3
			c0-1.3,1.1-2.4,2.8-2.4c0.8,0,1.6,0.2,2,0.5l-0.4,1.1c-0.3-0.2-0.9-0.5-1.7-0.5c-0.9,0-1.4,0.5-1.4,1.1c0,0.7,0.5,1,1.6,1.4
			c1.4,0.5,2.2,1.3,2.2,2.5c0,1.4-1.1,2.5-3.1,2.5c-0.9,0-1.7-0.2-2.3-0.6L313.5,375.3z"/>
		<path class="st1" d="M327.4,374.6c0,0.9,0,1.6,0.1,2.2h-1.3l-0.1-1.3h0c-0.4,0.7-1.3,1.5-2.7,1.5c-1.3,0-2.8-0.7-2.8-3.6v-4.8h1.5
			v4.6c0,1.6,0.5,2.6,1.8,2.6c1,0,1.7-0.7,2-1.4c0.1-0.2,0.1-0.5,0.1-0.8v-5h1.5V374.6z"/>
		<path class="st1" d="M329.8,371.1c0-1,0-1.8-0.1-2.6h1.3l0.1,1.6h0.1c0.4-1.1,1.3-1.8,2.3-1.8c0.2,0,0.3,0,0.4,0.1v1.4
			c-0.2,0-0.3-0.1-0.5-0.1c-1.1,0-1.8,0.8-2,1.9c0,0.2-0.1,0.4-0.1,0.7v4.4h-1.5V371.1z"/>
		<path class="st1" d="M339.9,376.8l-0.1-1h-0.1c-0.5,0.6-1.3,1.2-2.5,1.2c-1.7,0-2.5-1.2-2.5-2.4c0-2,1.8-3.1,4.9-3.1v-0.2
			c0-0.7-0.2-1.9-1.9-1.9c-0.8,0-1.6,0.2-2.1,0.6l-0.3-1c0.7-0.4,1.7-0.7,2.7-0.7c2.5,0,3.1,1.7,3.1,3.4v3.1c0,0.7,0,1.4,0.1,2
			H339.9z M339.7,372.6c-1.6,0-3.5,0.3-3.5,1.9c0,1,0.6,1.4,1.4,1.4c1.1,0,1.8-0.7,2-1.4c0.1-0.2,0.1-0.3,0.1-0.5V372.6z"/>
		<path class="st1" d="M343.5,364.7h1.5v5.1h0c0.2-0.4,0.6-0.8,1.1-1.1c0.4-0.3,1-0.4,1.5-0.4c1.1,0,2.9,0.7,2.9,3.5v4.9H349v-4.7
			c0-1.3-0.5-2.4-1.9-2.4c-1,0-1.7,0.7-2,1.5c-0.1,0.2-0.1,0.4-0.1,0.7v5h-1.5V364.7z"/>
		<path class="st1" d="M358.6,375.5L358.6,375.5c-0.5,0.8-1.4,1.5-2.7,1.5c-1.9,0-3.5-1.7-3.5-4.2c0-3.1,2-4.4,3.7-4.4
			c1.3,0,2.1,0.6,2.5,1.4h0l0.1-1.2h1.4c0,0.7-0.1,1.4-0.1,2.3v9.3h-1.5V375.5z M358.6,371.9c0-0.2,0-0.4-0.1-0.6
			c-0.2-0.9-1-1.7-2.1-1.7c-1.5,0-2.5,1.3-2.5,3.2c0,1.6,0.8,3.1,2.4,3.1c1,0,1.8-0.6,2.1-1.6c0.1-0.2,0.1-0.5,0.1-0.7V371.9z"/>
		<path class="st1" d="M369.4,374.6c0,0.9,0,1.6,0.1,2.2h-1.3l-0.1-1.3h0c-0.4,0.7-1.3,1.5-2.7,1.5c-1.3,0-2.8-0.7-2.8-3.6v-4.8h1.5
			v4.6c0,1.6,0.5,2.6,1.8,2.6c1,0,1.7-0.7,2-1.4c0.1-0.2,0.1-0.5,0.1-0.8v-5h1.5V374.6z"/>
		<path class="st1" d="M371.9,371.1c0-1,0-1.8-0.1-2.6h1.3l0.1,1.6h0.1c0.4-1.1,1.3-1.8,2.3-1.8c0.2,0,0.3,0,0.4,0.1v1.4
			c-0.2,0-0.3-0.1-0.5-0.1c-1.1,0-1.8,0.8-2,1.9c0,0.2-0.1,0.4-0.1,0.7v4.4h-1.5V371.1z"/>
		<path class="st1" d="M381.9,376.8l-0.1-1h-0.1c-0.5,0.6-1.3,1.2-2.5,1.2c-1.7,0-2.5-1.2-2.5-2.4c0-2,1.8-3.1,4.9-3.1v-0.2
			c0-0.7-0.2-1.9-1.9-1.9c-0.8,0-1.6,0.2-2.1,0.6l-0.3-1c0.7-0.4,1.7-0.7,2.7-0.7c2.5,0,3.1,1.7,3.1,3.4v3.1c0,0.7,0,1.4,0.1,2
			H381.9z M381.7,372.6c-1.6,0-3.5,0.3-3.5,1.9c0,1,0.6,1.4,1.4,1.4c1.1,0,1.8-0.7,2-1.4c0.1-0.2,0.1-0.3,0.1-0.5V372.6z"/>
		<path class="st1" d="M385.6,370.8c0-0.9,0-1.5-0.1-2.2h1.3l0.1,1.4h0c0.4-0.8,1.4-1.5,2.7-1.5c1.1,0,2.9,0.7,2.9,3.5v4.9h-1.5
			v-4.7c0-1.3-0.5-2.4-1.9-2.4c-1,0-1.8,0.7-2,1.5c-0.1,0.2-0.1,0.4-0.1,0.7v4.9h-1.5V370.8z"/>
		<path class="st1" d="M394.6,375.9c0-0.6,0.4-1.1,1-1.1c0.6,0,1,0.4,1,1.1c0,0.6-0.4,1.1-1,1.1C395,377,394.6,376.5,394.6,375.9z"
			/>
		<path class="st1" d="M404.4,376.5c-0.4,0.2-1.3,0.5-2.4,0.5c-2.5,0-4.1-1.7-4.1-4.2c0-2.5,1.7-4.4,4.4-4.4c0.9,0,1.7,0.2,2.1,0.4
			l-0.3,1.2c-0.4-0.2-0.9-0.4-1.7-0.4c-1.9,0-2.9,1.4-2.9,3.1c0,1.9,1.2,3.1,2.9,3.1c0.8,0,1.4-0.2,1.8-0.4L404.4,376.5z"/>
		<path class="st1" d="M413.5,372.6c0,3-2.1,4.4-4.1,4.4c-2.2,0-3.9-1.6-3.9-4.2c0-2.8,1.8-4.4,4.1-4.4
			C411.9,368.4,413.5,370.1,413.5,372.6z M406.9,372.7c0,1.8,1,3.2,2.5,3.2c1.4,0,2.5-1.3,2.5-3.2c0-1.4-0.7-3.2-2.5-3.2
			S406.9,371.1,406.9,372.7z"/>
		<path class="st1" d="M415.4,370.8c0-0.9,0-1.5-0.1-2.2h1.3l0.1,1.3h0.1c0.5-0.8,1.2-1.5,2.6-1.5c1.1,0,2,0.7,2.3,1.6h0
			c0.3-0.5,0.6-0.8,0.9-1.1c0.5-0.4,1-0.6,1.8-0.6c1.1,0,2.7,0.7,2.7,3.6v4.8h-1.5v-4.7c0-1.6-0.6-2.5-1.8-2.5
			c-0.9,0-1.5,0.6-1.8,1.4c-0.1,0.2-0.1,0.5-0.1,0.7v5.1h-1.5v-4.9c0-1.3-0.6-2.3-1.7-2.3c-0.9,0-1.6,0.7-1.9,1.5
			c-0.1,0.2-0.1,0.5-0.1,0.7v5h-1.5V370.8z"/>
	</g>
</g>
<g id="Layer_4">
	<path class="st1" d="M330.5,118.7c7.3,14.6,10.9,23.6,10.9,26.9v0.6l-1.1,1.1l-2.9-2.3h-1.1c0,5.8,2.3,24,6.9,54.4l-0.5,2.3v0.6
		l0.5,0.5l-2.8,12.6c11.5,3.8,20.4,5.7,26.9,5.7l0.6-1.7l-9.2-91.2c1.9-5.4,3.4-8,4.6-8c7.2,15.2,10.9,24.7,10.9,28.7l-0.5,0.6h-0.6
		l-4-4.1l-0.6,0.6h-0.5c4.7,49.8,7.5,75.5,8.6,76.8c11.9,0,17.8,1.3,17.8,4c-2.1,5-4.4,7.5-6.9,7.5l-7.5-0.6c-3.4,0-5.1,1.9-5.1,5.7
		l-2.9,10.3h-1.1c-1.1-0.4-1.7-1.5-1.7-3.4v-10.3l-1.1-1.1h-4.1l-32.1,12.6c-7,2.3-13.5,3.4-19.5,3.4h-1.7l-9.8-0.5
		c-1.9,8.8-4.4,13.1-7.4,13.1c-8.1-3.6-12.1-10.7-12.1-21.2l-1.1-1.1c-6.7,6.9-13.7,10.3-21.2,10.3h-4.6
		c-6.6-1.5-14.1-6.3-22.4-14.4h-0.5c-18.7,11.1-33.1,16.7-43,16.7c-14.8,0-25.2-7.5-31-22.4c-1.7-3.1-3.6-4.6-5.7-4.6
		c-4.6,0-10,6.9-16.1,20.6c-3.4,15.3-8.2,22.9-14.3,22.9c-9.4-1.7-15.9-12.4-19.5-32.1l0.5-0.5v-0.6l-0.5-4l1.7-8h1.8v5.1
		c0,9.9,3.6,18.9,10.9,27c1.4,1.1,2.7,1.7,4.1,1.7h3.4c2.5,0,6.9-9.6,13.1-28.7c6.8-10.3,12.2-15.4,16.1-15.4h2.3
		c2,0.1,5.9,6,11.5,17.7c6,6.5,13.6,9.8,22.8,9.8s20.6-4,34-12.1l0.5-1.7c-6.4-5-11-7.5-13.8-7.5h-1.1l-10.3,2.3h-0.5v-1.1h-0.6
		c2.7-9.2,6.5-13.8,11.5-13.8c6.9-2.7,14.3-4,22.4-4c19.9,1.6,29.8,4.8,29.8,9.7c-1.2,6.5-3.7,9.8-7.5,9.8
		c-5.2,2.4-9.1,4.7-11.5,6.9v1.1c4.2,5.4,10.2,8,17.8,8c9.2,0,17.6-5.6,25.2-16.7l1.7-1.1h0.6c4,8.6,7.8,13.4,11.5,14.4
		c3,2,6.4,3.1,10.3,3.4h4c9.7,0,21-2.9,33.9-8.6v-1.7c-16-4.2-28.6-6.3-37.8-6.3l-6.3,0.6l-1.1-2.3c1.2-6.5,5.4-9.8,12.6-9.8
		c14.5-0.7,21.8-2,21.8-4v-0.6l-8-67c0-4.5-0.6-8.3-1.7-11.5C328,122.1,329.3,118.7,330.5,118.7z M411.9,118.7h2.3
		c1.9,0.9,2.9,2.8,2.9,5.7v3.4L416,133c3.8,3.9,5.7,6.6,5.7,8v0.6l-0.6,2.8h-1.7c-3-2.7-5.2-4-6.9-4c-9.3,10.1-17.9,16.3-25.8,18.3
		v0.5l-1.7-0.5v-1.1c12.2-8.4,20.3-14.9,24.1-19.5v-0.6l-4.1-7.4C407.3,122.5,409.6,118.7,411.9,118.7z M538.1,119.8
		c3.1,1.5,4.6,3.6,4.6,6.3v1.8l-1.7,1.7h-0.6c-2-1.9-3.7-2.8-5.1-2.8h-0.6c-1.3,0-2.3,2.1-2.8,6.3v5.2c-0.7,11.8-1.8,17.7-3.4,17.7
		h-1.1c-4.8-11.1-9.6-16.6-14.4-16.6c-3.4-2-5.1-4.2-5.1-6.3c0.9-2.7,1.6-4,2.3-4h2.3c3.2,1.1,8.3,6,15.4,14.9l0.6-0.6v-0.5
		C528.4,128.2,531.6,120.6,538.1,119.8z M578.2,121.5h0.6c3.8,0,5.7,4.2,5.7,12.6v4.1c2.7,2.9,4,5.1,4,6.9c-0.6,1.5-1.1,2.3-1.7,2.3
		l-5.7-2.3C560.7,163,545.8,172,536.4,172v-0.5l22.3-13.8c8.8-5.5,14.9-10.3,18.3-14.4v-1.1c-3.8-3.7-5.7-6.5-5.7-8.6
		C571.3,128.7,573.6,124.7,578.2,121.5z M307.6,122.1h0.6l-1.8,12c0.9,3.8,1.8,5.7,2.9,5.7h1.1c0.8,0,1.1-0.6,1.1-1.7h1.7
		c0,3.5-1.3,6.6-4,9.2c-3,0-5.1-3.3-6.3-9.8C304.5,128.6,306,123.4,307.6,122.1z M488.8,122.1l0.6,0.5v1.1c0,2.7-3.6,5.6-10.9,8.6
		l-32.6,19.5l-7.5,4h-1.7l-0.6-2.3c0.9-3.1,9.9-9,27-17.7C476.4,127.7,485,123.1,488.8,122.1z M210.7,124.4h0.5
		c2.8,0,4.9,2.1,6.3,6.3c-0.5,1.9-1.1,2.9-1.8,2.9c-1.2,0-2.9-0.8-5.1-2.3h-0.6c-1,0-2,5.9-2.8,17.7l-1.8,1.8
		c-5.2-8.8-9.8-13.2-13.8-13.2c-2.3-1.5-3.4-3.2-3.4-5.1v-1.1c0.3-2.3,0.8-3.4,1.8-3.4c4,0,8.9,3.8,14.9,11.5h0.5
		C206.8,129.4,208.6,124.4,210.7,124.4z M287.5,124.4h0.5l1.8,1.1c0,3.9-3.6,6.8-10.9,8.6c-41.8,17.2-75.6,32.7-101.5,46.5h-0.6
		l-0.5-0.6v-0.5c0-3.9,3.6-7.5,10.9-10.9c12.4-7.1,28.3-14.5,47.6-22.3C260.8,134.4,278.4,127.2,287.5,124.4z M410.8,124.9l-1.7,2.3
		v0.6c1,2.3,2.3,3.4,4,3.4l0.6-0.6v-2.3C413.7,126.1,412.7,124.9,410.8,124.9z M131.6,126.1c2.8,0,5,2.7,6.9,8l-1.8,2.3h-1.1l-4-2.8
		h-2.3c-1.3,19.3-4,30-8,32.1c-6.3,7.6-14.2,12.6-23.5,14.9l-0.5,0.5h-0.6v-0.5c1.7-2,8.6-7.2,20.6-15.5c3.8-4,5.7-6.8,5.7-8.6v-0.6
		c-4-9.9-9.2-14.9-15.4-14.9l-2.9-4l1.8-5.7h2.8c2.9,1.2,7.9,6,14.9,14.3h1.1C125.2,135.2,127.3,128.7,131.6,126.1z M161.9,126.1
		h0.6l1.1,1.1l-4.1,16.7v7.4c0.5,6.1,1.9,9.2,4.1,9.2h1.1c0.6,0,1.5-1.5,2.8-4.6h1.8l0.5,1.8c-1.6,8-4.3,12-8.1,12
		s-6.1-5.1-6.8-15.4C155.1,147.1,157.3,137.8,161.9,126.1z M574.8,130.1c0.7,3.4,2.6,5.1,5.7,5.1h0.6v-1.7c0-3-1-4.9-2.9-5.7h-1.1
		L574.8,130.1z M281.8,145.6c2.3,0,4,2.9,5.1,8.6l-0.5,0.5v4.1c0,1.7,1.5,3.8,4.6,6.3l1.1,2.9c-0.5,1.9-1.1,2.8-1.8,2.8h-0.5
		l-4.1-2.8h-1.1c-13,13.7-24.6,22.7-34.9,26.9h-1.1v-1.1c18.5-14.7,28.8-23.7,31-26.9v-1.8c-4.2-3.7-6.3-6.5-6.3-8.6
		C275,149.2,277.9,145.6,281.8,145.6z M278.4,154.2v0.5l3.4,2.9h1.7v-0.6c0-2.1-0.9-3.6-2.8-4.6H280L278.4,154.2z M309.3,166.8
		c1.8-7.3,4.2-10.9,7.3-10.9c3.1,0,5,2.7,5.8,8v2.9l-0.5,3.4l3.4,6.3c-0.4,1.9-1.2,2.9-2.3,2.9l-3.4-1.8c-0.7,0-3.6,3.1-8.6,9.2
		c-14.4,10.7-23,16.1-25.8,16.1l-0.6-0.5v-0.6c16.4-13.2,26.4-21.6,29.8-25.2l0.6-1.7c-3.8-2.9-5.7-5.4-5.7-7.5V166.8z M495.1,157.7
		v0.5l-1.8,9.2v1.1c0,3.6,1.4,6.1,4.1,7.5h0.5l3.4-4.1l1.1,1.1c-1.9,6.5-3.8,9.8-5.7,9.8c-3,0-5.3-3.3-6.9-9.8
		C489.9,167.1,491.6,162,495.1,157.7z M420.6,160c2.8,0,6,2.7,9.7,8c0,2-1.7,4.7-5.1,8l-8-5.7H416l-4.1,6.9h-2.3
		c-3.8-2.5-6.5-4.8-8-6.9v-0.6c0-3.2,1.5-5.9,4.6-8h0.6c3.7,2.7,6.4,4.1,8,4.1L420.6,160z M581.1,162.3l0.5,0.5
		c-1.9,3.8-2.8,6.7-2.8,8.6v2.3c0.6,4.2,1.3,6.3,2.3,6.3c1.4,0,2.9-0.9,4.6-2.8l0.5,0.5v0.6c-1.4,5.4-3,8-4.6,8H580
		c-3.1-2-4.6-5-4.6-8.9C575.4,173.4,577.3,168.4,581.1,162.3z M313.9,165.1c1,1.9,2.5,2.9,4.6,2.9h0.5v-0.6c0-2-0.8-3.4-2.3-4h-1.1
		L313.9,165.1z M225,163.9h0.6v1.8c-1.5,6.9-2.3,12-2.3,15.4c0.8,2.9,2.1,4.8,4,5.7h0.6l3.4-3.4l0.5,1.8c-1.2,5.7-2.3,8.6-3.4,8.6
		h-2.8c-3.5-2.6-5.2-5.8-5.2-9.7C220.9,172.9,222.5,166.2,225,163.9z M455,172.6h0.5l11.5,12v1.8h-4v1.1c5.7,11.3,8.6,18.2,8.6,20.6
		l0.6,2.3c0,11.3-5.2,20.2-15.5,26.9c-1.5,3.8-2.3,7-2.3,9.8c0,10.3,6.1,16.2,18.3,17.7c14.2,0,30.6-10.3,49.3-31l0.6-2.3v-1.1
		l-1.1-1.1h-2.3l-13.2,2.3c-8.8,0-13.1-4.2-13.1-12.6c1.7-11.8,6.3-17.7,13.8-17.7h0.5c5.1,0,11,4.4,17.8,13.1h0.5
		c2.3,0,8.6-3.8,19-11.5h1.7l0.6,0.6l0.5,1.7h0.6l-0.6,2.9v4c3.1,5.4,8.1,8,14.9,8c4.8,0,10-4,15.5-12c0-1.5,1.5-3.8,4.6-6.9h1.1
		v1.1l-1.8,5.7v2.3c2.6,3.8,7.2,5.7,13.8,5.7h0.6l1.7-1.8c0-1.4-0.9-3.8-2.8-7.4c1.4-5.4,2.5-8,3.4-8c3.4,3.7,5.1,7.9,5.1,12.6
		c0,9.4-3.6,15-10.9,16.6c-5.8,0-10.9-2.7-15.5-8h-0.5c-4.6,6.6-10.3,10.4-17.2,11.5c-8.2,0-13.7-4.2-16.7-12.6
		c0-1.9-0.4-2.8-1.1-2.8c-9.2,5.4-13.8,9.9-13.8,13.8c0,12.6-13.2,27-39.5,43l-15.5,3.4c-9.9-1.9-14.9-4-14.9-6.3
		c-4.9-4.3-7.4-10.3-7.4-17.8l0.5-9.2h-1.7c-23.5,15.3-41.1,23.3-52.8,24.1c-13.4,3.1-21.4,4.6-24.1,4.6h-0.6v-0.5
		c0-1.5,8.6-5.2,25.8-10.9c34.4-16.8,57.1-31.1,68.2-43l0.6-3.4c0-2-2.9-8.4-8.6-19l-5.7-14.3C453,175.3,453.9,172.6,455,172.6z
		 M431.4,180h1.1c0,5.2-3.4,12.1-10.3,20.6v1.8c7.6,6.1,11.5,10.8,11.5,14.3c0,10.6-4.2,17.7-12.6,21.3c-2.4,1.5-5.8,2.7-10.3,3.4
		c-3.9,0-6.6-3.3-8-9.8l0.6-0.5V227c0-4.7,1.9-10.6,5.7-17.7c0-1.7-2.9-5-8.6-9.8c-4.2-3.8-6.3-7.1-6.3-9.7c0-4.2,0.6-6.3,1.7-6.3
		c9,3,13.9,5.5,14.9,7.5l-2.3,1.1v1.7c2.5,3.1,4.8,4.6,6.9,4.6L431.4,180z M155.7,182.3l7.4,8c0,2.4-1.7,4.9-5.1,7.5h-1.8l-6.3-5.2
		L143,199c-4-2-7.1-4.3-9.2-6.9c0-3.8,1.7-6.7,5.1-8.6l8.6,5.2l6.3-6.3H155.7z M109.8,187.5h1.1v1.1l-2.3,13.1
		c0.6,4.6,1.5,6.9,2.8,6.9h1.8c0.9,0,1.4-0.9,1.7-2.8l1.1,1.1c0,4.1-1.3,6.9-4,8.6c-4.2,0-6.3-3.4-6.3-10.3v-1.1
		C105.7,199.6,107.1,194.1,109.8,187.5z M407.9,223.6v3.4c1.1,1.9,2.4,2.9,4,2.9c5.4,0,10.7-2.9,16.1-8.6c0-2.2-3.8-5.3-11.5-9.2
		H416C412.9,212.1,410.2,215.9,407.9,223.6z M500.2,216.2v0.5c0,1.1,1.9,1.8,5.7,2.3h6.3l1.7-1.7c-2.1-2.7-4.2-4.1-6.3-4.1h-2.9
		C502.7,213.2,501.2,214.2,500.2,216.2z M228.4,216.7v1.1c2.8,3.6,4.7,5.5,5.7,5.7c2.4,0,4.9-1.7,7.5-5.1v-1.1l-8.6-1.1L228.4,216.7
		z M286.9,239.6v1.8c0,3.4,1.9,6.4,5.7,9.2l0.6-0.6v-0.5c0-1.2-1.5-4.5-4.6-9.8H286.9z M588.5,241.4l1.1,1.1v0.5
		c-1.5,8.1-4.2,12.1-8,12.1l-5.1-1.1h-0.6c-2.2,1.7-4.5,2.9-6.9,3.4l-6.9-2.3h-1.7c-2.6,0-9.7,3.8-21.3,11.5
		c-3.5,1.9-6.9,2.8-10.3,2.8v-0.5l31-19.5l2.9-0.6h1.1l6.3,2.3h1.1c2.2,0,4.9-2.1,8-6.3h0.6c0,2.4,1.5,3.7,4.6,4
		c1.1,0,1.9-1.9,2.3-5.7L588.5,241.4z M231.3,245.4l0.5,0.6v0.5l-3.4,10.9v6.3l2.9,3.4h1.1l2.8-2.8h0.6v1.1h0.5
		c-2,5.7-3.7,8.6-5.1,8.6c-3.7,0-6-3.2-6.9-9.7C226.7,251.7,229,245.4,231.3,245.4z M343.1,254.5c3.2,1,6.5,3.5,9.8,7.5v2.3
		c-2.3,4.1-4.3,6.2-5.7,6.3c-2.2-0.9-5.3-3.5-9.2-8C338.1,259.9,339.8,257.2,343.1,254.5z M174,258.6h0.5v2.8
		c-0.7,2.1-11.4,7.1-32.1,14.9l-0.5-0.5v-2.3C143.6,270.8,154.3,265.8,174,258.6z"/>
</g>
</svg>
