<?xml version="1.0" encoding="utf-8"?>
<!-- Generator: Adobe Illustrator 25.2.3, SVG Export Plug-In . SVG Version: 6.00 Build 0)  -->
<svg version="1.1" xmlns="http://www.w3.org/2000/svg" xmlns:xlink="http://www.w3.org/1999/xlink" x="0px" y="0px"
	 viewBox="0 0 700 395" style="enable-background:new 0 0 700 395;" xml:space="preserve">
<style type="text/css">
	.st0{fill:#000222;}
	.st1{fill:#FFFFFF;}
</style>
<g id="Layer_1">
	<rect class="st0" width="700" height="395"/>
</g>
<g id="Layer_3">
	<g>
		<path class="st1" d="M273.5,368.6l1.1,4.2c0.2,0.9,0.5,1.8,0.6,2.6h0.1c0.2-0.8,0.5-1.7,0.7-2.6l1.3-4.2h1.3l1.3,4.1
			c0.3,1,0.5,1.9,0.7,2.7h0.1c0.1-0.8,0.4-1.7,0.6-2.7l1.2-4.1h1.5l-2.7,8.2H280l-1.3-3.9c-0.3-0.9-0.5-1.7-0.7-2.7h0
			c-0.2,1-0.5,1.8-0.7,2.7l-1.3,3.9h-1.4l-2.5-8.2H273.5z"/>
		<path class="st1" d="M286.3,368.6l1.1,4.2c0.2,0.9,0.5,1.8,0.6,2.6h0.1c0.2-0.8,0.5-1.7,0.7-2.6l1.3-4.2h1.3l1.3,4.1
			c0.3,1,0.5,1.9,0.7,2.7h0.1c0.1-0.8,0.4-1.7,0.6-2.7l1.2-4.1h1.5l-2.7,8.2h-1.4l-1.3-3.9c-0.3-0.9-0.5-1.7-0.7-2.7h0
			c-0.2,1-0.5,1.8-0.7,2.7l-1.3,3.9h-1.4l-2.5-8.2H286.3z"/>
		<path class="st1" d="M299,368.6l1.1,4.2c0.2,0.9,0.5,1.8,0.6,2.6h0.1c0.2-0.8,0.5-1.7,0.7-2.6l1.3-4.2h1.3l1.3,4.1
			c0.3,1,0.5,1.9,0.7,2.7h0.1c0.1-0.8,0.4-1.7,0.6-2.7l1.2-4.1h1.5l-2.7,8.2h-1.4l-1.3-3.9c-0.3-0.9-0.5-1.7-0.7-2.7h0
			c-0.2,1-0.5,1.8-0.7,2.7l-1.3,3.9h-1.4l-2.5-8.2H299z"/>
		<path class="st1" d="M309.9,375.9c0-0.6,0.4-1.1,1-1.1c0.6,0,1,0.4,1,1.1c0,0.6-0.4,1.1-1,1.1C310.3,377,309.9,376.5,309.9,375.9z
			"/>
		<path class="st1" d="M313.5,375.3c0.4,0.3,1.2,0.6,2,0.6c1.1,0,1.6-0.5,1.6-1.2c0-0.7-0.4-1.1-1.5-1.5c-1.5-0.5-2.2-1.3-2.2-2.3
			c0-1.3,1.1-2.4,2.8-2.4c0.8,0,1.6,0.2,2,0.5l-0.4,1.1c-0.3-0.2-0.9-0.5-1.7-0.5c-0.9,0-1.4,0.5-1.4,1.1c0,0.7,0.5,1,1.6,1.4
			c1.4,0.5,2.2,1.3,2.2,2.5c0,1.4-1.1,2.5-3.1,2.5c-0.9,0-1.7-0.2-2.3-0.6L313.5,375.3z"/>
		<path class="st1" d="M327.4,374.6c0,0.9,0,1.6,0.1,2.2h-1.3l-0.1-1.3h0c-0.4,0.7-1.3,1.5-2.7,1.5c-1.3,0-2.8-0.7-2.8-3.6v-4.8h1.5
			v4.6c0,1.6,0.5,2.6,1.8,2.6c1,0,1.7-0.7,2-1.4c0.1-0.2,0.1-0.5,0.1-0.8v-5h1.5V374.6z"/>
		<path class="st1" d="M329.8,371.1c0-1,0-1.8-0.1-2.6h1.3l0.1,1.6h0.1c0.4-1.1,1.3-1.8,2.3-1.8c0.2,0,0.3,0,0.4,0.1v1.4
			c-0.2,0-0.3-0.1-0.5-0.1c-1.1,0-1.8,0.8-2,1.9c0,0.2-0.1,0.4-0.1,0.7v4.4h-1.5V371.1z"/>
		<path class="st1" d="M339.9,376.8l-0.1-1h-0.1c-0.5,0.6-1.3,1.2-2.5,1.2c-1.7,0-2.5-1.2-2.5-2.4c0-2,1.8-3.1,4.9-3.1v-0.2
			c0-0.7-0.2-1.9-1.9-1.9c-0.8,0-1.6,0.2-2.1,0.6l-0.3-1c0.7-0.4,1.7-0.7,2.7-0.7c2.5,0,3.1,1.7,3.1,3.4v3.1c0,0.7,0,1.4,0.1,2
			H339.9z M339.7,372.6c-1.6,0-3.5,0.3-3.5,1.9c0,1,0.6,1.4,1.4,1.4c1.1,0,1.8-0.7,2-1.4c0.1-0.2,0.1-0.3,0.1-0.5V372.6z"/>
		<path class="st1" d="M343.5,364.7h1.5v5.1h0c0.2-0.4,0.6-0.8,1.1-1.1c0.4-0.3,1-0.4,1.5-0.4c1.1,0,2.9,0.7,2.9,3.5v4.9H349v-4.7
			c0-1.3-0.5-2.4-1.9-2.4c-1,0-1.7,0.7-2,1.5c-0.1,0.2-0.1,0.4-0.1,0.7v5h-1.5V364.7z"/>
		<path class="st1" d="M358.6,375.5L358.6,375.5c-0.5,0.8-1.4,1.5-2.7,1.5c-1.9,0-3.5-1.7-3.5-4.2c0-3.1,2-4.4,3.7-4.4
			c1.3,0,2.1,0.6,2.5,1.4h0l0.1-1.2h1.4c0,0.7-0.1,1.4-0.1,2.3v9.3h-1.5V375.5z M358.6,371.9c0-0.2,0-0.4-0.1-0.6
			c-0.2-0.9-1-1.7-2.1-1.7c-1.5,0-2.5,1.3-2.5,3.2c0,1.6,0.8,3.1,2.4,3.1c1,0,1.8-0.6,2.1-1.6c0.1-0.2,0.1-0.5,0.1-0.7V371.9z"/>
		<path class="st1" d="M369.4,374.6c0,0.9,0,1.6,0.1,2.2h-1.3l-0.1-1.3h0c-0.4,0.7-1.3,1.5-2.7,1.5c-1.3,0-2.8-0.7-2.8-3.6v-4.8h1.5
			v4.6c0,1.6,0.5,2.6,1.8,2.6c1,0,1.7-0.7,2-1.4c0.1-0.2,0.1-0.5,0.1-0.8v-5h1.5V374.6z"/>
		<path class="st1" d="M371.9,371.1c0-1,0-1.8-0.1-2.6h1.3l0.1,1.6h0.1c0.4-1.1,1.3-1.8,2.3-1.8c0.2,0,0.3,0,0.4,0.1v1.4
			c-0.2,0-0.3-0.1-0.5-0.1c-1.1,0-1.8,0.8-2,1.9c0,0.2-0.1,0.4-0.1,0.7v4.4h-1.5V371.1z"/>
		<path class="st1" d="M381.9,376.8l-0.1-1h-0.1c-0.5,0.6-1.3,1.2-2.5,1.2c-1.7,0-2.5-1.2-2.5-2.4c0-2,1.8-3.1,4.9-3.1v-0.2
			c0-0.7-0.2-1.9-1.9-1.9c-0.8,0-1.6,0.2-2.1,0.6l-0.3-1c0.7-0.4,1.7-0.7,2.7-0.7c2.5,0,3.1,1.7,3.1,3.4v3.1c0,0.7,0,1.4,0.1,2
			H381.9z M381.7,372.6c-1.6,0-3.5,0.3-3.5,1.9c0,1,0.6,1.4,1.4,1.4c1.1,0,1.8-0.7,2-1.4c0.1-0.2,0.1-0.3,0.1-0.5V372.6z"/>
		<path class="st1" d="M385.6,370.8c0-0.9,0-1.5-0.1-2.2h1.3l0.1,1.4h0c0.4-0.8,1.4-1.5,2.7-1.5c1.1,0,2.9,0.7,2.9,3.5v4.9h-1.5
			v-4.7c0-1.3-0.5-2.4-1.9-2.4c-1,0-1.8,0.7-2,1.5c-0.1,0.2-0.1,0.4-0.1,0.7v4.9h-1.5V370.8z"/>
		<path class="st1" d="M394.6,375.9c0-0.6,0.4-1.1,1-1.1c0.6,0,1,0.4,1,1.1c0,0.6-0.4,1.1-1,1.1C395,377,394.6,376.5,394.6,375.9z"
			/>
		<path class="st1" d="M404.4,376.5c-0.4,0.2-1.3,0.5-2.4,0.5c-2.5,0-4.1-1.7-4.1-4.2c0-2.5,1.7-4.4,4.4-4.4c0.9,0,1.7,0.2,2.1,0.4
			l-0.3,1.2c-0.4-0.2-0.9-0.4-1.7-0.4c-1.9,0-2.9,1.4-2.9,3.1c0,1.9,1.2,3.1,2.9,3.1c0.8,0,1.4-0.2,1.8-0.4L404.4,376.5z"/>
		<path class="st1" d="M413.5,372.6c0,3-2.1,4.4-4.1,4.4c-2.2,0-3.9-1.6-3.9-4.2c0-2.8,1.8-4.4,4.1-4.4
			C411.9,368.4,413.5,370.1,413.5,372.6z M406.9,372.7c0,1.8,1,3.2,2.5,3.2c1.4,0,2.5-1.3,2.5-3.2c0-1.4-0.7-3.2-2.5-3.2
			S406.9,371.1,406.9,372.7z"/>
		<path class="st1" d="M415.4,370.8c0-0.9,0-1.5-0.1-2.2h1.3l0.1,1.3h0.1c0.5-0.8,1.2-1.5,2.6-1.5c1.1,0,2,0.7,2.3,1.6h0
			c0.3-0.5,0.6-0.8,0.9-1.1c0.5-0.4,1-0.6,1.8-0.6c1.1,0,2.7,0.7,2.7,3.6v4.8h-1.5v-4.7c0-1.6-0.6-2.5-1.8-2.5
			c-0.9,0-1.5,0.6-1.8,1.4c-0.1,0.2-0.1,0.5-0.1,0.7v5.1h-1.5v-4.9c0-1.3-0.6-2.3-1.7-2.3c-0.9,0-1.6,0.7-1.9,1.5
			c-0.1,0.2-0.1,0.5-0.1,0.7v5h-1.5V370.8z"/>
	</g>
</g>
<g id="Layer_4">
	<path class="st1" d="M571.8,113.5h0.5c3.1,2.5,4.6,4.6,4.6,6.3l-1.2,4.1l-6.3-2.9h-1.2c-1.5,0.6-2.3,2-2.3,4.1
		c-0.3,16.9-1.4,25.4-3.5,25.4h-1.2c-4.9-11.2-10.5-16.8-16.8-16.8c-2.3-2.3-3.5-4.4-3.5-6.3l1.2-4.1h2.3c3.2,0,8.8,4.8,16.8,14.5
		h0.5C561.9,121.6,565.2,113.5,571.8,113.5z M307.3,114h0.5l-2.3,12.2c0.6,3.1,1.7,4.6,3.5,4.6l3.5-2.9l0.6,0.6v0.5
		c0,4-1.4,6.7-4.1,8.1h-2.3c-1.4,0-2.8-2.3-4-6.9C302.7,124.2,304.2,118.8,307.3,114z M402,114c8.1,14.4,12.1,23.7,12.1,27.7
		l-0.5,0.6h-0.6l-4.6-1.2l9.2,70.4l1.2,10.9v0.6c-0.8,14.8-2.3,22.7-4.6,23.6h-1.2l-0.5-1.7l0.5-2.9l-0.5-1.7l0.5-3.5
		c0-6.7-4.8-45-14.4-115C399.4,116.7,400.6,114,402,114z M275.5,114.7h1.8c6.9,30.3,10.4,56.9,10.4,79.7c2.4,22,6.1,34.5,10.9,37.5
		c3.8,3.5,7.9,5.2,12.2,5.2h0.5c8.1,0,15.6-5.8,22.6-17.3l0.5-0.6h1.8c1.1,9.6,5.7,14.5,13.9,14.5h2.8c8.4,0,15.7-3.5,21.9-10.4
		v-1.8L361,126.2c-0.8,0-1.2-0.8-1.2-2.3c0-3.7,1.5-6.8,4.6-9.2c4.3,6.5,8.1,15,11.5,25.4v1.2h-1.2c-1.7-1.5-3.1-2.3-4-2.3l-0.6,0.5
		v0.6c6.2,52.4,10.8,78.5,13.9,78.5l9.9-1.8c7.3,1.9,10.9,5,10.9,9.2v4.1c-1.7,11.5-4.8,17.3-9.2,17.3c-4.8,0-10.5-4.2-17.3-12.7
		h-1.7c-5,5-12.9,8.8-23.7,11.5c-8.3,0-15.2-3.8-20.8-11.5c-7.6,9.2-14.5,13.9-20.8,13.9v0.5l-0.5-0.5h-2.3l-0.6,0.5
		c-7,0-13.8-5.8-20.2-17.3c-2.1,0-5.6-28.3-10.4-84.8l-5.2-23.1C273.2,117.7,274.4,114.7,275.5,114.7z M446.4,114.7
		c2.7,0.4,4.1,2.5,4.1,6.3v2.9l-0.6,6.9c3.8,3.1,5.8,5.6,5.8,7.5l-1.7,2.3h-1.2l-4.6-2.8h-1.8c-8.2,9-16.8,15.4-25.9,19l-1.8-0.5
		v-1.8c10-6.2,18.1-12.7,24.3-19.6v-0.5l-4-5.8c0.7-8.9,3-13.3,6.9-13.3L446.4,114.7z M612.2,114.7h1.7c2.9,0,4.7,6,5.2,17.9
		c2.3,1.8,3.5,3.8,3.5,5.8v0.6l-1.8,1.7l-4.6-1.7h-1.2c-15.1,14.2-26.6,22.4-34.6,24.8l-8.6,2.9l-0.6-0.6v-0.5
		c17.1-10,30.4-19.5,39.9-28.3v-1.7c-3.6-2.9-5.5-5.8-5.8-8.7C605.3,122.4,607.6,118.4,612.2,114.7z M522.7,116.3h0.6l0.5,2.3
		c0,2.7-8.9,8.7-26.6,17.9l-25.4,15.6h-1.2l-0.5-0.5h-0.6c0-3.8,5.2-8.2,15.6-13.3c1.4-1.5,9.5-6.3,24.3-14.4
		C517.2,118.9,521.6,116.3,522.7,116.3z M251.3,117.5h1.2c3.1,2.3,4.6,4.8,4.6,7.5c-0.5,1.9-1.1,2.8-1.7,2.8h-0.6l-3.5-2.3h-0.5
		c-1.2,0-2,5.6-2.3,16.8l-1.8,5.8h-1.2c-5.1-8.3-9-12.5-11.5-12.7l-0.5,0.5h-0.6c-4.2-2.1-6.3-4.4-6.3-6.9v-0.5
		c0-3.5,0.9-5.2,2.8-5.2c3.7,0,8.8,4.4,15,13.3h1.8l0.5-2.9v-2.3C246.6,123.7,248.2,119.1,251.3,117.5z M194.1,118.1
		c3.1,1.1,4.6,4.2,4.6,9.2l-0.6,2.3v1.7l3.5,7.5v2.3l-1.2,1.2h-0.5l-3.5-2.3L182,153.9l-18.5,11.5h-2.3c0-0.8,9.4-9.1,28.3-24.9
		c1.5-1.7,2.3-3.1,2.3-4c-3.1-2.1-4.6-4.6-4.6-7.5C188.5,121.8,190.8,118.1,194.1,118.1z M152.5,120.4c0.9,0,1.4,0.9,1.7,2.8
		l-5.2,18.5v3.5c0,3,0.9,4.9,2.8,5.8h2.3l2.9-2.8h0.5c-0.5,6.9-2.1,10.4-4.6,10.4c-3.8,0-6.1-2.9-6.9-8.7c0-4.3,1.2-11,3.5-20.2
		l-1.7-0.6c-1.5,0-28.1,14.8-79.7,44.5h-1.8v-1.2h-0.5c0-4.6,10-11.9,30-21.9c1.4-1.5,5.6-3.8,12.7-6.9
		C126.5,132.6,141.2,124.9,152.5,120.4z M608.7,124.4c0,1.4,1.9,3,5.8,4.6l1.2-2.3c-0.6-3.4-2-5.2-4.1-5.2
		C610.6,121.8,609.6,122.8,608.7,124.4z M81.5,121.6l0.6,0.5l-3.5,12.7c0.5,3.1,1.8,4.6,4,4.6l1.8-2.3h0.5l0.6,1.8
		c-1,5-2.2,7.5-3.5,7.5c-3.6,0-5.7-2.7-6.4-8.1C77.5,127.2,79.4,121.6,81.5,121.6z M443,123.3v1.8l2.3,2.3h1.8v-4.1l-1.2-1.2h-1.8
		L443,123.3z M355.2,124.4l0.6,0.6v0.5c0,4.9-8.1,10.9-24.3,17.9c-22.9,12.7-35.4,19-37.6,19l-0.5-0.5c0-4.8,5-9,15-12.7
		L355.2,124.4z M191.8,126.2c0,2.3,1.2,3.5,3.5,3.5v-1.8l-1.8-1.7H191.8z M529.6,151l0.6,0.6v0.5l-2.9,8.7
		c0.5,6.9,2.2,10.4,5.2,10.4l3.5-4.6l0.5,1.7c-1,6.6-3.1,9.9-6.3,9.9c-2.4,0-4.3-3.3-5.8-9.9C524.4,161.5,526.1,155.8,529.6,151z
		 M208.5,155.6c3.5,1.8,6.4,4.5,8.7,8.1c-1.2,2.9-2.9,5.2-5.2,6.9c-1.2,0-3.9-1.5-8.1-4.6h-0.5c-0.8,0.1-2.4,2-4.6,5.8h-1.2
		c-6.2-2.5-9.2-4.8-9.2-6.9c0.6-2.8,2.3-5.3,5.2-7.5h0.6l6.3,3.5h1.8C204.5,157.4,206.6,155.6,208.5,155.6z M615.1,155.6h1.2v0.6
		c-1,3.7-2,6.1-2.8,6.9v4c0,4.3,1.5,6.4,4.6,6.4l1.2-2.9h1.7v1.2h0.6c-1.8,5.8-3.7,8.7-5.8,8.7c-3.2,0-4.9-3.1-5.2-9.2v-0.6
		C610.4,166.7,612,161.7,615.1,155.6z M455.1,156.2c5.1,2.6,8.2,5.4,9.2,8.6c0,2.8-1.9,5.3-5.8,7.5c-4.3-3.1-7-4.6-8.1-4.6l-5.2,6.3
		h-1.7c-5.4-2.9-8.1-5.6-8.1-8.1v-0.5c1.5-3.6,3-5.9,4.6-6.9c1.7,0,4.4,1.5,8.1,4.6h0.5c1.1-0.3,2.6-2.4,4.6-6.4L455.1,156.2z
		 M244.9,156.8c6.5,2.5,9.8,5.4,9.8,8.7v0.5c-1.6,3.3-3.2,5.4-4.6,6.4c-4.5-1.6-7.9-4-10.4-6.9v-1.2
		C239.7,162.1,241.5,159.5,244.9,156.8z M353.5,157.9c3.4,0,5.2,4.8,5.2,14.5l1.8,4l-1.8,3.5l-3.5-1.2c-8.1,9.2-13.8,13.9-17.3,13.9
		h-1.2V192c0-0.9,3.3-3.8,9.9-8.7c3.1-2.9,4.6-5.2,4.6-6.9c-3.5-3-5.2-5.5-5.2-7.5v-1.2C347.1,161.2,349.7,157.9,353.5,157.9z
		 M135.8,163.2l11,12.7v2.8h-2.9c-0.8,0-1.2,0.6-1.2,1.8c4.3,7.8,7.2,14.3,8.7,19.6l-0.6,0.5v3.5c0,10.2-6.2,19.2-18.5,27.2
		c-6.5,4.4-9.8,8.4-9.8,12.1l-0.6,6.4c0,11.3,5,18,15,20.2h2.3c13.7,0,28.3-8.9,43.9-26.6c1.5-2,2.3-4.1,2.3-6.3l-1.7-1.8l-14.5,1.8
		c-7.3-1.3-10.9-5-10.9-11c0-8.3,4.2-14.2,12.7-17.9h0.5c4,0,9.4,4.6,16.2,13.9c7.3-2.4,11-4.7,11-6.9l-2.3-11.5
		c1-15.8,4.8-23.7,11.5-23.7h0.5c4.5,0,8.6,5.8,12.2,17.3c0,9.5-3.1,17.1-9.2,22.6c0,4.7,5.8,7.9,17.3,9.8h2.8
		c14,0,24.7-4.4,32.3-13.2v-1.8c0-1.5-2.5-2.5-7.5-2.8l-9.9,0.5c-7.3-1.6-10.9-4.5-10.9-8.6v-4.1c1.7-10.4,5.9-15.6,12.7-15.6h1.2
		c5.4,0,11.5,6,18.5,17.9l1.7,10.4c0,12.5-7.1,21-21.3,25.4c-8.8,2.7-14.8,4.1-17.9,4.1c-10.3,0-19.1-5-26.6-15l-0.5-0.6h-0.6
		c-8.1,3.4-12.1,6.7-12.1,9.9c0,9.1-5.4,18.3-16.2,27.7c-13,11.5-24,17.3-33,17.3l-2.3,0.5c-8.7,0-15.1-4.2-19-12.7l-2.9-9.2
		l1.2-17.3h-1.7c-12.3,3.7-18.5,6.3-18.5,7.5c-1.5,5-2.3,8.6-2.3,10.7s1.2,4,3.5,5.4h1.2l2.8-2.3h0.6v1.7c0,3.3-1.4,5.9-4.1,7.5
		h-0.5c-3.1,0-5.2-2.5-6.4-7.5l1.8-16.2l-3.5-0.5l-1.8,0.5c-13.7,0-22.7-6.7-27.1-20.2l-1.8-11.5c2.7-15,4.8-22.6,6.4-22.6l0.5,0.6
		h0.6c-2,5.7-2.9,11.9-2.9,18.5c0,11.6,6,19.1,17.9,22.5l6.3,0.6h2.9c15.5,0,32.8-8.9,52-26.6l1.7-2.3v-2.9l-12.7-29.4l-1.2-4.6
		v-0.6C133,165.7,134.1,163.2,135.8,163.2z M351.7,165.5v2.3l2.3,0.5v-1.7l-1.2-1.2H351.7z M489.2,167.8
		c8.1,7.4,12.2,12.1,12.2,13.9v0.5h-1.2v0.6l-0.6-0.6h-1.2c-0.8,0-1.2,0.6-1.2,1.8c6.6,11.2,9.9,18.6,9.9,21.9
		c0,11.7-4.6,20.4-13.9,25.9c-2.3,1.8-3.5,5.3-3.5,10.4v0.6c0,9,4,14.9,12.1,17.9l5.2,0.6h4l0.6-0.6l0.5,0.6h0.6
		c7-0.8,16.1-6,27.4-15.8c11.3-9.8,17-15.7,17-17.7v-2.3c0-0.8-0.6-1.2-1.7-1.2l-15.6,2.3c-8.1-0.9-12.1-5-12.1-12.2v-1.7
		c2.5-11.2,6.9-16.8,13.2-16.8c5.2,0,11.6,4.6,19.1,13.9c4.6-1.4,11.1-5.7,19.6-12.7h1.7c0.8,0.9,1.4,4.7,1.8,11.5
		c3.7,3.8,8.7,5.8,15,5.8c8.5-3.2,12.7-6.8,12.7-10.9l6.3-8.7h1.2v1.2h0.6l-2.3,5.2v1.2c1,5,5.3,7.5,12.7,7.5
		c2.3-0.4,3.5-0.9,3.5-1.7v-0.6c0-2.5-1-4.8-2.9-6.9c1.3-5.3,2.4-8,3.5-8.1h0.6c1.7,1.3,3.4,5.5,5.2,12.7
		c-1.3,10.8-5.1,16.2-11.5,16.2h-1.2c-4.6,0-9.2-2.5-13.9-7.5h-0.5c-5.8,7.7-12.3,11.5-19.6,11.5c-7.2,0-12.5-4.8-15.7-14.5
		c-9.2,5.3-13.9,9.8-13.9,13.3c0,9.1-6.5,19.3-19.6,30.6c-12.9,12-24.8,17.9-35.8,17.9h-0.5c-11.9,0-19.2-7.7-21.9-23.1l0.5-5.2
		v-4.6h-0.5c-1.7,0-7.9,3.8-18.5,11.5c-14.4,9.2-29.4,14.6-45,16.2c-6.3,2-11.1,2.9-14.5,2.9v-1.8c26.8-10.3,48.4-21.4,64.7-33.5
		c4.8-2.1,13.8-8.8,27.2-20.2c1.5-1.6,2.3-3.3,2.3-4.9s-3.8-9.6-11.5-24l-3.5-9.9C486.8,171.1,487.7,168.2,489.2,167.8z
		 M303.8,176.4h1.2c0,2.3-0.8,5.8-2.3,10.4v6.4c0,2.3,1.2,4.2,3.5,5.8h0.5c1,0,1.8-1.4,2.3-4.1h0.6c0.8,0,1.2,0.6,1.2,1.8
		c0,4.5-1.4,7.5-4.1,9.2h-1.2c-3.2,0-5.3-2.7-6.3-8.1v-4.6C300.6,185.6,302.1,180,303.8,176.4z M464.9,177h0.6l0.5,0.5h0.6
		c0,5.2-2.9,11.3-8.7,18.5l-0.5,2.9l9.8,10.9l1.2,6.4c0,10.4-6.3,17.5-19,21.3c0,0.8-1.2,1.2-3.5,1.2c-3.7,0-6.4-3.5-8.1-10.4
		c0-6.8,1.9-13.7,5.8-20.8V207c0-2.1-3.1-5.3-9.2-9.9c-3.8-4.2-5.8-7.2-5.8-9.2l-0.6-4.6c0.8-1.7,1.5-2.7,2.3-2.8l15,6.3v1.2
		c0,0.8-0.6,1.2-1.7,1.2l-0.6,0.6v1.2c0,1.6,2.7,3.2,8.1,4.6L464.9,177z M84.9,178.2h1.8l-1.8,13.2c0,2.9,1.2,5.4,3.5,7.5h1.2
		c1.5-0.6,2.3-1.8,2.3-3.5h1.8v1.7c0,6.2-1.9,9.2-5.8,9.2c-3.8-3-5.8-6.7-5.8-10.9C82.5,188.5,83.4,182.7,84.9,178.2z M322.9,189.1
		h0.6c3.2,0,6.3,2.7,9.2,8.1l-3.5,6.9h-1.2c-6.6-3-9.9-5.7-9.9-8.1C319.9,192.2,321.4,189.9,322.9,189.1z M201.6,196.7v4.6
		c0,2.8,1.4,6.1,4.1,9.8c2.1,0,5.2-2.5,9.2-7.5v-1.2c-1.4-6.9-3.9-10.4-7.5-10.4C205.4,192,203.5,193.6,201.6,196.7z M242.6,196.7
		v1.2c1,1.9,2.5,2.8,4.6,2.8h2.3l4-0.5V199c-1.4-2.3-3.7-3.5-6.9-3.5L242.6,196.7z M108.7,197.8c2.4,0,5.7,2.1,9.8,6.3
		c-0.7,3.1-2.4,5.8-5.2,8.1c-6.6-2.8-9.9-4.9-9.9-6.3C103.4,200.5,105.2,197.8,108.7,197.8z M534.8,212.2c0,1.3,2.3,2.1,6.9,2.3
		c4.2,0,6.3-0.6,6.3-1.7v-0.6c0-1.9-2.9-3.1-8.6-3.5C537.9,208.7,536.4,209.9,534.8,212.2z M448.7,209.4c-3.8,5.7-5.8,9.8-5.8,12.1
		v2.3c0.8,2,2.1,2.9,4.1,2.9h2.3c8.8-3.3,13.2-6.6,13.2-9.9C456.9,211.8,452.3,209.4,448.7,209.4z M166.4,222.6v0.6
		c0.6,1.5,2,2.3,4,2.3h4.6l1.2-1.2v-0.6c0-1.1-1.7-2.1-5.2-2.8h-1.2C167.6,221.1,166.4,221.7,166.4,222.6z M389.8,228.4l-1.2,1.8
		c0,1.5,2.5,3.1,7.5,4.6h1.2l1.7-1.8C399.1,230.8,396,229.3,389.8,228.4z M623.8,235.3h1.7v0.6c-1.3,9.2-4,13.9-8.1,13.9
		c-1.5-0.8-3.6-1.2-6.3-1.2c-0.1,1.1-2.4,2.2-6.9,3.5l-4.6-2.3h-4.6c-15.3,10-24.7,15-28.3,15h-1.7v-0.6c11.9-7.3,21.1-13.6,27.7-19
		l6.3-2.3c1.2,0,3,0.8,5.2,2.3h4l6.9-6.4h0.6c0,1.5,0.8,2.7,2.3,3.5h3.5L623.8,235.3z M278.4,242.8l1.2,1.2v1.2
		c0,3.1-7.7,8.1-23.1,15c-12.4,6.9-19.4,10.4-20.8,10.4l-0.6-2.9c0-2.2,13.1-9.6,39.3-22.5C275,243.6,276.3,242.8,278.4,242.8z
		 M369.7,244h0.5v1.2l-2.3,13.2c0.8,3.1,2.3,4.6,4.6,4.6l2.3-2.3h0.6c0,4-1.7,7-5.2,9.2c-3.8-1.3-5.8-4.2-5.8-8.6
		C366.4,249.8,368.1,244,369.7,244z M204.5,246.3h0.5v0.5l-1.7,11.5v1.2c0,3.3,1.2,5.6,3.5,6.9h0.5l3.5-4l1.2,1.2
		c0,4.6-1.9,7.9-5.8,9.8c-3.8-1.3-5.8-4.8-5.8-10.4v-1.7C201.8,251.3,203.1,246.3,204.5,246.3z M299.2,249.2h1.7
		c0,2.4-0.6,5.1-1.7,8.1c0.6,4.6,1.5,6.9,2.8,6.9h1.2l2.9-2.3l0.5,1.8c0,2.7-1.5,5.2-4.6,7.5c-2.7,0-4.6-2.7-5.8-8.1l0.6-0.5v-2.9
		C296.9,257.1,297.7,253.7,299.2,249.2z"/>
</g>
</svg>
