<?xml version="1.0" encoding="utf-8"?>
<!-- Generator: Adobe Illustrator 25.2.3, SVG Export Plug-In . SVG Version: 6.00 Build 0)  -->
<svg version="1.1" xmlns="http://www.w3.org/2000/svg" xmlns:xlink="http://www.w3.org/1999/xlink" x="0px" y="0px"
	 viewBox="0 0 700 395" style="enable-background:new 0 0 700 395;" xml:space="preserve">
<style type="text/css">
	.st0{fill:#000222;}
	.st1{fill:#FFFFFF;}
</style>
<g id="Layer_1">
	<rect class="st0" width="700" height="395"/>
</g>
<g id="Layer_3">
	<g>
		<path class="st1" d="M273.5,368.6l1.1,4.2c0.2,0.9,0.5,1.8,0.6,2.6h0.1c0.2-0.8,0.5-1.7,0.7-2.6l1.3-4.2h1.3l1.3,4.1
			c0.3,1,0.5,1.9,0.7,2.7h0.1c0.1-0.8,0.4-1.7,0.6-2.7l1.2-4.1h1.5l-2.7,8.2H280l-1.3-3.9c-0.3-0.9-0.5-1.7-0.7-2.7h0
			c-0.2,1-0.5,1.8-0.7,2.7l-1.3,3.9h-1.4l-2.5-8.2H273.5z"/>
		<path class="st1" d="M286.3,368.6l1.1,4.2c0.2,0.9,0.5,1.8,0.6,2.6h0.1c0.2-0.8,0.5-1.7,0.7-2.6l1.3-4.2h1.3l1.3,4.1
			c0.3,1,0.5,1.9,0.7,2.7h0.1c0.1-0.8,0.4-1.7,0.6-2.7l1.2-4.1h1.5l-2.7,8.2h-1.4l-1.3-3.9c-0.3-0.9-0.5-1.7-0.7-2.7h0
			c-0.2,1-0.5,1.8-0.7,2.7l-1.3,3.9h-1.4l-2.5-8.2H286.3z"/>
		<path class="st1" d="M299,368.6l1.1,4.2c0.2,0.9,0.5,1.8,0.6,2.6h0.1c0.2-0.8,0.5-1.7,0.7-2.6l1.3-4.2h1.3l1.3,4.1
			c0.3,1,0.5,1.9,0.7,2.7h0.1c0.1-0.8,0.4-1.7,0.6-2.7l1.2-4.1h1.5l-2.7,8.2h-1.4l-1.3-3.9c-0.3-0.9-0.5-1.7-0.7-2.7h0
			c-0.2,1-0.5,1.8-0.7,2.7l-1.3,3.9h-1.4l-2.5-8.2H299z"/>
		<path class="st1" d="M309.9,375.9c0-0.6,0.4-1.1,1-1.1c0.6,0,1,0.4,1,1.1c0,0.6-0.4,1.1-1,1.1C310.3,377,309.9,376.5,309.9,375.9z
			"/>
		<path class="st1" d="M313.5,375.3c0.4,0.3,1.2,0.6,2,0.6c1.1,0,1.6-0.5,1.6-1.2c0-0.7-0.4-1.1-1.5-1.5c-1.5-0.5-2.2-1.3-2.2-2.3
			c0-1.3,1.1-2.4,2.8-2.4c0.8,0,1.6,0.2,2,0.5l-0.4,1.1c-0.3-0.2-0.9-0.5-1.7-0.5c-0.9,0-1.4,0.5-1.4,1.1c0,0.7,0.5,1,1.6,1.4
			c1.4,0.5,2.2,1.3,2.2,2.5c0,1.4-1.1,2.5-3.1,2.5c-0.9,0-1.7-0.2-2.3-0.6L313.5,375.3z"/>
		<path class="st1" d="M327.4,374.6c0,0.9,0,1.6,0.1,2.2h-1.3l-0.1-1.3h0c-0.4,0.7-1.3,1.5-2.7,1.5c-1.3,0-2.8-0.7-2.8-3.6v-4.8h1.5
			v4.6c0,1.6,0.5,2.6,1.8,2.6c1,0,1.7-0.7,2-1.4c0.1-0.2,0.1-0.5,0.1-0.8v-5h1.5V374.6z"/>
		<path class="st1" d="M329.8,371.1c0-1,0-1.8-0.1-2.6h1.3l0.1,1.6h0.1c0.4-1.1,1.3-1.8,2.3-1.8c0.2,0,0.3,0,0.4,0.1v1.4
			c-0.2,0-0.3-0.1-0.5-0.1c-1.1,0-1.8,0.8-2,1.9c0,0.2-0.1,0.4-0.1,0.7v4.4h-1.5V371.1z"/>
		<path class="st1" d="M339.9,376.8l-0.1-1h-0.1c-0.5,0.6-1.3,1.2-2.5,1.2c-1.7,0-2.5-1.2-2.5-2.4c0-2,1.8-3.1,4.9-3.1v-0.2
			c0-0.7-0.2-1.9-1.9-1.9c-0.8,0-1.6,0.2-2.1,0.6l-0.3-1c0.7-0.4,1.7-0.7,2.7-0.7c2.5,0,3.1,1.7,3.1,3.4v3.1c0,0.7,0,1.4,0.1,2
			H339.9z M339.7,372.6c-1.6,0-3.5,0.3-3.5,1.9c0,1,0.6,1.4,1.4,1.4c1.1,0,1.8-0.7,2-1.4c0.1-0.2,0.1-0.3,0.1-0.5V372.6z"/>
		<path class="st1" d="M343.5,364.7h1.5v5.1h0c0.2-0.4,0.6-0.8,1.1-1.1c0.4-0.3,1-0.4,1.5-0.4c1.1,0,2.9,0.7,2.9,3.5v4.9H349v-4.7
			c0-1.3-0.5-2.4-1.9-2.4c-1,0-1.7,0.7-2,1.5c-0.1,0.2-0.1,0.4-0.1,0.7v5h-1.5V364.7z"/>
		<path class="st1" d="M358.6,375.5L358.6,375.5c-0.5,0.8-1.4,1.5-2.7,1.5c-1.9,0-3.5-1.7-3.5-4.2c0-3.1,2-4.4,3.7-4.4
			c1.3,0,2.1,0.6,2.5,1.4h0l0.1-1.2h1.4c0,0.7-0.1,1.4-0.1,2.3v9.3h-1.5V375.5z M358.6,371.9c0-0.2,0-0.4-0.1-0.6
			c-0.2-0.9-1-1.7-2.1-1.7c-1.5,0-2.5,1.3-2.5,3.2c0,1.6,0.8,3.1,2.4,3.1c1,0,1.8-0.6,2.1-1.6c0.1-0.2,0.1-0.5,0.1-0.7V371.9z"/>
		<path class="st1" d="M369.4,374.6c0,0.9,0,1.6,0.1,2.2h-1.3l-0.1-1.3h0c-0.4,0.7-1.3,1.5-2.7,1.5c-1.3,0-2.8-0.7-2.8-3.6v-4.8h1.5
			v4.6c0,1.6,0.5,2.6,1.8,2.6c1,0,1.7-0.7,2-1.4c0.1-0.2,0.1-0.5,0.1-0.8v-5h1.5V374.6z"/>
		<path class="st1" d="M371.9,371.1c0-1,0-1.8-0.1-2.6h1.3l0.1,1.6h0.1c0.4-1.1,1.3-1.8,2.3-1.8c0.2,0,0.3,0,0.4,0.1v1.4
			c-0.2,0-0.3-0.1-0.5-0.1c-1.1,0-1.8,0.8-2,1.9c0,0.2-0.1,0.4-0.1,0.7v4.4h-1.5V371.1z"/>
		<path class="st1" d="M381.9,376.8l-0.1-1h-0.1c-0.5,0.6-1.3,1.2-2.5,1.2c-1.7,0-2.5-1.2-2.5-2.4c0-2,1.8-3.1,4.9-3.1v-0.2
			c0-0.7-0.2-1.9-1.9-1.9c-0.8,0-1.6,0.2-2.1,0.6l-0.3-1c0.7-0.4,1.7-0.7,2.7-0.7c2.5,0,3.1,1.7,3.1,3.4v3.1c0,0.7,0,1.4,0.1,2
			H381.9z M381.7,372.6c-1.6,0-3.5,0.3-3.5,1.9c0,1,0.6,1.4,1.4,1.4c1.1,0,1.8-0.7,2-1.4c0.1-0.2,0.1-0.3,0.1-0.5V372.6z"/>
		<path class="st1" d="M385.6,370.8c0-0.9,0-1.5-0.1-2.2h1.3l0.1,1.4h0c0.4-0.8,1.4-1.5,2.7-1.5c1.1,0,2.9,0.7,2.9,3.5v4.9h-1.5
			v-4.7c0-1.3-0.5-2.4-1.9-2.4c-1,0-1.8,0.7-2,1.5c-0.1,0.2-0.1,0.4-0.1,0.7v4.9h-1.5V370.8z"/>
		<path class="st1" d="M394.6,375.9c0-0.6,0.4-1.1,1-1.1c0.6,0,1,0.4,1,1.1c0,0.6-0.4,1.1-1,1.1C395,377,394.6,376.5,394.6,375.9z"
			/>
		<path class="st1" d="M404.4,376.5c-0.4,0.2-1.3,0.5-2.4,0.5c-2.5,0-4.1-1.7-4.1-4.2c0-2.5,1.7-4.4,4.4-4.4c0.9,0,1.7,0.2,2.1,0.4
			l-0.3,1.2c-0.4-0.2-0.9-0.4-1.7-0.4c-1.9,0-2.9,1.4-2.9,3.1c0,1.9,1.2,3.1,2.9,3.1c0.8,0,1.4-0.2,1.8-0.4L404.4,376.5z"/>
		<path class="st1" d="M413.5,372.6c0,3-2.1,4.4-4.1,4.4c-2.2,0-3.9-1.6-3.9-4.2c0-2.8,1.8-4.4,4.1-4.4
			C411.9,368.4,413.5,370.1,413.5,372.6z M406.9,372.7c0,1.8,1,3.2,2.5,3.2c1.4,0,2.5-1.3,2.5-3.2c0-1.4-0.7-3.2-2.5-3.2
			S406.9,371.1,406.9,372.7z"/>
		<path class="st1" d="M415.4,370.8c0-0.9,0-1.5-0.1-2.2h1.3l0.1,1.3h0.1c0.5-0.8,1.2-1.5,2.6-1.5c1.1,0,2,0.7,2.3,1.6h0
			c0.3-0.5,0.6-0.8,0.9-1.1c0.5-0.4,1-0.6,1.8-0.6c1.1,0,2.7,0.7,2.7,3.6v4.8h-1.5v-4.7c0-1.6-0.6-2.5-1.8-2.5
			c-0.9,0-1.5,0.6-1.8,1.4c-0.1,0.2-0.1,0.5-0.1,0.7v5.1h-1.5v-4.9c0-1.3-0.6-2.3-1.7-2.3c-0.9,0-1.6,0.7-1.9,1.5
			c-0.1,0.2-0.1,0.5-0.1,0.7v5h-1.5V370.8z"/>
	</g>
</g>
<g id="Layer_4">
	<path class="st1" d="M229.1,115.2h0.5c-1.6,3.9-2.3,7.2-2.3,9.8v4.1c0,2.9,0.8,4.7,2.3,5.2h1.2c1.6-0.8,2.3-1.9,2.3-3.5h1.2v1.2
		h0.6c-1.5,6.2-3,9.3-4.7,9.3h-0.6c-3.9-0.9-5.8-3.4-5.8-7.5v-0.6C223.8,126.1,225.6,120.1,229.1,115.2z M308.2,115.8l1.2,1.8
		c0,3.3-4.5,6.5-13.4,9.8c-19.1,8.8-40.6,19.3-64.5,31.4l-14.6,9.3h-2.3v-0.5c0-5.7,6.8-11.6,20.4-17.4c17.3-9.5,39.5-20.1,66.8-32
		C301.7,117.5,303.9,116.8,308.2,115.8z M143,116.9c3.9,1.7,5.8,4,5.8,7v1.2l-0.6,2.9h-2.3l-4-3.5h-1.8c-0.9,15.2-2.8,27.4-5.8,36.6
		c-4.4,6-9.5,10.6-15.1,14h-2.9v-0.5c12.4-11.2,18.6-19.1,18.6-23.9v-0.5c-3.7-10.5-8.1-15.7-13.4-15.7c-4.2-1.6-6.4-3.9-6.4-7
		c0.6-3.5,1.4-5.2,2.3-5.2c5.4,0,11.2,5,17.4,15.1h1.2C137.1,123.7,139.4,116.9,143,116.9z M346.5,116.9h0.5
		c7,12.9,10.5,21.6,10.5,26.2l-0.5,0.5l-3.5-2.3h-1.2l9.8,83.2c0,13-5.8,20.6-17.4,22.6h-2.9c-6.5,0-11.8-3.5-15.7-10.5h-0.5
		c-7.5,9.3-15.2,14-23.3,14h-1.8c-5.5,0-13.5-4.3-23.8-12.8l-24.4,10.5c-8.9,2.3-16.7,3.5-23.3,3.5c-12.4-2.8-18.6-6.1-18.6-9.8
		c-4.6-2.3-7.7-17.4-9.3-45.4c-2.7-39-5.8-61.8-9.3-68.6v-0.6l2.9-9.8h1.8c4.2,7,8.1,38,11.6,93c1.8,12.4,4.7,20.3,8.7,23.8
		c4.3,3.5,9.1,5.3,14.6,5.3c16.3,0,28-3.3,34.9-9.9v-0.5c0-0.7-3.3-3-9.9-7h-3.5c-2.7,0-4.8,0.8-6.4,2.3l-2.3-1.8v-1.2
		c0-8.5,9.9-13.8,29.6-15.7h4.1l0.5-0.6c17.1,3,25.6,6,25.6,8.8v1.2c0,6-4.7,10.4-14,13.3l-2.3,3.5c0,2.3,4.1,4.5,12.3,6.4h7.5
		c6.4,0,13.7-5.8,22.1-17.4h0.6l1.2,1.2v5.8c2.6,5.4,7.1,8.1,13.3,8.1c7.8-1,11.6-3.1,11.6-6.4l-13.3-104.7
		C344.2,119.7,345.4,116.9,346.5,116.9z M373.8,116.9c5.3,9.6,9.2,18.5,11.6,26.8l-0.5,0.6h-1.2l-3.5-2.9h-1.2v0.6l8.7,70.3
		l1.2,18.1c-2,13.2-3.7,19.8-5.2,19.8h-1.2v-6.4l0.5-7c-1.9-22-6.4-59-13.3-111C371.6,119.9,373,116.9,373.8,116.9z M423.9,118.7
		c1.4,0,2.6,2.3,3.5,7l-1.2,8.1c3.5,3.6,5.3,6.3,5.3,8.1v1.7l-1.2,1.2h-1.2c-2.8-2.3-4.9-3.5-6.4-3.5h-0.5
		c-9.9,9.9-20.2,16.7-30.9,20.4l-0.5-0.6v-2.3c13.3-7,22.8-13.8,28.5-20.3l-4-8.1c0.8-5,3.2-8.8,7-11.6H423.9z M549.5,122.2
		c3.1,1.6,4.7,3.5,4.7,5.9c0,2.4-0.8,3.9-2.3,4.5c-2.6-2.7-4.3-4.1-5.2-4.1c-2.7,0-4.1,5.8-4.1,17.4l-2.9,13.4h-1.8
		c-4.2-11.6-9.3-17.4-15.1-17.4c-3.1-2.5-4.7-4.8-4.7-7c0.9-2.7,1.7-4.1,2.3-4.1h1.2c3.9,0,9.2,5.2,15.7,15.7h1.7
		c0-13.6,2.9-21.6,8.8-23.9L549.5,122.2z M500.1,123.4v1.7c0,3.2-7.8,8.5-23.3,15.7c-19.1,10.9-29.2,16.3-30.2,16.3H446v-1.2h-0.5
		c0-3.7,8.1-9.3,24.4-16.9C484.3,130.9,494.3,125.7,500.1,123.4z M418.7,128c0.8,2.3,2.3,3.5,4.7,3.5l0.5-2.9c0-2.3-0.8-3.5-2.3-3.5
		C420.5,125.1,419.5,126.1,418.7,128z M591.3,125.1c3.1,1.3,4.7,3.8,4.7,7.6v9.3c2.7,2.9,4.1,5.3,4.1,7c-0.6,1.6-1.2,2.3-1.8,2.3
		c-2.3-1.6-4.4-2.3-6.4-2.3c-17.4,16.4-32.4,25.3-44.8,26.8h-0.5c0-0.7,7.9-5.5,23.8-14.6c12-8.3,18.1-13.3,18.1-15.1l-5.3-6.4v-2.9
		C584.5,129,587.2,125.1,591.3,125.1z M586.7,133.2v2.3c1.6,2.3,3.5,3.5,5.8,3.5h0.6c0-4.7-0.8-7-2.3-7h-2.9L586.7,133.2z
		 M336.6,132.1h0.6l0.5,1.8c0,3.4-5.8,6.5-17.4,9.3l-30.8,13.3l-17.4,8.8l-0.6-0.6v-0.5c0-4.4,4.3-7.9,12.8-10.5
		C314.6,139.2,332.1,132.1,336.6,132.1z M177.9,138.5c3.1,0.6,4.7,3.7,4.7,9.3v5.8c3.1,3.3,4.7,6,4.7,8.1v2.3l-1.8,1.7
		c0-0.7-1.3-1.8-4-3.5h-1.8c-8.8,10.5-16.2,17.3-22.1,20.4c-7.7,5.4-13.1,8.1-16.3,8.1v-0.6c15.4-12.2,26.6-21.7,33.7-28.5V160
		c0-1.3-1.9-3.9-5.8-7.5v-1.8C170.5,142.6,173.5,138.5,177.9,138.5z M173.8,147.8c1.3,2.3,3.1,3.5,5.3,3.5v-3.5l-1.8-1.8h-1.7
		L173.8,147.8z M98.2,154.2h1.2l0.6,0.6h0.5c-4.7,13.3-7,21.7-7,25v7.6c0,3.7,1.9,6,5.8,7h0.6c0.6,0,1.5-1.6,2.9-4.7h1.2v2.9
		c0,6-2.3,9.7-7,11.1c-4,0-6.7-4.9-8.1-14.6C88.9,182.2,92,170.5,98.2,154.2z M331.4,155.9h1.2l2.9,12.2c0,3.8-2.3,7.1-7,9.9
		l-6.4-1.8c-2.6,2.7-5.3,4.1-8.1,4.1c-3.1-1.5-4.7-3.4-4.7-5.8l1.2-8.8h1.7v1.8c0,3.9,1.6,5.8,4.7,5.8c3.1-1,4.7-2.8,4.7-5.3v-2.3
		l-0.5-2.3l1.2-5.8h1.7l1.2,7v3.5c0.6,1.6,2,2.3,4.1,2.3h1.2l1.2-1.2l-1.8-8.7C329.9,157.5,330.5,155.9,331.4,155.9z M505.9,158.8
		v0.6c-1.6,3.8-2.5,8.2-2.9,13.3c1.3,3.9,2.5,5.8,3.5,5.8h1.8l3.5-4l0.5,0.5c-1.8,7.4-3.7,11.1-5.8,11.1c-4.2-1.1-6.4-5-6.4-11.6
		C502.1,164.1,504,158.8,505.9,158.8z M430.8,160.6c5.4,4.2,8.1,7,8.1,8.1v1.2c0,2.5-1.7,5-5.2,7.5l-8.1-5.2c-1.2,0-2.7,2.1-4.7,6.4
		h-2.3c-4.1-2.8-6.8-5.1-8.1-7v-0.5c1.6-5.4,3.3-8.1,5.2-8.1l7,4.7h1.8L430.8,160.6z M591.3,167h1.2v0.6c-1.9,3.6-2.9,6.5-2.9,8.7
		v3.5c0.5,2.9,1.2,4.4,2.3,4.7h1.7c0.6,0,1.2-0.8,1.8-2.3l0.5-0.5h0.6l0.5,1.7c-2,5.4-4,8.1-5.8,8.1c-3.5-1.8-5.2-4.3-5.2-7.5v-1.8
		C586.1,178.6,587.9,173.5,591.3,167z M464.6,173.9c7.8,8.1,11.6,12.9,11.6,14.6v0.5h-3.5l-1.2,1.2v0.6c6.2,10.3,9.3,18,9.3,23.3
		c0,10.5-5.4,19.3-16.3,26.1l-2.3,6.4v5.8c0,7.4,4.9,12.7,14.6,15.7h8.7c9.5,0,24.2-9.7,44.2-29.1l1.8-2.9V235l-1.8-1.8L514,235
		h-0.6c-7.8-1.1-11.6-4.6-11.6-10.5v-3.5c0-7.3,4.1-12.7,12.3-16.3h2.9c4.2,0,10,4.8,17.4,14.5c3.3-1,10.1-4.9,20.4-11.6h1.2
		l1.2,1.2v6.4c0,4.5,3.7,7.7,11,9.3h2.3c8.7,0,15.5-5.8,20.4-17.4l1.7-1.2h1.2v1.2h0.6l-2.9,7v1.7c0,1.7,3.5,3.6,10.5,5.8h4.1
		c1.6-0.8,2.3-1.7,2.3-2.9l-2.9-6.4l2.3-8.1h1.2c2,0,3.5,4.5,4.7,13.4v2.3c-1.4,8.9-5.5,13.3-12.2,13.3h-0.6
		c-4.3-0.2-9.1-2.9-14.5-8.1c-5.6,7-11.8,10.5-18.6,10.5h-2.9c-5.8,0-9.8-4.4-12.2-13.3l-1.2-1.2h-1.2c-9.3,5.1-14,9.9-14,14.5
		c0,11.3-12.8,24.7-38.4,40.2c-6.8,2.7-12,4-15.7,4c-13.3,0-21.3-6.6-23.8-19.8l-0.6-4l1.2-9.9h-0.5l-29.1,15.7
		c-4.2,3.6-20.7,7.4-49.5,11.6H378v-0.6c5.7-3.2,16.9-7.7,33.7-13.3c42.6-22.3,64-36.2,64-41.9l-10.5-23.3l-4.1-11.1
		C462.3,177,463.4,173.9,464.6,173.9z M265.7,179.2h0.6c2.3,1.4,5,3.9,8.1,7.5v0.6c0,2.1-1.9,4.6-5.8,7.5c-4.5-2.8-7.4-5.6-8.8-8.1
		C261,183.8,262.9,181.3,265.7,179.2z M234.3,180.4l0.6,0.5l-2.3,9.3v3.5c0,3,1,5.4,2.9,7h1.8c0.6,0,1.4-1.2,2.3-3.5h0.5l0.6,0.6
		v0.5c-1.4,6.6-3,9.9-4.7,9.9h-1.8c-3.5-2.6-5.2-5.7-5.2-9.3C229.1,192.5,230.8,186.3,234.3,180.4z M440.1,182.1
		c0.8,0,1.2,0.6,1.2,1.8c-1.7,5.9-5.2,12.3-10.5,19.2v1.2c7.4,6.4,11.1,12,11.1,16.9c0,10.4-7,17.8-20.9,22.1h-1.8
		c-4.5,0-7.4-3.1-8.7-9.3c0-5,2.1-12.8,6.4-23.3V210c-9.7-9.9-14.5-15.9-14.5-18l1.2-7h2.3c8.1,3.4,12.6,5.9,13.3,7.5l-2.9,2.3
		c0,1,2.5,3,7.5,5.8c0.8,0,5.2-5.2,13.4-15.7L440.1,182.1z M181.9,183.9h1.8c3.9,4.7,5.8,9.4,5.8,14c-0.9,11.2-3.8,16.8-8.8,16.8
		l-8.1,2.9l-0.5,7.5h0.5c0,10.1-4.8,18.3-14.5,24.4c-14.9,12-29.5,18.1-43.7,18.1c-10.1,0-18.3-4.9-24.4-14.6
		c-2.3-4.1-3.5-7.4-3.5-9.8v-7c0.4-8.8,2.5-17.3,6.4-25.6h1.2v0.5l-3.5,18.1h0.5l-0.5,0.5v0.6c0,13.4,6.6,21.7,19.8,25l5.2,0.6
		c19.3,0,37-9.1,53-27.4V228c0-4.7-2.5-12.1-7.6-22.1v-1.8c0-4.2,0.6-6.4,1.8-6.4h0.5c3,5.4,6.3,8.1,9.9,8.1c7.3-1.1,11-2.6,11-4.7
		v-0.6l-4-9.8L181.9,183.9z M320.3,186.2c4,3.1,6.7,4.7,8.1,4.7l4.7-4.1l2.3-0.5c4.1,2.4,6.8,5.1,8.1,8.1c0,2.1-1.7,4.4-5.2,7h-2.3
		c-4.1-3.5-6.8-5.3-8.1-5.3l-4.7,4.7H321l-7.6-6.4v-1.8C315.6,188.3,318,186.2,320.3,186.2z M129.1,213.5c6.2,2.5,9.3,5.1,9.3,7.6
		c-1.8,5-3.2,7.5-4.1,7.5h-1.2c-3.2-1.7-5.7-3.8-7.5-6.4v-0.6C126.4,216.2,127.6,213.5,129.1,213.5z M415.7,223.9v5.3
		c0.9,1.9,2.8,2.9,5.8,2.9c9.3-3,14-6.2,14-9.3c-2.6-3.7-6.6-6.6-12.2-8.7C422,214.2,419.5,217.5,415.7,223.9z M512.2,217l-2.9,2.9
		v1.2c0,1,1.9,1.8,5.8,2.3h2.9c2.8,0,4.4-0.6,4.7-1.8C520.9,218.5,517.4,217,512.2,217z M113.9,217h0.5v1.2l-2.9,9.3
		c0.9,6.2,2.2,9.3,4,9.3h0.6l3.5-3.5v0.6c0,4.8-1.4,8-4.1,9.8c-4.2,0-6.4-3.7-6.4-11C109.3,227.1,110.8,221.8,113.9,217z
		 M271.5,217.6v0.5l5.8,5.8h1.8c2.1,0,4.6-1.6,7.5-4.7c-1.3-1.1-4.6-1.7-9.8-1.7H271.5z M187.8,240.8h2.3c3.4,2.1,5.9,4.2,7.6,6.4
		c-0.9,5.1-2.8,7.6-5.8,7.6h-1.2l-7.6-5.8C184.4,244.1,185.9,241.4,187.8,240.8z M364,244.9l0.5,0.6l-4.7,11
		c0.8,3.5,1.6,5.3,2.3,5.3h0.6l3.5-1.2v1.2c-1.2,4.7-3.2,7-5.8,7c-1.8,0-3.1-2.1-4.1-6.4C359.1,250.7,361.7,244.9,364,244.9z
		 M273.8,245.5l0.6,0.5v0.6c-3.5,6.9-5.3,11.1-5.3,12.8c0,4.7,1.6,7,4.7,7l2.3-2.9h0.6v0.6c0,3.7-1.6,6.6-4.7,8.7h-0.6
		c-3.9-0.6-5.8-3.9-5.8-9.8C268.3,252.9,271,247.1,273.8,245.5z M598.3,246.7l0.6,1.7c0,5.4-2.7,9.5-8.1,12.3
		c-1.6-0.8-3.7-1.2-6.4-1.2c-1.6,1.9-4.1,2.9-7.5,2.9c-1.2,0-2.8-0.8-4.7-2.3h-3.5c-2.4,0-9.7,4.1-22.1,12.3L539,274h-1.7v-0.5
		l29.6-18.6l5.8-1.2l7,2.9c2.2,0,5.1-2.1,8.8-6.4h0.5c0,2,1.4,3.4,4.1,4c1.3,0,2.6-2.3,4-7l0.6-0.5H598.3z M176.1,259.5l1.2,1.2
		c0,3.6-4.3,6.5-12.8,8.7c-3.8,2.7-12.1,6.2-25,10.5l-0.6-0.5h-0.5c0-3.3,5.4-6.6,16.3-9.9C166,263.5,173.1,260.2,176.1,259.5z"/>
</g>
</svg>
