<?xml version="1.0" encoding="utf-8"?>
<!-- Generator: Adobe Illustrator 25.2.3, SVG Export Plug-In . SVG Version: 6.00 Build 0)  -->
<svg version="1.1" xmlns="http://www.w3.org/2000/svg" xmlns:xlink="http://www.w3.org/1999/xlink" x="0px" y="0px"
	 viewBox="0 0 700 395" style="enable-background:new 0 0 700 395;" xml:space="preserve">
<style type="text/css">
	.st0{fill:#000222;}
	.st1{fill:#FFFFFF;}
</style>
<g id="Layer_1">
	<rect class="st0" width="700" height="395"/>
</g>
<g id="Layer_3">
	<g>
		<path class="st1" d="M273.5,368.6l1.1,4.2c0.2,0.9,0.5,1.8,0.6,2.6h0.1c0.2-0.8,0.5-1.7,0.7-2.6l1.3-4.2h1.3l1.3,4.1
			c0.3,1,0.5,1.9,0.7,2.7h0.1c0.1-0.8,0.4-1.7,0.6-2.7l1.2-4.1h1.5l-2.7,8.2H280l-1.3-3.9c-0.3-0.9-0.5-1.7-0.7-2.7h0
			c-0.2,1-0.5,1.8-0.7,2.7l-1.3,3.9h-1.4l-2.5-8.2H273.5z"/>
		<path class="st1" d="M286.3,368.6l1.1,4.2c0.2,0.9,0.5,1.8,0.6,2.6h0.1c0.2-0.8,0.5-1.7,0.7-2.6l1.3-4.2h1.3l1.3,4.1
			c0.3,1,0.5,1.9,0.7,2.7h0.1c0.1-0.8,0.4-1.7,0.6-2.7l1.2-4.1h1.5l-2.7,8.2h-1.4l-1.3-3.9c-0.3-0.9-0.5-1.7-0.7-2.7h0
			c-0.2,1-0.5,1.8-0.7,2.7l-1.3,3.9h-1.4l-2.5-8.2H286.3z"/>
		<path class="st1" d="M299,368.6l1.1,4.2c0.2,0.9,0.5,1.8,0.6,2.6h0.1c0.2-0.8,0.5-1.7,0.7-2.6l1.3-4.2h1.3l1.3,4.1
			c0.3,1,0.5,1.9,0.7,2.7h0.1c0.1-0.8,0.4-1.7,0.6-2.7l1.2-4.1h1.5l-2.7,8.2h-1.4l-1.3-3.9c-0.3-0.9-0.5-1.7-0.7-2.7h0
			c-0.2,1-0.5,1.8-0.7,2.7l-1.3,3.9h-1.4l-2.5-8.2H299z"/>
		<path class="st1" d="M309.9,375.9c0-0.6,0.4-1.1,1-1.1c0.6,0,1,0.4,1,1.1c0,0.6-0.4,1.1-1,1.1C310.3,377,309.9,376.5,309.9,375.9z
			"/>
		<path class="st1" d="M313.5,375.3c0.4,0.3,1.2,0.6,2,0.6c1.1,0,1.6-0.5,1.6-1.2c0-0.7-0.4-1.1-1.5-1.5c-1.5-0.5-2.2-1.3-2.2-2.3
			c0-1.3,1.1-2.4,2.8-2.4c0.8,0,1.6,0.2,2,0.5l-0.4,1.1c-0.3-0.2-0.9-0.5-1.7-0.5c-0.9,0-1.4,0.5-1.4,1.1c0,0.7,0.5,1,1.6,1.4
			c1.4,0.5,2.2,1.3,2.2,2.5c0,1.4-1.1,2.5-3.1,2.5c-0.9,0-1.7-0.2-2.3-0.6L313.5,375.3z"/>
		<path class="st1" d="M327.4,374.6c0,0.9,0,1.6,0.1,2.2h-1.3l-0.1-1.3h0c-0.4,0.7-1.3,1.5-2.7,1.5c-1.3,0-2.8-0.7-2.8-3.6v-4.8h1.5
			v4.6c0,1.6,0.5,2.6,1.8,2.6c1,0,1.7-0.7,2-1.4c0.1-0.2,0.1-0.5,0.1-0.8v-5h1.5V374.6z"/>
		<path class="st1" d="M329.8,371.1c0-1,0-1.8-0.1-2.6h1.3l0.1,1.6h0.1c0.4-1.1,1.3-1.8,2.3-1.8c0.2,0,0.3,0,0.4,0.1v1.4
			c-0.2,0-0.3-0.1-0.5-0.1c-1.1,0-1.8,0.8-2,1.9c0,0.2-0.1,0.4-0.1,0.7v4.4h-1.5V371.1z"/>
		<path class="st1" d="M339.9,376.8l-0.1-1h-0.1c-0.5,0.6-1.3,1.2-2.5,1.2c-1.7,0-2.5-1.2-2.5-2.4c0-2,1.8-3.1,4.9-3.1v-0.2
			c0-0.7-0.2-1.9-1.9-1.9c-0.8,0-1.6,0.2-2.1,0.6l-0.3-1c0.7-0.4,1.7-0.7,2.7-0.7c2.5,0,3.1,1.7,3.1,3.4v3.1c0,0.7,0,1.4,0.1,2
			H339.9z M339.7,372.6c-1.6,0-3.5,0.3-3.5,1.9c0,1,0.6,1.4,1.4,1.4c1.1,0,1.8-0.7,2-1.4c0.1-0.2,0.1-0.3,0.1-0.5V372.6z"/>
		<path class="st1" d="M343.5,364.7h1.5v5.1h0c0.2-0.4,0.6-0.8,1.1-1.1c0.4-0.3,1-0.4,1.5-0.4c1.1,0,2.9,0.7,2.9,3.5v4.9H349v-4.7
			c0-1.3-0.5-2.4-1.9-2.4c-1,0-1.7,0.7-2,1.5c-0.1,0.2-0.1,0.4-0.1,0.7v5h-1.5V364.7z"/>
		<path class="st1" d="M358.6,375.5L358.6,375.5c-0.5,0.8-1.4,1.5-2.7,1.5c-1.9,0-3.5-1.7-3.5-4.2c0-3.1,2-4.4,3.7-4.4
			c1.3,0,2.1,0.6,2.5,1.4h0l0.1-1.2h1.4c0,0.7-0.1,1.4-0.1,2.3v9.3h-1.5V375.5z M358.6,371.9c0-0.2,0-0.4-0.1-0.6
			c-0.2-0.9-1-1.7-2.1-1.7c-1.5,0-2.5,1.3-2.5,3.2c0,1.6,0.8,3.1,2.4,3.1c1,0,1.8-0.6,2.1-1.6c0.1-0.2,0.1-0.5,0.1-0.7V371.9z"/>
		<path class="st1" d="M369.4,374.6c0,0.9,0,1.6,0.1,2.2h-1.3l-0.1-1.3h0c-0.4,0.7-1.3,1.5-2.7,1.5c-1.3,0-2.8-0.7-2.8-3.6v-4.8h1.5
			v4.6c0,1.6,0.5,2.6,1.8,2.6c1,0,1.7-0.7,2-1.4c0.1-0.2,0.1-0.5,0.1-0.8v-5h1.5V374.6z"/>
		<path class="st1" d="M371.9,371.1c0-1,0-1.8-0.1-2.6h1.3l0.1,1.6h0.1c0.4-1.1,1.3-1.8,2.3-1.8c0.2,0,0.3,0,0.4,0.1v1.4
			c-0.2,0-0.3-0.1-0.5-0.1c-1.1,0-1.8,0.8-2,1.9c0,0.2-0.1,0.4-0.1,0.7v4.4h-1.5V371.1z"/>
		<path class="st1" d="M381.9,376.8l-0.1-1h-0.1c-0.5,0.6-1.3,1.2-2.5,1.2c-1.7,0-2.5-1.2-2.5-2.4c0-2,1.8-3.1,4.9-3.1v-0.2
			c0-0.7-0.2-1.9-1.9-1.9c-0.8,0-1.6,0.2-2.1,0.6l-0.3-1c0.7-0.4,1.7-0.7,2.7-0.7c2.5,0,3.1,1.7,3.1,3.4v3.1c0,0.7,0,1.4,0.1,2
			H381.9z M381.7,372.6c-1.6,0-3.5,0.3-3.5,1.9c0,1,0.6,1.4,1.4,1.4c1.1,0,1.8-0.7,2-1.4c0.1-0.2,0.1-0.3,0.1-0.5V372.6z"/>
		<path class="st1" d="M385.6,370.8c0-0.9,0-1.5-0.1-2.2h1.3l0.1,1.4h0c0.4-0.8,1.4-1.5,2.7-1.5c1.1,0,2.9,0.7,2.9,3.5v4.9h-1.5
			v-4.7c0-1.3-0.5-2.4-1.9-2.4c-1,0-1.8,0.7-2,1.5c-0.1,0.2-0.1,0.4-0.1,0.7v4.9h-1.5V370.8z"/>
		<path class="st1" d="M394.6,375.9c0-0.6,0.4-1.1,1-1.1c0.6,0,1,0.4,1,1.1c0,0.6-0.4,1.1-1,1.1C395,377,394.6,376.5,394.6,375.9z"
			/>
		<path class="st1" d="M404.4,376.5c-0.4,0.2-1.3,0.5-2.4,0.5c-2.5,0-4.1-1.7-4.1-4.2c0-2.5,1.7-4.4,4.4-4.4c0.9,0,1.7,0.2,2.1,0.4
			l-0.3,1.2c-0.4-0.2-0.9-0.4-1.7-0.4c-1.9,0-2.9,1.4-2.9,3.1c0,1.9,1.2,3.1,2.9,3.1c0.8,0,1.4-0.2,1.8-0.4L404.4,376.5z"/>
		<path class="st1" d="M413.5,372.6c0,3-2.1,4.4-4.1,4.4c-2.2,0-3.9-1.6-3.9-4.2c0-2.8,1.8-4.4,4.1-4.4
			C411.9,368.4,413.5,370.1,413.5,372.6z M406.9,372.7c0,1.8,1,3.2,2.5,3.2c1.4,0,2.5-1.3,2.5-3.2c0-1.4-0.7-3.2-2.5-3.2
			S406.9,371.1,406.9,372.7z"/>
		<path class="st1" d="M415.4,370.8c0-0.9,0-1.5-0.1-2.2h1.3l0.1,1.3h0.1c0.5-0.8,1.2-1.5,2.6-1.5c1.1,0,2,0.7,2.3,1.6h0
			c0.3-0.5,0.6-0.8,0.9-1.1c0.5-0.4,1-0.6,1.8-0.6c1.1,0,2.7,0.7,2.7,3.6v4.8h-1.5v-4.7c0-1.6-0.6-2.5-1.8-2.5
			c-0.9,0-1.5,0.6-1.8,1.4c-0.1,0.2-0.1,0.5-0.1,0.7v5.1h-1.5v-4.9c0-1.3-0.6-2.3-1.7-2.3c-0.9,0-1.6,0.7-1.9,1.5
			c-0.1,0.2-0.1,0.5-0.1,0.7v5h-1.5V370.8z"/>
	</g>
</g>
<g id="Layer_4">
	<path class="st1" d="M248.3,108.3h0.6v1.2h0.6c0,3.6-8.9,8.7-26.8,15.5c-14.5,6.5-23.6,11.7-27.4,15.5c2.8,2.4,4.1,4.4,4.1,6
		l-2.4,2.9c-2.8,0-5-2-6.5-6c0-8.6,8.9-15.9,26.8-22C224.4,117.5,234.8,113.1,248.3,108.3z M271.6,118.4h1.8
		c6.5,11.9,10.7,20.6,12.6,26.3v0.6l-1.2,1.2l-4.2-3h-1.2c6,36.9,9,59.3,9,67.5v6l0.6,2.4l-1.2,9.5l0.6,0.6h1.2
		c8.7-10.1,17.6-16.2,26.8-18.5l3.6-0.6c15.1,3.1,22.7,8.1,22.7,15c0,3.8-1.2,9.6-3.6,17.3v0.6h1.2c9.5-2.7,14.3-6.4,14.3-11.4
		c0-6.2-5-40.6-14.9-103.2c1.1-4.8,2.3-7.2,3.6-7.2h0.6c5.6,9,9.4,17.3,11.4,25.1v1.2l-0.6,0.6l-2.9-1.8h-1.8
		c6,39.2,9.6,65.3,10.7,78.1c0,15.4-9.1,25.9-27.4,31.7c-23.9,6.7-42.7,10.1-56.6,10.1c-19.1,0-31.1-8.9-35.8-26.8l-0.6-2.4h-0.6
		l-4.8,11.3c-8,12.3-19.1,21.2-33.4,26.9l-25.7,6.5l-0.6-0.6v-1.2c0.6-0.9,6.3-3.9,17.3-9l19.1-11.9c11.3-7.9,18.7-16.4,22.1-25.6
		c-0.8-0.5-2.8-4.7-6-12.6c-1.3-4.6-13.7-18.1-37-40.6c-13-12.9-22.9-24.6-29.8-35.2c-2.2,0-3.6-4-4.2-11.9l0.6-1.8h1.2
		c15.9,10,23.9,16.2,23.9,18.5l-0.6,0.6h-0.6l-6.6-1.2v1.2c0,1.4,16.3,18.5,48.9,51.3c6.6,8.1,10.2,15.2,10.7,21.5l0.6,0.6h0.6
		l0.6-0.6v-0.6c-1.6-21.7-4.8-49.6-9.5-83.5c0-5.2,1.2-10,3.6-14.3c1.2,0,2.9,7.7,5.3,23.2l10.7,85.9c2.4,7.5,6.8,12.9,13.1,16.1
		c2.9,2,6.1,2.9,9.5,2.9h0.6c0.8-0.1,4-3.4,9.5-10.1c2.2,0,3.6-5.8,4.1-17.3c0-11.3-4.6-44.5-13.7-99.6L271.6,118.4z M134.3,119.6
		c3.6,1.1,5.3,3.8,5.3,8.4l-1.8,2.4h-0.6l-4.1-3.6h-0.6l-2.4,2.4v4.2l0.6,2.4l-0.6,2.4v1.2l0.6,0.6c-0.8,6.2-1.8,11-3,14.3h-0.6
		c-3.9-7.1-7.7-11.8-11.4-14.3l-2.9,0.6c-2.4,0-4.6-2.2-6.6-6.6c1-4,2-6,3-6h0.6c3.8,0,9.4,4.6,16.7,13.8h0.6v-6.6
		C128.2,124.8,130.6,119.6,134.3,119.6z M313.3,120.8l0.6,0.6l-2.9,8.4v2.4c1,2.1,2.2,3.3,3.6,3.6l3.6-3v0.6c-1,6.4-3,9.5-6,9.5
		c-3-2.8-4.6-5.6-4.8-8.4C309,127,311,122.4,313.3,120.8z M370.6,120.8c5.3,8.6,9.4,17.8,12.5,27.4l-0.6,1.8h-1.2l-3.6-3h-1.2v4.2
		c7.2,49.8,10.7,77.9,10.7,84.1v3.6h0.6l-0.6,0.6v4.1c0,7.4-1.6,13.2-4.8,17.3h-0.6l-0.6-1.8l0.6-3.6l-0.6-0.6l0.6-0.6
		c-1.6-22.1-5.2-52.9-10.7-92.4l-4.8-31C368.1,124.2,369.5,120.8,370.6,120.8z M423.1,122c2.4,1,3.6,2.8,3.6,5.4v2.4l-0.6,8.4
		l5.4,6.5v1.8l-0.6,2.9h-1.2c-3.8-2.8-6.4-4.1-7.7-4.1c-11.1,11.2-19.5,17.4-25.1,18.5c-4.4,2.4-7.2,3.6-8.4,3.6v-0.6
		c0.8-1.9,9.2-7.9,25.1-17.9c3.2-3.1,4.8-5.5,4.8-7.2c-2.4-3.6-3.6-6.2-3.6-7.8C414.8,128.6,417.5,124.6,423.1,122z M552,123.8h1.2
		c2.8,1.9,4.1,4.4,4.1,7.7c-0.6,1.6-1.2,2.4-1.8,2.4h-1.2l-3.6-2.9h-0.6c-2.8,0-4.1,2.6-4.1,7.7c-1.1,13.7-2.3,21.5-3.6,23.3h-1.8
		c-4.3-11.9-9.5-17.9-15.5-17.9c-3.2-2.5-4.8-4.7-4.8-6.6c0.5-3.2,1.7-4.8,3.6-4.8c3.5,0,9.3,5.6,17.3,16.7
		c0.7-0.9,1.3-6.3,1.8-16.1C545.8,127,548.8,123.8,552,123.8z M595.5,125.6c3.2,1.5,4.8,5.5,4.8,11.9v6c2.8,2.8,4.2,5,4.2,6.6
		c0,2-1,2.9-3,2.9c0-0.6-1.4-1.6-4.1-2.9c-20.9,18.7-36,28-45.3,28l-0.6,0.6h-0.6v-0.6c0-1.2,4.2-3.7,12.5-7.7
		c15.2-9.8,25-17.2,29.3-22.1v-1.2c-4-3.2-6-6.2-6-8.9C588.5,129.8,591.5,125.6,595.5,125.6z M501.9,126.2c0,4.2-3.2,7.4-9.5,9.5
		c-2.7,2.1-13.4,8.3-32.2,18.5l-12.6,7.8l-1.8-1.8c0-3.6,6-8.2,17.9-13.7l35.8-20.3H501.9z M418.3,131.6v0.6l2.9,2.9h0.6l1.8-1.8
		v-1.2l-2.4-3h-0.6L418.3,131.6z M590.2,135.1c0,2.6,2,4.4,6,5.4l0.6-0.6V137c0-2-1-3.4-2.9-4.2h-1.2L590.2,135.1z M334.8,143.5
		l1.8,1.8h0.6c0,3.5-7.4,7.5-22.1,11.9l-23.9,10.1l-1.2-1.8c0-4.3,7.2-8.3,21.5-11.9L334.8,143.5z M87.2,154.9H89v0.6l-4.2,23.9v7.2
		c0,3.3,1.4,6.1,4.2,8.4h1.8c0.8-0.1,2-2,3.6-6H95l0.6,1.8c-0.6,8.8-3.2,13.1-7.7,13.1c-4.8-1.9-7.2-7.7-7.2-17.3
		C80.7,180.1,82.8,169.6,87.2,154.9z M508.4,161.4v0.6l-2.9,10.1v3.6c0,2.8,1.4,5.2,4.1,7.2h0.6c2-1.1,2.9-2.7,2.9-4.8h1.2
		c0,5.5-1.6,9.3-4.8,11.4h-2.4c-3.2-2.4-4.8-5.6-4.8-9.5v-4.2C505,166.2,506.9,161.4,508.4,161.4z M145.1,163.8h1.2
		c6.3,3.7,9.4,6.7,9.5,9c-2.4,4.8-4.6,7.2-6.6,7.2l-7.7-4.8l-7.2,7.2c-3.4-0.5-7-2.7-10.7-6.6c0-3.7,1.8-6.7,5.3-8.9l8.4,4.8h1.2
		L145.1,163.8z M430.3,166.2c6.4,2.2,9.5,5.2,9.5,9c0,1.4-1.6,3.8-4.8,7.2h-1.8c-4-3.6-6.6-5.4-7.7-5.4c-3,4.8-5,7.2-6,7.2
		c-4.9-2.4-8.1-5.2-9.5-8.4c2-5.1,3.6-7.7,4.8-7.7h1.8l6.6,4.1h2.4C425.5,170.6,427.1,168.7,430.3,166.2z M595.5,168.5h1.8l-3,8.4
		v4.8c0,3.1,0.8,4.9,2.4,5.4c1.5,0,3.1-1,4.8-3l0.6,0.6c0,3.4-1.8,6.6-5.4,9.5c-3,0-5-3.2-6-9.5C591.4,179.6,593,174.2,595.5,168.5z
		 M260.8,174h1.2v0.6l-3,11.9v2.4c0,4.7,1.2,7.7,3.6,9h1.2l0.6-0.6c0.8,0,1.2-1,1.2-2.9l0.6-0.6h1.2l0.6,1.8c-1.6,6.4-3,9.5-4.2,9.5
		H262c-4-2.8-6-6.2-6-10.2v-2.9C256.1,188.1,257.6,182.1,260.8,174z M328.8,174h0.6c2.8,4.7,4.2,8.5,4.2,11.3
		c0,5.8-1.8,9.2-5.4,10.2h-0.6l-6.6-1.8c-3.8,2.8-6.4,4.2-7.7,4.2h-1.2c-3.2-1.8-4.8-4.1-4.8-7.2c0.6-7.2,1.6-10.7,2.9-10.7
		c0.4,7.2,1.2,10.7,2.4,10.7h1.8c3.6,0,5.3-1.8,5.3-5.4v-0.6l-0.6-6.6c0.5-2.4,1.1-3.6,1.8-3.6c1.2,0.4,1.8,1.6,1.8,3.6v6
		c0.8,1.6,2,2.8,3.6,3.6h1.8l1.2-1.2l-1.8-8.4L328.8,174z M464.9,178.7h0.6l13.1,13.7v1.2H475l-1.2,1.2c6.4,12.3,9.5,20.1,9.5,23.3
		c0,12.5-5.4,21.7-16.1,27.4l-3,8.4l0.6,0.6v0.6l-0.6,2.4c2.7,11.5,8.4,17.3,17.3,17.3h2.4c15.3,0,32.4-11.1,51.3-33.4v-1.8
		l-1.8-1.8c-6.4,1.6-11.5,2.4-15.5,2.4h-0.6c-8.4,0-12.6-4.4-12.6-13.1c2.1-11.9,6.9-17.9,14.3-17.9h1.8c3.9,0,9.4,4.6,16.7,13.8
		h1.8c1.8,0,8.3-4,19.7-11.9h1.2l1.2,1.8v6c1.8,6.8,6.4,10.2,13.7,10.2h0.6c7.7,0,14.1-5.8,19.1-17.3l2.9-2.4l0.6,0.6h0.6l-2.4,7.7
		v1.2c1.6,2.8,5,4.7,10.2,6h5.3l1.8-1.8l-3-7.8c1.3-5.6,2.5-8.4,3.6-8.4c2.4,3.1,4.2,7.1,5.4,11.9l-0.6,0.6v2.4l0.6,0.6
		c-2.2,9.5-5.8,14.3-10.7,14.3H605c-3,0-7.3-2.6-13.1-7.7c-0.7,0-2.3,1.8-4.8,5.3c-5.8,4-10.4,6-13.7,6h-3.6
		c-8.8-3.1-13.1-7.8-13.1-14.3l-1.8-1.2c-9.5,5.9-14.3,10.7-14.3,14.3c0,12.9-13.3,27.4-39.9,43.6c-6.5,2.8-12.9,4.1-19.1,4.1
		c-10.8-2.7-16.1-5.6-16.1-8.9c-1.8,0-3.5-5.4-5.3-16.1l1.2-8.9l-0.6-0.6h-1.2c-25.5,16.7-43.9,25.1-55.4,25.1
		c-5.2,1.6-13.8,3.2-25.7,4.8v-0.6c2.4-2.2,14-6.9,34.6-14.3c23.1-11.8,42.4-23.8,57.9-35.8c4.6-4.1,7-6.7,7.2-7.8
		c0-1.5-4-10.3-11.9-26.3l-3-8.9v-3L464.9,178.7z M439.8,187.1h1.2l0.6,0.6h0.6c0,4.7-3.6,11.9-10.7,21.5v0.6
		c8,6.1,11.9,12.1,11.9,17.9c-1.6,9.9-4.2,14.9-7.8,14.9c-5.8,5.2-11.4,7.8-16.7,7.8c-4,0-6.4-3.4-7.2-10.2c0-7.8,2-15.1,6-22v-0.6
		c0-1.9-3.6-5.8-10.7-11.9l-4.1-4.8V193l0.6-3h1.8c9.5,4.5,14.3,7.1,14.3,7.8v0.6c0,0.8-0.8,1.2-2.4,1.2v1.8l6,4.8h0.6
		c2.4,0,6.4-4.6,11.9-13.8C438.4,190.1,439.8,188.3,439.8,187.1z M154,189.5c5.4,0,11.4,5.8,17.9,17.3c3.2,5.8,4.8,11.6,4.8,17.3
		c0,16.3-15.9,31.2-47.7,44.7c-5.4,2.4-11.5,3.6-18.5,3.6c-14,0-23.5-6.5-28.6-19.6c-1.2-2.6-1.8-5.8-1.8-9.5v-6
		c0-10.1,2.4-18.7,7.2-25.7h1.2l-4.1,23.9c0,6.6,2.8,12.8,8.4,18.5c5.3,4.3,11.5,6.5,18.5,6.5c18,0,37.3-9.3,57.9-28l2.4-3.6v-2.4
		c0-4.8-5-7.2-15-7.2v0.6l-0.6-0.6h-0.6l-6,0.6c-7.2-1.5-10.7-5.1-10.7-10.7v-1.8C140,195.4,145.2,189.5,154,189.5z M145.6,204.3
		v1.2c0,0.7,1.2,1.5,3.6,2.4c6.8-0.5,10.2-1.3,10.2-2.4c-3.5-2.8-6.5-4.1-9-4.1h-1.2L145.6,204.3z M118.2,209.1h0.6l-2.4,13.1
		c0,5.4,1.6,9,4.8,10.7h1.8c0-1.6,0.8-2.8,2.4-3.6l0.6,0.6v0.6c-0.7,6.4-2.1,9.5-4.2,9.5h-2.4c-3.6-2.5-5.3-5.5-5.3-8.9v-3.6
		l-0.6-0.6C114.8,217.1,116.3,211.2,118.2,209.1z M200,212.7h0.6l1.2,1.2l-4.1,15.5c0,4,1.4,7,4.1,9h1.2l3.6-4.2h0.6v4.2
		c-1.3,4.8-2.7,7.2-4.2,7.2h-0.6c-5.2,0-7.8-3.4-7.8-10.2v-0.6C194.6,226.9,196.4,219.5,200,212.7z M421.3,238.4
		c4.4,0,9.8-2.8,16.1-8.4v-0.6c-0.3-2-4.5-5.1-12.6-9.5c-3.5,1.8-6.3,5.8-8.4,11.9v3.6C417.2,237.4,418.8,238.4,421.3,238.4z
		 M515.5,221.7l-2.9,2.9v1.8l4.1,1.2h7.8l1.8-1.2C526.3,223.6,522.7,222.1,515.5,221.7z M278.7,252.1v1.8h3.6
		c16.9,0,33.2-4.8,48.9-14.3c3.2-3.1,4.8-5.5,4.8-7.2c-4.9-6.8-11.5-10.2-19.7-10.2c-11.4,0-23.1,9-35.2,26.9L278.7,252.1z
		 M603.3,250.9h0.6l1.2,1.2v1.2c-1.8,7.6-4.5,11.4-8.4,11.4l-6.5-0.6c-3,2-5.2,3-6.6,3H583c-1.5,0-3.3-0.8-5.4-2.4h-2.4
		c-2.3,0-10.4,4.4-24.4,13.1l-7.8,2.4l-0.6-0.6V279l30.4-19.7l6-1.2c3.3,2,5.7,3,7.2,3c3-1.1,5.8-3.4,8.4-7.2h0.6
		c0,2.8,1.4,4.1,4.1,4.1h0.6C600.5,258,601.7,255.6,603.3,250.9z M182.1,256.3l0.6,0.6v0.6c0,4.3-3.8,7.5-11.3,9.5
		c-20.4,10.3-31.8,15.5-34,15.5V279C137.3,277.5,152.2,270,182.1,256.3z M358,256.3h2.4c1.6,0.6,2.4,2,2.4,4.1v0.6
		c0,8-4.2,14.3-12.5,19.1h-0.6v-1.8l9.5-11.3v-1.8l-1.8-1.8l-3.6,2.9h-1.2v-0.6C352.7,262,354.5,258.8,358,256.3z M239.9,262.3
		c2,0.5,3,1.9,3,4.1v1.2c0,5.4-3.4,10.9-10.2,16.7h-1.2v-0.6l7.8-11.4V270c-1.5,0-3.3,1-5.4,3l-0.6-0.6v-0.6
		C233.4,268.2,235.6,265.1,239.9,262.3z"/>
</g>
</svg>
