<?xml version="1.0" encoding="utf-8"?>
<!-- Generator: Adobe Illustrator 25.2.3, SVG Export Plug-In . SVG Version: 6.00 Build 0)  -->
<svg version="1.1" xmlns="http://www.w3.org/2000/svg" xmlns:xlink="http://www.w3.org/1999/xlink" x="0px" y="0px"
	 viewBox="0 0 700 395" style="enable-background:new 0 0 700 395;" xml:space="preserve">
<style type="text/css">
	.st0{fill:#000222;}
	.st1{fill:#FFFFFF;}
</style>
<g id="Layer_1">
	<rect class="st0" width="700" height="395"/>
</g>
<g id="Layer_3">
	<g>
		<path class="st1" d="M273.5,368.6l1.1,4.2c0.2,0.9,0.5,1.8,0.6,2.6h0.1c0.2-0.8,0.5-1.7,0.7-2.6l1.3-4.2h1.3l1.3,4.1
			c0.3,1,0.5,1.9,0.7,2.7h0.1c0.1-0.8,0.4-1.7,0.6-2.7l1.2-4.1h1.5l-2.7,8.2H280l-1.3-3.9c-0.3-0.9-0.5-1.7-0.7-2.7h0
			c-0.2,1-0.5,1.8-0.7,2.7l-1.3,3.9h-1.4l-2.5-8.2H273.5z"/>
		<path class="st1" d="M286.3,368.6l1.1,4.2c0.2,0.9,0.5,1.8,0.6,2.6h0.1c0.2-0.8,0.5-1.7,0.7-2.6l1.3-4.2h1.3l1.3,4.1
			c0.3,1,0.5,1.9,0.7,2.7h0.1c0.1-0.8,0.4-1.7,0.6-2.7l1.2-4.1h1.5l-2.7,8.2h-1.4l-1.3-3.9c-0.3-0.9-0.5-1.7-0.7-2.7h0
			c-0.2,1-0.5,1.8-0.7,2.7l-1.3,3.9h-1.4l-2.5-8.2H286.3z"/>
		<path class="st1" d="M299,368.6l1.1,4.2c0.2,0.9,0.5,1.8,0.6,2.6h0.1c0.2-0.8,0.5-1.7,0.7-2.6l1.3-4.2h1.3l1.3,4.1
			c0.3,1,0.5,1.9,0.7,2.7h0.1c0.1-0.8,0.4-1.7,0.6-2.7l1.2-4.1h1.5l-2.7,8.2h-1.4l-1.3-3.9c-0.3-0.9-0.5-1.7-0.7-2.7h0
			c-0.2,1-0.5,1.8-0.7,2.7l-1.3,3.9h-1.4l-2.5-8.2H299z"/>
		<path class="st1" d="M309.9,375.9c0-0.6,0.4-1.1,1-1.1c0.6,0,1,0.4,1,1.1c0,0.6-0.4,1.1-1,1.1C310.3,377,309.9,376.5,309.9,375.9z
			"/>
		<path class="st1" d="M313.5,375.3c0.4,0.3,1.2,0.6,2,0.6c1.1,0,1.6-0.5,1.6-1.2c0-0.7-0.4-1.1-1.5-1.5c-1.5-0.5-2.2-1.3-2.2-2.3
			c0-1.3,1.1-2.4,2.8-2.4c0.8,0,1.6,0.2,2,0.5l-0.4,1.1c-0.3-0.2-0.9-0.5-1.7-0.5c-0.9,0-1.4,0.5-1.4,1.1c0,0.7,0.5,1,1.6,1.4
			c1.4,0.5,2.2,1.3,2.2,2.5c0,1.4-1.1,2.5-3.1,2.5c-0.9,0-1.7-0.2-2.3-0.6L313.5,375.3z"/>
		<path class="st1" d="M327.4,374.6c0,0.9,0,1.6,0.1,2.2h-1.3l-0.1-1.3h0c-0.4,0.7-1.3,1.5-2.7,1.5c-1.3,0-2.8-0.7-2.8-3.6v-4.8h1.5
			v4.6c0,1.6,0.5,2.6,1.8,2.6c1,0,1.7-0.7,2-1.4c0.1-0.2,0.1-0.5,0.1-0.8v-5h1.5V374.6z"/>
		<path class="st1" d="M329.8,371.1c0-1,0-1.8-0.1-2.6h1.3l0.1,1.6h0.1c0.4-1.1,1.3-1.8,2.3-1.8c0.2,0,0.3,0,0.4,0.1v1.4
			c-0.2,0-0.3-0.1-0.5-0.1c-1.1,0-1.8,0.8-2,1.9c0,0.2-0.1,0.4-0.1,0.7v4.4h-1.5V371.1z"/>
		<path class="st1" d="M339.9,376.8l-0.1-1h-0.1c-0.5,0.6-1.3,1.2-2.5,1.2c-1.7,0-2.5-1.2-2.5-2.4c0-2,1.8-3.1,4.9-3.1v-0.2
			c0-0.7-0.2-1.9-1.9-1.9c-0.8,0-1.6,0.2-2.1,0.6l-0.3-1c0.7-0.4,1.7-0.7,2.7-0.7c2.5,0,3.1,1.7,3.1,3.4v3.1c0,0.7,0,1.4,0.1,2
			H339.9z M339.7,372.6c-1.6,0-3.5,0.3-3.5,1.9c0,1,0.6,1.4,1.4,1.4c1.1,0,1.8-0.7,2-1.4c0.1-0.2,0.1-0.3,0.1-0.5V372.6z"/>
		<path class="st1" d="M343.5,364.7h1.5v5.1h0c0.2-0.4,0.6-0.8,1.1-1.1c0.4-0.3,1-0.4,1.5-0.4c1.1,0,2.9,0.7,2.9,3.5v4.9H349v-4.7
			c0-1.3-0.5-2.4-1.9-2.4c-1,0-1.7,0.7-2,1.5c-0.1,0.2-0.1,0.4-0.1,0.7v5h-1.5V364.7z"/>
		<path class="st1" d="M358.6,375.5L358.6,375.5c-0.5,0.8-1.4,1.5-2.7,1.5c-1.9,0-3.5-1.7-3.5-4.2c0-3.1,2-4.4,3.7-4.4
			c1.3,0,2.1,0.6,2.5,1.4h0l0.1-1.2h1.4c0,0.7-0.1,1.4-0.1,2.3v9.3h-1.5V375.5z M358.6,371.9c0-0.2,0-0.4-0.1-0.6
			c-0.2-0.9-1-1.7-2.1-1.7c-1.5,0-2.5,1.3-2.5,3.2c0,1.6,0.8,3.1,2.4,3.1c1,0,1.8-0.6,2.1-1.6c0.1-0.2,0.1-0.5,0.1-0.7V371.9z"/>
		<path class="st1" d="M369.4,374.6c0,0.9,0,1.6,0.1,2.2h-1.3l-0.1-1.3h0c-0.4,0.7-1.3,1.5-2.7,1.5c-1.3,0-2.8-0.7-2.8-3.6v-4.8h1.5
			v4.6c0,1.6,0.5,2.6,1.8,2.6c1,0,1.7-0.7,2-1.4c0.1-0.2,0.1-0.5,0.1-0.8v-5h1.5V374.6z"/>
		<path class="st1" d="M371.9,371.1c0-1,0-1.8-0.1-2.6h1.3l0.1,1.6h0.1c0.4-1.1,1.3-1.8,2.3-1.8c0.2,0,0.3,0,0.4,0.1v1.4
			c-0.2,0-0.3-0.1-0.5-0.1c-1.1,0-1.8,0.8-2,1.9c0,0.2-0.1,0.4-0.1,0.7v4.4h-1.5V371.1z"/>
		<path class="st1" d="M381.9,376.8l-0.1-1h-0.1c-0.5,0.6-1.3,1.2-2.5,1.2c-1.7,0-2.5-1.2-2.5-2.4c0-2,1.8-3.1,4.9-3.1v-0.2
			c0-0.7-0.2-1.9-1.9-1.9c-0.8,0-1.6,0.2-2.1,0.6l-0.3-1c0.7-0.4,1.7-0.7,2.7-0.7c2.5,0,3.1,1.7,3.1,3.4v3.1c0,0.7,0,1.4,0.1,2
			H381.9z M381.7,372.6c-1.6,0-3.5,0.3-3.5,1.9c0,1,0.6,1.4,1.4,1.4c1.1,0,1.8-0.7,2-1.4c0.1-0.2,0.1-0.3,0.1-0.5V372.6z"/>
		<path class="st1" d="M385.6,370.8c0-0.9,0-1.5-0.1-2.2h1.3l0.1,1.4h0c0.4-0.8,1.4-1.5,2.7-1.5c1.1,0,2.9,0.7,2.9,3.5v4.9h-1.5
			v-4.7c0-1.3-0.5-2.4-1.9-2.4c-1,0-1.8,0.7-2,1.5c-0.1,0.2-0.1,0.4-0.1,0.7v4.9h-1.5V370.8z"/>
		<path class="st1" d="M394.6,375.9c0-0.6,0.4-1.1,1-1.1c0.6,0,1,0.4,1,1.1c0,0.6-0.4,1.1-1,1.1C395,377,394.6,376.5,394.6,375.9z"
			/>
		<path class="st1" d="M404.4,376.5c-0.4,0.2-1.3,0.5-2.4,0.5c-2.5,0-4.1-1.7-4.1-4.2c0-2.5,1.7-4.4,4.4-4.4c0.9,0,1.7,0.2,2.1,0.4
			l-0.3,1.2c-0.4-0.2-0.9-0.4-1.7-0.4c-1.9,0-2.9,1.4-2.9,3.1c0,1.9,1.2,3.1,2.9,3.1c0.8,0,1.4-0.2,1.8-0.4L404.4,376.5z"/>
		<path class="st1" d="M413.5,372.6c0,3-2.1,4.4-4.1,4.4c-2.2,0-3.9-1.6-3.9-4.2c0-2.8,1.8-4.4,4.1-4.4
			C411.9,368.4,413.5,370.1,413.5,372.6z M406.9,372.7c0,1.8,1,3.2,2.5,3.2c1.4,0,2.5-1.3,2.5-3.2c0-1.4-0.7-3.2-2.5-3.2
			S406.9,371.1,406.9,372.7z"/>
		<path class="st1" d="M415.4,370.8c0-0.9,0-1.5-0.1-2.2h1.3l0.1,1.3h0.1c0.5-0.8,1.2-1.5,2.6-1.5c1.1,0,2,0.7,2.3,1.6h0
			c0.3-0.5,0.6-0.8,0.9-1.1c0.5-0.4,1-0.6,1.8-0.6c1.1,0,2.7,0.7,2.7,3.6v4.8h-1.5v-4.7c0-1.6-0.6-2.5-1.8-2.5
			c-0.9,0-1.5,0.6-1.8,1.4c-0.1,0.2-0.1,0.5-0.1,0.7v5.1h-1.5v-4.9c0-1.3-0.6-2.3-1.7-2.3c-0.9,0-1.6,0.7-1.9,1.5
			c-0.1,0.2-0.1,0.5-0.1,0.7v5h-1.5V370.8z"/>
	</g>
</g>
<g id="Layer_4">
	<path class="st1" d="M345.9,111h2.4c6.8,15.7,10.1,24.7,10.1,27h0.6l-1.2,1.8l-4.2-3l-0.6,0.6v0.6l8.9,67.6l1.2,15.6v1.8
		c-2.3,12.3-4.9,18.5-7.7,18.5c-3.7,2.8-8.5,4.2-14.4,4.2c-8.8-2.2-13.2-5.4-13.2-9.6c-0.8,0-1.2-0.6-1.2-1.8l-0.6-0.6h-0.6
		c-8.1,11.2-17.7,16.7-28.7,16.7h-3.6c-12.2,0-19.4-6.4-21.5-19.1v-4.2c0-3.1,0.6-6.1,1.8-8.9l-1.2-1.8c-15.5,5.6-23.3,9.6-23.3,12
		c-1,2.8-1.8,4.2-2.4,4.2h-1.8c0-1.6-0.6-2.4-1.8-2.4c-3.4,0-14.2,5.2-32.3,15.6c-3.4,2.3-13.2,12.1-29.4,29.3
		c-6.5,4.4-11.5,6.6-14.9,6.6h-1.2c-9.1,0-15.1-6.8-17.9-20.3V257c0-3.7,1.8-11.5,5.3-23.3l-1.2-1.2c-9.3,5.6-23.7,17.5-43.1,35.9
		c-5.3,2.4-9.7,3.6-13.2,3.6c-7.1,0-12.7-4.8-16.7-14.4l-1.2-7.2c0-5.6,4.6-16.6,13.8-32.9v-1.8c-2.9-3.6-4.7-8.8-5.4-15.6l0.6-2.4
		l-0.6-1.8c0-4.4,2.6-14.2,7.8-29.3h1.2l-4.2,22.7v3.6c0.6,10.4,2.4,15.6,5.4,15.6H97c1.3,0,2.7-2.4,4.1-7.2h1.2l0.6,1.8
		c0,6.9-3.4,13.1-10.2,18.6c-7.6,13.1-11.3,23.4-11.3,31.1c1.8,6.4,5,9.6,9.6,9.6h0.6c8.3,0,21.1-9,38.3-27
		c10.7-9,21.1-15.8,31.1-20.3c-3.6-6.1-6.5-17-8.9-32.9c0-3.8-0.6-7-1.8-9.6c1.3-6.4,2.5-9.6,3.6-9.6c7.2,8.7,10.8,15.4,10.8,20.3
		H164l-3.6-1.2l-1.2,1.8c0,9.5,3.2,17.7,9.6,24.6c12.3,7.2,18.5,11.4,18.5,12.5l0.6,6v1.2c0,1.4-0.6,2.6-1.8,3.6
		c-6.5-3.2-11.5-4.8-14.9-4.8H167c-7.3,0-12.3,9.6-14.9,28.7v6.6c0,6,2.8,8.9,8.4,8.9h4.1c6.2,0,19.9-11.6,41.3-34.7
		c6.4-4.4,16-9.5,28.7-15.6v-1.8c-11.6-9.4-17.4-15.7-17.4-19.1V199c2-11.2,8.6-16.7,19.8-16.7l5.3-0.6c17.8,0,38,3,60.5,9v0.6
		c0,7.5-4.6,12.9-13.8,16.2c-8.3,2.6-12.5,7.3-12.5,14.4v3c0,7.3,6.2,11.7,18.5,13.2h1.8c14.1,0,24.5-7,31.1-20.9l0.6-0.6h1.8
		l0.6,2.4l-0.6,4.2c2,6.4,6.4,9.6,13.2,9.6l2.4,0.6c7.6-1.5,11.3-3.9,11.3-7.2v-1.2c-8.3-65.1-13.1-99.8-14.4-104.1
		C342.8,118.9,343.8,115.7,345.9,111z M377.5,111c1.9,0,5.8,10.6,12,31.7v0.6h-1.2l-4.1-3l-0.6,0.6v0.6l10.2,80.7l-0.6,1.8l0.6,7.7
		c-1,11.6-2.4,17.4-4.2,17.4c-1.1,0-2.1-10.8-3-32.3l-13.2-96.9C374.7,114.3,376.1,111.3,377.5,111z M552.2,111
		c1.3,0,3.1,1.8,5.4,5.4v1.8c0,1.3-0.6,2.7-1.8,4.2l-4.8-3.6h-0.6c-2.8,0-4.2,2.6-4.2,7.7h0.6l-0.6,0.6v4.8
		c0,12.3-1.2,18.5-3.6,18.5c-5.4-12-11.4-17.9-17.9-17.9c-2.4-2.4-3.6-4.4-3.6-6c0.3-3.6,1.3-5.3,3-5.3c3.3,0,9.1,5,17.3,14.9h1.2
		v-5.3C542.6,119.7,545.8,113.1,552.2,111z M594.1,112.2h1.2c4,0,6,3.6,6,10.8v4.2l4.2,8.4v1.8l-1.2,1.8l-6-2.4h-0.6
		c-14.1,14-26.9,23.2-38.3,27.5l-7.2,1.8v-1.8c13.2-6.8,27.2-16.6,41.9-29.4v-0.6c-4.4-4.6-6.5-7.4-6.5-8.4v-1.2
		C587.5,119.8,589.7,115.6,594.1,112.2z M198.1,114.1c3.5,0,5.5,2.6,6,7.7l-0.6,1.8h-1.2l-4.8-1.2h-1.2v0.6l-0.6,4.2l0.6,6
		c-1.2,9.6-2.4,14.4-3.6,14.4c-6.2-11.6-12.2-17.4-17.9-17.4l-3.6-4.8c0.4-4.4,1.8-6.5,4.1-6.5c1.8,0,7.2,5,16.2,14.9h1.2v-6.5
		C193.9,118.5,195.7,114.1,198.1,114.1z M424.2,114.1c2,2.3,3,4.7,3,7.2l-0.6,9.6c4,3,6,5.6,6,7.7c-0.3,2-0.9,3-1.8,3h-0.6
		c-3.4-2.8-5.6-4.2-6.5-4.2l-15.6,14.4c-10.7,5.6-16.7,8.4-17.9,8.4h-0.6v-0.6c0.9-1.4,8.4-7,22.7-16.7c4.4-3.9,6.6-6.3,6.6-7.2
		v-1.2c-1.5-1.6-2.9-4.2-4.2-7.8C416.3,118.2,419.4,114.1,424.2,114.1z M500.2,115.3h1.8l0.6,2.4c0,2.6-11.6,10.4-34.7,23.3
		c-11.9,8-18.7,12-20.3,12v-1.2h-0.6c0-3.5,3.4-6.9,10.2-10.1L500.2,115.3z M237,117c10.4,0.6,15.6,2,15.6,4.2
		c0,4.6-5.2,10.2-15.6,16.7l-8.4,3v-1.8c2.9-2.9,6.5-5.5,10.8-7.8V129l-3-0.6h-6c-2.8,0.1-5.6,1-8.4,3h-1.2v-0.6
		C223.8,121.6,229.2,117,237,117z M123.3,117.7h0.6c3.2,2.2,4.8,4.6,4.8,7.2c-0.3,2-0.9,3-1.8,3l-6-2.4h-0.6l-0.6,4.2v4.8
		c-0.7,12.3-1.9,18.5-3.6,18.5c-6-10.7-10.4-16.1-13.2-16.1s-5.2-2.2-7.1-6.6c0.5-4,1.3-6,2.4-6c3.9,0,9.9,5.8,17.9,17.4h0.6v-7.8
		C116.7,123,118.9,117.7,123.3,117.7z M149.6,117.7v1.2l-3,12.5c0,5.1,1.4,8.5,4.2,10.2h0.6c1.2,0,1.8-0.8,1.8-2.4h1.8v0.6
		c-0.8,6-2,9-3.6,9h-1.8c-4-2.8-6-7.4-6-13.8C145.9,123.4,147.9,117.7,149.6,117.7z M333.3,118.2l1.8,1.8h0.6c0,4.1-3,6.7-8.9,7.7
		c-44.8,18.3-73.1,30.7-84.9,37.1l-0.6-1.8c0-5.3,6.4-10,19.1-14.4C276.9,140.4,301.2,130.2,333.3,118.2z M591.1,121.8v0.6
		c0.9,1.5,2.4,2.9,4.8,4.1h1.8v-3l-1.2-4.2h-3L591.1,121.8z M418.8,125.4c1.8,1.6,3.1,2.4,4.1,2.4l0.6-0.6v-3.6l-2.4-2.4
		C419.6,121.9,418.8,123.3,418.8,125.4z M323.7,142.8c0.9,0,2.5,4,4.8,12c-1,6-3.7,8.9-8.4,8.9l-4.1-1.8c-1.3,0-3.7,1.4-7.2,4.1
		l-2.4,0.6c-3.2-1-4.8-3.3-4.8-7.2c0.2-7.6,1-11.4,2.4-11.4h0.6v1.2l0.6,3l-0.6,3c0,2.8,1.4,4.2,4.2,4.2h0.6c2.2,0,3.6-3,4.2-9
		l-0.6-2.4l1.2-4.8h0.6c1.1,0,1.9,3.2,2.4,9.6c1.2,2.4,3,3.6,5.3,3.6l1.2-1.2c-1.2-3.8-1.8-7.2-1.8-10.1
		C322.5,143.6,323.1,142.8,323.7,142.8z M508.6,151.2h0.6v1.2l-1.8,8.9v3.6c1,4.4,2.2,6.6,3.6,6.6h1.8c0.6,0,1.4-1.6,2.4-4.8h1.2
		l0.6,1.8c-2,6.8-3.8,10.2-5.4,10.2H511c-3.2,0-5.6-3.2-7.2-9.6C503.8,164.1,505.4,158.1,508.6,151.2z M193.3,151.7h1.8
		c-2,9-3,16-3,21v0.6c0.2,7.9,2.4,12.3,6.6,13.2l3.6-6l1.2,1.2c-1.1,9.6-3.5,14.4-7.2,14.4h-1.2c-5.2-4.1-7.8-8.7-7.8-13.7v-3.6
		C187.3,171.8,189.3,162.8,193.3,151.7z M597.6,154.1h1.2v0.6l-2.4,8.4v4.8c0,3.2,1.4,4.8,4.2,4.8c0.9,0,1.5-1,1.8-3h0.6l0.6,0.6
		h0.6c0,4.5-2,7.7-6,9.6c-3.6-1.5-5.4-4.9-5.4-10.2C592.9,166.6,594.5,161.4,597.6,154.1z M432,157.1c4.9,2.4,8.1,5.2,9.6,8.4
		c0,2.6-1.8,5.4-5.4,8.4l-7.7-5.4h-1.2c-0.7,0-2.1,2.4-4.2,7.2h-1.2v0.6c-5.1-2.2-8.5-5-10.1-8.4c1.6-5.6,3.4-8.4,5.3-8.4l7.2,4.1
		h1.8L432,157.1z M467.2,169.1h0.6c8.3,7.6,12.5,12.3,12.5,14.4l-0.6,0.6l-3-0.6h-0.6v2.4c6.8,11.3,10.1,19,10.1,23.3l-0.6,0.6v5.3
		c0,5.8-3.8,11.8-11.4,17.9c-4,3.1-6,6.5-6,10.2v3.6c1.4,12,7.4,17.9,17.9,17.9c16.6,0,34.2-12,52.6-35.9v-0.6
		c-0.4-1.6-1.4-2.4-3-2.4l-12,2.4h-3c-8.8,0-13.2-3.2-13.2-9.6v-3c2-12.4,6.8-18.6,14.4-18.6c4.7,0,10.9,4.4,18.6,13.2h1.2
		c1.6,0,8-4,19.1-12l1.8-0.6l1.8,2.4l-0.6,3v1.2c0,6,4.2,9.5,12.6,10.8c9.6,0,16.8-6.2,21.5-18.5l2.4-1.8h0.6l0.6,0.6h0.6L600,202
		v2.4c0,2.1,3.6,3.9,10.8,5.4h4.8l1.8-1.8l-3-7.7c0.5-5.6,1.5-8.4,3-8.4c1.8,0,3.5,4,5.3,12v0.6c0,12-4,17.9-12,17.9h-0.6
		c-4.6,0-9.6-2.6-15-7.7h-1.2c-4.4,8-10.8,12-19.1,12c-10.4-2.1-15.6-6.9-15.6-14.4c-1.9,0-6.6,3.4-14.4,10.1
		c0,18.4-14.9,35.8-44.8,52.1l-11.4,2.4h-0.6c-10.4,0-17.5-4.4-21.5-13.2c-1.6-3.6-2.4-7.8-2.4-12.6l0.6-8.4l-27.5,16.7
		c-5.9,5.3-23.2,10.7-52,16.2h-2.4v-1.8c19.7-7.4,38.2-16.4,55.6-26.9c19.1-12.2,32.9-22.9,41.3-32.3l0.6-2.4
		c0-1.5-3.6-8.7-10.8-21.5l-5.3-13.2C465.2,171.9,466.2,169.1,467.2,169.1z M126.9,175.6h1.2l-1.2,9.6v5.4c0,2.4,1.4,4.6,4.1,6.5
		h1.8c0.2-2.8,0.8-4.1,1.6-4.1c0.9,0,1.3,0.6,1.3,1.8c-1,6.8-2.8,10.2-5.3,10.2c-3.1,0-5.5-4-7.2-12L126.9,175.6z M333.3,177.5
		c4.4,2.7,7.4,5.5,9,8.4v0.6c-1.5,2.8-3.7,5-6.6,6.6c-1.3,0-3.9-1.6-7.7-4.8h-1.2c-1.1,0-3.3,1.6-6.6,4.8h-1.2
		c-5.6-2.9-8.4-5.7-8.4-8.4c1.4-4.4,3.6-6.6,6.6-6.6l8.4,4.8C329.1,179.3,331.7,177.5,333.3,177.5z M442.8,178h1.2v0.6
		c0,4.5-3.2,11.9-9.6,22.1v0.6c8,6.4,12,11.8,12,16.1c0,8.9-3.8,15.5-11.4,19.8c-3.9,3.6-7.7,5.3-11.3,5.3c-4.6,0-7.6-4-9-12
		l0.6-0.6v-3.6c0-2.7,1.8-9.1,5.3-19.1c-10.7-8-16.1-14-16.1-17.9v-2.4c0-3.2,0.8-4.8,2.4-4.8l15.6,7.2c-0.9,1.6-1.9,2.4-3,2.4v1.2
		c0.1,0.6,1.9,2,5.4,4.1h3.6L442.8,178z M224.4,197.8v0.6l21,17.9c13.9-5.6,25.9-11,35.9-16.1v-1.8l-17.9-3.6l-2.4,0.6l-7.2-1.2v0.6
		l-0.6-0.6h-16.7C230.3,194.2,226.3,195.4,224.4,197.8z M515.7,213.4v0.6c0,1,1.8,1.8,5.3,2.4l7.8-1.2v-1.8c-2-2.4-4.8-3.6-8.4-3.6
		C517.5,211.3,516,212.5,515.7,213.4z M420,224.1v1.2c0,3.2,1.6,4.8,4.8,4.8c4.2,0,9.2-2.8,14.9-8.4v-0.6c0-2.9-4.2-6.1-12.5-9.6
		C422.4,215.7,420,219.9,420,224.1z M371.5,234.9h0.6l1.2,1.2l-3,10.1c0,4.8,1.4,7.2,4.2,7.2l3-3.6l0.6,0.6
		c-1.8,7.2-3.7,10.8-6,10.8c-3.6-1-5.4-4.4-5.4-10.2L371.5,234.9z M608.4,235.5h0.6l0.6,1.8c-2.2,9.1-4.6,13.7-7.2,13.7h-1.8
		l-4.8-1.2c-3,2.1-6,3.5-9,4.2l-4.1-2.4h-4.2c-1.8,0-9.3,4.6-22.7,13.7l-8.9,2.4v-1.2c21.6-14.7,33.2-22.1,34.7-22.1
		c3.5,1.6,6,2.4,7.7,2.4h2.4c1-0.1,3.3-2.4,7.2-7.2c0.3,2.8,1.7,4.1,4.2,4.1h1.2c1.2,0,1.8-1.8,1.8-5.3L608.4,235.5z M178.9,238.5
		c3.6,1.6,6.4,4,8.4,7.2c-1.4,3.8-3.4,6.4-6,7.7l-7.7-4.1c-0.7,0-2.6,2-5.4,6l-1.8,0.6c-3.8-2.1-6.6-4.3-8.4-6.5
		c2.1-5.6,4.3-8.4,6.5-8.4l7.8,3.6C175.9,240.5,178.1,238.5,178.9,238.5z M327.9,243.8h1.8v1.2h0.6l-3.6,8.4
		c0.3,4.8,1.1,7.2,2.4,7.2h1.8l1.8-1.2h1.2v1.2c0,2.6-1.6,4.9-4.8,7.2h-2.4c-1.5-0.5-3-2.9-4.2-7.2
		C323.7,255.1,325.5,249.5,327.9,243.8z M257.9,245.7c1.2,0,1.8,0.8,1.8,2.4h0.6c0,1.2-4.4,6.6-13.2,16.1v1.8c0,1,1.8,1.5,5.4,1.8
		c5.5,0,12-3,19.7-8.9h0.6v0.6c0,3.9-4.4,8.3-13.2,13.2c-3.1,1.6-6.5,2.4-10.3,2.4s-5.9-1.4-6.5-4.1c0-1.8,2.4-7.3,7.2-16.7h-1.8
		l-4.1,1.2l-0.6-1.8C243.5,249.2,248.3,246.6,257.9,245.7z M234.6,254.6v1.2c0,3.8-7,8.4-21,13.8l-12.5,7.2h-1.2l-1.2-1.2
		c0-2.8,5-6.4,14.9-10.8C225.7,258.1,232.7,254.7,234.6,254.6z M140.1,265.4v3c0,1.9-10.2,7.1-30.5,15.6l-1.8-0.6v-2.4
		C108.2,278.5,119,273.3,140.1,265.4z"/>
</g>
</svg>
