<?xml version="1.0" encoding="utf-8"?>
<!-- Generator: Adobe Illustrator 25.2.3, SVG Export Plug-In . SVG Version: 6.00 Build 0)  -->
<svg version="1.1" xmlns="http://www.w3.org/2000/svg" xmlns:xlink="http://www.w3.org/1999/xlink" x="0px" y="0px"
	 viewBox="0 0 700 395" style="enable-background:new 0 0 700 395;" xml:space="preserve">
<style type="text/css">
	.st0{fill:#000222;}
	.st1{fill:#FFFFFF;}
</style>
<g id="Layer_1">
	<rect class="st0" width="700" height="395"/>
</g>
<g id="Layer_3">
	<g>
		<path class="st1" d="M273.5,368.6l1.1,4.2c0.2,0.9,0.5,1.8,0.6,2.6h0.1c0.2-0.8,0.5-1.7,0.7-2.6l1.3-4.2h1.3l1.3,4.1
			c0.3,1,0.5,1.9,0.7,2.7h0.1c0.1-0.8,0.4-1.7,0.6-2.7l1.2-4.1h1.5l-2.7,8.2H280l-1.3-3.9c-0.3-0.9-0.5-1.7-0.7-2.7h0
			c-0.2,1-0.5,1.8-0.7,2.7l-1.3,3.9h-1.4l-2.5-8.2H273.5z"/>
		<path class="st1" d="M286.3,368.6l1.1,4.2c0.2,0.9,0.5,1.8,0.6,2.6h0.1c0.2-0.8,0.5-1.7,0.7-2.6l1.3-4.2h1.3l1.3,4.1
			c0.3,1,0.5,1.9,0.7,2.7h0.1c0.1-0.8,0.4-1.7,0.6-2.7l1.2-4.1h1.5l-2.7,8.2h-1.4l-1.3-3.9c-0.3-0.9-0.5-1.7-0.7-2.7h0
			c-0.2,1-0.5,1.8-0.7,2.7l-1.3,3.9h-1.4l-2.5-8.2H286.3z"/>
		<path class="st1" d="M299,368.6l1.1,4.2c0.2,0.9,0.5,1.8,0.6,2.6h0.1c0.2-0.8,0.5-1.7,0.7-2.6l1.3-4.2h1.3l1.3,4.1
			c0.3,1,0.5,1.9,0.7,2.7h0.1c0.1-0.8,0.4-1.7,0.6-2.7l1.2-4.1h1.5l-2.7,8.2h-1.4l-1.3-3.9c-0.3-0.9-0.5-1.7-0.7-2.7h0
			c-0.2,1-0.5,1.8-0.7,2.7l-1.3,3.9h-1.4l-2.5-8.2H299z"/>
		<path class="st1" d="M309.9,375.9c0-0.6,0.4-1.1,1-1.1c0.6,0,1,0.4,1,1.1c0,0.6-0.4,1.1-1,1.1C310.3,377,309.9,376.5,309.9,375.9z
			"/>
		<path class="st1" d="M313.5,375.3c0.4,0.3,1.2,0.6,2,0.6c1.1,0,1.6-0.5,1.6-1.2c0-0.7-0.4-1.1-1.5-1.5c-1.5-0.5-2.2-1.3-2.2-2.3
			c0-1.3,1.1-2.4,2.8-2.4c0.8,0,1.6,0.2,2,0.5l-0.4,1.1c-0.3-0.2-0.9-0.5-1.7-0.5c-0.9,0-1.4,0.5-1.4,1.1c0,0.7,0.5,1,1.6,1.4
			c1.4,0.5,2.2,1.3,2.2,2.5c0,1.4-1.1,2.5-3.1,2.5c-0.9,0-1.7-0.2-2.3-0.6L313.5,375.3z"/>
		<path class="st1" d="M327.4,374.6c0,0.9,0,1.6,0.1,2.2h-1.3l-0.1-1.3h0c-0.4,0.7-1.3,1.5-2.7,1.5c-1.3,0-2.8-0.7-2.8-3.6v-4.8h1.5
			v4.6c0,1.6,0.5,2.6,1.8,2.6c1,0,1.7-0.7,2-1.4c0.1-0.2,0.1-0.5,0.1-0.8v-5h1.5V374.6z"/>
		<path class="st1" d="M329.8,371.1c0-1,0-1.8-0.1-2.6h1.3l0.1,1.6h0.1c0.4-1.1,1.3-1.8,2.3-1.8c0.2,0,0.3,0,0.4,0.1v1.4
			c-0.2,0-0.3-0.1-0.5-0.1c-1.1,0-1.8,0.8-2,1.9c0,0.2-0.1,0.4-0.1,0.7v4.4h-1.5V371.1z"/>
		<path class="st1" d="M339.9,376.8l-0.1-1h-0.1c-0.5,0.6-1.3,1.2-2.5,1.2c-1.7,0-2.5-1.2-2.5-2.4c0-2,1.8-3.1,4.9-3.1v-0.2
			c0-0.7-0.2-1.9-1.9-1.9c-0.8,0-1.6,0.2-2.1,0.6l-0.3-1c0.7-0.4,1.7-0.7,2.7-0.7c2.5,0,3.1,1.7,3.1,3.4v3.1c0,0.7,0,1.4,0.1,2
			H339.9z M339.7,372.6c-1.6,0-3.5,0.3-3.5,1.9c0,1,0.6,1.4,1.4,1.4c1.1,0,1.8-0.7,2-1.4c0.1-0.2,0.1-0.3,0.1-0.5V372.6z"/>
		<path class="st1" d="M343.5,364.7h1.5v5.1h0c0.2-0.4,0.6-0.8,1.1-1.1c0.4-0.3,1-0.4,1.5-0.4c1.1,0,2.9,0.7,2.9,3.5v4.9H349v-4.7
			c0-1.3-0.5-2.4-1.9-2.4c-1,0-1.7,0.7-2,1.5c-0.1,0.2-0.1,0.4-0.1,0.7v5h-1.5V364.7z"/>
		<path class="st1" d="M358.6,375.5L358.6,375.5c-0.5,0.8-1.4,1.5-2.7,1.5c-1.9,0-3.5-1.7-3.5-4.2c0-3.1,2-4.4,3.7-4.4
			c1.3,0,2.1,0.6,2.5,1.4h0l0.1-1.2h1.4c0,0.7-0.1,1.4-0.1,2.3v9.3h-1.5V375.5z M358.6,371.9c0-0.2,0-0.4-0.1-0.6
			c-0.2-0.9-1-1.7-2.1-1.7c-1.5,0-2.5,1.3-2.5,3.2c0,1.6,0.8,3.1,2.4,3.1c1,0,1.8-0.6,2.1-1.6c0.1-0.2,0.1-0.5,0.1-0.7V371.9z"/>
		<path class="st1" d="M369.4,374.6c0,0.9,0,1.6,0.1,2.2h-1.3l-0.1-1.3h0c-0.4,0.7-1.3,1.5-2.7,1.5c-1.3,0-2.8-0.7-2.8-3.6v-4.8h1.5
			v4.6c0,1.6,0.5,2.6,1.8,2.6c1,0,1.7-0.7,2-1.4c0.1-0.2,0.1-0.5,0.1-0.8v-5h1.5V374.6z"/>
		<path class="st1" d="M371.9,371.1c0-1,0-1.8-0.1-2.6h1.3l0.1,1.6h0.1c0.4-1.1,1.3-1.8,2.3-1.8c0.2,0,0.3,0,0.4,0.1v1.4
			c-0.2,0-0.3-0.1-0.5-0.1c-1.1,0-1.8,0.8-2,1.9c0,0.2-0.1,0.4-0.1,0.7v4.4h-1.5V371.1z"/>
		<path class="st1" d="M381.9,376.8l-0.1-1h-0.1c-0.5,0.6-1.3,1.2-2.5,1.2c-1.7,0-2.5-1.2-2.5-2.4c0-2,1.8-3.1,4.9-3.1v-0.2
			c0-0.7-0.2-1.9-1.9-1.9c-0.8,0-1.6,0.2-2.1,0.6l-0.3-1c0.7-0.4,1.7-0.7,2.7-0.7c2.5,0,3.1,1.7,3.1,3.4v3.1c0,0.7,0,1.4,0.1,2
			H381.9z M381.7,372.6c-1.6,0-3.5,0.3-3.5,1.9c0,1,0.6,1.4,1.4,1.4c1.1,0,1.8-0.7,2-1.4c0.1-0.2,0.1-0.3,0.1-0.5V372.6z"/>
		<path class="st1" d="M385.6,370.8c0-0.9,0-1.5-0.1-2.2h1.3l0.1,1.4h0c0.4-0.8,1.4-1.5,2.7-1.5c1.1,0,2.9,0.7,2.9,3.5v4.9h-1.5
			v-4.7c0-1.3-0.5-2.4-1.9-2.4c-1,0-1.8,0.7-2,1.5c-0.1,0.2-0.1,0.4-0.1,0.7v4.9h-1.5V370.8z"/>
		<path class="st1" d="M394.6,375.9c0-0.6,0.4-1.1,1-1.1c0.6,0,1,0.4,1,1.1c0,0.6-0.4,1.1-1,1.1C395,377,394.6,376.5,394.6,375.9z"
			/>
		<path class="st1" d="M404.4,376.5c-0.4,0.2-1.3,0.5-2.4,0.5c-2.5,0-4.1-1.7-4.1-4.2c0-2.5,1.7-4.4,4.4-4.4c0.9,0,1.7,0.2,2.1,0.4
			l-0.3,1.2c-0.4-0.2-0.9-0.4-1.7-0.4c-1.9,0-2.9,1.4-2.9,3.1c0,1.9,1.2,3.1,2.9,3.1c0.8,0,1.4-0.2,1.8-0.4L404.4,376.5z"/>
		<path class="st1" d="M413.5,372.6c0,3-2.1,4.4-4.1,4.4c-2.2,0-3.9-1.6-3.9-4.2c0-2.8,1.8-4.4,4.1-4.4
			C411.9,368.4,413.5,370.1,413.5,372.6z M406.9,372.7c0,1.8,1,3.2,2.5,3.2c1.4,0,2.5-1.3,2.5-3.2c0-1.4-0.7-3.2-2.5-3.2
			S406.9,371.1,406.9,372.7z"/>
		<path class="st1" d="M415.4,370.8c0-0.9,0-1.5-0.1-2.2h1.3l0.1,1.3h0.1c0.5-0.8,1.2-1.5,2.6-1.5c1.1,0,2,0.7,2.3,1.6h0
			c0.3-0.5,0.6-0.8,0.9-1.1c0.5-0.4,1-0.6,1.8-0.6c1.1,0,2.7,0.7,2.7,3.6v4.8h-1.5v-4.7c0-1.6-0.6-2.5-1.8-2.5
			c-0.9,0-1.5,0.6-1.8,1.4c-0.1,0.2-0.1,0.5-0.1,0.7v5.1h-1.5v-4.9c0-1.3-0.6-2.3-1.7-2.3c-0.9,0-1.6,0.7-1.9,1.5
			c-0.1,0.2-0.1,0.5-0.1,0.7v5h-1.5V370.8z"/>
	</g>
</g>
<g id="Layer_4">
	<path class="st1" d="M243.8,106.9h1.6c3.7,0,5.6,1.3,5.6,4c0,5-5.6,9.6-16.8,13.9l-1.1-1.1c0.1-1.2,3.3-3.6,9.5-7.2v-1.7l-2.2-0.5
		c-3.1,0-6.7,1.1-10.7,3.4v-1.7C229.8,109.9,234.5,106.9,243.8,106.9z M497,125.9h2.2c2.2,1.7,3.7,4,4.5,6.7c-0.3,1.9-1.1,3.2-2.2,4
		l-4.5-3.4c-2.6,0-3.9,3-3.9,8.9c0,13.8-1.1,20.6-3.4,20.6c-5.6-10.8-11-16.2-16.3-16.2c-3-2-4.5-4.4-4.5-7.3c0.8-2.2,2-3.5,3.4-3.9
		c3.1,0,8.5,4.6,16.3,13.9l1.1-6.1l-0.6-0.6C489.2,135.2,491.8,129.6,497,125.9z M539,125.9c3.7,1,5.6,6,5.6,15.1v1.1
		c2.6,3.2,3.9,5.4,3.9,6.7l-0.5,2.8h-1.7l-4.5-2.2c-18.3,17.2-32.7,26.6-43,28h-0.6v-0.5c3.1-2.9,9.4-7.3,19-13.3
		c9.6-6,16.3-11.6,20.1-16.9c-4.1-2.8-6.1-6-6.1-9.5C532.9,129.7,535.5,125.9,539,125.9z M298,127.1c7.5,15,11.2,23.9,11.2,26.8v1.7
		h-1.6l-2.8-2.2h-1.1v0.5c0,10.3,4.3,35.8,12.9,76.6h2.2l8.3-1.7c9.7,1,14.5,5.7,14.5,14c-1.3,10.4-4.7,15.7-10.1,15.7
		c-5.4,0-11.4-4.1-17.9-12.3H312c-13.4,6.7-22.7,10.1-28,10.1h-1.1c-7.6,0-14.8-3.6-21.8-10.7c-0.7,1-1.5,4-2.2,8.9
		c0,4.2-5.4,8-16.2,11.2c-11.5,0-18.8-7.8-21.8-23.5h-0.5c-8.2,12.4-23.9,21.9-47,28.6l-8.9,1.1c-16.7,0-26.6-8.9-29.7-26.8
		c0-6,2.2-13.8,6.7-23.5c-4.1-8-6.1-14.5-6.1-19.6c2.2-17.8,4.8-28.4,7.8-31.8h0.5v1.1c-2.6,13.2-3.9,22.2-3.9,26.8v1.6
		c1.3,7.5,3,11.2,5,11.2h1.7c1.3,0,2.5-2.4,3.4-7.2h1.1l0.5,0.5l0.6,1.7h0.5c-2,9.7-4.6,14.5-7.8,14.5c-3.3,5.9-5,13-5,21.2
		c3.9,10.4,8.4,15.7,13.4,15.7c2.8,1.8,6.2,2.8,10.1,2.8c17,0,34.2-7.3,51.4-21.8c1.5-1.6,2.2-3.1,2.2-4.5v-3.4
		c0-10.8-4.3-40.7-12.9-89.5c1-7.5,2.2-11.2,3.4-11.2h1.1c3.7,11.8,9.7,48.1,17.9,109c2.8,9.7,7.5,14.5,14,14.5c7,0,11.9-2,14.5-6.1
		v-4.5c0-3.9-5.2-38.5-15.7-104c0.4-7.5,1.4-11.2,2.8-11.2h1.1c4.5,15.3,9.1,41.1,14,77.7c3.4,20.1,6.4,30.2,8.9,30.2
		c4.4,6,9.8,8.9,16.2,8.9c10,0,19-3.2,26.8-9.5v-0.6c-5.2-26.7-10.1-58.4-14.5-95c-0.7,0-1.1-1.1-1.1-3.4
		C295,130.9,296.5,127.9,298,127.1z M335.5,127.1h0.5c7.8,14.7,11.7,23.8,11.8,27.4l-0.6,1.6h-0.5c-1.3,0-2.6-0.5-4-1.6h-1.1
		l5.1,32.9l-0.6,0.6v0.5c3.4,17.7,5.8,35.3,7.3,52.6l-0.6,2.8l0.6,0.5c-1.1,13.1-2.8,19.6-5.1,19.6c-0.7,0-1.1-1.5-1.1-4.5h-0.5
		l0.5-0.6v-10.6l-13.4-100.6c0-3.2-0.7-7.3-2.2-12.3C331.6,132.5,332.9,129.7,335.5,127.1z M377.4,129.3h1.1c0.6,0,1.8,2.1,3.4,6.2
		l-0.5,0.5v8.4c3.7,3,5.6,5.6,5.6,7.6c0,2-0.7,3-2.2,3c-3.3-2.2-5.5-3.4-6.7-3.4h-0.6c-8.7,9.1-15.4,14.7-20.1,16.8l-8.9,4h-1.1
		v-1.1c0-0.6,7.1-6.1,21.2-16.3l5.1-6.1c-2.6-3.4-4-6.2-4-8.4C369.6,134.2,372.2,130.5,377.4,129.3z M449.6,129.3
		c1.5,0.4,2.2,1.1,2.2,2.2c0,3.1-5,7.2-15.1,12.3c-22.1,14.6-33.8,21.8-35.2,21.8h-0.6l-0.5-1.7c0-3.3,5.6-8,16.8-13.9l32.4-20.1
		V129.3z M270.6,129.9h1.6v1.6l-1.6,9.5c0,4.2,1.3,7,3.9,8.3h1.1c0.7,0,1.5-1.1,2.2-3.4h1.1l0.6,2.2c0,3.5-1.5,6.5-4.5,8.9
		c-3.9,0-6.5-3.7-7.8-11.2l0.5-0.5v-2.2C267.8,140.3,268.8,135.9,270.6,129.9z M182.8,131.5c2.8,0,4.9,2.8,6.2,8.4
		c-0.5,1.7-1.2,2.7-2.2,2.8l-4.5-3.4h-1.7c0,18.9-4.1,30.9-12.3,35.8l-11.7,7.8h-1.1c0-2.6,4.6-7.5,13.9-14.5l4.5-5.6v-2.8
		c-3.4-8.9-8.2-13.4-14.5-13.4l-3.9-4.5c0-4.9,1.1-7.3,3.4-7.3c3,0,8.6,4.8,16.8,14.5h0.5C176.1,141.3,178.4,135.3,182.8,131.5z
		 M534.5,135.5c0,2.1,2,3.4,6.1,3.9V136c-0.9-1.8-2-2.8-3.4-2.8L534.5,135.5z M373.5,138.2v0.6c0.7,1.8,2,2.8,3.9,2.8v-3.9
		c0-0.7-0.5-1.1-1.6-1.1C374.3,137.1,373.5,137.7,373.5,138.2z M458.5,162.8l0.5,0.6l-2.2,7.8v5.6c1,4.1,2.3,6.1,4,6.1h0.5
		c0.6,0,1.6-1.7,2.8-5h1.1l0.5,1.6c-0.8,7.1-2.9,10.7-6.1,10.7c-4.1-1.3-6.2-5-6.2-11.2v-2.8C454.7,168.8,456.4,164.3,458.5,162.8z
		 M286.8,164.6h1.1c1.7,0.5,2.9,3.3,3.4,8.3l-0.5,6.7c2.2,2.9,3.4,4.9,3.4,6.2v0.5l-0.6,2.8h-2.2l-1.6-1.1h-1.1
		c-6,8.6-13.8,15.9-23.5,21.8h-1.7c0-2,5.4-7.8,16.3-17.3l5-7.3c0-0.7-1.9-2.4-5.6-5l-0.5-2.8C278.5,170.5,281.3,166.2,286.8,164.6z
		 M541.8,165.7h0.6l-2.8,10.1c0,3.6,1.1,6.2,3.4,7.8l4-4l0.5,0.6v1.6c-1,5.6-3.1,8.4-6.1,8.4h-0.6c-1.6,0-2.9-2.6-3.9-7.8v-2.2
		C536.8,175,538.4,170.2,541.8,165.7z M385.8,169c6.3,3.1,9.5,5.9,9.5,8.3v1.1c0,2.1-1.5,4.6-4.5,7.3h-1.6c-3.8-3.4-6.4-5.1-7.8-5.1
		c-1.2,3-2.7,5.2-4.5,6.7h-2.2c-5.2-3.3-7.8-6.1-7.8-8.3c0.7-2.8,2.2-5.3,4.5-7.3l8.3,4c1,0,2.7-2.1,5.1-6.2h1.1V169z M282.9,173.5
		c0,1.9,1.9,3.1,5.6,3.4v-1.1c0-1.9-0.6-3.1-1.7-3.4h-2.2L282.9,173.5z M419.4,180.2c8.2,7.1,12.3,11.7,12.3,13.9l-0.6,0.6h-3.4v0.5
		l7.3,14.5l2.2,7.8c0,11.2-4.5,19.8-13.4,25.7c-1.9,1.8-2.8,5.4-2.8,10.7c0,8.2,5,13.5,15.1,15.7h2.8c14,0,29.9-10.8,47.6-32.4
		l-0.6-2.8h-0.5c-8.1,1.5-14,2.2-17.9,2.2c-6.3,0-9.8-4.3-10.7-12.8c2.8-11.2,7.6-16.8,14.5-16.8c4.7,0,10.3,4.1,16.8,12.3h0.6
		c2.1,0,8.2-3.9,18.4-11.8h1.7c1.1,0,1.8,3.4,2.2,10.1c2.8,3.7,6.3,5.6,10.6,5.6h2.2c5.5,0,10.5-3.7,15.1-11.2
		c2.1-5.6,3.8-8.3,5-8.3h0.6c0.7,0,1.1,0.5,1.1,1.6l-2.2,7.3c0,2.3,3.5,4.1,10.6,5.6h2.2l2.8-0.6V216l-2.8-6.2v-0.5l2.2-7.8h1.7
		c1.6,0,3.3,4.5,5,13.4c-1,10-4.9,15.1-11.7,15.1h-2.2c-3.6-0.4-7.6-2.6-11.8-6.7H539c-5.7,7.5-11.3,11.2-16.8,11.2h-2.8
		c-8.9-1.6-13.4-5.7-13.4-12.3l-0.5-0.5h-0.6c-8.9,3.6-13.4,9-13.4,16.2c0,9.5-11.7,22.6-35.2,39.1c-8.1,3-14.8,4.5-20.1,4.5
		c-12.3-3.2-18.5-9.3-18.5-18.4l-0.5-4.5v-8.4c-0.9,0-8.5,4.8-23,14.5c-8.8,5.5-21.7,10-38.5,13.4l-14,2.8l-0.5-0.6v-0.5
		c2.6-2.4,13.1-7.2,31.3-14.5l28-16.8c9.9-5.5,20.3-13.9,31.3-25.2v-1.1c0-1.8-3.4-8.5-10.1-20.1l-5.1-12.3
		C417.4,183.4,418.4,180.2,419.4,180.2z M187.9,185.8h1.1c0.9,0,1.7,1.3,2.2,3.9c0,4.9-1.7,7.3-5.1,7.3c-2.4,0-4.4,1.5-6.1,4.5
		c0,1.4,3.7,2.5,11.2,3.4c1.4,1.4,2.3,3.4,2.8,6.1c-1.4,11.2-5.5,16.8-12.3,16.8c-4.6,0-8.5-1.3-11.7-3.9v-1.1l2.2-1.7l5,0.6
		c6.7-1.1,10.1-3.2,10.1-6.2H184c-6,0-8.9-2.6-8.9-7.8c0-6.6,2.6-13.1,7.8-19.5C184.8,186.5,186.5,185.8,187.9,185.8z M397,189.2
		c0.7,0,1.1,0.5,1.1,1.6c-0.6,5.2-3.2,11-7.8,17.4c-0.7,0-1.1,0.9-1.1,2.8c7.5,6.4,11.2,11.4,11.2,15.1c0,10.1-4.5,17-13.4,20.6
		l-8.4,3.4c-4.2,0-7-3.5-8.3-10.6c0-7.7,1.7-14.4,5-20.1v-1.7c-9.7-8.9-14.5-14.1-14.5-15.7l-0.5-4.5c0.5-3,1.8-4.5,3.9-4.5
		c0,0.9,4.1,3,12.3,6.2l0.6,0.5v1.1l-1.7,2.2v0.6c2,2.6,4.1,3.9,6.2,3.9h0.5c2.7-2.5,6.1-6.8,10.1-12.8L397,189.2z M468.6,219.3
		l-3.4,3.4c0,0.7,1.5,1.5,4.5,2.2l7.8-1.1v-0.6C476.1,220.6,473.1,219.3,468.6,219.3z M374.6,233.3c1,2.6,2.3,4.3,3.9,5.1
		c5.1,0,10.3-3,15.7-8.9c0-2.2-4.1-4.8-12.3-7.8h-0.5C379.2,223.1,377,227,374.6,233.3z M324.3,241.1v1.7c3.7,2.2,6.5,3.4,8.3,3.4
		h1.7c-0.5-3.4-3.2-5.1-7.8-5.1H324.3z M552.4,242.8v1.1h0.5c-1.5,8.5-4.5,12.8-8.9,12.8l-3.4-1.1h-1.1c-2.7,2.4-5.3,3.7-7.8,4
		l-6.1-2.2H525c-2.6,0-10.3,4.5-22.9,13.4l-6.2,1.6h-2.2v-0.5c18.7-14.2,29.7-21.2,33-21.2l6.1,1.6h1.7c3.1,0,5.4-2,6.7-6.1h1.1
		c1.4,2.2,2.9,3.4,4.5,3.4h0.5c0.9,0,1.9-2.1,2.8-6.2l0.5-0.5H552.4z M305.3,254.5h0.5l-2.2,12.9c0.7,2.3,1.7,3.6,2.8,3.9h0.5
		l2.2-1.6h1.1v0.5c0,4.4-1.9,7.2-5.6,8.4c-3-0.9-4.5-3.9-4.5-8.9C300.2,262.6,301.9,257.6,305.3,254.5z M219.7,265.7l0.6,2.8
		c0,2.4-5.8,5.5-17.4,9.5c-13.5,6.7-21.7,10.1-24.6,10.1l-0.5-1.6c0-3.1,2.8-5.3,8.3-6.7C206.7,270.4,217.9,265.7,219.7,265.7z"/>
</g>
</svg>
