<?xml version="1.0" encoding="utf-8"?>
<!-- Generator: Adobe Illustrator 25.2.3, SVG Export Plug-In . SVG Version: 6.00 Build 0)  -->
<svg version="1.1" xmlns="http://www.w3.org/2000/svg" xmlns:xlink="http://www.w3.org/1999/xlink" x="0px" y="0px"
	 viewBox="0 0 700 395" style="enable-background:new 0 0 700 395;" xml:space="preserve">
<style type="text/css">
	.st0{fill:#000222;}
	.st1{fill:#FFFFFF;}
</style>
<g id="Layer_1">
	<rect class="st0" width="700" height="395"/>
</g>
<g id="Layer_3">
	<g>
		<path class="st1" d="M273.5,368.6l1.1,4.2c0.2,0.9,0.5,1.8,0.6,2.6h0.1c0.2-0.8,0.5-1.7,0.7-2.6l1.3-4.2h1.3l1.3,4.1
			c0.3,1,0.5,1.9,0.7,2.7h0.1c0.1-0.8,0.4-1.7,0.6-2.7l1.2-4.1h1.5l-2.7,8.2H280l-1.3-3.9c-0.3-0.9-0.5-1.7-0.7-2.7h0
			c-0.2,1-0.5,1.8-0.7,2.7l-1.3,3.9h-1.4l-2.5-8.2H273.5z"/>
		<path class="st1" d="M286.3,368.6l1.1,4.2c0.2,0.9,0.5,1.8,0.6,2.6h0.1c0.2-0.8,0.5-1.7,0.7-2.6l1.3-4.2h1.3l1.3,4.1
			c0.3,1,0.5,1.9,0.7,2.7h0.1c0.1-0.8,0.4-1.7,0.6-2.7l1.2-4.1h1.5l-2.7,8.2h-1.4l-1.3-3.9c-0.3-0.9-0.5-1.7-0.7-2.7h0
			c-0.2,1-0.5,1.8-0.7,2.7l-1.3,3.9h-1.4l-2.5-8.2H286.3z"/>
		<path class="st1" d="M299,368.6l1.1,4.2c0.2,0.9,0.5,1.8,0.6,2.6h0.1c0.2-0.8,0.5-1.7,0.7-2.6l1.3-4.2h1.3l1.3,4.1
			c0.3,1,0.5,1.9,0.7,2.7h0.1c0.1-0.8,0.4-1.7,0.6-2.7l1.2-4.1h1.5l-2.7,8.2h-1.4l-1.3-3.9c-0.3-0.9-0.5-1.7-0.7-2.7h0
			c-0.2,1-0.5,1.8-0.7,2.7l-1.3,3.9h-1.4l-2.5-8.2H299z"/>
		<path class="st1" d="M309.9,375.9c0-0.6,0.4-1.1,1-1.1c0.6,0,1,0.4,1,1.1c0,0.6-0.4,1.1-1,1.1C310.3,377,309.9,376.5,309.9,375.9z
			"/>
		<path class="st1" d="M313.5,375.3c0.4,0.3,1.2,0.6,2,0.6c1.1,0,1.6-0.5,1.6-1.2c0-0.7-0.4-1.1-1.5-1.5c-1.5-0.5-2.2-1.3-2.2-2.3
			c0-1.3,1.1-2.4,2.8-2.4c0.8,0,1.6,0.2,2,0.5l-0.4,1.1c-0.3-0.2-0.9-0.5-1.7-0.5c-0.9,0-1.4,0.5-1.4,1.1c0,0.7,0.5,1,1.6,1.4
			c1.4,0.5,2.2,1.3,2.2,2.5c0,1.4-1.1,2.5-3.1,2.5c-0.9,0-1.7-0.2-2.3-0.6L313.5,375.3z"/>
		<path class="st1" d="M327.4,374.6c0,0.9,0,1.6,0.1,2.2h-1.3l-0.1-1.3h0c-0.4,0.7-1.3,1.5-2.7,1.5c-1.3,0-2.8-0.7-2.8-3.6v-4.8h1.5
			v4.6c0,1.6,0.5,2.6,1.8,2.6c1,0,1.7-0.7,2-1.4c0.1-0.2,0.1-0.5,0.1-0.8v-5h1.5V374.6z"/>
		<path class="st1" d="M329.8,371.1c0-1,0-1.8-0.1-2.6h1.3l0.1,1.6h0.1c0.4-1.1,1.3-1.8,2.3-1.8c0.2,0,0.3,0,0.4,0.1v1.4
			c-0.2,0-0.3-0.1-0.5-0.1c-1.1,0-1.8,0.8-2,1.9c0,0.2-0.1,0.4-0.1,0.7v4.4h-1.5V371.1z"/>
		<path class="st1" d="M339.9,376.8l-0.1-1h-0.1c-0.5,0.6-1.3,1.2-2.5,1.2c-1.7,0-2.5-1.2-2.5-2.4c0-2,1.8-3.1,4.9-3.1v-0.2
			c0-0.7-0.2-1.9-1.9-1.9c-0.8,0-1.6,0.2-2.1,0.6l-0.3-1c0.7-0.4,1.7-0.7,2.7-0.7c2.5,0,3.1,1.7,3.1,3.4v3.1c0,0.7,0,1.4,0.1,2
			H339.9z M339.7,372.6c-1.6,0-3.5,0.3-3.5,1.9c0,1,0.6,1.4,1.4,1.4c1.1,0,1.8-0.7,2-1.4c0.1-0.2,0.1-0.3,0.1-0.5V372.6z"/>
		<path class="st1" d="M343.5,364.7h1.5v5.1h0c0.2-0.4,0.6-0.8,1.1-1.1c0.4-0.3,1-0.4,1.5-0.4c1.1,0,2.9,0.7,2.9,3.5v4.9H349v-4.7
			c0-1.3-0.5-2.4-1.9-2.4c-1,0-1.7,0.7-2,1.5c-0.1,0.2-0.1,0.4-0.1,0.7v5h-1.5V364.7z"/>
		<path class="st1" d="M358.6,375.5L358.6,375.5c-0.5,0.8-1.4,1.5-2.7,1.5c-1.9,0-3.5-1.7-3.5-4.2c0-3.1,2-4.4,3.7-4.4
			c1.3,0,2.1,0.6,2.5,1.4h0l0.1-1.2h1.4c0,0.7-0.1,1.4-0.1,2.3v9.3h-1.5V375.5z M358.6,371.9c0-0.2,0-0.4-0.1-0.6
			c-0.2-0.9-1-1.7-2.1-1.7c-1.5,0-2.5,1.3-2.5,3.2c0,1.6,0.8,3.1,2.4,3.1c1,0,1.8-0.6,2.1-1.6c0.1-0.2,0.1-0.5,0.1-0.7V371.9z"/>
		<path class="st1" d="M369.4,374.6c0,0.9,0,1.6,0.1,2.2h-1.3l-0.1-1.3h0c-0.4,0.7-1.3,1.5-2.7,1.5c-1.3,0-2.8-0.7-2.8-3.6v-4.8h1.5
			v4.6c0,1.6,0.5,2.6,1.8,2.6c1,0,1.7-0.7,2-1.4c0.1-0.2,0.1-0.5,0.1-0.8v-5h1.5V374.6z"/>
		<path class="st1" d="M371.9,371.1c0-1,0-1.8-0.1-2.6h1.3l0.1,1.6h0.1c0.4-1.1,1.3-1.8,2.3-1.8c0.2,0,0.3,0,0.4,0.1v1.4
			c-0.2,0-0.3-0.1-0.5-0.1c-1.1,0-1.8,0.8-2,1.9c0,0.2-0.1,0.4-0.1,0.7v4.4h-1.5V371.1z"/>
		<path class="st1" d="M381.9,376.8l-0.1-1h-0.1c-0.5,0.6-1.3,1.2-2.5,1.2c-1.7,0-2.5-1.2-2.5-2.4c0-2,1.8-3.1,4.9-3.1v-0.2
			c0-0.7-0.2-1.9-1.9-1.9c-0.8,0-1.6,0.2-2.1,0.6l-0.3-1c0.7-0.4,1.7-0.7,2.7-0.7c2.5,0,3.1,1.7,3.1,3.4v3.1c0,0.7,0,1.4,0.1,2
			H381.9z M381.7,372.6c-1.6,0-3.5,0.3-3.5,1.9c0,1,0.6,1.4,1.4,1.4c1.1,0,1.8-0.7,2-1.4c0.1-0.2,0.1-0.3,0.1-0.5V372.6z"/>
		<path class="st1" d="M385.6,370.8c0-0.9,0-1.5-0.1-2.2h1.3l0.1,1.4h0c0.4-0.8,1.4-1.5,2.7-1.5c1.1,0,2.9,0.7,2.9,3.5v4.9h-1.5
			v-4.7c0-1.3-0.5-2.4-1.9-2.4c-1,0-1.8,0.7-2,1.5c-0.1,0.2-0.1,0.4-0.1,0.7v4.9h-1.5V370.8z"/>
		<path class="st1" d="M394.6,375.9c0-0.6,0.4-1.1,1-1.1c0.6,0,1,0.4,1,1.1c0,0.6-0.4,1.1-1,1.1C395,377,394.6,376.5,394.6,375.9z"
			/>
		<path class="st1" d="M404.4,376.5c-0.4,0.2-1.3,0.5-2.4,0.5c-2.5,0-4.1-1.7-4.1-4.2c0-2.5,1.7-4.4,4.4-4.4c0.9,0,1.7,0.2,2.1,0.4
			l-0.3,1.2c-0.4-0.2-0.9-0.4-1.7-0.4c-1.9,0-2.9,1.4-2.9,3.1c0,1.9,1.2,3.1,2.9,3.1c0.8,0,1.4-0.2,1.8-0.4L404.4,376.5z"/>
		<path class="st1" d="M413.5,372.6c0,3-2.1,4.4-4.1,4.4c-2.2,0-3.9-1.6-3.9-4.2c0-2.8,1.8-4.4,4.1-4.4
			C411.9,368.4,413.5,370.1,413.5,372.6z M406.9,372.7c0,1.8,1,3.2,2.5,3.2c1.4,0,2.5-1.3,2.5-3.2c0-1.4-0.7-3.2-2.5-3.2
			S406.9,371.1,406.9,372.7z"/>
		<path class="st1" d="M415.4,370.8c0-0.9,0-1.5-0.1-2.2h1.3l0.1,1.3h0.1c0.5-0.8,1.2-1.5,2.6-1.5c1.1,0,2,0.7,2.3,1.6h0
			c0.3-0.5,0.6-0.8,0.9-1.1c0.5-0.4,1-0.6,1.8-0.6c1.1,0,2.7,0.7,2.7,3.6v4.8h-1.5v-4.7c0-1.6-0.6-2.5-1.8-2.5
			c-0.9,0-1.5,0.6-1.8,1.4c-0.1,0.2-0.1,0.5-0.1,0.7v5.1h-1.5v-4.9c0-1.3-0.6-2.3-1.7-2.3c-0.9,0-1.6,0.7-1.9,1.5
			c-0.1,0.2-0.1,0.5-0.1,0.7v5h-1.5V370.8z"/>
	</g>
</g>
<g id="Layer_4">
	<path class="st1" d="M416.8,108.8c2.9,1.3,4.4,3.4,4.4,6.2l-0.7,11.1l6.2,7.4c-0.5,2-1.2,3.1-1.8,3.1h-1.2l-5.6-3.7h-1.8
		c-13.1,13-23.9,20.3-32.2,21.7h-0.7v-0.7c0.5-1.1,8.1-6.7,22.9-16.7c4.1-4.1,6.2-6.6,6.2-7.4c-2.1-2.6-3.5-5.3-4.4-8.1
		C408.1,116.1,411,111.8,416.8,108.8z M547.9,109.4h3.1c2.9,2.1,4.3,4.2,4.3,6.2c-0.4,2.5-1,3.7-1.8,3.7h-1.2c-2.1-2-4-3.1-5.6-3.1
		c-2,0.8-3.1,2.4-3.1,4.9v2.5c-0.5,16.9-2,25.3-4.4,25.3c-5.4-12.4-11.2-18.5-17.3-18.5c-2.9-2.3-4.3-4.5-4.3-6.8
		c0.7-3.3,1.5-4.9,2.5-4.9h0.6c4,0,9.9,5.4,18,16.1h1.2v-8.7C539.9,119,542.5,113.4,547.9,109.4z M355.6,110.6h1.8
		c4.9,9.4,9.5,19.7,13.6,30.9l-0.6,2.5h-1.2l-4.4-4.3l-0.6,0.6v8.7c4.5,26.9,8.2,52.7,11.1,77.3c0.5,0.8,4,1.4,10.5,1.8v-0.6
		l0.7,0.6h4.9l5.5-0.6c2.5,0.3,3.7,1.1,3.7,2.5c-0.8,3.6-2.8,7.1-6.2,10.5l-14.8-0.6h-1.8c-0.7,0-2.4,6.4-4.9,19.1
		c-0.8,0-1.2,0.8-1.2,2.5h-1.2l-0.7-0.6h-0.6l0.6-2.5l-0.6-15.5l-1.9-1.2c-2.8,0-20.1,7.2-51.9,21.7c-16.2,6.2-29.1,9.2-38.9,9.2
		h-6.8c-22.5,0-35.5-14.2-38.9-42.6c-3.7-43-8.3-80.3-13.6-112c1.5-4.1,2.8-6.1,3.7-6.2h1.2c4.8,20,9.8,58.6,14.8,115.7
		c3.4,22.3,16.4,33.4,38.9,33.4c18.2,0,41.3-7.4,69.3-22.3V238c-8-2-21.4-4.1-40.2-6.2h-3.7l-9.3,0.7l-0.6-0.7v-1.2
		c0-7.1,4.9-11.3,14.8-12.4l0.6,0.7c11.5,0,18.1-1.5,19.8-4.4v-1.2c0-3.5-3.1-23.5-9.2-59.9c0-8.1-2.1-19.1-6.2-32.8l3.1-9.2h1.2
		c1.8,0,6.3,9.1,13.6,27.2v1.8h-1.8l-3.7-1.8l-0.7,0.6v0.7l11.1,68v0.6l-2.5,13.6c0,1.9,11.1,3.5,33.4,4.9l1.9-1.8h0.6l-14.8-107
		L355.6,110.6z M594.9,110.6h0.7c2.3,0,3.7,3.3,4.3,9.9v7.4l4.4,6.2v1.2l-0.7,3.1l-6.8-2.5h-0.7c-16.6,16-30.8,25.7-42.6,29
		l-4.4,0.7V165c20.3-12.8,34.6-22.9,42.7-30.3v-1.9c-3.7-3.8-5.7-7.1-6.2-9.9C587.7,114.7,590.8,110.6,594.9,110.6z M203.5,111.8
		h0.6c0,4.7-4.9,8.4-14.8,11.1c-33.7,15.9-53.5,26.5-59.4,31.6l-0.6,2.5l4.9,6.8v1.9c0,0.8-0.6,1.2-1.9,1.2
		c-4.5-0.8-6.8-3.1-6.8-6.8c0-9.3,6.4-16.4,19.1-21C167.1,126.6,186.7,117.5,203.5,111.8z M281.4,111.8c1.9,0,3.9,2.3,6.2,6.8
		l-1.2,3.7h-0.7c-1.5,0-3.1-0.8-4.9-2.5h-1.8l-1.9,1.8c0,23.1-4.7,37.7-14.2,43.9c-5.2,3.3-8.5,4.9-9.9,4.9V170
		c0.1-0.9,4.6-5.2,13.6-12.9l4.3-6.8v-1.2c0-6.6-3.5-13-10.5-19.1l-2.5,0.6c-4.9-1.9-7.4-4.5-7.4-8c0.3-4.1,1.3-6.2,3.1-6.2
		c4.9,0,11.3,6.4,19.2,19.1h0.6C273.3,123.2,276,115.4,281.4,111.8z M497.8,111.8l1.2,1.2c0,3.2-7.2,8.4-21.7,15.5l-35.2,21
		l-0.7-0.7v-1.2c0-3.4,3.7-6.8,11.1-10.5C467.6,127.6,482.7,119.2,497.8,111.8z M117.5,115c2.4,0,4.7,2.7,6.8,8
		c-0.9,2.5-1.7,3.7-2.5,3.7h-0.7l-4.3-3.7H115l-1.2,1.2v16.1c0,2.8-0.8,7.1-2.5,13h-0.6c-6-12-11-18-14.8-18c-3.2,0-5.9-2.3-8.1-6.8
		c0.7-4.1,2.2-6.2,4.4-6.2c4.1,1,10.1,6.8,17.9,17.3l0.7-0.7v-6.2C111.4,120.9,113.7,115,117.5,115z M412.5,118
		c0,2.9,1.4,4.4,4.3,4.4l0.7-0.7v-0.6c0-3.1-0.6-4.7-1.9-4.9h-1.2L412.5,118z M589.3,121.7c2.5,2.5,4.5,3.7,6.2,3.7h0.6l0.7-3.1
		v-1.2l-2.5-3.1h-0.7C590.8,118,589.3,119.3,589.3,121.7z M191.1,137.8h1.2l4.9,13c-0.9,7.8-4,11.7-9.3,11.7l-3.7-1.8h-1.8
		c-3,2.9-5.4,4.3-7.4,4.3h-2.5c-0.8,0-2-1.4-3.7-4.3v-1.2c0.2-8.2,1-12.4,2.5-12.4l0.6,0.6v5.6l1.2,4.3h4.4c2.5-1.3,3.7-3.5,3.7-6.8
		l-0.7-5.6l1.2-3.7h0.7c0.9,0,1.8,3.3,2.5,9.9c1.4,1.6,2.9,2.5,4.3,2.5h3.1v-1.2c-1.6-5-2.5-8.9-2.5-11.7L191.1,137.8z M505.2,148.4
		v1.2c-1.6,4.9-2.5,8.7-2.5,11.1v3.7c0,3.4,1.8,5.5,5.5,6.2l2.5-4.9h1.2v1.8c0,6-2.3,9.6-6.8,10.6c-2.4,0-4.4-3.5-6.2-10.6
		C501.4,154.7,503.4,148.4,505.2,148.4z M425.4,153.3c6.2,3.7,9.3,7,9.3,9.9v1.8c-1.6,2.9-3.3,5-4.9,6.2c-5.6-3.7-8.8-5.5-9.9-5.5
		c-1.4,1.3-2.9,3.5-4.4,6.8h-1.2v0.7c-7-3.3-10.5-6.4-10.5-9.3c1.6-3.8,3.5-6.3,5.5-7.4h1.2l7.4,4.9L425.4,153.3z M595.5,155.8
		l0.6,0.6h0.7c-2.1,4.4-3.1,8.1-3.1,11.1c0,4.3,1.6,6.6,4.9,6.8l1.9-3.1h1.2v1.2c0,3.6-1.6,6.7-4.9,9.3c-3.7-1.1-5.6-4-5.6-8.7v-4.4
		C591.1,166.9,592.6,162.6,595.5,155.8z M312.9,161.3l1.2,1.9c0,4.1-9.5,10.3-28.4,18.5l-43.3,21.6v-1.2c0-5.5,5.6-10.2,16.7-14.2
		C275.2,179.3,293.1,170.4,312.9,161.3z M461.3,166.9c8.7,8.2,13,13.4,13,15.4h-3.7l-1.2,1.2c6.9,12.9,10.4,21.3,10.5,25.4
		c-1.1,8.9-3.2,15.3-6.2,19.1c-8.6,6.2-12.9,11.6-12.9,16.1v5.6c0,6.9,4.7,12.3,14.2,16.1l6.8,0.6c14.3,0,31.2-11.1,50.7-33.4
		l1.2-1.8v-1.9c0-1-0.8-1.6-2.5-1.8c-4.8,1.6-10.2,2.5-16.1,2.5c-8.7,0-13-4.5-13-13.6c2.7-12.4,7.9-18.5,15.5-18.5
		c4.9,0,11.1,4.7,18.5,14.2h2.5c12.1-8.2,18.7-12.4,19.8-12.4h1.2c0.4,11.2,3.3,16.7,8.7,16.7c0,0.8,1,1.2,3.1,1.2h4.9
		c6.5,0,13.4-6.6,20.4-19.8l1.8-0.7l0.7,0.7l-2.5,8.7v0.6c3.5,4.1,8.2,6.2,14.2,6.2c2.5-0.6,3.7-2,3.7-4.3c-0.7,0-1.7-1.6-3.1-4.9
		c0-3.6,1-6.7,3.1-9.3h0.7c1.9,0,3.8,4.9,5.5,14.8c-1.9,10.7-5.6,16.1-11.1,16.1h-1.2c-5.8,0-11.1-2.7-16.1-8h-1.8
		c-4.7,7.8-10.9,11.7-18.5,11.7h-3.7c-4.7,0-9.1-4.3-13-12.9c0-1.6-0.6-2.5-1.8-2.5c-9.5,6.2-14.3,10.7-14.3,13.6
		c0,14.3-13.6,30-40.8,47c-7.9,2.9-13.3,4.3-16.1,4.3h-2.5c-10.3,0-17.7-5.6-22.3-16.7c-0.3-4.9-0.7-7.4-1.2-7.4l0.7-3.1v-8.7h-1.2
		c-25.8,17.8-44.2,26.6-55.1,26.6c-15.4,3.7-24.7,5.5-27.8,5.5v-1.8c31.9-11.9,59.9-26.6,84.1-43.9c7.5-5.4,13.1-10.5,16.7-15.4
		v-1.2c0-1.6-4.1-10.7-12.4-27.2l-3.1-9.9C459.5,169.8,460.5,166.9,461.3,166.9z M196.7,170c3.9,1.9,7,4.8,9.3,8.7
		c-1.9,4.9-3.4,7.4-4.4,7.4h-2.5l-6.8-4.9h-0.7c-1.9,0-4.4,2.1-7.4,6.2h-1.2c-5.4-3-8.5-5.4-9.2-7.4c2.4-5.3,4.4-8,6.2-8l7.4,4.3
		h1.8C193,172,195.4,170,196.7,170z M84.8,172.4v1.2l-1.9,8.7h-1.2v-0.6C82.7,175.5,83.8,172.4,84.8,172.4z M437.2,176.1v0.7
		c0,4.9-3.5,12.4-10.6,22.3v1.2c8.2,5.9,12.4,11.5,12.4,16.7c0,12.4-8,20.9-24.1,25.4c-3.8,0-7-3.1-9.3-9.3c0-9,2.3-17.4,6.8-25.3
		v-1.2c-10.7-9.6-16.1-15.3-16.1-17.3V183l0.6-3.1h0.7c11.1,3.7,16.7,6.2,16.7,7.4v0.7c0,0.8-0.6,1.2-1.8,1.2l-0.7,0.6v1.2
		c1.3,2,3.3,3.6,6.2,4.9c2.6,0,8.4-6.6,17.3-19.8H437.2z M80.4,186.7l1.2,1.2v8c1.6,7.9,3.5,11.8,5.6,11.8h1.2
		c0.8,0,1.6-1.2,2.5-3.7h1.2c-0.8,8.2-2.8,12.4-6.2,12.4c-4.6-3-6.8-7.8-6.8-14.3v-6.2L80.4,186.7z M138,187.9
		c6.2,4.1,9.2,7.4,9.2,9.9c-0.4,1.9-2.3,4.2-5.5,6.8c-5-3.3-8.3-4.9-9.9-4.9c-1.9,3.9-3.4,6-4.4,6.2c-2.4,0-5.9-2.3-10.5-6.8v-0.7
		c0-3.7,1.6-6.6,4.9-8.7c3.7,1.4,6.3,2.8,8,4.4h1.9C134.9,190,137,187.9,138,187.9z M191.7,192.9c10.2,0,18,10.9,23.5,32.7
		c0,12.2-5.6,20.7-16.7,25.4c-11.5,3.3-19.5,4.9-24.2,4.9c-13.6,0-22.9-7-27.8-21c-1.6-2.9-3.5-4.4-5.6-4.4
		c-8.1,2.3-15.1,8.4-21,18.5c-5.6,19.4-11.2,29.1-16.7,29.1c-10.7,0-17.7-11.5-21-34.6V238l1.2-10.5h1.2v1.2h0.6l-0.6,2.5
		c2,23.1,7.6,34.6,16.7,34.6l2.5,0.6h1.2c3.1,0,7.9-10.1,14.3-30.3c10.3-12,18.2-18,23.5-18c3.3,0,6.6,4.3,9.9,13
		c5.7,8.2,13.5,12.4,23.5,12.4c12.6,0,23.3-3.5,32.2-10.6l1.2-1.8c0-3.9-3.7-6.2-11.1-6.8l-11.1,0.7c-7.4-2-11.1-5.6-11.1-10.6
		C176.3,202.6,181.4,195.4,191.7,192.9z M184.9,210.8l1.8,1.2h6.8l4.3-1.2v-1.2c-1.6-2-3.5-3.1-5.5-3.1h-3.1
		C186.4,206.5,184.9,207.9,184.9,210.8z M410.6,225c0.8,2.9,2.5,4.3,4.9,4.3h1.9c4.2,0,9.1-2.9,14.8-8.7c0-3.1-3.7-6.4-11.1-9.9H418
		C413.1,216.3,410.6,221,410.6,225z M510.2,215.7c1.5,1.3,3.4,1.9,5.5,1.9h3.7c3,0,4.7-0.6,4.9-1.9c-1.9-3.3-4.8-4.9-8.5-4.9
		S510.2,212.4,510.2,215.7z M266.6,211.4h1.2v0.6l-1.9,10.6c0,4.7,1,7.6,3.1,8.7h1.8l3.1-2.5l0.6,0.6v0.7c0,6.2-2.1,9.2-6.2,9.2
		c-3.7-1.7-5.5-5.6-5.5-11.7C262.9,223.9,264.1,218.6,266.6,211.4z M605.4,240.5v2.5c-1.6,7.9-4.5,11.8-8.7,11.8l-4.9-1.2
		c-3.8,2.5-7.1,3.7-9.9,3.7l-4.4-2.5c-5.7,0-11.8,2.9-18.5,8.7c-6.6,4.2-12.4,6.9-17.3,8l-0.6-0.6v-0.7c20.7-14,31.8-21,33.4-21
		c0-0.8,1.2-1.2,3.7-1.2l8,3.1c2.4-0.6,5.1-2.9,8.1-6.8l3.7,3.7h1.8c0.8,0,2.3-2.5,4.4-7.4H605.4z M221.4,247.3h0.7v1.2l-4.4,11.1
		v3.7c1,4.1,2.4,6.2,4.4,6.2c1.2,0,1.8-0.6,1.8-1.9l0.7-0.6h1.8c0,4-1.8,7.3-5.5,9.9h-0.7c-3.7-2-5.5-5.7-5.5-11.1v-1.2
		C214.6,258,216.9,252.2,221.4,247.3z M355.6,251l0.6,0.6h0.7l-4.9,13c0.8,4.5,1.8,6.8,3.1,6.8h1.2l3.1-3.1h0.6
		c0,4.9-1.6,8.4-4.9,10.5h-1.8c-1.8,0-3.3-2.9-4.4-8.7v-0.6C348.8,263.6,351,257.4,355.6,251z M163.9,263.4h1.8v1.2
		c0,4.7-3.7,7.6-11.1,8.7l-31.5,12.9l-1.9-0.6c0-3.7,1.9-6.2,5.6-7.4L163.9,263.4z"/>
</g>
</svg>
