<?xml version="1.0" encoding="utf-8"?>
<!-- Generator: Adobe Illustrator 25.2.3, SVG Export Plug-In . SVG Version: 6.00 Build 0)  -->
<svg version="1.1" id="Layer_1" xmlns="http://www.w3.org/2000/svg" xmlns:xlink="http://www.w3.org/1999/xlink" x="0px" y="0px"
	 viewBox="0 0 700 395" style="enable-background:new 0 0 700 395;" xml:space="preserve">
<style type="text/css">
	.st0{fill:#000222;}
	.st1{fill:#FFFFFF;}
</style>
<g id="Layer_1_1_">
	<rect y="-0.5" class="st0" width="700" height="395"/>
</g>
<g id="Layer_3">
	<g>
		<path class="st1" d="M273.5,368.6l1.1,4.2c0.2,0.9,0.5,1.8,0.6,2.6h0.1c0.2-0.8,0.5-1.7,0.7-2.6l1.3-4.2h1.3l1.3,4.1
			c0.3,1,0.5,1.9,0.7,2.7h0.1c0.1-0.8,0.4-1.7,0.6-2.7l1.2-4.1h1.5l-2.7,8.2H280l-1.3-3.9c-0.3-0.9-0.5-1.7-0.7-2.7l0,0
			c-0.2,1-0.5,1.8-0.7,2.7l-1.3,3.9h-1.4l-2.5-8.2H273.5z"/>
		<path class="st1" d="M286.3,368.6l1.1,4.2c0.2,0.9,0.5,1.8,0.6,2.6h0.1c0.2-0.8,0.5-1.7,0.7-2.6l1.3-4.2h1.3l1.3,4.1
			c0.3,1,0.5,1.9,0.7,2.7h0.1c0.1-0.8,0.4-1.7,0.6-2.7l1.2-4.1h1.5l-2.7,8.2h-1.4l-1.3-3.9c-0.3-0.9-0.5-1.7-0.7-2.7l0,0
			c-0.2,1-0.5,1.8-0.7,2.7l-1.3,3.9h-1.4l-2.5-8.2H286.3z"/>
		<path class="st1" d="M299,368.6l1.1,4.2c0.2,0.9,0.5,1.8,0.6,2.6h0.1c0.2-0.8,0.5-1.7,0.7-2.6l1.3-4.2h1.3l1.3,4.1
			c0.3,1,0.5,1.9,0.7,2.7h0.1c0.1-0.8,0.4-1.7,0.6-2.7l1.2-4.1h1.5l-2.7,8.2h-1.4l-1.3-3.9c-0.3-0.9-0.5-1.7-0.7-2.7l0,0
			c-0.2,1-0.5,1.8-0.7,2.7l-1.3,3.9H300l-2.5-8.2H299z"/>
		<path class="st1" d="M309.9,375.9c0-0.6,0.4-1.1,1-1.1s1,0.4,1,1.1c0,0.6-0.4,1.1-1,1.1S309.9,376.5,309.9,375.9z"/>
		<path class="st1" d="M313.5,375.3c0.4,0.3,1.2,0.6,2,0.6c1.1,0,1.6-0.5,1.6-1.2s-0.4-1.1-1.5-1.5c-1.5-0.5-2.2-1.3-2.2-2.3
			c0-1.3,1.1-2.4,2.8-2.4c0.8,0,1.6,0.2,2,0.5l-0.4,1.1c-0.3-0.2-0.9-0.5-1.7-0.5c-0.9,0-1.4,0.5-1.4,1.1c0,0.7,0.5,1,1.6,1.4
			c1.4,0.5,2.2,1.3,2.2,2.5c0,1.4-1.1,2.5-3.1,2.5c-0.9,0-1.7-0.2-2.3-0.6L313.5,375.3z"/>
		<path class="st1" d="M327.4,374.6c0,0.9,0,1.6,0.1,2.2h-1.3l-0.1-1.3l0,0c-0.4,0.7-1.3,1.5-2.7,1.5c-1.3,0-2.8-0.7-2.8-3.6v-4.8
			h1.5v4.6c0,1.6,0.5,2.6,1.8,2.6c1,0,1.7-0.7,2-1.4c0.1-0.2,0.1-0.5,0.1-0.8v-5h1.5v6H327.4z"/>
		<path class="st1" d="M329.8,371.1c0-1,0-1.8-0.1-2.6h1.3l0.1,1.6h0.1c0.4-1.1,1.3-1.8,2.3-1.8c0.2,0,0.3,0,0.4,0.1v1.4
			c-0.2,0-0.3-0.1-0.5-0.1c-1.1,0-1.8,0.8-2,1.9c0,0.2-0.1,0.4-0.1,0.7v4.4h-1.5L329.8,371.1L329.8,371.1z"/>
		<path class="st1" d="M339.9,376.8l-0.1-1h-0.1c-0.5,0.6-1.3,1.2-2.5,1.2c-1.7,0-2.5-1.2-2.5-2.4c0-2,1.8-3.1,4.9-3.1v-0.2
			c0-0.7-0.2-1.9-1.9-1.9c-0.8,0-1.6,0.2-2.1,0.6l-0.3-1c0.7-0.4,1.7-0.7,2.7-0.7c2.5,0,3.1,1.7,3.1,3.4v3.1c0,0.7,0,1.4,0.1,2
			H339.9z M339.7,372.6c-1.6,0-3.5,0.3-3.5,1.9c0,1,0.6,1.4,1.4,1.4c1.1,0,1.8-0.7,2-1.4c0.1-0.2,0.1-0.3,0.1-0.5V372.6z"/>
		<path class="st1" d="M343.5,364.7h1.5v5.1l0,0c0.2-0.4,0.6-0.8,1.1-1.1c0.4-0.3,1-0.4,1.5-0.4c1.1,0,2.9,0.7,2.9,3.5v4.9H349V372
			c0-1.3-0.5-2.4-1.9-2.4c-1,0-1.7,0.7-2,1.5c-0.1,0.2-0.1,0.4-0.1,0.7v5h-1.5V364.7z"/>
		<path class="st1" d="M358.6,375.5L358.6,375.5c-0.5,0.8-1.4,1.5-2.7,1.5c-1.9,0-3.5-1.7-3.5-4.2c0-3.1,2-4.4,3.7-4.4
			c1.3,0,2.1,0.6,2.5,1.4l0,0l0.1-1.2h1.4c0,0.7-0.1,1.4-0.1,2.3v9.3h-1.5v-4.7H358.6z M358.6,371.9c0-0.2,0-0.4-0.1-0.6
			c-0.2-0.9-1-1.7-2.1-1.7c-1.5,0-2.5,1.3-2.5,3.2c0,1.6,0.8,3.1,2.4,3.1c1,0,1.8-0.6,2.1-1.6c0.1-0.2,0.1-0.5,0.1-0.7v-1.7H358.6z"
			/>
		<path class="st1" d="M369.4,374.6c0,0.9,0,1.6,0.1,2.2h-1.3l-0.1-1.3l0,0c-0.4,0.7-1.3,1.5-2.7,1.5c-1.3,0-2.8-0.7-2.8-3.6v-4.8
			h1.5v4.6c0,1.6,0.5,2.6,1.8,2.6c1,0,1.7-0.7,2-1.4c0.1-0.2,0.1-0.5,0.1-0.8v-5h1.5v6H369.4z"/>
		<path class="st1" d="M371.9,371.1c0-1,0-1.8-0.1-2.6h1.3l0.1,1.6h0.1c0.4-1.1,1.3-1.8,2.3-1.8c0.2,0,0.3,0,0.4,0.1v1.4
			c-0.2,0-0.3-0.1-0.5-0.1c-1.1,0-1.8,0.8-2,1.9c0,0.2-0.1,0.4-0.1,0.7v4.4h-1.5L371.9,371.1L371.9,371.1z"/>
		<path class="st1" d="M381.9,376.8l-0.1-1h-0.1c-0.5,0.6-1.3,1.2-2.5,1.2c-1.7,0-2.5-1.2-2.5-2.4c0-2,1.8-3.1,4.9-3.1v-0.2
			c0-0.7-0.2-1.9-1.9-1.9c-0.8,0-1.6,0.2-2.1,0.6l-0.3-1c0.7-0.4,1.7-0.7,2.7-0.7c2.5,0,3.1,1.7,3.1,3.4v3.1c0,0.7,0,1.4,0.1,2
			H381.9z M381.7,372.6c-1.6,0-3.5,0.3-3.5,1.9c0,1,0.6,1.4,1.4,1.4c1.1,0,1.8-0.7,2-1.4c0.1-0.2,0.1-0.3,0.1-0.5V372.6z"/>
		<path class="st1" d="M385.6,370.8c0-0.9,0-1.5-0.1-2.2h1.3l0.1,1.4l0,0c0.4-0.8,1.4-1.5,2.7-1.5c1.1,0,2.9,0.7,2.9,3.5v4.9H391
			v-4.7c0-1.3-0.5-2.4-1.9-2.4c-1,0-1.8,0.7-2,1.5c-0.1,0.2-0.1,0.4-0.1,0.7v4.9h-1.5v-6.1H385.6z"/>
		<path class="st1" d="M394.6,375.9c0-0.6,0.4-1.1,1-1.1s1,0.4,1,1.1c0,0.6-0.4,1.1-1,1.1S394.6,376.5,394.6,375.9z"/>
		<path class="st1" d="M404.4,376.5c-0.4,0.2-1.3,0.5-2.4,0.5c-2.5,0-4.1-1.7-4.1-4.2s1.7-4.4,4.4-4.4c0.9,0,1.7,0.2,2.1,0.4
			l-0.3,1.2c-0.4-0.2-0.9-0.4-1.7-0.4c-1.9,0-2.9,1.4-2.9,3.1c0,1.9,1.2,3.1,2.9,3.1c0.8,0,1.4-0.2,1.8-0.4L404.4,376.5z"/>
		<path class="st1" d="M413.5,372.6c0,3-2.1,4.4-4.1,4.4c-2.2,0-3.9-1.6-3.9-4.2c0-2.8,1.8-4.4,4.1-4.4
			C411.9,368.4,413.5,370.1,413.5,372.6z M406.9,372.7c0,1.8,1,3.2,2.5,3.2c1.4,0,2.5-1.3,2.5-3.2c0-1.4-0.7-3.2-2.5-3.2
			S406.9,371.1,406.9,372.7z"/>
		<path class="st1" d="M415.4,370.8c0-0.9,0-1.5-0.1-2.2h1.3l0.1,1.3h0.1c0.5-0.8,1.2-1.5,2.6-1.5c1.1,0,2,0.7,2.3,1.6l0,0
			c0.3-0.5,0.6-0.8,0.9-1.1c0.5-0.4,1-0.6,1.8-0.6c1.1,0,2.7,0.7,2.7,3.6v4.8h-1.5V372c0-1.6-0.6-2.5-1.8-2.5
			c-0.9,0-1.5,0.6-1.8,1.4c-0.1,0.2-0.1,0.5-0.1,0.7v5.1h-1.5v-4.9c0-1.3-0.6-2.3-1.7-2.3c-0.9,0-1.6,0.7-1.9,1.5
			c-0.1,0.2-0.1,0.5-0.1,0.7v5h-1.5v-5.9H415.4z"/>
	</g>
	<path class="st1" d="M284.5,96.5h0.6v0.7c0,3.4-6.6,7.3-19.9,11.8l-24.9,10.6l-0.6-0.7v-0.6c0-2.9,6.8-7,20.5-12.4
		C274.5,99.6,282.6,96.5,284.5,96.5z M323,112.1h1.8c2.6,1.4,4.5,4.1,5.6,8c-0.6,2.5-1.2,3.7-1.9,3.7H328c-3-2.9-5.1-4.3-6.2-4.3
		l-1.2,1.8l0.6,15.6c-0.4,7.3-1.2,12.9-2.5,16.7H318c-6.2-10.8-11.8-16.2-16.8-16.2l-2.5-5c0.4-3.3,1.5-5,3.1-5
		c3.1,0,8.3,4.8,15.5,14.3h0.7V141l-0.7-17.4C318.8,116,320.7,112.1,323,112.1z M270.1,113.3h1.2c2.2,0,3.7,0.8,4.4,2.5v2.5
		l-2.5,2.5H272l-3.1-1.9c-1.7,0.6-3,1.7-3.7,3.1v0.6c0.6,1.7,2.4,2.5,5.6,2.5h6.8l0.7-0.6c1.7,0.6,2.5,1.2,2.5,1.8
		c0,2.7-4.8,5-14.3,6.9c0,0.6-1.9,1.4-5.6,2.5l-0.7-0.7v-0.6l1.9-5l-2.5-3.7C259.6,123.4,263.1,119.3,270.1,113.3z M204.2,116.4h1.2
		v8.1c0,3,1.2,4.6,3.7,5l1.9-1.9h0.6v1.2h0.7c-1.5,4.8-2.7,7.2-3.7,7.5h-1.9c-2.9-1.5-4.3-5-4.3-10.5L204.2,116.4z M344.1,117
		c5.8,10.2,10.1,20.3,13,30.4l-0.6,0.7h-1.2c-2.4-2.5-4-3.7-5-3.7v5.6c6.2,41.4,9.3,66.9,9.3,76.5v0.6c0,24.4-12.2,41.4-36.6,51
		l-28.6,6.9l-2.5-0.7v-0.6c0.8-1.3,5.8-3.6,14.9-6.9c27.3-13.9,41-23.9,41-29.8v-3.1c0-14.3-14.3-33-42.9-55.9
		c-18.3-17.6-29.7-29.8-34.1-36.7c-2.1-0.7-3.1-4.9-3.1-12.4l1.2-1.2l23.6,13.7v2.5H285c0,3.5,12.7,15.8,38,36.7
		c18.6,17.2,27.9,34.2,27.9,51l0.7,0.6h0.6c1.3-1.6,1.9-3.9,1.9-6.8c-7.9-66.7-12.5-102.4-13.7-106.9
		C340.4,123.7,341.6,120,344.1,117z M374.5,118.3h1.2c7.7,16.1,12,26.1,13.1,29.8l-0.7,1.8h-0.6l-5.6-4.3l-1.2,1.2v2.5
		c7.5,53.8,11.2,85.1,11.2,93.8v3.7c0,8.6-1.9,16.2-5.6,23h-0.7l-0.6-0.7h-0.7c0.8-2.6,1.2-6.5,1.2-11.8c0-15.1-5-58.2-14.9-129.3
		C372.3,121.6,373.6,118.3,374.5,118.3z M564.7,119.5h3.1c1.2,0,2.6,2.3,4.3,6.8c-0.8,2.5-1.7,3.7-2.5,3.7c-2.5-2.5-4.6-3.7-6.2-3.7
		c-2.2,0-3.4,2.1-3.7,6.2v6.9c0,12.7-1,19.7-3.1,21.1c-6.5-12.4-12.5-18.6-18.1-18.6c-3.7-2.2-5.6-4.5-5.6-6.9
		c0.3-3.7,1.3-5.6,3.1-5.6c4.3,0.9,10.5,6.5,18.6,16.7h1.9v-9.9C556.7,128.8,559.3,123.2,564.7,119.5z M604.5,133.2
		c1.4-8.7,4.1-13.1,8.2-13.1c4.1,0,6.1,6,6.1,18.1l4.3,5.6v4.4h-0.6l-6.9-2.5c-19.4,18.6-34.8,29-46,31.1l-1.8,0.6h-1.2V176
		c19.4-10.8,34.4-21.3,44.7-31.7v-0.7c-4.6-4.7-6.9-7.6-6.9-8.7v-1.7H604.5z M174.4,120.8h1.9l13.7,23.6v3.1c-1.6,0-3.5-1-5.6-3.1
		h-0.6l-0.7,0.6h-0.6c11.2,55.6,16.7,88.5,16.7,98.9v1.2c0,6.5-1.4,13.1-4.3,19.9H193v-12.4c0-10.9-6.6-50.7-19.9-119.3
		c-0.7,0-1.1-1-1.2-3.1L174.4,120.8z M426.2,121.3c2.9,0,4.3,2.5,4.3,7.5l-0.6,10.6c4.5,3.2,6.8,5.7,6.8,7.5c-0.6,2-1.2,3.1-1.8,3.1
		c-4.1-2.5-6.9-3.7-8.1-3.7l-16.2,15.6l-12.4,5.6l-5,1.9V168l26.8-19.9l2.5-3.7l-4.4-8.7V135C419.6,125.9,422.3,121.3,426.2,121.3z
		 M111,122.6c2.9,1.1,5.2,3.4,6.9,6.9v1.8l-1.2,2.5l-6.9-2.5h-0.6v12.4l0.6,0.7c-3.1,17.8-6.4,26.7-9.9,26.7
		c-3,3.8-6.7,6.3-11.2,7.5V178c10.8-11,16.2-18,16.2-21.1c-4.8-12-10.2-18.1-16.2-18.1l-3.7-5c0.6-2.6,1.6-4.4,3.1-5.6
		c4.4,0,9.8,5.4,16.2,16.2h1.8v-1.2l-0.6-9.4C106.9,126.3,108.7,122.6,111,122.6z M511.3,123.3h0.7v1.2h0.6
		c-0.4,3.4-9.3,9.8-26.7,19.2c-20.6,12.9-31.4,19.3-32.3,19.3v-2.5c0-2.8,4.8-6.7,14.3-11.8C482.8,138.8,497.3,130.3,511.3,123.3z
		 M610.1,127c-1.7,1.4-2.5,2.9-2.5,4.3c2.6,3.3,5.1,5,7.5,5h0.6v-2.5C615.7,129.2,613.8,127,610.1,127z M147.7,127v1.2l-1.9,11.8
		v3.1c0,6.2,1.9,9.3,5.6,9.3c1,0,1.9-1.4,2.5-4.3l0.6,0.6h0.7c0,4.6-1.7,8.4-5,11.2c-4.6-1.3-6.9-5.2-6.9-11.8v-5
		C143.3,136.8,144.8,131.5,147.7,127z M421.2,131.3v0.7c1.3,2.9,3.2,4.3,5.6,4.3l0.7-0.6v-2.5c0-2.2-0.6-3.4-1.9-3.7H423
		L421.2,131.3z M242.8,133.2h0.7v3.1c-0.7,2-8.5,6.4-23.6,13.1c-15.1,9.1-23.4,13.7-24.9,13.7v-1.2c0-3.4,9.1-9.6,27.3-18.6
		C233.9,136.5,240.7,133.2,242.8,133.2z M244,153.7c7.9,1,11.8,2.2,11.8,3.7c0,4.6-4.4,8.5-13.1,11.8H241v-0.7l5.6-5.6v-1.2
		l-4.3-0.7l-8.1,1.9v-0.7C234.1,158.7,237.4,155.8,244,153.7z M518.7,161.8h1.2v0.6l-1.2,1.2V161.8z M518.1,166.1l-0.7,7.5v1.9
		c0,2.9,1.5,5.4,4.4,7.5h1.8c1.7-0.7,2.5-2.1,2.5-4.4h0.7l0.6,0.7h0.7c-1.6,7.8-3.7,11.8-6.2,11.8c-4,0-6.5-4.6-7.5-13.7
		C515.3,171.3,516.6,167.5,518.1,166.1z M615.7,166.1h0.7c-0.6,2.1-1.2,3.1-1.9,3.1v-1.9L615.7,166.1z M435.4,168h1.9
		c6.2,3.6,9.3,6.7,9.3,9.3c0,1.5-1.7,4-5,7.5h-1.8c-4.8-3.7-7.9-5.6-9.4-5.6c-2.4,5.4-4.4,8-6.2,8c-2.9-1-6.2-3.7-9.9-8
		c2-5.8,4.1-8.7,6.2-8.7l9.4,5L435.4,168z M613.2,171.1h0.7l-0.7,4.4v1.2c0,5.8,1.7,8.7,5,8.7l3.1-2.5h0.6c-1.5,5.8-3.2,8.7-5,8.7
		h-1.2c-3.3-2-5-5.3-5-9.9v-1.9L613.2,171.1z M67.5,175.5c-3.3,10.2-5,17.7-5,22.4c0.8,11.2,3.5,16.7,8.1,16.7
		c1.7,0,3.1-3.3,4.3-9.9h0.7l0.6,0.7h0.7c-1.5,12.8-4.6,19.2-9.4,19.2c-2.9,4.8-4.3,8.5-4.3,11.2v8.7c2.1,7.8,6.2,13.6,12.4,17.4
		c3.1,1.4,7.4,2.7,13,3.7h6.9l6.2,0.7c18.1-1.6,38-8.5,59.7-20.6c4.5-2.4,6.8-4.9,6.8-7.5c-2.4-2.9-5.3-4.3-8.7-4.3l-12.4,0.6
		c-7.5-1.1-11.2-4.8-11.2-11.2V222c0-10.8,4.8-17.4,14.3-19.9h0.6c8.7,0,16.2,9.5,22.4,28.6l0.7,6.2c0,3-2.9,12.9-8.7,29.8v4.4
		c0,8.3,4.3,12.4,13,12.4c7,0,18.6-9.5,34.8-28.6c9.3-8.6,20.3-15.2,33-19.9l1.8-1.9V232c-10.8-8.2-16.2-18.1-16.2-29.7
		c0-11.6,8.1-20.1,24.3-25.6l6.2-0.7c9.4,0,17.1,2.5,23,7.5v1.2h-0.6l-8.7-1.8c-14.1,0-27,4.8-38.5,14.3v3.1
		c0.4,4.8,4.4,10.6,11.8,17.4c6.9,4.1,11.7,6.2,14.3,6.2c8.3,0,22.2-5.8,41.6-17.4h1.2l0.7,0.6v0.7c-1.9,8.3-4.4,12.4-7.5,12.4
		c-8.6,4.7-31.4,15.7-68.4,32.9c-6.6,2.9-17.2,12.6-31.7,29.3c-3.6,5.2-10.3,9.1-19.9,11.8c-7.7,0-13.5-5.4-17.4-16.2l-0.6-3.7
		l0.6-2.5v-0.6l-0.6-0.7l2.5-13.7h-0.7c-29.6,14.1-51.1,21.1-64.6,21.1H88.1c-6.7,0-14.4-3.7-23-11.2c-5-7.1-7.5-13.3-7.5-18.6
		c0-5.4,2.3-13.6,6.9-24.9c-3.8-6.8-5.6-12.4-5.6-16.7c0-7.3,2.5-17.7,7.5-31.1h1.1V175.5z M140.9,176.7h0.7
		c5.4,2.6,8.7,5.1,9.9,7.5c-1.5,6.2-3,9.3-4.4,9.3c-7-3.4-10.5-5.6-10.5-6.8C136.5,182.8,138,179.5,140.9,176.7z M474,180.4h0.7
		c8.1,7.2,12.8,12,14.3,14.3l-1.2,1.2h-3.7v2.5c7.5,12.4,11.2,20.2,11.2,23.6c0,13.1-3.9,22-11.8,26.8c-4.6,3.6-6.9,7.2-6.9,10.5
		v5.6c0,8.3,4.8,14.3,14.3,18l3.7,0.7h5c13.4,0,30.5-11.4,51.5-34.2c1.3-1.5,1.9-3.4,1.9-5.6l-1.9-1.9c-4.7,1.3-11.3,2.3-19.9,3.1
		c-7.8-1.9-11.8-5.7-11.8-11.2v-2.5c0-10,4.8-16.6,14.3-19.9h0.7c5.6,0,12.5,5,20.5,14.9h0.7c2.1,0,9.3-4.6,21.7-13.7h1.2
		c0.8,0,1.2,3.5,1.2,10.5c3.8,5.4,8.3,8.1,13.7,8.1c10.3,0,18.2-7,23.6-21.1l1.9-1.9c0.8,0,1.2,0.6,1.2,1.9
		c-1.7,3.3-2.5,6.2-2.5,8.7c2.5,4.5,7.1,6.8,13.7,6.8h1.2c2.2,0,3.6-0.8,4.3-2.5l-3.7-7.5l2.5-9.9h1.9c3.3,7.2,5,12.4,5,15.6
		c-1.2,11.2-5.2,16.7-11.8,16.7h-2.5c-4.6-0.1-9.6-2.8-14.9-8h-0.6c-6.6,8.7-13.5,13-20.9,13s-12.6-3.7-15.8-11.2
		c-0.8-3.3-1.7-5-2.5-5h-0.6c-9.6,7-14.3,11.5-14.3,13.7c0,12.7-8.7,25.5-26.1,38.5c-11.7,11.2-23.9,16.8-36.6,16.8
		c-12.4,0-20.2-8.1-23.6-24.3l0.6-4.3v-8.7h-1.2c-26.3,19.1-47.6,29.4-64,31.1l-22.4,4.3v-1.2c5.2-3.2,15-7.3,29.2-12.4
		c28.8-14.6,53.1-30.3,72.8-47.2c1.7-1.7,2.5-3.4,2.5-5V227l-13.7-27.3l-3.7-9.9L474,180.4z M211.7,185.4l0.7,0.6
		c-1.3,4.1-1.9,9.1-1.9,14.9c0,3.6,1.5,6.5,4.4,8.7h0.6c1.1,0,1.9-1.4,2.5-4.3h0.7l1.2,1.2c0,4.8-1.7,8.3-5,10.5H213
		c-3.7-2.9-5.6-7.2-5.6-13v-0.7C209,191.4,210.5,185.4,211.7,185.4z M448.5,189.7h0.6v1.2h0.7c-1.4,7.1-5.1,14.8-11.2,23
		c0,2.2,1.9,4,5.6,5.6c5.4,5,8.1,9.6,8.1,13.7c0,12-7.5,20.6-22.4,25.5h-3.7c-5,0-7.5-4.1-7.5-12.2s1.9-15.3,5.6-21.3V224
		c0-2-3.5-5.7-10.5-11.2c-4.6-4.9-6.9-8.8-6.9-11.8v-0.6c0.2-3.8,0.9-5.6,1.9-5.6h0.6c8.3,3.3,13.7,6,16.2,8.1v0.6
		c-2,0.3-3.1,1-3.1,1.9v0.6c2.6,3.5,5.5,5.6,8.7,6.2L448.5,189.7z M109.2,198.4h0.6l-3.1,20.6v8.7c1.4,6.6,3,9.9,5,9.9h1.8
		c0.9,0,2-1.9,3.1-5.6h1.2v1.2h0.6c-1.5,9.6-3.6,14.3-6.2,14.3H111c-5.3,0-8.4-6.6-9.3-19.9C104.9,208.2,107.4,198.4,109.2,198.4z
		 M142.8,219.5c2.2,1.7,4.4,2.5,6.8,2.5h1.9c3,0,4.7-0.6,5-1.8v-0.7c-2.5-2.9-5.9-4.3-9.9-4.3C144,215.8,142.8,217.3,142.8,219.5z
		 M526.8,228.9v1.2c0.2,1.2,1.9,1.8,5,1.8h3.7c5,0,7.5-0.8,7.5-2.5c-2.6-2.9-6.1-4.3-10.6-4.3C530.2,225.2,528.4,226.4,526.8,228.9z
		 M423,242.6c0.6,1.7,1.6,3,3.1,3.7h3.7c4.1,0,9.5-3.1,16.2-9.4v-1.2c-2.3-3.6-7.3-6.7-14.9-9.3h-0.7
		C425.5,231.8,423,237.2,423,242.6z M290.7,229.5h1.8c-2,8.3-3.1,14.7-3.1,19.3v1.8c0.7,6.2,2.8,9.4,6.2,9.4
		c1.2-1.4,2.2-3.7,3.1-6.9h1.2l0.7,1.9c-2.3,9.5-4.6,14.3-6.9,14.3h-0.6c-5.4-1.1-8.1-5.7-8.1-13.7v-3.1
		C285,248.9,286.9,241.3,290.7,229.5z M626.8,253.8l1.2,1.2v0.6c-1.9,8.7-4.8,13.1-8.7,13.1l-6.8-1.2c0,1.5-2.5,2.9-7.5,4.3
		l-7.5-2.5h-3.7l-23.6,14.9l-3.1,1.2h-4.3v-0.6l30.4-20.6l5.6-1.8l5.6,2.5h5c4.1-2.7,6.2-4.9,6.2-6.9h0.7l3.7,3.7h2.5
		c1.2,0,1.8-1.7,1.8-5L626.8,253.8z M240.3,256.2v0.6l-1.8,10.6c0.7,6.6,2.2,9.9,4.3,9.9h0.7c1,0,1.9-1.7,2.5-5h1.8
		c-0.9,8.3-2.4,12.4-4.3,12.4H241c-2.1,0-3.8-3.3-5-9.9v-4.4C236,265.7,237.4,260.9,240.3,256.2z M148.3,276.7h0.7v1.9
		c0,3.3-5.6,6.6-16.8,9.9l-24.2,9.9l-1.9-0.7c0-2.9,5.2-6.2,15.6-9.9L148.3,276.7z"/>
</g>
</svg>
