<?xml version="1.0" encoding="utf-8"?>
<!-- Generator: Adobe Illustrator 25.2.3, SVG Export Plug-In . SVG Version: 6.00 Build 0)  -->
<svg version="1.1" xmlns="http://www.w3.org/2000/svg" xmlns:xlink="http://www.w3.org/1999/xlink" x="0px" y="0px"
	 viewBox="0 0 700 395" style="enable-background:new 0 0 700 395;" xml:space="preserve">
<style type="text/css">
	.st0{fill:#000222;}
	.st1{fill:#FFFFFF;}
</style>
<g id="Layer_1">
	<rect class="st0" width="700" height="395"/>
</g>
<g id="Layer_3">
	<g>
		<path class="st1" d="M273.5,368.6l1.1,4.2c0.2,0.9,0.5,1.8,0.6,2.6h0.1c0.2-0.8,0.5-1.7,0.7-2.6l1.3-4.2h1.3l1.3,4.1
			c0.3,1,0.5,1.9,0.7,2.7h0.1c0.1-0.8,0.4-1.7,0.6-2.7l1.2-4.1h1.5l-2.7,8.2H280l-1.3-3.9c-0.3-0.9-0.5-1.7-0.7-2.7h0
			c-0.2,1-0.5,1.8-0.7,2.7l-1.3,3.9h-1.4l-2.5-8.2H273.5z"/>
		<path class="st1" d="M286.3,368.6l1.1,4.2c0.2,0.9,0.5,1.8,0.6,2.6h0.1c0.2-0.8,0.5-1.7,0.7-2.6l1.3-4.2h1.3l1.3,4.1
			c0.3,1,0.5,1.9,0.7,2.7h0.1c0.1-0.8,0.4-1.7,0.6-2.7l1.2-4.1h1.5l-2.7,8.2h-1.4l-1.3-3.9c-0.3-0.9-0.5-1.7-0.7-2.7h0
			c-0.2,1-0.5,1.8-0.7,2.7l-1.3,3.9h-1.4l-2.5-8.2H286.3z"/>
		<path class="st1" d="M299,368.6l1.1,4.2c0.2,0.9,0.5,1.8,0.6,2.6h0.1c0.2-0.8,0.5-1.7,0.7-2.6l1.3-4.2h1.3l1.3,4.1
			c0.3,1,0.5,1.9,0.7,2.7h0.1c0.1-0.8,0.4-1.7,0.6-2.7l1.2-4.1h1.5l-2.7,8.2h-1.4l-1.3-3.9c-0.3-0.9-0.5-1.7-0.7-2.7h0
			c-0.2,1-0.5,1.8-0.7,2.7l-1.3,3.9h-1.4l-2.5-8.2H299z"/>
		<path class="st1" d="M309.9,375.9c0-0.6,0.4-1.1,1-1.1c0.6,0,1,0.4,1,1.1c0,0.6-0.4,1.1-1,1.1C310.3,377,309.9,376.5,309.9,375.9z
			"/>
		<path class="st1" d="M313.5,375.3c0.4,0.3,1.2,0.6,2,0.6c1.1,0,1.6-0.5,1.6-1.2c0-0.7-0.4-1.1-1.5-1.5c-1.5-0.5-2.2-1.3-2.2-2.3
			c0-1.3,1.1-2.4,2.8-2.4c0.8,0,1.6,0.2,2,0.5l-0.4,1.1c-0.3-0.2-0.9-0.5-1.7-0.5c-0.9,0-1.4,0.5-1.4,1.1c0,0.7,0.5,1,1.6,1.4
			c1.4,0.5,2.2,1.3,2.2,2.5c0,1.4-1.1,2.5-3.1,2.5c-0.9,0-1.7-0.2-2.3-0.6L313.5,375.3z"/>
		<path class="st1" d="M327.4,374.6c0,0.9,0,1.6,0.1,2.2h-1.3l-0.1-1.3h0c-0.4,0.7-1.3,1.5-2.7,1.5c-1.3,0-2.8-0.7-2.8-3.6v-4.8h1.5
			v4.6c0,1.6,0.5,2.6,1.8,2.6c1,0,1.7-0.7,2-1.4c0.1-0.2,0.1-0.5,0.1-0.8v-5h1.5V374.6z"/>
		<path class="st1" d="M329.8,371.1c0-1,0-1.8-0.1-2.6h1.3l0.1,1.6h0.1c0.4-1.1,1.3-1.8,2.3-1.8c0.2,0,0.3,0,0.4,0.1v1.4
			c-0.2,0-0.3-0.1-0.5-0.1c-1.1,0-1.8,0.8-2,1.9c0,0.2-0.1,0.4-0.1,0.7v4.4h-1.5V371.1z"/>
		<path class="st1" d="M339.9,376.8l-0.1-1h-0.1c-0.5,0.6-1.3,1.2-2.5,1.2c-1.7,0-2.5-1.2-2.5-2.4c0-2,1.8-3.1,4.9-3.1v-0.2
			c0-0.7-0.2-1.9-1.9-1.9c-0.8,0-1.6,0.2-2.1,0.6l-0.3-1c0.7-0.4,1.7-0.7,2.7-0.7c2.5,0,3.1,1.7,3.1,3.4v3.1c0,0.7,0,1.4,0.1,2
			H339.9z M339.7,372.6c-1.6,0-3.5,0.3-3.5,1.9c0,1,0.6,1.4,1.4,1.4c1.1,0,1.8-0.7,2-1.4c0.1-0.2,0.1-0.3,0.1-0.5V372.6z"/>
		<path class="st1" d="M343.5,364.7h1.5v5.1h0c0.2-0.4,0.6-0.8,1.1-1.1c0.4-0.3,1-0.4,1.5-0.4c1.1,0,2.9,0.7,2.9,3.5v4.9H349v-4.7
			c0-1.3-0.5-2.4-1.9-2.4c-1,0-1.7,0.7-2,1.5c-0.1,0.2-0.1,0.4-0.1,0.7v5h-1.5V364.7z"/>
		<path class="st1" d="M358.6,375.5L358.6,375.5c-0.5,0.8-1.4,1.5-2.7,1.5c-1.9,0-3.5-1.7-3.5-4.2c0-3.1,2-4.4,3.7-4.4
			c1.3,0,2.1,0.6,2.5,1.4h0l0.1-1.2h1.4c0,0.7-0.1,1.4-0.1,2.3v9.3h-1.5V375.5z M358.6,371.9c0-0.2,0-0.4-0.1-0.6
			c-0.2-0.9-1-1.7-2.1-1.7c-1.5,0-2.5,1.3-2.5,3.2c0,1.6,0.8,3.1,2.4,3.1c1,0,1.8-0.6,2.1-1.6c0.1-0.2,0.1-0.5,0.1-0.7V371.9z"/>
		<path class="st1" d="M369.4,374.6c0,0.9,0,1.6,0.1,2.2h-1.3l-0.1-1.3h0c-0.4,0.7-1.3,1.5-2.7,1.5c-1.3,0-2.8-0.7-2.8-3.6v-4.8h1.5
			v4.6c0,1.6,0.5,2.6,1.8,2.6c1,0,1.7-0.7,2-1.4c0.1-0.2,0.1-0.5,0.1-0.8v-5h1.5V374.6z"/>
		<path class="st1" d="M371.9,371.1c0-1,0-1.8-0.1-2.6h1.3l0.1,1.6h0.1c0.4-1.1,1.3-1.8,2.3-1.8c0.2,0,0.3,0,0.4,0.1v1.4
			c-0.2,0-0.3-0.1-0.5-0.1c-1.1,0-1.8,0.8-2,1.9c0,0.2-0.1,0.4-0.1,0.7v4.4h-1.5V371.1z"/>
		<path class="st1" d="M381.9,376.8l-0.1-1h-0.1c-0.5,0.6-1.3,1.2-2.5,1.2c-1.7,0-2.5-1.2-2.5-2.4c0-2,1.8-3.1,4.9-3.1v-0.2
			c0-0.7-0.2-1.9-1.9-1.9c-0.8,0-1.6,0.2-2.1,0.6l-0.3-1c0.7-0.4,1.7-0.7,2.7-0.7c2.5,0,3.1,1.7,3.1,3.4v3.1c0,0.7,0,1.4,0.1,2
			H381.9z M381.7,372.6c-1.6,0-3.5,0.3-3.5,1.9c0,1,0.6,1.4,1.4,1.4c1.1,0,1.8-0.7,2-1.4c0.1-0.2,0.1-0.3,0.1-0.5V372.6z"/>
		<path class="st1" d="M385.6,370.8c0-0.9,0-1.5-0.1-2.2h1.3l0.1,1.4h0c0.4-0.8,1.4-1.5,2.7-1.5c1.1,0,2.9,0.7,2.9,3.5v4.9h-1.5
			v-4.7c0-1.3-0.5-2.4-1.9-2.4c-1,0-1.8,0.7-2,1.5c-0.1,0.2-0.1,0.4-0.1,0.7v4.9h-1.5V370.8z"/>
		<path class="st1" d="M394.6,375.9c0-0.6,0.4-1.1,1-1.1c0.6,0,1,0.4,1,1.1c0,0.6-0.4,1.1-1,1.1C395,377,394.6,376.5,394.6,375.9z"
			/>
		<path class="st1" d="M404.4,376.5c-0.4,0.2-1.3,0.5-2.4,0.5c-2.5,0-4.1-1.7-4.1-4.2c0-2.5,1.7-4.4,4.4-4.4c0.9,0,1.7,0.2,2.1,0.4
			l-0.3,1.2c-0.4-0.2-0.9-0.4-1.7-0.4c-1.9,0-2.9,1.4-2.9,3.1c0,1.9,1.2,3.1,2.9,3.1c0.8,0,1.4-0.2,1.8-0.4L404.4,376.5z"/>
		<path class="st1" d="M413.5,372.6c0,3-2.1,4.4-4.1,4.4c-2.2,0-3.9-1.6-3.9-4.2c0-2.8,1.8-4.4,4.1-4.4
			C411.9,368.4,413.5,370.1,413.5,372.6z M406.9,372.7c0,1.8,1,3.2,2.5,3.2c1.4,0,2.5-1.3,2.5-3.2c0-1.4-0.7-3.2-2.5-3.2
			S406.9,371.1,406.9,372.7z"/>
		<path class="st1" d="M415.4,370.8c0-0.9,0-1.5-0.1-2.2h1.3l0.1,1.3h0.1c0.5-0.8,1.2-1.5,2.6-1.5c1.1,0,2,0.7,2.3,1.6h0
			c0.3-0.5,0.6-0.8,0.9-1.1c0.5-0.4,1-0.6,1.8-0.6c1.1,0,2.7,0.7,2.7,3.6v4.8h-1.5v-4.7c0-1.6-0.6-2.5-1.8-2.5
			c-0.9,0-1.5,0.6-1.8,1.4c-0.1,0.2-0.1,0.5-0.1,0.7v5.1h-1.5v-4.9c0-1.3-0.6-2.3-1.7-2.3c-0.9,0-1.6,0.7-1.9,1.5
			c-0.1,0.2-0.1,0.5-0.1,0.7v5h-1.5V370.8z"/>
	</g>
</g>
<g id="Layer_4">
	<path class="st1" d="M368.6,110.5c5.9,11.5,10,21.5,12.4,30.1l-0.6,0.6h-0.6c-2.8-2.8-4.7-4.2-5.9-4.2v0.6c0,6.8,1,13.7,3,20.6
		c13.1-7.3,22.6-14.2,28.3-20.6l0.6-1.8c-2.4-4.1-3.5-6.9-3.5-8.3c0-4.9,2.6-9,7.7-12.4c2.7,0,4.1,2.8,4.1,8.3l-0.6,7.6l5.9,8.3
		l-0.6,3H417c-2.9-2.4-5.1-3.5-6.5-3.5c-11,10.6-21.2,17.5-30.7,20.6l-0.6,0.6l-2.4-0.6c5.9,44.1,8.8,69.6,8.8,76.7v3
		c-1.2,11.8-2.7,17.7-4.7,17.7h-0.6l-0.6-4.7c0-14.2-5.1-58.4-15.3-132.8C364.4,116.2,365.8,113.3,368.6,110.5z M332,112.2h1.2
		c8.2,16.3,12.4,25.2,12.4,26.6c-0.6,1.6-1.2,2.4-1.7,2.4l-3-3l-1.7-0.6v0.6c0,11.3,3.9,39.3,11.8,83.8l1.7,1.2l8.3-1.2
		c9.1,1.5,13.6,4,13.6,7.7l1.2,3.5c-1.6,12.6-4.7,18.9-9.4,18.9l-0.6,0.6c-5.1,0-11.4-4.7-18.9-14.2h-0.6c-11.6,8.7-22.5,13-32.5,13
		c-6.3,0-14.3-4.3-24.2-13c-15.2,8.3-23.6,12.4-25.4,12.4c-2.7,1.6-6.5,2.4-11.2,2.4h-5.4c-7.5,0-14.6-4.9-21.2-14.8
		c-3.3-3.7-5.8-19.6-7.6-47.8c-3.5-34.5-7-57.2-10.6-67.9c1.4-5.5,2.6-8.3,3.5-8.3h0.6c1.7,0,4.5,11.8,8.3,35.4l5.4,47.8l-0.6,0.6
		c0,16.7,3.5,29.3,10.6,37.8c4.8,3.1,9.5,4.7,14.2,4.7h5.9c8.2,0,16.3-3.1,24.2-9.4l0.6-1.7c-6.4-5.1-10.5-7.7-12.4-7.7h-4.2
		l-7.6,2.4l-0.6-1.7c0-8.9,6.7-14.4,20.1-16.5c5.4-1.2,10.3-1.8,14.8-1.8c12.6,0,22.2,3.4,28.9,10.1c0,7.4-2.9,11.2-8.8,11.2
		c-7.1,3.5-10.6,5.8-10.6,7.1c3.9,4.4,8.3,6.5,13,6.5h3.5c10.8,0,19.8-3.9,27.1-11.8v-1.2l-14.2-101.5c-0.8,0-1.2-1.2-1.2-3.5
		C329.6,115.2,330.8,112.2,332,112.2z M261.8,114.6c2.8,1.9,4.2,4.1,4.2,6.5v1.7l-1.8,1.8h-0.6l-4.2-3l-1.7,1.8v7.6
		c0,4.9-0.6,9.6-1.8,14.2h-1.2c-5-8.7-9-13.8-11.8-15.3l-2.4,0.6c-4-1.9-6.1-3.5-6.5-4.7c0-5.1,1-7.7,2.9-7.7
		c3.4,0,9.1,4.9,17.2,14.8l0.6-0.6v-3.5c0-8.2,2-12.9,5.9-14.2H261.8z M537.4,114.6c3.5,1.9,5.3,4.5,5.3,7.7
		c-0.5,1.9-1.1,2.9-1.7,2.9h-0.6c-2-1.9-3.8-2.9-5.3-2.9h-1.2c-1.6,0.6-2.4,2-2.4,4.1c-0.6,17.7-2,26.6-4.2,26.6h-0.6
		c-4.7-11-9.4-16.5-14.2-16.5c-3.9-1.8-5.9-4.1-5.9-7.1c0.3-3.6,1.2-5.4,2.9-5.4c3.8,0.9,9.5,6.3,17.2,16
		C528.2,123,531.8,114.6,537.4,114.6z M192.8,115.7h1.2l-1.8,10.1v0.6c0,3,0.8,4.8,2.4,5.4h1.2l3-3v1.2c-0.4,6.3-2,9.4-4.6,9.4
		c-2.7,0-4.3-3.1-4.8-9.4v-1.2C189.2,125.4,190.4,121.1,192.8,115.7z M579.9,116.4h1.2c2.7,1.6,4.1,5.2,4.1,10.6v6.5
		c2.8,2.5,4.2,5.1,4.2,7.7v0.6c0,0.8-0.6,1.2-1.8,1.2c-2.4-1.6-4.1-2.4-5.3-2.4c-19.7,17.5-34.4,26.9-44.3,28.3h-1.2v-0.6
		c0-0.8,5.5-4.4,16.4-10.7c10.9-6.4,19.2-12.8,24.9-19.4c-3.4-3.8-5.5-6.7-6.5-8.8C573.3,120.7,576.1,116.4,579.9,116.4z
		 M320.2,116.9l1.7,0.6v1.2c0,4.3-3.9,7.8-11.8,10.6l-71.4,43l-5.9,2.4v-1.2h-0.6c0-4.6,5.9-9.9,17.7-15.9
		C262.8,149.6,286.2,136,320.2,116.9z M487.8,118.1v1.2h0.6c0,3.5-8.7,9.6-26,18.3c-16.8,10.6-26.3,15.9-28.3,15.9l-0.6-0.6v-0.6
		c0-4,13.4-12.8,40.1-26.5C480,121.2,484.7,118.6,487.8,118.1z M406.4,124v2.4l2.4,2.4h1.2l1.2-1.2c-0.5-3.5-1.3-5.3-2.4-5.3h-0.6
		L406.4,124z M575.2,126.4c2.3,3.1,4.5,4.7,6.5,4.7l0.6-0.6v-1.8c0-3-0.8-4.7-2.4-5.3h-2.4C575.9,124.2,575.2,125.2,575.2,126.4z
		 M147.3,132.9c22.8,0.8,34.2,2.2,34.2,4.1c0,6.9-4.5,12.2-13.5,16c-20.8,11.1-33.6,19.1-38.4,24.2c-0.4,4.4-1.3,6.5-2.9,6.5l-3-1.2
		c-14.9,10.7-22.4,26.6-22.4,47.8c0.9,17.5,6.5,28.1,16.5,31.9h0.6c5.1-0.4,21.6-7.9,49.6-22.4c17-10.6,29.6-19.3,37.8-26
		c2.4-2.4,3.5-4.3,3.5-5.9v-0.6c-0.9-3.9-5.7-14.3-14.2-31.3l-1.2-4.7l1.7-8.3h1.2l12.4,12.4v0.6l-1.2,1.2h-3.5v1.2
		c6.3,9.8,9.4,19.8,9.4,30c0,10.2-12,22.2-36,36.1c-15.9,11.4-30.3,17.2-43,17.2l-11.3,2.9v1.2c7.1,4.7,20.1,7.1,38.9,7.1
		c11.9,0,31.7-2.8,59.6-8.3l1.7,0.6v0.6c-2.2,2.5-12.6,7.1-31.2,13.6c-10.3,3.5-21.7,5.3-34.2,5.3h-2.4c-27.5,0-45.8-8.4-54.9-25.3
		c-2.3-6.1-3.8-14.9-4.7-26.6c0-21.3,6.5-40,19.5-56v-1.2c-1.2-1.8-7.1-5.8-17.7-11.8c-2.8-3.3-4.2-7.2-4.2-11.8
		c2.6-11,10.7-16.5,24.2-16.5C118.4,134.2,128,133.4,147.3,132.9z M144.9,144.7c-25,0-39.9,2.2-44.8,6.5v1.8c1.6,1.7,6.9,5,16,10
		c3.8,3.6,6.6,5.4,8.3,5.4c22.2-13.6,33.6-20.9,34.2-21.9l-1.2-1.2L144.9,144.7z M324.3,148.8h1.2l0.6,1.8c0,3.3-3.8,6.1-11.3,8.3
		c-6.7,2.7-21,9.5-43,20.6h-0.6l-0.6-1.7C271.6,172.7,289.5,163.1,324.3,148.8z M494.3,154.1v0.6l-2.4,9.4c0,6.3,1.8,9.4,5.4,9.4
		l3.5-4.1l0.6,0.6v0.6c-1.5,6.7-3.3,10-5.3,10c-4.7-1.1-7.1-4.6-7.1-10.6c0-3.9,1.6-9.2,4.7-15.9H494.3z M417.6,158.2h1.8
		c5.5,4.3,8.3,7.3,8.3,8.9c-1,3.1-2.6,5.5-4.7,7.1h-1.8c-3.6-3.1-6.1-4.7-7.6-4.7l-5.4,6.5c-2.5,0-5.7-2.2-9.4-6.5v-0.6
		c0-3.3,1.4-6.1,4.2-8.3l8.8,4.2h0.6L417.6,158.2z M582.2,158.2v0.6l-3,10v1.8c0,2.3,1.2,4.3,3.5,5.9h1.2l3-3l0.6,0.6v0.6
		c-1.2,5.5-3.3,8.3-6.5,8.3c-2.8-1.9-4.2-4-4.2-6.5V173C576.9,167.9,578.7,163,582.2,158.2z M175.6,162.4h1.2v0.6l-1.7,7.7
		c0,5.1,1.6,7.6,4.7,7.6l2.4-2.4l0.6,0.6v0.6c0,5-2,8-5.9,8.9c-2.7-1.9-4.1-5-4.1-9.3C172.7,172.4,173.7,167.6,175.6,162.4z
		 M314.9,170h1.2v0.6l-2.4,11.2v1.8c0,3.4,1.4,5.7,4.2,7.1h0.6c1.2,0,1.8-0.8,1.8-2.4h0.6l1.2,1.2v0.6c0,3.2-1.6,6-4.7,8.3
		c-4.7-2.6-7.1-6.3-7.1-11.2C310.1,184.4,311.7,178.6,314.9,170z M451.8,170.7h1.2l12.4,12.4v1.8l-1.8,0.6l-2.4-0.6l-0.6,1.7
		c6.7,11.2,10,18.5,10,21.9c0,12.8-4.9,22-14.7,27.7c-2.4,2.9-3.5,6.4-3.5,10.6c1.4,12.6,6.9,18.9,16.5,18.9h2.4
		c14.6,0,31.2-10.4,49.6-31.2l1.2-1.8v-3.5l-1.2-1.2h-1.2c-6.3,1.6-11.5,2.4-15.3,2.4h-0.6c-7.9-1-11.8-5-11.8-11.8
		c0-9.2,4.5-15.5,13.6-18.9h1.2c4.6,0,10.6,4.5,18.3,13.6h0.6c1.5,0,7.8-3.9,18.9-11.8h1.2v-0.6c1.7,0,2.6,3.8,2.9,11.3
		c3.6,3.9,7.2,5.9,10.6,5.9h1.8c8.7,0,15.6-5.9,20.6-17.7l1.8-1.8h0.6l0.6,0.6h0.6l-2.4,7.1c0,3.5,3.8,6.1,11.3,7.6
		c3.9-0.3,5.9-0.9,5.9-1.7l-3-8.3c1.2-5.1,2.2-7.7,3-7.7h0.6c1.7,0,3.5,4.9,5.4,14.8c-2.4,9.8-6.1,14.7-11.3,14.7H594
		c-5.2,0-10.5-2.5-16-7.6l-10.6,9.4l-8.8,2.4c-4.8,0-9.5-2.8-14.2-8.3c-0.6-4.4-1.4-6.5-2.4-6.5h-1.2c-9.1,5.4-13.6,9.9-13.6,13.6
		c0,12.4-11.6,26.6-34.8,42.5c-7.6,4.3-15,6.5-22.4,6.5c-9.8,0-16.8-6.1-21.2-18.3v-9.4l0.6-5.9l-0.6-0.6h-0.6
		c-22,14.9-38,23.4-47.8,25.4l-31.9,5.9v-0.6c1.1-1.8,10.5-5.9,28.3-12.4c17.5-8.5,35.8-19.7,54.8-33.7c9.1-6.5,13.6-11.4,13.6-14.7
		V212c-10.2-18.5-15.3-29.7-15.3-33.7L451.8,170.7z M428.8,178.9h1.2c0,4.7-3.4,12.2-10.1,22.4v0.6c7.5,6.3,11.3,11.6,11.3,16
		c0,11.9-6.7,20.2-20.1,24.8h-3c-3.9,0-6.5-3.4-7.6-10.1v-1.2c0-6.1,2-13.6,5.9-22.4v-1.2c-10.2-9.1-15.3-15-15.3-17.7v-3.5
		c0.2-2.4,0.8-3.5,1.7-3.5c9,2.9,14.1,5.2,15.3,7.1v0.6c0,0.8-0.6,1.2-1.7,1.2l-0.6,0.6v1.2c1.6,2,3.9,3.6,7.1,4.7L428.8,178.9z
		 M247.6,181.8v0.6l-1.7,9.4v6.5c0,3.1,1.6,4.9,4.7,5.4c0.8,0,1.2-0.6,1.2-1.8l0.6-0.6h0.6l1.2,1.2c0,3.3-1.4,6.2-4.2,8.8h-2.4
		c-3.5-2.4-5.3-6.3-5.3-11.8C244.1,187.7,245.9,181.8,247.6,181.8z M148.5,187.2c3.4,0.9,7,3.8,10.6,8.8c-1.8,5.1-3.6,7.7-5.3,7.7
		c-6.7-3.5-10.1-6.5-10.1-8.9C145.1,189.7,146.7,187.2,148.5,187.2z M125.5,194.8h1.2l-1.2,9.4c0,2.6,1,4.4,2.9,5.4h1.2l3-3l0.6,0.6
		v1.7c0,2.7-1.6,5.5-4.7,8.3c-3.9-1.6-5.9-4.5-5.9-8.8v-1.8C122.5,203.9,123.5,200,125.5,194.8z M186.2,201.9l1.2,1.8
		c0,3.3-4.5,6.4-13.5,9.4c-15.3,8.2-29.3,16.2-41.9,24.2c-4.4,3.1-7.3,4.7-8.8,4.7v-1.7c0-4.2,14.3-13.9,43-29L186.2,201.9z
		 M405.2,224.3v3l2.9,2.9h0.6c6,0,11.5-2.8,16.5-8.3v-1.7c-2.1-2.9-6.2-5.7-12.4-8.3C410.7,212,408.2,216.1,405.2,224.3z
		 M499.6,216.7c2.2,1.2,4.3,1.7,6.5,1.7c4.7-0.2,7.1-0.8,7.1-1.7v-0.6c-1.8-2.7-4.4-4.1-7.6-4.1h-0.6
		C501.4,212,499.6,213.6,499.6,216.7z M284.2,216.7v0.6c2,3.4,4.7,5.7,8.3,7.1l7.7-4.1v-2.4l-7.7-1.2H284.2z M358.5,234.4L358,235
		v0.6c0,1.8,2.9,3.4,8.8,4.7l1.8-0.6v-1.2C366.9,235.8,363.6,234.4,358.5,234.4z M218.7,239.7l0.6,0.6c0,4-7.7,9.5-23,16.5
		l-11.3,6.5h-1.2l-0.6-0.6h-0.6c0-3.3,3.5-6.4,10.6-9.4C209,244.2,217.5,239.7,218.7,239.7z M590.5,240.3h0.6l0.6,1.7
		c-2.4,7.9-4.8,11.8-7.1,11.8h-3.5l-1.8-1.2l-8.8,4.2l-8.3-3c-2.2,0-9.9,4.3-23.1,13l-8.8,3l-0.6-0.6v-0.6l30.7-20.1l4.2-0.6h0.6
		l7.7,2.4c1.8-0.2,4.6-2.4,8.3-6.5c0.5,1.6,1.5,2.8,2.9,3.5h2.4c1.2,0,2-1.8,2.4-5.4L590.5,240.3z M343.8,245.6l0.6,1.8l-2.9,8.3
		v2.4c0.8,3.5,1.8,5.3,2.9,5.3h1.2l3-2.9l0.6,0.6c-1.7,5.9-3.3,8.9-4.7,8.9H342c-2.7-1.7-4.1-4.5-4.1-8.3
		C340.4,250.9,342.4,245.6,343.8,245.6z M287.2,246.2h1.7c-2.7,8.2-4.1,13.7-4.1,16.5c1,3.9,2.2,5.9,3.5,5.9h0.6l3.5-3l0.6,1.8
		c-2.3,5.5-3.8,8.3-4.7,8.3h-1.2c-3.6-2.2-5.4-5.9-5.4-11.3v-0.6C281.8,259.3,283.6,253.4,287.2,246.2z"/>
</g>
</svg>
