<?xml version="1.0" encoding="utf-8"?>
<!-- Generator: Adobe Illustrator 25.2.3, SVG Export Plug-In . SVG Version: 6.00 Build 0)  -->
<svg version="1.1" xmlns="http://www.w3.org/2000/svg" xmlns:xlink="http://www.w3.org/1999/xlink" x="0px" y="0px"
	 viewBox="0 0 700 395" style="enable-background:new 0 0 700 395;" xml:space="preserve">
<style type="text/css">
	.st0{fill:#000222;}
	.st1{fill:#FFFFFF;}
</style>
<g id="Layer_1">
	<rect class="st0" width="700" height="395"/>
</g>
<g id="Layer_3">
	<g>
		<path class="st1" d="M273.5,368.6l1.1,4.2c0.2,0.9,0.5,1.8,0.6,2.6h0.1c0.2-0.8,0.5-1.7,0.7-2.6l1.3-4.2h1.3l1.3,4.1
			c0.3,1,0.5,1.9,0.7,2.7h0.1c0.1-0.8,0.4-1.7,0.6-2.7l1.2-4.1h1.5l-2.7,8.2H280l-1.3-3.9c-0.3-0.9-0.5-1.7-0.7-2.7h0
			c-0.2,1-0.5,1.8-0.7,2.7l-1.3,3.9h-1.4l-2.5-8.2H273.5z"/>
		<path class="st1" d="M286.3,368.6l1.1,4.2c0.2,0.9,0.5,1.8,0.6,2.6h0.1c0.2-0.8,0.5-1.7,0.7-2.6l1.3-4.2h1.3l1.3,4.1
			c0.3,1,0.5,1.9,0.7,2.7h0.1c0.1-0.8,0.4-1.7,0.6-2.7l1.2-4.1h1.5l-2.7,8.2h-1.4l-1.3-3.9c-0.3-0.9-0.5-1.7-0.7-2.7h0
			c-0.2,1-0.5,1.8-0.7,2.7l-1.3,3.9h-1.4l-2.5-8.2H286.3z"/>
		<path class="st1" d="M299,368.6l1.1,4.2c0.2,0.9,0.5,1.8,0.6,2.6h0.1c0.2-0.8,0.5-1.7,0.7-2.6l1.3-4.2h1.3l1.3,4.1
			c0.3,1,0.5,1.9,0.7,2.7h0.1c0.1-0.8,0.4-1.7,0.6-2.7l1.2-4.1h1.5l-2.7,8.2h-1.4l-1.3-3.9c-0.3-0.9-0.5-1.7-0.7-2.7h0
			c-0.2,1-0.5,1.8-0.7,2.7l-1.3,3.9h-1.4l-2.5-8.2H299z"/>
		<path class="st1" d="M309.9,375.9c0-0.6,0.4-1.1,1-1.1c0.6,0,1,0.4,1,1.1c0,0.6-0.4,1.1-1,1.1C310.3,377,309.9,376.5,309.9,375.9z
			"/>
		<path class="st1" d="M313.5,375.3c0.4,0.3,1.2,0.6,2,0.6c1.1,0,1.6-0.5,1.6-1.2c0-0.7-0.4-1.1-1.5-1.5c-1.5-0.5-2.2-1.3-2.2-2.3
			c0-1.3,1.1-2.4,2.8-2.4c0.8,0,1.6,0.2,2,0.5l-0.4,1.1c-0.3-0.2-0.9-0.5-1.7-0.5c-0.9,0-1.4,0.5-1.4,1.1c0,0.7,0.5,1,1.6,1.4
			c1.4,0.5,2.2,1.3,2.2,2.5c0,1.4-1.1,2.5-3.1,2.5c-0.9,0-1.7-0.2-2.3-0.6L313.5,375.3z"/>
		<path class="st1" d="M327.4,374.6c0,0.9,0,1.6,0.1,2.2h-1.3l-0.1-1.3h0c-0.4,0.7-1.3,1.5-2.7,1.5c-1.3,0-2.8-0.7-2.8-3.6v-4.8h1.5
			v4.6c0,1.6,0.5,2.6,1.8,2.6c1,0,1.7-0.7,2-1.4c0.1-0.2,0.1-0.5,0.1-0.8v-5h1.5V374.6z"/>
		<path class="st1" d="M329.8,371.1c0-1,0-1.8-0.1-2.6h1.3l0.1,1.6h0.1c0.4-1.1,1.3-1.8,2.3-1.8c0.2,0,0.3,0,0.4,0.1v1.4
			c-0.2,0-0.3-0.1-0.5-0.1c-1.1,0-1.8,0.8-2,1.9c0,0.2-0.1,0.4-0.1,0.7v4.4h-1.5V371.1z"/>
		<path class="st1" d="M339.9,376.8l-0.1-1h-0.1c-0.5,0.6-1.3,1.2-2.5,1.2c-1.7,0-2.5-1.2-2.5-2.4c0-2,1.8-3.1,4.9-3.1v-0.2
			c0-0.7-0.2-1.9-1.9-1.9c-0.8,0-1.6,0.2-2.1,0.6l-0.3-1c0.7-0.4,1.7-0.7,2.7-0.7c2.5,0,3.1,1.7,3.1,3.4v3.1c0,0.7,0,1.4,0.1,2
			H339.9z M339.7,372.6c-1.6,0-3.5,0.3-3.5,1.9c0,1,0.6,1.4,1.4,1.4c1.1,0,1.8-0.7,2-1.4c0.1-0.2,0.1-0.3,0.1-0.5V372.6z"/>
		<path class="st1" d="M343.5,364.7h1.5v5.1h0c0.2-0.4,0.6-0.8,1.1-1.1c0.4-0.3,1-0.4,1.5-0.4c1.1,0,2.9,0.7,2.9,3.5v4.9H349v-4.7
			c0-1.3-0.5-2.4-1.9-2.4c-1,0-1.7,0.7-2,1.5c-0.1,0.2-0.1,0.4-0.1,0.7v5h-1.5V364.7z"/>
		<path class="st1" d="M358.6,375.5L358.6,375.5c-0.5,0.8-1.4,1.5-2.7,1.5c-1.9,0-3.5-1.7-3.5-4.2c0-3.1,2-4.4,3.7-4.4
			c1.3,0,2.1,0.6,2.5,1.4h0l0.1-1.2h1.4c0,0.7-0.1,1.4-0.1,2.3v9.3h-1.5V375.5z M358.6,371.9c0-0.2,0-0.4-0.1-0.6
			c-0.2-0.9-1-1.7-2.1-1.7c-1.5,0-2.5,1.3-2.5,3.2c0,1.6,0.8,3.1,2.4,3.1c1,0,1.8-0.6,2.1-1.6c0.1-0.2,0.1-0.5,0.1-0.7V371.9z"/>
		<path class="st1" d="M369.4,374.6c0,0.9,0,1.6,0.1,2.2h-1.3l-0.1-1.3h0c-0.4,0.7-1.3,1.5-2.7,1.5c-1.3,0-2.8-0.7-2.8-3.6v-4.8h1.5
			v4.6c0,1.6,0.5,2.6,1.8,2.6c1,0,1.7-0.7,2-1.4c0.1-0.2,0.1-0.5,0.1-0.8v-5h1.5V374.6z"/>
		<path class="st1" d="M371.9,371.1c0-1,0-1.8-0.1-2.6h1.3l0.1,1.6h0.1c0.4-1.1,1.3-1.8,2.3-1.8c0.2,0,0.3,0,0.4,0.1v1.4
			c-0.2,0-0.3-0.1-0.5-0.1c-1.1,0-1.8,0.8-2,1.9c0,0.2-0.1,0.4-0.1,0.7v4.4h-1.5V371.1z"/>
		<path class="st1" d="M381.9,376.8l-0.1-1h-0.1c-0.5,0.6-1.3,1.2-2.5,1.2c-1.7,0-2.5-1.2-2.5-2.4c0-2,1.8-3.1,4.9-3.1v-0.2
			c0-0.7-0.2-1.9-1.9-1.9c-0.8,0-1.6,0.2-2.1,0.6l-0.3-1c0.7-0.4,1.7-0.7,2.7-0.7c2.5,0,3.1,1.7,3.1,3.4v3.1c0,0.7,0,1.4,0.1,2
			H381.9z M381.7,372.6c-1.6,0-3.5,0.3-3.5,1.9c0,1,0.6,1.4,1.4,1.4c1.1,0,1.8-0.7,2-1.4c0.1-0.2,0.1-0.3,0.1-0.5V372.6z"/>
		<path class="st1" d="M385.6,370.8c0-0.9,0-1.5-0.1-2.2h1.3l0.1,1.4h0c0.4-0.8,1.4-1.5,2.7-1.5c1.1,0,2.9,0.7,2.9,3.5v4.9h-1.5
			v-4.7c0-1.3-0.5-2.4-1.9-2.4c-1,0-1.8,0.7-2,1.5c-0.1,0.2-0.1,0.4-0.1,0.7v4.9h-1.5V370.8z"/>
		<path class="st1" d="M394.6,375.9c0-0.6,0.4-1.1,1-1.1c0.6,0,1,0.4,1,1.1c0,0.6-0.4,1.1-1,1.1C395,377,394.6,376.5,394.6,375.9z"
			/>
		<path class="st1" d="M404.4,376.5c-0.4,0.2-1.3,0.5-2.4,0.5c-2.5,0-4.1-1.7-4.1-4.2c0-2.5,1.7-4.4,4.4-4.4c0.9,0,1.7,0.2,2.1,0.4
			l-0.3,1.2c-0.4-0.2-0.9-0.4-1.7-0.4c-1.9,0-2.9,1.4-2.9,3.1c0,1.9,1.2,3.1,2.9,3.1c0.8,0,1.4-0.2,1.8-0.4L404.4,376.5z"/>
		<path class="st1" d="M413.5,372.6c0,3-2.1,4.4-4.1,4.4c-2.2,0-3.9-1.6-3.9-4.2c0-2.8,1.8-4.4,4.1-4.4
			C411.9,368.4,413.5,370.1,413.5,372.6z M406.9,372.7c0,1.8,1,3.2,2.5,3.2c1.4,0,2.5-1.3,2.5-3.2c0-1.4-0.7-3.2-2.5-3.2
			S406.9,371.1,406.9,372.7z"/>
		<path class="st1" d="M415.4,370.8c0-0.9,0-1.5-0.1-2.2h1.3l0.1,1.3h0.1c0.5-0.8,1.2-1.5,2.6-1.5c1.1,0,2,0.7,2.3,1.6h0
			c0.3-0.5,0.6-0.8,0.9-1.1c0.5-0.4,1-0.6,1.8-0.6c1.1,0,2.7,0.7,2.7,3.6v4.8h-1.5v-4.7c0-1.6-0.6-2.5-1.8-2.5
			c-0.9,0-1.5,0.6-1.8,1.4c-0.1,0.2-0.1,0.5-0.1,0.7v5.1h-1.5v-4.9c0-1.3-0.6-2.3-1.7-2.3c-0.9,0-1.6,0.7-1.9,1.5
			c-0.1,0.2-0.1,0.5-0.1,0.7v5h-1.5V370.8z"/>
	</g>
</g>
<g id="Layer_4">
	<path class="st1" d="M287.2,105.6c4.2,1.2,6.3,5.2,6.3,12l-0.7,4.5c2.5,3.5,3.8,6,3.8,7.6v1.3l-1.9,1.9l-3.8-2.5
		c-2.1,0-4.9,2.5-8.3,7.6C267,151.3,256.9,158,252.4,158v-0.6l31-26.5l1.9-2.5v-1.9c-4-3.4-6.1-6.1-6.3-8.2c1.8-8,4.3-12,7.6-12
		L287.2,105.6z M253.1,108.7v0.7l-4.5,12.6c1,3.8,2,5.6,3.2,5.6h1.3c0.8,0,1.3-0.6,1.3-1.9l0.6-0.7h0.7l1.3,1.3
		c-1.3,4.9-3.2,8.1-5.7,9.5c-3.8-2-5.6-4.5-5.6-7.6C245.5,120.7,248,114.2,253.1,108.7z M342.1,108.7h1.3c2.5,1.8,3.8,3.7,3.8,5.7
		l-1.3,12c3.4,2.7,5.5,5.4,6.3,8.3l-1.3,3.1c-1.3,0-3.8-1.5-7.6-4.4h-1.3c-12,11.3-22.1,18.1-30.3,20.2l-0.6-0.7v-1.3
		c17.7-11.2,26.5-18.6,26.5-22.1c-2.1-3.1-3.2-5.5-3.2-7v-1.3C334.5,116,337,111.8,342.1,108.7z M284,115v0.7l3.8,3.1h1.3v-3.1
		l-2.5-2.5h-0.6L284,115z M479.8,112.5c2.2,0,4.2,2.8,5.7,8.3c-0.8,1.9-1.7,2.9-2.5,3.1h-0.7l-4.4-3.8c-3.4,0-5.1,4.9-5.1,14.6
		c-0.4,6.9-1.5,13-3.2,18.3h-2.5c-4-12.6-9.5-18.9-16.4-18.9l-4.4-5.6c0.7-3.8,1.5-5.7,2.5-5.7h0.6c4.9,0,11.1,5.5,18.4,16.4h0.6
		C470.1,121.4,473.9,112.5,479.8,112.5z M426.1,114.5v1.3h0.6c0,3.5-11.6,10.8-34.7,22.1c-8.8,5.9-16.8,10.3-24,13.3l-0.7-0.7v-0.6
		c0-4.3,8.2-10.2,24.7-17.7C406.6,123.6,417.9,117.7,426.1,114.5z M338.3,118.2v1.9l2.5,2.5h0.7l1.9-1.9v-2.5l-1.9-1.9h-1.3
		L338.3,118.2z M525.3,115.7c3.8,0,5.7,4.2,5.7,12.6v6.3c2.5,3.1,3.8,5.4,3.8,6.9c-0.3,2.1-1,3.2-1.9,3.2c-2.9-2.1-5-3.2-6.3-3.2
		c-17,15.8-33.2,25.7-48.6,29.7h-0.7V170l32.8-20.2c8-5,12-8.8,12-11.4c-3.8-3.6-5.7-6.8-5.7-9.5
		C516.4,123.1,519.4,118.7,525.3,115.7z M520.2,125.8v1.3c0.5,1.1,2.4,2.6,5.7,4.4h1.3v-3.1c0-3.4-1.5-5.1-4.5-5.1L520.2,125.8z
		 M194.9,131.5c29.5,1.5,44.2,3.2,44.2,5.1v1.3c0,7.5-8.4,14.5-25.3,20.9c-15.2,8.1-24.6,13.8-28.5,17c-0.7,5.5-1.7,8.3-3.1,8.3
		l-3.2-1.9h-0.6c-2.4,0-4.5,1.5-6.3,4.5v0.6l1.3,1.3h1.9l3.8-0.6l0.7,0.6h0.6l22.7-1.3v-0.6l0.7,0.6h9.4c18,0,29.4,5.9,34.1,17.7
		l0.7,6.3v3.8c-1.5,13.1-6.5,25.7-15.2,37.9c-15,15.6-30,23.4-44.9,23.4h-0.6c-18.1,0-29.9-8.4-35.4-25.3l-1.9-14.6
		c0-11.6,2.3-24.7,7-39.2v-2.5l-4.5-4.4c0-1.3,2.8-1.9,8.3-1.9c5.1-6,8.4-10.6,10.1-13.9c0-1.2-5.1-5.4-15.2-12.6
		c-2.5-3.6-3.8-7.2-3.8-10.7C152,138,166.3,131.5,194.9,131.5z M158.9,150.4l19.6,15.8h2.5c9.9-6.2,21.3-12.5,34.1-18.9v-1.9
		l-23.4-1.9l-0.6,0.6h-0.7l-0.6-0.6h-0.7C169,144.2,158.9,146.5,158.9,150.4z M289,148.6h0.7c3.3,0,6.7,2.5,10.1,7.6
		c-2.1,5.4-4,8.2-5.7,8.2c-6.3-2.7-9.4-5.6-9.4-8.8C286.4,151.3,287.9,149,289,148.6z M432.5,152.9l-2.5,10.1v3.8
		c0,3.3,1,5.4,3.1,6.3h3.2c0-1.7,0.8-2.9,2.5-3.8h0.6c0,7.2-2.1,11.4-6.3,12.6c-3.4,0-5.9-4-7.6-12
		C427.7,159.9,430,154.2,432.5,152.9z M349.7,154.9h1.9c5.9,4.5,8.8,7.4,8.8,8.8c0,2.7-2.1,5.6-6.3,8.8l-8.3-6.3h-0.6
		c-1,0.2-2.9,2.8-5.7,7.6h-1.9c-5.9-3.9-8.8-7.3-8.8-10.1c0.7-2.8,2.4-5.1,5.1-7c1.5,0,4.2,1.5,8.2,4.5h1.9L349.7,154.9z
		 M525.3,161.2h1.3c-2.1,6.1-3.1,10.7-3.1,13.9c1.1,3.4,2.1,5.1,3.1,5.1h1.3c1.3,0,1.9-0.8,1.9-2.5h1.9c0,3.9-1.9,7.3-5.6,10.1
		c-4.2-1.5-6.3-4.5-6.3-9.1C519.6,174,521.5,168.2,525.3,161.2z M263.2,167.5l0.6,0.6l-2.5,10.1v3.2c0.3,5.4,1.1,8.2,2.5,8.2h1.3
		l3.2-2.5l1.3,1.3c-1.5,6.7-3.4,10.1-5.7,10.1c-4.2-1.5-6.3-5.5-6.3-12v-1.9c0-4,1.7-9.7,5.1-17H263.2z M388.2,168.8
		c8.4,8.3,12.6,13.5,12.6,15.7v0.7h-3.8l-1.3,1.3c6.3,11.7,9.4,19.9,9.4,24.6v1.9c0,11.2-5.9,20.6-17.7,28.4l-1.9,7.6v7
		c0,7.5,5.9,12.7,17.7,15.7c17.3,0,36-11.1,56.2-33.4l0.7-2.5v-0.7c0-0.8-0.6-1.3-1.9-1.3c-7,1.3-13.1,1.9-18.3,1.9
		c-8-1.3-12-5.3-12-12v-4.4c0-7.8,4.6-13.5,13.9-17.1h1.9c5.5,0,12.2,5.1,20.2,15.2h0.6c3.5-1.1,10.5-5.3,20.9-12.6h1.9
		c0,12.6,4.4,18.9,13.3,18.9h0.6c9.8,0,17.2-5.7,22.2-17l1.9-2.5l0.7-0.7h1.9v1.9l-2.5,7.6c0,3,4,5.3,12,6.9h4.4l1.9-1.9
		c0-1.4-0.8-3.3-2.5-5.7v-0.6c0.4-6.2,1.4-9.6,3.1-10.1h0.7c1.9,0,3.5,4.8,5.1,14.5v1.3c-1.9,10.9-6.1,16.4-12.6,16.4H536
		c-6,0-11.2-3.4-15.8-10.1c-0.7,0-3,2.5-6.9,7.6c-2.8,2.5-7,4.4-12.6,5.7c-9.3,0-15.4-5.3-18.4-15.8v-1.9H481
		c-9.7,5.8-14.5,10.5-14.5,13.9c0,14.4-15,30.2-44.9,47.3c-6.5,2.5-12,3.8-16.4,3.8c-12.2,0-20.2-6.5-24-19.5l-0.6-6.3l1.3-10.8
		h-2.5c-27.1,16-44.7,24-53.1,24l-22.7,4.5v0.6l-1.9-0.6l-5.6,1.3h-2.5v-1.9c20.8-7.2,37.7-14.2,50.5-20.8
		c22.2-11.1,39-21.9,50.5-32.3c2.4-1.7,4-3.6,5.1-5.6v-0.7c0-1.7-3.8-10.6-11.4-26.5c-1.3-5.3-2.6-8.8-3.8-10.7
		C385.4,172.1,386.7,168.8,388.2,168.8z M298.5,170.6c8,8.1,12,13.8,12,17.1L308,189v1.9c3,6.9,4.5,12.4,4.5,16.4v1.3
		c0,8.7-4.2,15.4-12.6,20.2c0,15-9.3,26.8-27.8,35.4c-22.3,15.2-43.2,22.7-62.6,22.7c-5.4,0-11.3,0.8-17.7,2.5l-1.9-0.6v-1.9
		c34.1-9.9,57-18.8,68.8-26.5c8.6-3.3,19.8-10.6,33.5-22.1l0.6-0.7v-3.1l-1.3-1.3l-17.7,2.5c-6.7-1.8-10.1-5-10.1-9.5l-0.6-2.5v-0.6
		c0-9.2,4.4-15.5,13.2-18.9h2.5c4.3,0,10,4.4,17.1,13.2c7.1-1.7,10.7-4,10.7-6.9c-8-17.2-12-27.3-12-30.3
		C295.1,173.8,296.4,170.6,298.5,170.6z M362.3,177v1.3h0.7c-1.1,5.1-5.1,12.5-12,22.2v1.3c8,5.9,12,11.8,12,17.7
		c0,10.8-5.3,18.1-15.8,22.1c0,1.1-3.4,2.2-10.1,3.2c-5.4-2-8.2-5.3-8.2-10.1v-0.7c0-6.2,2.3-14.9,6.9-25.9
		c-10.1-11-15.2-17.3-15.2-18.9v-4.5l0.7-4.4c9.5,2.6,15.2,5.4,17,8.2v1.9c-1.7,0.2-2.5,0.8-2.5,1.9c3.6,3.4,6.2,5.1,7.6,5.1
		L361,177H362.3z M164,197.8c-5.9,8.4-8.8,19.6-8.8,33.5s6.5,23.8,19.6,29.7c2.4,1.7,8.3,2.5,17.7,2.5c7.9-1,16.5-4.3,25.9-10.1
		c16-12.2,24-23.6,24-34.1c0-13.5-13.7-20.2-41-20.2l-0.7,0.6H200l-3.2-0.6l-17.7,0.6L164,197.8z M215.8,209.2l1.3,1.3
		c0,4.2-2.1,6.3-6.3,6.3c-16.1,6.9-27.2,12.2-33.4,15.7l-0.7-1.9C176.6,226.2,189.6,219.1,215.8,209.2z M334.5,225v3.2
		c1.5,2.5,3.4,3.8,5.7,3.8c10.5-3.6,15.7-7.2,15.7-10.8c-5.3-5.9-10-8.8-13.9-8.8C340,212.3,337.5,216.5,334.5,225z M436.2,220.6
		l5.6,1.3h5.7c2.1,0,3.1-0.4,3.1-1.3c-0.2-1.3-2.1-3-5.6-5.1h-3.2C438.5,215.5,436.6,217.2,436.2,220.6z M272.6,220.6v0.6l3.2,0.7
		h5.6l1.3-1.3c-0.7-1.7-2.1-2.5-4.4-2.5h-3.2L272.6,220.6z M216.4,221.2l0.6,0.7v1.9c0,2.1-9.5,7.1-28.4,15.2
		c-4.9,2.5-8.5,3.8-10.8,3.8v-1.3c0-3.8,9.3-9.2,27.8-16.4C209.4,222.7,213,221.4,216.4,221.2z M533.5,248.4
		c0,7.6-2.8,12.7-8.3,15.2l-6.9-1.9c-2.4,2.5-5.4,3.8-8.8,3.8c-3.4-2.1-6.5-3.1-9.5-3.1l-25.3,14.5l-8.2,1.3v-0.6
		c20.2-13.1,32.6-20.5,37.2-22.2l9.5,3.2c2,0,5.2-2.3,9.4-7c0.8,2.6,1.9,4.1,3.2,4.5h1.9c1,0,2.3-2.3,3.8-7l0.7-0.6H533.5z"/>
</g>
</svg>
