<?xml version="1.0" encoding="utf-8"?>
<!-- Generator: Adobe Illustrator 25.2.3, SVG Export Plug-In . SVG Version: 6.00 Build 0)  -->
<svg version="1.1" xmlns="http://www.w3.org/2000/svg" xmlns:xlink="http://www.w3.org/1999/xlink" x="0px" y="0px"
	 viewBox="0 0 700 395" style="enable-background:new 0 0 700 395;" xml:space="preserve">
<style type="text/css">
	.st0{fill:#000222;}
	.st1{fill:#FFFFFF;}
</style>
<g id="Layer_1">
	<rect class="st0" width="700" height="395"/>
</g>
<g id="Layer_3">
	<g>
		<path class="st1" d="M273.5,368.6l1.1,4.2c0.2,0.9,0.5,1.8,0.6,2.6h0.1c0.2-0.8,0.5-1.7,0.7-2.6l1.3-4.2h1.3l1.3,4.1
			c0.3,1,0.5,1.9,0.7,2.7h0.1c0.1-0.8,0.4-1.7,0.6-2.7l1.2-4.1h1.5l-2.7,8.2H280l-1.3-3.9c-0.3-0.9-0.5-1.7-0.7-2.7h0
			c-0.2,1-0.5,1.8-0.7,2.7l-1.3,3.9h-1.4l-2.5-8.2H273.5z"/>
		<path class="st1" d="M286.3,368.6l1.1,4.2c0.2,0.9,0.5,1.8,0.6,2.6h0.1c0.2-0.8,0.5-1.7,0.7-2.6l1.3-4.2h1.3l1.3,4.1
			c0.3,1,0.5,1.9,0.7,2.7h0.1c0.1-0.8,0.4-1.7,0.6-2.7l1.2-4.1h1.5l-2.7,8.2h-1.4l-1.3-3.9c-0.3-0.9-0.5-1.7-0.7-2.7h0
			c-0.2,1-0.5,1.8-0.7,2.7l-1.3,3.9h-1.4l-2.5-8.2H286.3z"/>
		<path class="st1" d="M299,368.6l1.1,4.2c0.2,0.9,0.5,1.8,0.6,2.6h0.1c0.2-0.8,0.5-1.7,0.7-2.6l1.3-4.2h1.3l1.3,4.1
			c0.3,1,0.5,1.9,0.7,2.7h0.1c0.1-0.8,0.4-1.7,0.6-2.7l1.2-4.1h1.5l-2.7,8.2h-1.4l-1.3-3.9c-0.3-0.9-0.5-1.7-0.7-2.7h0
			c-0.2,1-0.5,1.8-0.7,2.7l-1.3,3.9h-1.4l-2.5-8.2H299z"/>
		<path class="st1" d="M309.9,375.9c0-0.6,0.4-1.1,1-1.1c0.6,0,1,0.4,1,1.1c0,0.6-0.4,1.1-1,1.1C310.3,377,309.9,376.5,309.9,375.9z
			"/>
		<path class="st1" d="M313.5,375.3c0.4,0.3,1.2,0.6,2,0.6c1.1,0,1.6-0.5,1.6-1.2c0-0.7-0.4-1.1-1.5-1.5c-1.5-0.5-2.2-1.3-2.2-2.3
			c0-1.3,1.1-2.4,2.8-2.4c0.8,0,1.6,0.2,2,0.5l-0.4,1.1c-0.3-0.2-0.9-0.5-1.7-0.5c-0.9,0-1.4,0.5-1.4,1.1c0,0.7,0.5,1,1.6,1.4
			c1.4,0.5,2.2,1.3,2.2,2.5c0,1.4-1.1,2.5-3.1,2.5c-0.9,0-1.7-0.2-2.3-0.6L313.5,375.3z"/>
		<path class="st1" d="M327.4,374.6c0,0.9,0,1.6,0.1,2.2h-1.3l-0.1-1.3h0c-0.4,0.7-1.3,1.5-2.7,1.5c-1.3,0-2.8-0.7-2.8-3.6v-4.8h1.5
			v4.6c0,1.6,0.5,2.6,1.8,2.6c1,0,1.7-0.7,2-1.4c0.1-0.2,0.1-0.5,0.1-0.8v-5h1.5V374.6z"/>
		<path class="st1" d="M329.8,371.1c0-1,0-1.8-0.1-2.6h1.3l0.1,1.6h0.1c0.4-1.1,1.3-1.8,2.3-1.8c0.2,0,0.3,0,0.4,0.1v1.4
			c-0.2,0-0.3-0.1-0.5-0.1c-1.1,0-1.8,0.8-2,1.9c0,0.2-0.1,0.4-0.1,0.7v4.4h-1.5V371.1z"/>
		<path class="st1" d="M339.9,376.8l-0.1-1h-0.1c-0.5,0.6-1.3,1.2-2.5,1.2c-1.7,0-2.5-1.2-2.5-2.4c0-2,1.8-3.1,4.9-3.1v-0.2
			c0-0.7-0.2-1.9-1.9-1.9c-0.8,0-1.6,0.2-2.1,0.6l-0.3-1c0.7-0.4,1.7-0.7,2.7-0.7c2.5,0,3.1,1.7,3.1,3.4v3.1c0,0.7,0,1.4,0.1,2
			H339.9z M339.7,372.6c-1.6,0-3.5,0.3-3.5,1.9c0,1,0.6,1.4,1.4,1.4c1.1,0,1.8-0.7,2-1.4c0.1-0.2,0.1-0.3,0.1-0.5V372.6z"/>
		<path class="st1" d="M343.5,364.7h1.5v5.1h0c0.2-0.4,0.6-0.8,1.1-1.1c0.4-0.3,1-0.4,1.5-0.4c1.1,0,2.9,0.7,2.9,3.5v4.9H349v-4.7
			c0-1.3-0.5-2.4-1.9-2.4c-1,0-1.7,0.7-2,1.5c-0.1,0.2-0.1,0.4-0.1,0.7v5h-1.5V364.7z"/>
		<path class="st1" d="M358.6,375.5L358.6,375.5c-0.5,0.8-1.4,1.5-2.7,1.5c-1.9,0-3.5-1.7-3.5-4.2c0-3.1,2-4.4,3.7-4.4
			c1.3,0,2.1,0.6,2.5,1.4h0l0.1-1.2h1.4c0,0.7-0.1,1.4-0.1,2.3v9.3h-1.5V375.5z M358.6,371.9c0-0.2,0-0.4-0.1-0.6
			c-0.2-0.9-1-1.7-2.1-1.7c-1.5,0-2.5,1.3-2.5,3.2c0,1.6,0.8,3.1,2.4,3.1c1,0,1.8-0.6,2.1-1.6c0.1-0.2,0.1-0.5,0.1-0.7V371.9z"/>
		<path class="st1" d="M369.4,374.6c0,0.9,0,1.6,0.1,2.2h-1.3l-0.1-1.3h0c-0.4,0.7-1.3,1.5-2.7,1.5c-1.3,0-2.8-0.7-2.8-3.6v-4.8h1.5
			v4.6c0,1.6,0.5,2.6,1.8,2.6c1,0,1.7-0.7,2-1.4c0.1-0.2,0.1-0.5,0.1-0.8v-5h1.5V374.6z"/>
		<path class="st1" d="M371.9,371.1c0-1,0-1.8-0.1-2.6h1.3l0.1,1.6h0.1c0.4-1.1,1.3-1.8,2.3-1.8c0.2,0,0.3,0,0.4,0.1v1.4
			c-0.2,0-0.3-0.1-0.5-0.1c-1.1,0-1.8,0.8-2,1.9c0,0.2-0.1,0.4-0.1,0.7v4.4h-1.5V371.1z"/>
		<path class="st1" d="M381.9,376.8l-0.1-1h-0.1c-0.5,0.6-1.3,1.2-2.5,1.2c-1.7,0-2.5-1.2-2.5-2.4c0-2,1.8-3.1,4.9-3.1v-0.2
			c0-0.7-0.2-1.9-1.9-1.9c-0.8,0-1.6,0.2-2.1,0.6l-0.3-1c0.7-0.4,1.7-0.7,2.7-0.7c2.5,0,3.1,1.7,3.1,3.4v3.1c0,0.7,0,1.4,0.1,2
			H381.9z M381.7,372.6c-1.6,0-3.5,0.3-3.5,1.9c0,1,0.6,1.4,1.4,1.4c1.1,0,1.8-0.7,2-1.4c0.1-0.2,0.1-0.3,0.1-0.5V372.6z"/>
		<path class="st1" d="M385.6,370.8c0-0.9,0-1.5-0.1-2.2h1.3l0.1,1.4h0c0.4-0.8,1.4-1.5,2.7-1.5c1.1,0,2.9,0.7,2.9,3.5v4.9h-1.5
			v-4.7c0-1.3-0.5-2.4-1.9-2.4c-1,0-1.8,0.7-2,1.5c-0.1,0.2-0.1,0.4-0.1,0.7v4.9h-1.5V370.8z"/>
		<path class="st1" d="M394.6,375.9c0-0.6,0.4-1.1,1-1.1c0.6,0,1,0.4,1,1.1c0,0.6-0.4,1.1-1,1.1C395,377,394.6,376.5,394.6,375.9z"
			/>
		<path class="st1" d="M404.4,376.5c-0.4,0.2-1.3,0.5-2.4,0.5c-2.5,0-4.1-1.7-4.1-4.2c0-2.5,1.7-4.4,4.4-4.4c0.9,0,1.7,0.2,2.1,0.4
			l-0.3,1.2c-0.4-0.2-0.9-0.4-1.7-0.4c-1.9,0-2.9,1.4-2.9,3.1c0,1.9,1.2,3.1,2.9,3.1c0.8,0,1.4-0.2,1.8-0.4L404.4,376.5z"/>
		<path class="st1" d="M413.5,372.6c0,3-2.1,4.4-4.1,4.4c-2.2,0-3.9-1.6-3.9-4.2c0-2.8,1.8-4.4,4.1-4.4
			C411.9,368.4,413.5,370.1,413.5,372.6z M406.9,372.7c0,1.8,1,3.2,2.5,3.2c1.4,0,2.5-1.3,2.5-3.2c0-1.4-0.7-3.2-2.5-3.2
			S406.9,371.1,406.9,372.7z"/>
		<path class="st1" d="M415.4,370.8c0-0.9,0-1.5-0.1-2.2h1.3l0.1,1.3h0.1c0.5-0.8,1.2-1.5,2.6-1.5c1.1,0,2,0.7,2.3,1.6h0
			c0.3-0.5,0.6-0.8,0.9-1.1c0.5-0.4,1-0.6,1.8-0.6c1.1,0,2.7,0.7,2.7,3.6v4.8h-1.5v-4.7c0-1.6-0.6-2.5-1.8-2.5
			c-0.9,0-1.5,0.6-1.8,1.4c-0.1,0.2-0.1,0.5-0.1,0.7v5.1h-1.5v-4.9c0-1.3-0.6-2.3-1.7-2.3c-0.9,0-1.6,0.7-1.9,1.5
			c-0.1,0.2-0.1,0.5-0.1,0.7v5h-1.5V370.8z"/>
	</g>
</g>
<g id="Layer_4">
	<path class="st1" d="M273.5,105.3l11,26.8l-0.5,1.8h-1.2l-3.5-2.9h-1.2v0.6l7,53.5v7.5l-2.9,11.6c15.2,4.7,27.8,7,37.9,7
		c0-7-3.1-38.4-9.3-94.2l-0.6-0.5v-0.6c1.8-5.4,3.2-8.1,4.1-8.1c2.1,1.5,6.1,11,12.2,28.5v0.5l-1.2,1.2l-5.2-4.7l-0.6,0.6v0.5
		c5.4,50.4,8.5,76.6,9.3,78.6c3.7,0.8,9,1.2,15.7,1.2c1.9,0,2.9,1.2,2.9,3.5c-1.1,1.3-2.1,4-2.9,8.1l-1.8,0.5l-13.3-0.5
		c-2.6,14-4.8,20.9-6.4,20.9h-0.5l-0.6-1.8l0.6-2.3l-0.6-3.5l0.6-1.7l-1.2-12.3h-4.7c-4.6,0-23,5-55.3,15.1l-15.7,1.8l-7.6-1.2
		c-0.8,0-1.3,3.3-1.7,9.9c-1.7,6.2-4.6,10.6-8.8,13.4c-20.3,12.8-37.8,19.2-52.4,19.2c-16.3,0-27.6-5.8-33.7-17.5
		c-1.6-4.5-2.3-8-2.3-10.5V253c0-5.5,1.9-14,5.8-25.6v-2.9c-3.1-4.1-4.7-8.6-4.7-13.3s1.8-13.7,5.3-26.8c1.8-5,3-7.5,3.6-7.5
		s1,0.6,1,1.7c-3.5,12.6-5.3,21.4-5.3,26.2v4.7c0,3.7,1.9,6,5.8,7c0.9,0,2.2-1.8,4.1-5.3h1.2v1.2h0.5c0,5.8-2.7,10.9-8.1,15.1
		c-3.1,6.1-4.7,13.5-4.7,22.1c0,10.4,8,17.8,23.9,22.1h12.8c9.9,0,23.6-4.4,41.3-13.3c5.7-3.6,9.2-6.5,10.5-8.8
		c0-5.9-2.7-15.8-8.1-29.6l2.3-7.6h1.2l7.6,12.8c4.1,3.5,8.6,5.3,13.3,5.3c11,0,24.1-3.1,39.6-9.3l1.8-1.8v-1.2l-33.2-7.5h-12.2
		v-1.2h-0.6c1.1-6.6,4.4-9.9,9.9-9.9c17.1-1.3,25.6-2.5,25.6-3.5v-0.5l-8.8-65.8c0-4.8-0.6-9.4-1.7-14
		C270.3,108.8,271.9,105.3,273.5,105.3z M188,109.4c3.9,2.5,5.8,5.4,5.8,8.7l-1.2,2.9c-1.6,0-3.7-1.4-6.4-4.1h-1.8
		c-0.9,19.4-2.4,29.1-4.7,29.1c-6.2-11.6-10.7-17.5-13.3-17.5c-2.9,10.3-8.7,17.9-17.5,22.7c-3.2,1.9-6.1,2.9-8.8,2.9
		c15.5-12.1,23.3-20.2,23.3-24.4c-4.2-4.3-6.4-7.1-6.4-8.1V121c0-2,1-3.9,2.9-5.8c4.6,0,11.1,6.2,19.8,18.6l1.2-1.2v-10.5
		C182.4,113.7,184.8,109.4,188,109.4z M217.7,114h0.5l-2.9,12.8c0,2.9,1,4.8,2.9,5.8h1.2l3.5-4.1l0.6,0.6v0.5c0,4-1.6,7.3-4.7,9.9
		h-0.6c-2.9,0-4.7-1.9-5.2-5.8v-4.1C213,123.6,214.6,118.3,217.7,114z M246.8,114.6h1.7v0.6c-3.9,10.2-5.8,18.2-5.8,23.8v3.5
		c1.1,5.4,3,8.1,5.8,8.1c0.7,0,1.7-1.7,2.9-5.2h1.2v3.5c-1.7,7.8-4,11.6-7,11.6c-5.1-3.9-7.6-8.7-7.6-14.3S240.9,130,246.8,114.6z
		 M494,116.4c3.5,1.7,5.3,4,5.3,7c-0.4,2.3-1,3.5-1.8,3.5h-1.2l-4.7-3.5c-2.3,0.8-3.5,2.3-3.5,4.7v2.9c0,8.1-1,15.9-2.9,23.3h-1.2
		c-5.6-11.6-11.3-17.5-16.9-17.5c-2.7-1.9-4-3.9-4-5.8c0.5-3.1,1.2-4.7,2.3-4.7h1.2c3.9,0,9.5,5.2,16.8,15.7
		c1.2-12.7,2.7-19.5,4.7-20.4C490.2,118.1,492.1,116.4,494,116.4z M367.8,116.9h1.2c1.9,1.1,2.9,2.8,2.9,5.3l-0.5,8.7
		c0,1.3,1.9,4.3,5.8,8.8v1.2l-0.6,2.3h-0.5c-1.6,0-3.7-1.2-6.4-3.5h-1.7c-11.5,11.5-20.7,17.5-27.4,18h-0.5v-0.5
		c1.6-2.4,8.8-7.9,21.5-16.3c1.6-1.7,2.3-3.2,2.3-4.7l-4-6.4C361.1,121.2,363.8,116.9,367.8,116.9z M535.8,118.1
		c3.5,0,5.3,3.3,5.3,9.9v7c2.7,2.6,4,4.8,4,6.4v1.2l-1.2,1.2l-5.8-2.3c-18.5,17.5-33.6,27-45.4,28.5v-0.6c0.5-1.1,6.7-5,18.6-11.6
		l19.8-14.5l2.3-2.9v-1.7c-3.9-3.2-5.8-5.7-5.8-7.6C529.3,122.3,532.1,118.1,535.8,118.1z M445.1,119.2l0.6,1.8
		c0,2.9-8.7,8.9-26.2,18c-16.6,10.1-25.6,15.1-26.8,15.1H391c0-4.2,3.9-7.9,11.6-11l39.6-22.7C442.2,119.7,443.2,119.3,445.1,119.2z
		 M363.7,127.4l2.9,2.3h0.5l1.8-1.7c0-2.1-0.8-3.5-2.3-4.1h-1.2C364.2,124.3,363.7,125.5,363.7,127.4z M531.2,126.8v1.2
		c2.1,2.7,4.3,4,6.4,4h0.5v-1.7c0-3-1-4.9-2.9-5.8C533.2,124.5,531.8,125.3,531.2,126.8z M450.4,154.1h1.2v0.6l-2.3,8.1v4
		c0,3.1,1.2,5.4,3.5,7h1.7c0.8,0,1.2-0.6,1.2-1.7l0.6-2.3l0.5-0.6h0.6l0.5,0.6v1.2c0,4.3-1.7,7.8-5.2,10.5c-4.7-1.7-7-5.7-7-12.3
		L450.4,154.1z M190.9,156.5c0.8,0,2.1,4.3,4,12.8v1.8c-0.8,6.2-2.9,9.3-6.4,9.3c-1.7-0.1-3.6-0.8-5.8-2.3h-1.2
		c-3,3.1-5.3,4.7-7,4.7c-2.6,0-4.5-2.3-5.8-7l1.7-13.4h0.6l1.2,1.2l-0.6,7.6c0,3.1,1.9,4.7,5.8,4.7l2.9-2.9v-0.5l-0.6-9.3l1.2-3.5
		h1.8c0,7.2,1.7,11.8,5.2,14h1.2l1.8-1.8v-0.5c-1.2-3.9-1.8-7.6-1.8-11.1C189.6,157.6,190.1,156.5,190.9,156.5z M377.1,158.8
		c5.1,3.1,7.8,5.8,8.1,8.1c0,2.3-1.8,4.8-5.3,7.6h-1.2l-7-5.3h-1.2c-1,2.9-2.7,5.4-5.2,7.6c-3.3-1.5-6.4-4-9.3-7.6v-0.5
		c1.6-5.4,3.3-8.1,5.2-8.1l8.1,4.7c0.7,0,2.4-2.1,5.3-6.4H377.1z M537,159.4h1.2v1.7c-1.9,2.5-2.9,5.6-2.9,9.3c0.6,4.7,1.5,7,2.9,7
		h1.2l2.9-2.9h0.5v0.5c0,4.1-1.7,7.1-5.2,8.8c-3.5-1.5-5.3-4.6-5.3-9.3C532.3,171.3,533.9,166.2,537,159.4z M224,165.2h0.6v0.5
		l-4.1,13.4c0.5,5,1.5,7.5,2.9,7.5h1.2c0.8,0,1.2-0.6,1.2-1.7l0.5-0.6h0.6l0.5,0.6v0.5c0,3.3-1.3,6.2-4,8.8c-3.9,0-5.8-3.5-5.8-10.5
		C219.9,171.4,222,165.2,224,165.2z M410.2,170.4c8.5,8.2,12.8,12.7,12.8,13.4v1.7h-4v2.9c6.2,9.8,9.3,16.9,9.3,21.5
		c0,11.1-5.4,20.2-16.3,27.4c-1.2,2-2,5.5-2.3,10.5c1.6,6.5,4,10.9,7.3,13.3c3.3,2.4,7.5,3.6,12.4,3.6c11.5,0,26.3-8.9,44.2-26.8
		l5.2-6.4v-1.8c0-1-0.8-1.6-2.3-1.7l-11,2.3h-2.3c-9.7,0-14.6-4.3-14.6-12.8c0-7.6,4.3-13.6,12.8-18.1h1.2c5.5,0,11.7,4.5,18.6,13.4
		h2.9l16.8-11.6h1.8c0.6,0,1.1,0.8,1.7,2.3l-0.5,2.9c1,7.4,4.5,11.1,10.5,11.1h5.2c6.4,0,12.4-6,18.1-18.1l1.7-1.2h1.2v1.2l-2.3,8.1
		c3.1,3.9,6.4,5.8,9.9,5.8h5.2l1.8-1.7v-0.6l-2.9-7c1.4-5.4,2.6-8.1,3.5-8.1c3.5,4,5.3,8.2,5.3,12.8c-1.1,11.3-4.6,16.9-10.5,16.9
		h-2.9c-3.7,0-8.3-2.7-14-8.1c-6.2,8.1-12.4,12.2-18.6,12.2h-1.2c-7.4,0-12.3-5-14.5-15.1h-1.8c-7.1,4.7-11.6,8.5-13.3,11.6
		c0,9-2.7,15.8-8.1,20.4c-17.3,19.8-33.8,29.6-49.5,29.6c-7.4,0-13.8-5-19.2-15.1l-1.2-7v-5.8l0.5-5.8H405
		c-24.9,17.1-43.5,25.6-55.8,25.6l-21.6,4.7l-1.7-0.5v-0.6c0-1.2,8.9-4.9,26.8-11l30.2-15.7c19.7-11.6,33.1-21.8,40.1-30.8
		c-0.6-3-2.6-7.3-6-12.9c-3.4-5.6-6.6-13.1-9.7-22.6C408.3,173.1,409.3,170.4,410.2,170.4z M386.4,179.2l0.5,0.5h0.6
		c-0.7,5.7-3.8,12.1-9.3,19.2l-0.6,3.5c7.4,4.7,11.1,9.3,11.1,14c0,8.7-1.9,14.3-5.8,16.8c-7,5.4-12.5,8.1-16.3,8.1H366
		c-5.4-1.2-8.1-4.5-8.1-9.9c0-6.6,2.1-14.5,6.4-23.9c-10.5-9.7-15.7-14.9-15.7-15.7l1.2-9.9h1.2l15.1,7.6c0,1.6-1,2.3-2.9,2.3v1.2
		c2.6,3.1,5.1,4.7,7.5,4.7c0.8,0,5.9-6.2,15.1-18.6H386.4z M185.6,197.8c7,3.3,10.5,6.4,10.5,9.3v1.2c0,2.3-1.6,4.7-4.7,7
		c-2.6-1-6.1-3.9-10.5-8.8v-1.2C181,202.8,182.5,200.3,185.6,197.8z M363.1,221.1v5.8c0.8,1.9,2.8,2.9,5.8,2.9
		c7.4-2.3,12.1-5.2,14-8.7v-1.2c-4.9-5.4-9.4-8.1-13.4-8.1L363.1,221.1z M456.2,214.6v1.2c0,1.1,1.9,1.9,5.8,2.3h3.5
		c2,0,3.1-0.6,3.5-1.7v-1.8l-6.4-2.9C458.3,212.4,456.2,213.4,456.2,214.6z M193.8,228.6l0.6,0.6l-3.5,9.9v0.6
		c0,3.3,1.2,5.8,3.5,7.5h0.5c0.6,0,1.4-1.2,2.3-3.5h1.2c-0.9,7-2.2,10.5-4,10.5h-1.8c-3.1-2.6-4.7-5.5-4.7-8.7
		C188,238.9,189.9,233.3,193.8,228.6z M545.1,239.7h1.8v1.2c-1.9,8.5-4.6,12.8-8.1,12.8l-5.3-1.8c-3.5,2.7-6.2,4.1-8.1,4.1l-6.4-2.3
		h-1.8c-2.3,0-9.7,4.3-22.1,12.8l-7.5,2.3h-1.8v-0.6l16.3-11c9.1-6.6,15.3-9.9,18.6-9.9l7,2.3c2.3,0,5.2-2.1,8.8-6.4h0.5
		c0,1.6,0.8,2.7,2.3,3.5h3.5L545.1,239.7z M290.4,250.2h0.6c6.2,4.5,9.3,8,9.3,10.5v0.5c-2.5,3.5-4.3,5.5-5.3,5.8h-1.2
		c-6.2-4.8-9.3-7.9-9.3-9.3C285.7,252.7,287.7,250.2,290.4,250.2z M316,265.3h0.6v1.7c0,4.1-9.3,8.7-27.9,14l-9.3,4.1l-1.8-0.6
		c0-3.5,1.9-5.8,5.8-7L316,265.3z M262.4,266.5v1.2c0,4.7-2.3,7-7,7l-37.2,15.1l-0.5-0.6v-1.2c0-3.5,5.6-6.7,16.8-9.9
		C235.5,277,244.9,273.1,262.4,266.5z"/>
</g>
</svg>
