<?xml version="1.0" encoding="utf-8"?>
<!-- Generator: Adobe Illustrator 25.2.3, SVG Export Plug-In . SVG Version: 6.00 Build 0)  -->
<svg version="1.1" xmlns="http://www.w3.org/2000/svg" xmlns:xlink="http://www.w3.org/1999/xlink" x="0px" y="0px"
	 viewBox="0 0 700 395" style="enable-background:new 0 0 700 395;" xml:space="preserve">
<style type="text/css">
	.st0{fill:#000222;}
	.st1{fill:#FFFFFF;}
</style>
<g id="Layer_1">
	<rect class="st0" width="700" height="395"/>
</g>
<g id="Layer_3">
	<g>
		<path class="st1" d="M273.5,368.6l1.1,4.2c0.2,0.9,0.5,1.8,0.6,2.6h0.1c0.2-0.8,0.5-1.7,0.7-2.6l1.3-4.2h1.3l1.3,4.1
			c0.3,1,0.5,1.9,0.7,2.7h0.1c0.1-0.8,0.4-1.7,0.6-2.7l1.2-4.1h1.5l-2.7,8.2H280l-1.3-3.9c-0.3-0.9-0.5-1.7-0.7-2.7h0
			c-0.2,1-0.5,1.8-0.7,2.7l-1.3,3.9h-1.4l-2.5-8.2H273.5z"/>
		<path class="st1" d="M286.3,368.6l1.1,4.2c0.2,0.9,0.5,1.8,0.6,2.6h0.1c0.2-0.8,0.5-1.7,0.7-2.6l1.3-4.2h1.3l1.3,4.1
			c0.3,1,0.5,1.9,0.7,2.7h0.1c0.1-0.8,0.4-1.7,0.6-2.7l1.2-4.1h1.5l-2.7,8.2h-1.4l-1.3-3.9c-0.3-0.9-0.5-1.7-0.7-2.7h0
			c-0.2,1-0.5,1.8-0.7,2.7l-1.3,3.9h-1.4l-2.5-8.2H286.3z"/>
		<path class="st1" d="M299,368.6l1.1,4.2c0.2,0.9,0.5,1.8,0.6,2.6h0.1c0.2-0.8,0.5-1.7,0.7-2.6l1.3-4.2h1.3l1.3,4.1
			c0.3,1,0.5,1.9,0.7,2.7h0.1c0.1-0.8,0.4-1.7,0.6-2.7l1.2-4.1h1.5l-2.7,8.2h-1.4l-1.3-3.9c-0.3-0.9-0.5-1.7-0.7-2.7h0
			c-0.2,1-0.5,1.8-0.7,2.7l-1.3,3.9h-1.4l-2.5-8.2H299z"/>
		<path class="st1" d="M309.9,375.9c0-0.6,0.4-1.1,1-1.1c0.6,0,1,0.4,1,1.1c0,0.6-0.4,1.1-1,1.1C310.3,377,309.9,376.5,309.9,375.9z
			"/>
		<path class="st1" d="M313.5,375.3c0.4,0.3,1.2,0.6,2,0.6c1.1,0,1.6-0.5,1.6-1.2c0-0.7-0.4-1.1-1.5-1.5c-1.5-0.5-2.2-1.3-2.2-2.3
			c0-1.3,1.1-2.4,2.8-2.4c0.8,0,1.6,0.2,2,0.5l-0.4,1.1c-0.3-0.2-0.9-0.5-1.7-0.5c-0.9,0-1.4,0.5-1.4,1.1c0,0.7,0.5,1,1.6,1.4
			c1.4,0.5,2.2,1.3,2.2,2.5c0,1.4-1.1,2.5-3.1,2.5c-0.9,0-1.7-0.2-2.3-0.6L313.5,375.3z"/>
		<path class="st1" d="M327.4,374.6c0,0.9,0,1.6,0.1,2.2h-1.3l-0.1-1.3h0c-0.4,0.7-1.3,1.5-2.7,1.5c-1.3,0-2.8-0.7-2.8-3.6v-4.8h1.5
			v4.6c0,1.6,0.5,2.6,1.8,2.6c1,0,1.7-0.7,2-1.4c0.1-0.2,0.1-0.5,0.1-0.8v-5h1.5V374.6z"/>
		<path class="st1" d="M329.8,371.1c0-1,0-1.8-0.1-2.6h1.3l0.1,1.6h0.1c0.4-1.1,1.3-1.8,2.3-1.8c0.2,0,0.3,0,0.4,0.1v1.4
			c-0.2,0-0.3-0.1-0.5-0.1c-1.1,0-1.8,0.8-2,1.9c0,0.2-0.1,0.4-0.1,0.7v4.4h-1.5V371.1z"/>
		<path class="st1" d="M339.9,376.8l-0.1-1h-0.1c-0.5,0.6-1.3,1.2-2.5,1.2c-1.7,0-2.5-1.2-2.5-2.4c0-2,1.8-3.1,4.9-3.1v-0.2
			c0-0.7-0.2-1.9-1.9-1.9c-0.8,0-1.6,0.2-2.1,0.6l-0.3-1c0.7-0.4,1.7-0.7,2.7-0.7c2.5,0,3.1,1.7,3.1,3.4v3.1c0,0.7,0,1.4,0.1,2
			H339.9z M339.7,372.6c-1.6,0-3.5,0.3-3.5,1.9c0,1,0.6,1.4,1.4,1.4c1.1,0,1.8-0.7,2-1.4c0.1-0.2,0.1-0.3,0.1-0.5V372.6z"/>
		<path class="st1" d="M343.5,364.7h1.5v5.1h0c0.2-0.4,0.6-0.8,1.1-1.1c0.4-0.3,1-0.4,1.5-0.4c1.1,0,2.9,0.7,2.9,3.5v4.9H349v-4.7
			c0-1.3-0.5-2.4-1.9-2.4c-1,0-1.7,0.7-2,1.5c-0.1,0.2-0.1,0.4-0.1,0.7v5h-1.5V364.7z"/>
		<path class="st1" d="M358.6,375.5L358.6,375.5c-0.5,0.8-1.4,1.5-2.7,1.5c-1.9,0-3.5-1.7-3.5-4.2c0-3.1,2-4.4,3.7-4.4
			c1.3,0,2.1,0.6,2.5,1.4h0l0.1-1.2h1.4c0,0.7-0.1,1.4-0.1,2.3v9.3h-1.5V375.5z M358.6,371.9c0-0.2,0-0.4-0.1-0.6
			c-0.2-0.9-1-1.7-2.1-1.7c-1.5,0-2.5,1.3-2.5,3.2c0,1.6,0.8,3.1,2.4,3.1c1,0,1.8-0.6,2.1-1.6c0.1-0.2,0.1-0.5,0.1-0.7V371.9z"/>
		<path class="st1" d="M369.4,374.6c0,0.9,0,1.6,0.1,2.2h-1.3l-0.1-1.3h0c-0.4,0.7-1.3,1.5-2.7,1.5c-1.3,0-2.8-0.7-2.8-3.6v-4.8h1.5
			v4.6c0,1.6,0.5,2.6,1.8,2.6c1,0,1.7-0.7,2-1.4c0.1-0.2,0.1-0.5,0.1-0.8v-5h1.5V374.6z"/>
		<path class="st1" d="M371.9,371.1c0-1,0-1.8-0.1-2.6h1.3l0.1,1.6h0.1c0.4-1.1,1.3-1.8,2.3-1.8c0.2,0,0.3,0,0.4,0.1v1.4
			c-0.2,0-0.3-0.1-0.5-0.1c-1.1,0-1.8,0.8-2,1.9c0,0.2-0.1,0.4-0.1,0.7v4.4h-1.5V371.1z"/>
		<path class="st1" d="M381.9,376.8l-0.1-1h-0.1c-0.5,0.6-1.3,1.2-2.5,1.2c-1.7,0-2.5-1.2-2.5-2.4c0-2,1.8-3.1,4.9-3.1v-0.2
			c0-0.7-0.2-1.9-1.9-1.9c-0.8,0-1.6,0.2-2.1,0.6l-0.3-1c0.7-0.4,1.7-0.7,2.7-0.7c2.5,0,3.1,1.7,3.1,3.4v3.1c0,0.7,0,1.4,0.1,2
			H381.9z M381.7,372.6c-1.6,0-3.5,0.3-3.5,1.9c0,1,0.6,1.4,1.4,1.4c1.1,0,1.8-0.7,2-1.4c0.1-0.2,0.1-0.3,0.1-0.5V372.6z"/>
		<path class="st1" d="M385.6,370.8c0-0.9,0-1.5-0.1-2.2h1.3l0.1,1.4h0c0.4-0.8,1.4-1.5,2.7-1.5c1.1,0,2.9,0.7,2.9,3.5v4.9h-1.5
			v-4.7c0-1.3-0.5-2.4-1.9-2.4c-1,0-1.8,0.7-2,1.5c-0.1,0.2-0.1,0.4-0.1,0.7v4.9h-1.5V370.8z"/>
		<path class="st1" d="M394.6,375.9c0-0.6,0.4-1.1,1-1.1c0.6,0,1,0.4,1,1.1c0,0.6-0.4,1.1-1,1.1C395,377,394.6,376.5,394.6,375.9z"
			/>
		<path class="st1" d="M404.4,376.5c-0.4,0.2-1.3,0.5-2.4,0.5c-2.5,0-4.1-1.7-4.1-4.2c0-2.5,1.7-4.4,4.4-4.4c0.9,0,1.7,0.2,2.1,0.4
			l-0.3,1.2c-0.4-0.2-0.9-0.4-1.7-0.4c-1.9,0-2.9,1.4-2.9,3.1c0,1.9,1.2,3.1,2.9,3.1c0.8,0,1.4-0.2,1.8-0.4L404.4,376.5z"/>
		<path class="st1" d="M413.5,372.6c0,3-2.1,4.4-4.1,4.4c-2.2,0-3.9-1.6-3.9-4.2c0-2.8,1.8-4.4,4.1-4.4
			C411.9,368.4,413.5,370.1,413.5,372.6z M406.9,372.7c0,1.8,1,3.2,2.5,3.2c1.4,0,2.5-1.3,2.5-3.2c0-1.4-0.7-3.2-2.5-3.2
			S406.9,371.1,406.9,372.7z"/>
		<path class="st1" d="M415.4,370.8c0-0.9,0-1.5-0.1-2.2h1.3l0.1,1.3h0.1c0.5-0.8,1.2-1.5,2.6-1.5c1.1,0,2,0.7,2.3,1.6h0
			c0.3-0.5,0.6-0.8,0.9-1.1c0.5-0.4,1-0.6,1.8-0.6c1.1,0,2.7,0.7,2.7,3.6v4.8h-1.5v-4.7c0-1.6-0.6-2.5-1.8-2.5
			c-0.9,0-1.5,0.6-1.8,1.4c-0.1,0.2-0.1,0.5-0.1,0.7v5.1h-1.5v-4.9c0-1.3-0.6-2.3-1.7-2.3c-0.9,0-1.6,0.7-1.9,1.5
			c-0.1,0.2-0.1,0.5-0.1,0.7v5h-1.5V370.8z"/>
	</g>
</g>
<g id="Layer_4">
	<path class="st1" d="M299.1,105h1.2v2.3c0,1.9-8.9,6.4-26.8,13.3l-19.2,8.8l-1.2-1.2c0-3.6,12.2-10,36.7-19.2
		C289.8,108.2,292.9,106.8,299.1,105z M241,109.7l-5.8,20.9v6.4c0,4.5,1.2,7.5,3.5,8.8h1.7c0.9,0,1.9-1.8,2.9-5.3l0.5-0.5h1.2
		l0.6,1.7c-1.3,8.9-4,13.4-8.1,13.4c-4.7-2.7-7-7.5-7-14.4c0-6.9,2.9-17,8.7-30.4l0.6-0.5H241z M211.3,113.2h0.6l1.2,1.2
		c-2.7,6.5-4.1,11.6-4.1,15.1v1.7c0.9,2,2.1,2.9,3.5,2.9l3.5-4.7v0.5c0,4.4-1.7,8.1-5.2,11.1c-3.1-0.9-4.7-3.8-4.7-8.5
		S207.8,121.4,211.3,113.2z M185.1,113.7h0.5c5.7,26,10.7,60.3,15.1,103c1.9,12.8,7.5,19.2,17.1,19.2c9.5,0,15.8-6.8,19-20.3
		c5.4-8.9,10.7-13.4,15.7-13.4c8.1,4.9,12.2,12.6,12.2,23.3c0,6.6-3.3,9.9-9.8,9.9h-0.6c-2,0-7.8-1.9-17.4-5.8
		c-4.8,12.4-12,18.6-21.5,18.6c-9.1,0-15.5-7.6-19.2-22.7h-1.7c-5.1,11.9-17.9,23.2-38.4,33.7c-6.7,3.1-13.5,4.7-20.4,4.7
		c-11.1,0-19.1-5.2-23.8-15.7c-2-3.3-2.9-8.2-2.9-14.8s2.1-15.6,6.4-27.1c-3.1-5-4.7-9.4-4.7-13.4c0-10,2.9-21.8,8.7-35.4h0.6
		l1.2,1.2c-4.3,14.7-6.4,23.8-6.4,27.3c0.6,8.2,2.7,12.3,6.4,12.3h1.2c0.8-3.1,1.6-4.7,2.3-4.7l1.2,1.2c0,9.3-2.5,14-7.6,14
		c-3.5,4.7-5.2,11.7-5.2,20.9c0,12.6,7.8,20.1,23.3,22.6h4c9-0.7,19.3-4.9,30.9-12.8c14.7-10.2,22.1-18.5,22.1-25
		c-1.6-16.8-5.4-46.1-11.6-87.9C182.9,118,184,113.7,185.1,113.7z M321.8,114.3c1,0.3,2.6,3.4,4.7,9.3c3.5,5.7,6,11.5,7.6,17.4v1.7
		h-0.6c-1.5,0-3.2-1-5.2-2.9h-0.6v0.5c4.3,40.7,8.2,67.3,11.6,79.7h0.6l9.3-1.2c8.1,0.9,12.2,4.9,12.2,12.2c0,10-3.1,16.1-9.3,18.1
		h-1.2c-5.1,0-10.1-4.1-15.1-12.3c0-1.1-0.8-2.1-2.3-2.9c-12.8,3.9-21,5.8-24.4,5.8l-8.1-0.6c0,13.5-10.3,25.1-30.8,34.9
		c-14.8,9.3-32.1,14-51.8,14c0,0.7-3.3,1.3-9.8,1.8v-1.2c0-1.1,9.5-4.6,28.5-10.5c27.6-10.8,46.9-21.2,58.2-31.4l1.2-7
		c0-1.7-2.3-8.1-7-19.2c0.5-6.2,1.5-9.3,2.9-9.3c0.6,0.1,2.9,4.5,7,13.4c4,2.3,8.8,3.5,14.2,3.5c5.5,0,11.4-1.8,17.7-5.3
		c-5-33.7-9.3-66.7-12.8-98.9l-0.5-0.5C319.4,117.4,320.8,114.3,321.8,114.3z M396.8,118.4h0.5c3.1,0,4.7,2.3,4.7,7l-0.5,9.9
		c3.4,2.2,5.3,4.5,5.8,7c-0.5,1.9-1.1,2.9-1.8,2.9c-2.7-2.3-4.9-3.5-6.4-3.5h-1.8c-9.8,10.3-18.7,16.4-26.8,18.1l-0.5-0.6
		c0-1,7.5-6.8,22.6-17.4l1.2-2.3v-1.7c-1.9-1.9-3.3-4.4-4-7.6C391.7,123.7,394,119.8,396.8,118.4z M524.2,118.4h0.6
		c3.1,2,4.7,4.5,4.7,7.6c-0.8,1.8-1.6,2.7-2.3,2.9l-4.1-3.5h-2.3c-1.6,0.6-2.3,2.1-2.3,4.7c-0.8,17.5-2.1,26.2-4,26.2h-0.6
		c-4.4-11.6-9.7-17.4-15.7-17.4c-2.3-1.6-3.9-3.7-4.7-6.4c1-3.1,1.9-4.7,2.9-4.7h0.6c3.8,0,9,4.9,15.7,14.6h1.8
		C514.3,127.7,517.6,119.8,524.2,118.4z M160.7,119.5c3.9,2.2,5.8,4.5,5.8,7v2.3l-1.8,1.8h-1.2c-1.9-2.3-3.6-3.5-5.2-3.5l-1.2,1.7v7
		c0,12.9-2.5,23.6-7.6,32l-9.8,8.7H138V176c0.4-1.4,4.7-6.5,12.8-15.1l1.8-3.5V155c-4.1-11.3-9.2-16.9-15.1-16.9
		c-2.5-1.7-4.1-3.6-4.7-5.8c0.5-3.9,1.9-5.8,4-5.8c2.7,0,8.2,5.4,16.3,16.3l1.2-4.7l-0.5-0.5C155,125.5,157.3,119.5,160.7,119.5z
		 M355,119.5h1.7c0.6,3.3,3.9,11.4,9.9,24.4c0,2.7,0.4,4.1,1.2,4.1l-0.6,1.7h-1.7l-2.9-2.9l-1.7-0.6v0.6l-0.6,0.5
		c5.1,34.7,8.4,62.7,9.9,83.8v2.3c0,12.3-1.8,19.8-5.3,22.7h-0.5l-0.6-2.3l0.6-12.8c-2.7-31.1-7-68.3-12.8-111.7L355,119.5z
		 M566.1,119.5c3.9,0,5.8,6,5.8,18.1c2.3,1.3,3.5,3.1,3.5,5.2v1.8c0,0.8-0.6,1.2-1.7,1.2l-4.1-2.3c-1.4,0-5.8,3.7-13.3,11
		c-12.9,9.4-23.9,15.2-33.2,17.4l-0.5-0.5v-0.6c20.8-12.3,34.8-21.8,41.9-28.5v-1.2c-3.9-3.6-5.8-6.5-5.8-8.8
		C558.5,126.7,561,122.5,566.1,119.5z M474.2,120.7h1.2v1.8c0,3.6-10.1,10.4-30.2,20.3c-10.8,7.1-18.5,11.7-23.3,14l-0.5-0.5V155
		c0-4.1,13.6-13.1,40.7-26.8L474.2,120.7z M393.9,128.8l3.5,2.9h1.2v-5.3l-1.2-1.2C395.1,125.3,393.9,126.5,393.9,128.8z M562,130
		c1.6,2.7,3.5,4.1,5.8,4.1l0.5-0.6v-2.3c0-2.1-1-3.6-2.9-4.7C563.2,126.5,562,127.7,562,130z M306.1,130.6c2.3,1.2,3.5,3.7,3.5,7.5
		l-0.6,6.4l2.3,5.8c-0.4,1.9-1.1,2.9-2.3,2.9l-2.9-1.2c-10.6,12.1-20.5,19.5-29.7,22.1v-0.5l26.2-22.1l0.5-2.3
		c-3.5-4.2-5.2-7.1-5.2-8.8C298,135.1,300.7,131.9,306.1,130.6z M283.4,134.6c0.6,0.2,2.3,4.2,5.3,12.3c-0.8,5.8-2.7,8.7-5.8,8.7
		c-1.7,0-3.8-1-6.4-2.9c-4.4,4.2-7.2,6.4-8.1,6.4c-3.1,0-5-2.5-5.8-7.5v-6.4l0.6-4h0.5l1.2,1.2v7c1.3,2.3,2.9,3.5,4.7,3.5
		c1.8-0.7,3.3-2,4.7-4.1v-6.4l-0.5-3.5l1.2-3.5h0.5c0.9,0,1.9,3.5,2.9,10.5l3.5,2.9h2.3v-0.5c-1.6-4.3-2.3-7.6-2.3-9.9
		C281.9,135.8,282.5,134.6,283.4,134.6z M302,139.9l4.1,2.3l0.5-0.6v-2.3l-2.3-2.3C302.8,137.4,302,138.4,302,139.9z M481.8,155.6
		h0.5v0.6c-1.9,3.6-2.9,6.5-2.9,8.7v4.1c0,3.3,1.3,5.6,4,7h0.6c1.9-1.1,2.9-2.6,2.9-4.7h1.2v0.5c0,6-1.9,9.7-5.8,11.1
		c-3.1,0-5.2-3.7-6.4-11.1C478.2,161,480.2,155.6,481.8,155.6z M173.5,159.1h0.5l1.2,1.2l-3.5,13.4v1.2c0,4.2,1.6,6.4,4.7,6.4h1.2
		c0.3-1.9,0.9-2.9,1.8-2.9h0.5v0.5c0,4.8-1.7,8.1-5.2,9.9c-3.9-2.2-5.8-4.7-5.8-7.6v-0.5C168.8,174.7,170.4,167.5,173.5,159.1z
		 M406.1,160.2c2.7,0,5.8,2.9,9.3,8.8v0.5c0,1.7-1.6,4-4.7,7h-1.2c-3.9-3.5-6.8-5.2-8.8-5.2c-1.8,3.8-3.5,6.1-5.2,7
		c-6-3.4-9.2-5.9-9.3-7.6c1.3-5.4,3-8.1,5.2-8.1h1.2l6.4,4.7h1.2l5.2-6.4L406.1,160.2z M568.4,160.9h0.6c-2.3,5.3-3.5,8.9-3.5,11
		c0.8,4.7,1.7,7,2.9,7h1.2c1.6-0.8,2.3-1.7,2.3-2.9h0.6l0.5,0.5h0.6c0,3.2-1.6,6.1-4.7,8.8h-2.3c-1.6,0-2.9-2.7-4.1-8.1
		C562.6,172.1,564.5,166.6,568.4,160.9z M243.8,169.5h0.6l4,12.8c-1.7,6.2-4.4,9.3-8.1,9.3l-4-1.7l-5.3,3.5h-2.9
		c-2.7-1.6-4.1-3.9-4.1-7c0-7,0.6-10.5,1.8-10.5l1.2,1.2v7.5l1.7,1.8h3.5c1.6-0.8,2.3-1.9,2.3-3.5l-0.5-6.4l1.2-4h0.5
		c1.2,0,2,3.1,2.3,9.3l3.5,2.3h1.8v-0.6l-1.8-9.3C242,171.1,242.7,169.5,243.8,169.5z M439.3,172.5h1.2c8.2,7.8,12.3,12,12.3,12.8
		v0.5l-1.2,1.2H448l9.3,19.8l0.5,4.1c0,10.7-3.7,18.4-11,23.3c-4.7,3.8-7,7.4-7,11v0.6c0,10.8,4.3,17.3,12.8,19.8l5.2,0.5h2.9
		c12.6,0,28.5-10.7,47.7-32l0.5-2.3v-0.6c0-0.9-0.8-1.5-2.3-1.7c-6.2,1.6-11.4,2.3-15.7,2.3c-8.2,0-12.3-4.3-12.3-12.8
		c2.9-11.6,7.2-17.4,12.8-17.4c7.6,0,13.8,4.3,18.6,12.8h1.8c2.1,0,8.5-3.9,19.2-11.6h1.2l1.8,1.7v7c3.3,5.8,7.1,8.8,11.6,8.8h1.2
		c8.3,0,15.3-6.2,20.9-18.6l1.7-1.2h1.2l-2.3,8.1v0.5c3.4,4.3,7.1,6.4,11.1,6.4h2.9c2.3,0,3.5-0.8,3.5-2.3l-3.5-7l2.3-8.1h1.2
		c3.5,3.7,5.3,8.3,5.3,14c0,9.3-3.7,14.5-11.1,15.7c-6,0-11.3-2.7-15.7-8.1c-0.8,0-3.1,2.5-7,7.6c-5.3,2.7-9.4,4-12.3,4
		c-10.4-1.5-15.7-6.5-15.7-15.1h-1.8c-8.9,6-13.3,10.3-13.3,12.8c0,10.7-7.6,21.7-22.7,33.2c-11.6,10.4-22.7,15.7-33.2,15.7
		c-10.5,0-17.5-5-20.8-15.1c-1.2-2.7-1.8-5.8-1.8-9.3l1.2-8.7l-0.5-0.6h-0.6L412,258.6c-8.4,6.1-23.4,10.8-44.8,14l-9.3,2.3
		l-1.7-0.6v-0.5c3.4-2.7,13.1-6.8,29.1-12.3c25.2-12.3,46.3-25.6,63.4-40.1l3.5-4.1v-3.5l-9.8-19.8l-4.7-13.3L439.3,172.5z
		 M416.6,181.2l0.5,0.6h0.6c-0.7,5.1-4,12.1-9.9,20.9v0.5c7.4,6.3,11.1,11.3,11.1,15.1c0,8.4-1.9,14-5.8,16.9
		c-7.7,5.4-13.1,8.1-16.3,8.1c-5,0-7.9-3.5-8.8-10.5c0-6.6,2.1-14.6,6.4-23.9c-10.5-8-15.7-14-15.7-18v-1.8c0-3.1,0.8-4.7,2.3-4.7
		c9.1,3.3,14,5.6,14.6,7v0.6c0,0.8-0.8,1.2-2.3,1.2l-0.6,0.5v0.6c0,1.5,2.9,3.2,8.8,5.2L416.6,181.2z M286.9,183.5
		c3.4,1.5,6.5,4.2,9.3,8.1c-1.5,5.4-3.2,8.1-5.2,8.1c-4.6-2.6-7.7-5.5-9.3-8.7C283.1,186,284.8,183.5,286.9,183.5z M150.8,194.6
		l0.6,0.5v0.6l-2.9,11.6v4.7c0,3.3,1.2,5.8,3.5,7.5h1.8c1.6-0.5,2.3-2.1,2.3-4.7h1.2v1.8c0,6.2-2.1,9.7-6.4,10.5
		c-4.2-1.1-6.4-4.2-6.4-9.3c0-8,1.9-15.7,5.8-23.3H150.8z M392.7,226v0.5c0,2.1,1,3.7,2.9,4.7h3.5c3.9,0,8.5-2.7,14-8.1v-0.5
		c-4.2-5.4-8.5-8.5-12.8-9.3C398.4,213.2,395.9,217.5,392.7,226z M486.4,216.7v1.2c0,1.6,2.7,2.3,8.1,2.3h0.5l5.3-1.2v-1.2
		c-2.6-3.1-5.6-4.7-8.8-4.7C488.6,214.2,486.9,215.3,486.4,216.7z M243.3,219c3.9,2.3,7,3.5,9.3,3.5h3.5v-1.8
		c-1.5-3.6-3.6-5.9-6.4-7h-0.5C245.2,214.5,243.3,216.2,243.3,219z M343.9,231.8c2.3,3.5,5,5.2,8.1,5.2h2.3c0.8,0,1.2-0.6,1.2-1.7
		c-1.3-3.1-3.8-4.7-7.5-4.7H345L343.9,231.8z M575.4,241.1h1.8v1.7c0,6.7-2.9,10.8-8.8,12.3l-4.7-1.2c-3.1,2.3-6,3.5-8.7,3.5
		l-6.4-2.3h-0.5c-2.6,0-10,4.1-22.1,12.2l-9.9,3.5l-0.5-0.5v-0.6L544,251c2.2-1.6,5.1-2.3,8.8-2.3c0,1,1.6,1.8,4.7,2.3h2.9
		c3.5-2.2,5.3-4.1,5.3-5.8h1.2c1.8,2.3,3.3,3.5,4.5,3.5C572.4,248.6,573.8,246.1,575.4,241.1z M267.1,241.7v1.8c0,4-5,7.3-15.1,9.8
		l-33.7,14.6h-1.7v-2.9c0.9-2.7,15.1-9.3,42.4-19.8C259.6,244.3,262.3,243.1,267.1,241.7z M323.6,242.8l0.5,0.6v0.5l-2.9,9.3
		c0.7,5.1,1.9,7.6,3.5,7.6h0.5l3.5-3.5l0.6,0.5c-0.9,6.6-2.9,9.9-5.9,9.9c-3,0-4.7-3.5-5.2-10.5C318.3,252.2,320,247.3,323.6,242.8z
		 M200.3,256.8l0.5,1.8c0,2.6-6.8,6.7-20.3,12.2l-27.4,12.8l-0.5-0.5h-0.6c0-3.9,9.3-9.6,27.9-16.9
		C190.9,259.9,197.7,256.8,200.3,256.8z"/>
</g>
</svg>
