<?xml version="1.0" encoding="utf-8"?>
<!-- Generator: Adobe Illustrator 25.2.3, SVG Export Plug-In . SVG Version: 6.00 Build 0)  -->
<svg version="1.1" xmlns="http://www.w3.org/2000/svg" xmlns:xlink="http://www.w3.org/1999/xlink" x="0px" y="0px"
	 viewBox="0 0 700 395" style="enable-background:new 0 0 700 395;" xml:space="preserve">
<style type="text/css">
	.st0{fill:#000222;}
	.st1{fill:#FFFFFF;}
</style>
<g id="Layer_1">
	<rect class="st0" width="700" height="395"/>
</g>
<g id="Layer_3">
	<g>
		<path class="st1" d="M273.5,368.6l1.1,4.2c0.2,0.9,0.5,1.8,0.6,2.6h0.1c0.2-0.8,0.5-1.7,0.7-2.6l1.3-4.2h1.3l1.3,4.1
			c0.3,1,0.5,1.9,0.7,2.7h0.1c0.1-0.8,0.4-1.7,0.6-2.7l1.2-4.1h1.5l-2.7,8.2H280l-1.3-3.9c-0.3-0.9-0.5-1.7-0.7-2.7h0
			c-0.2,1-0.5,1.8-0.7,2.7l-1.3,3.9h-1.4l-2.5-8.2H273.5z"/>
		<path class="st1" d="M286.3,368.6l1.1,4.2c0.2,0.9,0.5,1.8,0.6,2.6h0.1c0.2-0.8,0.5-1.7,0.7-2.6l1.3-4.2h1.3l1.3,4.1
			c0.3,1,0.5,1.9,0.7,2.7h0.1c0.1-0.8,0.4-1.7,0.6-2.7l1.2-4.1h1.5l-2.7,8.2h-1.4l-1.3-3.9c-0.3-0.9-0.5-1.7-0.7-2.7h0
			c-0.2,1-0.5,1.8-0.7,2.7l-1.3,3.9h-1.4l-2.5-8.2H286.3z"/>
		<path class="st1" d="M299,368.6l1.1,4.2c0.2,0.9,0.5,1.8,0.6,2.6h0.1c0.2-0.8,0.5-1.7,0.7-2.6l1.3-4.2h1.3l1.3,4.1
			c0.3,1,0.5,1.9,0.7,2.7h0.1c0.1-0.8,0.4-1.7,0.6-2.7l1.2-4.1h1.5l-2.7,8.2h-1.4l-1.3-3.9c-0.3-0.9-0.5-1.7-0.7-2.7h0
			c-0.2,1-0.5,1.8-0.7,2.7l-1.3,3.9h-1.4l-2.5-8.2H299z"/>
		<path class="st1" d="M309.9,375.9c0-0.6,0.4-1.1,1-1.1c0.6,0,1,0.4,1,1.1c0,0.6-0.4,1.1-1,1.1C310.3,377,309.9,376.5,309.9,375.9z
			"/>
		<path class="st1" d="M313.5,375.3c0.4,0.3,1.2,0.6,2,0.6c1.1,0,1.6-0.5,1.6-1.2c0-0.7-0.4-1.1-1.5-1.5c-1.5-0.5-2.2-1.3-2.2-2.3
			c0-1.3,1.1-2.4,2.8-2.4c0.8,0,1.6,0.2,2,0.5l-0.4,1.1c-0.3-0.2-0.9-0.5-1.7-0.5c-0.9,0-1.4,0.5-1.4,1.1c0,0.7,0.5,1,1.6,1.4
			c1.4,0.5,2.2,1.3,2.2,2.5c0,1.4-1.1,2.5-3.1,2.5c-0.9,0-1.7-0.2-2.3-0.6L313.5,375.3z"/>
		<path class="st1" d="M327.4,374.6c0,0.9,0,1.6,0.1,2.2h-1.3l-0.1-1.3h0c-0.4,0.7-1.3,1.5-2.7,1.5c-1.3,0-2.8-0.7-2.8-3.6v-4.8h1.5
			v4.6c0,1.6,0.5,2.6,1.8,2.6c1,0,1.7-0.7,2-1.4c0.1-0.2,0.1-0.5,0.1-0.8v-5h1.5V374.6z"/>
		<path class="st1" d="M329.8,371.1c0-1,0-1.8-0.1-2.6h1.3l0.1,1.6h0.1c0.4-1.1,1.3-1.8,2.3-1.8c0.2,0,0.3,0,0.4,0.1v1.4
			c-0.2,0-0.3-0.1-0.5-0.1c-1.1,0-1.8,0.8-2,1.9c0,0.2-0.1,0.4-0.1,0.7v4.4h-1.5V371.1z"/>
		<path class="st1" d="M339.9,376.8l-0.1-1h-0.1c-0.5,0.6-1.3,1.2-2.5,1.2c-1.7,0-2.5-1.2-2.5-2.4c0-2,1.8-3.1,4.9-3.1v-0.2
			c0-0.7-0.2-1.9-1.9-1.9c-0.8,0-1.6,0.2-2.1,0.6l-0.3-1c0.7-0.4,1.7-0.7,2.7-0.7c2.5,0,3.1,1.7,3.1,3.4v3.1c0,0.7,0,1.4,0.1,2
			H339.9z M339.7,372.6c-1.6,0-3.5,0.3-3.5,1.9c0,1,0.6,1.4,1.4,1.4c1.1,0,1.8-0.7,2-1.4c0.1-0.2,0.1-0.3,0.1-0.5V372.6z"/>
		<path class="st1" d="M343.5,364.7h1.5v5.1h0c0.2-0.4,0.6-0.8,1.1-1.1c0.4-0.3,1-0.4,1.5-0.4c1.1,0,2.9,0.7,2.9,3.5v4.9H349v-4.7
			c0-1.3-0.5-2.4-1.9-2.4c-1,0-1.7,0.7-2,1.5c-0.1,0.2-0.1,0.4-0.1,0.7v5h-1.5V364.7z"/>
		<path class="st1" d="M358.6,375.5L358.6,375.5c-0.5,0.8-1.4,1.5-2.7,1.5c-1.9,0-3.5-1.7-3.5-4.2c0-3.1,2-4.4,3.7-4.4
			c1.3,0,2.1,0.6,2.5,1.4h0l0.1-1.2h1.4c0,0.7-0.1,1.4-0.1,2.3v9.3h-1.5V375.5z M358.6,371.9c0-0.2,0-0.4-0.1-0.6
			c-0.2-0.9-1-1.7-2.1-1.7c-1.5,0-2.5,1.3-2.5,3.2c0,1.6,0.8,3.1,2.4,3.1c1,0,1.8-0.6,2.1-1.6c0.1-0.2,0.1-0.5,0.1-0.7V371.9z"/>
		<path class="st1" d="M369.4,374.6c0,0.9,0,1.6,0.1,2.2h-1.3l-0.1-1.3h0c-0.4,0.7-1.3,1.5-2.7,1.5c-1.3,0-2.8-0.7-2.8-3.6v-4.8h1.5
			v4.6c0,1.6,0.5,2.6,1.8,2.6c1,0,1.7-0.7,2-1.4c0.1-0.2,0.1-0.5,0.1-0.8v-5h1.5V374.6z"/>
		<path class="st1" d="M371.9,371.1c0-1,0-1.8-0.1-2.6h1.3l0.1,1.6h0.1c0.4-1.1,1.3-1.8,2.3-1.8c0.2,0,0.3,0,0.4,0.1v1.4
			c-0.2,0-0.3-0.1-0.5-0.1c-1.1,0-1.8,0.8-2,1.9c0,0.2-0.1,0.4-0.1,0.7v4.4h-1.5V371.1z"/>
		<path class="st1" d="M381.9,376.8l-0.1-1h-0.1c-0.5,0.6-1.3,1.2-2.5,1.2c-1.7,0-2.5-1.2-2.5-2.4c0-2,1.8-3.1,4.9-3.1v-0.2
			c0-0.7-0.2-1.9-1.9-1.9c-0.8,0-1.6,0.2-2.1,0.6l-0.3-1c0.7-0.4,1.7-0.7,2.7-0.7c2.5,0,3.1,1.7,3.1,3.4v3.1c0,0.7,0,1.4,0.1,2
			H381.9z M381.7,372.6c-1.6,0-3.5,0.3-3.5,1.9c0,1,0.6,1.4,1.4,1.4c1.1,0,1.8-0.7,2-1.4c0.1-0.2,0.1-0.3,0.1-0.5V372.6z"/>
		<path class="st1" d="M385.6,370.8c0-0.9,0-1.5-0.1-2.2h1.3l0.1,1.4h0c0.4-0.8,1.4-1.5,2.7-1.5c1.1,0,2.9,0.7,2.9,3.5v4.9h-1.5
			v-4.7c0-1.3-0.5-2.4-1.9-2.4c-1,0-1.8,0.7-2,1.5c-0.1,0.2-0.1,0.4-0.1,0.7v4.9h-1.5V370.8z"/>
		<path class="st1" d="M394.6,375.9c0-0.6,0.4-1.1,1-1.1c0.6,0,1,0.4,1,1.1c0,0.6-0.4,1.1-1,1.1C395,377,394.6,376.5,394.6,375.9z"
			/>
		<path class="st1" d="M404.4,376.5c-0.4,0.2-1.3,0.5-2.4,0.5c-2.5,0-4.1-1.7-4.1-4.2c0-2.5,1.7-4.4,4.4-4.4c0.9,0,1.7,0.2,2.1,0.4
			l-0.3,1.2c-0.4-0.2-0.9-0.4-1.7-0.4c-1.9,0-2.9,1.4-2.9,3.1c0,1.9,1.2,3.1,2.9,3.1c0.8,0,1.4-0.2,1.8-0.4L404.4,376.5z"/>
		<path class="st1" d="M413.5,372.6c0,3-2.1,4.4-4.1,4.4c-2.2,0-3.9-1.6-3.9-4.2c0-2.8,1.8-4.4,4.1-4.4
			C411.9,368.4,413.5,370.1,413.5,372.6z M406.9,372.7c0,1.8,1,3.2,2.5,3.2c1.4,0,2.5-1.3,2.5-3.2c0-1.4-0.7-3.2-2.5-3.2
			S406.9,371.1,406.9,372.7z"/>
		<path class="st1" d="M415.4,370.8c0-0.9,0-1.5-0.1-2.2h1.3l0.1,1.3h0.1c0.5-0.8,1.2-1.5,2.6-1.5c1.1,0,2,0.7,2.3,1.6h0
			c0.3-0.5,0.6-0.8,0.9-1.1c0.5-0.4,1-0.6,1.8-0.6c1.1,0,2.7,0.7,2.7,3.6v4.8h-1.5v-4.7c0-1.6-0.6-2.5-1.8-2.5
			c-0.9,0-1.5,0.6-1.8,1.4c-0.1,0.2-0.1,0.5-0.1,0.7v5.1h-1.5v-4.9c0-1.3-0.6-2.3-1.7-2.3c-0.9,0-1.6,0.7-1.9,1.5
			c-0.1,0.2-0.1,0.5-0.1,0.7v5h-1.5V370.8z"/>
	</g>
</g>
<g id="Layer_4">
	<path class="st1" d="M262.6,105.5l1.3,1.3c0,3.6-6,7.3-18.1,11.1c-15.1,7.3-24.4,11-27.9,11l-0.6-0.6
		C217.2,124,232.3,116.4,262.6,105.5z M550.8,109.4h2c3.5,2,5.2,4.3,5.2,6.8c0,2.5-0.7,3.9-2,4.3h-1.3c-2.2-2.2-4.2-3.3-5.8-3.3
		c-2.2,0-3.3,3.3-3.3,9.8h0.7l-0.7,0.6v7.2c-0.4,11.2-1.5,16.8-3.2,16.8c-6.6-12.6-12.8-18.8-18.8-18.8c-3.5-2.6-5.2-5-5.2-7.1
		c0-3.5,1.1-5.2,3.3-5.2c4.1,0.3,10.6,5.7,19.4,16.2l1.3-1.3v-1.9l-0.7-0.7l0.7-0.6v-3.3l-0.7-0.6
		C541.8,119.2,544.8,113,550.8,109.4z M598.8,109.4c4.3,0,6.5,5.2,6.5,15.5v3.3c3.3,3.3,5,5.9,5.2,7.8l-0.6,2.6h-0.7l-7.1-2.6h-0.7
		c-17.6,18.2-33.5,29.4-47.9,33.7h-1.3V169c2.9-2.8,14.5-11,35-24.6l10.4-10.4v-0.6c-4.7-4.7-7.1-7.9-7.1-9.8
		C590.4,117.8,593.2,113.1,598.8,109.4z M360.4,112.7c8.2,17.3,12.4,27,12.4,29.1v0.7l-1.3,1.3l-4.6-3.3h-0.6v0.7l13.6,82.9l1.3,13
		v11.7c-0.4,10-1.7,15.2-3.9,15.5h-0.6l-0.7-3.3c0-12.7-5-47.4-14.9-104.3c-1.7-15.7-3.5-26.3-5.2-31.8
		C355.9,118.7,357.4,114.6,360.4,112.7z M411.6,112.7c1.6,0,3.1,2.6,4.5,7.8l-0.6,9.1v1.3c4.3,4.1,6.5,7.3,6.5,9.7l-0.7,2
		c-1.7,0-4-1.3-7.1-3.9h-2.6c-11.7,12.1-19,18.1-22,18.1c-4.7,3.5-8.8,5.8-12.4,7.1h-1.3v-1.3c0-0.7,8.6-7.2,25.9-19.4l5.9-7.1v-0.7
		c-3.5-3.8-5.2-7-5.2-9.7C405.1,117,408.1,112.7,411.6,112.7z M199.1,114h0.6c2.2,5,3.3,8.5,3.3,10.4c-0.6,6.5-3.2,9.7-7.8,9.7
		l-4.6-0.6c0,0.7-2.2,2.4-6.5,5.2c-4.3,0-6.5-3.3-6.5-9.8v-4.5l0.7-3.3h1.3c0.4,6.5,1.7,9.8,3.9,9.8h0.6c3.5,0,5.2-2.2,5.2-6.5
		l-1.3-5.2c0.6-2.2,1.2-3.3,2-3.3h1.3c0.9,6.9,2.4,10.4,4.5,10.4h2l1.3-1.3l-2-6.5C197.7,115.5,198.3,114,199.1,114z M497.1,114
		l0.6,1.9c0,3.3-8.4,9.6-25.2,18.8c-21,13.4-32,20-33.1,20l-0.6-3.2c0-2.6,11.7-10.6,35-24C487.4,118.5,495.2,114,497.1,114z
		 M153,114.6c4.3,1.4,6.5,4.9,6.5,10.4c-0.3,2.2-0.9,3.3-1.9,3.3l-5.2-5.2h-2l-1.3,1.3l0.7,18.1l-2,9.7h-0.6
		c-5.1-8.5-10.7-14.8-16.8-18.7l-2.6,1.3c-5.6-1.6-8.5-3.6-8.5-5.9c1-5.2,2.1-7.8,3.3-7.8h0.6c4.7,0,11.6,5.2,20.7,15.5l2,0.7v-4.6
		l-0.7-0.6C146.4,120.4,149,114.6,153,114.6z M321.5,114.6c1,0.5,3.9,6.3,8.5,17.5c3,5.2,4.5,9.3,4.5,12.3v1.3h-1.9l-3.3-2.6H328
		c7.3,59.2,12.9,88.8,16.8,88.8l10.4-2c10,0,14.9,4.8,14.9,14.3c0,10.1-3.5,16.4-10.4,18.8c-5.8,0-12.7-4.5-20.7-13.6h-0.7
		c-15.8,10.4-28.6,15.5-38.2,15.5c-16.8,0-28.3-9.3-34.4-27.8l-0.6-0.7h-1.3c-3.6,11-17,23.3-40.2,37l-13,3.9h-2.6
		c-9.3,0-14.9-7.3-16.8-22l2.6-20.1v-0.6h-0.7c-5.8,2.6-9.4,3.9-11,3.9h-0.7v-1.3c0-3.6,5.6-7.3,16.8-11.1
		c9.5-5.6,15.5-8.4,18.1-8.4v0.6c0,4.5-3.7,7.8-11,9.8c-4.8,2.1-7.2,5.5-7.2,10.4c-1.3,5.1-1.9,9.6-1.9,13.6c0,7.5,4.5,11.8,13.6,13
		c12.2-1.3,26-9.5,41.5-24.6c7.4-7.5,11.1-12.1,11.1-13.6c0-8.5-5.6-26.9-16.8-55.1c-1.1,0-1.7-2.4-1.8-7.1s0.5-7.1,1.8-7.1h0.6
		c8.6,10.1,15.3,25.9,20.1,47.3c2.1,16.9,5.8,29.7,11,38.2c6.5,5.6,13.2,8.5,20.1,8.5c14.2,0,26.7-4.8,37.6-14.3v-1.3
		c-6.5-32.7-11.9-67.9-16.2-105.6l-1.9-5.2C318.9,118,320.4,114.6,321.5,114.6z M291.7,116.6h0.7l0.6,0.6h0.7l-2.6,14.9
		c1.2,4.3,2.4,6.5,3.9,6.5h0.6l3.9-3.9l0.7,0.6c0,4.3-1.7,7.9-5.2,11.1c-4.8-2.2-7.2-5.7-7.2-10.4S289.1,124.7,291.7,116.6z
		 M596.2,117.2l-2.6,3.3c0.2,1.4,2.2,3.1,5.9,5.2h1.3l1.3-1.3C602.1,119.6,600.1,117.2,596.2,117.2z M407,123v1.9l3.3,2.6h1.9v-1.3
		c0-3.5-0.9-5.2-2.6-5.2C407.9,121.7,407,122.4,407,123z M251.5,127.5h0.7c0.6,0,2.4,4.1,5.2,12.4c-1.1,7.3-3.9,11-8.5,11h-0.6
		l-3.9-2.6l-7.8,5.9c-4.3,0-6.5-3.7-6.5-11.1v-1.3c0-3.2,0.6-4.9,1.9-5.2h0.7c0.5,6.5,1.6,9.8,3.2,9.8h1.3c3.1,0,4.6-1.5,4.6-4.6
		v-5.2l-0.7-0.6c0.5-3.5,1.1-5.2,1.9-5.2s1.9,3.2,3.3,9.7l3.9,2.6h1.3l1.3-1.3l-2.6-9.1L251.5,127.5z M201,139.2
		c6,2.4,9.1,5.2,9.1,8.5c-1.4,5.3-2.9,8.1-4.5,8.4h-2c-4.5-2.7-7.1-5.3-7.8-7.8C197.6,142.2,199.3,139.2,201,139.2z M504.9,152.8
		h1.3c-1.7,5.1-2.6,9.4-2.6,13v2.6c0,2.8,1.7,5.1,5.2,7.1h0.6c1.2,0,2-1.7,2.6-5.2h0.7l1.3,1.3c-1.3,7.8-3.5,11.7-6.5,11.7
		c-4.8-1.5-7.2-6-7.2-13.6C500.4,165.8,501.9,160.2,504.9,152.8z M602.7,156h0.7c-2.2,5.2-3.3,8.9-3.3,11.1c0.6,6,1.7,9.1,3.4,9.1
		c1.7,0,3.4-1.3,5.1-3.9l0.6,0.6v0.7c-1.4,6.9-3.5,10.4-6.3,10.4c-2.9,0-4.8-3.9-5.9-11.7C598.6,163.5,600.5,158.1,602.7,156z
		 M212,156.7c2.9,1.7,6.4,4.7,10.4,9.1v2.6c-2.3,4.4-4,6.7-5.2,7.1h-1.3l-8.5-6.5h-1.3l-5.8,6.5l-2,0.7c-2.8-1.4-6-4.3-9.7-8.5v-0.6
		c1.8-6,3.6-9.1,5.2-9.1s5.1,2.2,10.4,6.5h0.6c1-0.2,2.6-2.4,4.6-6.5L212,156.7z M304,158.6h2.6c2.8,0,4.5,6.3,5.2,18.8
		c3.5,2.7,5.2,5.3,5.2,7.8v0.6l-1.3,3.9l-5.2-3.9h-0.7C294.3,204,284.6,213,280.7,213c0,0.9-0.9,1.3-2.6,1.3V213
		c17.9-17.4,26.9-27,27.2-28.5v-1.9c-5.6-4.3-8.5-8.2-8.5-11.7v-1.3C296.9,166.6,299.3,162.9,304,158.6z M422,159.3
		c1.4,0,4.8,3.5,10.4,10.4c-1.3,3.6-3.1,6.4-5.2,8.4c-1.3,0-4.6-1.9-9.8-5.8h-0.6c-3.1,5.6-5.1,8.4-5.9,8.4h-1.3
		c-5.2-3.2-8.5-5.8-9.7-7.8v-1.3c2-5.6,3.7-8.4,5.1-8.4s4.2,1.5,8.5,4.5h1.3c1-0.2,2.9-2.8,5.9-7.8h1.3V159.3z M301.5,170.3
		c2.2,2.2,4.1,3.3,5.8,3.3h0.7v-1.3c-0.6-3.5-1.9-5.2-3.9-5.2C302.3,167.5,301.5,168.6,301.5,170.3z M459.5,172.9h1.9
		c9.1,8.8,13.6,13.7,13.6,14.9c-3.5,0.2-5.2,1.1-5.2,2.6c7.8,11.7,11.7,20.8,11.7,27.2c0,11.1-5.6,20.8-16.8,29.1
		c-1.3,2.1-2,5.3-2,9.8c0,10.2,5.4,16.9,16.2,20h4.5c15.8,0,34.2-12.3,55.1-36.9l0.6-2.6c0-2.2-0.9-3.3-2.6-3.3
		c-5.9,2.2-12.4,3.3-19.4,3.3c-8.2-1.5-12.3-5.6-12.3-12.4v-0.6c2.1-13.8,7.5-20.7,16.2-20.7c5.5,0,12,4.8,19.4,14.3h0.7
		c3.4,0,10.3-4.3,20.7-13l3.2-0.7l1.3,2v1.9c0,9.5,4.1,14.3,12.4,14.3h0.6c10.4,0,17.6-5,21.4-14.9c1.6-4.8,3.7-7.2,6.5-7.2v0.7
		l-2.6,9.1c3.1,4.7,8.5,7.1,16.2,7.1c2-0.8,3.1-1.7,3.3-2.6c-2.2-4.2-3.3-7.2-3.3-9.1l2-8.4h0.6c4.3,3.9,6.5,9.3,6.5,16.2
		c-1.6,11.2-5.6,16.8-12.3,16.8c-5.9,0-11.8-2.8-17.5-8.4c-7,8.6-13.7,13-20,13h-3.3c-7.3,0-12.5-4.8-15.5-14.3v-1.3
		c-1.6,0-4.3,1.7-8.4,5.2c-5.2,3.7-7.8,6-7.8,7.1v1.3c0,12.8-7.6,25.2-22.7,37c-14.2,13.4-27.6,20-40.2,20
		c-15.1-3.2-22.6-10.7-22.6-22.6l-0.7-5.9v-8.4c-1.6,0-7.7,3.7-18.1,11c-16.1,10.5-29.9,16.8-41.5,18.8l-26.5,6.5l-2-0.7v-0.6
		c2.4-2.4,13.2-7.4,32.4-14.9c25.6-13.1,48.7-28.7,69.4-46.6l3.2-4.5v-1.3c0-1.2-4.5-10.1-13.6-26.6c0-1.4-1.5-5.1-4.6-11
		L459.5,172.9z M131.7,173.6h1.9c0,3.8-0.9,9.8-2.6,18.1v3.2c0,9.9,1.7,15.8,5.2,17.5h2l0.6-0.7c1.4-4.3,2.4-6.5,3.2-6.5
		c0.7,0,1.4,0.9,2,2.6c-1.8,10.4-4.4,15.5-7.8,15.5c-5.4,0-8.6-7.3-9.7-22C126.5,198.2,128.2,188.9,131.7,173.6z M212.6,182.6h2
		c1.8,0,3.3,3,4.5,9.1v3.2c-0.9,10.8-2.4,16.2-4.5,16.2l-0.7-0.7v-0.6l0.7-9.8l-1.3-4.5H212c-1.4,0-8.4,4.5-20.7,13.6
		c-8.6,1.5-13,3.2-13,5.2c0,13.9-6,24.5-18.1,31.8c-16.3,13.6-33.1,22.7-50.5,27.2l-38.9,5.8l-0.7-0.6v-0.7
		c2.6-1.9,13.2-5.8,31.8-11.7c22.9-8.5,43.9-20.2,62.8-35c5.1-4.6,7.9-7.6,8.5-9.1v-5.8l-7.2-20.1v-1.3c0.5-4.7,1.3-7.1,2.6-7.1
		c4,6,7.4,9.1,10.4,9.1l2.6,0.6h3.3c5.8,0,14.2-4.8,25.2-14.3L212.6,182.6z M434.2,182.6h0.7v1.3h0.6c-0.7,6.1-4.4,13.9-11,23.3v1.9
		c9,4.5,13.6,10.3,13.6,17.5c0,12-7.1,20.4-21.3,25.2l-2.6,0.7c-5.8,0-9-3.9-9.8-11.7c0-7.5,1.7-15.5,5.2-24V215
		c-11.6-9.8-17.4-17-17.4-21.4c0.2-3.5,0.9-5.2,1.9-5.2l16.8,5.9v1.9l-2.6,2c0,1.2,2,3.1,5.9,5.8h1.3c2.8,0,8.4-6.7,16.8-20
		L434.2,182.6z M239.3,194.9h1.3v1.3h0.6c-1.3,3.3-2.1,7.5-2.6,12.4c0,3.3,1.3,5.6,3.9,7.1l3.3-4.5h0.6l0.7,2.6
		c0,3.3-1.5,6.5-4.6,9.7h-1.9c-3.5-2.3-5.2-6-5.2-11C236.2,206.1,237.5,200.2,239.3,194.9z M513.3,222.1c1.7,1.3,3.6,2,5.9,2h3.2
		l5.9-1.3v-1.3c0-0.8-1.5-2.1-4.6-3.9h-7.1C514.4,218.5,513.3,220,513.3,222.1z M409,233.8c0,2.6,1.3,4.5,3.9,5.9h1.9
		c3.8,0,9.4-3,16.8-9.1v-2c-2.7-3.6-7.2-6.7-13.6-9.1h-1.3C412.4,224.1,409.8,228.8,409,233.8z M350.7,244.1c0,1.9,3,3.6,9.1,5.2
		c2.2,0,3.5-0.6,3.9-1.9c0-2.4-3-3.9-9.1-4.6C352,243.2,350.7,243.6,350.7,244.1z M615,244.8l0.6,0.6v2c0,5.3-2.8,9.8-8.4,13.6h-0.7
		l-5.2-1.9c-3.9,3-6.9,4.5-9.1,4.5l-8.4-2.6c-2.8,0-7.1,2.2-13,6.5c-10.2,7.8-17.8,11.7-22.7,11.7h-0.6v-0.6l33-22.7l5.9-1.3l6.5,2
		h3.9c1.1-0.1,3.5-2.5,7.1-7.2h0.7c0,1.7,0.9,3,2.6,3.9h2.6c1.3,0,1.9-1.3,1.9-3.9C613.1,246.3,614.2,244.8,615,244.8z M266.5,254.5
		l0.6,0.7v0.6c-1.7,3.8-2.6,6.6-2.6,8.5v2.6c0,3.9,1.7,6,5.2,6.5l2.6-2v0.7c-1,6-2.7,9.1-5.2,9.1c-3.9-1.6-5.8-5.4-5.8-11.7
		C263,259.5,264.7,254.5,266.5,254.5z M179,258.4h0.7v1.3c0,4.3-9.7,9.4-29.2,15.5c-3.5,2.2-7.3,3.7-11.7,4.6l-0.6-2
		c0-2.8,8.8-7.3,26.5-13.6C171.8,260.4,176.6,258.4,179,258.4z"/>
</g>
</svg>
