<?xml version="1.0" encoding="utf-8"?>
<!-- Generator: Adobe Illustrator 25.2.3, SVG Export Plug-In . SVG Version: 6.00 Build 0)  -->
<svg version="1.1" xmlns="http://www.w3.org/2000/svg" xmlns:xlink="http://www.w3.org/1999/xlink" x="0px" y="0px"
	 viewBox="0 0 700 395" style="enable-background:new 0 0 700 395;" xml:space="preserve">
<style type="text/css">
	.st0{fill:#000222;}
	.st1{fill:#FFFFFF;}
</style>
<g id="Layer_1">
	<rect class="st0" width="700" height="395"/>
</g>
<g id="Layer_3">
	<g>
		<path class="st1" d="M273.5,368.6l1.1,4.2c0.2,0.9,0.5,1.8,0.6,2.6h0.1c0.2-0.8,0.5-1.7,0.7-2.6l1.3-4.2h1.3l1.3,4.1
			c0.3,1,0.5,1.9,0.7,2.7h0.1c0.1-0.8,0.4-1.7,0.6-2.7l1.2-4.1h1.5l-2.7,8.2H280l-1.3-3.9c-0.3-0.9-0.5-1.7-0.7-2.7h0
			c-0.2,1-0.5,1.8-0.7,2.7l-1.3,3.9h-1.4l-2.5-8.2H273.5z"/>
		<path class="st1" d="M286.3,368.6l1.1,4.2c0.2,0.9,0.5,1.8,0.6,2.6h0.1c0.2-0.8,0.5-1.7,0.7-2.6l1.3-4.2h1.3l1.3,4.1
			c0.3,1,0.5,1.9,0.7,2.7h0.1c0.1-0.8,0.4-1.7,0.6-2.7l1.2-4.1h1.5l-2.7,8.2h-1.4l-1.3-3.9c-0.3-0.9-0.5-1.7-0.7-2.7h0
			c-0.2,1-0.5,1.8-0.7,2.7l-1.3,3.9h-1.4l-2.5-8.2H286.3z"/>
		<path class="st1" d="M299,368.6l1.1,4.2c0.2,0.9,0.5,1.8,0.6,2.6h0.1c0.2-0.8,0.5-1.7,0.7-2.6l1.3-4.2h1.3l1.3,4.1
			c0.3,1,0.5,1.9,0.7,2.7h0.1c0.1-0.8,0.4-1.7,0.6-2.7l1.2-4.1h1.5l-2.7,8.2h-1.4l-1.3-3.9c-0.3-0.9-0.5-1.7-0.7-2.7h0
			c-0.2,1-0.5,1.8-0.7,2.7l-1.3,3.9h-1.4l-2.5-8.2H299z"/>
		<path class="st1" d="M309.9,375.9c0-0.6,0.4-1.1,1-1.1c0.6,0,1,0.4,1,1.1c0,0.6-0.4,1.1-1,1.1C310.3,377,309.9,376.5,309.9,375.9z
			"/>
		<path class="st1" d="M313.5,375.3c0.4,0.3,1.2,0.6,2,0.6c1.1,0,1.6-0.5,1.6-1.2c0-0.7-0.4-1.1-1.5-1.5c-1.5-0.5-2.2-1.3-2.2-2.3
			c0-1.3,1.1-2.4,2.8-2.4c0.8,0,1.6,0.2,2,0.5l-0.4,1.1c-0.3-0.2-0.9-0.5-1.7-0.5c-0.9,0-1.4,0.5-1.4,1.1c0,0.7,0.5,1,1.6,1.4
			c1.4,0.5,2.2,1.3,2.2,2.5c0,1.4-1.1,2.5-3.1,2.5c-0.9,0-1.7-0.2-2.3-0.6L313.5,375.3z"/>
		<path class="st1" d="M327.4,374.6c0,0.9,0,1.6,0.1,2.2h-1.3l-0.1-1.3h0c-0.4,0.7-1.3,1.5-2.7,1.5c-1.3,0-2.8-0.7-2.8-3.6v-4.8h1.5
			v4.6c0,1.6,0.5,2.6,1.8,2.6c1,0,1.7-0.7,2-1.4c0.1-0.2,0.1-0.5,0.1-0.8v-5h1.5V374.6z"/>
		<path class="st1" d="M329.8,371.1c0-1,0-1.8-0.1-2.6h1.3l0.1,1.6h0.1c0.4-1.1,1.3-1.8,2.3-1.8c0.2,0,0.3,0,0.4,0.1v1.4
			c-0.2,0-0.3-0.1-0.5-0.1c-1.1,0-1.8,0.8-2,1.9c0,0.2-0.1,0.4-0.1,0.7v4.4h-1.5V371.1z"/>
		<path class="st1" d="M339.9,376.8l-0.1-1h-0.1c-0.5,0.6-1.3,1.2-2.5,1.2c-1.7,0-2.5-1.2-2.5-2.4c0-2,1.8-3.1,4.9-3.1v-0.2
			c0-0.7-0.2-1.9-1.9-1.9c-0.8,0-1.6,0.2-2.1,0.6l-0.3-1c0.7-0.4,1.7-0.7,2.7-0.7c2.5,0,3.1,1.7,3.1,3.4v3.1c0,0.7,0,1.4,0.1,2
			H339.9z M339.7,372.6c-1.6,0-3.5,0.3-3.5,1.9c0,1,0.6,1.4,1.4,1.4c1.1,0,1.8-0.7,2-1.4c0.1-0.2,0.1-0.3,0.1-0.5V372.6z"/>
		<path class="st1" d="M343.5,364.7h1.5v5.1h0c0.2-0.4,0.6-0.8,1.1-1.1c0.4-0.3,1-0.4,1.5-0.4c1.1,0,2.9,0.7,2.9,3.5v4.9H349v-4.7
			c0-1.3-0.5-2.4-1.9-2.4c-1,0-1.7,0.7-2,1.5c-0.1,0.2-0.1,0.4-0.1,0.7v5h-1.5V364.7z"/>
		<path class="st1" d="M358.6,375.5L358.6,375.5c-0.5,0.8-1.4,1.5-2.7,1.5c-1.9,0-3.5-1.7-3.5-4.2c0-3.1,2-4.4,3.7-4.4
			c1.3,0,2.1,0.6,2.5,1.4h0l0.1-1.2h1.4c0,0.7-0.1,1.4-0.1,2.3v9.3h-1.5V375.5z M358.6,371.9c0-0.2,0-0.4-0.1-0.6
			c-0.2-0.9-1-1.7-2.1-1.7c-1.5,0-2.5,1.3-2.5,3.2c0,1.6,0.8,3.1,2.4,3.1c1,0,1.8-0.6,2.1-1.6c0.1-0.2,0.1-0.5,0.1-0.7V371.9z"/>
		<path class="st1" d="M369.4,374.6c0,0.9,0,1.6,0.1,2.2h-1.3l-0.1-1.3h0c-0.4,0.7-1.3,1.5-2.7,1.5c-1.3,0-2.8-0.7-2.8-3.6v-4.8h1.5
			v4.6c0,1.6,0.5,2.6,1.8,2.6c1,0,1.7-0.7,2-1.4c0.1-0.2,0.1-0.5,0.1-0.8v-5h1.5V374.6z"/>
		<path class="st1" d="M371.9,371.1c0-1,0-1.8-0.1-2.6h1.3l0.1,1.6h0.1c0.4-1.1,1.3-1.8,2.3-1.8c0.2,0,0.3,0,0.4,0.1v1.4
			c-0.2,0-0.3-0.1-0.5-0.1c-1.1,0-1.8,0.8-2,1.9c0,0.2-0.1,0.4-0.1,0.7v4.4h-1.5V371.1z"/>
		<path class="st1" d="M381.9,376.8l-0.1-1h-0.1c-0.5,0.6-1.3,1.2-2.5,1.2c-1.7,0-2.5-1.2-2.5-2.4c0-2,1.8-3.1,4.9-3.1v-0.2
			c0-0.7-0.2-1.9-1.9-1.9c-0.8,0-1.6,0.2-2.1,0.6l-0.3-1c0.7-0.4,1.7-0.7,2.7-0.7c2.5,0,3.1,1.7,3.1,3.4v3.1c0,0.7,0,1.4,0.1,2
			H381.9z M381.7,372.6c-1.6,0-3.5,0.3-3.5,1.9c0,1,0.6,1.4,1.4,1.4c1.1,0,1.8-0.7,2-1.4c0.1-0.2,0.1-0.3,0.1-0.5V372.6z"/>
		<path class="st1" d="M385.6,370.8c0-0.9,0-1.5-0.1-2.2h1.3l0.1,1.4h0c0.4-0.8,1.4-1.5,2.7-1.5c1.1,0,2.9,0.7,2.9,3.5v4.9h-1.5
			v-4.7c0-1.3-0.5-2.4-1.9-2.4c-1,0-1.8,0.7-2,1.5c-0.1,0.2-0.1,0.4-0.1,0.7v4.9h-1.5V370.8z"/>
		<path class="st1" d="M394.6,375.9c0-0.6,0.4-1.1,1-1.1c0.6,0,1,0.4,1,1.1c0,0.6-0.4,1.1-1,1.1C395,377,394.6,376.5,394.6,375.9z"
			/>
		<path class="st1" d="M404.4,376.5c-0.4,0.2-1.3,0.5-2.4,0.5c-2.5,0-4.1-1.7-4.1-4.2c0-2.5,1.7-4.4,4.4-4.4c0.9,0,1.7,0.2,2.1,0.4
			l-0.3,1.2c-0.4-0.2-0.9-0.4-1.7-0.4c-1.9,0-2.9,1.4-2.9,3.1c0,1.9,1.2,3.1,2.9,3.1c0.8,0,1.4-0.2,1.8-0.4L404.4,376.5z"/>
		<path class="st1" d="M413.5,372.6c0,3-2.1,4.4-4.1,4.4c-2.2,0-3.9-1.6-3.9-4.2c0-2.8,1.8-4.4,4.1-4.4
			C411.9,368.4,413.5,370.1,413.5,372.6z M406.9,372.7c0,1.8,1,3.2,2.5,3.2c1.4,0,2.5-1.3,2.5-3.2c0-1.4-0.7-3.2-2.5-3.2
			S406.9,371.1,406.9,372.7z"/>
		<path class="st1" d="M415.4,370.8c0-0.9,0-1.5-0.1-2.2h1.3l0.1,1.3h0.1c0.5-0.8,1.2-1.5,2.6-1.5c1.1,0,2,0.7,2.3,1.6h0
			c0.3-0.5,0.6-0.8,0.9-1.1c0.5-0.4,1-0.6,1.8-0.6c1.1,0,2.7,0.7,2.7,3.6v4.8h-1.5v-4.7c0-1.6-0.6-2.5-1.8-2.5
			c-0.9,0-1.5,0.6-1.8,1.4c-0.1,0.2-0.1,0.5-0.1,0.7v5.1h-1.5v-4.9c0-1.3-0.6-2.3-1.7-2.3c-0.9,0-1.6,0.7-1.9,1.5
			c-0.1,0.2-0.1,0.5-0.1,0.7v5h-1.5V370.8z"/>
	</g>
</g>
<g id="Layer_4">
	<path class="st1" d="M329.1,105.2c3.9,0,6.2,3.1,6.8,9.3c-0.7,1.6-1.3,2.5-1.9,2.5h-1.2l-4.3-3.7h-0.7l-1.2,1.2v10.4
		c-0.7,9.8-1.9,14.8-3.7,14.8c-3.2-6.6-7.3-12.1-12.3-16.6c-2.3,0-4.8-1.6-7.4-4.9V115c0-1.7,0.8-3.1,2.5-4.3c3,0,8.3,4.7,16,14.1
		h1.2v-4.9C322.9,112.5,325,107.6,329.1,105.2z M561.8,106.4c3.3,1.4,4.9,4,4.9,8v1.8l-1.2,1.2h-1.8c-2.1-2-4-3-5.6-3
		c-2.5,0-3.7,8-3.7,24c-0.9,5.7-1.9,8.6-3,8.6h-1.2c-4.5-11.5-9.3-17.2-14.2-17.2c-4.5-2.2-6.7-4.4-6.7-6.7v-0.7l1.2-5.5h3.7
		c6.7,4.4,11.7,9.5,14.8,15.3h1.8l0.7-3v-6.8C552.8,111.7,556.3,106.4,561.8,106.4z M172.1,107.6c3.5,0,7.2,23,11.1,68.9l0.6,17.9
		h0.7l-0.7,0.6c2.7,31.6,5.8,47.4,9.3,47.4c3.4,4.5,7.3,6.7,11.7,6.7h7.4c5.7-1.5,11.5-6,17.2-13.5l1.9-1.2h1.8l-0.6,7.4v1.2
		c1.4,2.9,3.8,4.4,7.4,4.4c7.3,0,14.1-4.9,20.3-14.8h2.5l-1.2,6.7c1.4,3.7,3.6,5.6,6.8,5.6h2.5c3.6-1.6,6.3-4.7,8-9.3l2.5-6.2h1.2
		c2.8,6.2,6.3,9.3,10.5,9.3l6.2,0.6c1.6-0.5,2.9-1.6,3.7-3c-10.3-22.1-15.4-33.8-15.4-35.1l-2.5-4.3v-3.7c0.7-4.9,1.8-7.4,3.1-7.4
		h0.6l13.5,15.3l-0.6,1.9h-4.4v0.6l8.6,19.1c1.3,2,1.9,4.7,1.9,8v4.9c0,10.7-4.5,16-13.5,16c-4.7,0-9-1.8-13-5.5h-0.6
		c-0.9,0.2-2.8,2.9-5.6,8c-1.2,1.1-3.9,2.1-8,3.1h-3.7l-7.4-6.2H254c0,2.4-4.5,5.1-13.5,8l-2.5,0.7c-4.1,0-8.2-2.7-12.3-8
		c-6.3,7-13.5,10.5-21.5,10.5h-1.2c-9,0-16-7.2-20.9-21.6c-2.1-9.7-4.8-38.8-8-87.4l-6.2-34.5C168.9,111.3,170.3,107.6,172.1,107.6z
		 M606.1,107.6c3.7,2,5.6,5.1,5.6,9.3v9.2c2.8,3,4.3,5.4,4.3,7.4l-0.6,2.5l-8-2.5c-14.6,15.5-29.7,25.3-45.6,29.5h-1.2v-0.6
		l30.8-20.4c7.8-6,11.7-9.8,11.7-11.7l-6.2-8C598.4,112.5,601.5,107.6,606.1,107.6z M352.5,108.3h1.2c1.1,0,6,10,14.8,30.1l-0.6,1.9
		h-0.7c-1.6,0-3.7-1.2-6.2-3.7h-0.6v0.6l8.6,70.8v3.7c0,28.3-12.1,47.2-36.4,56.6l-31.4,7.4l-1.2-1.2c1.2-1.8,11.5-6.7,30.8-14.8
		c9.9-5.7,18.9-13.1,27.1-22.2v-1.2c-1.9-2.8-3-5.5-3.1-8c-0.8-6.1-9-17.2-24.6-33.2c-21.8-19.5-35-33.5-39.4-41.9
		c-9.8-12.5-14.8-20.3-14.8-23.4v-3.7c0-1.5,0.6-2.7,1.9-3.7c10.7,7,18.2,13,22.7,17.9v1.8h-6.2c0,4.3,18.5,24.2,55.4,59.8
		c7,10.6,10.5,20,10.5,28.3h0.6c1.3,0,1.9-3.3,1.9-9.8c-6.6-57.1-11.1-91.1-13.5-102.2L352.5,108.3z M428.2,108.3
		c2.5,0,3.9,2.2,4.3,6.7l-0.6,10.5c4.1,3.1,6.2,5.8,6.2,8c0,1.1-0.6,2.1-1.9,3.1l-7.4-3.7h-1.2c-9.1,10.4-17.9,16.7-26.4,19h-0.7
		l-1.2-1.2c0-0.8,6.2-5.5,18.5-14.1c4.1-4,6.2-6.5,6.2-7.4c-2.8-3.9-4.3-6.3-4.3-7.4C420.8,112.8,423.7,108.3,428.2,108.3z
		 M249.7,109.5h1.2l-3.1,13.5v1.2c0,3.5,1.2,6,3.7,7.4c1,0,2-1.6,3.1-4.9h0.6l1.2,1.2v1.2c0,4.6-1.4,8.1-4.3,10.4h-1.9
		c-2.1,0-4.2-2.9-6.2-8.6v-5.5C246.2,115.4,248.1,110.1,249.7,109.5z M382,109.5h1.2c3.4,4.3,7.8,15,13,32v1.2h-2.5l-3.1-2.5h-1.2
		l8.6,68.3l1.2,17.2v6.2c0,6-1.2,12.3-3.7,19.1h-1.2l-1.2-1.2v-4.9c0-13.5-4.7-54.9-14.1-124.4C379,118.5,380,114.8,382,109.5z
		 M508.8,110.1l1.2,1.2v0.7c0,3.2-6.2,7.9-18.5,14.1l-36.9,22.8h-1.8v-4.4c0-1.8,10-8.5,30.1-20.3L508.8,110.1z M220.7,110.7h0.7
		c4.1,0.5,6.2,3.6,6.2,9.2c-0.4,1.6-1.3,2.5-2.5,2.5l-4.9-3.7h-0.7c-0.9,0-1.5,1-1.8,3.1l0.6,2.5c-0.8,12-1.8,19.6-3,22.7h-0.7
		c-1-0.2-2.8-3.5-5.5-9.8c-3.1-4.5-7.4-7.4-13-8.6c-2.5-2.6-3.7-4.9-3.7-6.7c0.8-3.3,1.6-4.9,2.5-4.9h0.7c3.8,0,9.5,4.9,17.2,14.8
		h1.2C215.5,117.7,217.7,110.7,220.7,110.7z M113.6,111.3c4.9,3.2,7.4,6.5,7.4,9.8l-3,2.5h-1.2c-3-2.8-5-4.3-6.2-4.3
		c-0.8,1.6-1.2,3.8-1.2,6.7v9.8l-2.5,14.2h-1.2C98.2,135.4,92,128,87.2,128c-2.5-2.6-3.7-4.4-3.7-5.6c0.7-3.7,1.5-5.5,2.5-5.5h0.6
		c3.7,0,9.6,5.7,17.9,17.2h0.6C105.7,118.9,108.6,111.3,113.6,111.3z M424.5,117.5v1.9l2.5,2.5h1.2l0.6-1.9
		c-0.5-2.8-1.4-4.3-2.5-4.3L424.5,117.5z M601.2,118.1v0.6c2.1,2.9,4.1,4.4,6.2,4.4l0.7-1.9c-0.9-3.7-2-5.5-3.1-5.5h-1.2
		L601.2,118.1z M145.6,115.7h1.2v0.6l-4.9,24.6c0,5.2,1.9,9.5,5.6,13c1.6,0,3.1-2.3,4.3-6.8h0.7l1.2,1.2
		c-0.7,10.3-3.1,15.4-7.4,15.4c-6.2-3.8-9.3-9.2-9.3-16C137.9,136,140.8,125.3,145.6,115.7z M271.9,142.1h0.6l1.2,1.2v0.7
		c0,4.4-3.9,7.7-11.7,9.8c-0.1,0.6-4.6,2.4-13.5,5.5c-32.8,16.6-50.8,25.5-54.2,26.5v-1.2c0-5.4,5.1-9.9,15.3-13.5
		C222.2,163.8,243,154.2,271.9,142.1z M338.3,145.8l0.6,0.7h0.7l-2.5,9.8c0.3,6.1,1.3,9.2,3,9.2h0.7l3-2.5l0.7,0.7v1.8
		c-0.8,6.2-2.5,9.3-4.9,9.3c-4.1-2.1-6.2-5.4-6.2-9.8v-1.2C334.9,151.8,336.5,145.8,338.3,145.8z M516.9,146.4h0.6v0.6
		c-1.6,4.4-2.5,7.9-2.5,10.5v3c0,3.5,1.2,6,3.7,7.4h0.7c0.6,0,1.8-1.6,3.7-4.9h1.2l0.6,1.9c-2.1,7.4-4.6,11.1-7.3,11.1
		c-2.8,0-5-3.5-6.8-10.5C510.7,158.7,512.8,152.4,516.9,146.4z M608.5,151.4v0.6l-2.5,9.3v3c0,3.2,1,5.3,3.1,6.2h0.6
		c1.6-0.8,2.5-2.1,2.5-3.7h0.7c0.8,0,1.2,0.6,1.2,1.9c0,3.9-1.6,7-4.9,9.2h-2.5c-2.9-1.5-4.4-4.6-4.4-9.2
		C602.4,161.1,604.4,155.4,608.5,151.4z M436.2,152.6h0.7c2.6,0,5.9,2.7,9.8,8v0.7c0,4.1-1.9,7-5.6,8.6c-4.4-3.3-7.3-4.9-8.6-4.9
		h-0.6c-2.8,4.5-4.8,6.7-6.2,6.7c-6.6-3.2-9.8-6-9.8-8.6c1.3-5.7,3.4-8.6,6.2-8.6l8,4.9L436.2,152.6z M75.4,160l0.7,0.6l0.6,1.9h0.7
		c-2.9,12.5-4.4,20.1-4.4,22.7c0.3,9.5,2,14.2,4.9,14.2h1.2c1.3,0,1.9-1.2,1.9-3.7c0.9-2.9,1.8-4.4,2.5-4.4h1.2l0.6,1.9
		c0,9.5-3.5,15.6-10.4,18.5c-2.1,7.9-3.1,13.2-3.1,16v2.5c0,11.1,4.7,19,14.2,24l12.9,2.5c18.9,0,39-9.8,60.3-29.5l1.9-2.5v-1.2
		c0-1.3-3.3-8.8-9.8-22.7l-4.9-14.8c0-2.9,0.8-6.2,2.5-9.8h1.2l12.3,14.8v1.8h-1.2v0.7l-0.7-0.7h-2.5l8,20.4l0.6,5.5v1.9
		c0,12.1-7,21.9-20.9,29.5c-4.9,4.8-14.1,9.9-27.7,15.3c-8.9,2.5-14.8,3.7-17.9,3.7h-2.5l-0.6,0.7c-11.3-2.1-18.5-5-21.6-8.6
		c-5.7-7.7-8.6-15.3-8.6-22.7s1.6-17.1,4.9-29v-1.9l-3.7-12.9v-5.6c0-3.9,2.3-13.6,6.8-28.9H75.4z M276.1,162.5
		c2.7,0,5.8,2.9,9.3,8.6c-1.6,4-3.5,6.9-5.6,8.6c-2-0.5-5-3-9.2-7.4C270.6,168,272.5,164.8,276.1,162.5z M473.1,164.9h0.7l12.9,13.5
		v1.2l-1.2,1.2h-3v1.8c6.9,11.5,10.4,20.2,10.4,25.9c0,9.6-5.3,18.2-16,25.9c-2,2-3,5.9-3,11.7c2,11.9,7.1,17.8,15.3,17.8l0.7,0.7
		h0.6c17.8,0,36.3-11.7,55.4-35.1V227c0-0.8-0.6-1.2-1.8-1.2l-14.8,2.5c-9.8,0-14.8-4.3-14.8-12.9v-2.5c3.1-11.9,8-17.9,14.8-17.9
		h0.6c4.6,0,9.5,3.3,14.8,9.8c2,3.1,3.6,4.7,4.9,4.9c3.8-1.1,10.6-5.9,20.4-14.1c1,0,2.3,1.2,3.7,3.7l-0.7,0.6v1.9
		c0,8.2,3.9,12.3,11.7,12.3h4.3c7.3,0,13.4-6.2,18.5-18.5l2.5-2.5h1.9v1.2l-2.5,8.6c2.8,4.5,6.7,6.7,11.7,6.7h2.5
		c2.1,0,3.4-0.6,3.7-1.8l-3-8c0.8-6.1,1.8-9.2,3-9.2h0.7c1.9,0,3.7,4.7,5.5,14.1l-0.6,2.5v0.7l0.6,0.6c-2.2,9.5-6.1,14.2-11.7,14.2
		h-1.2c-4.9,0-10.2-2.7-16-8h-0.7c-5.7,8.2-12.2,12.3-19.7,12.3s-12.8-4.1-16-12.3c0-2-0.6-3-1.8-3c-9.5,4.7-14.2,10-14.2,16
		c0,11.9-13.5,26.9-40.6,44.9c-6.9,2.9-12,4.4-15.3,4.4h-6.2c-8.2,0-14.7-5.7-19.7-17.2l-1.2-7.4l1.2-10.5
		c-3.9,1.3-9.8,4.8-17.9,10.5c-17.6,11.1-32.4,17-44.3,17.8l-20.9,4.4h-1.8v-1.9l36.9-15.3l24.6-14.2c11.6-7,24.1-16.2,37.5-27.7
		l1.9-3.1v-2.5c-10.7-21.3-16-33.4-16-36.3C470.7,167.8,471.8,164.9,473.1,164.9z M111.8,165.5l1.2,1.2c-2.1,5.9-3.1,11.1-3.1,15.4
		c0.9,3.7,2,5.5,3.1,5.5h0.6l3.1-2.5l0.6,0.7h0.7c-1.3,6.6-3.1,9.8-5.6,9.8c-4.1-1.1-6.2-5.1-6.2-11.7v-1.2
		C106.2,177.4,108.1,171.6,111.8,165.5z M447.9,174.1h1.8c0,5.4-3.5,13-10.4,22.8v1.2c8.2,7.4,12.3,13.4,12.3,17.8
		c0,11.9-7.8,20.3-23.4,25.3h-0.7c-4.5,0-7.6-3.7-9.2-11.1c0-5.6,2.1-13.6,6.2-24c0-1-5.1-6.4-15.4-16l-1.2-6.2
		c0.8-4.1,1.6-6.2,2.5-6.2h0.7c9.8,4.4,14.9,7.1,15.3,8v1.8l-2.5,0.7v0.6c2.4,3.1,5,5,8,5.6L447.9,174.1z M243.5,177.2l0.6,0.6v0.7
		l-3.7,20.9c0,4.8,1.6,8.2,4.9,10.4h1.9c1.2,0,2.2-2.2,3-6.7h1.2c0.8,0,1.2,0.6,1.2,1.8c-1.6,10.3-4.1,15.4-7.4,15.4
		c-5,0-8.1-4.9-9.2-14.8c0-7.7,2.2-17.2,6.7-28.3H243.5z M210.3,198.2h0.6v0.6c-0.8,5.4-1.6,8.6-2.5,9.8c0.5,6.6,1.8,9.8,3.7,9.8
		h0.7l3-3h0.7l0.6,1.8c-1.3,6.6-3.1,9.8-5.5,9.8c-4.5-2.7-6.8-6.2-6.8-10.4C207,204.3,208.9,198.2,210.3,198.2z M323.6,208h0.6
		l0.7,0.6h0.6l-1.2,12.3c0,3.8,1.6,5.9,4.9,6.2l1.2-2.5h1.9v2.5c0,3.6-1.5,6.3-4.4,8h-0.6c-3.5,0-6-3.3-7.4-9.8
		C320.3,219.3,321.5,213.6,323.6,208z M522.4,212.3v1.2l6.8,1.9c4.5-0.3,6.7-1,6.7-1.9v-0.6l-4.3-3.7h-4.4
		C525,209.2,523.4,210.2,522.4,212.3z M423.9,224c0.8,2.8,2.5,4.3,4.9,4.3h0.7c3.6,0,8.7-2.9,15.3-8.6v-1.2c0-2-4.3-4.9-12.9-8.6
		h-1.2C426.1,215.7,423.9,220.4,423.9,224z M117.3,211c3.6,0.8,7.3,3.5,11.1,8c-1.9,5.7-3.7,8.6-5.5,8.6c-6.8-3.1-10.3-5.2-10.5-6.2
		v-0.7C112.4,217.2,114,213.9,117.3,211z M616.6,236.9h1.8v1.2h0.7c-2.1,9-4.8,13.5-8,13.5l-6.7-0.6l-8,3.7l-6.7-2.5h-3.1
		c-2.1,0-8.6,3.9-19.7,11.7c-5.2,2.9-8.9,4.4-11.1,4.4h-1.8v-0.7c19.9-14.4,31.8-22,35.7-22.7h0.6c1.5,0,3.6,0.8,6.2,2.5h1.2
		c4.2,0,7.1-2.3,8.6-6.8h2.5c0,1.6,0.8,2.9,2.5,3.7h1.9C613.6,244.3,614.8,241.8,616.6,236.9z M175.2,254.8l0.7,0.6v1.2
		c0,3.8-7,8.3-20.9,13.5l-22.2,11.1l-1.2-1.8c0-2.8,2.9-5.3,8.6-7.4C162.1,260.5,173.8,254.8,175.2,254.8z M362.3,258.5
		c2.5,0.8,3.7,2.5,3.7,4.9l-1.8,5.5l7.4,0.7v2.5c0,1.8-6,4-17.9,6.7l-0.6-0.6v-0.7l1.2-3.7l-2.5-4.3
		C351.9,265.3,355.4,261.6,362.3,258.5z M358,265.2v1.9l1.8,1.8h3.1c-0.6-1.6-1.6-2.9-3.1-3.7H358z M248.5,266.4h0.6
		c2.9,0,4.4,1.9,4.4,5.6v0.6c0,4.3-2.9,9.4-8.6,15.4h-1.9v-0.7c4.1-5.5,6.2-9,6.2-10.4v-1.2c0-0.8-0.6-1.2-1.8-1.2l-3.1,1.8h-1.2
		v-0.6C242.9,272.2,244.7,269.1,248.5,266.4z M372.8,277.5l1.8,0.7v1.8c0,1.9-8.4,5.2-25.2,9.8h-1.2v-0.6c0-3,4.9-5.7,14.8-8
		C363,280.5,366.3,279.2,372.8,277.5z"/>
</g>
</svg>
