<?xml version="1.0" encoding="utf-8"?>
<!-- Generator: Adobe Illustrator 25.2.3, SVG Export Plug-In . SVG Version: 6.00 Build 0)  -->
<svg version="1.1" xmlns="http://www.w3.org/2000/svg" xmlns:xlink="http://www.w3.org/1999/xlink" x="0px" y="0px"
	 viewBox="0 0 700 395" style="enable-background:new 0 0 700 395;" xml:space="preserve">
<style type="text/css">
	.st0{fill:#000222;}
	.st1{fill:#FFFFFF;}
</style>
<g id="Layer_1">
	<rect class="st0" width="700" height="395"/>
</g>
<g id="Layer_3">
	<g>
		<path class="st1" d="M273.5,368.6l1.1,4.2c0.2,0.9,0.5,1.8,0.6,2.6h0.1c0.2-0.8,0.5-1.7,0.7-2.6l1.3-4.2h1.3l1.3,4.1
			c0.3,1,0.5,1.9,0.7,2.7h0.1c0.1-0.8,0.4-1.7,0.6-2.7l1.2-4.1h1.5l-2.7,8.2H280l-1.3-3.9c-0.3-0.9-0.5-1.7-0.7-2.7h0
			c-0.2,1-0.5,1.8-0.7,2.7l-1.3,3.9h-1.4l-2.5-8.2H273.5z"/>
		<path class="st1" d="M286.3,368.6l1.1,4.2c0.2,0.9,0.5,1.8,0.6,2.6h0.1c0.2-0.8,0.5-1.7,0.7-2.6l1.3-4.2h1.3l1.3,4.1
			c0.3,1,0.5,1.9,0.7,2.7h0.1c0.1-0.8,0.4-1.7,0.6-2.7l1.2-4.1h1.5l-2.7,8.2h-1.4l-1.3-3.9c-0.3-0.9-0.5-1.7-0.7-2.7h0
			c-0.2,1-0.5,1.8-0.7,2.7l-1.3,3.9h-1.4l-2.5-8.2H286.3z"/>
		<path class="st1" d="M299,368.6l1.1,4.2c0.2,0.9,0.5,1.8,0.6,2.6h0.1c0.2-0.8,0.5-1.7,0.7-2.6l1.3-4.2h1.3l1.3,4.1
			c0.3,1,0.5,1.9,0.7,2.7h0.1c0.1-0.8,0.4-1.7,0.6-2.7l1.2-4.1h1.5l-2.7,8.2h-1.4l-1.3-3.9c-0.3-0.9-0.5-1.7-0.7-2.7h0
			c-0.2,1-0.5,1.8-0.7,2.7l-1.3,3.9h-1.4l-2.5-8.2H299z"/>
		<path class="st1" d="M309.9,375.9c0-0.6,0.4-1.1,1-1.1c0.6,0,1,0.4,1,1.1c0,0.6-0.4,1.1-1,1.1C310.3,377,309.9,376.5,309.9,375.9z
			"/>
		<path class="st1" d="M313.5,375.3c0.4,0.3,1.2,0.6,2,0.6c1.1,0,1.6-0.5,1.6-1.2c0-0.7-0.4-1.1-1.5-1.5c-1.5-0.5-2.2-1.3-2.2-2.3
			c0-1.3,1.1-2.4,2.8-2.4c0.8,0,1.6,0.2,2,0.5l-0.4,1.1c-0.3-0.2-0.9-0.5-1.7-0.5c-0.9,0-1.4,0.5-1.4,1.1c0,0.7,0.5,1,1.6,1.4
			c1.4,0.5,2.2,1.3,2.2,2.5c0,1.4-1.1,2.5-3.1,2.5c-0.9,0-1.7-0.2-2.3-0.6L313.5,375.3z"/>
		<path class="st1" d="M327.4,374.6c0,0.9,0,1.6,0.1,2.2h-1.3l-0.1-1.3h0c-0.4,0.7-1.3,1.5-2.7,1.5c-1.3,0-2.8-0.7-2.8-3.6v-4.8h1.5
			v4.6c0,1.6,0.5,2.6,1.8,2.6c1,0,1.7-0.7,2-1.4c0.1-0.2,0.1-0.5,0.1-0.8v-5h1.5V374.6z"/>
		<path class="st1" d="M329.8,371.1c0-1,0-1.8-0.1-2.6h1.3l0.1,1.6h0.1c0.4-1.1,1.3-1.8,2.3-1.8c0.2,0,0.3,0,0.4,0.1v1.4
			c-0.2,0-0.3-0.1-0.5-0.1c-1.1,0-1.8,0.8-2,1.9c0,0.2-0.1,0.4-0.1,0.7v4.4h-1.5V371.1z"/>
		<path class="st1" d="M339.9,376.8l-0.1-1h-0.1c-0.5,0.6-1.3,1.2-2.5,1.2c-1.7,0-2.5-1.2-2.5-2.4c0-2,1.8-3.1,4.9-3.1v-0.2
			c0-0.7-0.2-1.9-1.9-1.9c-0.8,0-1.6,0.2-2.1,0.6l-0.3-1c0.7-0.4,1.7-0.7,2.7-0.7c2.5,0,3.1,1.7,3.1,3.4v3.1c0,0.7,0,1.4,0.1,2
			H339.9z M339.7,372.6c-1.6,0-3.5,0.3-3.5,1.9c0,1,0.6,1.4,1.4,1.4c1.1,0,1.8-0.7,2-1.4c0.1-0.2,0.1-0.3,0.1-0.5V372.6z"/>
		<path class="st1" d="M343.5,364.7h1.5v5.1h0c0.2-0.4,0.6-0.8,1.1-1.1c0.4-0.3,1-0.4,1.5-0.4c1.1,0,2.9,0.7,2.9,3.5v4.9H349v-4.7
			c0-1.3-0.5-2.4-1.9-2.4c-1,0-1.7,0.7-2,1.5c-0.1,0.2-0.1,0.4-0.1,0.7v5h-1.5V364.7z"/>
		<path class="st1" d="M358.6,375.5L358.6,375.5c-0.5,0.8-1.4,1.5-2.7,1.5c-1.9,0-3.5-1.7-3.5-4.2c0-3.1,2-4.4,3.7-4.4
			c1.3,0,2.1,0.6,2.5,1.4h0l0.1-1.2h1.4c0,0.7-0.1,1.4-0.1,2.3v9.3h-1.5V375.5z M358.6,371.9c0-0.2,0-0.4-0.1-0.6
			c-0.2-0.9-1-1.7-2.1-1.7c-1.5,0-2.5,1.3-2.5,3.2c0,1.6,0.8,3.1,2.4,3.1c1,0,1.8-0.6,2.1-1.6c0.1-0.2,0.1-0.5,0.1-0.7V371.9z"/>
		<path class="st1" d="M369.4,374.6c0,0.9,0,1.6,0.1,2.2h-1.3l-0.1-1.3h0c-0.4,0.7-1.3,1.5-2.7,1.5c-1.3,0-2.8-0.7-2.8-3.6v-4.8h1.5
			v4.6c0,1.6,0.5,2.6,1.8,2.6c1,0,1.7-0.7,2-1.4c0.1-0.2,0.1-0.5,0.1-0.8v-5h1.5V374.6z"/>
		<path class="st1" d="M371.9,371.1c0-1,0-1.8-0.1-2.6h1.3l0.1,1.6h0.1c0.4-1.1,1.3-1.8,2.3-1.8c0.2,0,0.3,0,0.4,0.1v1.4
			c-0.2,0-0.3-0.1-0.5-0.1c-1.1,0-1.8,0.8-2,1.9c0,0.2-0.1,0.4-0.1,0.7v4.4h-1.5V371.1z"/>
		<path class="st1" d="M381.9,376.8l-0.1-1h-0.1c-0.5,0.6-1.3,1.2-2.5,1.2c-1.7,0-2.5-1.2-2.5-2.4c0-2,1.8-3.1,4.9-3.1v-0.2
			c0-0.7-0.2-1.9-1.9-1.9c-0.8,0-1.6,0.2-2.1,0.6l-0.3-1c0.7-0.4,1.7-0.7,2.7-0.7c2.5,0,3.1,1.7,3.1,3.4v3.1c0,0.7,0,1.4,0.1,2
			H381.9z M381.7,372.6c-1.6,0-3.5,0.3-3.5,1.9c0,1,0.6,1.4,1.4,1.4c1.1,0,1.8-0.7,2-1.4c0.1-0.2,0.1-0.3,0.1-0.5V372.6z"/>
		<path class="st1" d="M385.6,370.8c0-0.9,0-1.5-0.1-2.2h1.3l0.1,1.4h0c0.4-0.8,1.4-1.5,2.7-1.5c1.1,0,2.9,0.7,2.9,3.5v4.9h-1.5
			v-4.7c0-1.3-0.5-2.4-1.9-2.4c-1,0-1.8,0.7-2,1.5c-0.1,0.2-0.1,0.4-0.1,0.7v4.9h-1.5V370.8z"/>
		<path class="st1" d="M394.6,375.9c0-0.6,0.4-1.1,1-1.1c0.6,0,1,0.4,1,1.1c0,0.6-0.4,1.1-1,1.1C395,377,394.6,376.5,394.6,375.9z"
			/>
		<path class="st1" d="M404.4,376.5c-0.4,0.2-1.3,0.5-2.4,0.5c-2.5,0-4.1-1.7-4.1-4.2c0-2.5,1.7-4.4,4.4-4.4c0.9,0,1.7,0.2,2.1,0.4
			l-0.3,1.2c-0.4-0.2-0.9-0.4-1.7-0.4c-1.9,0-2.9,1.4-2.9,3.1c0,1.9,1.2,3.1,2.9,3.1c0.8,0,1.4-0.2,1.8-0.4L404.4,376.5z"/>
		<path class="st1" d="M413.5,372.6c0,3-2.1,4.4-4.1,4.4c-2.2,0-3.9-1.6-3.9-4.2c0-2.8,1.8-4.4,4.1-4.4
			C411.9,368.4,413.5,370.1,413.5,372.6z M406.9,372.7c0,1.8,1,3.2,2.5,3.2c1.4,0,2.5-1.3,2.5-3.2c0-1.4-0.7-3.2-2.5-3.2
			S406.9,371.1,406.9,372.7z"/>
		<path class="st1" d="M415.4,370.8c0-0.9,0-1.5-0.1-2.2h1.3l0.1,1.3h0.1c0.5-0.8,1.2-1.5,2.6-1.5c1.1,0,2,0.7,2.3,1.6h0
			c0.3-0.5,0.6-0.8,0.9-1.1c0.5-0.4,1-0.6,1.8-0.6c1.1,0,2.7,0.7,2.7,3.6v4.8h-1.5v-4.7c0-1.6-0.6-2.5-1.8-2.5
			c-0.9,0-1.5,0.6-1.8,1.4c-0.1,0.2-0.1,0.5-0.1,0.7v5.1h-1.5v-4.9c0-1.3-0.6-2.3-1.7-2.3c-0.9,0-1.6,0.7-1.9,1.5
			c-0.1,0.2-0.1,0.5-0.1,0.7v5h-1.5V370.8z"/>
	</g>
</g>
<g id="Layer_4">
	<path class="st1" d="M208.4,102.8h2.5v1.8c0,3.3-6.7,7.4-20,12.5c-19.5,10-30.3,15-32.5,15c0-3.9,2.5-6.8,7.5-8.8L208.4,102.8z
		 M571.6,112.1c4.6,0,6.8,2.3,6.8,6.9v1.8l-1.8,1.9l-4.4-3.2h-0.6c-3.3,0-5,2.3-5,6.9v3.1l0.6,0.7l-0.6,0.6v7.5
		c0,8.3-1.1,13.1-3.2,14.4h-0.6c0-3.3-4-8.9-11.9-16.9c-6.7-0.9-10-3.9-10-8.8c0-2.2,0.8-3.7,2.5-4.3c3.4,0,9.7,5.4,18.8,16.3h1.3
		v-9.4C563.5,121.6,566.2,115.8,571.6,112.1z M617.9,112.1c4.6,0,6.8,6.5,6.8,19.4c1.8,0.9,3.3,2.8,4.4,5.6l-0.7,3.2h-1.8l-3.8-2.5
		c-1.9,0-5.2,2.7-10,8.1c-13.4,11.9-26.6,20.1-39.4,24.4v-1.3l35-24.4c5.4-4.4,8.2-7.8,8.2-10c-4.2-3.2-6.3-5.9-6.3-8.1
		C610.4,119.7,612.9,114.9,617.9,112.1z M437.9,115.9c2.9,1.3,4.3,3.4,4.3,6.3l-0.6,10c0,0.9,1.9,3,5.6,6.3l0.7,3.2l-1.9,2.5h-0.6
		c-3-2.5-5.3-3.8-6.9-3.8h-0.6c-10.7,12.3-20.7,19.6-30,21.8h-0.7v-2.5c17.9-11.2,26.9-18.7,26.9-22.5c-2.9-3.8-4.4-6.9-4.4-9.3
		C431.7,119.9,434.4,115.9,437.9,115.9z M520.4,116.6h0.6c0,5-6.7,10.6-20,16.8l-35.6,22.5h-0.7l-1.3-1.3c0-4.4,16.5-15.6,49.4-33.8
		C515.9,118,518.4,116.6,520.4,116.6z M99.6,117.8h1.9c2.2,1,4.1,3.1,5.6,6.3v3.8c0,1.2-0.8,1.8-2.5,1.8c-3.2-2.5-5.5-3.8-6.8-3.8
		l-0.7,6.3v5l0.7,0.7l-0.7,0.6v3.2c0,17.8-6.4,29.5-19.3,35h-0.7v-0.7c10.4-12.1,15.7-19.8,15.7-23.1c-4.6-10.4-9.6-15.7-15-15.7
		c-3.3-2.3-5-4.6-5-6.8v-1.3c0.2-2.5,0.8-3.8,1.8-3.8h0.7c4.1,0,10.1,5.2,18.1,15.6H94l0.6-2.5l-0.6-4.3
		C95.4,123.2,97.3,117.8,99.6,117.8z M258.4,118.4h0.7c3.3,3.2,5,5.7,5,7.5l-1.9,2.5h-1.8c-1.8-1.7-3.4-2.5-5-2.5l-1.9,1.9l0.7,10.6
		v6.9l-1.9,10.6h-0.6c-6.4-11.7-12.4-17.5-18.2-17.5c-2.1-1.6-3.1-3.3-3.1-5v-1.3c0-1.8,0.8-3.2,2.5-4.3c5,1.6,10.8,6.3,17.5,14.3
		h0.6v-9.3C250.9,124.5,253.4,119.7,258.4,118.4z M613.5,124.1v0.6c3.3,2.1,5.6,3.2,6.9,3.2h0.6c0-4.8-1-7.5-3.1-8.2
		C615,119.6,613.5,121.1,613.5,124.1z M196.5,120.9c4.2,7.2,8.9,30,14.3,68.2c2.6,31.4,8.4,49.1,17.5,53.1c2.4,1.7,5.3,2.5,8.8,2.5
		c10.2,0,17.9-5.6,23.2-16.8l2.5-1.9c0.8,0,1.3,0.6,1.3,1.9l-1.3,5.6v1.3c2.6,4.6,5.5,6.9,8.8,6.9h0.6c7.6,0,13.2-6.7,16.9-20
		l0.6-0.7h1.9l-1.3,6.9v0.6c1.7,3.8,5.7,5.7,11.8,5.7c1.7,0,2.9-0.8,3.8-2.5v-1.3l-2.5-7.5v-3.2c0.5-4.2,1.3-6.3,2.5-6.3
		c1.6,0,3.5,4,5.7,11.9c-2,13.7-6,20.6-11.9,20.6h-1.8c-3.8-0.6-7.3-2.2-10.7-5h-0.6c-4.8,8.8-10.5,13.2-16.9,13.2
		c-1.2,1.5-1.8,2.9-1.8,4.3v0.7c0,13.3,6.4,20,19.3,20h0.7c13,0,28.6-8.8,46.8-26.3v-2.5c0-5.7-2.7-13.6-8.1-23.8
		c0.7-5.8,1.7-8.8,3.1-8.8c3.7,7.1,8.9,10.6,15.7,10.6h2.5c4.9,0,10.3-1.4,16.3-4.3v-3.8c-5-23.5-10.2-51.8-15.7-85
		c-0.8,0-1.3-1.1-1.3-3.2c1.5-7.1,2.8-10.6,3.8-10.6h1.3l12.5,28.1l-0.6,0.7h-0.7l-3.8-2.5h-1.3v0.6c3.3,26,7.5,48.7,12.5,68.2
		c0.8,0,1.3,0.8,1.3,2.5h0.7l11.3-2.5c9.2,0,13.8,5.4,13.8,16.3v1.8c-2.1,8.8-5.6,13.2-10.7,13.2h-0.6c-5.3,0-11.2-4.2-17.5-12.5
		h-1.9c-11.9,4.2-20.9,6.3-26.8,6.3c0,14.3-4,23.6-11.9,28.1c-15.9,14.2-30.3,21.3-43.1,21.3c-9.3,0-15.8-3.9-19.4-11.8
		c-0.8-1.5-1.7-5.5-2.5-11.9l1.3-14.3l-6.8-7.5h-0.7c-7.5,7.9-14.2,11.8-20,11.8c-12.5,0-21.3-9.2-26.3-27.5h-1.3
		c-0.8,8.7-4.7,17.6-11.8,26.9c-6.1,7.5-18.4,14.2-36.9,20l-7.5,1.3v-1.9c13.8-6.3,28.4-16.8,43.8-31.3c4.2-6.2,6.3-10.2,6.3-11.8
		v-1.9c-0.7-6.2-5.3-14.5-13.8-25C162,182,141.8,161.6,129,144.7c-2.1-1-3.2-4.8-3.2-11.3v-1.8h1.9c13.6,8,21.3,13.2,23.1,15.6v1.9
		h-6.3v1.3c0.1,1.2,16.4,17.2,48.8,48.1c5.2,5.1,9.2,13,11.9,23.8h0.6l1.3-2.5c-2.1-21.2-6.6-51-13.8-89.4
		C194.3,124,195.4,120.9,196.5,120.9z M433.4,126.6c0.8,2.5,2.5,3.8,5,3.8l0.7-0.7v-1.8c0-2.9-1.1-4.4-3.2-4.4
		C434.3,123.8,433.4,124.9,433.4,126.6z M389.7,124.1c7.4,12.1,12,21.2,13.8,27.5l-0.6,0.6h-1.3l-4.4-3.8h-1.3l11.3,79.4l0.7,11.3
		h0.6c-1.7,12.9-3.3,19.3-5,19.3c-0.8,0-1.3-0.6-1.3-1.8c0-14.3-5.4-56-16.3-125C387.1,126.6,388.4,124.1,389.7,124.1z M326.6,125.9
		c1.3,0.4,2.2,1.3,2.5,2.5c0,4.1-5.2,8-15.7,11.9c-28,14.3-54.9,29.3-80.6,45c-1.6,1.7-4.5,3.3-8.8,5l-0.7-0.7
		c0-5.9,6.7-12.2,20-18.8C258.2,161.2,286,146.2,326.6,125.9z M336.6,142.8h0.6c2.9,1.5,4.4,5,4.4,10.6l-0.7,4.4l3.8,6.8
		c-0.4,2.5-1,3.8-1.8,3.8h-0.7l-2.5-1.8h-1.3c-11.7,12.9-23,21.8-33.8,26.8h-1.3v-0.6c19.8-17.2,30.1-26.6,30.7-28.2v-1.3
		c-4.6-4-6.9-7.1-6.9-9.3C328.9,146.6,332.1,142.8,336.6,142.8z M332.8,151.6v0.6l3.8,3.2h0.6l1.3-1.3c-0.7-2.5-2.1-3.8-4.3-3.8
		L332.8,151.6z M528.5,154.1h0.7v0.6c-2.1,3.7-3.2,7.6-3.2,11.9s1.5,7.4,4.4,9.4c2.9,0,4.3-1.7,4.3-5h1.3c-0.9,8.3-3,12.5-6.3,12.5
		c-2.8,0-5.1-3.5-6.8-10.6C522.9,165.5,524.7,159.2,528.5,154.1z M111.5,156.6h1.3v0.6l-3.8,16.3c0,3.3,1.7,5.8,5,7.5
		c2.1-0.7,3.1-1.9,3.1-3.8h0.7l1.3,1.3c0,6.7-1.9,10-5.7,10c-3.4,0-5.7-3.3-6.8-10C106.5,172.4,108.2,165.1,111.5,156.6z
		 M621.7,157.2h0.6v0.7c-2.1,3.8-3.1,7.8-3.1,11.8c0.3,5,1.7,7.5,4.3,7.5l3.2-3.1l0.6,0.6h0.7c-0.7,3.8-2.6,6.9-5.7,9.4
		c-4.2-1.8-6.3-5.4-6.3-10.7C617.5,164.5,619.4,159.1,621.7,157.2z M60.8,157.8h1.3l-4.3,21.8c0,12.1,2.3,18.2,6.8,18.2l3.8-5.7
		l0.7,0.7v0.6c0,9.2-2.3,13.8-6.9,13.8c-3.7,0-6.4-4.4-8.1-13.1v-4.4C54,177.9,56.3,167.3,60.8,157.8z M446.6,160.9h0.6
		c2.6,0,6.2,2.7,10.7,8.2c0,3.1-1.7,6.2-5,9.3c-1.9,0-4.8-1.7-8.8-5h-1.3l-5.7,6.9h-0.6c-2.6,0-5.9-2.3-10-6.9v-0.6
		c0-1.4,1.3-4.5,3.8-9.4h0.6l10.7,5L446.6,160.9z M484.7,173.4l13.8,13.8v1.3l-3.1,0.7h-1.9l9.4,18.8l1.8,6.3
		c0,10-2.1,16.9-6.3,20.6c-7.5,7.1-11.3,11.4-11.3,13.2l-0.6,3.1v6.3c0,6.6,4.6,11.8,13.8,15.7l3.8,0.6h4.3
		c8.6-0.3,17.8-4.4,27.5-12.5c14.4-11,22.6-19.8,24.4-26.3v-0.6c0-1.1-0.8-1.7-2.5-1.9l-16.3,3.8c-9.6-0.9-14.4-5.7-14.4-14.3
		c2.7-12.1,7.5-18.2,14.4-18.2h0.6c7.2,0,13.4,4.4,18.8,13.2h1.9c2.4,0,9.1-4.4,20-13.2h1.8c1.3,0,2.1,3.8,2.5,11.3
		c1.7,2,4.4,4.1,8.2,6.3h7.5c7.2,0,13.9-6.9,20-20.6l0.6-0.7h1.9v0.7l-1.9,7.5c0,4.4,4.8,7.1,14.4,8.1l3.8-1.3v-1.8l-3.2-6.9
		c1.3-6.2,2.3-9.3,3.2-9.3h0.6c3.8,5.7,5.7,10.7,5.7,15c0,11.2-4.8,16.8-14.4,16.8c-3.9,0-8.9-2.9-15-8.8
		c-5.2,8.8-11.7,13.2-19.3,13.2l-0.7,0.6c-10.8-2-16.3-6.8-16.3-14.3l-0.6-0.7v-0.6H581c-2.6,0-7.8,4.2-15.6,12.5
		c0,12.8-5.8,23.7-17.5,32.5c-14.5,15.4-28.7,23.1-42.5,23.1c-15-3-22.5-10.5-22.5-22.5l-0.7-5l0.7-7.5l-0.7-0.6h-0.6
		c-26.8,18.7-44.6,28.1-53.2,28.1l-29.3,7.5l-1.9-0.6v-0.7c3.3-2.7,13.8-7.4,31.3-14.3c22.3-11.6,43.3-25.3,63.2-41.3l7.5-8.2v-1.3
		c0-2.6-3.6-9.4-10.7-20.6c-2.5-5.1-4.6-10.8-6.3-16.9C482.5,176.3,483.3,173.4,484.7,173.4z M274.1,174.7l0.6,0.7l-3.8,13.8v6.8
		c1.7,3.1,3.1,4.7,4.4,5h1.3c0.8,0,1.7-1.4,2.5-4.3h0.6l0.7,0.6h0.6c-1.4,7.9-3.7,11.9-6.8,11.9c-3.7,0-6-3.6-6.9-10.7
		C267.1,189.7,269.5,181.8,274.1,174.7z M459.1,183.4l0.6,0.7h0.7c-0.4,6.1-3.8,13.3-10,21.8v1.9c8.3,6.3,12.5,11.7,12.5,16.3
		c0,11.8-5.2,19.7-15.7,23.8c-1.8,1.7-4.7,2.5-8.8,2.5h-1.3c-4.6-2.5-6.8-6.3-6.8-11.3c0-6.9,2.1-14.9,6.3-23.8
		c0-0.9-3.8-4.2-11.3-10l-5.7-6.3v-7.5c0.3-2.5,0.9-3.8,1.9-3.8c2,1.4,7.2,3.5,15.6,6.3v1.8c0,0.8-0.6,1.3-1.8,1.3l-0.7,0.7v1.3
		c2.8,3.3,5.5,5,8.2,5c0.8,0,5.6-6.3,14.3-18.8L459.1,183.4z M330.3,190.9h5c4.2,0.2,6.3,1.3,6.3,3.2c-3.7,9.2-8.9,13.8-15.7,13.8
		v-0.7l6.9-6.8v-1.3l-1.9-0.7c-4.7,0.4-8.7,1.5-11.8,3.2v-0.7C319.1,195.5,322.8,192.2,330.3,190.9z M121.5,199.1
		c2.9,1.1,6,3.6,9.3,7.5c0,2.4-1.9,5.4-5.6,8.8c-1.6,0-4.3-1.5-8.2-4.4h-1.3l-6.8,7.5c-2,0-5.6-2.1-10.7-6.3v-0.6
		c0-3.2,1.5-6.1,4.4-8.8h2.5c4.4,2.5,7.4,3.8,8.8,3.8h0.6C116.4,201.6,118.7,199.1,121.5,199.1z M155.9,204.1
		c4.2,0,8.1,4.6,11.9,13.8l0.6,3.8c0,6.8-2.7,12.8-8.1,18.1c-25.3,15.8-49.5,23.8-72.5,23.8c-20.3,0-32.2-8.5-35.7-25.6v-3.8
		c2.6-15,5.1-22.5,7.5-22.5h0.7v0.6c-1.7,6.9-2.5,12.8-2.5,17.5c0,6.1,3.5,11.5,10.6,16.3c5.8,3.3,13.8,5,23.8,5
		c17.9,0,38.4-6,61.3-18.1l8.8-6.3c0-3.7-2.9-7.9-8.8-12.5v-4.4C153.4,206.5,154.2,204.6,155.9,204.1z M535.4,219.7v1.9l2.5,1.3h5
		c4.6,0,6.8-0.6,6.8-1.9v-0.6l-5-3.8h-4.3C538.1,216.6,536.4,217.6,535.4,219.7z M442.2,218.4c-4.6,5.9-6.8,10.5-6.8,13.8v2.5
		c1.1,2.1,2.7,3.2,5,3.2c5.7,0,11.1-3.1,16.3-9.4v-2.5C449.4,220.9,444.6,218.4,442.2,218.4z M379.7,229.7c0,2.1,2.5,4,7.5,5.7h1.9
		l1.3-1.3v-1.3c0-1.4-2.9-2.6-8.8-3.8L379.7,229.7z M632.9,243.4l0.6,1.9c0,6.6-2.7,11-8.1,13.1l-5.7-1.3c-3.9,2.5-6.6,3.8-8.1,3.8
		l-8.8-1.8c-3.2,0-10.9,4.6-23.2,13.8c-5.2,2.1-8.9,3.1-11.3,3.1v-1.3c1.4,0,11.3-6.7,29.4-20l6.8-2.5h0.7c1.5,0,3.6,0.8,6.3,2.5
		c4.1,0,7.6-2.5,10.6-7.5h0.7c0,1.7,0.8,2.9,2.5,3.8h3.1c1,0,1.6-1.4,1.9-4.3L632.9,243.4z M362.2,247.2h1.9l-2.5,10v3.2
		c0.5,4.2,1.3,6.3,2.5,6.3h1.3l1.8-1.3l0.7,0.6h0.6c0,4.1-1.3,7-3.8,8.8h-1.8c-2.9-2.6-4.4-5.1-4.4-7.5v-1.8
		C358.4,261.2,359.7,255.1,362.2,247.2z M213.4,259.1h1.9c-1.3,2.5-1.9,6.4-1.9,11.8c1.1,4.6,2.3,6.9,3.8,6.9h0.7
		c1.2,0,1.8-1.1,1.8-3.2h0.7l1.3,1.3c-0.9,6.3-2.6,9.4-5,9.4c-3.8-1.8-5.7-4.8-5.7-8.8v-2.5L213.4,259.1z M137.1,263.4h2.5v1.3
		c0,3.4-1.9,5.5-5.6,6.3c-16.6,6.8-32,13.9-46.3,21.3l-1.9-0.6v-1.3c0-3,5.8-6.8,17.5-11.3L137.1,263.4z"/>
</g>
</svg>
