<?xml version="1.0" encoding="utf-8"?>
<!-- Generator: Adobe Illustrator 25.2.3, SVG Export Plug-In . SVG Version: 6.00 Build 0)  -->
<svg version="1.1" xmlns="http://www.w3.org/2000/svg" xmlns:xlink="http://www.w3.org/1999/xlink" x="0px" y="0px"
	 viewBox="0 0 700 395" style="enable-background:new 0 0 700 395;" xml:space="preserve">
<style type="text/css">
	.st0{fill:#000222;}
	.st1{fill:#FFFFFF;}
</style>
<g id="Layer_1">
	<rect class="st0" width="700" height="395"/>
</g>
<g id="Layer_3">
	<g>
		<path class="st1" d="M273.5,368.6l1.1,4.2c0.2,0.9,0.5,1.8,0.6,2.6h0.1c0.2-0.8,0.5-1.7,0.7-2.6l1.3-4.2h1.3l1.3,4.1
			c0.3,1,0.5,1.9,0.7,2.7h0.1c0.1-0.8,0.4-1.7,0.6-2.7l1.2-4.1h1.5l-2.7,8.2H280l-1.3-3.9c-0.3-0.9-0.5-1.7-0.7-2.7h0
			c-0.2,1-0.5,1.8-0.7,2.7l-1.3,3.9h-1.4l-2.5-8.2H273.5z"/>
		<path class="st1" d="M286.3,368.6l1.1,4.2c0.2,0.9,0.5,1.8,0.6,2.6h0.1c0.2-0.8,0.5-1.7,0.7-2.6l1.3-4.2h1.3l1.3,4.1
			c0.3,1,0.5,1.9,0.7,2.7h0.1c0.1-0.8,0.4-1.7,0.6-2.7l1.2-4.1h1.5l-2.7,8.2h-1.4l-1.3-3.9c-0.3-0.9-0.5-1.7-0.7-2.7h0
			c-0.2,1-0.5,1.8-0.7,2.7l-1.3,3.9h-1.4l-2.5-8.2H286.3z"/>
		<path class="st1" d="M299,368.6l1.1,4.2c0.2,0.9,0.5,1.8,0.6,2.6h0.1c0.2-0.8,0.5-1.7,0.7-2.6l1.3-4.2h1.3l1.3,4.1
			c0.3,1,0.5,1.9,0.7,2.7h0.1c0.1-0.8,0.4-1.7,0.6-2.7l1.2-4.1h1.5l-2.7,8.2h-1.4l-1.3-3.9c-0.3-0.9-0.5-1.7-0.7-2.7h0
			c-0.2,1-0.5,1.8-0.7,2.7l-1.3,3.9h-1.4l-2.5-8.2H299z"/>
		<path class="st1" d="M309.9,375.9c0-0.6,0.4-1.1,1-1.1c0.6,0,1,0.4,1,1.1c0,0.6-0.4,1.1-1,1.1C310.3,377,309.9,376.5,309.9,375.9z
			"/>
		<path class="st1" d="M313.5,375.3c0.4,0.3,1.2,0.6,2,0.6c1.1,0,1.6-0.5,1.6-1.2c0-0.7-0.4-1.1-1.5-1.5c-1.5-0.5-2.2-1.3-2.2-2.3
			c0-1.3,1.1-2.4,2.8-2.4c0.8,0,1.6,0.2,2,0.5l-0.4,1.1c-0.3-0.2-0.9-0.5-1.7-0.5c-0.9,0-1.4,0.5-1.4,1.1c0,0.7,0.5,1,1.6,1.4
			c1.4,0.5,2.2,1.3,2.2,2.5c0,1.4-1.1,2.5-3.1,2.5c-0.9,0-1.7-0.2-2.3-0.6L313.5,375.3z"/>
		<path class="st1" d="M327.4,374.6c0,0.9,0,1.6,0.1,2.2h-1.3l-0.1-1.3h0c-0.4,0.7-1.3,1.5-2.7,1.5c-1.3,0-2.8-0.7-2.8-3.6v-4.8h1.5
			v4.6c0,1.6,0.5,2.6,1.8,2.6c1,0,1.7-0.7,2-1.4c0.1-0.2,0.1-0.5,0.1-0.8v-5h1.5V374.6z"/>
		<path class="st1" d="M329.8,371.1c0-1,0-1.8-0.1-2.6h1.3l0.1,1.6h0.1c0.4-1.1,1.3-1.8,2.3-1.8c0.2,0,0.3,0,0.4,0.1v1.4
			c-0.2,0-0.3-0.1-0.5-0.1c-1.1,0-1.8,0.8-2,1.9c0,0.2-0.1,0.4-0.1,0.7v4.4h-1.5V371.1z"/>
		<path class="st1" d="M339.9,376.8l-0.1-1h-0.1c-0.5,0.6-1.3,1.2-2.5,1.2c-1.7,0-2.5-1.2-2.5-2.4c0-2,1.8-3.1,4.9-3.1v-0.2
			c0-0.7-0.2-1.9-1.9-1.9c-0.8,0-1.6,0.2-2.1,0.6l-0.3-1c0.7-0.4,1.7-0.7,2.7-0.7c2.5,0,3.1,1.7,3.1,3.4v3.1c0,0.7,0,1.4,0.1,2
			H339.9z M339.7,372.6c-1.6,0-3.5,0.3-3.5,1.9c0,1,0.6,1.4,1.4,1.4c1.1,0,1.8-0.7,2-1.4c0.1-0.2,0.1-0.3,0.1-0.5V372.6z"/>
		<path class="st1" d="M343.5,364.7h1.5v5.1h0c0.2-0.4,0.6-0.8,1.1-1.1c0.4-0.3,1-0.4,1.5-0.4c1.1,0,2.9,0.7,2.9,3.5v4.9H349v-4.7
			c0-1.3-0.5-2.4-1.9-2.4c-1,0-1.7,0.7-2,1.5c-0.1,0.2-0.1,0.4-0.1,0.7v5h-1.5V364.7z"/>
		<path class="st1" d="M358.6,375.5L358.6,375.5c-0.5,0.8-1.4,1.5-2.7,1.5c-1.9,0-3.5-1.7-3.5-4.2c0-3.1,2-4.4,3.7-4.4
			c1.3,0,2.1,0.6,2.5,1.4h0l0.1-1.2h1.4c0,0.7-0.1,1.4-0.1,2.3v9.3h-1.5V375.5z M358.6,371.9c0-0.2,0-0.4-0.1-0.6
			c-0.2-0.9-1-1.7-2.1-1.7c-1.5,0-2.5,1.3-2.5,3.2c0,1.6,0.8,3.1,2.4,3.1c1,0,1.8-0.6,2.1-1.6c0.1-0.2,0.1-0.5,0.1-0.7V371.9z"/>
		<path class="st1" d="M369.4,374.6c0,0.9,0,1.6,0.1,2.2h-1.3l-0.1-1.3h0c-0.4,0.7-1.3,1.5-2.7,1.5c-1.3,0-2.8-0.7-2.8-3.6v-4.8h1.5
			v4.6c0,1.6,0.5,2.6,1.8,2.6c1,0,1.7-0.7,2-1.4c0.1-0.2,0.1-0.5,0.1-0.8v-5h1.5V374.6z"/>
		<path class="st1" d="M371.9,371.1c0-1,0-1.8-0.1-2.6h1.3l0.1,1.6h0.1c0.4-1.1,1.3-1.8,2.3-1.8c0.2,0,0.3,0,0.4,0.1v1.4
			c-0.2,0-0.3-0.1-0.5-0.1c-1.1,0-1.8,0.8-2,1.9c0,0.2-0.1,0.4-0.1,0.7v4.4h-1.5V371.1z"/>
		<path class="st1" d="M381.9,376.8l-0.1-1h-0.1c-0.5,0.6-1.3,1.2-2.5,1.2c-1.7,0-2.5-1.2-2.5-2.4c0-2,1.8-3.1,4.9-3.1v-0.2
			c0-0.7-0.2-1.9-1.9-1.9c-0.8,0-1.6,0.2-2.1,0.6l-0.3-1c0.7-0.4,1.7-0.7,2.7-0.7c2.5,0,3.1,1.7,3.1,3.4v3.1c0,0.7,0,1.4,0.1,2
			H381.9z M381.7,372.6c-1.6,0-3.5,0.3-3.5,1.9c0,1,0.6,1.4,1.4,1.4c1.1,0,1.8-0.7,2-1.4c0.1-0.2,0.1-0.3,0.1-0.5V372.6z"/>
		<path class="st1" d="M385.6,370.8c0-0.9,0-1.5-0.1-2.2h1.3l0.1,1.4h0c0.4-0.8,1.4-1.5,2.7-1.5c1.1,0,2.9,0.7,2.9,3.5v4.9h-1.5
			v-4.7c0-1.3-0.5-2.4-1.9-2.4c-1,0-1.8,0.7-2,1.5c-0.1,0.2-0.1,0.4-0.1,0.7v4.9h-1.5V370.8z"/>
		<path class="st1" d="M394.6,375.9c0-0.6,0.4-1.1,1-1.1c0.6,0,1,0.4,1,1.1c0,0.6-0.4,1.1-1,1.1C395,377,394.6,376.5,394.6,375.9z"
			/>
		<path class="st1" d="M404.4,376.5c-0.4,0.2-1.3,0.5-2.4,0.5c-2.5,0-4.1-1.7-4.1-4.2c0-2.5,1.7-4.4,4.4-4.4c0.9,0,1.7,0.2,2.1,0.4
			l-0.3,1.2c-0.4-0.2-0.9-0.4-1.7-0.4c-1.9,0-2.9,1.4-2.9,3.1c0,1.9,1.2,3.1,2.9,3.1c0.8,0,1.4-0.2,1.8-0.4L404.4,376.5z"/>
		<path class="st1" d="M413.5,372.6c0,3-2.1,4.4-4.1,4.4c-2.2,0-3.9-1.6-3.9-4.2c0-2.8,1.8-4.4,4.1-4.4
			C411.9,368.4,413.5,370.1,413.5,372.6z M406.9,372.7c0,1.8,1,3.2,2.5,3.2c1.4,0,2.5-1.3,2.5-3.2c0-1.4-0.7-3.2-2.5-3.2
			S406.9,371.1,406.9,372.7z"/>
		<path class="st1" d="M415.4,370.8c0-0.9,0-1.5-0.1-2.2h1.3l0.1,1.3h0.1c0.5-0.8,1.2-1.5,2.6-1.5c1.1,0,2,0.7,2.3,1.6h0
			c0.3-0.5,0.6-0.8,0.9-1.1c0.5-0.4,1-0.6,1.8-0.6c1.1,0,2.7,0.7,2.7,3.6v4.8h-1.5v-4.7c0-1.6-0.6-2.5-1.8-2.5
			c-0.9,0-1.5,0.6-1.8,1.4c-0.1,0.2-0.1,0.5-0.1,0.7v5.1h-1.5v-4.9c0-1.3-0.6-2.3-1.7-2.3c-0.9,0-1.6,0.7-1.9,1.5
			c-0.1,0.2-0.1,0.5-0.1,0.7v5h-1.5V370.8z"/>
	</g>
</g>
<g id="Layer_4">
	<path class="st1" d="M325.6,99.4c1.5,1.4,5.9,11.7,13.2,30.9v2.6h-1.3c-2.8-2.6-4.7-4-5.9-4v0.7c7,57.1,10.5,88,10.5,92.8
		c-0.8,15.8-2.5,24.1-5.3,25l-1.3-1.3v-6.6c0-8.9-4.8-52.3-14.5-130.4C323,102.7,324.5,99.4,325.6,99.4z M289.5,100
		c1.1,0.5,3.2,5.6,6.6,15.2c4.4,7.8,6.6,13.3,6.6,16.4l-0.7,0.7h-1.3c-2-1.8-3.5-2.6-4.6-2.6v0.6c4.8,34.4,8.7,66,11.9,94.8
		c0,13.2-5.1,22.2-15.2,27l-9.2,1.3h-2.6c-8.8-3.7-13.2-8.8-13.2-15.2l-1.9-1.9h-1.3c-21.2,14.5-40.9,21.7-59.3,21.7l-0.7,0.7h-0.6
		c-16.3,0-28.8-5.9-37.6-17.8c-5.1,7.4-9,12.3-11.9,14.5c-6.2,2.6-10.4,4-12.5,4h-2.6c-10.5,0-18.2-9-23.1-27
		c-1.8-11.5-5-44.4-9.8-98.8l-4.7-23.1c1.9-6.6,3.5-9.8,4.7-9.8h1.3c3,10.1,6.3,36.4,9.8,79c1.1,18.4,1.9,27.7,2.6,27.7l-0.6,0.6
		v0.7c2.6,25,9.7,37.5,21.1,37.5h1.9c10.2,0,17.4-4.8,21.8-14.5c2.8-3.9,4.8-6.1,5.9-6.6h0.7c0.7,0,1.8,2.9,3.2,8.6
		c7.9,7.9,18.2,11.9,31,11.9c19.1,0,41.1-8.1,65.8-24.4h1.3l0.6,2l-0.6,4c1.6,8.8,5.8,13.2,12.6,13.2s12.2-2.2,16.4-6.6l-14.5-113.2
		c0-4.3-0.7-7.4-2-9.2C286.6,103.8,288.2,100,289.5,100z M519.2,100h0.7c3.8,0,6,2.9,6.6,8.6l-2,3.2l-5.3-4h-1.9l-3.3,3.3v10.5
		c0,12.9-1.3,20-4,21.1h-0.6c-5.1-12.3-10.8-18.4-17.1-18.4c-4-2.6-6-5.1-6-7.3v-1.3c0-2.3,0.9-3.9,2.6-4.6h0.7
		c4.5,0,10.7,5.7,18.4,17.1h1.9v-9.9C510,110.1,513.1,104,519.2,100z M566.6,100.7h0.7c4.4,0,6.6,4,6.6,11.9h0.6l-0.6,1.9
		c0,3.6,1.5,7.4,4.6,11.2l0.7,1.9c-0.7,1.8-1.4,2.6-2,2.6h-0.6l-4-2.6h-0.7c-1.7,0-6.1,3.7-13.2,11.2
		c-15.6,12.9-28.5,20.1-38.8,21.7V160l32.2-21.8c9.2-6.7,13.9-11.5,13.9-14.5c-1.5,0-3.7-2.2-6.6-6.6v-1.3
		C559.4,108.7,561.8,103.6,566.6,100.7z M161.7,103.3c3.5,1.6,5.3,4.4,5.3,8.5v1.3l-2,2h-0.6l-4.7-3.3h-0.6l-2.6,2.6l0.6,6.6v4.7
		c0,5-0.9,10.7-2.6,17.1h-0.6c-0.8,0-2.4-2.6-4.7-7.9c-5.3-7-10.3-10.5-15.1-10.5c-2.1-1.6-3.4-3.4-4-5.3c0.6-4.4,1.5-6.6,2.6-6.6
		h2.6c3.5,1.2,9.4,6.6,17.7,16.4l0.7-0.6V125l-0.7-5.3c1.3-10.9,4-16.4,7.9-16.4H161.7z M378.3,103.3c1.6,0,3,2.6,4,7.9l-0.6,5.9
		v2.6c0,1.6,2.2,4.4,6.6,8.6v1.9c-0.4,2.2-1,3.3-2,3.3c-4.4-3.1-7.5-4.7-9.2-4.7c-8.3,11.7-19.4,19.8-33.5,24.4v-2
		c0.3-1,2.9-2.8,7.9-5.3c13.6-10.4,20.4-16.1,20.4-17.1c0.9,0,1.3-1.1,1.3-3.2V125l-4-5.9v-2.6C370.6,107.7,373.6,103.3,378.3,103.3
		z M462.6,104.7h2.6c0,4.6-4.2,8.8-12.5,12.5c-25,16.3-40.8,25.9-47.4,29v-0.6l-0.7-0.7v-0.6c0-3.7,10.1-11.1,30.3-22.4L462.6,104.7
		z M232.8,105.3v0.7c0,5.4-5.3,10.2-15.8,14.5c-35.9,21-61.6,36.5-77.1,46.7c-4.4,4.4-7.9,6.6-10.5,6.6v-1.9
		c0-6.6,13.6-17.3,40.8-32.3l60-34.2H232.8z M562.7,112.6c3.1,2.6,5.5,4,7.3,4h0.6v-2.6c0-2.9-1.3-4.9-4-6
		C564,109,562.7,110.5,562.7,112.6z M373.7,111.9l-0.7,2c0.7,2,2,3.5,4,4.6h1.3v-3.2l-0.6-3.3H373.7z M276.3,117.8l1.3,1.3v1.3
		c0,4.2-3.7,7.4-11.2,9.8c-44.6,22.4-76.2,39.3-94.8,50.7H171v-1.3c0-6.2,6.3-12.1,19-17.8c8-5.5,36.1-20.2,84.3-44.1H276.3z
		 M473.8,142.9v0.6c-2.2,5-3.3,9.4-3.3,13.2v0.7c0.9,5.7,2.2,8.5,4,8.5h2c1,0,2.1-1.8,3.2-5.3h1.3v2.6c-1.8,7.5-3.7,11.2-5.9,11.2
		c-3.3,0-6-3.5-7.9-10.5v-4.7C469.6,148.3,471.8,142.9,473.8,142.9z M571.3,147.4h0.6l-3.2,10.5c0,6.6,1.1,9.9,3.2,9.9h1.3
		c1.8-0.9,2.6-2.2,2.6-4h1.3v1.3h0.7c-1.9,6.6-3.7,9.8-5.3,9.8h-0.7c-4.4,0-6.6-3.7-6.6-11.1v-1.3
		C567.4,152.5,569.4,147.4,571.3,147.4z M263.1,148.7h1.3c3.9,5.9,5.9,11,5.9,15.2c0,6.6-2.6,9.8-7.9,9.8l-7.9-3.2
		c-3.7,4.8-6.8,7.2-9.2,7.2h-1.9c-3.5-2.5-5.3-5.1-5.3-7.9l1.3-14.5h1.9v11.2c1.1,2.2,3,3.2,5.7,3.2s4.7-2,6.2-5.9l-0.6-12.6
		l0.6-1.9h0.7c0.9,0,2.3,4.4,4,13.2c2.5,2.2,4.7,3.2,6.6,3.2l1.3-1.3l-3.3-9.8v-1.3L263.1,148.7z M387.5,150.8
		c7,3,10.5,6.3,10.5,9.8c0,2.8-1.8,5.4-5.3,7.9c-1.6,0-4.7-1.8-9.2-5.3H383l-6.6,7.9h-1.3c-6.6-3.6-9.9-6.5-9.9-8.5
		c1.9-6.1,4.1-9.2,6.6-9.2l8.6,5.3c1,0,3-2.6,5.9-7.9H387.5z M427,163.2c8.1,7.5,12.7,12.3,13.9,14.5v0.7l-1.3,1.3h-3.3v1.9
		c7.5,12.9,11.2,21.4,11.2,25.7c0,13.5-5.1,23.1-15.2,29c-2.6,3.3-4,6.6-4,9.8v4.7c0,9.1,5.5,15.2,16.5,18.4h5.3
		c15.5,0,33.9-12.5,55.3-37.6l0.6-4l-1.9-1.3c-7.5,2.2-13.9,3.3-19.1,3.3h-1.3c-6.7,0-10.9-4.6-12.5-13.9c0-9.7,5.3-16.7,15.8-21.1
		c6.3,0,13.3,5.3,21.1,15.8c3.6-0.5,11.1-5.4,22.4-14.5h1.3l1.9,2v5.3c0,6,4,9.7,11.9,11.1h5.3c8,0,15-7,21.1-21.1l2-1.3h1.3
		l-2.6,10.5c3.6,4.4,8.6,6.6,15.1,6.6c3.1,0,4.7-0.9,4.7-2.6l-3.3-7.9v-0.6c0.3-6.1,1.4-9.2,3.3-9.2c3.9,5.2,5.9,10.9,5.9,17.1
		c0,9.1-4,14.5-11.9,16.4h-3.2c-4.3,0-9.4-2.8-15.2-8.5c-6.8,9.2-14.2,13.8-22.2,13.8c-7.9,0-13.7-5-17.3-15.1v-1.3
		c-5.2,1.5-10.7,5.9-16.4,13.2c0,10.6-4.2,19.8-12.6,27.7c-18.4,20.2-36.2,30.3-53.3,30.3c-7.1,0-13.7-5.1-19.8-15.2l-2.6-11.1
		l0.6-6v-5.3h-1.3c-22.9,16.4-42.5,26.5-58.6,30.3l-27.7,6l-2-0.7v-0.6c1.3-1.6,13-6.9,34.9-15.8c26.2-13.6,49.4-29.2,69.8-46.8
		l1.9-3.2v-1.3c0-2.5-2.8-8.7-8.5-18.4l-9.2-19.8C424.9,167,426,163.2,427,163.2z M400.1,173.8h1.3c0,5.3-3.3,13-9.9,23.1l-1.3,2.6
		c0,0.9,2.2,2.8,6.6,5.9c4.9,5,7.3,9.2,7.3,12.6c0,11.2-5.3,18.8-15.8,23c-1.2,1.8-4.5,3.1-9.9,4c-6.1,0-9.2-4.2-9.2-12.6
		c0-8.4,2.2-16.5,6.6-24.3c0-0.8-3.7-4.3-11.1-10.5c-4.4-3.9-6.6-7.4-6.6-10.5v-4l0.6-4.6h1.3c10.5,4.1,16.2,6.9,17.1,8.5
		c0,0.9-1.3,1.6-4,2v1.3c0.9,1.6,3.5,3.5,7.9,5.9c2.5,0,6.3-4.4,11.2-13.2L400.1,173.8z M215.7,175.8l0.6,0.6h0.7l-3.3,19.8v6.6
		c0,4,2,7.3,6,9.9h0.6c1.3,0,2.5-2.2,3.3-6.6h1.9v1.3h0.7c-1.9,10.5-4.1,15.8-6.6,15.8c-7,0-10.5-7.3-10.5-21.8
		C212.2,184.3,214.4,175.8,215.7,175.8z M149.9,181.7l0.6,0.7v0.6c-1.8,6.8-2.6,12.6-2.6,17.1c1.3,4.9,2.7,7.3,4,7.3h2
		c0.9,0,1.8-1.6,2.6-4.7h0.6l1.3,1.3c-1.1,7.9-3.5,11.9-7.2,11.9c-3.5,0-5.6-4.2-6.6-12.5C145.9,188.9,147.7,181.7,149.9,181.7z
		 M260.5,183.7c7,2.4,10.5,5.5,10.5,9.2c-2.2,5.7-4,8.5-5.3,8.5h-1.3c-4.3-2.3-7.4-4.7-9.2-7.2v-1.3
		C256.8,186.7,258.6,183.7,260.5,183.7z M479.7,214.6l4.7,1.3h9.2l1.3-1.3V214c-2-3.1-4.7-4.7-7.9-4.7
		C482.1,209.3,479.7,211.1,479.7,214.6z M380.3,211.9c-4.4,7.1-6.6,12.1-6.6,15.2c0.9,3,2.6,4.6,5.3,4.6h0.6
		c4.9,0,10.6-3.3,17.1-9.8v-2c-1-1.8-4.9-4.4-11.9-7.9H380.3z M582.4,237.7l0.7,0.6v2c-1.2,9.2-4.3,13.8-9.2,13.8l-4.7-1.3l-9.2,4
		h-1.9l-7.3-2.6c-2.9,0-11,4.8-24.3,14.5c-4.8,2.6-8.7,4-11.9,4v-0.6c21.9-16.3,34.7-24.4,38.2-24.4h1.9l6,2h1.9
		c2.8,0,5.7-2.4,8.6-7.3h0.6c0,1.8,0.9,3.1,2.6,4h2.6c1.3,0,2-1.3,2-4L582.4,237.7z M319.8,245.6h1.3v1.3h0.6
		c-2.2,5.6-3.2,9.6-3.2,11.9v4c0.9,3.9,2,5.9,3.2,5.9h1.3c0.7,0,1.6-1.3,2.6-4h1.3v0.7c0,5.6-1.8,9.3-5.3,11.1h-1.9
		c-3.5-1.8-5.3-5.4-5.3-10.8C314.5,260.3,316.2,253.6,319.8,245.6z M257.9,253.5h0.6v0.6l-3.2,14.5c0,3.5,1.3,5.9,4,7.3h0.6l4-4
		l0.7,0.6c-1.6,7.5-4.2,11.2-7.9,11.2c-3.5-2.2-5.3-5.9-5.3-11.2C253.6,259.8,255.8,253.5,257.9,253.5z M122.9,258
		c2.6,0,4.2,1.8,4.7,5.3c-0.9,3.1-1.8,4.7-2.6,4.7h-0.7l-3.2-2.6c-2.6,0.3-4,0.9-4,1.9v1.3c0,1.2,1.8,2,5.3,2.6h3.2l10.5-1.3l0.7,2
		c0,3.5-5.5,5.9-16.5,7.2c-0.4,1.1-3.2,2.2-8.5,3.3l-0.7-0.7l2-5.9l-2-4C113.6,264.9,117.6,260.3,122.9,258z M171,265.3
		c7,4.7,10.5,8.4,10.5,11.1c-1.1,2.2-3,4.4-6,6.6c-2.8,0-6.5-2.8-11.1-8.5C165.4,268.4,167.6,265.3,171,265.3z M141.3,279.1l0.7,0.7
		v0.6c0,3.9-4.4,6.7-13.2,8.6l-17.1,6.6l-0.7-2C111,289.9,121.1,285.1,141.3,279.1z"/>
</g>
</svg>
