<?xml version="1.0" encoding="utf-8"?>
<!-- Generator: Adobe Illustrator 25.2.3, SVG Export Plug-In . SVG Version: 6.00 Build 0)  -->
<svg version="1.1" xmlns="http://www.w3.org/2000/svg" xmlns:xlink="http://www.w3.org/1999/xlink" x="0px" y="0px"
	 viewBox="0 0 700 395" style="enable-background:new 0 0 700 395;" xml:space="preserve">
<style type="text/css">
	.st0{fill:#000222;}
	.st1{fill:#FFFFFF;}
</style>
<g id="Layer_1">
	<rect class="st0" width="700" height="395"/>
</g>
<g id="Layer_3">
	<g>
		<path class="st1" d="M273.5,368.6l1.1,4.2c0.2,0.9,0.5,1.8,0.6,2.6h0.1c0.2-0.8,0.5-1.7,0.7-2.6l1.3-4.2h1.3l1.3,4.1
			c0.3,1,0.5,1.9,0.7,2.7h0.1c0.1-0.8,0.4-1.7,0.6-2.7l1.2-4.1h1.5l-2.7,8.2H280l-1.3-3.9c-0.3-0.9-0.5-1.7-0.7-2.7h0
			c-0.2,1-0.5,1.8-0.7,2.7l-1.3,3.9h-1.4l-2.5-8.2H273.5z"/>
		<path class="st1" d="M286.3,368.6l1.1,4.2c0.2,0.9,0.5,1.8,0.6,2.6h0.1c0.2-0.8,0.5-1.7,0.7-2.6l1.3-4.2h1.3l1.3,4.1
			c0.3,1,0.5,1.9,0.7,2.7h0.1c0.1-0.8,0.4-1.7,0.6-2.7l1.2-4.1h1.5l-2.7,8.2h-1.4l-1.3-3.9c-0.3-0.9-0.5-1.7-0.7-2.7h0
			c-0.2,1-0.5,1.8-0.7,2.7l-1.3,3.9h-1.4l-2.5-8.2H286.3z"/>
		<path class="st1" d="M299,368.6l1.1,4.2c0.2,0.9,0.5,1.8,0.6,2.6h0.1c0.2-0.8,0.5-1.7,0.7-2.6l1.3-4.2h1.3l1.3,4.1
			c0.3,1,0.5,1.9,0.7,2.7h0.1c0.1-0.8,0.4-1.7,0.6-2.7l1.2-4.1h1.5l-2.7,8.2h-1.4l-1.3-3.9c-0.3-0.9-0.5-1.7-0.7-2.7h0
			c-0.2,1-0.5,1.8-0.7,2.7l-1.3,3.9h-1.4l-2.5-8.2H299z"/>
		<path class="st1" d="M309.9,375.9c0-0.6,0.4-1.1,1-1.1c0.6,0,1,0.4,1,1.1c0,0.6-0.4,1.1-1,1.1C310.3,377,309.9,376.5,309.9,375.9z
			"/>
		<path class="st1" d="M313.5,375.3c0.4,0.3,1.2,0.6,2,0.6c1.1,0,1.6-0.5,1.6-1.2c0-0.7-0.4-1.1-1.5-1.5c-1.5-0.5-2.2-1.3-2.2-2.3
			c0-1.3,1.1-2.4,2.8-2.4c0.8,0,1.6,0.2,2,0.5l-0.4,1.1c-0.3-0.2-0.9-0.5-1.7-0.5c-0.9,0-1.4,0.5-1.4,1.1c0,0.7,0.5,1,1.6,1.4
			c1.4,0.5,2.2,1.3,2.2,2.5c0,1.4-1.1,2.5-3.1,2.5c-0.9,0-1.7-0.2-2.3-0.6L313.5,375.3z"/>
		<path class="st1" d="M327.4,374.6c0,0.9,0,1.6,0.1,2.2h-1.3l-0.1-1.3h0c-0.4,0.7-1.3,1.5-2.7,1.5c-1.3,0-2.8-0.7-2.8-3.6v-4.8h1.5
			v4.6c0,1.6,0.5,2.6,1.8,2.6c1,0,1.7-0.7,2-1.4c0.1-0.2,0.1-0.5,0.1-0.8v-5h1.5V374.6z"/>
		<path class="st1" d="M329.8,371.1c0-1,0-1.8-0.1-2.6h1.3l0.1,1.6h0.1c0.4-1.1,1.3-1.8,2.3-1.8c0.2,0,0.3,0,0.4,0.1v1.4
			c-0.2,0-0.3-0.1-0.5-0.1c-1.1,0-1.8,0.8-2,1.9c0,0.2-0.1,0.4-0.1,0.7v4.4h-1.5V371.1z"/>
		<path class="st1" d="M339.9,376.8l-0.1-1h-0.1c-0.5,0.6-1.3,1.2-2.5,1.2c-1.7,0-2.5-1.2-2.5-2.4c0-2,1.8-3.1,4.9-3.1v-0.2
			c0-0.7-0.2-1.9-1.9-1.9c-0.8,0-1.6,0.2-2.1,0.6l-0.3-1c0.7-0.4,1.7-0.7,2.7-0.7c2.5,0,3.1,1.7,3.1,3.4v3.1c0,0.7,0,1.4,0.1,2
			H339.9z M339.7,372.6c-1.6,0-3.5,0.3-3.5,1.9c0,1,0.6,1.4,1.4,1.4c1.1,0,1.8-0.7,2-1.4c0.1-0.2,0.1-0.3,0.1-0.5V372.6z"/>
		<path class="st1" d="M343.5,364.7h1.5v5.1h0c0.2-0.4,0.6-0.8,1.1-1.1c0.4-0.3,1-0.4,1.5-0.4c1.1,0,2.9,0.7,2.9,3.5v4.9H349v-4.7
			c0-1.3-0.5-2.4-1.9-2.4c-1,0-1.7,0.7-2,1.5c-0.1,0.2-0.1,0.4-0.1,0.7v5h-1.5V364.7z"/>
		<path class="st1" d="M358.6,375.5L358.6,375.5c-0.5,0.8-1.4,1.5-2.7,1.5c-1.9,0-3.5-1.7-3.5-4.2c0-3.1,2-4.4,3.7-4.4
			c1.3,0,2.1,0.6,2.5,1.4h0l0.1-1.2h1.4c0,0.7-0.1,1.4-0.1,2.3v9.3h-1.5V375.5z M358.6,371.9c0-0.2,0-0.4-0.1-0.6
			c-0.2-0.9-1-1.7-2.1-1.7c-1.5,0-2.5,1.3-2.5,3.2c0,1.6,0.8,3.1,2.4,3.1c1,0,1.8-0.6,2.1-1.6c0.1-0.2,0.1-0.5,0.1-0.7V371.9z"/>
		<path class="st1" d="M369.4,374.6c0,0.9,0,1.6,0.1,2.2h-1.3l-0.1-1.3h0c-0.4,0.7-1.3,1.5-2.7,1.5c-1.3,0-2.8-0.7-2.8-3.6v-4.8h1.5
			v4.6c0,1.6,0.5,2.6,1.8,2.6c1,0,1.7-0.7,2-1.4c0.1-0.2,0.1-0.5,0.1-0.8v-5h1.5V374.6z"/>
		<path class="st1" d="M371.9,371.1c0-1,0-1.8-0.1-2.6h1.3l0.1,1.6h0.1c0.4-1.1,1.3-1.8,2.3-1.8c0.2,0,0.3,0,0.4,0.1v1.4
			c-0.2,0-0.3-0.1-0.5-0.1c-1.1,0-1.8,0.8-2,1.9c0,0.2-0.1,0.4-0.1,0.7v4.4h-1.5V371.1z"/>
		<path class="st1" d="M381.9,376.8l-0.1-1h-0.1c-0.5,0.6-1.3,1.2-2.5,1.2c-1.7,0-2.5-1.2-2.5-2.4c0-2,1.8-3.1,4.9-3.1v-0.2
			c0-0.7-0.2-1.9-1.9-1.9c-0.8,0-1.6,0.2-2.1,0.6l-0.3-1c0.7-0.4,1.7-0.7,2.7-0.7c2.5,0,3.1,1.7,3.1,3.4v3.1c0,0.7,0,1.4,0.1,2
			H381.9z M381.7,372.6c-1.6,0-3.5,0.3-3.5,1.9c0,1,0.6,1.4,1.4,1.4c1.1,0,1.8-0.7,2-1.4c0.1-0.2,0.1-0.3,0.1-0.5V372.6z"/>
		<path class="st1" d="M385.6,370.8c0-0.9,0-1.5-0.1-2.2h1.3l0.1,1.4h0c0.4-0.8,1.4-1.5,2.7-1.5c1.1,0,2.9,0.7,2.9,3.5v4.9h-1.5
			v-4.7c0-1.3-0.5-2.4-1.9-2.4c-1,0-1.8,0.7-2,1.5c-0.1,0.2-0.1,0.4-0.1,0.7v4.9h-1.5V370.8z"/>
		<path class="st1" d="M394.6,375.9c0-0.6,0.4-1.1,1-1.1c0.6,0,1,0.4,1,1.1c0,0.6-0.4,1.1-1,1.1C395,377,394.6,376.5,394.6,375.9z"
			/>
		<path class="st1" d="M404.4,376.5c-0.4,0.2-1.3,0.5-2.4,0.5c-2.5,0-4.1-1.7-4.1-4.2c0-2.5,1.7-4.4,4.4-4.4c0.9,0,1.7,0.2,2.1,0.4
			l-0.3,1.2c-0.4-0.2-0.9-0.4-1.7-0.4c-1.9,0-2.9,1.4-2.9,3.1c0,1.9,1.2,3.1,2.9,3.1c0.8,0,1.4-0.2,1.8-0.4L404.4,376.5z"/>
		<path class="st1" d="M413.5,372.6c0,3-2.1,4.4-4.1,4.4c-2.2,0-3.9-1.6-3.9-4.2c0-2.8,1.8-4.4,4.1-4.4
			C411.9,368.4,413.5,370.1,413.5,372.6z M406.9,372.7c0,1.8,1,3.2,2.5,3.2c1.4,0,2.5-1.3,2.5-3.2c0-1.4-0.7-3.2-2.5-3.2
			S406.9,371.1,406.9,372.7z"/>
		<path class="st1" d="M415.4,370.8c0-0.9,0-1.5-0.1-2.2h1.3l0.1,1.3h0.1c0.5-0.8,1.2-1.5,2.6-1.5c1.1,0,2,0.7,2.3,1.6h0
			c0.3-0.5,0.6-0.8,0.9-1.1c0.5-0.4,1-0.6,1.8-0.6c1.1,0,2.7,0.7,2.7,3.6v4.8h-1.5v-4.7c0-1.6-0.6-2.5-1.8-2.5
			c-0.9,0-1.5,0.6-1.8,1.4c-0.1,0.2-0.1,0.5-0.1,0.7v5.1h-1.5v-4.9c0-1.3-0.6-2.3-1.7-2.3c-0.9,0-1.6,0.7-1.9,1.5
			c-0.1,0.2-0.1,0.5-0.1,0.7v5h-1.5V370.8z"/>
	</g>
</g>
<g id="Layer_4">
	<path class="st1" d="M279.6,103.6c3.2,0,6.3,25.7,9.1,77h0.6l-0.6,0.7v1.9l0.6,2.6l-0.6,0.7c2,36.5,4.8,54.8,8.4,54.8
		c4.4,6.1,9.4,9.1,15,9.1h5.2c10.1,0,19.4-6.5,28-19.6l2-1.3h1.3c1.2,11.7,6.6,17.6,16.3,17.6c8.6,0,13.6-2.2,15-6.5l0.6-3.9
		c-6.5-51.1-11.3-92-14.4-122.6c2-6.4,3.7-9.9,5.2-10.4c0.9,0,3.7,7.8,8.5,23.5l3.2,10.4l-0.6,2h-1.3l-3.3-2.6h-0.6l-0.7,1.9
		c6.6,50.5,9.8,80.9,9.8,91.3v0.7l0.6,0.6l-0.6,0.7v3.9c0,11.9-4.8,19.5-14.4,22.8l-7.2,2c-9.5,0-16.5-5-20.9-15h-1.3
		c-9.5,11.8-18.8,17.7-28,17.7h-2.6c-19.6,0-29.4-22.2-29.4-66.5c0-17.6-2.4-45.7-7.1-84.2v-0.6C275.7,108.4,277,105.5,279.6,103.6z
		 M403.5,104.9h1.9c7.4,21.2,11.1,33.3,11.1,36.5c-3.1,0-4.6-1.1-4.6-3.2h-1.9v0.6l9.1,81.6v7.8c0,17.8-1.5,26.7-4.6,26.7H414
		l-1.3-1.3l0.6-8.4c0-5.7-4.3-48.6-13-128.6l-0.6-0.6L403.5,104.9z M148.4,105.6h1.3c2.7,0,5.8,22.4,9.1,67.1l-0.6,0.7v0.6
		c3.4,35.3,6.2,52.9,8.4,52.9c0,4.8,3.9,9.5,11.7,14.4l0.7-0.7v-0.6c-4.3-8.3-6.5-15.7-6.5-22.2c0-10.7,6.7-19,20.2-24.8l11.1-2
		c8.3,0,15.9,3.9,22.8,11.7v1.3c-4.3-2.6-10.4-3.9-18.3-3.9c-19.1,4.2-28.7,7.9-28.7,11.1c0,13.5,6.3,23,19,28.7l4.5,1.3h3.3
		c9.5-1.5,20.1-7.6,31.9-18.3h1.3c0,10.7-11.3,20.9-33.9,30.6c-6.6,2.6-12.6,3.9-18.3,3.9c-14.1,0-23.9-9.1-29.3-27.4
		c-3.1-17-6.3-49.6-9.8-97.8l-3.2-16.3L148.4,105.6z M251.5,105.6l0.7,0.6v0.7c0,5.3-6.1,9.6-18.3,13c-2.9,2.1-22.9,12.6-60,31.3
		l-1.3,1.3h-2c0-6.3,6.5-11.9,19.6-17c15.5-9.2,31.2-17.2,47-24.2C244.9,107.5,249.6,105.6,251.5,105.6z M93,106.2
		c3.9,2.3,5.8,5.1,5.8,8.5v2.6l-1.9,1.9h-0.7c-2.7-2.6-4.7-3.9-5.8-3.9c-0.9,0.8-1.5,3.8-2,9.1l0.7,0.7v0.6c-3.3,21.3-6.1,32-8.5,32
		c-5.5,7.2-10.1,11.3-13.7,12.4l-0.7-0.6v-1.3C76.7,157,81.9,150,81.9,147.3v-2c-4.2-12.6-9.6-18.9-16.3-18.9
		c-3.5-1.9-5.2-4.6-5.2-8s1.1-5.8,3.2-7.1c6.6,3,13.5,10.6,20.9,22.9l0.7-0.7v-12.4C85.2,113,87.8,108,93,106.2z M592,110.1
		c2.8,0,4.8,2.6,5.9,7.8c-0.9,2-1.7,3.1-2.6,3.3h-0.7l-5.2-3.9c-2.6,0.9-3.9,2.6-3.9,5.2c-0.4,20-1.7,30-3.9,30h-1.3
		c-4.8-12.2-10-18.3-15.7-18.3c-4.3-2.6-6.5-5.2-6.5-7.8c0.5-4.3,1.6-6.5,3.3-6.5c2.9,0,9.4,6.3,19.6,18.9l0.6-0.6v-6.5
		C581.6,119.1,585.1,111.9,592,110.1z M449.8,110.8c2.8,0,4.6,2.2,5.2,6.5l-1.3,11.7c4.3,3.3,6.5,6.1,6.5,8.4v2l-1.3,1.3h-0.6
		c-3.5-2.6-6.1-3.9-7.8-3.9h-0.7c-10.7,10.7-19.4,17.3-26.1,19.6l-0.6,0.6h-3.3v-1.3l24.8-19.6l1.3-3.9c-3-3.1-4.5-5.7-4.5-7.8v-0.6
		C442.8,115.1,445.6,110.8,449.8,110.8z M638.4,111.4h0.6c3.9,0,5.9,5.7,5.9,17l1.9,5.2c1.7,0,2.8,1.7,3.3,5.2
		c-0.5,1.7-1.3,2.6-2.6,2.6l-5.2-3.2c-19.1,18.1-35.2,28.6-48.3,31.3l-2,1.3l-0.6-0.7v-1.9c18.7-9.7,33.9-20.1,45.7-31.3v-1.3
		c-4.3-3.7-6.5-6.9-6.5-9.8C632.6,116.2,635.2,111.4,638.4,111.4z M536.6,112.7l0.6,2c0,3.9-9.1,10.6-27.4,20.2l-31.9,19l-0.7-0.7
		v-1.9c0-3.6,10.2-10.8,30.7-21.6C525.4,118.4,535,112.7,536.6,112.7z M359.2,114l0.6,0.7v0.6c0,4.8-10.4,11.1-31.3,19l-31.3,15.7
		h-1.3l-0.6-2.6c0-3.4,14.4-11.2,43.1-23.5C338.3,122.4,345.3,119.2,359.2,114z M126.9,116h1.3l-5.2,18.9v9.1c0,4.7,2.2,7.5,6.5,8.5
		c1.7-2.3,2.6-4.3,2.6-5.9h1.9v0.7c-1.7,10-3.7,15-5.8,15h-3.3c-4.8-2.8-7.1-8.2-7.1-16.3v-1.3C117.8,140.2,120.9,130.7,126.9,116z
		 M445.9,119.9v2.6c1.3,2.1,2.9,3.2,4.6,3.2l0.6-0.6v-2.6c0-2.3-0.6-3.6-1.9-3.9h-2L445.9,119.9z M633.8,122.5
		c2,3.9,4.4,5.8,7.2,5.8h0.6v-4.5c0-2.3-0.9-3.9-2.6-4.6h-2.6C634.6,120.1,633.8,121.3,633.8,122.5z M44.1,147.9h0.7l0.6,2
		c-4.8,11-7.1,22-7.1,33.2c1.3,7.8,3,11.7,5.2,11.7h0.6l5.9-5.8l0.6,1.9c0,4.7-3.2,10.4-9.7,17c-1,0-1.9,3.5-2.6,10.4v3.3
		c0,9.6,5.7,16.1,17,19.6c4,1.3,9,1.9,15,1.9h4.6c21.2,0,42-5.4,62.6-16.3v-3.3c0-1.4-2.8-6.2-8.5-14.4v-0.6
		c0.7-6.1,1.8-9.1,3.3-9.1c7.8,6.8,11.7,13.4,11.7,19.6v1.9c0,10.9-5.7,18.3-17,22.2c-20.1,8.3-39,12.4-56.8,12.4h-0.6
		c-18.4,0-29.9-5.2-34.6-15.7l-2.6-9.1v-2.6c0-4.1,2.2-12.1,6.5-24.2v-0.6c-2.6-2.6-4.6-8.2-5.8-17C33,176.1,36.7,163.3,44.1,147.9z
		 M210.4,148.6h1.3c-2.2,7.1-3.3,12.1-3.3,15c0.7,6.1,2,9.1,3.9,9.1c0.8,0,1.9-1.9,3.3-5.8h0.6l0.7,0.6v0.7
		c-1.2,8.2-3.2,12.4-5.9,12.4h-0.6c-3.5-1.4-5.2-5.1-5.2-11v-0.7C205.2,164,207,157.3,210.4,148.6z M345.4,151.2h0.7l4.5,16.3
		c-1.3,7.4-3.3,11.1-5.8,11.1v0.6c-2,0-5.3-1.3-9.8-3.9h-0.6c-2.6,3.4-5,5.5-7.2,6.5H324c-3.5-1.6-5.2-4.4-5.2-8.4l1.9-13.7
		l-0.6-2.6c0.6-1.7,1.3-2.6,1.9-2.6h1.3l0.7,2l-2,13c0.6,1.8,1.7,3.1,3.3,3.9h1.9c4.3-1.2,6.5-2.7,6.5-4.6v-11.7
		c0.3-2.6,1-3.9,2-3.9c0.7,0,1.3,1.3,1.9,3.9l-0.6,0.7v0.6c0,6.2,1.7,10.4,5.2,12.4h3.9v-2.6l-3.3-11.1
		C343.8,153.2,344.7,151.2,345.4,151.2z M246.3,153.1c5.2,3.7,7.8,6.7,7.8,9.1c-1.7,5.7-4.1,8.5-7.1,8.5l-8.5-8.5
		C240.4,156.2,243,153.1,246.3,153.1z M543.1,153.1h1.3v0.7c-1.7,5-2.6,9-2.6,11.7v1.3c0,3.8,1.5,6.6,4.5,8.4h1.3
		c1,0,2.1-1.7,3.3-5.2h0.6l0.7,0.7v0.6c0,5.1-2,9-5.9,11.7h-1.9c-4.3-3.4-6.5-7.3-6.5-11.7L543.1,153.1z M460.2,157.8
		c6.6,3.8,9.8,7.3,9.8,10.4c0,1.7-1.7,4.3-5.2,7.8h-2l-7.8-5.9c-1,0-3.2,2.6-6.5,7.8l-0.6,0.7c-4.3-1.5-8-4.6-11.1-9.1
		c2-6.1,4.4-9.1,7.2-9.1c4.5,3.5,7.6,5.2,9.1,5.2C456.1,160.4,458.4,157.8,460.2,157.8z M641,158.4h1.3l-3.3,10.4v2
		c0,3.7,1.3,6.3,3.9,7.8l4.6-3.9v2.6c-1.1,5.6-3.3,8.4-6.5,8.4c-3.5-2.4-5.2-5.6-5.2-9.7C635.8,172,637.5,166.1,641,158.4z
		 M498.1,171.4h0.7c9.1,9,13.7,14.3,13.7,15.7l-0.6,0.7h-4.6v0.6l10.4,22.2v2.6c0,12.4-3.2,21.1-9.7,26.1c-6.6,4.2-9.8,9.2-9.8,15
		h0.7l-0.7,0.6v0.7c1.9,14.3,9.1,21.5,21.6,21.5h2.6c10.6-1.4,22.7-7.9,36.5-19.6c11.7-10.5,17.6-17.2,17.6-20.2l-1.9-2l-18.3,2.6
		c-7.4,0-11.9-3.2-13.7-9.7V223c2.1-12.6,7.4-19,15.7-19c5.8,0,12.6,5,20.3,15h0.6c2.2,0,9.6-4.6,22.2-13.7h2l0.6,3.3v6.5
		c3.2,6.5,8.2,9.7,15,9.7c9.3,0,16.9-7,22.8-20.9l2-1.3h1.3l-2.6,9.1c1.6,5.2,7.2,7.8,17,7.8c1.3-0.3,2.1-1.2,2.6-2.6l-3.3-8.4
		c0.9-5.7,2-8.5,3.3-8.5c3.9,4.2,5.8,9.2,5.8,15c-1.3,11.7-5.9,17.6-13.7,17.6h-1.3c-3.9,0-8.9-3-15-9.1c-6.7,8.7-14.6,13-23.5,13
		c-8.1,0-13.3-5.4-15.7-16.3c-1.7,0-7.2,3.7-16.3,11c-1.2,11.1-3.8,18.9-7.8,23.5c-21,23.5-40,35.2-56.8,35.2
		c-12.8-1.8-20.6-9.2-23.5-22.2v-11l0.7-4.6l-0.7-0.6h-0.6c-29.6,19.1-48.3,28.7-56.1,28.7l-32,6.5l-0.6-0.7v-0.6
		c2.9-2.2,14.6-7.4,35.2-15.7c27.2-13.7,50.7-28.9,70.5-45.7l1.9-3.3v-0.6c0-1.3-4.6-11.1-13.7-29.4l-3.3-10.4
		C495.8,174.5,496.6,171.4,498.1,171.4z M250.9,179.9h0.6l13,14.4v1.9h-5.2l9.1,19.6c1.2,2.6,2,6.3,2.6,11.1
		c0,13.7-9.6,25.4-28.7,35.2c-19.8,13.4-37.2,21-52.2,22.8l-28.7,4.6l-1.9-0.7v-1.9l30.6-11.1c36.1-14.7,60.5-27.9,73.1-39.7
		l2.6-3.3v-0.6c-1.7-5.3-6.1-14.8-13-28.7l-5.2-13C248.3,183.4,249.4,179.9,250.9,179.9z M471.4,181.2h1.3v0.6
		c-0.1,6.1-3.5,13.3-10.4,21.6l-0.7,3.9c8.7,5.3,13,11.2,13,17.6c-1,8.6-3.2,14.2-6.5,17c-9.4,6.1-15.7,9.1-18.9,9.1
		c-4.4,0-7.5-3.2-9.1-9.7v-2c0-7.9,2.2-16.6,6.5-26.1c-11.8-9.5-17.7-16.4-17.7-20.9c0.5-5.2,1.2-7.8,2-7.8l17,8.5v1.9
		c-2.2,0-3.3,0.4-3.3,1.3c0,1.9,2.8,3.9,8.5,5.9h1.3l12.4-15.7L471.4,181.2z M341.5,189.1l8.5,9.1v1.9c0,2.6-1.7,5.2-5.2,7.8
		c-2.6,0-6.1-3-10.4-9.1C334.4,193.5,336.8,190.3,341.5,189.1z M98.2,189.7c5.6,3.2,8.4,6.2,8.4,9.1c0,1.7-1.9,4.1-5.8,7.2h-1.3
		l-6.5-4.6h-1.3c-0.8,0-2.7,2.4-5.9,7.2h-2.6l-9.7-6.5v-0.7c0-3.7,1.7-6.9,5.2-9.7h1.9l7.2,5.2h2.6
		C94.2,192.1,96.8,189.7,98.2,189.7z M314.1,202.1l0.7,0.6v0.7l-2.6,9.1v4.5c0.9,4.3,1.9,6.5,3.2,6.5h1.3c0.9,0,1.7-1.3,2.6-3.9h1.3
		c0,7.8-2.2,11.7-6.5,11.7c-3.9-2.6-5.8-6.5-5.8-11.7C310.1,208.4,312,202.6,314.1,202.1z M451.8,217.8c-4.8,7.4-7.2,11.7-7.2,13
		v3.2c1.3,2.6,3.3,3.9,5.9,3.9h0.6c5.2-0.6,10.9-3.8,17-9.7v-0.7C463,221,457.6,217.8,451.8,217.8z M550.3,221v1.3
		c0,1.3,2.4,2.2,7.2,2.6l7.8-1.3V221c-3.5-2.1-5.9-3.2-7.2-3.2h-1.3C553.4,217.8,551.2,218.8,550.3,221z M651.4,248.4h0.6v1.3h0.7
		c-2.8,9.6-5.9,14.4-9.1,14.4l-4.6-1.9l-11,4.5l-6.5-2.6h-2c-3.8,0-11.8,4.8-24.1,14.4l-11.1,3.3l-0.6-0.7v-0.6l35.2-22.9l4.5-0.6
		l6.5,2.6h1.3c3.5,0,6.4-2.4,8.5-7.2h0.6l3.9,3.9h2.6c1.3,0,2.2-1.9,2.6-5.8L651.4,248.4z M125.6,254.3l1.3,1.9
		c0,4-4.8,7.3-14.4,9.8l-40.4,17.6l-4.6,2.6h-1.9v-1.9c0-4.6,12.8-11.5,38.4-20.9C112.9,258.9,120.1,255.9,125.6,254.3z
		 M142.6,256.9l0.6,0.6v0.7L140,270v3.9c0,2.3,0.9,3.8,2.6,4.5h1.3c0.9,0,1.3-0.6,1.3-1.9l0.6-0.7h0.7l1.3,1.3
		c-1.7,6.6-3.9,9.8-6.7,9.8s-4.5-3.5-5-10.4v-2C136.1,268.2,138.3,262.3,142.6,256.9z M283.5,260.8l1.3,2.6c0,3.5-3.7,6.3-11.1,8.4
		c-6.2,3.5-14.7,7.2-25.4,11.1h-0.7l-0.6-2c0-3,11.9-9.5,35.8-19.6L283.5,260.8z M345.4,263.4c2.6,0.9,3.9,2.6,3.9,5.2
		c0,7.8-4.1,15.4-12.4,22.8v-1.9l8.4-12.4v-3.2l-1.9-2h-0.7l-3.9,3.3l-0.6-2C340.3,266.7,342.7,263.4,345.4,263.4z"/>
</g>
</svg>
