<?xml version="1.0" encoding="utf-8"?>
<!-- Generator: Adobe Illustrator 25.2.3, SVG Export Plug-In . SVG Version: 6.00 Build 0)  -->
<svg version="1.1" id="Layer_1" xmlns="http://www.w3.org/2000/svg" xmlns:xlink="http://www.w3.org/1999/xlink" x="0px" y="0px"
	 viewBox="0 0 700 395" style="enable-background:new 0 0 700 395;" xml:space="preserve">
<style type="text/css">
	.st0{fill:#000222;}
	.st1{fill:#FFFFFF;}
</style>
<g id="Layer_1_1_">
	<rect y="-0.5" class="st0" width="700" height="395"/>
</g>
<g id="Layer_3">
	<g>
		<path class="st1" d="M273.5,368.6l1.1,4.2c0.2,0.9,0.5,1.8,0.6,2.6h0.1c0.2-0.8,0.5-1.7,0.7-2.6l1.3-4.2h1.3l1.3,4.1
			c0.3,1,0.5,1.9,0.7,2.7h0.1c0.1-0.8,0.4-1.7,0.6-2.7l1.2-4.1h1.5l-2.7,8.2H280l-1.3-3.9c-0.3-0.9-0.5-1.7-0.7-2.7l0,0
			c-0.2,1-0.5,1.8-0.7,2.7l-1.3,3.9h-1.4l-2.5-8.2H273.5z"/>
		<path class="st1" d="M286.3,368.6l1.1,4.2c0.2,0.9,0.5,1.8,0.6,2.6h0.1c0.2-0.8,0.5-1.7,0.7-2.6l1.3-4.2h1.3l1.3,4.1
			c0.3,1,0.5,1.9,0.7,2.7h0.1c0.1-0.8,0.4-1.7,0.6-2.7l1.2-4.1h1.5l-2.7,8.2h-1.4l-1.3-3.9c-0.3-0.9-0.5-1.7-0.7-2.7l0,0
			c-0.2,1-0.5,1.8-0.7,2.7l-1.3,3.9h-1.4l-2.5-8.2H286.3z"/>
		<path class="st1" d="M299,368.6l1.1,4.2c0.2,0.9,0.5,1.8,0.6,2.6h0.1c0.2-0.8,0.5-1.7,0.7-2.6l1.3-4.2h1.3l1.3,4.1
			c0.3,1,0.5,1.9,0.7,2.7h0.1c0.1-0.8,0.4-1.7,0.6-2.7l1.2-4.1h1.5l-2.7,8.2h-1.4l-1.3-3.9c-0.3-0.9-0.5-1.7-0.7-2.7l0,0
			c-0.2,1-0.5,1.8-0.7,2.7l-1.3,3.9H300l-2.5-8.2H299z"/>
		<path class="st1" d="M309.9,375.9c0-0.6,0.4-1.1,1-1.1s1,0.4,1,1.1c0,0.6-0.4,1.1-1,1.1S309.9,376.5,309.9,375.9z"/>
		<path class="st1" d="M313.5,375.3c0.4,0.3,1.2,0.6,2,0.6c1.1,0,1.6-0.5,1.6-1.2s-0.4-1.1-1.5-1.5c-1.5-0.5-2.2-1.3-2.2-2.3
			c0-1.3,1.1-2.4,2.8-2.4c0.8,0,1.6,0.2,2,0.5l-0.4,1.1c-0.3-0.2-0.9-0.5-1.7-0.5c-0.9,0-1.4,0.5-1.4,1.1c0,0.7,0.5,1,1.6,1.4
			c1.4,0.5,2.2,1.3,2.2,2.5c0,1.4-1.1,2.5-3.1,2.5c-0.9,0-1.7-0.2-2.3-0.6L313.5,375.3z"/>
		<path class="st1" d="M327.4,374.6c0,0.9,0,1.6,0.1,2.2h-1.3l-0.1-1.3l0,0c-0.4,0.7-1.3,1.5-2.7,1.5c-1.3,0-2.8-0.7-2.8-3.6v-4.8
			h1.5v4.6c0,1.6,0.5,2.6,1.8,2.6c1,0,1.7-0.7,2-1.4c0.1-0.2,0.1-0.5,0.1-0.8v-5h1.5v6H327.4z"/>
		<path class="st1" d="M329.8,371.1c0-1,0-1.8-0.1-2.6h1.3l0.1,1.6h0.1c0.4-1.1,1.3-1.8,2.3-1.8c0.2,0,0.3,0,0.4,0.1v1.4
			c-0.2,0-0.3-0.1-0.5-0.1c-1.1,0-1.8,0.8-2,1.9c0,0.2-0.1,0.4-0.1,0.7v4.4h-1.5L329.8,371.1L329.8,371.1z"/>
		<path class="st1" d="M339.9,376.8l-0.1-1h-0.1c-0.5,0.6-1.3,1.2-2.5,1.2c-1.7,0-2.5-1.2-2.5-2.4c0-2,1.8-3.1,4.9-3.1v-0.2
			c0-0.7-0.2-1.9-1.9-1.9c-0.8,0-1.6,0.2-2.1,0.6l-0.3-1c0.7-0.4,1.7-0.7,2.7-0.7c2.5,0,3.1,1.7,3.1,3.4v3.1c0,0.7,0,1.4,0.1,2
			H339.9z M339.7,372.6c-1.6,0-3.5,0.3-3.5,1.9c0,1,0.6,1.4,1.4,1.4c1.1,0,1.8-0.7,2-1.4c0.1-0.2,0.1-0.3,0.1-0.5V372.6z"/>
		<path class="st1" d="M343.5,364.7h1.5v5.1l0,0c0.2-0.4,0.6-0.8,1.1-1.1c0.4-0.3,1-0.4,1.5-0.4c1.1,0,2.9,0.7,2.9,3.5v4.9H349V372
			c0-1.3-0.5-2.4-1.9-2.4c-1,0-1.7,0.7-2,1.5c-0.1,0.2-0.1,0.4-0.1,0.7v5h-1.5V364.7z"/>
		<path class="st1" d="M358.6,375.5L358.6,375.5c-0.5,0.8-1.4,1.5-2.7,1.5c-1.9,0-3.5-1.7-3.5-4.2c0-3.1,2-4.4,3.7-4.4
			c1.3,0,2.1,0.6,2.5,1.4l0,0l0.1-1.2h1.4c0,0.7-0.1,1.4-0.1,2.3v9.3h-1.5v-4.7H358.6z M358.6,371.9c0-0.2,0-0.4-0.1-0.6
			c-0.2-0.9-1-1.7-2.1-1.7c-1.5,0-2.5,1.3-2.5,3.2c0,1.6,0.8,3.1,2.4,3.1c1,0,1.8-0.6,2.1-1.6c0.1-0.2,0.1-0.5,0.1-0.7v-1.7H358.6z"
			/>
		<path class="st1" d="M369.4,374.6c0,0.9,0,1.6,0.1,2.2h-1.3l-0.1-1.3l0,0c-0.4,0.7-1.3,1.5-2.7,1.5c-1.3,0-2.8-0.7-2.8-3.6v-4.8
			h1.5v4.6c0,1.6,0.5,2.6,1.8,2.6c1,0,1.7-0.7,2-1.4c0.1-0.2,0.1-0.5,0.1-0.8v-5h1.5v6H369.4z"/>
		<path class="st1" d="M371.9,371.1c0-1,0-1.8-0.1-2.6h1.3l0.1,1.6h0.1c0.4-1.1,1.3-1.8,2.3-1.8c0.2,0,0.3,0,0.4,0.1v1.4
			c-0.2,0-0.3-0.1-0.5-0.1c-1.1,0-1.8,0.8-2,1.9c0,0.2-0.1,0.4-0.1,0.7v4.4h-1.5L371.9,371.1L371.9,371.1z"/>
		<path class="st1" d="M381.9,376.8l-0.1-1h-0.1c-0.5,0.6-1.3,1.2-2.5,1.2c-1.7,0-2.5-1.2-2.5-2.4c0-2,1.8-3.1,4.9-3.1v-0.2
			c0-0.7-0.2-1.9-1.9-1.9c-0.8,0-1.6,0.2-2.1,0.6l-0.3-1c0.7-0.4,1.7-0.7,2.7-0.7c2.5,0,3.1,1.7,3.1,3.4v3.1c0,0.7,0,1.4,0.1,2
			H381.9z M381.7,372.6c-1.6,0-3.5,0.3-3.5,1.9c0,1,0.6,1.4,1.4,1.4c1.1,0,1.8-0.7,2-1.4c0.1-0.2,0.1-0.3,0.1-0.5V372.6z"/>
		<path class="st1" d="M385.6,370.8c0-0.9,0-1.5-0.1-2.2h1.3l0.1,1.4l0,0c0.4-0.8,1.4-1.5,2.7-1.5c1.1,0,2.9,0.7,2.9,3.5v4.9H391
			v-4.7c0-1.3-0.5-2.4-1.9-2.4c-1,0-1.8,0.7-2,1.5c-0.1,0.2-0.1,0.4-0.1,0.7v4.9h-1.5v-6.1H385.6z"/>
		<path class="st1" d="M394.6,375.9c0-0.6,0.4-1.1,1-1.1s1,0.4,1,1.1c0,0.6-0.4,1.1-1,1.1S394.6,376.5,394.6,375.9z"/>
		<path class="st1" d="M404.4,376.5c-0.4,0.2-1.3,0.5-2.4,0.5c-2.5,0-4.1-1.7-4.1-4.2s1.7-4.4,4.4-4.4c0.9,0,1.7,0.2,2.1,0.4
			l-0.3,1.2c-0.4-0.2-0.9-0.4-1.7-0.4c-1.9,0-2.9,1.4-2.9,3.1c0,1.9,1.2,3.1,2.9,3.1c0.8,0,1.4-0.2,1.8-0.4L404.4,376.5z"/>
		<path class="st1" d="M413.5,372.6c0,3-2.1,4.4-4.1,4.4c-2.2,0-3.9-1.6-3.9-4.2c0-2.8,1.8-4.4,4.1-4.4
			C411.9,368.4,413.5,370.1,413.5,372.6z M406.9,372.7c0,1.8,1,3.2,2.5,3.2c1.4,0,2.5-1.3,2.5-3.2c0-1.4-0.7-3.2-2.5-3.2
			S406.9,371.1,406.9,372.7z"/>
		<path class="st1" d="M415.4,370.8c0-0.9,0-1.5-0.1-2.2h1.3l0.1,1.3h0.1c0.5-0.8,1.2-1.5,2.6-1.5c1.1,0,2,0.7,2.3,1.6l0,0
			c0.3-0.5,0.6-0.8,0.9-1.1c0.5-0.4,1-0.6,1.8-0.6c1.1,0,2.7,0.7,2.7,3.6v4.8h-1.5V372c0-1.6-0.6-2.5-1.8-2.5
			c-0.9,0-1.5,0.6-1.8,1.4c-0.1,0.2-0.1,0.5-0.1,0.7v5.1h-1.5v-4.9c0-1.3-0.6-2.3-1.7-2.3c-0.9,0-1.6,0.7-1.9,1.5
			c-0.1,0.2-0.1,0.5-0.1,0.7v5h-1.5v-5.9H415.4z"/>
	</g>
	<path class="st1" d="M296.3,101.3h0.6v1.2h0.6c0,3.1-2.9,5.2-8.8,6.4l-38.4,13.6V122c0-4.2,8.1-8.5,24.2-13
		C284.6,104.7,291.9,102.1,296.3,101.3z M220.8,104.3h1.2c3.1,0,5.3,2.8,6.5,8.3c-0.3,2-0.9,3-1.8,3h-0.6l-4.7-3.5h-1.8l-1.7,1.7v13
		c0,16.3-6.5,28.1-19.5,35.4h-1.7V161c10.6-10.5,15.9-17,15.9-19.4v-1.2c-4-10.2-9.3-15.3-15.9-15.3c-2.7-2.2-4.3-4.2-4.7-5.9
		c0-3.9,1.6-5.9,4.7-5.9c4.1,1.7,9.8,6.8,17.1,15.3h0.6V128C214.4,114.5,216.5,106.6,220.8,104.3z M284.5,115.5
		c3.1,1,4.7,2.8,4.7,5.3c-0.8,1.8-1.6,2.8-2.4,3h-0.6l-3.5-2.4h-0.6l-5.9,2.4v1.2c1.6,1.9,3.4,2.9,5.3,2.9h10.6l1.2,1.2v1.8
		c0,1.6-6.5,3.5-19.5,5.9v-1.2l0.6-2.4L271,129v-1.2h-0.6C275.3,119.6,280,115.5,284.5,115.5z M324.6,116.1h0.6c-2,7.8-3,13.1-3,16
		v1.2c0,3,1,5,3,5.9h0.6c0.8,0,1.6-1.4,2.4-4.2h0.6c0.8,0,1.2,0.6,1.2,1.8c-1.9,6.2-3.7,9.5-5.3,10h-1.2c-3.5-2.5-5.3-6-5.3-10.6
		C319.9,126.6,322.1,119.9,324.6,116.1z M109.4,116.7c2.6,0,4.6,2.8,5.9,8.3c-0.8,1.8-1.6,2.8-2.4,2.9h-0.6l-4.1-3.5h-0.6l-1.7,1.8
		v1.2c0,17.3-1.2,26-3.5,26c-4.1-7.5-7.4-12.4-10.1-14.8h-0.6c-0.9,0.3-2.7,3.4-5.3,9.4c-7.4,5.9-12.2,8.9-14.2,8.9v-1.2
		C82,146.1,87,140,87,137.3l-5.3-6.4v-2.4c0-3,0.8-4.8,2.4-5.3c3.4,0,9.3,5.7,17.7,17.1l0.6-1.8
		C102.8,123.9,105.2,116.7,109.4,116.7z M348.9,116.7h0.6l5.9,15.9c2,3.8,3.6,8.8,4.7,14.8l-1.2,1.7c-1.9-0.6-2.9-1.6-2.9-2.9h-1.8
		v3.5l7.7,79c0,22.7-10.6,39.2-31.9,49.5l-33,7.6l-3-0.6V284c1.7-1.4,10.3-4.9,26-10.6c10.6-4.4,20.6-12,30.1-23
		c0-14.9-9.3-30.8-27.8-47.7c-18.9-18.8-32.3-33.6-40.1-44.3c-3.5-3-5.3-5.9-5.3-8.8v-2.4c0-3,0.8-4.8,2.4-5.3
		c3,2.6,7.8,5.5,14.2,8.9l8.3,6.4l-1.2,1.8l-5.3-0.6v1.8c0.6,2,14.2,16.4,40.7,43c9.6,11.3,15.3,21.9,17.1,31.9v8.9h0.6
		c0.6,0,1.2-1,1.7-3l-8.8-93.8c-0.4-9.6-1.2-16.5-2.4-20.7C346.2,120.8,347.8,117.5,348.9,116.7z M135.3,117.2h1.2l7.6,18.9l3,9.4
		v0.6l-1.2,1.2h-0.6l-3.5-3.5l-0.6,0.6h-0.6c8.3,52.7,12.4,82.8,12.4,90.3c0,14.9-8.3,26.9-24.8,35.9c-13.9,9.1-25.5,13.6-34.8,13.6
		h-4.1c-6.9,0-13.8-4.5-20.7-13.6c-2.4-6.2-3.5-11.9-3.5-16.9s2-14,5.9-26.7c-3.9-5.7-5.9-11.4-5.9-17.1c2.4-19.5,5.5-31.6,9.4-36.6
		h0.6v1.2h0.6L69.8,201c0,9.5,2,15.4,5.9,17.7h0.6c2.8,0,4.8-2.9,5.9-8.8h0.6l1.8,1.7c-2,11-5,16.5-8.9,16.5
		c-1.3,0-3.3,5.9-5.9,17.7v5.3c0,9,5.5,15.5,16.5,19.4c1.8,0.8,5.5,1.2,11.2,1.2c10,0,23.4-6.3,40.1-18.9c5.9-5.5,8.8-9.2,8.8-11.2
		v-3.5l-14.7-111.5C133.1,120.6,134.3,117.5,135.3,117.2z M380.7,117.2h0.6c1.9,0.9,6,11.5,12.4,31.9l-0.6,1.8h-1.2l-4.1-4.2h-1.2
		v0.6l7.6,89v4.7c-0.9,18.5-3.4,28.9-7.6,31.3l-0.6-0.6l1.8-19.4c-6.3-79.7-9.8-121.4-10.6-125.1L380.7,117.2z M164.8,117.9h0.6
		c3.1,9.1,5.9,28.7,8.3,59c1.8,44.3,4.9,67.2,9.4,69c6.6,7.5,15,11.2,25.4,11.2h4.7c12.1,0,25.7-4.1,40.7-12.4l0.6-2.4
		c-1.6-3.2-2.4-6.5-2.4-10v-3.5c0-11.1,3.7-18,11.2-20.7h0.6c5.1,0,9.3,6.1,12.3,18.3c0,8.4-2.5,15.5-7.6,21.2
		c2.3,3.9,6.6,5.9,12.9,5.9s11.9-2.4,16.6-7.1v-1.2c0-1.7-2.4-6.1-7.1-13l-0.6-3c0.5-5.1,1.3-7.6,2.4-7.6h0.6
		c7.1,6.5,10.6,14.1,10.6,22.8s-3.5,14.5-10.6,17.3c-4.8,2.4-9.9,3.5-15.2,3.5c-5.3,0-11.5-3.7-18.4-11.2
		c-21.5,10.2-38.4,15.3-50.7,15.3h-0.6c-19.3,0-31.4-8.8-36-26.5c-1.8-11.6-3.8-36.6-5.9-75c-1.9-19.7-4.1-33.2-6.4-40.7
		C160.1,124.1,161.7,120.9,164.8,117.9z M431.4,126.7c2.7,0.9,4.1,3.5,4.1,7.7l-0.6,8.8l5.9,7.1v3L439,155c-3.9-2.7-6.5-4.1-7.6-4.1
		c-7.8,7.7-13.7,12.8-17.7,15.3c-8.5,4.3-13.5,6.4-14.8,6.4h-0.6v-1.2l23-16.5l5.9-7.1c-3.1-4.5-4.7-7.2-4.7-8.3
		C425.1,131,428.1,126.7,431.4,126.7z M564.1,126.7c3.6,0.9,5.3,3.5,5.3,7.7c-0.5,1.9-1.1,2.9-1.8,2.9h-1.2l-3.5-2.9h-1.2
		c-2.7,0-4.1,1.6-4.1,4.7v13.5c-1,9.1-2.2,13.6-3.5,13.6c-5.8-11.8-11.3-17.7-16.5-17.7c-3.9-2.5-5.9-4.8-5.9-7.1
		c0.9-3.6,2.1-5.3,3.5-5.3c3.3,0,9.1,5.5,17.7,16.5h0.6l0.6-0.6v-8.3C555.8,132.4,559.1,126.7,564.1,126.7z M608.4,127.9
		c2.9,0,4.6,3.7,5.3,11.2v4.7l4.2,8.3v2.4c0,0.8-0.6,1.2-1.8,1.2c-2.4-1.6-4.1-2.4-5.3-2.4c-18.7,17-34.4,26.8-47.2,29.5v-0.6
		l33.6-22.4l8.9-8.3v-1.2l-5.9-6.4v-3.5C601.5,132,604.3,127.9,608.4,127.9z M510.5,129.7h2.4v1.2c0,3.8-5.7,8.3-17.1,13.5
		l-37.1,22.4h-1.2l-1.2-1.2c0-3.8,6.5-8.9,19.4-15.3L510.5,129.7z M426.7,137.9l3.5,2.9h1.7v-4.7l-1.7-1.7H429
		C427.5,135.2,426.7,136.3,426.7,137.9z M603.7,137.3v1.8c1,1.7,2.8,3,5.3,4.1h1.8c-0.3-5.5-1.5-8.3-3.5-8.3
		C604.9,135.9,603.7,136.7,603.7,137.3z M266.3,144.4l1.2,1.2c0,4.8-5.1,9-15.3,12.4c-33.8,16.6-55.1,28.4-63.7,35.4v1.7
		c4,3.6,6.3,6.2,7.1,7.7c-1.2,5.1-2.1,7.6-3,7.6c-2.1-0.7-5.3-3.4-9.4-8.3c0-12.1,6.3-20.8,18.9-26
		C241.7,155,263.2,144.4,266.3,144.4z M104,157.3l0.6,0.6l-1.8,7.1v4.7c0.7,4.7,1.7,7.1,3,7.1h1.2c0.9,0,1.5-1,1.7-3h1.2
		c0,5.3-1.4,8.7-4.1,10.1c-3.1,0-5.3-3.4-6.5-10.1C99.3,168.8,100.9,163.3,104,157.3z M518.7,165.6h1.2l-2.4,10.1v5.3
		c0.9,4.4,2.6,6.5,5.3,6.5c1.6-1.8,2.4-3.6,2.4-5.3h0.6l1.2,1.2c-1.6,7.5-3.4,11.2-5.3,11.2H520c-3.9-3.1-5.9-6.4-5.9-10.1v-2.9
		C514,179.3,515.6,174,518.7,165.6z M440.9,171c4,2.1,7.1,5.1,9.4,8.8c0,2-1.8,4.7-5.3,8.3h-0.6l-9.4-5.3h-0.6
		c-0.8,2.9-2.4,5.2-4.7,7.1c-7.1-2.5-10.6-5.4-10.6-8.9c1.6-4.1,3.4-6.6,5.3-7.6l9.4,4.7h0.6C437,173.3,439.2,171,440.9,171z
		 M610.8,171l0.6,0.6v0.6l-2.9,7.6v7.1c1,2.4,2.4,3.5,4.1,3.5l3-3.5h0.6v1.8c0,3.4-1.8,6.3-5.3,8.8h-1.2c-3.1-2.3-4.7-5.8-4.7-10.7
		S606.8,176.6,610.8,171z M475.6,183.3h0.6l13.5,14.2v1.2l-2.9,0.6H485v1.7c6.7,11.2,10.1,19,10.1,23.6c0,11.4-3.7,19.5-11.2,24.2
		c-4.7,3.5-7.1,8.2-7.1,14.2c0,9.6,5.1,15.9,15.3,18.9h5.9c14.2,0,30.9-11,50.2-33l1.2-1.8c0-2-0.6-3.2-1.8-3.5l-13,2.4h-4.1
		c-8.7,0-13-4.1-13-12.3c0-8.5,3.7-14.6,11.2-18.3l3.5-1.2c4.8,0,10.1,3.5,16,10.6c0.6,1.8,1.8,3.2,3.5,4.2c1.7,0,8.6-4.3,20.6-13
		h1.8l1.2,1.2v6.4c0,4.7,3.9,8.1,11.8,10.1h1.2c9.7,0,17-6.3,21.8-18.9l2.4-1.8h1.2v1.2h0.6l-2.4,6.5v1.2c0,4.1,4.3,6.5,13,7.1h1.2
		l2.9-0.6v-0.6l-2.9-8.3c1-5.9,2-8.9,2.9-8.9h0.6c3.5,4.4,5.3,8.7,5.3,13v1.8c-1,11-5.2,16.5-12.3,16.5c-9.1-2.3-13.6-4.8-13.6-7.7
		l-2.9-1.2c-5.5,8.3-11.4,12.4-17.7,12.4h-1.2c-7.5,0-12.8-3.7-16-11.2l-1.2-4.1h-1.7l-13,10.6c0,11.8-6.5,23-19.5,33.6
		c-15,13-26.6,19.5-34.8,19.5h-2.4c-12.1,0-20.2-4.9-24.2-14.8l-1.7-10l0.6-9.4h-0.6c-1.1,0-9.8,5.1-26,15.3
		c-10.1,5.5-21.5,9.6-34.2,12.3c-3.9,0-11.2,1.4-21.9,4.2l-1.7-0.6v-0.6c1.5-1.7,12.5-6.4,33-14.2c24.2-12.2,45.3-25.5,63.1-40.1
		c2.8-2.7,4.2-4.9,4.2-6.5v-1.7c-10.2-20.3-15.3-32.3-15.3-36L475.6,183.3z M249.8,186.8h1.2c4.4,2.7,7.2,5.5,8.3,8.3
		c-2.4,4.9-4.2,7.5-5.3,7.7c-2.1,0-5.1-2.4-8.8-7.1v-0.6C245.4,192.3,246.9,189.5,249.8,186.8z M285.7,191.6h0.6
		c2.4,0,5.5,2.4,9.4,7.1v0.6c-2.3,6.3-4.3,9.4-5.9,9.4c-1,0-4-2.8-8.9-8.3v-1.2C281,197.2,282.6,194.6,285.7,191.6z M452,192.2h0.6
		v1.2c0,5.1-3.4,12.2-10.1,21.2v2.4c8.3,6.6,12.4,12.1,12.4,16.5c-1.5,9.8-3.5,14.7-5.9,14.7c-7.8,6.7-13.9,10.1-18.3,10.1
		c-5.9,0-8.8-4.3-8.8-13c0-5.5,2-12.8,5.9-21.9l-14.2-14.7c-1.2,0-1.8-2.2-1.8-6.5V201c0-2.9,0.6-4.5,1.8-4.7
		c9.9,3.8,15.2,6.4,15.9,7.7v1.2c-1.9,0.3-2.9,0.8-2.9,1.7v0.6c2.9,3.5,5.6,5.3,8.3,5.3h0.6C445.4,199.5,450.9,192.7,452,192.2z
		 M118.2,193.4l0.6,0.6v0.6c-2.8,10.7-4.2,17.4-4.2,20.1v4.1c0.6,8.3,2.8,12.4,6.5,12.4c1.6-2,2.8-4.6,3.5-7.7h1.7
		c0,7.8-2.1,13.5-6.4,17.1h-3c-4.7-3.4-7.1-8.5-7.1-15.3v-1.8C112.7,203.4,115.5,193.4,118.2,193.4z M221.4,196.3l0.6,0.6v0.6
		c-2.4,9.1-3.5,15.6-3.5,19.5v2.4c0,5.2,1.6,8.8,4.7,10.6c2.6,0,4.1-2,4.7-5.9l0.6-0.6h1.2v1.2h0.6c-2,10.2-4.6,15.3-7.6,15.3
		c-4.4,0-7.3-4.7-8.9-14.2C215.9,206.1,218.5,196.3,221.4,196.3z M256.8,227.6v0.6c0,4.2,2,8.2,5.9,11.8c4-2.1,6.8-4.7,8.3-7.6v-0.6
		c-2.1-6.7-4.7-10-7.7-10h-1.2C258.6,222.4,256.8,224.3,256.8,227.6z M324.6,224h0.6v0.6l-2.4,13c0.5,4.4,1.3,6.5,2.4,6.5h1.7l3-3
		h0.6c-1.7,7.1-3.6,10.6-5.9,10.6c-3.5-1.3-5.3-4.5-5.3-9.4C319.4,235,321.1,228.9,324.6,224z M433.8,227c-4.7,6.1-7.1,11-7.1,14.8
		c0,2.4,1.6,3.7,4.7,4.1h0.6c5.2,0,10.7-3.1,16.5-9.4C447.1,233.1,442.2,230,433.8,227z M525.2,231.7c1.1,1,3.3,1.8,6.5,2.4l7.6-1.2
		v-1.7l-4.7-3.5h-4.7C526.8,227.9,525.2,229.3,525.2,231.7z M619.6,255.9l1.2,1.2v1.7c-1.7,7.5-4.7,11.2-8.8,11.2l-4.2-1.2h-1.2
		L599,273l-7.7-2.9c-3.7,0-11.1,4.1-22.4,12.3l-10.6,4.2l-1.7-0.6v-0.6l31.9-20.7l5.9-1.2c2.6,1.6,5.1,2.4,7.6,2.4s5.1-2.4,7.7-7.1
		c2.1,3.1,3.9,4.7,5.4,4.7s2.6-2.4,3.4-7.1l0.6-0.6h0.5V255.9z M252.7,262.3h1.8l-1.8,10.1v2.4c0,4.3,1.6,6.4,4.7,6.4l2.4-1.7
		l1.2,1.2c-2,5.1-3.7,7.6-5.3,7.6c-4.7-1-7.1-4.6-7.1-10.6L252.7,262.3z M165.4,270.6l1.8,0.6v3.5c-2.7,2.9-16,8.8-40.1,17.7
		l-5.9,0.6v-0.6c0-3.3,5.5-6.4,16.5-9.4L165.4,270.6z"/>
</g>
</svg>
