<?xml version="1.0" encoding="utf-8"?>
<!-- Generator: Adobe Illustrator 25.2.3, SVG Export Plug-In . SVG Version: 6.00 Build 0)  -->
<svg version="1.1" xmlns="http://www.w3.org/2000/svg" xmlns:xlink="http://www.w3.org/1999/xlink" x="0px" y="0px"
	 viewBox="0 0 700 395" style="enable-background:new 0 0 700 395;" xml:space="preserve">
<style type="text/css">
	.st0{fill:#000222;}
	.st1{fill:#FFFFFF;}
</style>
<g id="Layer_1">
	<rect class="st0" width="700" height="395"/>
</g>
<g id="Layer_3">
	<g>
		<path class="st1" d="M273.5,368.6l1.1,4.2c0.2,0.9,0.5,1.8,0.6,2.6h0.1c0.2-0.8,0.5-1.7,0.7-2.6l1.3-4.2h1.3l1.3,4.1
			c0.3,1,0.5,1.9,0.7,2.7h0.1c0.1-0.8,0.4-1.7,0.6-2.7l1.2-4.1h1.5l-2.7,8.2H280l-1.3-3.9c-0.3-0.9-0.5-1.7-0.7-2.7h0
			c-0.2,1-0.5,1.8-0.7,2.7l-1.3,3.9h-1.4l-2.5-8.2H273.5z"/>
		<path class="st1" d="M286.3,368.6l1.1,4.2c0.2,0.9,0.5,1.8,0.6,2.6h0.1c0.2-0.8,0.5-1.7,0.7-2.6l1.3-4.2h1.3l1.3,4.1
			c0.3,1,0.5,1.9,0.7,2.7h0.1c0.1-0.8,0.4-1.7,0.6-2.7l1.2-4.1h1.5l-2.7,8.2h-1.4l-1.3-3.9c-0.3-0.9-0.5-1.7-0.7-2.7h0
			c-0.2,1-0.5,1.8-0.7,2.7l-1.3,3.9h-1.4l-2.5-8.2H286.3z"/>
		<path class="st1" d="M299,368.6l1.1,4.2c0.2,0.9,0.5,1.8,0.6,2.6h0.1c0.2-0.8,0.5-1.7,0.7-2.6l1.3-4.2h1.3l1.3,4.1
			c0.3,1,0.5,1.9,0.7,2.7h0.1c0.1-0.8,0.4-1.7,0.6-2.7l1.2-4.1h1.5l-2.7,8.2h-1.4l-1.3-3.9c-0.3-0.9-0.5-1.7-0.7-2.7h0
			c-0.2,1-0.5,1.8-0.7,2.7l-1.3,3.9h-1.4l-2.5-8.2H299z"/>
		<path class="st1" d="M309.9,375.9c0-0.6,0.4-1.1,1-1.1c0.6,0,1,0.4,1,1.1c0,0.6-0.4,1.1-1,1.1C310.3,377,309.9,376.5,309.9,375.9z
			"/>
		<path class="st1" d="M313.5,375.3c0.4,0.3,1.2,0.6,2,0.6c1.1,0,1.6-0.5,1.6-1.2c0-0.7-0.4-1.1-1.5-1.5c-1.5-0.5-2.2-1.3-2.2-2.3
			c0-1.3,1.1-2.4,2.8-2.4c0.8,0,1.6,0.2,2,0.5l-0.4,1.1c-0.3-0.2-0.9-0.5-1.7-0.5c-0.9,0-1.4,0.5-1.4,1.1c0,0.7,0.5,1,1.6,1.4
			c1.4,0.5,2.2,1.3,2.2,2.5c0,1.4-1.1,2.5-3.1,2.5c-0.9,0-1.7-0.2-2.3-0.6L313.5,375.3z"/>
		<path class="st1" d="M327.4,374.6c0,0.9,0,1.6,0.1,2.2h-1.3l-0.1-1.3h0c-0.4,0.7-1.3,1.5-2.7,1.5c-1.3,0-2.8-0.7-2.8-3.6v-4.8h1.5
			v4.6c0,1.6,0.5,2.6,1.8,2.6c1,0,1.7-0.7,2-1.4c0.1-0.2,0.1-0.5,0.1-0.8v-5h1.5V374.6z"/>
		<path class="st1" d="M329.8,371.1c0-1,0-1.8-0.1-2.6h1.3l0.1,1.6h0.1c0.4-1.1,1.3-1.8,2.3-1.8c0.2,0,0.3,0,0.4,0.1v1.4
			c-0.2,0-0.3-0.1-0.5-0.1c-1.1,0-1.8,0.8-2,1.9c0,0.2-0.1,0.4-0.1,0.7v4.4h-1.5V371.1z"/>
		<path class="st1" d="M339.9,376.8l-0.1-1h-0.1c-0.5,0.6-1.3,1.2-2.5,1.2c-1.7,0-2.5-1.2-2.5-2.4c0-2,1.8-3.1,4.9-3.1v-0.2
			c0-0.7-0.2-1.9-1.9-1.9c-0.8,0-1.6,0.2-2.1,0.6l-0.3-1c0.7-0.4,1.7-0.7,2.7-0.7c2.5,0,3.1,1.7,3.1,3.4v3.1c0,0.7,0,1.4,0.1,2
			H339.9z M339.7,372.6c-1.6,0-3.5,0.3-3.5,1.9c0,1,0.6,1.4,1.4,1.4c1.1,0,1.8-0.7,2-1.4c0.1-0.2,0.1-0.3,0.1-0.5V372.6z"/>
		<path class="st1" d="M343.5,364.7h1.5v5.1h0c0.2-0.4,0.6-0.8,1.1-1.1c0.4-0.3,1-0.4,1.5-0.4c1.1,0,2.9,0.7,2.9,3.5v4.9H349v-4.7
			c0-1.3-0.5-2.4-1.9-2.4c-1,0-1.7,0.7-2,1.5c-0.1,0.2-0.1,0.4-0.1,0.7v5h-1.5V364.7z"/>
		<path class="st1" d="M358.6,375.5L358.6,375.5c-0.5,0.8-1.4,1.5-2.7,1.5c-1.9,0-3.5-1.7-3.5-4.2c0-3.1,2-4.4,3.7-4.4
			c1.3,0,2.1,0.6,2.5,1.4h0l0.1-1.2h1.4c0,0.7-0.1,1.4-0.1,2.3v9.3h-1.5V375.5z M358.6,371.9c0-0.2,0-0.4-0.1-0.6
			c-0.2-0.9-1-1.7-2.1-1.7c-1.5,0-2.5,1.3-2.5,3.2c0,1.6,0.8,3.1,2.4,3.1c1,0,1.8-0.6,2.1-1.6c0.1-0.2,0.1-0.5,0.1-0.7V371.9z"/>
		<path class="st1" d="M369.4,374.6c0,0.9,0,1.6,0.1,2.2h-1.3l-0.1-1.3h0c-0.4,0.7-1.3,1.5-2.7,1.5c-1.3,0-2.8-0.7-2.8-3.6v-4.8h1.5
			v4.6c0,1.6,0.5,2.6,1.8,2.6c1,0,1.7-0.7,2-1.4c0.1-0.2,0.1-0.5,0.1-0.8v-5h1.5V374.6z"/>
		<path class="st1" d="M371.9,371.1c0-1,0-1.8-0.1-2.6h1.3l0.1,1.6h0.1c0.4-1.1,1.3-1.8,2.3-1.8c0.2,0,0.3,0,0.4,0.1v1.4
			c-0.2,0-0.3-0.1-0.5-0.1c-1.1,0-1.8,0.8-2,1.9c0,0.2-0.1,0.4-0.1,0.7v4.4h-1.5V371.1z"/>
		<path class="st1" d="M381.9,376.8l-0.1-1h-0.1c-0.5,0.6-1.3,1.2-2.5,1.2c-1.7,0-2.5-1.2-2.5-2.4c0-2,1.8-3.1,4.9-3.1v-0.2
			c0-0.7-0.2-1.9-1.9-1.9c-0.8,0-1.6,0.2-2.1,0.6l-0.3-1c0.7-0.4,1.7-0.7,2.7-0.7c2.5,0,3.1,1.7,3.1,3.4v3.1c0,0.7,0,1.4,0.1,2
			H381.9z M381.7,372.6c-1.6,0-3.5,0.3-3.5,1.9c0,1,0.6,1.4,1.4,1.4c1.1,0,1.8-0.7,2-1.4c0.1-0.2,0.1-0.3,0.1-0.5V372.6z"/>
		<path class="st1" d="M385.6,370.8c0-0.9,0-1.5-0.1-2.2h1.3l0.1,1.4h0c0.4-0.8,1.4-1.5,2.7-1.5c1.1,0,2.9,0.7,2.9,3.5v4.9h-1.5
			v-4.7c0-1.3-0.5-2.4-1.9-2.4c-1,0-1.8,0.7-2,1.5c-0.1,0.2-0.1,0.4-0.1,0.7v4.9h-1.5V370.8z"/>
		<path class="st1" d="M394.6,375.9c0-0.6,0.4-1.1,1-1.1c0.6,0,1,0.4,1,1.1c0,0.6-0.4,1.1-1,1.1C395,377,394.6,376.5,394.6,375.9z"
			/>
		<path class="st1" d="M404.4,376.5c-0.4,0.2-1.3,0.5-2.4,0.5c-2.5,0-4.1-1.7-4.1-4.2c0-2.5,1.7-4.4,4.4-4.4c0.9,0,1.7,0.2,2.1,0.4
			l-0.3,1.2c-0.4-0.2-0.9-0.4-1.7-0.4c-1.9,0-2.9,1.4-2.9,3.1c0,1.9,1.2,3.1,2.9,3.1c0.8,0,1.4-0.2,1.8-0.4L404.4,376.5z"/>
		<path class="st1" d="M413.5,372.6c0,3-2.1,4.4-4.1,4.4c-2.2,0-3.9-1.6-3.9-4.2c0-2.8,1.8-4.4,4.1-4.4
			C411.9,368.4,413.5,370.1,413.5,372.6z M406.9,372.7c0,1.8,1,3.2,2.5,3.2c1.4,0,2.5-1.3,2.5-3.2c0-1.4-0.7-3.2-2.5-3.2
			S406.9,371.1,406.9,372.7z"/>
		<path class="st1" d="M415.4,370.8c0-0.9,0-1.5-0.1-2.2h1.3l0.1,1.3h0.1c0.5-0.8,1.2-1.5,2.6-1.5c1.1,0,2,0.7,2.3,1.6h0
			c0.3-0.5,0.6-0.8,0.9-1.1c0.5-0.4,1-0.6,1.8-0.6c1.1,0,2.7,0.7,2.7,3.6v4.8h-1.5v-4.7c0-1.6-0.6-2.5-1.8-2.5
			c-0.9,0-1.5,0.6-1.8,1.4c-0.1,0.2-0.1,0.5-0.1,0.7v5.1h-1.5v-4.9c0-1.3-0.6-2.3-1.7-2.3c-0.9,0-1.6,0.7-1.9,1.5
			c-0.1,0.2-0.1,0.5-0.1,0.7v5h-1.5V370.8z"/>
	</g>
</g>
<g id="Layer_4">
	<path class="st1" d="M521.4,107.6c2.3,0,4.3,2.6,5.9,7.8c-0.9,2.6-1.8,3.9-2.6,3.9l-5.2-3.9c-3,0-4.6,1.5-4.6,4.5v0.7
		c0,19.8-1.3,29.7-3.9,29.7h-1.3c0-4.1-3.9-9.9-11.6-17.5c-6.9-2.1-10.3-4.9-10.3-8.4v-0.7c0-3.2,1.1-5.1,3.3-5.8
		c5.7,2.5,10.7,6.8,14.8,12.9c2.1,3.4,3.6,5.2,4.6,5.2l0.6-0.7v-9.1C512.5,113.8,515.9,107.6,521.4,107.6z M567.3,108.2
		c4.3,0,6.5,5.2,6.5,15.5v3.9c3,2.8,4.5,5.6,4.5,8.5v0.6L577,138h-1.3c-1.6-1.3-3-1.9-4.5-1.9h-1.3c-19,18.1-35.4,28.7-49.2,31.6
		h-0.7v-0.6l34.3-23.3c7.3-5,11-8.9,11-11.6c-4.3-4.5-6.5-7.4-6.5-8.5v-1.9C560.8,112.8,563.7,108.2,567.3,108.2z M379.8,109.5h0.6
		c3.9,0.6,5.9,3.2,5.9,7.8l-1.3,10.3c3.3,2.6,5.4,5,6.5,7.2v3.2l-1.3,1.3h-1.3l-7.2-3.9c-14.4,14.3-24.1,21.4-29.1,21.4l-0.7-0.7
		v-1.3c2.7-2.9,10.3-8.9,22.7-18.1c1.7-1.8,2.6-3.5,2.6-5.2c-3-3.7-4.6-6.8-4.6-9.1C374.8,113.8,377.2,109.5,379.8,109.5z
		 M464.5,111.5h1.3l1.3,1.3c0,3.9-6.9,9.2-20.7,16.1l-36.2,23.3h-1.9v-2.6c0-3.3,7.3-8.9,22-16.8
		C432.4,130.7,443.8,123.6,464.5,111.5z M289.3,113.4l1.3,2c0,3.4-8.2,9.3-24.6,17.4l-37.5,22.7l-3.3,4.5v1.3l5.2,7.2l-0.6,2.6
		c-4,0-6.8-2.2-8.5-6.5c0-9.7,6.5-17.5,19.4-23.3C253.4,132.8,269.6,123.6,289.3,113.4z M337.7,114.7h1.3v2c0,3-4.5,6.1-13.5,9.1
		l-46.6,26.5l-0.7-0.6v-1.3c0-3.5,8.6-9.8,25.9-18.8C316,124.1,327.2,118.5,337.7,114.7z M234.9,116h0.6c0.9,0,1.3,0.7,1.3,2
		c0,4.6-5.6,8.9-16.8,12.9c-0.3,0.8-10,5.7-29.1,14.8l-54.3,31h-0.7c-0.9,0-1.3-0.6-1.3-1.9c0-5.7,7.1-11.7,21.4-18.1
		C190.1,137.5,216.4,123.9,234.9,116z M562.8,118.6c0,2.4,1.7,4.4,5.2,5.9h1.3c0.9,0,1.3-0.7,1.3-2c-1-3.9-2-5.8-3.2-5.8h-2.6
		L562.8,118.6z M377.2,119.2v1.9l3.2,2.6h0.7l1.3-1.3c0-3.2-0.7-4.9-2-5.2h-1.3L377.2,119.2z M140.5,118h1.9c1.7,0,3.4,2.4,5.2,7.1
		l-1.3,3.3h-1.9l-3.9-2.6h-1.3l-2.6,3.2l0.6,9.7v2.6c0,9-0.9,13.5-2.6,13.5c-5.8-11.2-11.6-16.8-17.4-16.8l-2.6-1.9l-0.7-0.7v-3.9
		c0-2.2,0.7-4.2,2-5.8c3.2,0.4,8.8,5.1,16.8,14.2h1.3v-3.3C134.9,124.2,137.1,118,140.5,118z M474.2,150.9h0.6v0.7
		c-2,4.8-3,9-3.1,12.8c-0.1,3.7,1.4,6.6,4.4,8.5h1.3c1,0,2.1-1.7,3.3-5.2h0.6c0.9,0,1.3,0.7,1.3,2c-1.8,7.3-3.6,11-5.2,11h-3.2
		c-3.9-2.7-5.9-6.9-5.9-12.7S470.3,156.5,474.2,150.9z M570.5,154.8l0.7,0.7c-2.2,4.7-3.3,7.9-3.3,9.7v3.9c0,3.4,1.1,5.5,3.3,6.5
		h0.6l3.9-3.9h0.7v2c0,3.6-2,6.6-5.9,9.1h-1.3c-3.4-2.2-5.2-5.9-5.2-11C566.5,160.4,568.7,154.8,570.5,154.8z M391.4,156.1
		c2.5,1.1,5.7,3.9,9.7,8.5v1.9c0,2.4-1.7,5.2-5.2,8.5h-1.3c-5-3.9-8.2-5.9-9.7-5.9c-2.5,4.8-4.2,7.4-5.2,7.8c-2.8,0-6.4-2.4-11-7.1
		v-2c1.5-5.6,3.7-8.4,6.5-8.4h0.7l6.5,4.5h1.9c0.7,0,2.2-2.2,4.6-6.5L391.4,156.1z M262.1,160.6h0.6c3.3,3,6.6,12.1,10,27.2
		c3.4,15.1,7,22.6,10.6,22.6l1.3,1.3h1.3v-1.3l-3.9-17.4v-1.3c0-9.5,3.9-17.5,11.6-24c8.2-4.3,15.8-6.5,22.7-6.5
		c9.6,0,18.4,3.4,26.5,10.3l-1.3,1.3c-4.5-1.7-9.9-2.6-16.1-2.6h-2c-12,0-23.4,3.9-34.2,11.6v5.2c0,7,3.9,14.8,11.6,23.3
		c5.1,3,9.6,4.6,13.5,4.6c9.6,0,23-6.7,40.1-20.1h0.7v2c0,9.8-13.4,20.1-40.1,31c-5.3,1.7-10.5,2.6-15.5,2.6
		c-11,0-20.3-5.4-27.9-16.2c-4,7.8-8.8,11.6-14.2,11.6c-3.8-0.5-7.9-2.9-12.2-7.1h-0.7c-4.9,6.9-9.7,10.3-14.2,10.3h-1.3
		c-3.1-0.1-6.6-2.7-10.3-7.8c-4.4,3.2-9.5,6.2-15.5,9.1c0,14.6-4.9,24.9-14.8,31c-21,15.9-38.9,23.9-53.7,23.9
		c-9.7,0-18.3-4.7-25.9-14.2c-3.4-5.8-5.2-12.5-5.2-20v-2c0-6,2.2-15.7,6.5-29.1v-0.7c-3.3-4.3-5.1-7.7-5.2-10.3v-8.4
		c0-7,3.2-16.7,9.7-29.1h0.6v0.7c-3.9,12.5-5.8,21.6-5.8,27.2v0.6c0,4.1,1.7,7.5,5.2,10.3h1.3c1.3,0,2.8-2.6,4.5-7.8h0.7l1.3,1.3
		v0.7c0,5.1-3.4,12.2-10.3,21.3l-2.6,12.3v9.7c0,5.6,3.2,11.8,9.7,18.8c5.2,3,11.9,4.5,20.1,4.5h3.2c14.9-1.3,33.1-10.8,54.3-28.5
		l1.3-3.9c0-6.2-2.8-14.8-8.4-25.9c0.5-5.6,1.4-8.4,2.6-8.4h0.6c4.5,7.8,8.2,11.6,11,11.6h3.2c3.9,0,9.9-4.5,18.1-13.6h0.7l1.3,1.3
		c-1.3,2.2-2,4.4-2,6.5c0,2.8,2.2,4.9,6.5,6.5c5.9,0,11-5.4,15.5-16.1h2v3.2c1.2,5.6,4.7,8.5,10.3,8.5h5.2c2.6-1.1,3.9-2.8,3.9-5.2
		c0-5-3-17.5-9.1-37.5C259.9,163.7,260.8,160.6,262.1,160.6z M187.1,164.5l-0.7,7.8v6.5c0,3.4,1.7,5.4,5.2,5.8h0.7
		c0-1.7,0.9-3,2.6-3.9l0.6,0.7v0.6c0,4-1.5,7.5-4.5,10.3h-2.6c-1.7,0-3.4-2.8-5.2-8.4v-0.7C183.7,171.9,185,165.7,187.1,164.5z
		 M428.3,169.7h1.3c9.1,8.9,13.6,14.1,13.6,15.5c-3.4,0.2-5.2,1.1-5.2,2.6c7.3,12.2,11,21,11,26.5c0,11.3-5.8,21.2-17.4,29.7
		l-2,11.6c3.3,12.1,9.4,18.1,18.1,18.1c18.6,0,38-12.5,58.2-37.5v-2.6c0-0.9-0.6-1.3-1.9-1.3l-18.1,2.6h-0.7
		c-8.6,0-12.9-4.3-12.9-12.9c2.1-13.8,7.5-20.7,16.2-20.7c5.4,0,12.1,5,20,14.9c2.4,0,9.5-4.5,21.4-13.6h1.9c1.3,0.5,2,1.8,2,3.9
		v6.5c2.2,5.2,7.2,7.8,14.8,7.8c9,0,16.1-6.7,21.4-20l2.6-2h1.3v1.3l-2.6,9.1c3.4,4.3,7.7,6.5,12.9,6.5h2.6c2.1,0,3.4-0.9,3.9-2.6
		l-3.9-7.8c1.3-6,2.6-9.1,3.9-9.1c2.4,0,4.3,5.6,5.8,16.8c-1.4,10.8-6.4,16.2-14.8,16.2c-5.1-1.1-10-4.1-14.9-9.1H566
		c-6.8,9-14,13.5-21.3,13.5c-7.4,0-12.8-4.3-16.2-12.9l-0.7-3.2h-1.3c-9.5,6.4-14.2,10.5-14.2,12.2c0,18.3-16.2,36.4-48.5,54.3
		c-5.3,2.2-10.3,3.3-14.9,3.3c-9.4,0-16.7-6-22-18.1l-1.3-7.8v-11.6l-33.6,20c-5.7,3.8-23.6,9-53.6,15.5l-1.3-1.3
		c1.9-2.5,13.1-7.6,33.6-15.5c25-12.6,48.1-27.7,69.2-45.3l3.3-4.5v-0.7c0-2.5-3.7-10.2-11-23.3l-5.8-16.1L428.3,169.7z
		 M403.1,179.3l1.3,1.3c-0.3,4.7-4,12.2-11,22.7v2.6c8.6,5.3,12.9,10.7,12.9,16.1c0,11.8-5.6,19.8-16.8,24c0,0.9-3,1.9-9.1,3.2
		c-4.3,0-7-3.4-8.4-10.3v-1.3c0-7.8,1.9-16.2,5.8-25.2v-0.7c-11.2-10.4-16.8-16.2-16.8-17.4V191c0-4.7,0.7-7.1,2-7.1h0.6
		c10.8,4.4,16.2,7,16.2,7.8v1.9l-3.3,0.7v1.3c0.5,1,2.8,2.8,7.2,5.2h1.9L403.1,179.3z M159.2,211.7c3.6,0,6,2.8,7.2,8.5l-0.7,1.9
		h-0.6c-1.5,0-3-0.6-4.6-1.9h-0.6l-1.3,1.3v11c-0.3,9.5-1.1,14.2-2.6,14.2c-7.1-10.7-12.7-16.1-16.8-16.1c-3-1.4-4.6-3.1-4.6-5.2
		l1.3-5.9h3.3c2.6,0.9,7.8,5.9,15.5,14.9h0.6l-0.6-11.6C155.8,215.4,157.3,211.7,159.2,211.7z M480.7,218.8v0.6
		c0,1.7,2.6,2.6,7.8,2.6h1.3l5.8-1.3v-1.3c-2-3-4.8-4.5-8.4-4.5h-0.7C484.1,215,482.2,216.3,480.7,218.8z M383.7,216.3
		c-4.8,6.8-7.2,12-7.2,15.5c1.1,2.6,2.8,3.9,5.2,3.9h2c4.2,0,9.4-3,15.5-9.1C399.2,222.3,394,218.8,383.7,216.3z M332.5,234.4
		c2.6,1,3.9,2.3,3.9,3.9c-0.2,3-1.5,4.5-3.9,4.5l-3.9-1.3l-0.6,0.7v0.6l2.6,2.6h1.3l7.8-2.6h0.6c0,2.9-5.2,7.8-15.5,14.9l-3.2,5.2
		v1.9c0,1.4,2.2,2.3,6.5,2.6c6.9,0,14-3,21.3-9.1h1.3v0.7c-7,10.7-15.4,16.1-25.2,16.1c-5.6-1.1-8.5-3-8.5-5.8
		c0-2.1,2.6-8.1,7.8-18.1c-1.7-1.8-2.6-3.6-2.6-5.2C322.2,241.9,325.6,238,332.5,234.4z M580.3,243.4h0.6l0.7,3.2
		c-2.2,8.6-5.5,12.9-9.7,12.9l-5.8-1.3c-0.5,1.5-3,2.8-7.8,3.9c-2.3,0-4.3-0.6-5.9-1.9h-4.5c-1.6,0-10.2,5.2-25.9,15.5l-7.2,1.9
		l-0.6-0.6v-0.7c21.6-15.5,33.5-23.3,35.5-23.3l2-0.6l5.8,2.6h3.3c2.5,0,5.3-2.2,8.4-6.5h1.3c0.1,2.1,0.8,3.2,2,3.2h3.2
		c1.3,0,2-1.7,2-5.2L580.3,243.4z M272.4,246.6c3.7,2,7.1,4.8,10.3,8.5v2.6c-1,2.1-3,4.3-5.9,6.5c-2.5,0-6.1-2.6-11-7.8
		C266,253,268.1,249.8,272.4,246.6z M250.4,251.2c0.9,0,1.3,0.6,1.3,1.9c0,7.4-4.1,11-12.3,11l-3.2,2.6h-1.3l-6.5-1.3
		c-2.1,0-9.7,4.9-22.7,14.8l-12.2,5.2h-0.7v-0.6c21.2-17.2,33.3-25.9,36.2-25.9l7.8,0.6c0.9,0,3-2.2,6.5-6.5h0.7l0.6,2.6h2.6
		l0.7-0.6c0.9,0,1.3-1.1,1.3-3.3l0.6-0.6H250.4z"/>
</g>
</svg>
