<?xml version="1.0" encoding="utf-8"?>
<!-- Generator: Adobe Illustrator 25.2.3, SVG Export Plug-In . SVG Version: 6.00 Build 0)  -->
<svg version="1.1" xmlns="http://www.w3.org/2000/svg" xmlns:xlink="http://www.w3.org/1999/xlink" x="0px" y="0px"
	 viewBox="0 0 700 395" style="enable-background:new 0 0 700 395;" xml:space="preserve">
<style type="text/css">
	.st0{fill:#000222;}
	.st1{fill:#FFFFFF;}
</style>
<g id="Layer_1">
	<rect class="st0" width="700" height="395"/>
</g>
<g id="Layer_3">
	<g>
		<path class="st1" d="M273.5,368.6l1.1,4.2c0.2,0.9,0.5,1.8,0.6,2.6h0.1c0.2-0.8,0.5-1.7,0.7-2.6l1.3-4.2h1.3l1.3,4.1
			c0.3,1,0.5,1.9,0.7,2.7h0.1c0.1-0.8,0.4-1.7,0.6-2.7l1.2-4.1h1.5l-2.7,8.2H280l-1.3-3.9c-0.3-0.9-0.5-1.7-0.7-2.7h0
			c-0.2,1-0.5,1.8-0.7,2.7l-1.3,3.9h-1.4l-2.5-8.2H273.5z"/>
		<path class="st1" d="M286.3,368.6l1.1,4.2c0.2,0.9,0.5,1.8,0.6,2.6h0.1c0.2-0.8,0.5-1.7,0.7-2.6l1.3-4.2h1.3l1.3,4.1
			c0.3,1,0.5,1.9,0.7,2.7h0.1c0.1-0.8,0.4-1.7,0.6-2.7l1.2-4.1h1.5l-2.7,8.2h-1.4l-1.3-3.9c-0.3-0.9-0.5-1.7-0.7-2.7h0
			c-0.2,1-0.5,1.8-0.7,2.7l-1.3,3.9h-1.4l-2.5-8.2H286.3z"/>
		<path class="st1" d="M299,368.6l1.1,4.2c0.2,0.9,0.5,1.8,0.6,2.6h0.1c0.2-0.8,0.5-1.7,0.7-2.6l1.3-4.2h1.3l1.3,4.1
			c0.3,1,0.5,1.9,0.7,2.7h0.1c0.1-0.8,0.4-1.7,0.6-2.7l1.2-4.1h1.5l-2.7,8.2h-1.4l-1.3-3.9c-0.3-0.9-0.5-1.7-0.7-2.7h0
			c-0.2,1-0.5,1.8-0.7,2.7l-1.3,3.9h-1.4l-2.5-8.2H299z"/>
		<path class="st1" d="M309.9,375.9c0-0.6,0.4-1.1,1-1.1c0.6,0,1,0.4,1,1.1c0,0.6-0.4,1.1-1,1.1C310.3,377,309.9,376.5,309.9,375.9z
			"/>
		<path class="st1" d="M313.5,375.3c0.4,0.3,1.2,0.6,2,0.6c1.1,0,1.6-0.5,1.6-1.2c0-0.7-0.4-1.1-1.5-1.5c-1.5-0.5-2.2-1.3-2.2-2.3
			c0-1.3,1.1-2.4,2.8-2.4c0.8,0,1.6,0.2,2,0.5l-0.4,1.1c-0.3-0.2-0.9-0.5-1.7-0.5c-0.9,0-1.4,0.5-1.4,1.1c0,0.7,0.5,1,1.6,1.4
			c1.4,0.5,2.2,1.3,2.2,2.5c0,1.4-1.1,2.5-3.1,2.5c-0.9,0-1.7-0.2-2.3-0.6L313.5,375.3z"/>
		<path class="st1" d="M327.4,374.6c0,0.9,0,1.6,0.1,2.2h-1.3l-0.1-1.3h0c-0.4,0.7-1.3,1.5-2.7,1.5c-1.3,0-2.8-0.7-2.8-3.6v-4.8h1.5
			v4.6c0,1.6,0.5,2.6,1.8,2.6c1,0,1.7-0.7,2-1.4c0.1-0.2,0.1-0.5,0.1-0.8v-5h1.5V374.6z"/>
		<path class="st1" d="M329.8,371.1c0-1,0-1.8-0.1-2.6h1.3l0.1,1.6h0.1c0.4-1.1,1.3-1.8,2.3-1.8c0.2,0,0.3,0,0.4,0.1v1.4
			c-0.2,0-0.3-0.1-0.5-0.1c-1.1,0-1.8,0.8-2,1.9c0,0.2-0.1,0.4-0.1,0.7v4.4h-1.5V371.1z"/>
		<path class="st1" d="M339.9,376.8l-0.1-1h-0.1c-0.5,0.6-1.3,1.2-2.5,1.2c-1.7,0-2.5-1.2-2.5-2.4c0-2,1.8-3.1,4.9-3.1v-0.2
			c0-0.7-0.2-1.9-1.9-1.9c-0.8,0-1.6,0.2-2.1,0.6l-0.3-1c0.7-0.4,1.7-0.7,2.7-0.7c2.5,0,3.1,1.7,3.1,3.4v3.1c0,0.7,0,1.4,0.1,2
			H339.9z M339.7,372.6c-1.6,0-3.5,0.3-3.5,1.9c0,1,0.6,1.4,1.4,1.4c1.1,0,1.8-0.7,2-1.4c0.1-0.2,0.1-0.3,0.1-0.5V372.6z"/>
		<path class="st1" d="M343.5,364.7h1.5v5.1h0c0.2-0.4,0.6-0.8,1.1-1.1c0.4-0.3,1-0.4,1.5-0.4c1.1,0,2.9,0.7,2.9,3.5v4.9H349v-4.7
			c0-1.3-0.5-2.4-1.9-2.4c-1,0-1.7,0.7-2,1.5c-0.1,0.2-0.1,0.4-0.1,0.7v5h-1.5V364.7z"/>
		<path class="st1" d="M358.6,375.5L358.6,375.5c-0.5,0.8-1.4,1.5-2.7,1.5c-1.9,0-3.5-1.7-3.5-4.2c0-3.1,2-4.4,3.7-4.4
			c1.3,0,2.1,0.6,2.5,1.4h0l0.1-1.2h1.4c0,0.7-0.1,1.4-0.1,2.3v9.3h-1.5V375.5z M358.6,371.9c0-0.2,0-0.4-0.1-0.6
			c-0.2-0.9-1-1.7-2.1-1.7c-1.5,0-2.5,1.3-2.5,3.2c0,1.6,0.8,3.1,2.4,3.1c1,0,1.8-0.6,2.1-1.6c0.1-0.2,0.1-0.5,0.1-0.7V371.9z"/>
		<path class="st1" d="M369.4,374.6c0,0.9,0,1.6,0.1,2.2h-1.3l-0.1-1.3h0c-0.4,0.7-1.3,1.5-2.7,1.5c-1.3,0-2.8-0.7-2.8-3.6v-4.8h1.5
			v4.6c0,1.6,0.5,2.6,1.8,2.6c1,0,1.7-0.7,2-1.4c0.1-0.2,0.1-0.5,0.1-0.8v-5h1.5V374.6z"/>
		<path class="st1" d="M371.9,371.1c0-1,0-1.8-0.1-2.6h1.3l0.1,1.6h0.1c0.4-1.1,1.3-1.8,2.3-1.8c0.2,0,0.3,0,0.4,0.1v1.4
			c-0.2,0-0.3-0.1-0.5-0.1c-1.1,0-1.8,0.8-2,1.9c0,0.2-0.1,0.4-0.1,0.7v4.4h-1.5V371.1z"/>
		<path class="st1" d="M381.9,376.8l-0.1-1h-0.1c-0.5,0.6-1.3,1.2-2.5,1.2c-1.7,0-2.5-1.2-2.5-2.4c0-2,1.8-3.1,4.9-3.1v-0.2
			c0-0.7-0.2-1.9-1.9-1.9c-0.8,0-1.6,0.2-2.1,0.6l-0.3-1c0.7-0.4,1.7-0.7,2.7-0.7c2.5,0,3.1,1.7,3.1,3.4v3.1c0,0.7,0,1.4,0.1,2
			H381.9z M381.7,372.6c-1.6,0-3.5,0.3-3.5,1.9c0,1,0.6,1.4,1.4,1.4c1.1,0,1.8-0.7,2-1.4c0.1-0.2,0.1-0.3,0.1-0.5V372.6z"/>
		<path class="st1" d="M385.6,370.8c0-0.9,0-1.5-0.1-2.2h1.3l0.1,1.4h0c0.4-0.8,1.4-1.5,2.7-1.5c1.1,0,2.9,0.7,2.9,3.5v4.9h-1.5
			v-4.7c0-1.3-0.5-2.4-1.9-2.4c-1,0-1.8,0.7-2,1.5c-0.1,0.2-0.1,0.4-0.1,0.7v4.9h-1.5V370.8z"/>
		<path class="st1" d="M394.6,375.9c0-0.6,0.4-1.1,1-1.1c0.6,0,1,0.4,1,1.1c0,0.6-0.4,1.1-1,1.1C395,377,394.6,376.5,394.6,375.9z"
			/>
		<path class="st1" d="M404.4,376.5c-0.4,0.2-1.3,0.5-2.4,0.5c-2.5,0-4.1-1.7-4.1-4.2c0-2.5,1.7-4.4,4.4-4.4c0.9,0,1.7,0.2,2.1,0.4
			l-0.3,1.2c-0.4-0.2-0.9-0.4-1.7-0.4c-1.9,0-2.9,1.4-2.9,3.1c0,1.9,1.2,3.1,2.9,3.1c0.8,0,1.4-0.2,1.8-0.4L404.4,376.5z"/>
		<path class="st1" d="M413.5,372.6c0,3-2.1,4.4-4.1,4.4c-2.2,0-3.9-1.6-3.9-4.2c0-2.8,1.8-4.4,4.1-4.4
			C411.9,368.4,413.5,370.1,413.5,372.6z M406.9,372.7c0,1.8,1,3.2,2.5,3.2c1.4,0,2.5-1.3,2.5-3.2c0-1.4-0.7-3.2-2.5-3.2
			S406.9,371.1,406.9,372.7z"/>
		<path class="st1" d="M415.4,370.8c0-0.9,0-1.5-0.1-2.2h1.3l0.1,1.3h0.1c0.5-0.8,1.2-1.5,2.6-1.5c1.1,0,2,0.7,2.3,1.6h0
			c0.3-0.5,0.6-0.8,0.9-1.1c0.5-0.4,1-0.6,1.8-0.6c1.1,0,2.7,0.7,2.7,3.6v4.8h-1.5v-4.7c0-1.6-0.6-2.5-1.8-2.5
			c-0.9,0-1.5,0.6-1.8,1.4c-0.1,0.2-0.1,0.5-0.1,0.7v5.1h-1.5v-4.9c0-1.3-0.6-2.3-1.7-2.3c-0.9,0-1.6,0.7-1.9,1.5
			c-0.1,0.2-0.1,0.5-0.1,0.7v5h-1.5V370.8z"/>
	</g>
</g>
<g id="Layer_4">
	<path class="st1" d="M174.7,226c13.6-2.4,21.6-5.5,24.1-9.3V215c-4-5.3-6.1-8.9-6.1-11v-2.2c0-2.7,0.6-4.1,1.7-4.4h1.1
		c5.5,5.3,8.2,10.5,8.2,15.6c0,5.1-2.2,13.1-6.6,23.8l-1.1,10.4c0,10.6,3.3,17.1,9.9,19.7l6.6,1.6c12.5,0,26.2-7.3,41.1-21.9l4.9-6
		v-1.1c0-0.9-0.7-1.5-2.2-1.7l-11,1.1h-2.7c-7-1.5-10.4-4.1-10.4-7.7c-0.6,0-1-1.8-1.1-5.5c1.9-10.2,6.3-15.3,13.1-15.3
		c4.6,1.1,8.8,4,12.6,8.8c1.4,2.9,2.9,4.7,4.4,5.5c7.6-1.9,11.5-4.4,11.5-7.7c-1-5.1-10.6-16.1-29-32.9
		c-12.5-9.4-19.2-14.9-20.3-16.4c-4-2.4-6-4.7-6-7.1c0-10.2,4-17.2,12.1-20.8c11.5-6.2,31.6-14.3,60.3-24.1
		c17.7-5.5,30-8.3,36.8-8.3s10.3,2.4,10.3,7.2v2.7c0,6.3-7.7,17.8-23,34.5h-1.1v-1.7c0.6-3,6.3-10.9,16.9-23.5l1.1-3.9
		c-1-2.9-2.8-4.4-5.5-4.4h-2.2c-15.8,0.9-41.1,8.5-76.1,23c-0.2,0.6-7.5,4.3-21.9,11l-2.2,2.2v0.6c1.9,2.1,8.6,6.3,20.2,12.6
		l32.9,24.7c16.4,15.2,28.1,27.8,35.1,37.8c3.1,2.8,6.9,5,11.5,6.6h2.2c11.7,0,20.1-5.8,25.2-17.5l2.2-0.5l1.1,1.1l-0.6,1.6
		c0,6.3,2.9,10.9,8.8,13.7h6.1c7.3-1.3,11-3.5,11-6.6L366.5,128c1.9-4.8,3.2-7.2,3.8-7.2c7.3,13.1,11,21,11,23.6v0.5l-1.1,1.7
		l-3.8-2.8h-0.6v0.6c4.4,35.5,7.1,61.4,8.3,77.8v2.7c0,11.2-4.2,18.3-12.6,21.4l-5.5,1.1c-8.1,0-14-4-17.5-12.1h-0.5
		c-6.2,8.8-13.5,13.1-21.9,13.1h-2.2c-8,0-18.9-10.1-32.9-30.2c-5.8-5.6-10.7-9.8-14.8-12.6h-0.5l2.2,12.1c0,8.2-3.7,13.7-11,16.4
		c-2.9,1.1-4.4,4.7-4.4,11c-3.9,11.1-15.8,21.8-35.6,32.3c-5.8,1.9-11.1,2.8-15.9,2.8c-9,0-15-6.4-18.1-19.2l-1.1-6.6l0.6-2.2v-0.5
		l-0.6-0.6l0.6-0.5v-2.8c0-2.8,0.9-8.5,2.7-16.9h-1.1c-7.1,4-16.4,6-27.9,6h-5l-6-1.1c-1,0.5-1.9,4.7-2.8,12.6
		c-3.4,8.7-14.7,18.2-34,28.5c-13.4,5.5-21.1,8.2-23,8.2l-14.8,0.6c-4.8-1.5-7.2-2.6-7.2-3.3v-0.6c9.6,0,27.2-6.7,52.6-20.2
		c15.7-9.2,23.6-16.1,23.6-20.8c-1.2-5.1-3.6-11.3-7.2-18.6l-0.5-3.9v-0.5c0.3-3.2,0.8-4.8,1.6-5c0.9,0,2.9,2.9,6.1,8.8
		c5,2.9,9.8,4.4,14.2,4.4H174.7z M398.2,119.2h0.5c3.7,4.8,7.1,12.9,10.4,24.1v3.3h-1.7l-2.7-2.2h-1.1l9.9,80.5l0.5,8.8
		c-1,12.4-2.4,18.6-4.4,18.6l-1.1-1.1v-3.3c0-8.5-4.4-48.5-13.1-119.9L398.2,119.2z M563.1,121.9c2.9,2.1,4.4,4.7,4.4,7.7
		c-0.7,1.7-1.5,2.6-2.2,2.8l-5.5-3.9c-1.8,0.7-2.7,2.2-2.7,4.4c-0.2,16.8-1.3,25.2-3.3,25.2h-1.1c-4.9-11-10-16.4-15.3-16.4
		c-2.6-1.8-3.9-3.8-3.9-6c0.7-2.9,1.4-4.4,2.2-4.4h2.8c4.5,2.9,9.3,7.6,14.2,14.2h0.5v-1.1C553.2,129.4,556.5,121.9,563.1,121.9z
		 M211.4,122.5h2.2c3.1,0,6,0.5,8.8,1.6v1.1c-3.2,8.4-7.7,12.6-13.7,12.6l-1.1-1.1c1.9-2.6,3.5-3.9,4.9-3.9v-2.2h-2.2
		c-2.7,0-5.3,0.6-7.7,1.7l-1.1-1.7C203.9,125.2,207.2,122.5,211.4,122.5z M602,123c3.7,0,5.5,5.5,5.5,16.4c1.4,0.9,2.7,2.6,3.8,5
		v1.1l-0.5,2.7H608c-1.3-1.1-2.6-1.6-3.8-1.6c-19.5,17.5-33.6,26.3-42.2,26.3v-0.6c1.8-1.9,10.7-7.8,26.9-17.5l11.5-10.4
		c-3.7-4-5.5-7.2-5.5-9.3V134C596.2,126.6,598.6,123,602,123z M444.8,123.6c1.9,2.1,2.8,3.9,2.8,5.5l-0.6,9.9
		c3.7,2.8,5.5,5.2,5.5,7.1l-0.5,2.8h-0.6l-8.2-3.3h-0.6c-3.5,6.6-12.1,13-25.7,19.1l-1.1,1.1l-1.7-0.5v-1.7
		c11.6-7.4,20.2-14.1,25.8-20.2v-1.1c-2.6-3.3-3.9-6.1-3.9-8.3C437.7,127,440.6,123.6,444.8,123.6z M516,124.7l0.6,0.5v1.1
		c0,3.5-6.2,8.3-18.6,14.2c-1.8,1.9-9.3,6.6-22.5,14.2c-4.8,3.3-7.9,5-9.3,5l-0.6-1.7c0-3,4.9-7,14.8-12.1
		C487.7,140.5,499.6,133.3,516,124.7z M159.9,127.4h1.1c4,2.6,6.1,5.1,6.1,7.7c0,1-0.6,1.9-1.7,2.8l-6.6-2.8h-0.5l-0.6,2.8l0.6,8.2
		c-0.5,7.9-1.5,12-2.8,12.1H155c-4.7-9.8-8.4-14.8-11-14.8c-5.2,12-12.5,20.1-21.9,24.1H121v-1.7c12.4-11,18.6-18.3,18.6-21.9
		l0.5-2.7c-2.5-1.4-3.8-3.7-3.8-7.2c0.4-1.4,1.3-2.6,2.7-3.8c3,0,8,4.7,14.8,14.2h0.5v-0.6l-0.5-1.6
		C155.6,132.3,157.6,127.4,159.9,127.4z M598.2,131.8v1.1c0.8,1.4,2.3,2.7,4.4,3.9c0.6,0,1.2-0.9,1.7-2.8c-1-2.4-2.1-3.8-3.3-4.4
		C599.2,130.3,598.3,131,598.2,131.8z M439.9,131.8v0.6l2.2,2.7h2.2V134c0-2.2-1.1-3.3-3.3-3.3L439.9,131.8z M278.8,145.5l0.5,0.5
		v0.6l-1.1,7.7v3.3c0.5,4,1.5,6,2.8,6c1.1,0,2-1.1,2.7-3.3h1.7l0.5,1.7c-1.5,4-3.3,6.8-5.5,8.2c-2.7,0-4.7-3.1-6-9.3
		C275.6,150.6,277.1,145.5,278.8,145.5z M360.4,145.5l1.7,1.6h0.5c0,3.2-6.4,6.7-19.1,10.4c-30.3,12.1-45.7,19.4-46,21.9v1.6l4.4,5
		v1.6l-2.2,2.2c-1.8,0-3.6-1.6-5.5-4.9l-0.6-3.9c0-7,11.7-14.5,35.1-22.4l23.6-9.3c0.3-0.7,2.5-1.4,6.6-2.2L360.4,145.5z
		 M188.4,153.2l1.1,1.1c-2.2,9.6-3.3,15.9-3.3,18.6c0.8,6.2,2.8,9.3,6.1,9.3c1.3-3.3,2.2-4.9,2.7-4.9l1.1,4.4v0.5
		c-1.2,5.8-3.2,8.8-6,8.8c-3.1,0-5.9-4.2-8.3-12.6l0.6-0.6v-2.2c0-7.5,1.8-14.9,5.5-22.4H188.4z M521.5,158.1h0.6l0.5,0.6h0.6
		c-1.5,2.7-2.2,6.5-2.2,11.5v0.6c0,3.1,1.3,5.3,3.8,6.6c1.9-1,2.8-2.5,2.8-4.4h1.6v1.6c0,5.6-2.2,8.8-6.6,9.3
		c-3.3-1.7-4.9-5.2-4.9-10.4v-0.5C517.7,169.6,518.9,164.7,521.5,158.1z M604.7,162.4v0.6l-2.7,9.3v1.1c0.8,4,1.9,6.1,3.3,6.1
		l3.3-2.8l0.5,0.6h0.6c-1.3,5.5-2.7,8.2-4.4,8.2h-2.2c-2.6-1.7-3.9-4.7-3.9-9.3C601.1,167,602.9,162.4,604.7,162.4z M451.3,163
		c3.5,0,6.6,2.9,9.3,8.8c0,1.8-1.7,4-5,6.6l-8.2-4.4h-1.1c-1.5,4-2.8,6-3.9,6h-1.1c-5.8-2.2-8.8-4.7-8.8-7.7c1.9-4.7,3.5-7.1,5-7.1
		c1.2,0,3.7,1.5,7.7,4.4h0.5c0.5,0,2-2,4.4-6.1l0.6-0.5H451.3z M352.2,168.5c1.1,0,2.2,3.1,3.3,9.3v0.6c0,4.7-1.7,7.1-5,7.1
		l-4.4-1.1h-0.5c-1.9,1.9-3.9,3.1-6.1,3.9c-3.7-1.2-5.5-4.1-5.5-8.8l0.6-3.3h-0.6c0.5-1.9,1-2.8,1.7-2.8h0.5c0,3.8,1.1,6.4,3.3,7.7
		h0.6c2,0,3.3-0.9,3.8-2.7l-0.5-4.4c0.2-2.9,0.7-4.4,1.6-4.4h1.1c0,6.2,1.8,9.3,5.5,9.3l-1.1-8.2L352.2,168.5z M151.7,172.9h1.1v0.5
		c-1.5,6.3-2.2,11.3-2.2,14.8v0.5c0,2.2,1.1,4,3.3,5.5h0.5c0.9,0,1.8-1.5,2.8-4.4h0.5l1.1,1.1v1.1c-1.4,5.8-3.2,8.8-5.5,8.8
		c-3.3,0-5.3-3.5-6-10.4C147.5,184.7,149,178.9,151.7,172.9z M484.2,174c8,7.3,12.1,11.7,12.1,13.1l-1.6,1.1l-0.6-0.6H493l-1.1,1.1
		v0.6c6.2,9.7,9.3,17.4,9.3,23c0,8.9-4.6,16.6-13.7,23c-1.8,3-2.7,5.7-2.7,8.2v1.7c1.4,11,6.8,16.4,16.4,16.4h4.4
		c8,0,19.7-6.9,35.1-20.8c5.8-6,8.8-10,8.8-12.1c-0.4-1.1-1.5-1.7-3.3-1.7c-1.4,1.1-6.2,2-14.2,2.8c-7.3-1-11-4.6-11-11v-3.3
		c2.2-9.9,6.8-14.8,13.7-14.8c4.9,0.3,10.5,4.5,17,12.6h0.5c2.3,0,8.5-4,18.6-12.1c1.9,0.7,2.8,2.1,2.8,4.4l-0.6,3.8
		c1.9,5.5,6.3,8.3,13.4,8.3s13-5.7,17.9-17l1.6-1.1h0.6c0.7,0,1.1,0.6,1.1,1.7l-2.2,6c3,4.4,6.4,6.6,10.4,6.6
		c3.7-0.3,5.5-0.9,5.5-1.6l-2.7-7.2c0.8-5.1,1.7-7.7,2.7-7.7h0.6c1.8,0.9,3.4,4.8,4.9,11.5c0,9.6-3.7,14.9-11,15.9
		c-5.9,0-10.3-2.4-13.1-7.1h-1.6c-5.6,7.3-11.6,11-18,11c-6.5,0-11.2-3.8-14.4-11.5c0-1.5-0.4-2.2-1.1-2.2H567
		c-8.4,5.1-12.6,9.3-12.6,12.6c0,6.8-2.4,12.4-7.1,16.9c-12.6,13.5-22.1,21.4-28.5,23.6c-0.8,0.9-4.8,2.6-12.1,4.9h-8.8
		c-11.3-3.6-17-11.4-17-23.5V243l-0.5-0.6v-0.5c-7.8,5.2-18,11.2-30.7,18c-3.7,2.6-17.8,6.2-42.2,11l-1.1-1.1c0-1.4,8.2-5.1,24.7-11
		c22.8-11.1,43.1-23.9,60.8-38.3c2.6-2.5,3.9-4.5,3.9-6v-2.2c-7-11.6-11.7-21.6-14.2-30.2C482.1,176.7,483,174,484.2,174z
		 M221.3,182.2h1.7v1.1l-1.7,10.4c0,3,1.1,5.6,3.3,7.7c1.9-0.6,2.8-1.9,2.8-3.9h0.5l1.1,1.1v2.2c0,3.1-1.6,5.5-4.9,7.2
		c-2.9,0-4.9-4-6.1-12.1L221.3,182.2z M460.7,182.7h1.1l1.1,1.1c-0.7,5.6-3.4,11.2-8.3,16.9l-1.1,1.7v1.1c7.3,5.7,11,10.6,11,14.8
		c0,9.6-3.5,15.6-10.4,18.1c-2.5,2.9-6.4,4.4-11.5,4.4c-4.3,0-6.6-3.5-7.1-10.4c0-6.2,1.8-13.2,5.5-20.8c-9.9-7.9-14.8-13-14.8-15.3
		v-4.9c0-2.2,0.7-3.3,2.2-3.3c9.2,3.8,13.7,6,13.7,6.6v1.6l-2.2,0.6v1.1c3,2.9,5.4,4.4,7.1,4.4C454.6,191.8,459.1,185.9,460.7,182.7
		z M352.7,195.3c5.8,3.3,8.8,6.2,8.8,8.8c0,1-1.8,3-5.5,6.1c-1.4,0-3.6-1.3-6.6-3.9h-3.3c-1.5,3.3-3,5-4.4,5
		c-2.4-1.2-5.1-3.6-8.2-7.2c1.3-5.1,2.8-7.7,4.3-7.7s4.5,1.5,8.8,4.4h0.5c0.6,0,1.7-1.5,3.3-4.4L352.7,195.3z M111.7,207.4l0.6,0.6
		h0.5l-2.7,17.5c0,5.4,1.8,9.4,5.5,12.1h0.5c0.8,0,1.8-1.8,2.8-5.5h0.5l1.7,2.2c0,7-2.2,11-6.6,12.1h-0.6c-4.7-2.5-7.1-7.4-7.1-14.6
		s1.5-15.4,4.4-24.3H111.7z M528,216.7l3.3,1.1h6.6l2.8-0.6v-0.5c-0.4-1-2.1-2.3-5-3.9h-3.3C529.5,213.1,528,214.4,528,216.7z
		 M445.9,213.4c-4,5.6-6,9.6-6,12.1v1.1l3.3,3.3h0.5c5.2,0,10.3-2.8,15.3-8.3C454.6,216.2,450.3,213.4,445.9,213.4z M238.3,224.4
		v2.2l5.5,1.1h3.3l2.7-0.6V226c-2.1-2.2-4.1-3.3-6-3.3h-1.1C239.9,222.7,238.5,223.3,238.3,224.4z M393.3,237.5h0.6l-1.1,13.1
		c0.6,2.9,1.4,4.4,2.2,4.4h1.1l3.3-3.9l0.5,0.6v0.5c0,5.3-2,8.4-6,9.3c-3.3-1.2-5-4.7-5-10.4C390.6,242.1,392.1,237.5,393.3,237.5z
		 M613,237.5l1.1,1.1c-1.7,8-4.1,12.1-7.2,12.1l-6.6-0.6c0,0.8-2,1.9-6,3.3l-8.3-2.7l-20.8,12.1c-3.2,1.8-6.1,2.7-8.8,2.7v-1.6
		c5.1-2.2,12.8-7.3,23-15.3c4.2-2.3,7.5-3.6,9.9-3.9l6.6,2.2h1.7c1.5-0.4,3.5-2.4,6-6l2.2,3.3h3.3c0.5,0,1.5-2,2.8-6.1l0.5-0.5H613z
		 M347.3,245.7h0.6l-1.7,12.1v1.1c0,2.9,1.3,4.4,3.9,4.4l2.7-2.7h0.6v1.1h0.5c-1.5,5.1-3.7,7.7-6.6,7.7c-2.9-0.8-4.4-3.5-4.4-8.3
		C344.1,250.8,345.6,245.7,347.3,245.7z M175.8,254.5c5.4,3.8,8.3,6.7,8.8,8.8c0,2.7-1.8,5.1-5.5,7.2l-8.8-5c-1.5,2.6-3.1,4.6-5,6.1
		c-3.4-1.8-6.1-4-8.2-6.6c0-3,1.5-5.7,4.4-8.3h1.6c2.9,2.2,5.1,3.3,6.6,3.3C171.8,256.3,173.8,254.5,175.8,254.5z M286.5,259.4h1.6
		v1.1h0.6c0,3.1-4.7,6.2-14.2,9.3l-21.9,9.9l-1.7-1.1c0-4.2,8-9,24.1-14.2C281.4,261.1,285.3,259.4,286.5,259.4z M152.8,271.5
		l1.1,1.6c0,3.3-8.6,8-25.8,14.2l-1.6-0.5v-0.6c0-3.3,5.1-6.4,15.3-9.3C142.7,275.9,146.3,274.1,152.8,271.5z"/>
</g>
</svg>
