<?xml version="1.0" encoding="utf-8"?>
<!-- Generator: Adobe Illustrator 25.2.3, SVG Export Plug-In . SVG Version: 6.00 Build 0)  -->
<svg version="1.1" xmlns="http://www.w3.org/2000/svg" xmlns:xlink="http://www.w3.org/1999/xlink" x="0px" y="0px"
	 viewBox="0 0 700 395" style="enable-background:new 0 0 700 395;" xml:space="preserve">
<style type="text/css">
	.st0{fill:#000222;}
	.st1{fill:#FFFFFF;}
</style>
<g id="Layer_1">
	<rect class="st0" width="700" height="395"/>
</g>
<g id="Layer_3">
	<g>
		<path class="st1" d="M273.5,368.6l1.1,4.2c0.2,0.9,0.5,1.8,0.6,2.6h0.1c0.2-0.8,0.5-1.7,0.7-2.6l1.3-4.2h1.3l1.3,4.1
			c0.3,1,0.5,1.9,0.7,2.7h0.1c0.1-0.8,0.4-1.7,0.6-2.7l1.2-4.1h1.5l-2.7,8.2H280l-1.3-3.9c-0.3-0.9-0.5-1.7-0.7-2.7h0
			c-0.2,1-0.5,1.8-0.7,2.7l-1.3,3.9h-1.4l-2.5-8.2H273.5z"/>
		<path class="st1" d="M286.3,368.6l1.1,4.2c0.2,0.9,0.5,1.8,0.6,2.6h0.1c0.2-0.8,0.5-1.7,0.7-2.6l1.3-4.2h1.3l1.3,4.1
			c0.3,1,0.5,1.9,0.7,2.7h0.1c0.1-0.8,0.4-1.7,0.6-2.7l1.2-4.1h1.5l-2.7,8.2h-1.4l-1.3-3.9c-0.3-0.9-0.5-1.7-0.7-2.7h0
			c-0.2,1-0.5,1.8-0.7,2.7l-1.3,3.9h-1.4l-2.5-8.2H286.3z"/>
		<path class="st1" d="M299,368.6l1.1,4.2c0.2,0.9,0.5,1.8,0.6,2.6h0.1c0.2-0.8,0.5-1.7,0.7-2.6l1.3-4.2h1.3l1.3,4.1
			c0.3,1,0.5,1.9,0.7,2.7h0.1c0.1-0.8,0.4-1.7,0.6-2.7l1.2-4.1h1.5l-2.7,8.2h-1.4l-1.3-3.9c-0.3-0.9-0.5-1.7-0.7-2.7h0
			c-0.2,1-0.5,1.8-0.7,2.7l-1.3,3.9h-1.4l-2.5-8.2H299z"/>
		<path class="st1" d="M309.9,375.9c0-0.6,0.4-1.1,1-1.1c0.6,0,1,0.4,1,1.1c0,0.6-0.4,1.1-1,1.1C310.3,377,309.9,376.5,309.9,375.9z
			"/>
		<path class="st1" d="M313.5,375.3c0.4,0.3,1.2,0.6,2,0.6c1.1,0,1.6-0.5,1.6-1.2c0-0.7-0.4-1.1-1.5-1.5c-1.5-0.5-2.2-1.3-2.2-2.3
			c0-1.3,1.1-2.4,2.8-2.4c0.8,0,1.6,0.2,2,0.5l-0.4,1.1c-0.3-0.2-0.9-0.5-1.7-0.5c-0.9,0-1.4,0.5-1.4,1.1c0,0.7,0.5,1,1.6,1.4
			c1.4,0.5,2.2,1.3,2.2,2.5c0,1.4-1.1,2.5-3.1,2.5c-0.9,0-1.7-0.2-2.3-0.6L313.5,375.3z"/>
		<path class="st1" d="M327.4,374.6c0,0.9,0,1.6,0.1,2.2h-1.3l-0.1-1.3h0c-0.4,0.7-1.3,1.5-2.7,1.5c-1.3,0-2.8-0.7-2.8-3.6v-4.8h1.5
			v4.6c0,1.6,0.5,2.6,1.8,2.6c1,0,1.7-0.7,2-1.4c0.1-0.2,0.1-0.5,0.1-0.8v-5h1.5V374.6z"/>
		<path class="st1" d="M329.8,371.1c0-1,0-1.8-0.1-2.6h1.3l0.1,1.6h0.1c0.4-1.1,1.3-1.8,2.3-1.8c0.2,0,0.3,0,0.4,0.1v1.4
			c-0.2,0-0.3-0.1-0.5-0.1c-1.1,0-1.8,0.8-2,1.9c0,0.2-0.1,0.4-0.1,0.7v4.4h-1.5V371.1z"/>
		<path class="st1" d="M339.9,376.8l-0.1-1h-0.1c-0.5,0.6-1.3,1.2-2.5,1.2c-1.7,0-2.5-1.2-2.5-2.4c0-2,1.8-3.1,4.9-3.1v-0.2
			c0-0.7-0.2-1.9-1.9-1.9c-0.8,0-1.6,0.2-2.1,0.6l-0.3-1c0.7-0.4,1.7-0.7,2.7-0.7c2.5,0,3.1,1.7,3.1,3.4v3.1c0,0.7,0,1.4,0.1,2
			H339.9z M339.7,372.6c-1.6,0-3.5,0.3-3.5,1.9c0,1,0.6,1.4,1.4,1.4c1.1,0,1.8-0.7,2-1.4c0.1-0.2,0.1-0.3,0.1-0.5V372.6z"/>
		<path class="st1" d="M343.5,364.7h1.5v5.1h0c0.2-0.4,0.6-0.8,1.1-1.1c0.4-0.3,1-0.4,1.5-0.4c1.1,0,2.9,0.7,2.9,3.5v4.9H349v-4.7
			c0-1.3-0.5-2.4-1.9-2.4c-1,0-1.7,0.7-2,1.5c-0.1,0.2-0.1,0.4-0.1,0.7v5h-1.5V364.7z"/>
		<path class="st1" d="M358.6,375.5L358.6,375.5c-0.5,0.8-1.4,1.5-2.7,1.5c-1.9,0-3.5-1.7-3.5-4.2c0-3.1,2-4.4,3.7-4.4
			c1.3,0,2.1,0.6,2.5,1.4h0l0.1-1.2h1.4c0,0.7-0.1,1.4-0.1,2.3v9.3h-1.5V375.5z M358.6,371.9c0-0.2,0-0.4-0.1-0.6
			c-0.2-0.9-1-1.7-2.1-1.7c-1.5,0-2.5,1.3-2.5,3.2c0,1.6,0.8,3.1,2.4,3.1c1,0,1.8-0.6,2.1-1.6c0.1-0.2,0.1-0.5,0.1-0.7V371.9z"/>
		<path class="st1" d="M369.4,374.6c0,0.9,0,1.6,0.1,2.2h-1.3l-0.1-1.3h0c-0.4,0.7-1.3,1.5-2.7,1.5c-1.3,0-2.8-0.7-2.8-3.6v-4.8h1.5
			v4.6c0,1.6,0.5,2.6,1.8,2.6c1,0,1.7-0.7,2-1.4c0.1-0.2,0.1-0.5,0.1-0.8v-5h1.5V374.6z"/>
		<path class="st1" d="M371.9,371.1c0-1,0-1.8-0.1-2.6h1.3l0.1,1.6h0.1c0.4-1.1,1.3-1.8,2.3-1.8c0.2,0,0.3,0,0.4,0.1v1.4
			c-0.2,0-0.3-0.1-0.5-0.1c-1.1,0-1.8,0.8-2,1.9c0,0.2-0.1,0.4-0.1,0.7v4.4h-1.5V371.1z"/>
		<path class="st1" d="M381.9,376.8l-0.1-1h-0.1c-0.5,0.6-1.3,1.2-2.5,1.2c-1.7,0-2.5-1.2-2.5-2.4c0-2,1.8-3.1,4.9-3.1v-0.2
			c0-0.7-0.2-1.9-1.9-1.9c-0.8,0-1.6,0.2-2.1,0.6l-0.3-1c0.7-0.4,1.7-0.7,2.7-0.7c2.5,0,3.1,1.7,3.1,3.4v3.1c0,0.7,0,1.4,0.1,2
			H381.9z M381.7,372.6c-1.6,0-3.5,0.3-3.5,1.9c0,1,0.6,1.4,1.4,1.4c1.1,0,1.8-0.7,2-1.4c0.1-0.2,0.1-0.3,0.1-0.5V372.6z"/>
		<path class="st1" d="M385.6,370.8c0-0.9,0-1.5-0.1-2.2h1.3l0.1,1.4h0c0.4-0.8,1.4-1.5,2.7-1.5c1.1,0,2.9,0.7,2.9,3.5v4.9h-1.5
			v-4.7c0-1.3-0.5-2.4-1.9-2.4c-1,0-1.8,0.7-2,1.5c-0.1,0.2-0.1,0.4-0.1,0.7v4.9h-1.5V370.8z"/>
		<path class="st1" d="M394.6,375.9c0-0.6,0.4-1.1,1-1.1c0.6,0,1,0.4,1,1.1c0,0.6-0.4,1.1-1,1.1C395,377,394.6,376.5,394.6,375.9z"
			/>
		<path class="st1" d="M404.4,376.5c-0.4,0.2-1.3,0.5-2.4,0.5c-2.5,0-4.1-1.7-4.1-4.2c0-2.5,1.7-4.4,4.4-4.4c0.9,0,1.7,0.2,2.1,0.4
			l-0.3,1.2c-0.4-0.2-0.9-0.4-1.7-0.4c-1.9,0-2.9,1.4-2.9,3.1c0,1.9,1.2,3.1,2.9,3.1c0.8,0,1.4-0.2,1.8-0.4L404.4,376.5z"/>
		<path class="st1" d="M413.5,372.6c0,3-2.1,4.4-4.1,4.4c-2.2,0-3.9-1.6-3.9-4.2c0-2.8,1.8-4.4,4.1-4.4
			C411.9,368.4,413.5,370.1,413.5,372.6z M406.9,372.7c0,1.8,1,3.2,2.5,3.2c1.4,0,2.5-1.3,2.5-3.2c0-1.4-0.7-3.2-2.5-3.2
			S406.9,371.1,406.9,372.7z"/>
		<path class="st1" d="M415.4,370.8c0-0.9,0-1.5-0.1-2.2h1.3l0.1,1.3h0.1c0.5-0.8,1.2-1.5,2.6-1.5c1.1,0,2,0.7,2.3,1.6h0
			c0.3-0.5,0.6-0.8,0.9-1.1c0.5-0.4,1-0.6,1.8-0.6c1.1,0,2.7,0.7,2.7,3.6v4.8h-1.5v-4.7c0-1.6-0.6-2.5-1.8-2.5
			c-0.9,0-1.5,0.6-1.8,1.4c-0.1,0.2-0.1,0.5-0.1,0.7v5.1h-1.5v-4.9c0-1.3-0.6-2.3-1.7-2.3c-0.9,0-1.6,0.7-1.9,1.5
			c-0.1,0.2-0.1,0.5-0.1,0.7v5h-1.5V370.8z"/>
	</g>
</g>
<g id="Layer_4">
	<path class="st1" d="M461.2,108.2c2.5,0.7,3.8,3.2,3.8,7.5l-1.3,8.8c4.2,4.8,6.3,8,6.3,9.4v1.8c0,0.8-0.6,1.3-1.8,1.3
		c-4.1-2.9-6.8-4.3-8.2-4.3c-13.4,12.9-24.8,20.2-34.4,21.9h-0.7V154c0.3-0.8,8.2-6.3,23.8-16.3c5-3.8,7.5-6.6,7.5-8.2l-4.3-7.5
		C454.3,112.8,457.4,108.2,461.2,108.2z M379.2,109.4h1.3l11.3,29.5l-0.7,1.8h-1.8l-3.8-3.8h-0.7v0.7l10.7,77
		c0,29.8-11.7,49-35.1,57.7c-14,5-23.5,7.5-28.2,7.5h-1.3v-0.6c0-1.6,7.1-5.3,21.3-11.3c25.1-15.3,37.6-28.1,37.6-38.3
		c0-5-3.5-32.5-10.6-82.7c-1.3-13-2.8-22.4-4.4-28.2C376.3,113.2,377.8,110,379.2,109.4z M234.4,111.4v0.6l-1.8,10v1.9
		c0,2.2,1.3,4.5,3.8,6.9h1.3c0.9,0,1.6-1,1.8-3.1h0.7l1.3,1.3c-1.1,5.4-3.1,8.1-6.3,8.1h-0.7c-3.3-2.1-5-5.9-5-11.3
		C231.2,116.1,232.9,111.4,234.4,111.4z M408,111.4h2.5l10.6,28.8v2.5h-1.3l-3.8-3.2h-1.3c6.7,54.7,10,84.4,10,89l0.7,7.5
		c-0.8,8.4-2.1,14.7-3.8,18.8h-1.9l-0.6-2.5l0.6-4.3l-12.5-113.5c0-5.8-0.8-10.4-2.5-13.8L408,111.4z M596.6,111.4
		c3.8,1.4,5.7,3.7,5.7,6.9v0.7c0,2.2-0.6,3.4-1.9,3.8h-0.6l-4.4-3.8h-1.8c-2.3,0-3.8,8.1-4.4,24.4c-1.1,5.5-2.1,8.2-3.1,8.2
		c-6.5-12.5-12.2-18.8-17-18.8c-3.3-2.6-5-4.7-5-6.3c0.3-3.8,1.4-5.7,3.2-5.7c3.3,0,9.4,5.7,18.1,17h0.7l0.6-3.2v-5.6
		C586.5,120.9,589.9,115,596.6,111.4z M543.9,113.2l0.7,0.7c0,4.4-6.5,9.2-19.5,14.4l-36.9,21.3h-2.5v-1.3c0-4,11.9-11.7,35.7-23.1
		C523.6,123.1,531.1,119.2,543.9,113.2z M351.6,113.9h0.6l-1.8,8.1v6.9c1.3,5,2.8,7.5,4.3,7.5c1.5,0,2.6-1.5,3.3-4.4h1.3v1.3h0.6
		c-1.2,6.7-3.3,10-6.3,10c-4.6-2.3-6.9-6.9-6.9-13.8C346.6,125.1,348.2,119.9,351.6,113.9z M642.9,113.9c2.2,0,3.9,3.5,5,10.6
		l-0.6,4.4l4.3,10v1.8l-1.3,1.3h-1.3l-3.8-2.5c-1.4,0-6.9,4.2-16.3,12.5c-15.3,10.5-25.8,15.7-31.3,15.7c0,0.8-0.8,1.3-2.5,1.3
		l-0.6-0.7v-0.6c20.5-11.8,34.7-20.7,42.6-27l2.5-3.8c-4.2-4.3-6.3-7.7-6.3-10C635.1,118.2,638.3,113.9,642.9,113.9z M114.7,115.1
		h2.5c3.7,2.8,5.6,5.3,5.6,7.5v1.8l-1.8,1.9h-0.7l-5-3.8h-1.8l-0.7,4.3l0.7,11.3l-1.9,11.3h-1.3c-5.9-10.4-10.5-15.6-13.8-15.6
		c-3,10-7.2,16.8-12.5,20.6c-6.2,5-11.2,7.7-15,8.2v-0.7c16.3-13.2,24.5-22.6,24.5-28.2c0-0.8-1.9-2.5-5.7-5l-0.6-3.2v-0.6
		c0-2.3,1-4,3.1-5c8.2,3.8,14,9,17.5,15.6h1.9v-10C109.7,121.5,111.4,118,114.7,115.1z M139.8,115.1c4.2,0,9.7,38,16.3,114.1
		c3.9,18.4,14.5,27.6,31.9,27.6c2,0,6.6-5.7,13.8-17c2.5-2.9,3.8-5.8,3.8-8.8v-4.3c0-15.3-5.4-50.2-16.3-104.7l1.9-6.9h1.3
		c8.4,12.7,12.5,20.8,12.5,24.4v0.7H203l-1.8-1.3h-1.9c8,42.2,11.9,67.2,11.9,75.2v3.8c0,5-0.4,7.5-1.3,7.5l1.3,1.8l12.5-11.3
		c7.1-4.6,13.3-6.9,18.8-6.9h4.3c13.8,3.8,20.7,9.9,20.7,18.1v2.5l-4.4,15h0.7c12.1-3,18.1-6.3,18.1-10c-1.7-5-2.5-8.9-2.5-11.9
		c0-14.7,4.4-23.3,13.2-25.7c6.5,0,11.1,6.7,13.8,20.1c-3.4,14.6-6.7,22-10,22l-0.7,2.5c2.7,4.2,7.3,6.3,13.8,6.3h1.3
		c13.1,0,21.4-2.7,25.1-8.2c0-2.1-3.3-7.5-10-16.3v-0.6l1.9-8.8h1.8c7.5,7.7,11.3,15,11.3,21.9c-1.7,12.1-4.2,18.2-7.5,18.2
		c-6,4.2-12.8,6.3-20.6,6.3h-5c-6.3,0-13.2-4.4-20.7-13.2h-1.3c-38.5,15-68.6,22.6-90.2,22.6h-5c-18.5,0-30.9-7.5-36.9-22.6
		c-3.2-14-7-44.9-11.3-92.7c-2.5-14.5-4.8-24.5-6.9-30.1C135.4,121.2,136.8,118.1,139.8,115.1z M456.2,119.5
		c0.3,1.1,1.3,2.2,3.2,3.2h1.8v-5c0-1.1-0.8-1.7-2.5-1.9C457,116.1,456.2,117.4,456.2,119.5z M169.9,118.9l0.6,0.6
		c-2.1,5.5-3.1,10.9-3.1,16.3v0.7c0,3.7,1.7,5.8,5,6.3h0.6c0.8,0,1.3-0.6,1.3-1.9l0.7-0.6h0.6l1.3,1.3c0,2.5-1.7,5.2-5,8.1h-0.6
		c-4.6,0-6.9-4-6.9-11.9V137C165.6,125.9,167.5,119.9,169.9,118.9z M637.3,123.2v1.9c0.9,1.6,2.6,3,5,4.3h1.8v-5.6l-2.5-2.5h-2.5
		L637.3,123.2z M282.7,124.5l1.3,2.5l-1.9,17.5c1.5,5,3.4,7.5,5.7,7.5c0.7,0,2.2-1.4,4.3-4.3l0.7,0.6c0,4.4-1.9,8-5.7,10.7
		c-4.2,0-6.7-4-7.5-11.9l0.7-14.4l-0.7-0.7h-0.6l-57.7,29.5c-4.2,2.1-6.3,4.3-6.3,6.9c3.3,2.4,5,4.7,5,6.9v0.6l-1.3,1.3h-1.3
		c-4.2-2.8-6.3-5.1-6.3-6.9c0-8.6,7.3-15.7,21.9-21.3C258.7,135.5,275.2,127.3,282.7,124.5z M304,124.5c2.7,0,10.6,5.8,23.8,17.5
		v1.9l-6.3-0.7v1.9c3.4,5.4,21.1,24.8,53.2,58.2c6.3,9,9.9,18.6,10.7,28.8c-0.6,3.8-1.2,5.7-1.9,5.7h-1.3c0-12-15.2-32.4-45.7-61.4
		c-18.8-22.2-29.9-37-33.3-44.5v-4.3L304,124.5z M550.2,151.5v0.6l-2.5,9.4v4.3c0,2.6,1.5,4.9,4.4,6.9h0.6c2.1-1.2,3.2-2.8,3.2-5
		h1.3v3.1c-0.1,2.7-1.7,5.7-5,8.8h-0.7c-4.6-1.1-6.9-4.4-6.9-10v-2.5C544.6,161.7,546.5,156.5,550.2,151.5z M469.4,154
		c4.9,2.8,8,5.9,9.4,9.4c-0.9,2.5-2.6,5-5,7.5h-1.8l-6.9-5.6h-1.3c-0.8,0-2.5,2.5-5,7.5h-2.5c-4.5-3-7.4-5.5-8.8-7.5v-1.9
		c0-2.5,1.7-5,5-7.5h1.3c3.9,3,6.6,4.4,8.2,4.4h0.6C466.1,156.1,468.4,154,469.4,154z M643.6,159h0.6v0.6c-2.1,3.4-3.1,7-3.1,10.7
		v3.1c0,2.3,0.8,3.8,2.5,4.4c1.5,0,3.2-1.1,5-3.2l0.6,0.7c-1.1,5-3,8.1-5.6,9.4c-4.2,0-6.3-3.3-6.3-10
		C638.7,167,640.8,161.8,643.6,159z M248.8,165.8h0.6l-2.5,12.5h0.7l-0.7,0.7v0.6c0,3.3,1.5,5.8,4.4,7.5h0.6c2.1-1.2,3.2-2.9,3.2-5
		h0.6l0.7,1.9c0,4.2-1.7,7.5-5,10c-3.6,0-6.1-3.6-7.5-10.7C243.8,177.7,245.5,171.8,248.8,165.8z M505.7,167.8
		c8.7,8.5,13.1,13.7,13.1,15.6h-5v1.9c6.7,11.1,10,20.1,10,26.9c-1.2,8-3.1,13.6-5.6,17c-9.6,6.9-14.5,13-14.5,18.1v1.3
		c0,9.4,4.6,16.1,13.8,20.1l6.9,0.7v-0.7l0.6,0.7h0.7c14.4,0,32-11.3,52.6-33.8l0.6-3.2l-1.8-1.3l-17,1.9c-9.2-1-13.8-5.2-13.8-12.5
		c0-9.7,4.8-16.6,14.5-20.7h1.3c5.5,0,12,5,19.4,15h1.3c2.5,0,9.4-4.2,20.7-12.5h0.6c1.1,0.2,1.9,1.2,2.5,3.2l-0.6,3.8
		c1.5,7.9,5.5,11.9,11.9,11.9h3.2c8.6,0,16.2-6.7,22.6-20.1l1.8-0.6l0.7,0.6l-3.2,8.8v0.7c0,2.3,4,4.6,11.9,6.9h5
		c1.2,0,1.8-0.8,1.8-2.5l-3.1-8.1c1.3-5.5,2.4-8.2,3.1-8.2c2.5,0,4.3,5.4,5.7,16.3c-2.1,10-5.2,15-9.4,15l-3.8,0.7
		c-4.9,0-10.3-3.1-16.3-9.4c-6.4,8.4-13,12.5-20.1,12.5c-11.3-1.9-16.9-7.6-16.9-16.9c-3.4,0-8.8,4.2-16.3,12.5
		c0,16.1-14.8,32.4-44.5,48.9c-6.3,2.1-10.9,3.1-13.8,3.1h-5.6c-13.8-3-20.7-11.1-20.7-24.4h-0.6l0.6-0.7v-5l0.7-6.3l-0.7-0.6h-0.6
		c-26.8,17.9-47.7,26.9-62.7,26.9c-8.2,2.1-16,3.6-23.2,4.4v-1.3c2.6-1.8,14.1-6.4,34.5-13.8c24.2-11.1,45.5-23.8,63.9-38.3
		c4.2-4.1,6.3-7,6.3-8.8l-11.9-25.7c0-1.9-1.3-5.3-3.8-10C503.1,171.4,504.2,168.1,505.7,167.8z M280.7,169c6.3,3.4,9.4,6.5,9.4,9.4
		c0,1.4-1.3,4.1-3.8,8.2h-2.5c-5.5-3.8-8.2-6.8-8.2-8.8C275.7,174.9,277.4,172,280.7,169z M116.6,171.5h1.3l12.5,14.4v1.3l-0.6,0.7
		v0.6l-3.2-0.6H126l10,20.6l0.6,4.4v7.5c0,10.7-8.1,20.9-24.4,30.7c-22.3,15.5-45.9,24.5-70.9,27l-8.8,0.6v-1.3
		c4-2.3,11.3-5.3,22-8.8c33.5-14,57.8-27.3,72.7-40.1l5-6.3c0-4.3-3.8-12.9-11.3-25.7c-4.2-9-6.3-15.3-6.3-18.8L116.6,171.5z
		 M480,175.9l0.7,0.7h0.6c0,3.9-4,11.6-11.9,23.1c8.4,7.6,12.5,13,12.5,16.3c0,11.2-4.8,18.9-14.5,23.2l-10,3.8c-4.9,0-8-4-9.4-11.9
		c1.2-9.7,3.7-17.8,7.5-24.4c-10.9-11.1-16.6-17.4-17-18.8l0.7-0.7v-2.5l-0.7-0.6c0.8-3.3,1.7-5,2.5-5h0.7c8,3.4,13,6.1,15,8.1v0.7
		c0,0.8-0.8,1.3-2.5,1.3v1.3c3,3.7,5.7,5.6,8.1,5.6C463.4,195.9,469.2,189.2,480,175.9z M320.3,179c0.9,0,3.6,2.5,8.1,7.5v0.6
		c0,2.7-1.7,5.4-5,8.2h-1.3c-5.4-4.1-8.1-6.8-8.1-8.2C314.9,181.7,317,179,320.3,179z M82.7,182.8h0.7c0.8,0,1.3,0.6,1.3,1.8
		l-1.9,18.2c0.2,10.1,2.3,16.6,6.3,19.4h1.3c1.2,0,2.4-2.7,3.8-8.1h1.3v5.6c0,6.3-2.3,10.3-6.9,11.9c-5-1.5-8.2-7.6-9.4-18.2V211
		C79,203.9,80.2,194.5,82.7,182.8z M182.4,190.3l0.6,0.6c-1.2,4.5-1.8,8.2-1.8,11.3v5.7c0.5,3.7,2.4,5.6,5.6,5.6
		c1.1-3.3,1.9-5,2.5-5h0.7v2.5c0,5.5-2.1,8.9-6.3,10c-2.7,0-4.6-4.2-5.7-12.5C178,201.7,179.4,195.7,182.4,190.3z M283.9,217.9v0.6
		c2.3,9.2,4.1,13.8,5.6,13.8h2.5c6.3-4.1,9.4-7.4,9.4-10c-3.1-8.4-6.4-12.5-10-12.5S285.3,212.4,283.9,217.9z M453.1,226
		c0.7,1.9,1.9,3.4,3.8,4.4h0.6c6.7,0,12.8-3.1,18.2-9.4v-1.3c-2.3-3-6.5-6.1-12.5-9.4C457.6,212.2,454.2,217.4,453.1,226z
		 M554.6,217.9c2,1.2,4.7,1.8,8.1,1.8h1.9c3.1,0,4.7-0.6,5-1.8c0-2.1-3.1-3.8-9.4-5C556.9,212.9,555,214.5,554.6,217.9z
		 M198.7,256.1c17.5,0,37.6-6.3,60.2-18.8l1.8-2.5c0-6.3-7.1-10.7-21.3-13.1c-14.1,0-27.7,11.3-40.7,33.8V256.1z M650.5,244.8h1.3
		l0.7,1.9c-2.2,8.7-5.4,13.1-9.4,13.1l-5-1.3l-10,3.2h-0.6c-2.3-1.7-4.2-2.5-5.7-2.5h-2.5c-1.4,0-10,4.6-25.7,13.8l-7.5,1.8V273
		c2.1,0,12.7-6.5,31.9-19.5l4.4-1.3c1.6,0,4.1,1.1,7.5,3.2h0.6c4.5,0,7.7-2.3,9.4-6.9h0.6c1.6,3,3.5,4.4,5.7,4.4
		C647.1,253,648.5,250.3,650.5,244.8z M143.5,255.5l1.8,0.6v1.9c0,2.8-2.7,4.9-8.1,6.3c-12.1,6.2-24.9,11.9-38.3,16.9l-0.6-1.8
		c0-3,9.2-8,27.6-15L143.5,255.5z M295.2,265.5h0.6l0.7,2.5c0,2.4-11.5,7.6-34.5,15.6c-3.9,2.1-6.8,3.2-8.8,3.2v-0.7l-0.6-0.6v-0.7
		C252.6,281.9,266.8,275.5,295.2,265.5z"/>
</g>
</svg>
