<?xml version="1.0" encoding="utf-8"?>
<!-- Generator: Adobe Illustrator 25.2.3, SVG Export Plug-In . SVG Version: 6.00 Build 0)  -->
<svg version="1.1" xmlns="http://www.w3.org/2000/svg" xmlns:xlink="http://www.w3.org/1999/xlink" x="0px" y="0px"
	 viewBox="0 0 700 395" style="enable-background:new 0 0 700 395;" xml:space="preserve">
<style type="text/css">
	.st0{fill:#000222;}
	.st1{fill:#FFFFFF;}
</style>
<g id="Layer_1">
	<rect class="st0" width="700" height="395"/>
</g>
<g id="Layer_3">
	<g>
		<path class="st1" d="M273.5,368.6l1.1,4.2c0.2,0.9,0.5,1.8,0.6,2.6h0.1c0.2-0.8,0.5-1.7,0.7-2.6l1.3-4.2h1.3l1.3,4.1
			c0.3,1,0.5,1.9,0.7,2.7h0.1c0.1-0.8,0.4-1.7,0.6-2.7l1.2-4.1h1.5l-2.7,8.2H280l-1.3-3.9c-0.3-0.9-0.5-1.7-0.7-2.7h0
			c-0.2,1-0.5,1.8-0.7,2.7l-1.3,3.9h-1.4l-2.5-8.2H273.5z"/>
		<path class="st1" d="M286.3,368.6l1.1,4.2c0.2,0.9,0.5,1.8,0.6,2.6h0.1c0.2-0.8,0.5-1.7,0.7-2.6l1.3-4.2h1.3l1.3,4.1
			c0.3,1,0.5,1.9,0.7,2.7h0.1c0.1-0.8,0.4-1.7,0.6-2.7l1.2-4.1h1.5l-2.7,8.2h-1.4l-1.3-3.9c-0.3-0.9-0.5-1.7-0.7-2.7h0
			c-0.2,1-0.5,1.8-0.7,2.7l-1.3,3.9h-1.4l-2.5-8.2H286.3z"/>
		<path class="st1" d="M299,368.6l1.1,4.2c0.2,0.9,0.5,1.8,0.6,2.6h0.1c0.2-0.8,0.5-1.7,0.7-2.6l1.3-4.2h1.3l1.3,4.1
			c0.3,1,0.5,1.9,0.7,2.7h0.1c0.1-0.8,0.4-1.7,0.6-2.7l1.2-4.1h1.5l-2.7,8.2h-1.4l-1.3-3.9c-0.3-0.9-0.5-1.7-0.7-2.7h0
			c-0.2,1-0.5,1.8-0.7,2.7l-1.3,3.9h-1.4l-2.5-8.2H299z"/>
		<path class="st1" d="M309.9,375.9c0-0.6,0.4-1.1,1-1.1c0.6,0,1,0.4,1,1.1c0,0.6-0.4,1.1-1,1.1C310.3,377,309.9,376.5,309.9,375.9z
			"/>
		<path class="st1" d="M313.5,375.3c0.4,0.3,1.2,0.6,2,0.6c1.1,0,1.6-0.5,1.6-1.2c0-0.7-0.4-1.1-1.5-1.5c-1.5-0.5-2.2-1.3-2.2-2.3
			c0-1.3,1.1-2.4,2.8-2.4c0.8,0,1.6,0.2,2,0.5l-0.4,1.1c-0.3-0.2-0.9-0.5-1.7-0.5c-0.9,0-1.4,0.5-1.4,1.1c0,0.7,0.5,1,1.6,1.4
			c1.4,0.5,2.2,1.3,2.2,2.5c0,1.4-1.1,2.5-3.1,2.5c-0.9,0-1.7-0.2-2.3-0.6L313.5,375.3z"/>
		<path class="st1" d="M327.4,374.6c0,0.9,0,1.6,0.1,2.2h-1.3l-0.1-1.3h0c-0.4,0.7-1.3,1.5-2.7,1.5c-1.3,0-2.8-0.7-2.8-3.6v-4.8h1.5
			v4.6c0,1.6,0.5,2.6,1.8,2.6c1,0,1.7-0.7,2-1.4c0.1-0.2,0.1-0.5,0.1-0.8v-5h1.5V374.6z"/>
		<path class="st1" d="M329.8,371.1c0-1,0-1.8-0.1-2.6h1.3l0.1,1.6h0.1c0.4-1.1,1.3-1.8,2.3-1.8c0.2,0,0.3,0,0.4,0.1v1.4
			c-0.2,0-0.3-0.1-0.5-0.1c-1.1,0-1.8,0.8-2,1.9c0,0.2-0.1,0.4-0.1,0.7v4.4h-1.5V371.1z"/>
		<path class="st1" d="M339.9,376.8l-0.1-1h-0.1c-0.5,0.6-1.3,1.2-2.5,1.2c-1.7,0-2.5-1.2-2.5-2.4c0-2,1.8-3.1,4.9-3.1v-0.2
			c0-0.7-0.2-1.9-1.9-1.9c-0.8,0-1.6,0.2-2.1,0.6l-0.3-1c0.7-0.4,1.7-0.7,2.7-0.7c2.5,0,3.1,1.7,3.1,3.4v3.1c0,0.7,0,1.4,0.1,2
			H339.9z M339.7,372.6c-1.6,0-3.5,0.3-3.5,1.9c0,1,0.6,1.4,1.4,1.4c1.1,0,1.8-0.7,2-1.4c0.1-0.2,0.1-0.3,0.1-0.5V372.6z"/>
		<path class="st1" d="M343.5,364.7h1.5v5.1h0c0.2-0.4,0.6-0.8,1.1-1.1c0.4-0.3,1-0.4,1.5-0.4c1.1,0,2.9,0.7,2.9,3.5v4.9H349v-4.7
			c0-1.3-0.5-2.4-1.9-2.4c-1,0-1.7,0.7-2,1.5c-0.1,0.2-0.1,0.4-0.1,0.7v5h-1.5V364.7z"/>
		<path class="st1" d="M358.6,375.5L358.6,375.5c-0.5,0.8-1.4,1.5-2.7,1.5c-1.9,0-3.5-1.7-3.5-4.2c0-3.1,2-4.4,3.7-4.4
			c1.3,0,2.1,0.6,2.5,1.4h0l0.1-1.2h1.4c0,0.7-0.1,1.4-0.1,2.3v9.3h-1.5V375.5z M358.6,371.9c0-0.2,0-0.4-0.1-0.6
			c-0.2-0.9-1-1.7-2.1-1.7c-1.5,0-2.5,1.3-2.5,3.2c0,1.6,0.8,3.1,2.4,3.1c1,0,1.8-0.6,2.1-1.6c0.1-0.2,0.1-0.5,0.1-0.7V371.9z"/>
		<path class="st1" d="M369.4,374.6c0,0.9,0,1.6,0.1,2.2h-1.3l-0.1-1.3h0c-0.4,0.7-1.3,1.5-2.7,1.5c-1.3,0-2.8-0.7-2.8-3.6v-4.8h1.5
			v4.6c0,1.6,0.5,2.6,1.8,2.6c1,0,1.7-0.7,2-1.4c0.1-0.2,0.1-0.5,0.1-0.8v-5h1.5V374.6z"/>
		<path class="st1" d="M371.9,371.1c0-1,0-1.8-0.1-2.6h1.3l0.1,1.6h0.1c0.4-1.1,1.3-1.8,2.3-1.8c0.2,0,0.3,0,0.4,0.1v1.4
			c-0.2,0-0.3-0.1-0.5-0.1c-1.1,0-1.8,0.8-2,1.9c0,0.2-0.1,0.4-0.1,0.7v4.4h-1.5V371.1z"/>
		<path class="st1" d="M381.9,376.8l-0.1-1h-0.1c-0.5,0.6-1.3,1.2-2.5,1.2c-1.7,0-2.5-1.2-2.5-2.4c0-2,1.8-3.1,4.9-3.1v-0.2
			c0-0.7-0.2-1.9-1.9-1.9c-0.8,0-1.6,0.2-2.1,0.6l-0.3-1c0.7-0.4,1.7-0.7,2.7-0.7c2.5,0,3.1,1.7,3.1,3.4v3.1c0,0.7,0,1.4,0.1,2
			H381.9z M381.7,372.6c-1.6,0-3.5,0.3-3.5,1.9c0,1,0.6,1.4,1.4,1.4c1.1,0,1.8-0.7,2-1.4c0.1-0.2,0.1-0.3,0.1-0.5V372.6z"/>
		<path class="st1" d="M385.6,370.8c0-0.9,0-1.5-0.1-2.2h1.3l0.1,1.4h0c0.4-0.8,1.4-1.5,2.7-1.5c1.1,0,2.9,0.7,2.9,3.5v4.9h-1.5
			v-4.7c0-1.3-0.5-2.4-1.9-2.4c-1,0-1.8,0.7-2,1.5c-0.1,0.2-0.1,0.4-0.1,0.7v4.9h-1.5V370.8z"/>
		<path class="st1" d="M394.6,375.9c0-0.6,0.4-1.1,1-1.1c0.6,0,1,0.4,1,1.1c0,0.6-0.4,1.1-1,1.1C395,377,394.6,376.5,394.6,375.9z"
			/>
		<path class="st1" d="M404.4,376.5c-0.4,0.2-1.3,0.5-2.4,0.5c-2.5,0-4.1-1.7-4.1-4.2c0-2.5,1.7-4.4,4.4-4.4c0.9,0,1.7,0.2,2.1,0.4
			l-0.3,1.2c-0.4-0.2-0.9-0.4-1.7-0.4c-1.9,0-2.9,1.4-2.9,3.1c0,1.9,1.2,3.1,2.9,3.1c0.8,0,1.4-0.2,1.8-0.4L404.4,376.5z"/>
		<path class="st1" d="M413.5,372.6c0,3-2.1,4.4-4.1,4.4c-2.2,0-3.9-1.6-3.9-4.2c0-2.8,1.8-4.4,4.1-4.4
			C411.9,368.4,413.5,370.1,413.5,372.6z M406.9,372.7c0,1.8,1,3.2,2.5,3.2c1.4,0,2.5-1.3,2.5-3.2c0-1.4-0.7-3.2-2.5-3.2
			S406.9,371.1,406.9,372.7z"/>
		<path class="st1" d="M415.4,370.8c0-0.9,0-1.5-0.1-2.2h1.3l0.1,1.3h0.1c0.5-0.8,1.2-1.5,2.6-1.5c1.1,0,2,0.7,2.3,1.6h0
			c0.3-0.5,0.6-0.8,0.9-1.1c0.5-0.4,1-0.6,1.8-0.6c1.1,0,2.7,0.7,2.7,3.6v4.8h-1.5v-4.7c0-1.6-0.6-2.5-1.8-2.5
			c-0.9,0-1.5,0.6-1.8,1.4c-0.1,0.2-0.1,0.5-0.1,0.7v5.1h-1.5v-4.9c0-1.3-0.6-2.3-1.7-2.3c-0.9,0-1.6,0.7-1.9,1.5
			c-0.1,0.2-0.1,0.5-0.1,0.7v5h-1.5V370.8z"/>
	</g>
</g>
<g id="Layer_4">
	<path class="st1" d="M275.3,111h1.8c4.5,9.2,8.3,18.4,11.4,27.7l-0.6,0.6h-1.2l-3.6-3h-1.2v0.6c6.4,36.7,9.6,57.8,9.6,63.3
		l-1.2,19.8h1.2c13.8-13.7,25.1-20.5,33.7-20.5c17.2,2.3,25.9,8.1,25.9,17.5l-3,13.8v1.2h3.6c8.8-3.3,14-5.7,15.7-7.2v-3l-12.7-98.8
		l-0.6-1.8c1.3-5.6,2.5-8.4,3.6-8.4h0.6c3.3,4.7,7.7,14.1,13.3,28.4l-0.6,0.6h-1.2c-2.1-2-3.9-3-5.5-3v2.4c5,53.4,9,80.1,12.1,80.1
		h1.2l11.5-1.2c8.8,1.3,13.3,5,13.3,10.8c-1.4,12.9-5.3,19.3-11.5,19.3c-5.8,0-12.4-4.8-19.8-14.5h-1.2
		c-36.5,12.9-63,19.3-79.5,19.3h-4.3l-2.4,0.6c-6.2,0-16.6-2-31.3-6h-0.6c-12.6,5.2-21.6,7.8-27.2,7.8l-18.1-4.2
		c-6.9,3.1-13.9,5.1-21.1,6c-10.9-3.4-16.3-7.4-16.3-12.1c-1.9,0-4.7-11.1-8.4-33.2l-0.6-0.6v-0.6H159c-3.5,7.3-7.8,12-12.7,13.9
		c-1.6,0.2-2.4,0.7-2.4,1.8v3.6c0,12.4-3.2,20.9-9.6,25.3c-16,15.7-34,23.5-54.2,23.5c-8.9,0-17.4-5-25.3-15.1
		c-3.2-5.5-4.8-11.1-4.8-16.9v-0.6c0-7,2-16.7,6-28.9c-2.4-4.5-3.6-8.7-3.6-12.7v-8.4c1.7-14,3.7-23,6-27.1H59l0.6,1.8
		c-2.8,11-4.2,19.5-4.2,25.3c0,9.6,2.2,14.5,6.6,14.5c1.6-0.4,2.4-2.2,2.4-5.4h1.8v1.8c0,6.7-2.8,11.4-8.4,13.9
		c-2.4,7-3.6,12.2-3.6,15.7v7.8c0,5.5,3.8,11.3,11.4,17.5c7.5,3.6,14.1,5.4,19.9,5.4c12.3-1.4,23.2-4.6,32.5-9.6
		c14.5-9.5,21.7-16.4,21.7-20.5c0-3.5-2.8-11.2-8.4-22.9v-1.2c0.5-4,1.3-6,2.4-6h0.6l5.5,5.5h6.6c6.1-3.9,9.1-8.3,9.1-13.3l3.6-3.6
		c4.6,0,8,10.8,10.2,32.5c3.7,10.4,8.3,15.7,13.9,15.7c0,0.8,1,1.2,3,1.2h1.2c6.4-0.3,9.6-1.3,9.6-3.1v-4.8
		c0-10.6,4.8-19.6,14.5-27.1l2.4-0.6c4.2,0,7.2,5,9.1,15.1c0,3.5-1.2,9.2-3.6,16.9c0,1.1,2,1.9,6,2.4c7.2,0,13-1.4,17.4-4.3l-0.6-6
		c0-13.6,5-23.2,15-28.9h1.8c6,2,9,6,9,12.1v1.8c0,5.4-1.2,11.6-3.6,18.6c0,1.6,3,2.4,9.1,2.4h0.6c7.7-4.8,11.5-15,11.5-30.7
		c0-8.2-4.2-38.6-12.7-91L275.3,111z M309,111.6h1.2l-1.8,9.6v3.1c0,2.4,1.2,4.2,3.6,5.4h0.6l3.6-3v1.8c0,2.9-1.8,5.4-5.4,7.2
		c-3.6-1.3-5.5-4.7-5.5-10.2L309,111.6z M400.6,112.3c3.2,2.8,7.4,12.6,12.7,29.5l-0.6,0.6h-0.6l-4.8-3.6h-1.2v1.2
		c0,4.6,2.6,26.6,7.8,66.3l2.4,24.1c0,5.7-1.4,13.3-4.2,22.9h-0.6l-1.2-1.2v-2.4c0-13.8-4-53.8-12.1-120c0-2.8-0.6-5.6-1.8-8.4
		C396.4,118.7,397.8,115.7,400.6,112.3z M219.3,112.8h0.6c2.4,0,4.4,1.6,6,4.8v1.8l-1.8,1.8l-4.8-1.8c-2,0-3.1,6.8-3.1,20.5
		c-1.2,6.3-4.2,11.9-9,16.9c-8.2,5.6-13.2,8.4-15.1,8.4v-0.6c14.1-11.7,21.1-19,21.1-21.7c-3.5-10.4-8.8-15.7-15.7-15.7
		c-2.8-2.1-4.3-4.3-4.3-6.6c0-2.3,1-3.7,3.1-4.2c2.6,0,8.2,5,16.9,15.1l0.6-0.6h0.6l-0.6-3.6C215.1,117.6,216.9,112.8,219.3,112.8z
		 M137.3,115.9h1.2v0.6c-1.6,2.9-2.4,6.2-2.4,9.6v3.6l3,3.6h1.2c0.8,0,1.2-0.6,1.2-1.8h1.8c0,4-1.6,6.8-4.8,8.4h-1.2
		c-2.8-1.9-4.3-4.7-4.3-8.4C134.6,123.8,136,118.6,137.3,115.9z M450.7,115.9c1.5,0,2.7,2.2,3.6,6.6l-0.6,5.5v4.8
		c3.6,2.6,5.5,5.4,5.5,8.4l-1.2,2.4c-4-2.8-6.6-4.3-7.9-4.3c-10.4,10.3-17,15.8-19.8,16.3l-12.7,6l-0.6-0.6v-0.6
		c13.1-8.2,22.7-15.8,28.9-22.9v-1.2c-2.3-3.1-3.7-5.7-4.3-7.9C443.7,120.1,446.8,115.9,450.7,115.9z M580.8,116.4
		c1.7,0,3.3,1.6,4.8,4.8v1.8c0,2.1-0.6,3.3-1.8,3.6c-2.4-2.4-4.4-3.6-6-3.6c-2.4,0.8-3.6,3-3.6,6.6v1.8c0,8.6-0.8,16.4-2.4,23.5
		h-1.2c-5.9-12.1-11.4-18.1-16.2-18.1c-3.2-1.9-4.8-3.9-4.8-6v-0.6l1.2-4.3h1.8c3.5,0,9.4,5.4,17.5,16.3c0.7-1.6,1.3-6.8,1.8-15.7
		C574.5,119.9,577.5,116.4,580.8,116.4z M623,118.3h0.6c4,0,6,3,6,9l-0.6,4.8c0,1.7,1.6,5.1,4.8,10.3l-1.8,2.4
		c-2.4-1.6-4.2-2.4-5.4-2.4H626c-14.6,15.3-29.6,25-45.2,28.9v-0.6c26.1-15.6,39.9-25.8,41.5-30.7l-6-7.2
		C616.3,125.5,618.6,120.6,623,118.3z M529.6,118.8l0.6,1.8c-0.2,3-8.8,8.8-26,17.4l-27.7,17.5H476l-1.2-1.2v-0.6
		c0-3.5,11.2-11.3,33.7-23.5C521.3,122.7,528.3,118.8,529.6,118.8z M96.9,119.5c3.6,1.9,5.5,4.1,5.5,6.6v1.8l-1.2,1.2h-0.6l-3.6-2.4
		h-1.8l-1.2,1.2l1.2,17.4l-1.8,10.3h-0.6c-5.2-8.7-10.1-14.6-14.5-17.5c-5.2,0-7.9-2-7.9-6l1.2-4.2h0.6c5,0,10.8,4.8,17.4,14.5h1.8
		v-1.8l-0.6-10.8C92.3,122.9,94.3,119.5,96.9,119.5z M445.2,126.1c0,1.1,1.4,2.5,4.3,4.3l1.2-1.2v-2.4c0-2.1-0.6-3.3-1.8-3.6
		C446.4,123.1,445.2,124.1,445.2,126.1z M619.4,128.5c0,1.8,2,3.2,6,4.3h1.2v-1.8c0-4-1.4-6-4.3-6
		C620.4,124.9,619.4,126.1,619.4,128.5z M177.7,132.1v0.6c0,3.5-4.4,7.1-13.3,10.8l-71.7,35.5c-5.2,2.4-10.1,5.2-14.5,8.4h-1.2V187
		c0-5.9,4.8-10.7,14.5-14.5l84.9-41.6L177.7,132.1z M343.4,130.9l0.6,0.6v1.2c0,2.9-3.4,5.4-10.2,7.2c-6.7,4.1-20.6,10.9-41.6,20.5
		l-1.2-1.2c0-3.2,7-7.6,21.1-13.3C330.2,135.9,340.6,130.9,343.4,130.9z M249.4,142.9l5.4,12.7v1.2c0,4.2-2,6.8-6,7.8l-7.8-2.4
		c-3.5,3.6-6.2,5.5-7.9,5.5h-0.6c-2.3,0-3.7-3.2-4.3-9.6v-6.7l1.2-1.2h0.6l0.6,3.6l-0.6,3.1c0,2.1,1,3.7,3,4.8h2.4
		c1.7,0,3.1-2,4.3-6l-0.6-8.4l0.6-1.8h0.6c0.9,0,2.1,3.2,3.6,9.6c1.6,2,3.4,3.1,5.5,3.1l1.2-1.8V155c-1.6-2.6-2.6-5.2-3.1-7.8
		C248,144.4,248.6,142.9,249.4,142.9z M344.6,148.4c1.8,0,3.2,1.4,4.2,4.2l-0.6,8.4c2.4,2.2,3.6,4,3.6,5.5l-0.6,1.8h-0.6
		c-1.4,0-2.8-0.6-4.3-1.8c-11.1,10.9-19.3,17.1-24.7,18.6v-0.6l18.6-16.9l1.8-2.4v-1.8c-2.4-2.7-3.6-5.4-3.6-7.9
		S340.6,150.7,344.6,148.4z M342.8,154.4v1.8l1.8,1.8h0.6l1.2-1.2v-0.6l-1.8-1.8H342.8z M459.7,160.5c3.4,1.8,6.2,4.6,8.4,8.4
		c-1.7,4.8-3.7,7.2-6,7.2l-7.8-5.5c-0.8,0-2.8,2.4-6,7.2h-0.6c-2.5,0-5.7-2.4-9.6-7.2c1.6-5.2,3.2-7.8,4.8-7.8h1.2
		c4,2.8,6.8,4.2,8.4,4.2c0.6,0,2.1-2,4.3-6l0.6-0.6H459.7z M533.8,161h0.6v0.6l-0.6,5.4v0.6c0.5,5.6,2.3,8.4,5.4,8.4h0.6
		c0.7,0,1.6-1.2,2.4-3.6h1.2c-1.3,7.2-3.2,10.8-5.5,10.8c-3,0-5.2-3.2-6.6-9.6C531.4,170.3,532.2,166.1,533.8,161z M166.8,162.2h0.6
		l-0.6,6v3.6c0,4.8,1.8,7.2,5.5,7.2c1.6-0.6,2.4-1.8,2.4-3.6h1.2v0.6c0,4.2-1.6,7.4-4.8,9.6c-4.4,0-6.7-3.8-6.7-11.5
		C164.4,171.4,165.2,167.4,166.8,162.2z M386.2,162.9v1.2l-1.8,7.2v5.4c0.9,1.8,1.9,2.8,3,3.1l2.4-3.1l0.6,0.6h0.6
		c0,3.2-1.4,6-4.2,8.4h-1.8c-2.4-1.2-3.6-4.3-3.6-9.1C383.3,167.5,384.9,162.9,386.2,162.9z M622.4,169.5h1.2v4.3c0,3.1,1,5.1,3.1,6
		c1.4,0,3.1-1,4.8-3.1l0.6,0.6v0.6c-1.6,4.6-3.4,7.4-5.4,8.4c-4-0.8-6-3.8-6-9L622.4,169.5z M494.1,173.1h0.6
		c8,8,12.1,12.7,12.1,13.9h-0.6l-3.6,0.6v1.8c6,11.6,9,18.6,9,21.1v3.6c0,9.9-3.4,17.1-10.2,21.7c-5.2,3.6-7.9,8.5-7.9,14.5
		c0,12.9,7.4,19.3,22.3,19.3c13.1,0,29.5-11,49.4-33.1v-3.6l-1.2-1.2h-0.6l-16.2,2.4c-8.5-1.1-12.7-5.3-12.7-12.7v-0.6
		c0-8.4,4.6-14.4,13.9-18.1c5.6,0,12,4.8,19.3,14.5h0.6c1.8,0,8.7-4.2,20.5-12.7l2.4,1.8v5.4c0,5.5,3.6,8.9,10.8,10.3h5.5
		c6.7,0,12.9-6,18.6-18.1l1.8-1.2l1.2,1.2l-2.4,6c0,4.3,4.2,6.9,12.6,7.8h1.8l3-0.6v-2.4l-2.4-6c0.7-5.6,1.7-8.4,3.1-8.4h0.6
		c3.2,4.6,4.8,9.6,4.8,15c-2,9.6-6.2,14.5-12.6,14.5c-4.3,0-9.4-2.8-15.1-8.4l-8.4,8.4c-5.6,2.4-9.4,3.6-11.4,3.6
		c-7.7,0-13.1-4.6-16.3-13.8v-1.2h-0.6c-2.4,0-7.2,3.4-14.5,10.2c0,16.6-14.5,33.1-43.4,49.4c-6,2-10.8,3.1-14.5,3.1
		c-11.1,0-18.6-5.6-22.3-16.9l-1.2-7.9l0.6-3v-6.7h-0.6l-27.1,15.7c-7.9,5.2-22.2,9.7-42.8,13.3l-10.8,1.8h-1.2
		c2.1-2.3,13.2-7.1,33.2-14.5c0-0.6,5.2-3.4,15.7-8.4c15.1-7.9,30.6-18.4,46.4-31.3c2.4-2.5,3.6-4.5,3.6-6v-1.2
		c-10-20.2-15-32.1-15-35.6C492.3,175.5,493.1,173.1,494.1,173.1z M247.6,177.3c2.5,0,6.1,2.6,10.8,7.8c0,1.9-1.6,4.7-4.8,8.4h-1.2
		c-4-2.1-7-5-9-8.4C244.9,179.9,246.3,177.3,247.6,177.3z M470,181.5h0.6c-0.2,5.5-3.8,13-10.8,22.3v0.6c8,6.6,12.1,11.8,12.1,15.7
		c0,10.7-4.4,17.9-13.3,21.7c-1.6,1.2-4.8,2.4-9.6,3.6c-5.6,0-8.4-3.6-8.4-10.9s2-15.1,6-23.4c-10.8-10.1-16.2-16.1-16.2-18.1v-1.8
		l1.2-6h0.6c10.4,3.7,15.7,6.3,15.7,7.9c0,0.8-0.8,1.2-2.4,1.2l-0.6,0.6v0.6c2.8,3.6,5.4,5.4,7.8,5.4h1.2L470,181.5z M107.8,182.7
		l0.6,0.6h0.6l-0.6,2.4l-0.6-0.6h-0.6L107.8,182.7z M203,183.9c6.1,3.1,9.1,6.3,9.1,9.6c-1.6,3.8-3,6.2-4.3,7.2
		c-4.8-3.1-7.8-5.9-9-8.4C199.6,188.3,201,185.5,203,183.9z M107.2,185.8l1.2,1.2v7.8c0,3.1,2,5.3,6,6.7l3-4.3v1.2h0.6
		c-1.6,6.1-3.2,9.1-4.8,9.1c-4.8-1-7.2-4.6-7.2-10.8L107.2,185.8z M283.7,242.4l1.8,0.6c18.1,0,37.6-5.4,58.4-16.2l1.2-3.6
		c-5.7-8-13.6-12.1-23.5-12.1c-11.6,0-24.3,9.8-38,29.5V242.4z M444.6,225.5v3.6c0,2.4,1.2,4,3.6,4.8c6.1,0,12.1-3.2,18.1-9.6
		c0-2.5-4.6-5.7-13.9-9.6C451.3,214.7,448.7,218.3,444.6,225.5z M541.6,220.1l6,1.8h4.3c2.1,0,3.5-0.8,4.2-2.4
		c-2.9-2.8-5.3-4.3-7.2-4.3h-3.6C542.8,216.3,541.6,217.9,541.6,220.1z M247,229.7v1.2c2.2,3.2,4.4,4.8,6.6,4.8
		c6.4-1.3,9.6-3.9,9.6-7.8v-1.2c-1.2-5.6-3.8-8.4-7.8-8.4C252,218.3,249.2,222.1,247,229.7z M201.2,234v1.8c1.9,2.8,4.1,4.3,6.6,4.3
		h0.6c3.5,0,6.5-2.2,9-6.7v-1.2c0-3.9-1.8-6.9-5.4-9h-0.6C204.6,225.9,201.2,229.5,201.2,234z M95.1,223.1c5.6,3.7,8.4,6.6,8.4,8.4
		c-1,4.8-2.2,7.2-3.6,7.2h-0.6c-3,0-6.2-2.6-9.6-7.9C90.4,225.7,92.3,223.1,95.1,223.1z M383.2,232.8c2.8,3.6,6.1,5.4,9.6,5.4h1.2
		l1.8-1.8c-1.3-3.2-4.7-4.8-10.2-4.8h-1.2L383.2,232.8z M635.1,244.2v0.6c-0.9,8.8-3.5,13.3-7.9,13.3l-5.4-1.2h-0.6
		c-3.2,2.4-5.6,3.6-7.2,3.6l-6.6-2.4h-2.4c-2.1,0-10.2,4.4-24.1,13.3c-2.1,1.2-4.6,1.8-7.2,1.8c20-14,31.3-21.1,33.7-21.1h2.4
		c2,1.6,4.6,2.4,7.8,2.4c2-0.6,4.4-2.7,7.2-6h0.6c0,2,1.2,3,3.6,3h1.8c1.2,0,2.2-2.2,3.1-6.6l0.6-0.6H635.1z M361.5,244.8h1.2
		c-1.6,5.8-2.4,10.6-2.4,14.5v1.2c0,3.2,1.6,5,4.8,5.4l3-1.8v0.6c-1,4.8-3,7.2-6,7.2c-3.2-1.8-4.8-5.2-4.8-10.2L361.5,244.8z
		 M279.5,264.1l0.6,0.6v0.6c0,2.9-4.8,5.9-14.5,9l-16.9,6.7h-2.4v-2.4C246.4,277.1,257.4,272.2,279.5,264.1z M229.5,266.5l0.6,0.6
		c0,2.7-6.2,6.3-18.7,10.8c-7.5,4-12.3,6-14.5,6v-0.6c0-2.6,3.6-5.2,10.8-7.9C219,269.5,226.2,266.5,229.5,266.5z M171.6,266.5
		c3.1,1.1,6.3,3.5,9.6,7.2v0.6c0,2.1-1.6,4.8-4.8,7.9h-1.2c-4.8-3.6-8-5.5-9.6-5.5c-0.7,0-2.5,2.2-5.4,6.7h-0.6
		c-2.2,0-5.9-2.2-10.8-6.7v-0.6c0.4-3.1,2-5.9,4.8-8.4c5.8,3.6,9.5,5.4,10.8,5.4h0.6C168.5,268.7,170.7,266.5,171.6,266.5z"/>
</g>
</svg>
