<?xml version="1.0" encoding="utf-8"?>
<!-- Generator: Adobe Illustrator 25.2.3, SVG Export Plug-In . SVG Version: 6.00 Build 0)  -->
<svg version="1.1" xmlns="http://www.w3.org/2000/svg" xmlns:xlink="http://www.w3.org/1999/xlink" x="0px" y="0px"
	 viewBox="0 0 700 395" style="enable-background:new 0 0 700 395;" xml:space="preserve">
<style type="text/css">
	.st0{fill:#000222;}
	.st1{fill:#FFFFFF;}
</style>
<g id="Layer_1">
	<rect class="st0" width="700" height="395"/>
</g>
<g id="Layer_3">
	<g>
		<path class="st1" d="M273.5,368.6l1.1,4.2c0.2,0.9,0.5,1.8,0.6,2.6h0.1c0.2-0.8,0.5-1.7,0.7-2.6l1.3-4.2h1.3l1.3,4.1
			c0.3,1,0.5,1.9,0.7,2.7h0.1c0.1-0.8,0.4-1.7,0.6-2.7l1.2-4.1h1.5l-2.7,8.2H280l-1.3-3.9c-0.3-0.9-0.5-1.7-0.7-2.7h0
			c-0.2,1-0.5,1.8-0.7,2.7l-1.3,3.9h-1.4l-2.5-8.2H273.5z"/>
		<path class="st1" d="M286.3,368.6l1.1,4.2c0.2,0.9,0.5,1.8,0.6,2.6h0.1c0.2-0.8,0.5-1.7,0.7-2.6l1.3-4.2h1.3l1.3,4.1
			c0.3,1,0.5,1.9,0.7,2.7h0.1c0.1-0.8,0.4-1.7,0.6-2.7l1.2-4.1h1.5l-2.7,8.2h-1.4l-1.3-3.9c-0.3-0.9-0.5-1.7-0.7-2.7h0
			c-0.2,1-0.5,1.8-0.7,2.7l-1.3,3.9h-1.4l-2.5-8.2H286.3z"/>
		<path class="st1" d="M299,368.6l1.1,4.2c0.2,0.9,0.5,1.8,0.6,2.6h0.1c0.2-0.8,0.5-1.7,0.7-2.6l1.3-4.2h1.3l1.3,4.1
			c0.3,1,0.5,1.9,0.7,2.7h0.1c0.1-0.8,0.4-1.7,0.6-2.7l1.2-4.1h1.5l-2.7,8.2h-1.4l-1.3-3.9c-0.3-0.9-0.5-1.7-0.7-2.7h0
			c-0.2,1-0.5,1.8-0.7,2.7l-1.3,3.9h-1.4l-2.5-8.2H299z"/>
		<path class="st1" d="M309.9,375.9c0-0.6,0.4-1.1,1-1.1c0.6,0,1,0.4,1,1.1c0,0.6-0.4,1.1-1,1.1C310.3,377,309.9,376.5,309.9,375.9z
			"/>
		<path class="st1" d="M313.5,375.3c0.4,0.3,1.2,0.6,2,0.6c1.1,0,1.6-0.5,1.6-1.2c0-0.7-0.4-1.1-1.5-1.5c-1.5-0.5-2.2-1.3-2.2-2.3
			c0-1.3,1.1-2.4,2.8-2.4c0.8,0,1.6,0.2,2,0.5l-0.4,1.1c-0.3-0.2-0.9-0.5-1.7-0.5c-0.9,0-1.4,0.5-1.4,1.1c0,0.7,0.5,1,1.6,1.4
			c1.4,0.5,2.2,1.3,2.2,2.5c0,1.4-1.1,2.5-3.1,2.5c-0.9,0-1.7-0.2-2.3-0.6L313.5,375.3z"/>
		<path class="st1" d="M327.4,374.6c0,0.9,0,1.6,0.1,2.2h-1.3l-0.1-1.3h0c-0.4,0.7-1.3,1.5-2.7,1.5c-1.3,0-2.8-0.7-2.8-3.6v-4.8h1.5
			v4.6c0,1.6,0.5,2.6,1.8,2.6c1,0,1.7-0.7,2-1.4c0.1-0.2,0.1-0.5,0.1-0.8v-5h1.5V374.6z"/>
		<path class="st1" d="M329.8,371.1c0-1,0-1.8-0.1-2.6h1.3l0.1,1.6h0.1c0.4-1.1,1.3-1.8,2.3-1.8c0.2,0,0.3,0,0.4,0.1v1.4
			c-0.2,0-0.3-0.1-0.5-0.1c-1.1,0-1.8,0.8-2,1.9c0,0.2-0.1,0.4-0.1,0.7v4.4h-1.5V371.1z"/>
		<path class="st1" d="M339.9,376.8l-0.1-1h-0.1c-0.5,0.6-1.3,1.2-2.5,1.2c-1.7,0-2.5-1.2-2.5-2.4c0-2,1.8-3.1,4.9-3.1v-0.2
			c0-0.7-0.2-1.9-1.9-1.9c-0.8,0-1.6,0.2-2.1,0.6l-0.3-1c0.7-0.4,1.7-0.7,2.7-0.7c2.5,0,3.1,1.7,3.1,3.4v3.1c0,0.7,0,1.4,0.1,2
			H339.9z M339.7,372.6c-1.6,0-3.5,0.3-3.5,1.9c0,1,0.6,1.4,1.4,1.4c1.1,0,1.8-0.7,2-1.4c0.1-0.2,0.1-0.3,0.1-0.5V372.6z"/>
		<path class="st1" d="M343.5,364.7h1.5v5.1h0c0.2-0.4,0.6-0.8,1.1-1.1c0.4-0.3,1-0.4,1.5-0.4c1.1,0,2.9,0.7,2.9,3.5v4.9H349v-4.7
			c0-1.3-0.5-2.4-1.9-2.4c-1,0-1.7,0.7-2,1.5c-0.1,0.2-0.1,0.4-0.1,0.7v5h-1.5V364.7z"/>
		<path class="st1" d="M358.6,375.5L358.6,375.5c-0.5,0.8-1.4,1.5-2.7,1.5c-1.9,0-3.5-1.7-3.5-4.2c0-3.1,2-4.4,3.7-4.4
			c1.3,0,2.1,0.6,2.5,1.4h0l0.1-1.2h1.4c0,0.7-0.1,1.4-0.1,2.3v9.3h-1.5V375.5z M358.6,371.9c0-0.2,0-0.4-0.1-0.6
			c-0.2-0.9-1-1.7-2.1-1.7c-1.5,0-2.5,1.3-2.5,3.2c0,1.6,0.8,3.1,2.4,3.1c1,0,1.8-0.6,2.1-1.6c0.1-0.2,0.1-0.5,0.1-0.7V371.9z"/>
		<path class="st1" d="M369.4,374.6c0,0.9,0,1.6,0.1,2.2h-1.3l-0.1-1.3h0c-0.4,0.7-1.3,1.5-2.7,1.5c-1.3,0-2.8-0.7-2.8-3.6v-4.8h1.5
			v4.6c0,1.6,0.5,2.6,1.8,2.6c1,0,1.7-0.7,2-1.4c0.1-0.2,0.1-0.5,0.1-0.8v-5h1.5V374.6z"/>
		<path class="st1" d="M371.9,371.1c0-1,0-1.8-0.1-2.6h1.3l0.1,1.6h0.1c0.4-1.1,1.3-1.8,2.3-1.8c0.2,0,0.3,0,0.4,0.1v1.4
			c-0.2,0-0.3-0.1-0.5-0.1c-1.1,0-1.8,0.8-2,1.9c0,0.2-0.1,0.4-0.1,0.7v4.4h-1.5V371.1z"/>
		<path class="st1" d="M381.9,376.8l-0.1-1h-0.1c-0.5,0.6-1.3,1.2-2.5,1.2c-1.7,0-2.5-1.2-2.5-2.4c0-2,1.8-3.1,4.9-3.1v-0.2
			c0-0.7-0.2-1.9-1.9-1.9c-0.8,0-1.6,0.2-2.1,0.6l-0.3-1c0.7-0.4,1.7-0.7,2.7-0.7c2.5,0,3.1,1.7,3.1,3.4v3.1c0,0.7,0,1.4,0.1,2
			H381.9z M381.7,372.6c-1.6,0-3.5,0.3-3.5,1.9c0,1,0.6,1.4,1.4,1.4c1.1,0,1.8-0.7,2-1.4c0.1-0.2,0.1-0.3,0.1-0.5V372.6z"/>
		<path class="st1" d="M385.6,370.8c0-0.9,0-1.5-0.1-2.2h1.3l0.1,1.4h0c0.4-0.8,1.4-1.5,2.7-1.5c1.1,0,2.9,0.7,2.9,3.5v4.9h-1.5
			v-4.7c0-1.3-0.5-2.4-1.9-2.4c-1,0-1.8,0.7-2,1.5c-0.1,0.2-0.1,0.4-0.1,0.7v4.9h-1.5V370.8z"/>
		<path class="st1" d="M394.6,375.9c0-0.6,0.4-1.1,1-1.1c0.6,0,1,0.4,1,1.1c0,0.6-0.4,1.1-1,1.1C395,377,394.6,376.5,394.6,375.9z"
			/>
		<path class="st1" d="M404.4,376.5c-0.4,0.2-1.3,0.5-2.4,0.5c-2.5,0-4.1-1.7-4.1-4.2c0-2.5,1.7-4.4,4.4-4.4c0.9,0,1.7,0.2,2.1,0.4
			l-0.3,1.2c-0.4-0.2-0.9-0.4-1.7-0.4c-1.9,0-2.9,1.4-2.9,3.1c0,1.9,1.2,3.1,2.9,3.1c0.8,0,1.4-0.2,1.8-0.4L404.4,376.5z"/>
		<path class="st1" d="M413.5,372.6c0,3-2.1,4.4-4.1,4.4c-2.2,0-3.9-1.6-3.9-4.2c0-2.8,1.8-4.4,4.1-4.4
			C411.9,368.4,413.5,370.1,413.5,372.6z M406.9,372.7c0,1.8,1,3.2,2.5,3.2c1.4,0,2.5-1.3,2.5-3.2c0-1.4-0.7-3.2-2.5-3.2
			S406.9,371.1,406.9,372.7z"/>
		<path class="st1" d="M415.4,370.8c0-0.9,0-1.5-0.1-2.2h1.3l0.1,1.3h0.1c0.5-0.8,1.2-1.5,2.6-1.5c1.1,0,2,0.7,2.3,1.6h0
			c0.3-0.5,0.6-0.8,0.9-1.1c0.5-0.4,1-0.6,1.8-0.6c1.1,0,2.7,0.7,2.7,3.6v4.8h-1.5v-4.7c0-1.6-0.6-2.5-1.8-2.5
			c-0.9,0-1.5,0.6-1.8,1.4c-0.1,0.2-0.1,0.5-0.1,0.7v5.1h-1.5v-4.9c0-1.3-0.6-2.3-1.7-2.3c-0.9,0-1.6,0.7-1.9,1.5
			c-0.1,0.2-0.1,0.5-0.1,0.7v5h-1.5V370.8z"/>
	</g>
</g>
<g id="Layer_4">
	<path class="st1" d="M368.9,110.4c7.7,16.2,11.5,25.3,11.5,27.3h-1.8l-2.4-1.8h-1.2l10.9,71l0.6,9.7l-0.6,3.6l0.6,0.6
		c0,21.4-9.1,37.6-27.3,48.6c-8.7,3.6-21.6,7.3-38.9,10.9l-0.6-0.6v-0.6c0.6-1.1,8.1-4.3,22.5-9.7c20.9-11.9,32.5-21.9,34.6-29.8
		c-1.7,0-3.3-3.6-4.9-10.9c-3.8-8.7-15.8-23.5-35.8-44.3c-13.9-13.6-24.4-26.4-31.6-38.3c-2.4-1.2-3.6-3.5-3.6-6.6v-3.6l0.6-3.1
		c8.6,3.8,16.3,8.6,23.1,14.6v0.6l-1.2,1.2l-5.4-1.2l-0.6,0.6v0.6c0.1,3.3,13.4,18.5,40.1,45.5c13.4,14.8,20.1,27.6,20.1,38.3v3.6
		l1.2,1.2c1.6-2.1,2.4-5.2,2.4-9.4c0-4.2-4.9-38.3-14.6-102.3l-1.9-5.5C365.9,113.8,367.4,110.4,368.9,110.4z M398.6,111h0.6
		c1.7,0,5.9,9.5,12.7,28.6v1.2h-1.2l-3.6-3.1h-1.8l10.9,85.7l1.2,13.4c0,9.4-1.8,17.7-5.5,24.9h-0.6l-0.6-0.6h-0.6l1.2-14.6
		l-15.8-126.3L398.6,111z M341.5,114.6v0.6l-1.8,12.7c0,3.5,1.2,6.1,3.6,7.9h1.2c1.2-0.3,1.8-1.7,1.8-4.3h1.9
		c-0.8,7.7-2,11.6-3.6,11.6h-2.4c-3.7-2.4-5.5-6.4-5.5-12.1C338.7,120.1,340.3,114.6,341.5,114.6z M192.8,115.8v1.2l-1.2,6.7v3.6
		c0,3.4,1.2,5.8,3.6,7.3h1.2c1,0,1.8-1.4,2.4-4.3h0.6l1.2,1.2c-1.6,6.9-3.4,10.4-5.4,10.4c-3.6,0-5.8-3.6-6.7-10.9
		C189.8,120.9,191.2,115.8,192.8,115.8z M450.2,115.8h2.4c0.9,0,1.9,1.6,3,4.9l-0.6,8.5v3.1c3.6,3.5,5.4,6.1,5.4,7.9l-0.6,3.1
		l-8.5-4.3c-14.2,13.4-23.5,20.1-27.9,20.1c-1.9,1.6-4,2.4-6.1,2.4v-0.6c0-0.6,8.5-6.9,25.5-18.8l4.2-4.9c0-1.2-1.4-4.1-4.2-8.5
		C445.1,120.1,447.5,115.8,450.2,115.8z M583.2,116.5c2.4,0,4.3,2.4,5.5,7.3l-1.2,3.6h-1.2c-2.5-2.4-4.5-3.6-6.1-3.6
		c-2.3,0-3.8,7.3-4.3,21.9l-1.8,10.3h-1.2c-6-12.5-11.9-18.8-17.6-18.8c-2.4-2.5-3.6-4.5-3.6-6.1c0.4-3.2,1.2-4.9,2.4-4.9h1.9
		c4.2,1.7,9.6,7.1,16.4,16.4h0.6c0-13.2,2.6-21.7,7.9-25.5L583.2,116.5z M626.9,118.2c4,0,6.1,6.3,6.1,18.9l3.6,4.2v3.1l-1.2,1.2
		h-1.2c-1.5-1.2-2.9-1.9-4.2-1.9h-1.2c-14.7,14.4-28.7,23.7-41.9,27.9l-4.2,0.6H582c0-0.8,8.5-6.2,25.5-16.4
		c8-5.4,13.9-10.3,17.6-14.6c-4-4.5-6.1-7.8-6.1-9.7C619,125.9,621.7,121.5,626.9,118.2z M93.8,118.9c4,2.6,6.1,5,6.1,7.3L98,128
		v0.6l-4.3-2.4H92l-1.2,1.2v12.1c0,8-2,18.6-6.1,31.6v3c0,3,1.2,4.6,3.6,4.9c1.2,0,1.8-0.6,1.8-1.8l0.6-0.6h0.6l1.2,1.2
		c0,4.4-1.8,7.1-5.4,7.9h-1.2c-2.3,0-3.8-3.2-4.3-9.7v-0.6c0-3.2,1.6-9.5,4.9-18.8v-2.4c-3.4-11.3-8-17-13.9-17
		c-4.5-2.3-6.7-4.7-6.7-7.3c0-3.7,1-5.5,3.1-5.5c3.3,0,9.4,5.5,18.2,16.4h0.6v-7.9C88.6,123.5,90.6,118.9,93.8,118.9z M283.2,118.9
		v2.4l-1.8,7.3v3c0,3.2,1.2,5.6,3.6,7.3h0.6c0.9,0,1.7-1.6,2.4-4.9h1.2v1.2h0.6c-1.6,6.9-3.4,10.4-5.5,10.4h-1.2
		c-3.2-2.6-4.9-5.9-4.9-9.7C280.1,124.6,281.7,118.9,283.2,118.9z M531.6,118.9l0.6,0.6v1.2c0,3.1-6.5,7.7-19.4,14
		c-23.2,14.1-35.3,21.2-36.4,21.2l-0.6-1.8c0-3.8,8.1-9.7,24.3-17.6C516.1,126.7,526.6,120.9,531.6,118.9z M155.1,119.5h1.2
		c4.5,10.1,8,31.4,10.3,63.8c2.9,36.1,5.9,57.2,9.1,63.2c4.4,5.7,8.9,8.5,13.4,8.5h3.6c6.5-0.3,9.7-1.3,9.7-3.1l-1.2-6.6V244
		c0-9.7,4.6-19,13.9-27.9l2.4-0.6h1.9c3.6,0,6.6,4.5,9.1,13.4v3.6l-3.6,16.4l0.6,0.6h6.1c7.7,0,15.2-4.5,22.4-13.4l1.2,1.2l-1.2,4.9
		c0,2.5,3.2,4.5,9.7,6.1c6.5,0,13-5,19.4-15.1h0.6l0.6,0.6h0.6l-1.2,4.9v2.4c1.2,2.4,3.5,3.6,6.6,3.6h0.6c4.1,0,7.3-4.6,9.7-13.9
		l1.8-1.9c0.8,0,1.2,2,1.2,6.1c3.4,3.7,6.6,5.5,9.7,5.5h4.9c3.1,0,4.9-0.8,5.5-2.4c0-2.8-4.3-10.9-12.8-24.3
		c-4.4-10.6-6.6-17.1-6.6-19.4l1.8-6.1h1.9c8.1,6.7,12.1,11.4,12.1,13.9h-0.6l-4.2-0.6v0.6c0,2.1,3.8,9.6,11.5,22.5l1.9,9.7v2.4
		c-1.2,10.1-4.9,15.1-10.9,15.1l-3.1,0.6c-4.6,0-9.3-2-13.9-6.1h-1.2c-3,6.9-6.8,10.3-11.6,10.3c-3.2,0-6.4-2-9.7-6.1
		c-6.1,6.1-12.2,9.1-18.2,9.1c-3.9-0.7-7.6-3.3-10.9-7.9h-0.6c-7.9,6.5-15.6,9.7-23.1,9.7c-4.7-1.2-9.4-1.8-14-1.8
		c-8.5,4.4-14.4,6.6-17.6,6.6l-4.3,0.6c-9.8,0-17.1-6.9-21.9-20.6c-2-6.4-4.8-32.1-8.5-77.2c-2-13.9-4.6-27.5-7.9-40.6
		C151.5,126.2,152.7,123.1,155.1,119.5z M265,119.5l1.2,2.4c0,3.7-7.7,8.7-23.1,15.2l-65.6,36.4v-0.6c0-5.5,6.7-11.3,20.1-17.6
		c7.1-5.2,26.2-15.5,57.1-31L265,119.5z M447.2,126.2c0.3,1.1,1.3,2.1,3.1,3h1.8v-3c0-2.1-0.8-3.3-2.4-3.6
		C448,122.9,447.2,124.1,447.2,126.2z M120.5,123.1h0.6l-3.1,9.7v3.6c0,3.5,1.2,6.1,3.6,7.9h3.1l0.6-2.4h0.6l1.2,1.2
		c0,3.7-1.4,6.5-4.3,8.5h-2.4c-3.6-2.5-5.4-6.3-5.4-11.6C115,132.5,116.9,126.8,120.5,123.1z M622.7,128c0,2.3,1.6,4.1,4.9,5.5h0.6
		c0.8,0,1.2-0.6,1.2-1.9c0-3-1-5-3-6.1h-1.2L622.7,128z M58,155.3h1.8v0.6c-4,15-6.1,23.7-6.1,26.2v7.9c1.1,7.3,3.6,10.9,7.3,10.9
		l3.6-6.6l1.2,1.2v0.6c0,7.6-3,13-9.1,16.4c-2.4,5.8-3.6,12.3-3.6,19.4v0.6c0,12.5,7.1,21,21.2,25.5l5.5,0.6h6.1
		c18.8,0,38.2-9.5,58.3-28.6l0.6-2.4c0-3.6-3.6-6.4-10.9-8.5l-9.7,0.6c-8.1-0.9-12.1-4.4-12.1-10.4c0-11,5.1-17.9,15.2-20.6
		c8.7,0,15.8,8.5,21.2,25.5l1.2,9.1v0.6c0,11.6-5,20.1-15.1,25.5c-16.8,14.2-34.2,21.3-52.2,21.3c-15,0-25.5-6.5-31.6-19.4
		l-3.1-12.1c0-7.3,2.2-17.1,6.7-29.1v-0.6c-3.7-6.8-5.5-12.5-5.5-17C48.8,184.9,51.9,172.5,58,155.3z M538.9,155.3v0.6
		c-1.6,4.2-2.4,8.1-2.4,11.6v2.4c0,4.4,1.6,6.6,4.9,6.6h0.6c0.9,0,1.7-1.6,2.4-4.9h1.2v1.9c0,4.3-1.8,7.7-5.4,10.3h-1.2
		c-4-2.8-6.1-6.6-6.1-11.5C534.9,162.2,536.9,156.5,538.9,155.3z M240.1,157.7h0.6l-1.8,12.1v0.6c0,5,2,7.9,6.1,8.5l3-4.9h0.6v3.1
		c0,3.6-1.6,6.5-4.9,8.5h-0.6c-4.9-0.8-7.3-4.9-7.3-12.1C237.2,163,238.7,157.7,240.1,157.7z M460.5,160.2c5.7,2.3,8.5,5.7,8.5,10.3
		c-2.3,4-4.1,6.1-5.4,6.1l-7.9-5.4h-1.8c-1,3-2.6,5.4-4.9,7.3c-2.3,0-5.8-2.6-10.4-7.9c2-5.7,4-8.5,6.1-8.5l9.1,4.9
		C455.9,162.4,458.1,160.2,460.5,160.2z M297.8,162h1.9c5.2,2.9,7.9,5.3,7.9,7.3c0,3.4-1.4,6.2-4.2,8.5h-1.9
		c-3.1-1.8-5.9-4.2-8.5-7.3C294.8,164.8,296.4,162,297.8,162z M629.3,162v0.6l-3,9.7v1.8c0.6,4.5,1.6,6.7,3,6.7h1.2
		c1.6-0.9,2.4-1.9,2.4-3.1h1.2v0.6c-1,6.5-3.2,9.7-6.6,9.7c-2.9-2.8-4.3-6.4-4.3-10.8S625.3,167.7,629.3,162z M128.4,163.2
		c3.9,1.6,7.2,4,9.7,7.3c0,2.2-1.8,5-5.5,8.5l-8.5-4.2h-0.6l-6.1,6.1c-5.9-2.7-9.1-4.7-9.7-6.1v-1.2c1.3-5.3,3.2-7.9,5.4-7.9
		l9.1,4.3C125.3,165.4,127.3,163.2,128.4,163.2z M495.7,172.9c8.5,8.1,12.8,13,12.8,14.6c-3.2,0.4-4.9,1.1-4.9,1.9
		c6.5,11,9.7,18.6,9.7,23.1v4.2c0,9.1-5.3,17.2-15.8,24.3c-1.6,3.3-2.4,6.3-2.4,9.1c0,9,3.2,15,9.7,18.2l6.6,1.8h6.1
		c12.8,0,29-10.7,48.6-32.1l0.6-2.4v-1.2l-1.2-1.2h-1.2l-17,1.8c-7,0-10.9-4.5-11.6-13.4v-1.2c0-6.7,4-12.1,12.1-16.4l1.9-0.6
		c5.9,0,11.8,4,17.6,12.1l2.4,2.4h1.2c4.2-1.9,10.7-6.2,19.4-12.7h0.6c1.6,0,2.4,3.6,2.4,10.9c3.7,4.9,7.8,7.3,12.1,7.3h3.6
		c6.5,0,12.6-5.7,18.2-17l1.8-2.4l0.6-0.6h0.6l1.2,1.2l-2.4,7.3v0.6c2.5,4.4,7,6.6,13.4,6.6h2.4l1.9-1.8l-3.1-8.5
		c1.2-5.3,2.4-7.9,3.6-7.9s2.8,3.6,4.9,10.9v1.2c0,9.9-3.2,15.9-9.7,18.2H639c-4.2,0-8.8-2.6-13.9-7.9h-1.2
		c-6.1,7.7-12.4,11.5-18.9,11.5c-8.1,0-13.8-4.6-17-13.9v-1.2h-0.6c-10.1,4.5-15.2,9.6-15.2,15.1c0,9.3-8.5,20.4-25.5,33.4
		c-6.5,5.8-15.8,10.5-27.9,13.9h-2.4c-11.4,0-19.3-5-23.6-15.1l-1.9-8.5l0.6-4.9l-0.6-0.6v-0.6l0.6-2.4v-1.9l-1.2-1.2
		c-26.8,17.4-46,26.2-57.7,26.2l-23.6,4.9l-0.6-0.6v-0.6c2.5-1.8,13.6-6.5,33.4-14c26.8-13.3,48.4-27,64.9-41.3l1.9-3.6
		c0-1.2-3.5-8.5-10.4-21.9l-5.4-14.6C493.8,175.7,494.8,172.9,495.7,172.9z M469.7,181.4h1.8v0.6c0,5.6-3.4,12.6-10.3,21.2v1.2
		c8.1,6.2,12.1,11.7,12.1,16.4c0,11.1-5.7,18.5-17,22.4c-1.5,1.2-3.5,1.9-6.1,1.9h-0.6c-5.1,0-8-3.2-8.5-9.7
		c0-6.9,1.8-14.8,5.5-23.7v-1.2c-10.1-9.3-15.2-15.2-15.2-17.6v-3.6c0-3.2,0.8-4.9,2.4-4.9l15.2,7.9l-3.1,3.1c0.4,1,2.4,2.8,6.1,5.4
		h0.6C455.3,200.8,460.9,194.3,469.7,181.4z M268.6,183.8h1.9c4.4,3.1,6.6,5.6,6.6,7.5s-1.6,4.5-4.9,7.7c-2.3,0-5.1-2.2-8.5-6.7
		C263.8,189.4,265.4,186.6,268.6,183.8z M222.5,192.3c4.3,2.2,7.3,4.6,9.1,7.3v3.1c-2.1,3.6-3.9,5.6-5.5,6.1l-9.7-5.5l-5.4,5.5
		c-2.8,0-6.2-2.2-10.4-6.7v-0.6c0-3.7,1.4-6.5,4.3-8.5h0.6c1.9,0,4.9,1.8,9.1,5.4c2,0,4-1.8,6.1-5.4L222.5,192.3z M280.2,197.8h0.6
		c5,2.8,7.8,5.6,8.5,8.5c0,2-2.2,4.4-6.6,7.3c-4.4-3.2-7.2-4.9-8.5-4.9l-5.5,6.6h-1.8c-4.7-2.9-7.6-5.1-8.5-6.6
		c0-2.7,1.8-5.5,5.4-8.5c1.3,0,4.2,1.4,8.5,4.2h1.9L280.2,197.8z M119.9,205.1c0.6,1.6,2.1,2.4,4.2,2.4l9.1-0.6v-1.2
		c-1.9-2.8-4.3-4.2-7.1-4.2C123.4,201.5,121.3,202.7,119.9,205.1z M452.7,214.8c-4.7,5.5-7.1,10.3-7.3,14.6c0.7,2.2,2.1,3.6,4.2,4.2
		c6,0,11.9-3,17.6-9.1v-1.2C461.7,218.5,456.9,215.6,452.7,214.8z M347,214.8l0.6,0.6v3.6l-1.2,4.9v3.1c0,3.1,1.6,5.2,4.9,6.1
		l3.1-4.3h0.6v1.2h0.6c-1.4,6.5-3.6,9.7-6.7,9.7c-2.5,0-4.6-3.4-6.1-10.3C342.7,224.5,344.1,219.7,347,214.8z M543.7,220.9l5.4,1.8
		h1.9c4.4,0,6.6-0.6,6.6-1.8c-1.8-2.9-3.8-4.3-6.1-4.3h-4.9C544.7,217.4,543.7,218.8,543.7,220.9z M92,216.6L91.3,227v1.8
		c0,2.5,1.4,4.7,4.3,6.7h0.6c2.1-1.2,3.1-2.7,3.1-4.3h1.2c0,5-1.4,8.5-4.3,10.4h-3c-3.2-2.1-4.9-6-4.9-11.6v-1.8
		C89.5,220.5,90.7,216.6,92,216.6z M206.7,239.1c0,2.3,2,4.5,6.1,6.6h0.6c3,0,6.3-2.6,9.7-7.9V236c-1.4-5.7-3.6-8.5-6.7-8.5
		C212.6,227.5,209.3,231.4,206.7,239.1z M637.3,245.2h0.6v2.4c-1.5,8.1-4.3,12.1-8.5,12.1l-4.9-1.2h-0.6l-7.9,3.6l-6.6-2.4h-2.4
		c-2.3,0-10,4.2-23.1,12.7l-9.1,2.4h-0.6v-0.6l6.1-3.1c16-12.1,26.3-18.2,30.9-18.2l6.1,2.4h1.9c2.4,0,5-2,7.9-6.1l3.6,3.6h2.4
		c1.2-0.2,1.9-1.8,1.9-4.9L637.3,245.2z M159.3,260.3l1.9,0.6v1.2c0,3.6-7.3,7.6-21.9,12.1c-0.8,1.6-8.7,5-23.7,10.3V284l-0.6-0.6
		c0-3.2,5.3-6.5,15.8-9.7L159.3,260.3z M295.4,261h1.2v0.6c0,3.8-6.9,7.8-20.6,12.1c-0.8,1.1-3.6,2.3-8.5,3.6l-12.1,6.1l-1.8-0.6
		v-0.6c0-4.1,10.3-9.6,30.9-16.4C290,262.6,293.6,261,295.4,261z"/>
</g>
</svg>
