<?xml version="1.0" encoding="utf-8"?>
<!-- Generator: Adobe Illustrator 25.2.3, SVG Export Plug-In . SVG Version: 6.00 Build 0)  -->
<svg version="1.1" xmlns="http://www.w3.org/2000/svg" xmlns:xlink="http://www.w3.org/1999/xlink" x="0px" y="0px"
	 viewBox="0 0 700 395" style="enable-background:new 0 0 700 395;" xml:space="preserve">
<style type="text/css">
	.st0{fill:#000222;}
	.st1{fill:#FFFFFF;}
</style>
<g id="Layer_1">
	<rect class="st0" width="700" height="395"/>
</g>
<g id="Layer_3">
	<g>
		<path class="st1" d="M273.5,368.6l1.1,4.2c0.2,0.9,0.5,1.8,0.6,2.6h0.1c0.2-0.8,0.5-1.7,0.7-2.6l1.3-4.2h1.3l1.3,4.1
			c0.3,1,0.5,1.9,0.7,2.7h0.1c0.1-0.8,0.4-1.7,0.6-2.7l1.2-4.1h1.5l-2.7,8.2H280l-1.3-3.9c-0.3-0.9-0.5-1.7-0.7-2.7h0
			c-0.2,1-0.5,1.8-0.7,2.7l-1.3,3.9h-1.4l-2.5-8.2H273.5z"/>
		<path class="st1" d="M286.3,368.6l1.1,4.2c0.2,0.9,0.5,1.8,0.6,2.6h0.1c0.2-0.8,0.5-1.7,0.7-2.6l1.3-4.2h1.3l1.3,4.1
			c0.3,1,0.5,1.9,0.7,2.7h0.1c0.1-0.8,0.4-1.7,0.6-2.7l1.2-4.1h1.5l-2.7,8.2h-1.4l-1.3-3.9c-0.3-0.9-0.5-1.7-0.7-2.7h0
			c-0.2,1-0.5,1.8-0.7,2.7l-1.3,3.9h-1.4l-2.5-8.2H286.3z"/>
		<path class="st1" d="M299,368.6l1.1,4.2c0.2,0.9,0.5,1.8,0.6,2.6h0.1c0.2-0.8,0.5-1.7,0.7-2.6l1.3-4.2h1.3l1.3,4.1
			c0.3,1,0.5,1.9,0.7,2.7h0.1c0.1-0.8,0.4-1.7,0.6-2.7l1.2-4.1h1.5l-2.7,8.2h-1.4l-1.3-3.9c-0.3-0.9-0.5-1.7-0.7-2.7h0
			c-0.2,1-0.5,1.8-0.7,2.7l-1.3,3.9h-1.4l-2.5-8.2H299z"/>
		<path class="st1" d="M309.9,375.9c0-0.6,0.4-1.1,1-1.1c0.6,0,1,0.4,1,1.1c0,0.6-0.4,1.1-1,1.1C310.3,377,309.9,376.5,309.9,375.9z
			"/>
		<path class="st1" d="M313.5,375.3c0.4,0.3,1.2,0.6,2,0.6c1.1,0,1.6-0.5,1.6-1.2c0-0.7-0.4-1.1-1.5-1.5c-1.5-0.5-2.2-1.3-2.2-2.3
			c0-1.3,1.1-2.4,2.8-2.4c0.8,0,1.6,0.2,2,0.5l-0.4,1.1c-0.3-0.2-0.9-0.5-1.7-0.5c-0.9,0-1.4,0.5-1.4,1.1c0,0.7,0.5,1,1.6,1.4
			c1.4,0.5,2.2,1.3,2.2,2.5c0,1.4-1.1,2.5-3.1,2.5c-0.9,0-1.7-0.2-2.3-0.6L313.5,375.3z"/>
		<path class="st1" d="M327.4,374.6c0,0.9,0,1.6,0.1,2.2h-1.3l-0.1-1.3h0c-0.4,0.7-1.3,1.5-2.7,1.5c-1.3,0-2.8-0.7-2.8-3.6v-4.8h1.5
			v4.6c0,1.6,0.5,2.6,1.8,2.6c1,0,1.7-0.7,2-1.4c0.1-0.2,0.1-0.5,0.1-0.8v-5h1.5V374.6z"/>
		<path class="st1" d="M329.8,371.1c0-1,0-1.8-0.1-2.6h1.3l0.1,1.6h0.1c0.4-1.1,1.3-1.8,2.3-1.8c0.2,0,0.3,0,0.4,0.1v1.4
			c-0.2,0-0.3-0.1-0.5-0.1c-1.1,0-1.8,0.8-2,1.9c0,0.2-0.1,0.4-0.1,0.7v4.4h-1.5V371.1z"/>
		<path class="st1" d="M339.9,376.8l-0.1-1h-0.1c-0.5,0.6-1.3,1.2-2.5,1.2c-1.7,0-2.5-1.2-2.5-2.4c0-2,1.8-3.1,4.9-3.1v-0.2
			c0-0.7-0.2-1.9-1.9-1.9c-0.8,0-1.6,0.2-2.1,0.6l-0.3-1c0.7-0.4,1.7-0.7,2.7-0.7c2.5,0,3.1,1.7,3.1,3.4v3.1c0,0.7,0,1.4,0.1,2
			H339.9z M339.7,372.6c-1.6,0-3.5,0.3-3.5,1.9c0,1,0.6,1.4,1.4,1.4c1.1,0,1.8-0.7,2-1.4c0.1-0.2,0.1-0.3,0.1-0.5V372.6z"/>
		<path class="st1" d="M343.5,364.7h1.5v5.1h0c0.2-0.4,0.6-0.8,1.1-1.1c0.4-0.3,1-0.4,1.5-0.4c1.1,0,2.9,0.7,2.9,3.5v4.9H349v-4.7
			c0-1.3-0.5-2.4-1.9-2.4c-1,0-1.7,0.7-2,1.5c-0.1,0.2-0.1,0.4-0.1,0.7v5h-1.5V364.7z"/>
		<path class="st1" d="M358.6,375.5L358.6,375.5c-0.5,0.8-1.4,1.5-2.7,1.5c-1.9,0-3.5-1.7-3.5-4.2c0-3.1,2-4.4,3.7-4.4
			c1.3,0,2.1,0.6,2.5,1.4h0l0.1-1.2h1.4c0,0.7-0.1,1.4-0.1,2.3v9.3h-1.5V375.5z M358.6,371.9c0-0.2,0-0.4-0.1-0.6
			c-0.2-0.9-1-1.7-2.1-1.7c-1.5,0-2.5,1.3-2.5,3.2c0,1.6,0.8,3.1,2.4,3.1c1,0,1.8-0.6,2.1-1.6c0.1-0.2,0.1-0.5,0.1-0.7V371.9z"/>
		<path class="st1" d="M369.4,374.6c0,0.9,0,1.6,0.1,2.2h-1.3l-0.1-1.3h0c-0.4,0.7-1.3,1.5-2.7,1.5c-1.3,0-2.8-0.7-2.8-3.6v-4.8h1.5
			v4.6c0,1.6,0.5,2.6,1.8,2.6c1,0,1.7-0.7,2-1.4c0.1-0.2,0.1-0.5,0.1-0.8v-5h1.5V374.6z"/>
		<path class="st1" d="M371.9,371.1c0-1,0-1.8-0.1-2.6h1.3l0.1,1.6h0.1c0.4-1.1,1.3-1.8,2.3-1.8c0.2,0,0.3,0,0.4,0.1v1.4
			c-0.2,0-0.3-0.1-0.5-0.1c-1.1,0-1.8,0.8-2,1.9c0,0.2-0.1,0.4-0.1,0.7v4.4h-1.5V371.1z"/>
		<path class="st1" d="M381.9,376.8l-0.1-1h-0.1c-0.5,0.6-1.3,1.2-2.5,1.2c-1.7,0-2.5-1.2-2.5-2.4c0-2,1.8-3.1,4.9-3.1v-0.2
			c0-0.7-0.2-1.9-1.9-1.9c-0.8,0-1.6,0.2-2.1,0.6l-0.3-1c0.7-0.4,1.7-0.7,2.7-0.7c2.5,0,3.1,1.7,3.1,3.4v3.1c0,0.7,0,1.4,0.1,2
			H381.9z M381.7,372.6c-1.6,0-3.5,0.3-3.5,1.9c0,1,0.6,1.4,1.4,1.4c1.1,0,1.8-0.7,2-1.4c0.1-0.2,0.1-0.3,0.1-0.5V372.6z"/>
		<path class="st1" d="M385.6,370.8c0-0.9,0-1.5-0.1-2.2h1.3l0.1,1.4h0c0.4-0.8,1.4-1.5,2.7-1.5c1.1,0,2.9,0.7,2.9,3.5v4.9h-1.5
			v-4.7c0-1.3-0.5-2.4-1.9-2.4c-1,0-1.8,0.7-2,1.5c-0.1,0.2-0.1,0.4-0.1,0.7v4.9h-1.5V370.8z"/>
		<path class="st1" d="M394.6,375.9c0-0.6,0.4-1.1,1-1.1c0.6,0,1,0.4,1,1.1c0,0.6-0.4,1.1-1,1.1C395,377,394.6,376.5,394.6,375.9z"
			/>
		<path class="st1" d="M404.4,376.5c-0.4,0.2-1.3,0.5-2.4,0.5c-2.5,0-4.1-1.7-4.1-4.2c0-2.5,1.7-4.4,4.4-4.4c0.9,0,1.7,0.2,2.1,0.4
			l-0.3,1.2c-0.4-0.2-0.9-0.4-1.7-0.4c-1.9,0-2.9,1.4-2.9,3.1c0,1.9,1.2,3.1,2.9,3.1c0.8,0,1.4-0.2,1.8-0.4L404.4,376.5z"/>
		<path class="st1" d="M413.5,372.6c0,3-2.1,4.4-4.1,4.4c-2.2,0-3.9-1.6-3.9-4.2c0-2.8,1.8-4.4,4.1-4.4
			C411.9,368.4,413.5,370.1,413.5,372.6z M406.9,372.7c0,1.8,1,3.2,2.5,3.2c1.4,0,2.5-1.3,2.5-3.2c0-1.4-0.7-3.2-2.5-3.2
			S406.9,371.1,406.9,372.7z"/>
		<path class="st1" d="M415.4,370.8c0-0.9,0-1.5-0.1-2.2h1.3l0.1,1.3h0.1c0.5-0.8,1.2-1.5,2.6-1.5c1.1,0,2,0.7,2.3,1.6h0
			c0.3-0.5,0.6-0.8,0.9-1.1c0.5-0.4,1-0.6,1.8-0.6c1.1,0,2.7,0.7,2.7,3.6v4.8h-1.5v-4.7c0-1.6-0.6-2.5-1.8-2.5
			c-0.9,0-1.5,0.6-1.8,1.4c-0.1,0.2-0.1,0.5-0.1,0.7v5.1h-1.5v-4.9c0-1.3-0.6-2.3-1.7-2.3c-0.9,0-1.6,0.7-1.9,1.5
			c-0.1,0.2-0.1,0.5-0.1,0.7v5h-1.5V370.8z"/>
	</g>
</g>
<g id="Layer_4">
	<path class="st1" d="M531.8,111.3c4,1.6,6,4,6,7.2l-1.2,3.6h-1.2l-4.2-3.1h-1.8c-2,1.1-3,2.7-3,4.8v9.1
		c-0.6,11.6-1.6,17.4-3.1,17.4h-0.6c-5.9-10.8-10.5-16.2-13.9-16.2c-2.8,0-5.7-2.4-8.4-7.2c1-3.6,2-5.5,3.1-5.5
		c5.6,1,11.6,6.2,18.1,15.7h1.2v-9.6C522.8,120,525.8,114.6,531.8,111.3z M574.7,111.8c4.6,0,7.2,6,7.8,18.1c2,2.4,3.2,4.6,3.6,6.7
		c-0.8,1.8-1.6,2.8-2.4,3l-4.8-3c-18.6,17.8-34.1,27.8-46.4,30.2v-1.2c18-11.4,31.2-20.8,39.8-28.4l1.2-3c-4-4.2-6-6.9-6-7.9v-0.6
		C567.4,119.9,569.8,115.3,574.7,111.8z M278.5,114.2c3.4,0,5.8,3.2,7.2,9.6l-0.6,10.3c0,0.8,2.2,3.2,6.6,7.2v1.8
		c0,3.1-0.8,4.9-2.4,5.5h-0.6l-6-4.3h-2.4l-11.5,15.1c-5,5.1-13.4,11.1-25.3,18.1L243,177c0-0.8,8.4-9,25.3-24.7
		c5.2-5.4,7.8-9.2,7.8-11.5c-6.4-2.9-9.6-7-9.6-12.1C268.9,119.1,272.9,114.2,278.5,114.2z M401.5,114.2h1.2c1.4,0,2.4,2.2,3.1,6.7
		v3.6l-0.6,6c3.8,3.4,5.8,5.6,6,6.6v2.4l-1.2,1.2c-1.4,0-3.4-1-6-3h-2.4c-10.3,11.2-19.7,17.8-28.3,19.9h-0.6v-1.2l23.6-18.7
		l1.2-1.8v-1.8c-2.8-3.6-4.3-6.2-4.3-7.9C395,118.3,397.8,114.2,401.5,114.2z M480.6,115.4h1.2v1.2c0,3.8-10.7,11.4-32,22.9
		l-21.1,13.3h-1.8v-2.4c0-3,6.6-8,19.9-15C467.9,122.1,479.1,115.4,480.6,115.4z M325.6,117.3c6.1,9.5,10.7,18.1,13.9,25.9l-0.6,1.8
		h-0.6L334,142h-1.2v1.2l12.1,70.6v4.2c0,12.3-4.2,20.1-12.6,23.6l-6.7,1.8c-5.5,0-11.5-3.8-18.1-11.4c-4.2-2.4-8.4-3.6-12.6-3.6
		c-7.6,0.5-17.4,5.7-29.6,15.7l-28.9,33.1c-4.6,4.4-9.6,6.7-15,6.7c-6.8-2.1-11.6-6-14.5-11.5l-2.4-8.4l0.6-0.6v-7.9L182,268.1
		l-43.4,12.1h-1.8v-0.6c2.3-2.6,11.7-7.2,28.3-13.8c20.8-10.5,40.5-23.8,59.1-39.8c8.8-8,13.3-13.4,13.3-16.3V209
		c-1.7-3.6-5.1-5.5-10.2-5.5l-8.4,1.2c-8-1.1-12.1-5.1-12.1-12.1c0-9.8,4.6-16,13.8-18.7c10.2,0,17.6,9,22.4,27.1
		c0,15-6,26.9-18.1,35.6c-10.1,8.1-15.1,14.9-15.1,20.5l-0.6,7.8c1.1,6.1,3.7,9.1,7.8,9.1h2.4c6.8,0,20.4-13.5,41-40.4
		c14.5-12.1,26.6-18.1,36.2-18.1h1.2c6.8,0,13.6,4.2,20.5,12.7c2.6,1.2,5.3,1.8,7.9,1.8h1.2c6.5,0,10.3-3,11.4-9v-1.2l-16.9-93.5
		C323,120.3,324.2,117.3,325.6,117.3z M235.1,117.9h0.6c3.6,1.9,5.4,4.7,5.4,8.4c-0.6,1.6-1.2,2.4-1.8,2.4l-4.8-3.6h-1.2l-1.8,1.8
		v12.6c-0.7,8-1.9,12.1-3.6,12.1c-6.3-12.1-12.7-18.1-19.3-18.1c-2.4-1.6-3.6-3.6-3.6-6c0.8-3.2,1.6-4.8,2.4-4.8h1.2
		c4.4,1.3,10.1,5.9,16.9,13.9c0.2,1.6,0.8,2.4,1.8,2.4l0.6-0.6h0.6l-0.6-6C227.9,122.7,230.3,117.9,235.1,117.9z M352.7,117.9h1.2
		c9.2,15.5,13.8,25.6,13.8,30.2h-0.6c-1.4,0-2.8-0.6-4.3-1.8h-1.2v0.6c6.4,37.5,10.5,64.1,12.1,79.6v4.8c0,10-1.6,16.6-4.8,19.9
		h-0.6l-0.6-3.1l0.6-0.6v-1.8l-0.6-2.4l0.6-2.4v-1.8l-0.6-0.6l0.6-0.6v-0.6c0-7.8-5.6-43.2-16.9-106.1c-0.8,0-1.2-1-1.2-3
		L352.7,117.9z M571.6,121.5c0,2.1,1.6,4,4.8,5.5h1.2v-1.8c0-3.1-0.8-4.9-2.4-5.4h-1.8L571.6,121.5z M128.4,120.3
		c34.9,0,52.4,1.4,52.4,4.3c0,7.5-7.4,14.1-22.3,19.9c-1,1.2-4.4,3.2-10.3,6c-14.5,8.5-21.7,14.1-21.7,16.9c0,1.8-2,3-6,3.6
		l-3.6,7.2l6,1.2l45.3-3c16.5,1.7,24.7,9.1,24.7,22.3v5.5c0,11.3-5.8,24.3-17.4,39.2c-11,11.7-23.5,17.5-37.4,17.5
		c-11.4,0-20.9-5.2-28.4-15.7c-4.8-9.8-7.2-19-7.2-27.5c0-8.5,1-19.4,3.1-32.8l-6.7-7.2V177l0.6-0.6v-0.6l8.4,1.2h0.6
		c1.1,0,4.1-5,9.1-15C103.9,151.5,97,145.2,97,143.2l-0.6-5.4C96.4,127.9,107.1,122.1,128.4,120.3z M397.4,123.3v0.6l3.6,3.6
		l1.2-1.2v-3l-1.8-1.8h-1.2L397.4,123.3z M272.5,125.7v0.6c2.5,3.2,4.9,4.8,7.2,4.8v-3c0-2.2-1-3.8-3-4.8h-1.8L272.5,125.7z
		 M103.1,138.4l20.5,16.9h1.2c5.5-4.3,15.7-10.9,30.7-19.9l0.6-0.6v-1.2l-19.9-1.2C114.1,132.8,103.1,134.8,103.1,138.4z
		 M195.3,135.9v1.2l-2.4,12.7c0,5.6,1.8,8.4,5.5,8.4l3-4.3h0.6c0,5.4-1.8,9.2-5.5,11.5c-3.4,0-5.6-4-6.6-12.1
		c0.9-7.5,2.3-13.3,4.2-17.5H195.3z M489,150.4v1.2c-1.6,5.3-2.4,9.1-2.4,11.5c0.5,5.6,2.5,8.4,6,8.4l3-4.8h0.6v0.6
		c0,7.7-2.2,11.5-6.7,11.5c-4-2.2-6-5.4-6-9.6v-2.4C483.6,161.4,485.4,156,489,150.4z M307.5,152.3c3.1,0,5.1,5.2,6,15.7
		c3.6,2.7,5.5,5.3,5.5,7.8v0.6l-1.8,1.8c-2.6-2.4-4.8-3.6-6.6-3.6c-11.4,14.9-25.5,25.8-42.2,32.6h-1.2v-0.6
		c0-0.8,11.4-9.6,34.3-26.5l4.8-6.7v-1.2c-3.6-3.5-5.4-6.1-5.4-7.8v-1.8C300.9,158.1,303.1,154.7,307.5,152.3z M577.6,154.7h0.6
		l0.6,0.6h0.6c-2,3.3-3.1,7-3.1,10.9s1,6.3,3.1,7.2h0.6c1.6-0.8,2.4-1.8,2.4-3h1.8v0.6c-0.9,6.1-3.1,9.1-6.7,9.1
		c-1.9,0-3.5-3-4.8-9.1C572.9,167,574.5,161.5,577.6,154.7z M410.6,156.5c1.9,0.3,5.1,3.1,9.6,8.4v1.8c0,2.1-1.6,4.6-4.8,7.2h-0.6
		l-6.6-4.8h-2.4l-5.5,6.6c-6.4-2.6-9.6-5.2-9.6-7.8h-0.6c1.9-5.6,3.5-8.4,4.8-8.4h1.8l7.2,4.8c0.8,0,2.6-2.4,5.5-7.2h1.2V156.5z
		 M304.5,162.5c1.4,1.2,2.8,1.8,4.2,1.8l0.6-0.6v-2.4l-2.4-2.4C305.3,159.3,304.5,160.5,304.5,162.5z M446.8,169.2l12.6,12.6v1.8h-3
		l-1.2,1.2l8.4,15.7c1.2,3.5,1.8,6.5,1.8,9c0,10.2-4.4,18.6-13.3,25.3c-2.8,2-4.2,5.7-4.2,10.9c0,9.5,4.4,16,13.3,19.3l4.2,0.6
		c16,0,33.1-10.9,51.3-32.6c1.2-1.4,1.8-2.9,1.8-4.3v-1.2l-1.2-1.2h-0.6l-16.3,3.1c-8.8-1.2-13.3-5.6-13.3-13.3v-2.4
		c3.5-10.9,8.4-16.3,14.5-16.3c5.8,0,12.2,4.6,19.3,13.9h0.6c4-1.2,10.6-5.4,19.9-12.7h2.4c0,8.1,2.6,13.5,7.9,16.3l3,0.6h3.1
		c9.1,0,16.1-6.4,21.1-19.3l1.8-1.2l1.2,1.2v0.6l-1.8,7.2v0.6c3.2,4,7.9,6,13.9,6c2.4,0,3.6-0.8,3.6-2.4l-3.1-7.2l1.8-8.4h1.2
		c1.7,0,3.7,4.4,6,13.3c-1.7,10.9-4.3,16.3-7.9,16.3l-5.4,0.6c-4.9,0-10-2.6-15.1-7.8h-0.6c-5.2,8.4-11.5,12.6-18.9,12.6
		c-7.4,0-13-4.8-16.7-14.5l-0.6-0.6h-0.6c-8.8,6.2-13.3,10.4-13.3,12.6c0,11.1-6.8,22.2-20.5,33.2c-13.2,12.9-25.9,19.3-38,19.3
		c-9.3,0-16.2-5.4-20.5-16.3c-0.8-1.3-1.4-4.6-1.8-9.6l0.6-8.4h-1.2c-26.5,18.1-44.8,27.2-54.9,27.2l-25.9,6l-0.6-0.6v-0.6
		c2-1.9,12.3-6.5,30.8-13.9c18.4-9.1,39.3-22.7,62.7-41c3.2-3.3,4.8-5.9,4.8-7.8c-7.8-15.1-12.6-25.6-14.5-31.4
		c-0.7,0-1.1-1.4-1.2-4.3v-1.8C444.9,171.2,445.7,169.2,446.8,169.2z M422,178.2h1.2v0.6c0,4.9-3,11.6-9,19.9l-0.6,3.1
		c8,5.8,12.1,11.2,12.1,16.2c0,11.2-6.2,18.8-18.7,22.9l-0.6,0.6c-2.4,0.3-3.6,0.7-3.6,1.2c-6,0-9-4-9-12s1.8-14.8,5.4-20.6v-0.6
		c0-1.7-4.2-6.3-12.6-13.8c-2-2.1-3.1-3.9-3.1-5.5v-4.8l0.6-3h0.6c10.5,3.8,15.7,6.2,15.7,7.2v0.6c0,0.8-0.6,1.2-1.8,1.2l-0.6,0.6
		v0.6c1.2,1.9,3.5,3.8,6.7,5.5c2,0,5.2-3.4,9.6-10.3L422,178.2z M214,190.2c1.4,1.2,2.8,1.8,4.2,1.8h1.2l7.2-1.2v-1.2
		c-0.9-2-2.9-3.1-6-3.1h-1.8C215.9,186.6,214.3,187.8,214,190.2z M111.5,187.8c-3.2,5.6-4.8,12.3-4.8,19.9
		c0,22.7,8.8,35.9,26.5,39.8l6.6,0.6c12.5,0,23.4-4.8,32.6-14.5c10.9-10.8,16.3-20.6,16.3-29.5c-3.2-10.1-9.9-15.1-19.9-15.1
		l-6.6-0.6l-35,1.2l-0.6,0.6H126L111.5,187.8z M144.1,198.1c7.2,3.1,10.9,5.7,10.9,7.8c-1.2,3.8-2.7,6.4-4.3,7.9h-2.4
		c-6.4-3.1-9.6-5.7-9.6-7.9C140.4,200.7,142.2,198.1,144.1,198.1z M495.6,213.8v0.6c0,1.4,2.6,2.3,7.9,2.4c3.6-0.3,5.4-0.9,5.4-1.8
		c0-1.6-2.2-3-6.6-4.3h-1.8C498.2,210.7,496.6,211.7,495.6,213.8z M398.6,223.4v4.2l2.4,2.4h4.2c9.3-3.1,13.9-6.5,13.9-10.2
		c-2.1-2.5-6.1-5.1-12.1-7.9C404.4,211.9,401.6,215.8,398.6,223.4z M170,213.8h0.6v3.6c-1.6,2.4-15.3,8.6-41,18.7l-0.6-0.6v-0.6
		c0-3.4,3.4-6,10.3-7.8C157.2,218.2,167.5,213.8,170,213.8z M349.1,236.7v0.6l-1.8,11.5v3.6l3.1,3.6h0.6c1.6-0.8,2.4-1.8,2.4-3.1
		h1.2l0.6,1.8c-1.6,5.2-3.8,7.8-6.7,7.8c-3.2-1.6-4.8-4.9-4.8-9.9S345.5,242.3,349.1,236.7z M588.5,237.3l1.2,1.2
		c-1.6,8.8-4.4,13.3-8.4,13.3l-6.6-0.6c-2.3,2.4-4.5,3.6-6.7,3.6l-8.4-2.4c-2.1,0-9.5,4.4-22.3,13.3l-9.6,3.6l-0.6-0.6v-1.8
		c2.3,0,12-6.4,28.9-19.3l7.2-1.8l6,2.4h0.6c3.2,0,5.8-2.4,7.8-7.2h0.6l2.4,3.6h1.8c3.2-0.4,4.8-2.6,4.8-6.6l0.6-0.6H588.5z
		 M268.3,250h1.2v0.6c-1.2,4-1.8,7.5-1.8,10.5s1.2,5.3,3.6,7.1h1.8c0.8,0,1.4-1.2,1.8-3.6h1.2l0.6,1.8c-1.7,6.1-3.7,9.1-6,9.1
		c-4.4-2.8-6.7-6.5-6.7-10.9C265.3,258,266.7,253.2,268.3,250z M297.8,252.4c5.7,3.4,8.9,6.2,9.6,8.4c-2.3,5.2-4.3,7.8-6,7.8
		c-3.8-1.8-7-4.4-9.6-7.8C291.8,256,293.8,253.2,297.8,252.4z"/>
</g>
</svg>
