<?xml version="1.0" encoding="utf-8"?>
<!-- Generator: Adobe Illustrator 25.2.3, SVG Export Plug-In . SVG Version: 6.00 Build 0)  -->
<svg version="1.1" xmlns="http://www.w3.org/2000/svg" xmlns:xlink="http://www.w3.org/1999/xlink" x="0px" y="0px"
	 viewBox="0 0 700 395" style="enable-background:new 0 0 700 395;" xml:space="preserve">
<style type="text/css">
	.st0{fill:#000222;}
	.st1{fill:#FFFFFF;}
</style>
<g id="Layer_1">
	<rect class="st0" width="700" height="395"/>
</g>
<g id="Layer_3">
	<g>
		<path class="st1" d="M273.5,368.6l1.1,4.2c0.2,0.9,0.5,1.8,0.6,2.6h0.1c0.2-0.8,0.5-1.7,0.7-2.6l1.3-4.2h1.3l1.3,4.1
			c0.3,1,0.5,1.9,0.7,2.7h0.1c0.1-0.8,0.4-1.7,0.6-2.7l1.2-4.1h1.5l-2.7,8.2H280l-1.3-3.9c-0.3-0.9-0.5-1.7-0.7-2.7h0
			c-0.2,1-0.5,1.8-0.7,2.7l-1.3,3.9h-1.4l-2.5-8.2H273.5z"/>
		<path class="st1" d="M286.3,368.6l1.1,4.2c0.2,0.9,0.5,1.8,0.6,2.6h0.1c0.2-0.8,0.5-1.7,0.7-2.6l1.3-4.2h1.3l1.3,4.1
			c0.3,1,0.5,1.9,0.7,2.7h0.1c0.1-0.8,0.4-1.7,0.6-2.7l1.2-4.1h1.5l-2.7,8.2h-1.4l-1.3-3.9c-0.3-0.9-0.5-1.7-0.7-2.7h0
			c-0.2,1-0.5,1.8-0.7,2.7l-1.3,3.9h-1.4l-2.5-8.2H286.3z"/>
		<path class="st1" d="M299,368.6l1.1,4.2c0.2,0.9,0.5,1.8,0.6,2.6h0.1c0.2-0.8,0.5-1.7,0.7-2.6l1.3-4.2h1.3l1.3,4.1
			c0.3,1,0.5,1.9,0.7,2.7h0.1c0.1-0.8,0.4-1.7,0.6-2.7l1.2-4.1h1.5l-2.7,8.2h-1.4l-1.3-3.9c-0.3-0.9-0.5-1.7-0.7-2.7h0
			c-0.2,1-0.5,1.8-0.7,2.7l-1.3,3.9h-1.4l-2.5-8.2H299z"/>
		<path class="st1" d="M309.9,375.9c0-0.6,0.4-1.1,1-1.1c0.6,0,1,0.4,1,1.1c0,0.6-0.4,1.1-1,1.1C310.3,377,309.9,376.5,309.9,375.9z
			"/>
		<path class="st1" d="M313.5,375.3c0.4,0.3,1.2,0.6,2,0.6c1.1,0,1.6-0.5,1.6-1.2c0-0.7-0.4-1.1-1.5-1.5c-1.5-0.5-2.2-1.3-2.2-2.3
			c0-1.3,1.1-2.4,2.8-2.4c0.8,0,1.6,0.2,2,0.5l-0.4,1.1c-0.3-0.2-0.9-0.5-1.7-0.5c-0.9,0-1.4,0.5-1.4,1.1c0,0.7,0.5,1,1.6,1.4
			c1.4,0.5,2.2,1.3,2.2,2.5c0,1.4-1.1,2.5-3.1,2.5c-0.9,0-1.7-0.2-2.3-0.6L313.5,375.3z"/>
		<path class="st1" d="M327.4,374.6c0,0.9,0,1.6,0.1,2.2h-1.3l-0.1-1.3h0c-0.4,0.7-1.3,1.5-2.7,1.5c-1.3,0-2.8-0.7-2.8-3.6v-4.8h1.5
			v4.6c0,1.6,0.5,2.6,1.8,2.6c1,0,1.7-0.7,2-1.4c0.1-0.2,0.1-0.5,0.1-0.8v-5h1.5V374.6z"/>
		<path class="st1" d="M329.8,371.1c0-1,0-1.8-0.1-2.6h1.3l0.1,1.6h0.1c0.4-1.1,1.3-1.8,2.3-1.8c0.2,0,0.3,0,0.4,0.1v1.4
			c-0.2,0-0.3-0.1-0.5-0.1c-1.1,0-1.8,0.8-2,1.9c0,0.2-0.1,0.4-0.1,0.7v4.4h-1.5V371.1z"/>
		<path class="st1" d="M339.9,376.8l-0.1-1h-0.1c-0.5,0.6-1.3,1.2-2.5,1.2c-1.7,0-2.5-1.2-2.5-2.4c0-2,1.8-3.1,4.9-3.1v-0.2
			c0-0.7-0.2-1.9-1.9-1.9c-0.8,0-1.6,0.2-2.1,0.6l-0.3-1c0.7-0.4,1.7-0.7,2.7-0.7c2.5,0,3.1,1.7,3.1,3.4v3.1c0,0.7,0,1.4,0.1,2
			H339.9z M339.7,372.6c-1.6,0-3.5,0.3-3.5,1.9c0,1,0.6,1.4,1.4,1.4c1.1,0,1.8-0.7,2-1.4c0.1-0.2,0.1-0.3,0.1-0.5V372.6z"/>
		<path class="st1" d="M343.5,364.7h1.5v5.1h0c0.2-0.4,0.6-0.8,1.1-1.1c0.4-0.3,1-0.4,1.5-0.4c1.1,0,2.9,0.7,2.9,3.5v4.9H349v-4.7
			c0-1.3-0.5-2.4-1.9-2.4c-1,0-1.7,0.7-2,1.5c-0.1,0.2-0.1,0.4-0.1,0.7v5h-1.5V364.7z"/>
		<path class="st1" d="M358.6,375.5L358.6,375.5c-0.5,0.8-1.4,1.5-2.7,1.5c-1.9,0-3.5-1.7-3.5-4.2c0-3.1,2-4.4,3.7-4.4
			c1.3,0,2.1,0.6,2.5,1.4h0l0.1-1.2h1.4c0,0.7-0.1,1.4-0.1,2.3v9.3h-1.5V375.5z M358.6,371.9c0-0.2,0-0.4-0.1-0.6
			c-0.2-0.9-1-1.7-2.1-1.7c-1.5,0-2.5,1.3-2.5,3.2c0,1.6,0.8,3.1,2.4,3.1c1,0,1.8-0.6,2.1-1.6c0.1-0.2,0.1-0.5,0.1-0.7V371.9z"/>
		<path class="st1" d="M369.4,374.6c0,0.9,0,1.6,0.1,2.2h-1.3l-0.1-1.3h0c-0.4,0.7-1.3,1.5-2.7,1.5c-1.3,0-2.8-0.7-2.8-3.6v-4.8h1.5
			v4.6c0,1.6,0.5,2.6,1.8,2.6c1,0,1.7-0.7,2-1.4c0.1-0.2,0.1-0.5,0.1-0.8v-5h1.5V374.6z"/>
		<path class="st1" d="M371.9,371.1c0-1,0-1.8-0.1-2.6h1.3l0.1,1.6h0.1c0.4-1.1,1.3-1.8,2.3-1.8c0.2,0,0.3,0,0.4,0.1v1.4
			c-0.2,0-0.3-0.1-0.5-0.1c-1.1,0-1.8,0.8-2,1.9c0,0.2-0.1,0.4-0.1,0.7v4.4h-1.5V371.1z"/>
		<path class="st1" d="M381.9,376.8l-0.1-1h-0.1c-0.5,0.6-1.3,1.2-2.5,1.2c-1.7,0-2.5-1.2-2.5-2.4c0-2,1.8-3.1,4.9-3.1v-0.2
			c0-0.7-0.2-1.9-1.9-1.9c-0.8,0-1.6,0.2-2.1,0.6l-0.3-1c0.7-0.4,1.7-0.7,2.7-0.7c2.5,0,3.1,1.7,3.1,3.4v3.1c0,0.7,0,1.4,0.1,2
			H381.9z M381.7,372.6c-1.6,0-3.5,0.3-3.5,1.9c0,1,0.6,1.4,1.4,1.4c1.1,0,1.8-0.7,2-1.4c0.1-0.2,0.1-0.3,0.1-0.5V372.6z"/>
		<path class="st1" d="M385.6,370.8c0-0.9,0-1.5-0.1-2.2h1.3l0.1,1.4h0c0.4-0.8,1.4-1.5,2.7-1.5c1.1,0,2.9,0.7,2.9,3.5v4.9h-1.5
			v-4.7c0-1.3-0.5-2.4-1.9-2.4c-1,0-1.8,0.7-2,1.5c-0.1,0.2-0.1,0.4-0.1,0.7v4.9h-1.5V370.8z"/>
		<path class="st1" d="M394.6,375.9c0-0.6,0.4-1.1,1-1.1c0.6,0,1,0.4,1,1.1c0,0.6-0.4,1.1-1,1.1C395,377,394.6,376.5,394.6,375.9z"
			/>
		<path class="st1" d="M404.4,376.5c-0.4,0.2-1.3,0.5-2.4,0.5c-2.5,0-4.1-1.7-4.1-4.2c0-2.5,1.7-4.4,4.4-4.4c0.9,0,1.7,0.2,2.1,0.4
			l-0.3,1.2c-0.4-0.2-0.9-0.4-1.7-0.4c-1.9,0-2.9,1.4-2.9,3.1c0,1.9,1.2,3.1,2.9,3.1c0.8,0,1.4-0.2,1.8-0.4L404.4,376.5z"/>
		<path class="st1" d="M413.5,372.6c0,3-2.1,4.4-4.1,4.4c-2.2,0-3.9-1.6-3.9-4.2c0-2.8,1.8-4.4,4.1-4.4
			C411.9,368.4,413.5,370.1,413.5,372.6z M406.9,372.7c0,1.8,1,3.2,2.5,3.2c1.4,0,2.5-1.3,2.5-3.2c0-1.4-0.7-3.2-2.5-3.2
			S406.9,371.1,406.9,372.7z"/>
		<path class="st1" d="M415.4,370.8c0-0.9,0-1.5-0.1-2.2h1.3l0.1,1.3h0.1c0.5-0.8,1.2-1.5,2.6-1.5c1.1,0,2,0.7,2.3,1.6h0
			c0.3-0.5,0.6-0.8,0.9-1.1c0.5-0.4,1-0.6,1.8-0.6c1.1,0,2.7,0.7,2.7,3.6v4.8h-1.5v-4.7c0-1.6-0.6-2.5-1.8-2.5
			c-0.9,0-1.5,0.6-1.8,1.4c-0.1,0.2-0.1,0.5-0.1,0.7v5.1h-1.5v-4.9c0-1.3-0.6-2.3-1.7-2.3c-0.9,0-1.6,0.7-1.9,1.5
			c-0.1,0.2-0.1,0.5-0.1,0.7v5h-1.5V370.8z"/>
	</g>
</g>
<g id="Layer_4">
	<path class="st1" d="M429.7,106.7c2.4,0,3.8,2.3,4.4,6.9v1.3l-0.6,8.9c4.2,5,6.4,8.2,6.4,9.6l-0.7,2.5h-0.6c-1.7,0-4.2-1.3-7.6-3.8
		h-1.3c-14.6,13.5-25,20.3-31.2,20.3H398v-2.5c18.2-10.9,27.3-18.3,27.3-22.3c-2.9-2.3-4.4-4.8-4.4-7.6
		C420.8,114.1,423.8,109.6,429.7,106.7z M276,108h1.3c1.7,0,6.2,9.3,13.3,27.9v1.9h-1.3v0.7l-4.4-3.2h-1.3
		c5.9,33.2,9.3,55.2,10.2,66v5.8l-1.9,20.3h0.7c13.7-13.2,24.7-19.7,33-19.7c16.5,2.5,24.7,8.5,24.7,17.8v0.7
		c0,3.2-1.7,8.3-5.1,15.2v1.3h0.7c7.2-2.1,11.7-4.7,13.3-7.6v-5.8l-15.2-111.8c1.4-5.9,2.7-8.8,3.8-8.9h0.7c1.2,0,4.3,6.6,9.5,19.7
		l3.2,7.6l-1.3,1.3l-3.2-1.9h-1.9v0.7c7.2,49.8,10.8,78,10.8,84.4v6.4c0,13.9-8,23.3-24.1,27.9c-28.2,7.2-50,10.8-65.4,10.8h-8.3
		c-12.2,0-22.4-4.7-30.5-14c-5.4-5.4-9.4-23.9-12-55.3l-0.7-8.2l0.7-0.7v-0.6c-3.1-35.6-6.3-57.8-9.6-66.7c2-7.2,3.5-10.8,4.5-10.8
		h1.3c3.4,7.8,6.4,26.1,8.9,54.6c3.2,46.1,6,69.2,8.2,69.2c5.5,12.7,15.5,19.1,29.9,19.1h1.3c11.4-8.9,17.1-18.4,17.1-28.5
		c0-17.6-4.2-50.8-12.7-99.7l0.7-1.9l-1.3-5.1L276,108z M568.8,108c3.4,2.3,5.1,5,5.1,8.2c-0.8,2-1.7,3-2.5,3.2h-0.6l-5.1-3.8
		c-3,0-4.5,2.3-4.5,6.9l0.7,4.5c-1.1,14.8-2.8,22.2-5.1,22.2c-5.8-11.9-10.5-17.8-14-17.8c-5.5-1.9-8.3-4.4-8.3-7.6v-1.3
		c0-1.7,0.8-3.4,2.5-5.1c5.5,1,11.9,6.7,19.1,17.2h0.7c0-13.6,3-22.5,8.9-26.7H568.8z M378.9,109.2h0.6c3.7,5.9,7.9,16.5,12.7,31.8
		l-0.6,1.9h-1.3c-1.7-0.8-2.5-1.9-2.5-3.1h-1.9l10.2,87.6v4.4c0,11.5-1.7,20.4-5.1,26.7h-1.9l0.6-8.9l-0.6-3.1l0.6-1.9
		c-0.3-5.5-0.8-8.2-1.3-8.2l0.7-0.7l-14-114.9V120C376.4,112.8,377.7,109.2,378.9,109.2z M613.9,109.8c2.9,0,4.8,3.4,5.7,10.2v6.4
		l4.5,9.6c-0.6,2.1-1.2,3.1-1.9,3.1l-3.8-2.5h-3.1c-19.5,18-35.6,27.9-48.3,29.9h-0.7v-1.3c23.4-13.8,38.5-24.2,45.1-31.2v-0.6
		c-4.2-4.2-6.4-7.4-6.4-9.6C606.4,114.5,609.3,109.8,613.9,109.8z M512.3,110.5h1.3l1.3,1.3c0,3.3-2.8,6.1-8.3,8.2
		c-3.8,3-15.8,10-36.2,21l-13.4,8.2l-1.9-1.9c0-4.3,8.5-10.4,25.4-18.5L512.3,110.5z M113.5,111.1h1.3c3.4,1.7,5.1,4.5,5.1,8.3
		l-1.9,1.9h-0.6l-5.1-2.5c-1,2-2.3,12.4-3.8,31.2c-0.7,0-1.3,3.2-1.9,9.5l0.7,0.7v0.6l-0.7,1.9c0,3.8,1.7,5.9,5.1,6.4l1.9-4.5h1.3
		l0.6,2.5c-1.9,6.4-3.6,9.6-5.1,9.6h-1.9c-3.4-2.1-5.1-5.7-5.1-10.8l2.5-21.6c-4.3-11-9.4-16.5-15.2-16.5c-3.8-1.7-5.8-3.6-5.8-5.7
		c0.6-4.2,1.9-6.4,3.8-6.4c5.7,2,11.6,7.5,17.8,16.5h0.7v-4.5C108.5,116.6,110.6,111.1,113.5,111.1z M194.7,111.1h1.9
		c3.4,2.4,5.1,4.8,5.1,7c0,2.2-0.6,3.5-1.9,3.9h-1.3l-3.2-2.5h-1.3c-1.2,0-1.9,1.9-1.9,5.7l0.6,0.7v0.6l-0.6,0.7l0.6,6.4v2.5
		c-0.6,6.5-1.6,10.1-3.1,10.8h-1.3c-5.5-11.9-10.8-17.8-15.9-17.8l-5.1-5.1c0.5-4.2,1.4-6.4,2.5-6.4h1.3
		c9.5,6.5,14.8,11.9,15.9,15.9h1.9v-3.2C189.4,119.9,191.4,113.5,194.7,111.1z M251.9,114.3h0.6v1.3h0.7c-1.3,5.6-1.9,10.5-1.9,14.6
		v0.7c0,5.9,1.5,8.9,4.5,8.9l3.1-4.5h0.7v2.5c0,2.7-1.5,5.7-4.5,8.9h-1.9c-3.8-2.4-5.8-6.4-5.8-12
		C247.9,123.3,249.4,116.6,251.9,114.3z M425.2,116.8v0.6l3.2,3.2h1.9v-1.9c0-2.1-0.6-3.4-1.9-3.8h-1.3L425.2,116.8z M608.8,120v0.7
		c1.7,2.4,3.6,4.1,5.7,5.1h1.3v-3.2c0-2.3-0.8-3.7-2.5-4.4h-0.6C610.1,118.4,608.8,119,608.8,120z M338.3,130.1h1.3v3.2
		c0,1.8-5.1,4.3-15.2,7.6l-28.6,11.4h-0.6l-0.7-0.7h-0.6c0-3.5,5.3-6.9,15.8-10.2L338.3,130.1z M70.3,135.2l1.3,2.5
		c-4.2,9.9-6.4,19.9-6.4,29.9v1.3c1.6,8.5,3.9,12.7,6.9,12.7c1.5,0,3-2.5,4.5-7.6h1.9v1.3h0.7c0,6.2-3.6,13-10.8,20.3
		c-2.1,8-3.1,14.5-3.1,19.6c0,13.8,6.1,22.9,18.4,27.4c4.3,1.2,9.4,2.1,15.2,2.5c8.1,0,20.6-3.8,37.5-11.4
		c18.2-10.6,27.3-18.2,27.3-22.9c0-3.5-3.2-6-9.5-7.6l-8.9,1.3c-9.3-0.8-14-4.7-14-11.4v-2.5c3.6-12.7,9.1-19.1,16.5-19.1
		c8.2,0,15.4,9.3,21.6,27.9v3.8c0,14.5-4.2,24-12.7,28.5c-17.9,14.2-36.1,22.9-54.6,26.1l-0.7-0.7h-0.6l-5.8,0.7
		c-16.5-2.8-24.7-6-24.7-9.6c-7.2-6.4-10.8-14.9-10.8-25.4c0-8,2.1-18.6,6.4-31.8v-0.6c-3.8-7.7-5.7-14-5.7-19.1
		C63.6,147.3,66.9,135.2,70.3,135.2z M149.6,144.1c6.3,3.4,9.9,6.4,10.8,8.9c-1.3,2.9-3.4,5.4-6.4,7.6c-4.2-1.1-7.4-2.5-9.6-4.4
		l-6.9,6.9h-1.3c-5.8-2.8-9.4-5.4-10.8-7.6c2-5.9,3.7-8.9,5.1-8.9h1.3c1.3,0,4.7,1.7,10.2,5.1L149.6,144.1z M521.2,148.6h0.6v0.6
		c-2.1,5-3.1,8.8-3.1,11.4c0,5.4,1.9,8.7,5.7,10.2c1.3-1.4,2.1-3.3,2.5-5.7h1.9v0.6c0,5.2-1.9,9.4-5.8,12.7h-0.6
		c-3.5,0-6-3.6-7.6-10.8C514.8,161.4,516.9,155,521.2,148.6z M438.6,152.4c6.8,4,10.2,7.3,10.2,10.2c-1.1,3.4-2.8,5.9-5.1,7.6h-1.9
		l-6.9-5.1h-1.9c-1.5,1.3-2.9,3.6-4.4,6.9h-2.5c-5.7-3.2-8.9-5.9-9.6-8.2c0-2.9,2.1-6.1,6.4-9.6c4.9,3.8,8.1,5.8,9.6,5.8
		C434.2,156.6,436.4,154,438.6,152.4z M615.8,155h0.7l-3.2,10.2v3.1c0,3.3,1.1,5.4,3.2,6.4h0.6l3.8-3.8h0.7v1.3
		c-0.7,6.8-3.1,10.2-7,10.2h-0.6c-3-1.9-4.5-5.5-4.5-10.8C609.4,166.1,611.5,160.6,615.8,155z M331.9,160h1.9l5.1,15.2
		c0,3.5-1.5,6.5-4.4,8.9h-0.7l-8.9-2.5c-2.9,3.8-5.8,5.7-8.9,5.7c-2.3,0-4-2.3-5.1-6.9l1.3-12.7h0.7c1,0,1.6,1.5,1.9,4.4l-0.6,4.5
		c1,2.5,2.3,3.8,3.8,3.8c3.4-1.8,5.1-3.9,5.1-6.4l-0.7-7c0.5-2.9,1.1-4.4,1.9-4.4h1.3c0.6,8.9,3.2,13.3,7.6,13.3l0.6-0.6v-0.7
		c-2.1-4.1-3.1-7.7-3.1-10.8L331.9,160z M476,165.7c9.3,8.2,14,13.7,14,16.5v0.7h-5.1l9.6,20.9l0.6,3.8c0,14.4-5.7,24.6-17.1,30.5
		c-1.3,1.8-2.1,5.6-2.5,11.4c0,7.9,4.7,14.1,14,18.5l6.9,0.6h0.7c14.8,0,32.6-11.6,53.3-34.9l0.6-2.5l-1.9-1.9h-0.7l-15.8,2.5
		c-9.8,0-14.6-4.7-14.6-14c0-8.8,4.7-15.2,14-19.1h3.2c4.6,0,10.7,4.9,18.4,14.6c3.4,0,10.9-4.5,22.3-13.4c2.5,0,3.8,4.2,3.8,12.7
		c3.4,4.2,7.2,6.4,11.4,6.4h4.4c6.5,0,13.3-6.8,20.3-20.3l0.7-0.6h1.3c0.8,0,1.3,0.6,1.3,1.9c-1.7,2.4-2.5,5.2-2.5,8.3
		c3,4.2,6.4,6.4,10.2,6.4h5.7l1.9-1.9v-0.6c0-1.7-1.1-3.8-3.2-6.4c1.4-6.8,2.7-10.2,3.8-10.2c3.8,3.4,5.8,8.2,5.8,14.6v1.3
		c0,11-4.9,16.5-14.6,16.5c-4.9-0.6-9.9-3.6-15.2-8.9h-0.6c-4.9,8.5-12.3,12.7-22.3,12.7c-8.9-3-13.3-6.9-13.3-11.4
		c-0.6,0-1.3-1.7-1.9-5.1h-1.3c-9.7,6.2-14.6,11.5-14.6,15.9c0,12.8-13.8,27.8-41.3,45c-5.1,2.1-12.1,4.3-20.9,6.4l-12.7-5.1
		c-7.2-6.1-10.8-13.9-10.8-23.5l0.7-9.6h-1.3c-26.8,18.2-46.9,27.4-60.4,27.4c-2.8,1.2-11,2.9-24.7,5.1H384v-0.7
		c1-2.3,11.2-6.7,30.5-13.3c23.9-10.8,46.4-24.4,67.3-40.6c5.1-4.4,7.6-7.2,7.6-8.3c0-1.2-4.2-10-12.7-26.6l-3.8-10.8V174
		C473.8,168.5,474.8,165.7,476,165.7z M196.6,170.8c2.4,1.9,6.6,6.9,12.7,15.2c-0.3,1.7-1.7,2.5-4.4,2.5v0.7
		c7.2,15.6,10.8,25.3,10.8,29.2c-1.1,10.2-3.8,17.6-8.2,22.2c-15.8,14.6-27.5,23.5-35,26.7c-8.4,7.6-23.6,13.1-45.7,16.5l-16.5,4.5
		l-0.6-0.7V287c0-1.4,9.1-5.6,27.3-12.7c15.5-6.9,32.9-16.9,52.1-29.9c11.2-8.4,18.2-14.9,21-19.6v-0.7c-1.9-6.8-6-16.8-12.1-29.8
		l-4.4-13.4C193.5,176.7,194.5,173.3,196.6,170.8z M450,175.3l1.3,1.3c0,5.6-3.6,13-10.8,22.2v1.3c8.1,6.3,12.1,12.5,12.1,18.5
		c0,13.2-8.7,21.4-26.1,24.7c-5.5-2.7-8.2-6.3-8.2-10.8c0-7.3,2.3-15.7,6.9-25.4c0-0.7-3-3.5-8.9-8.3c-5.1-4.8-7.6-8.2-7.6-10.2
		v-5.7c0.3-2.5,0.9-3.8,1.9-3.8h0.6c10.2,4.3,15.5,7.1,15.9,8.2v0.7c-0.2,0.8-1.3,1.7-3.2,2.5c2,3.4,4.9,5.1,8.9,5.1L450,175.3z
		 M262.1,178.4h0.6v3.2c-1.2,4.1-1.9,8.8-1.9,14v2.5c0,2.3,1.3,4.2,3.8,5.7h1.9c0.5-2.5,1.1-3.8,1.9-3.8h1.3v2.5
		c0,3.7-2.1,6.9-6.4,9.6c-4.2-2-6.4-6.7-6.4-14v-1.3C258.9,184.6,260.6,178.4,262.1,178.4z M140.7,189.8l3.8,1.3h3.2l4.4-0.6v-1.3
		c-1.7-2.5-3.8-3.8-6.4-3.8h-1.9C141.8,186.3,140.7,187.7,140.7,189.8z M107.7,195.6h0.7l-1.9,15.2c0.8,5.5,2.1,8.2,3.8,8.2h0.7
		l3.1-3.1l0.7,0.6v2.5c-1.4,5.1-2.9,7.6-4.5,7.6c-3.4,0-6-3.2-7.6-9.5C104.1,202.8,105.8,195.6,107.7,195.6z M431,211.4
		c-4.7,5.4-7,9.8-7,13.4v1.9c1.1,2.5,2.8,3.8,5.1,3.8c4.9,0,10.6-3.2,17.2-9.5v-0.7C440.9,214.4,435.8,211.4,431,211.4z
		 M526.3,215.9l2.5,2.5H539l1.9-1.3c-1.8-3.4-4.8-5.1-8.9-5.1C529.6,212.1,527.7,213.4,526.3,215.9z M279.8,252.1
		c20.5,0,40.9-5.7,61-17.1l1.3-1.9v-0.6c-3.2-8.5-10.2-12.7-21-12.7h-1.3c-7.6,0-17.9,7-31.1,20.9c-6.4,6.2-9.6,10-9.6,11.4H279.8z
		 M373.2,240h0.7v0.6l-1.9,10.8v1.3c0.3,4.2,1.4,6.4,3.2,6.4l3.8-3.2l0.6,0.7v0.6c-1.8,5.9-3.9,8.9-6.4,8.9c-2.8,0-4.7-2.7-5.7-8.2
		C367.5,251.8,369.4,245.9,373.2,240z M623.4,242.6h1.9v0.6c0,7.1-2.8,11.9-8.3,14.6l-6.9-1.3c-3.5,2.5-6,3.8-7.6,3.8l-8.9-3.2
		c-2,0-11.1,5.1-27.4,15.2l-7.6,1.3H558v-0.6c18-12.1,30-19.7,36.2-22.9h1.9l8.2,2.5h0.7c2.6,0,5.6-2.3,8.9-7h0.6
		c0,3,1.5,4.5,4.5,4.5C620.5,250.2,622,247.7,623.4,242.6z M224.6,257.8l1.3,1.3v1.9c0,1.9-12.7,8.2-38.1,19.1
		c-2.4,1.7-4.5,2.5-6.4,2.5l-0.6-0.6v-1.3c0-3,5.1-6.4,15.2-10.2C213.5,262.1,223,257.8,224.6,257.8z M117.9,259.7h0.7l1.3,1.3
		c0,3.8-5.9,7.5-17.8,10.8c-11.5,5.1-20.6,8.5-27.4,10.2v-1.3h-0.6c0-3.3,11.6-9,34.9-17.2C111.9,261.4,114.9,260.1,117.9,259.7z"/>
</g>
</svg>
