<?xml version="1.0" encoding="utf-8"?>
<!-- Generator: Adobe Illustrator 25.2.3, SVG Export Plug-In . SVG Version: 6.00 Build 0)  -->
<svg version="1.1" xmlns="http://www.w3.org/2000/svg" xmlns:xlink="http://www.w3.org/1999/xlink" x="0px" y="0px"
	 viewBox="0 0 700 395" style="enable-background:new 0 0 700 395;" xml:space="preserve">
<style type="text/css">
	.st0{fill:#000222;}
	.st1{fill:#FFFFFF;}
</style>
<g id="Layer_1">
	<rect class="st0" width="700" height="395"/>
</g>
<g id="Layer_3">
	<g>
		<path class="st1" d="M273.5,368.6l1.1,4.2c0.2,0.9,0.5,1.8,0.6,2.6h0.1c0.2-0.8,0.5-1.7,0.7-2.6l1.3-4.2h1.3l1.3,4.1
			c0.3,1,0.5,1.9,0.7,2.7h0.1c0.1-0.8,0.4-1.7,0.6-2.7l1.2-4.1h1.5l-2.7,8.2H280l-1.3-3.9c-0.3-0.9-0.5-1.7-0.7-2.7h0
			c-0.2,1-0.5,1.8-0.7,2.7l-1.3,3.9h-1.4l-2.5-8.2H273.5z"/>
		<path class="st1" d="M286.3,368.6l1.1,4.2c0.2,0.9,0.5,1.8,0.6,2.6h0.1c0.2-0.8,0.5-1.7,0.7-2.6l1.3-4.2h1.3l1.3,4.1
			c0.3,1,0.5,1.9,0.7,2.7h0.1c0.1-0.8,0.4-1.7,0.6-2.7l1.2-4.1h1.5l-2.7,8.2h-1.4l-1.3-3.9c-0.3-0.9-0.5-1.7-0.7-2.7h0
			c-0.2,1-0.5,1.8-0.7,2.7l-1.3,3.9h-1.4l-2.5-8.2H286.3z"/>
		<path class="st1" d="M299,368.6l1.1,4.2c0.2,0.9,0.5,1.8,0.6,2.6h0.1c0.2-0.8,0.5-1.7,0.7-2.6l1.3-4.2h1.3l1.3,4.1
			c0.3,1,0.5,1.9,0.7,2.7h0.1c0.1-0.8,0.4-1.7,0.6-2.7l1.2-4.1h1.5l-2.7,8.2h-1.4l-1.3-3.9c-0.3-0.9-0.5-1.7-0.7-2.7h0
			c-0.2,1-0.5,1.8-0.7,2.7l-1.3,3.9h-1.4l-2.5-8.2H299z"/>
		<path class="st1" d="M309.9,375.9c0-0.6,0.4-1.1,1-1.1c0.6,0,1,0.4,1,1.1c0,0.6-0.4,1.1-1,1.1C310.3,377,309.9,376.5,309.9,375.9z
			"/>
		<path class="st1" d="M313.5,375.3c0.4,0.3,1.2,0.6,2,0.6c1.1,0,1.6-0.5,1.6-1.2c0-0.7-0.4-1.1-1.5-1.5c-1.5-0.5-2.2-1.3-2.2-2.3
			c0-1.3,1.1-2.4,2.8-2.4c0.8,0,1.6,0.2,2,0.5l-0.4,1.1c-0.3-0.2-0.9-0.5-1.7-0.5c-0.9,0-1.4,0.5-1.4,1.1c0,0.7,0.5,1,1.6,1.4
			c1.4,0.5,2.2,1.3,2.2,2.5c0,1.4-1.1,2.5-3.1,2.5c-0.9,0-1.7-0.2-2.3-0.6L313.5,375.3z"/>
		<path class="st1" d="M327.4,374.6c0,0.9,0,1.6,0.1,2.2h-1.3l-0.1-1.3h0c-0.4,0.7-1.3,1.5-2.7,1.5c-1.3,0-2.8-0.7-2.8-3.6v-4.8h1.5
			v4.6c0,1.6,0.5,2.6,1.8,2.6c1,0,1.7-0.7,2-1.4c0.1-0.2,0.1-0.5,0.1-0.8v-5h1.5V374.6z"/>
		<path class="st1" d="M329.8,371.1c0-1,0-1.8-0.1-2.6h1.3l0.1,1.6h0.1c0.4-1.1,1.3-1.8,2.3-1.8c0.2,0,0.3,0,0.4,0.1v1.4
			c-0.2,0-0.3-0.1-0.5-0.1c-1.1,0-1.8,0.8-2,1.9c0,0.2-0.1,0.4-0.1,0.7v4.4h-1.5V371.1z"/>
		<path class="st1" d="M339.9,376.8l-0.1-1h-0.1c-0.5,0.6-1.3,1.2-2.5,1.2c-1.7,0-2.5-1.2-2.5-2.4c0-2,1.8-3.1,4.9-3.1v-0.2
			c0-0.7-0.2-1.9-1.9-1.9c-0.8,0-1.6,0.2-2.1,0.6l-0.3-1c0.7-0.4,1.7-0.7,2.7-0.7c2.5,0,3.1,1.7,3.1,3.4v3.1c0,0.7,0,1.4,0.1,2
			H339.9z M339.7,372.6c-1.6,0-3.5,0.3-3.5,1.9c0,1,0.6,1.4,1.4,1.4c1.1,0,1.8-0.7,2-1.4c0.1-0.2,0.1-0.3,0.1-0.5V372.6z"/>
		<path class="st1" d="M343.5,364.7h1.5v5.1h0c0.2-0.4,0.6-0.8,1.1-1.1c0.4-0.3,1-0.4,1.5-0.4c1.1,0,2.9,0.7,2.9,3.5v4.9H349v-4.7
			c0-1.3-0.5-2.4-1.9-2.4c-1,0-1.7,0.7-2,1.5c-0.1,0.2-0.1,0.4-0.1,0.7v5h-1.5V364.7z"/>
		<path class="st1" d="M358.6,375.5L358.6,375.5c-0.5,0.8-1.4,1.5-2.7,1.5c-1.9,0-3.5-1.7-3.5-4.2c0-3.1,2-4.4,3.7-4.4
			c1.3,0,2.1,0.6,2.5,1.4h0l0.1-1.2h1.4c0,0.7-0.1,1.4-0.1,2.3v9.3h-1.5V375.5z M358.6,371.9c0-0.2,0-0.4-0.1-0.6
			c-0.2-0.9-1-1.7-2.1-1.7c-1.5,0-2.5,1.3-2.5,3.2c0,1.6,0.8,3.1,2.4,3.1c1,0,1.8-0.6,2.1-1.6c0.1-0.2,0.1-0.5,0.1-0.7V371.9z"/>
		<path class="st1" d="M369.4,374.6c0,0.9,0,1.6,0.1,2.2h-1.3l-0.1-1.3h0c-0.4,0.7-1.3,1.5-2.7,1.5c-1.3,0-2.8-0.7-2.8-3.6v-4.8h1.5
			v4.6c0,1.6,0.5,2.6,1.8,2.6c1,0,1.7-0.7,2-1.4c0.1-0.2,0.1-0.5,0.1-0.8v-5h1.5V374.6z"/>
		<path class="st1" d="M371.9,371.1c0-1,0-1.8-0.1-2.6h1.3l0.1,1.6h0.1c0.4-1.1,1.3-1.8,2.3-1.8c0.2,0,0.3,0,0.4,0.1v1.4
			c-0.2,0-0.3-0.1-0.5-0.1c-1.1,0-1.8,0.8-2,1.9c0,0.2-0.1,0.4-0.1,0.7v4.4h-1.5V371.1z"/>
		<path class="st1" d="M381.9,376.8l-0.1-1h-0.1c-0.5,0.6-1.3,1.2-2.5,1.2c-1.7,0-2.5-1.2-2.5-2.4c0-2,1.8-3.1,4.9-3.1v-0.2
			c0-0.7-0.2-1.9-1.9-1.9c-0.8,0-1.6,0.2-2.1,0.6l-0.3-1c0.7-0.4,1.7-0.7,2.7-0.7c2.5,0,3.1,1.7,3.1,3.4v3.1c0,0.7,0,1.4,0.1,2
			H381.9z M381.7,372.6c-1.6,0-3.5,0.3-3.5,1.9c0,1,0.6,1.4,1.4,1.4c1.1,0,1.8-0.7,2-1.4c0.1-0.2,0.1-0.3,0.1-0.5V372.6z"/>
		<path class="st1" d="M385.6,370.8c0-0.9,0-1.5-0.1-2.2h1.3l0.1,1.4h0c0.4-0.8,1.4-1.5,2.7-1.5c1.1,0,2.9,0.7,2.9,3.5v4.9h-1.5
			v-4.7c0-1.3-0.5-2.4-1.9-2.4c-1,0-1.8,0.7-2,1.5c-0.1,0.2-0.1,0.4-0.1,0.7v4.9h-1.5V370.8z"/>
		<path class="st1" d="M394.6,375.9c0-0.6,0.4-1.1,1-1.1c0.6,0,1,0.4,1,1.1c0,0.6-0.4,1.1-1,1.1C395,377,394.6,376.5,394.6,375.9z"
			/>
		<path class="st1" d="M404.4,376.5c-0.4,0.2-1.3,0.5-2.4,0.5c-2.5,0-4.1-1.7-4.1-4.2c0-2.5,1.7-4.4,4.4-4.4c0.9,0,1.7,0.2,2.1,0.4
			l-0.3,1.2c-0.4-0.2-0.9-0.4-1.7-0.4c-1.9,0-2.9,1.4-2.9,3.1c0,1.9,1.2,3.1,2.9,3.1c0.8,0,1.4-0.2,1.8-0.4L404.4,376.5z"/>
		<path class="st1" d="M413.5,372.6c0,3-2.1,4.4-4.1,4.4c-2.2,0-3.9-1.6-3.9-4.2c0-2.8,1.8-4.4,4.1-4.4
			C411.9,368.4,413.5,370.1,413.5,372.6z M406.9,372.7c0,1.8,1,3.2,2.5,3.2c1.4,0,2.5-1.3,2.5-3.2c0-1.4-0.7-3.2-2.5-3.2
			S406.9,371.1,406.9,372.7z"/>
		<path class="st1" d="M415.4,370.8c0-0.9,0-1.5-0.1-2.2h1.3l0.1,1.3h0.1c0.5-0.8,1.2-1.5,2.6-1.5c1.1,0,2,0.7,2.3,1.6h0
			c0.3-0.5,0.6-0.8,0.9-1.1c0.5-0.4,1-0.6,1.8-0.6c1.1,0,2.7,0.7,2.7,3.6v4.8h-1.5v-4.7c0-1.6-0.6-2.5-1.8-2.5
			c-0.9,0-1.5,0.6-1.8,1.4c-0.1,0.2-0.1,0.5-0.1,0.7v5.1h-1.5v-4.9c0-1.3-0.6-2.3-1.7-2.3c-0.9,0-1.6,0.7-1.9,1.5
			c-0.1,0.2-0.1,0.5-0.1,0.7v5h-1.5V370.8z"/>
	</g>
</g>
<g id="Layer_4">
	<path class="st1" d="M581.4,113.2h1.2c3.2,2.3,4.7,4.4,4.7,6.5c0,2.1-0.6,3.3-1.8,3.6h-1.2l-3.6-3h-1.7c-1.7,0-2.7,2.8-3,8.3
		l0.6,0.6c-1.1,14.6-2.3,21.9-3.6,21.9H572c-4.9-11.4-10.6-17.2-17.2-17.2c-2-2.1-2.9-3.9-2.9-5.4c0.2-3.5,0.8-5.3,1.7-5.3h1.2
		c3.2,0,9,4.9,17.2,14.8h0.6C572.5,124.3,575.5,116,581.4,113.2z M255.7,113.9h1.8c4.3,15.1,7.7,41,10,77.7
		c2.4,28.1,4.4,42.2,5.9,42.2c4.6,11.4,12.9,17.2,24.9,17.2h1.8c15.9,0,29.6-4.1,40.9-12.4v-1.8c-5.9-5.9-10.2-8.9-13.1-8.9
		l-9.5,2.4l-0.6-2.4c0-7.2,7.5-12.2,22.5-14.9l11.9-0.6c11.1,0,21.4,2.6,30.9,7.7v0.6c0,6.1-3,9.8-8.9,11.2
		c-6.8,3.5-11.1,6.5-13.1,8.9c3.1,4.3,7.8,6.5,14.2,6.5c12.3-2.3,18.4-5.8,18.4-10.7v-1.2l-14.9-100.2l-1.7-8.9v-0.6l2.4-8.9h1.2
		c3.1,4.5,7.3,13.2,12.4,26.1l-0.6,1.8h-0.6c-2.1-2-3.7-3-4.7-3v1.2l10.7,73.6l1.2,11.9c0,15.6-5.1,24.9-15.4,27.9
		c-3,1.6-6.4,2.4-10,2.4h-3.6c-5.1,0-11.6-4-19.6-11.9c-1.5,0-10.2,4-26.1,11.9c-8.4,2.7-17.1,4.1-26.1,4.1
		c-19.9,0-31.1-12.3-33.8-36.8c-3.2-42.2-6.9-77.2-11.3-105v-1.2L255.7,113.9z M455,114.4c2,0.6,3,3.2,3,7.8v1.2l-0.6,7.1l5.9,6.5
		v2.4l-1.7,1.8c-2.9-2.4-5.5-3.6-7.8-3.6l-7.7,7.7c-6.7,5.9-12.6,9.4-17.8,10.7l-0.6-0.6v-0.6c1-1.7,5.7-5.4,14.2-11.2
		c5.3-4.4,8.1-7.2,8.3-8.3l-4.1-8.9C448.2,118.4,451.1,114.4,455,114.4z M624.2,114.4h1.7c3.2,1.7,4.7,5.5,4.7,11.3v4.1
		c0,1.4,1.4,3.7,4.2,7.1v2.4l-1.8,1.8l-5.9-2.4c-18.5,17.6-33.5,27.1-45.1,28.5v-0.6c1.4-1.5,7.1-5.2,17-11.1
		c9.9-5.9,17.9-12.1,24-18.6v-1.2c-3.7-2.9-5.7-5.9-5.9-8.9C619.3,118.6,621.7,114.4,624.2,114.4z M532.8,116.3v0.6
		c0,4-3.4,7.4-10.1,10.1l-43.9,26.7l-0.6-0.6v-1.8c0-3.9,10.5-11.2,31.4-21.9C523.7,120.6,531.5,116.3,532.8,116.3z M313.3,116.8
		c4,2.5,5.9,4.7,5.9,6.6l-1.2,3.6h-1.8l-4.7-3.6h-0.6l-1.2,1.2v2.4c0,14.6-1.2,21.9-3.6,21.9h-1.2c-5.4-10.7-11.6-16-18.4-16
		l-2.4-2.4c0.3-5.2,1.1-7.8,2.4-7.8c3.6,0,10,5,19,14.9h0.6v-8.3c1.2-8.3,3.4-12.5,6.5-12.5H313.3z M236.7,117.4h0.6l1.2,1.2
		c-4.4,11.2-6.6,19.3-6.6,24.3v3c1.3,6.3,3.1,9.5,5.4,9.5h1.2c1.6-0.6,2.4-2,2.4-4.2h1.7l0.6,1.8c-1.9,7.5-3.9,11.2-5.9,11.2h-1.2
		c-5,0-8-5.1-8.9-15.4v-2.4C229.2,136.6,232.3,126.9,236.7,117.4z M410.6,118c1.2,0.8,3.6,5.2,7.1,13.1c4,8.2,5.9,13.6,5.9,16.1
		l-0.6,0.6h-1.2c-1.7-1.6-3.3-2.4-4.7-2.4c7.1,51.9,10.7,81.6,10.7,89c-1.2,12.7-2.8,19-4.7,19h-0.6c0-14.5-4.7-55.6-14.2-123.4
		l-1.2-2.4C408.4,121.2,409.6,118,410.6,118z M450.3,122.7v1.8l3,2.9h0.6l1.2-1.2v-2.9l-2.4-2.4
		C451.1,121.6,450.3,122.2,450.3,122.7z M620.6,123.4v1.7c0,0.7,1.4,1.9,4.1,3.6h2.4v-2.9c0-2.1-0.8-3.5-2.4-4.2h-2.4L620.6,123.4z
		 M132.9,123.4h0.6v1.2l-1.2,7.1v3.6c0,3.1,1,5,3,5.9h1.2c1.6-0.8,2.4-1.8,2.4-3h1.2v2.4c0,3.8-1.8,6.4-5.4,7.8
		c-3.5-1.3-5.3-4.9-5.3-10.7v-3C129.3,132.4,130.5,128.7,132.9,123.4z M97.8,123.9h0.6c4.3,0.8,6.5,2.8,6.5,5.9v1.2l-1.7,1.8
		l-6.6-2.4c-1.2,0-2,8.3-2.4,24.9l-0.6,0.6c-0.3,2.8-0.9,4.2-1.8,4.2c-6.2-11.5-11.2-17.2-14.8-17.2c-4.7-0.8-7.1-3-7.1-6.5
		c0-2.7,1-4.7,2.9-5.9c5.1,2.2,11.2,8.1,18.4,17.8l0.6-0.6v-1.2C91.9,133.1,93.9,125.6,97.8,123.9z M212.9,125.7h1.2v1.7
		c0,4.6-6.9,8.8-20.7,12.5c-32.9,13.8-58.6,25.3-77.1,34.4l-0.6-0.6v-0.6c0-5.9,15-14.6,45.1-26.1
		C178.2,138.8,195.6,131.7,212.9,125.7z M371.4,132.9l0.6,0.6v2.4c0,3.2-6.7,7.1-20.2,11.9c-17.4,8.2-40.3,20.1-68.8,35.6l-2.9,2.4
		h-1.8v-0.6c0-5.5,7.3-11.4,22-17.8c24.6-13.9,47.7-25.2,69.4-33.9L371.4,132.9z M539.3,152.4h0.6c-2,4.2-3,8.2-3,11.9
		c0,5.5,2,8.3,5.9,8.3c1.2-1.4,1.8-2.8,1.8-4.1h1.7c0,3.9-1.6,7.5-4.7,10.7h-1.2c-3.4,0-5.5-3.2-6.5-9.5
		C534,163.3,535.7,157.6,539.3,152.4z M364.3,155.4l0.6,0.6l-1.7,11.9c0.9,4.4,2.1,6.6,3.6,6.6h1.2l2.9-2.4h0.6v0.6
		c-0.7,5.5-2.7,8.3-5.9,8.3h-0.6c-3.2-2.2-4.7-5.1-4.7-8.9C361.3,160.9,362.7,155.4,364.3,155.4z M464,157.2
		c5.1,3.4,7.7,6.2,7.7,8.6c0,2.4-1.4,4.9-4.1,7.4h-1.2c-4.2-3.2-6.9-4.7-8.3-4.7h-1.2c-1.3,4.3-2.9,6.5-4.7,6.5
		c-5.3-2.3-8.4-4.9-9.5-7.7c0-2.3,1.8-5.1,5.3-8.3c4.7,3.2,7.7,4.7,8.9,4.7C459.6,159.3,462,157.2,464,157.2z M627.1,158.3v0.6
		l-2.4,7.1v1.2c0,5.1,1.8,7.7,5.4,7.7l2.4-2.9l0.6,0.6c-1.6,6-3.2,8.9-4.7,8.9h-1.7c-2.8-1.3-4.2-4.2-4.2-8.9h-0.6
		C623.7,163.1,625.5,158.3,627.1,158.3z M169,163.7c2.3,0,4.6,2.4,7.1,7.1c-0.6,1.6-1.2,2.4-1.7,2.4h-1.2c-1.5-1.2-2.9-1.8-4.2-1.8
		h-2.4v0.6c-0.4,15.3-1.7,24.1-4.1,26.1c-5.2-9.9-10.2-14.9-14.9-14.9c-2-1.4-2.9-2.8-2.9-4.1c0.4-4,1.3-5.9,2.9-5.9
		c2.7,0.5,7.7,5.3,14.9,14.2c0.6-1.4,1.2-7.6,1.7-18.4c1.6-3.2,3.2-4.7,4.7-4.7V163.7z M497.7,169c8.3,7.5,12.5,12.4,12.5,14.9h-4.2
		v0.6l8.3,17.8l1.2,5.9c0,11-4.1,19.5-12.4,25.6c-3.6,2.5-5.4,6.7-5.4,12.4v1.2c2.1,11.5,7.8,17.2,17.2,17.2h0.6
		c11.9,0,23.6-5.4,35-16.1c11.4-9.5,17.2-16.3,17.2-20.2l-2.9-1.7c-4.6,1.6-9.8,2.4-15.4,2.4c-7.9,0-11.9-4-11.9-11.9v-0.6
		c0-9.9,4.7-16,14.2-18.4c4.5,0,10.6,4.5,18.4,13.6h0.6c4.2-1.4,10.9-5.5,20.2-12.4h0.6l1.8,3.6l-0.6,4.1c1.4,6.3,6.7,9.5,16.1,9.5
		c6.6,0,13.1-6.5,19.5-19.5h1.8v0.6l-1.8,7.1c0,3.9,4.4,6.5,13.1,7.8c2.8-0.7,4.2-1.5,4.2-2.4c0-1.4-1-3.6-3-6.6c0-3.4,1-6.3,3-8.9
		h0.6c3.2,3.6,4.7,8.2,4.7,13.6c0,9.1-3.6,14.4-10.7,16.1H639c-4.6,0-9.8-2.8-15.4-8.3H623c-4.5,7.9-10.6,11.9-18.3,11.9
		c-7.6,0-13-4-16.1-11.9c0-2-0.6-3-1.8-3c-9.1,5.7-13.6,10.4-13.6,14.2c0,13.1-12.9,28.2-38.6,45.1c-6.9,2.8-12.8,4.2-17.8,4.2h-1.2
		c-10,0-17.1-5.7-21.4-17.2l-0.6-10l0.6-6.6H493c-25.7,17.5-45.3,26.6-58.7,27.3l-20.8,4.2h-0.6v-1.2c4.4-2.6,14.1-6.8,29-12.5
		c22.5-11.3,43.3-24.5,62.3-39.7c4-3.4,5.9-6.2,5.9-8.3c0-1.1-3.4-8.2-10.1-21.4l-5.3-13.1C495.5,172,496.4,169,497.7,169z
		 M55.7,170.8h1.2v0.6c-2.8,9.9-4.2,17.6-4.2,23.3s2,9.8,5.9,12.3h0.6c1.5-0.4,2.7-2.4,3.6-5.9H64v1.2h0.6
		c-2.2,8.7-4.4,13.1-6.5,13.1h-1.8c-4.7-3.5-7.1-8.1-7.1-13.6C49.2,192.9,51.4,182.6,55.7,170.8z M210.6,170.8h1.2
		c3.2,1.7,5.4,3.5,6.6,5.3v1.2c0,3.6-1.4,6.4-4.2,8.3c-2.7,0-5.5-2.2-8.3-6.5C207.5,174,209,171.3,210.6,170.8z M473.5,178l0.6,0.6
		h0.6c-1.2,6.3-4.2,12.7-8.9,19c-0.7,0-1.1,1-1.2,3v0.6c7.5,6.3,11.3,11.5,11.3,15.4c0,12.3-6.3,20.4-19,24.4c0,0.8-1.4,1.2-4.2,1.2
		c-5.1-2.7-7.7-5.9-7.7-9.5V229c1.4-7.5,3.4-15.1,5.9-22.5c-9.9-7.8-15-13.3-15.4-16.6v-4.2c0-2.4,0.8-3.6,2.4-3.6
		c9.2,3.4,14.2,5.7,14.8,7.1l-2.9,3c3.2,3.5,6,5.3,8.3,5.3L473.5,178z M107.3,183.9c5.7,3.4,8.9,6.3,9.5,8.9c-2,5.2-3.6,7.8-4.7,7.8
		h-1.2l-7.7-5.9c-2.3,0-4.5,2.2-6.6,6.5h-0.6c-2.5,0-6-2.6-10.7-7.7c2.1-5.5,3.9-8.3,5.3-8.3c4.9,3.2,8.3,4.7,10.1,4.7
		C104.2,185.9,106.4,183.9,107.3,183.9z M221.9,184.4h2.4c4,3,6.3,5.1,7.1,6.6v2.4c-2.2,3.6-3.8,5.6-4.7,5.9h-1.2
		c-4-3.2-7-4.7-8.9-4.7c-2.8,4.3-4.8,6.5-5.9,6.5c-6.3-2.8-9.5-4.8-9.5-5.9c0.1-2.5,1.6-5.3,4.7-8.3h1.2l10.1,3.6
		C217.1,189,218.7,187,221.9,184.4z M345.8,184.4c2.5,0,5.9,2.2,10.1,6.6v1.7c-1.7,3.2-3.5,5.4-5.4,6.6h-1.2c-5.1-2.6-8-5-8.9-7.1
		C343.2,187.1,344.9,184.6,345.8,184.4z M299.6,191.6v1.2l-1.2,9.5c0.4,6,1.6,8.9,3.6,8.9h1.2l3.6-3.6l0.6,0.6v0.6
		c0,3.5-1.6,6.5-4.7,8.9h-0.6c-4.3-1.2-6.5-4.6-6.5-10C296.8,196.9,298.2,191.6,299.6,191.6z M247.4,209.4c2,0,3.8,4,5.4,11.9v0.6
		c0,12.2-4,18.4-11.9,18.4c-4.5,0-8.9-2-13.1-5.9h-0.6c-4.9,6.3-10.2,9.5-16,9.5c-3.8,0-8-2.4-12.5-7.1c-7.1,6.3-14.2,9.5-21.4,9.5
		c-8.5,0-15-4-19.5-11.9h-0.6c-6.9,9.5-15.6,14.2-26.1,14.2c-7.4-2.6-12.6-6.7-15.4-12.4c-1.6-3.7-3.2-6.1-4.7-7.1h-4.1
		c-9.6,5.7-16.1,13.6-19.6,23.7c-5.1,13.8-11,20.7-17.8,20.7c-11.4-6.3-17.2-18.7-17.2-37.3v-1.8l-0.6-0.6l1.2-7.8h0.6
		c0.6,0,1.8,6.7,3.6,20.2c4,11.1,9.3,16.6,16,16.6c4,0,8.9-9.1,14.9-27.3c8.5-12.7,16.2-19,23.1-19c2.6,0,6.2,4.4,10.7,13.1
		c5.1,4.7,10,7.1,14.9,7.1c7.6,0,14.9-5.9,21.9-17.8c0-2,1.4-2.9,4.2-2.9l0.6,0.6v0.6l-1.2,5.3c3,7.5,7.4,11.3,13.1,11.3
		c0,0.8,2,1.2,5.9,1.2c8.4,0,15.7-5.4,22-16.1l1.7-1.2l0.6,0.6v1.2l-1.2,4.7v1.7c2.5,4.4,6,6.6,10.7,6.6c5.9-2,9.8-5,11.9-8.9
		l5.3-10h0.6l0.6,0.6h0.6c-1.6,3.5-2.4,6.1-2.4,7.8c3.1,4.7,7,7.1,11.9,7.1c2.7-0.3,4.1-1.3,4.1-3l-2.9-9.5
		C244.4,213.1,245.4,210.7,247.4,209.4z M449.7,224.2c0,2.4,1.4,4.1,4.1,5.3c10.7-2.9,16.1-6.2,16.1-10c0-2.1-4.2-4.9-12.5-8.3h-0.6
		C454.7,211.2,452.3,215.5,449.7,224.2z M544.7,215.9l5.9,1.2h2.9c2.9,0,4.5-0.6,4.7-1.8v-0.6c-1.6-2.4-4-3.6-7.1-3.6h-2.9
		C545.8,212.2,544.7,213.8,544.7,215.9z M347,224.8v1.8c2.3,3.2,4.5,4.7,6.6,4.7l8.3-4.2v-1.7l-8.3-1.2H353L347,224.8z M636.6,238.5
		h0.6c0,7.8-2.8,12.5-8.3,14.2l-5.4-1.2c-4,2.4-6.7,3.6-8.3,3.6l-8.3-2.4c-1.7,0-9.8,4.7-24.3,14.2l-5.9,1.7l-1.8-0.6v-0.6
		l27.9-18.4c3.3-2,5.9-3,7.7-3l5.9,2.4h3.6l6.6-6.5h0.6c0,1.6,0.8,2.8,2.4,3.6h3c0.9,0,1.5-1.4,1.7-4.2L636.6,238.5z M257.5,246.8
		v2.9c-0.3,2.4-13.8,8.8-40.3,19v-2.4c0.8-2.7,9.9-7.2,27.3-13.6C250.8,248.8,255.1,246.8,257.5,246.8z M126.9,259.2l0.6,1.8
		c0,2.4-12.7,9.3-38,20.7l-0.6-0.6v-0.6c0-3.4,8.5-8.8,25.5-16c0-0.7,2-1.7,5.9-3c0-0.8,2.2-1.8,6.6-2.9V259.2z M166.1,263.4h0.6
		c6.3,2.5,9.5,5.2,9.5,8.3c-1.2,4.7-3.2,7.1-5.9,7.1l-9.5-5.4l-5.3,6.6c-2.8,0-6.2-2.4-10.1-7.1v-0.6c0.9-5.1,2.9-7.7,5.9-7.7
		l8.9,4.7L166.1,263.4z"/>
</g>
</svg>
