<?xml version="1.0" encoding="utf-8"?>
<!-- Generator: Adobe Illustrator 25.2.3, SVG Export Plug-In . SVG Version: 6.00 Build 0)  -->
<svg version="1.1" xmlns="http://www.w3.org/2000/svg" xmlns:xlink="http://www.w3.org/1999/xlink" x="0px" y="0px"
	 viewBox="0 0 700 395" style="enable-background:new 0 0 700 395;" xml:space="preserve">
<style type="text/css">
	.st0{fill:#000222;}
	.st1{fill:#FFFFFF;}
</style>
<g id="Layer_1">
	<rect class="st0" width="700" height="395"/>
</g>
<g id="Layer_3">
	<g>
		<path class="st1" d="M273.5,368.6l1.1,4.2c0.2,0.9,0.5,1.8,0.6,2.6h0.1c0.2-0.8,0.5-1.7,0.7-2.6l1.3-4.2h1.3l1.3,4.1
			c0.3,1,0.5,1.9,0.7,2.7h0.1c0.1-0.8,0.4-1.7,0.6-2.7l1.2-4.1h1.5l-2.7,8.2H280l-1.3-3.9c-0.3-0.9-0.5-1.7-0.7-2.7h0
			c-0.2,1-0.5,1.8-0.7,2.7l-1.3,3.9h-1.4l-2.5-8.2H273.5z"/>
		<path class="st1" d="M286.3,368.6l1.1,4.2c0.2,0.9,0.5,1.8,0.6,2.6h0.1c0.2-0.8,0.5-1.7,0.7-2.6l1.3-4.2h1.3l1.3,4.1
			c0.3,1,0.5,1.9,0.7,2.7h0.1c0.1-0.8,0.4-1.7,0.6-2.7l1.2-4.1h1.5l-2.7,8.2h-1.4l-1.3-3.9c-0.3-0.9-0.5-1.7-0.7-2.7h0
			c-0.2,1-0.5,1.8-0.7,2.7l-1.3,3.9h-1.4l-2.5-8.2H286.3z"/>
		<path class="st1" d="M299,368.6l1.1,4.2c0.2,0.9,0.5,1.8,0.6,2.6h0.1c0.2-0.8,0.5-1.7,0.7-2.6l1.3-4.2h1.3l1.3,4.1
			c0.3,1,0.5,1.9,0.7,2.7h0.1c0.1-0.8,0.4-1.7,0.6-2.7l1.2-4.1h1.5l-2.7,8.2h-1.4l-1.3-3.9c-0.3-0.9-0.5-1.7-0.7-2.7h0
			c-0.2,1-0.5,1.8-0.7,2.7l-1.3,3.9h-1.4l-2.5-8.2H299z"/>
		<path class="st1" d="M309.9,375.9c0-0.6,0.4-1.1,1-1.1c0.6,0,1,0.4,1,1.1c0,0.6-0.4,1.1-1,1.1C310.3,377,309.9,376.5,309.9,375.9z
			"/>
		<path class="st1" d="M313.5,375.3c0.4,0.3,1.2,0.6,2,0.6c1.1,0,1.6-0.5,1.6-1.2c0-0.7-0.4-1.1-1.5-1.5c-1.5-0.5-2.2-1.3-2.2-2.3
			c0-1.3,1.1-2.4,2.8-2.4c0.8,0,1.6,0.2,2,0.5l-0.4,1.1c-0.3-0.2-0.9-0.5-1.7-0.5c-0.9,0-1.4,0.5-1.4,1.1c0,0.7,0.5,1,1.6,1.4
			c1.4,0.5,2.2,1.3,2.2,2.5c0,1.4-1.1,2.5-3.1,2.5c-0.9,0-1.7-0.2-2.3-0.6L313.5,375.3z"/>
		<path class="st1" d="M327.4,374.6c0,0.9,0,1.6,0.1,2.2h-1.3l-0.1-1.3h0c-0.4,0.7-1.3,1.5-2.7,1.5c-1.3,0-2.8-0.7-2.8-3.6v-4.8h1.5
			v4.6c0,1.6,0.5,2.6,1.8,2.6c1,0,1.7-0.7,2-1.4c0.1-0.2,0.1-0.5,0.1-0.8v-5h1.5V374.6z"/>
		<path class="st1" d="M329.8,371.1c0-1,0-1.8-0.1-2.6h1.3l0.1,1.6h0.1c0.4-1.1,1.3-1.8,2.3-1.8c0.2,0,0.3,0,0.4,0.1v1.4
			c-0.2,0-0.3-0.1-0.5-0.1c-1.1,0-1.8,0.8-2,1.9c0,0.2-0.1,0.4-0.1,0.7v4.4h-1.5V371.1z"/>
		<path class="st1" d="M339.9,376.8l-0.1-1h-0.1c-0.5,0.6-1.3,1.2-2.5,1.2c-1.7,0-2.5-1.2-2.5-2.4c0-2,1.8-3.1,4.9-3.1v-0.2
			c0-0.7-0.2-1.9-1.9-1.9c-0.8,0-1.6,0.2-2.1,0.6l-0.3-1c0.7-0.4,1.7-0.7,2.7-0.7c2.5,0,3.1,1.7,3.1,3.4v3.1c0,0.7,0,1.4,0.1,2
			H339.9z M339.7,372.6c-1.6,0-3.5,0.3-3.5,1.9c0,1,0.6,1.4,1.4,1.4c1.1,0,1.8-0.7,2-1.4c0.1-0.2,0.1-0.3,0.1-0.5V372.6z"/>
		<path class="st1" d="M343.5,364.7h1.5v5.1h0c0.2-0.4,0.6-0.8,1.1-1.1c0.4-0.3,1-0.4,1.5-0.4c1.1,0,2.9,0.7,2.9,3.5v4.9H349v-4.7
			c0-1.3-0.5-2.4-1.9-2.4c-1,0-1.7,0.7-2,1.5c-0.1,0.2-0.1,0.4-0.1,0.7v5h-1.5V364.7z"/>
		<path class="st1" d="M358.6,375.5L358.6,375.5c-0.5,0.8-1.4,1.5-2.7,1.5c-1.9,0-3.5-1.7-3.5-4.2c0-3.1,2-4.4,3.7-4.4
			c1.3,0,2.1,0.6,2.5,1.4h0l0.1-1.2h1.4c0,0.7-0.1,1.4-0.1,2.3v9.3h-1.5V375.5z M358.6,371.9c0-0.2,0-0.4-0.1-0.6
			c-0.2-0.9-1-1.7-2.1-1.7c-1.5,0-2.5,1.3-2.5,3.2c0,1.6,0.8,3.1,2.4,3.1c1,0,1.8-0.6,2.1-1.6c0.1-0.2,0.1-0.5,0.1-0.7V371.9z"/>
		<path class="st1" d="M369.4,374.6c0,0.9,0,1.6,0.1,2.2h-1.3l-0.1-1.3h0c-0.4,0.7-1.3,1.5-2.7,1.5c-1.3,0-2.8-0.7-2.8-3.6v-4.8h1.5
			v4.6c0,1.6,0.5,2.6,1.8,2.6c1,0,1.7-0.7,2-1.4c0.1-0.2,0.1-0.5,0.1-0.8v-5h1.5V374.6z"/>
		<path class="st1" d="M371.9,371.1c0-1,0-1.8-0.1-2.6h1.3l0.1,1.6h0.1c0.4-1.1,1.3-1.8,2.3-1.8c0.2,0,0.3,0,0.4,0.1v1.4
			c-0.2,0-0.3-0.1-0.5-0.1c-1.1,0-1.8,0.8-2,1.9c0,0.2-0.1,0.4-0.1,0.7v4.4h-1.5V371.1z"/>
		<path class="st1" d="M381.9,376.8l-0.1-1h-0.1c-0.5,0.6-1.3,1.2-2.5,1.2c-1.7,0-2.5-1.2-2.5-2.4c0-2,1.8-3.1,4.9-3.1v-0.2
			c0-0.7-0.2-1.9-1.9-1.9c-0.8,0-1.6,0.2-2.1,0.6l-0.3-1c0.7-0.4,1.7-0.7,2.7-0.7c2.5,0,3.1,1.7,3.1,3.4v3.1c0,0.7,0,1.4,0.1,2
			H381.9z M381.7,372.6c-1.6,0-3.5,0.3-3.5,1.9c0,1,0.6,1.4,1.4,1.4c1.1,0,1.8-0.7,2-1.4c0.1-0.2,0.1-0.3,0.1-0.5V372.6z"/>
		<path class="st1" d="M385.6,370.8c0-0.9,0-1.5-0.1-2.2h1.3l0.1,1.4h0c0.4-0.8,1.4-1.5,2.7-1.5c1.1,0,2.9,0.7,2.9,3.5v4.9h-1.5
			v-4.7c0-1.3-0.5-2.4-1.9-2.4c-1,0-1.8,0.7-2,1.5c-0.1,0.2-0.1,0.4-0.1,0.7v4.9h-1.5V370.8z"/>
		<path class="st1" d="M394.6,375.9c0-0.6,0.4-1.1,1-1.1c0.6,0,1,0.4,1,1.1c0,0.6-0.4,1.1-1,1.1C395,377,394.6,376.5,394.6,375.9z"
			/>
		<path class="st1" d="M404.4,376.5c-0.4,0.2-1.3,0.5-2.4,0.5c-2.5,0-4.1-1.7-4.1-4.2c0-2.5,1.7-4.4,4.4-4.4c0.9,0,1.7,0.2,2.1,0.4
			l-0.3,1.2c-0.4-0.2-0.9-0.4-1.7-0.4c-1.9,0-2.9,1.4-2.9,3.1c0,1.9,1.2,3.1,2.9,3.1c0.8,0,1.4-0.2,1.8-0.4L404.4,376.5z"/>
		<path class="st1" d="M413.5,372.6c0,3-2.1,4.4-4.1,4.4c-2.2,0-3.9-1.6-3.9-4.2c0-2.8,1.8-4.4,4.1-4.4
			C411.9,368.4,413.5,370.1,413.5,372.6z M406.9,372.7c0,1.8,1,3.2,2.5,3.2c1.4,0,2.5-1.3,2.5-3.2c0-1.4-0.7-3.2-2.5-3.2
			S406.9,371.1,406.9,372.7z"/>
		<path class="st1" d="M415.4,370.8c0-0.9,0-1.5-0.1-2.2h1.3l0.1,1.3h0.1c0.5-0.8,1.2-1.5,2.6-1.5c1.1,0,2,0.7,2.3,1.6h0
			c0.3-0.5,0.6-0.8,0.9-1.1c0.5-0.4,1-0.6,1.8-0.6c1.1,0,2.7,0.7,2.7,3.6v4.8h-1.5v-4.7c0-1.6-0.6-2.5-1.8-2.5
			c-0.9,0-1.5,0.6-1.8,1.4c-0.1,0.2-0.1,0.5-0.1,0.7v5.1h-1.5v-4.9c0-1.3-0.6-2.3-1.7-2.3c-0.9,0-1.6,0.7-1.9,1.5
			c-0.1,0.2-0.1,0.5-0.1,0.7v5h-1.5V370.8z"/>
	</g>
</g>
<g id="Layer_4">
	<path class="st1" d="M311.8,112.8h1.2c7.6,17.2,11.4,26.6,11.4,28.1v1.2l-1.2,1.2l-4.2-3.6h-0.6v1.2l10.7,77.5v2.9
		c-1.5,16.7-5.7,25-12.6,25c0,0.8-1,1.2-2.9,1.2h-4.8l-14.9-2.9c-2,0-7.8,2.4-17.3,7.2c-5.2,1.6-9.6,2.4-13.1,2.4
		c-12.5,0-20.4-4.8-23.9-14.3c-1.2-3.1-1.8-5.9-1.8-8.3v-2.4l0.6-10.2l-1.8-0.6c-15.5,6.8-24.6,11.2-27.4,13.1c-1,3.6-2,5.3-2.9,5.3
		h-0.6l-3.6-3.6c-12.7,4.2-25.2,10.8-37.5,19.7c-18.5,19-28.8,28.6-31,28.6l-6,0.6c-7.7,0-13.7-5.6-17.9-16.7l-0.6-3.6
		c0-8.5,4.6-21.6,13.8-39.4v-1.2c-2.8-4.3-4.2-8.9-4.2-13.7v-2.4c0-8.6,3.2-21.2,9.5-37.6l0.6-0.6h1.2v1.2h0.6
		c-3.7,12-6,21.8-7.2,29.2c0,11.9,2.4,17.9,7.2,17.9c1.4-1.5,2.6-3.9,3.6-7.2h1.8l0.6,1.8c0,5.1-3,10.3-8.9,15.5
		c-4.3,3.6-9.1,13.9-14.3,31v5.3c0.9,6.8,4.3,10.2,10.1,10.2c8.9,0,18.4-6.8,28.6-20.3c12.8-12.3,25.4-20.6,37.6-25
		c3.4-1.5,5.2-2.7,5.3-3.6v-0.6c-11.1-9.2-16.7-15.1-16.7-17.9l-0.6-4.1c0-11.1,12.9-16.7,38.7-16.7c33.4,1.7,51.9,3.9,55.5,6.5v1.8
		c-2,9.1-5.6,13.7-10.7,13.7c-11.9,6-17.9,10.2-17.9,12.6l-0.6,5.3v1.8c1.4,10.7,8.4,16.1,20.9,16.1h1.2c8.2,0,14.3-1.8,18.4-5.3
		l-0.6-7.2V228c0-10.1,5.4-18.4,16.1-25c4.9,0,8.3,4.8,10.2,14.3l-3.6,14.9v2.4l2.9,0.6h7.8c4.8-1.1,7.2-2.9,7.2-5.4L308.3,123
		C309.7,116.2,310.9,112.8,311.8,112.8z M342.3,112.8h1.7l10.7,29.3l-1.2,1.7c-2.4-1-3.6-2.1-3.6-3.6h-1.7l9.5,71
		c1.2,8.1,1.7,16.6,1.7,25.6v1.2c0,10.3-1.8,17.7-5.3,22.1h-0.6V259H353v-1.2h0.6c0-16.6-5-61.8-14.9-135.4
		C340.3,116,341.5,112.8,342.3,112.8z M393.6,114.7c2.4,0,3.6,2.8,3.6,8.3l-0.6,7.2c4,4.6,6,7.6,6,8.9l-0.6,3h-1.8l-6.5-4.2
		c-12.6,11.9-23.3,19.1-32.2,21.5l-0.6-0.6v-0.6c0.6-1.2,6.6-5.3,17.9-12.5l10.2-9.5c0-1.4-1.2-3.8-3.6-7.2
		C385.2,121.6,388,116.8,393.6,114.7z M158,115.2h1.8c2.5,1.7,4.3,3.9,5.3,6.6l-2.4,3.6l-4.8-3h-0.6c-0.8,0-1.4,1.4-1.8,4.2l0.6,4.1
		c-1,12.5-2.4,19-4.2,19.7c-5.7-11.9-11.1-17.9-16.1-17.9c-2.4-2.7-3.6-4.5-3.6-5.4c0.8-3.2,1.6-4.8,2.4-4.8h0.6
		c3.8,0,8.9,5,15.5,14.9h1.8v-9.5C152.7,122,154.4,117.8,158,115.2z M522.9,115.2c3.2,1.4,4.8,3.6,4.8,6.6h0.6
		c-0.7,2.8-1.5,4.1-2.4,4.1c-2.4-2.4-4.4-3.6-6-3.6h-0.6l-2.4,2.4v4.2l-1.2,10.7l0.6,2.9c-1.1,7.2-2.1,10.7-3,10.7h-0.6
		c-5.8-11.1-10.8-16.7-14.9-16.7c-3.1-1.5-5.1-3.1-6-4.8v-3.6c0.3-2.4,0.9-3.6,1.8-3.6c4.6,0,10.8,5.2,18.4,15.5h0.6
		c0-15.1,3.2-23.4,9.5-25H522.9z M246.9,117h0.6l-2.9,10.7v5.3c0,3.1,1.4,4.9,4.1,5.4l2.4-2.4l0.6,0.6h0.6c0,3.3-1.6,6.1-4.8,8.3
		h-1.7c-3.2-1.6-4.8-5-4.8-10.1v-0.6C240.9,129.1,242.9,123.3,246.9,117z M565.9,117c3.6,1.2,5.4,4.8,5.4,10.7v4.8
		c0,1.9,1.4,4.3,4.1,7.2v2.9l-1.2,1.2H573l-3.6-2.4h-1.7c-20.7,18.7-36,28.1-46,28.1c3.9-3.3,14-9.9,30.5-19.7
		c7.3-5.9,11.1-9.2,11.3-10.1v-1.2c-4-3.7-6-6.8-6-9.5C559.3,121,562,117,565.9,117z M471.6,117.6l1.2,1.2c0,3.5-3.8,6.9-11.3,10.2
		c-23,14-37.5,22.3-43.6,25l-0.6-0.6v-1.2c0-3.5,8.9-9.9,26.8-19.1L471.6,117.6z M390.5,121.8l-1.7,2.9c0.5,2,1.9,3,4.1,3l0.6-0.6
		v-1.7C393.6,123,392.6,121.8,390.5,121.8z M561.1,127.1c0.2,1.4,2,3,5.4,4.8h1.2v-3.6c0-2.1-0.8-3.5-2.4-4.1h-1.8
		C561.9,125,561.1,126,561.1,127.1z M303.5,133.7l0.6,0.6c0,5.1-9.1,10.5-27.4,16.1c-22.6,9.3-39.5,17.1-50.7,23.2l-1.7-1.2
		c0-5.2,8.7-11.2,26.2-17.9c15.7-7.4,31.2-13.7,46.5-19.1c0-0.8,1-1.2,2.9-1.2c0-0.8,1.2-1.2,3.6-1.2V133.7z M203.9,142.1l2.4,0.6
		l5.3-0.6c7.6,1,11.4,2.5,11.4,4.8c-2.8,6.6-6.8,11.1-11.9,13.7c-2.2,1.6-7.2,3.6-14.9,6l-0.6-0.6v-0.6l14.3-10.7V154l-1.2-1.2h-7.2
		c-5.5,0-10.3,1.8-14.3,5.3l-1.2-1.2C189.8,147,195.7,142.1,203.9,142.1z M479.4,152.8v0.6c-2,6-3,10.4-3,13.1
		c1.2,5.2,3,7.8,5.4,7.8l3.6-4.8h0.6v1.7c0,4.7-2,8.1-6,10.2c-4.3-1.9-6.5-5.4-6.5-10.7v-2.4C475.1,160.2,477,155,479.4,152.8z
		 M401.3,157.6h0.6c5.8,3.8,8.7,6.9,8.8,9.1c0.1,2.3-1.5,4.8-4.7,7.6h-1.2l-7.7-5.4c-1,0.1-2.5,2.3-4.8,6.6l-0.6,0.6h-0.6
		c-2.5,0-5.9-2.6-10.2-7.7c0.1-2.6,1.6-5.4,4.8-8.3h1.2l6.6,4.1h1.7L401.3,157.6z M568.2,159.3v0.6l-2.9,8.9c0,6,1.6,9,4.8,9
		l2.9-3.6v1.2c0,3.7-1.4,6.7-4.1,8.9h-2.4c-2.3,0-3.7-3.2-4.2-9.5C564,164.5,566,159.3,568.2,159.3z M155.1,168.3h0.6l-1.7,11.3v1.8
		c0,5.1,1.2,8.3,3.6,9.5h0.6c1.6-0.8,2.4-2,2.4-3.6h1.8v0.6c0,3.8-1.6,7.2-4.8,10.2c-4.1,0-6.5-4.4-7.2-13.1
		C151.6,175.7,153.1,170.1,155.1,168.3z M435.9,170.7h2.4c0,1.3,3.6,5.2,10.7,11.9l0.6,0.6v1.8h-1.2v0.6l-0.6-0.6h-1.2l-1.2,1.2v0.6
		l8.3,17.3l1.2,8.3c0,9.5-5.2,17.8-15.5,25c-1.6,2.8-2.6,5.9-2.9,9.5c0,9.8,4.4,16.1,13.1,19.1l3.6,0.6h6.5c9.8,0,24.3-9.3,43.6-28
		c2.8-3.6,4.1-6.1,4.1-7.8v-0.6c0-0.8-0.6-1.2-1.7-1.2l-13.1,2.4c-10.8-0.6-16.1-4.2-16.1-10.7V219c1.6-12.3,6.4-18.4,14.3-18.4
		v-0.6c4.5,0,9.7,3.4,15.5,10.2c1.3,2.7,2.7,4.3,4.2,4.8c4.8-2.1,10.6-5.9,17.3-11.4l3.6-1.2h1.2c0,11.6,4.4,17.3,13.1,17.3h0.6
		c8.6,0,15.7-6.2,21.5-18.5l1.7-1.2h1.2c0,2.3-0.8,4.7-2.4,7.2v1.8c3,4.3,7.2,6.5,12.6,6.5c3.2,0,4.8-0.8,4.8-2.4l-3-7.7
		c1.2-5.2,2.2-7.8,3-7.8h0.6c3.2,3.4,4.8,7.6,4.8,12.6v1.7c-1.2,10.3-4.7,15.5-10.7,15.5h-1.7c-5.4,0-10.2-2.8-14.3-8.3h-1.2
		c-4.6,8-11.2,11.9-19.7,11.9c-9.9-2-14.9-6.8-14.9-14.3l-0.6-0.6h-1.7c-8.7,5.4-13.1,9.9-13.1,13.7c0,12.8-12.1,27-36.4,42.4
		c-7.6,4.3-15,6.5-22,6.5c-9.7,0-16.7-6-20.9-17.9l-1.2-6.5l0.6-0.6V244h-1.2c-24.7,16.5-43.4,25.3-56.1,26.2l-23.9,4.8l-0.6-0.6
		v-0.6c0-1.1,10.3-5.4,31-13.1c24-12.3,42.9-24,56.7-35.1c7.2-5.7,10.7-9.5,10.7-11.4c-7.3-14.7-12.5-26.4-15.5-35.1L435.9,170.7z
		 M412.6,178.4h0.6v0.6c0,6.1-3.4,13.3-10.1,21.5v1.2c8,6.3,11.9,11.9,11.9,16.7c0,11-6.2,18.5-18.5,22.7l-4.8,1.7
		c-4.9,0-7.8-4.2-8.9-12.5c0-3.8,2.2-11.2,6.5-22.1c-10.3-9.6-15.5-15.6-15.5-17.9v-4.1c0.3-2.4,0.9-3.6,1.8-3.6
		c8,2.6,13,5,14.9,7.2v0.6c0,0.8-0.6,1.2-1.7,1.2l-0.6,0.6v0.6c2.7,3.6,5.2,5.4,7.8,5.4C399.1,195.2,404.6,188.6,412.6,178.4z
		 M297.5,179.1c6,3.2,9,6.2,9,8.9c-2.8,4.4-5.1,6.6-7.2,6.6c-4.8-2.8-7.6-5.4-8.3-7.8C292.5,181.6,294.7,179.1,297.5,179.1z
		 M185.4,201.1v0.6c9.1,7.3,15.9,13.5,20.3,18.4c11.2-3.2,26.5-9.9,46-20.3v-1.2c-16.4-2-28.8-2.9-37-2.9
		C196.7,195.8,186.9,197.5,185.4,201.1z M388.2,224.4v1.2c0.5,3.2,1.7,4.8,3.6,4.8c6,0,11.8-3,17.3-9v-0.6
		c-0.6-1.9-4.6-4.6-11.9-8.3h-1.8C390.5,217.1,388.2,221,388.2,224.4z M484.2,216v1.7l5.3,1.2h7.2l1.2-1.2v-0.6
		c-2-2.8-4.1-4.2-6.5-4.2H489C486.8,213,485.2,214,484.2,216z M288,223.7v1.2c2.9,3.6,5.5,5.4,7.8,5.4h0.6c2.8-1.3,5-3.1,6.6-5.4
		v-1.7c-1.3-5.6-3.3-8.3-6-8.3C294.9,214.8,291.9,217.8,288,223.7z M576.6,241.6l0.6,0.6v1.2c-1.7,8.3-4.5,12.5-8.3,12.5l-5.4-1.2
		c-3.6,2.4-6.6,3.6-8.9,3.6c-2.8-1.6-5.1-2.4-7.2-2.4c-3.5,0-10.1,3.6-19.7,10.7c-3.6,2-7.7,3.6-12.5,4.8l-0.6-0.6v-0.6l29.3-19.1
		l5.3-1.7l7.2,2.4h3l7.2-6.6c0.8,2.4,1.6,3.6,2.4,3.6h4.1C573,246,574.2,243.6,576.6,241.6z M218.8,250c2.3,0,5.9,2.8,10.7,8.3
		c0,2.7-2.2,5.2-6.5,7.8c-4.9-2.5-7.9-5.3-9-8.3C216.1,252.7,217.7,250.1,218.8,250z M299.4,255.4c2,0.5,2.9,1.9,2.9,4.1v0.6
		c0,7.2-4,13.6-11.9,19.1h-1.7l10.1-12.6v-1.2c0-2.4-1-3.6-2.9-3.6l-3,3h-0.6v-1.2C293.5,258.2,295.9,255.4,299.4,255.4z
		 M200.9,260.1v1.7c0,3-6.1,6.8-18.4,11.4c-0.8,1.1-7,3.8-18.5,8.3h-0.6v-1.2h-0.6C162.8,277.3,175.5,270.6,200.9,260.1z"/>
</g>
</svg>
