<?xml version="1.0" encoding="utf-8"?>
<!-- Generator: Adobe Illustrator 25.2.3, SVG Export Plug-In . SVG Version: 6.00 Build 0)  -->
<svg version="1.1" id="Layer_1" xmlns="http://www.w3.org/2000/svg" xmlns:xlink="http://www.w3.org/1999/xlink" x="0px" y="0px"
	 viewBox="0 0 700 395" style="enable-background:new 0 0 700 395;" xml:space="preserve">
<style type="text/css">
	.st0{fill:#000222;}
	.st1{fill:#FFFFFF;}
</style>
<g id="Layer_1_1_">
	<rect y="-0.5" class="st0" width="700" height="395"/>
</g>
<g id="Layer_3">
	<g>
		<path class="st1" d="M273.5,368.6l1.1,4.2c0.2,0.9,0.5,1.8,0.6,2.6h0.1c0.2-0.8,0.5-1.7,0.7-2.6l1.3-4.2h1.3l1.3,4.1
			c0.3,1,0.5,1.9,0.7,2.7h0.1c0.1-0.8,0.4-1.7,0.6-2.7l1.2-4.1h1.5l-2.7,8.2H280l-1.3-3.9c-0.3-0.9-0.5-1.7-0.7-2.7l0,0
			c-0.2,1-0.5,1.8-0.7,2.7l-1.3,3.9h-1.4l-2.5-8.2H273.5z"/>
		<path class="st1" d="M286.3,368.6l1.1,4.2c0.2,0.9,0.5,1.8,0.6,2.6h0.1c0.2-0.8,0.5-1.7,0.7-2.6l1.3-4.2h1.3l1.3,4.1
			c0.3,1,0.5,1.9,0.7,2.7h0.1c0.1-0.8,0.4-1.7,0.6-2.7l1.2-4.1h1.5l-2.7,8.2h-1.4l-1.3-3.9c-0.3-0.9-0.5-1.7-0.7-2.7l0,0
			c-0.2,1-0.5,1.8-0.7,2.7l-1.3,3.9h-1.4l-2.5-8.2H286.3z"/>
		<path class="st1" d="M299,368.6l1.1,4.2c0.2,0.9,0.5,1.8,0.6,2.6h0.1c0.2-0.8,0.5-1.7,0.7-2.6l1.3-4.2h1.3l1.3,4.1
			c0.3,1,0.5,1.9,0.7,2.7h0.1c0.1-0.8,0.4-1.7,0.6-2.7l1.2-4.1h1.5l-2.7,8.2h-1.4l-1.3-3.9c-0.3-0.9-0.5-1.7-0.7-2.7l0,0
			c-0.2,1-0.5,1.8-0.7,2.7l-1.3,3.9H300l-2.5-8.2H299z"/>
		<path class="st1" d="M309.9,375.9c0-0.6,0.4-1.1,1-1.1s1,0.4,1,1.1c0,0.6-0.4,1.1-1,1.1S309.9,376.5,309.9,375.9z"/>
		<path class="st1" d="M313.5,375.3c0.4,0.3,1.2,0.6,2,0.6c1.1,0,1.6-0.5,1.6-1.2s-0.4-1.1-1.5-1.5c-1.5-0.5-2.2-1.3-2.2-2.3
			c0-1.3,1.1-2.4,2.8-2.4c0.8,0,1.6,0.2,2,0.5l-0.4,1.1c-0.3-0.2-0.9-0.5-1.7-0.5c-0.9,0-1.4,0.5-1.4,1.1c0,0.7,0.5,1,1.6,1.4
			c1.4,0.5,2.2,1.3,2.2,2.5c0,1.4-1.1,2.5-3.1,2.5c-0.9,0-1.7-0.2-2.3-0.6L313.5,375.3z"/>
		<path class="st1" d="M327.4,374.6c0,0.9,0,1.6,0.1,2.2h-1.3l-0.1-1.3l0,0c-0.4,0.7-1.3,1.5-2.7,1.5c-1.3,0-2.8-0.7-2.8-3.6v-4.8
			h1.5v4.6c0,1.6,0.5,2.6,1.8,2.6c1,0,1.7-0.7,2-1.4c0.1-0.2,0.1-0.5,0.1-0.8v-5h1.5v6H327.4z"/>
		<path class="st1" d="M329.8,371.1c0-1,0-1.8-0.1-2.6h1.3l0.1,1.6h0.1c0.4-1.1,1.3-1.8,2.3-1.8c0.2,0,0.3,0,0.4,0.1v1.4
			c-0.2,0-0.3-0.1-0.5-0.1c-1.1,0-1.8,0.8-2,1.9c0,0.2-0.1,0.4-0.1,0.7v4.4h-1.5L329.8,371.1L329.8,371.1z"/>
		<path class="st1" d="M339.9,376.8l-0.1-1h-0.1c-0.5,0.6-1.3,1.2-2.5,1.2c-1.7,0-2.5-1.2-2.5-2.4c0-2,1.8-3.1,4.9-3.1v-0.2
			c0-0.7-0.2-1.9-1.9-1.9c-0.8,0-1.6,0.2-2.1,0.6l-0.3-1c0.7-0.4,1.7-0.7,2.7-0.7c2.5,0,3.1,1.7,3.1,3.4v3.1c0,0.7,0,1.4,0.1,2
			H339.9z M339.7,372.6c-1.6,0-3.5,0.3-3.5,1.9c0,1,0.6,1.4,1.4,1.4c1.1,0,1.8-0.7,2-1.4c0.1-0.2,0.1-0.3,0.1-0.5V372.6z"/>
		<path class="st1" d="M343.5,364.7h1.5v5.1l0,0c0.2-0.4,0.6-0.8,1.1-1.1c0.4-0.3,1-0.4,1.5-0.4c1.1,0,2.9,0.7,2.9,3.5v4.9H349V372
			c0-1.3-0.5-2.4-1.9-2.4c-1,0-1.7,0.7-2,1.5c-0.1,0.2-0.1,0.4-0.1,0.7v5h-1.5V364.7z"/>
		<path class="st1" d="M358.6,375.5L358.6,375.5c-0.5,0.8-1.4,1.5-2.7,1.5c-1.9,0-3.5-1.7-3.5-4.2c0-3.1,2-4.4,3.7-4.4
			c1.3,0,2.1,0.6,2.5,1.4l0,0l0.1-1.2h1.4c0,0.7-0.1,1.4-0.1,2.3v9.3h-1.5v-4.7H358.6z M358.6,371.9c0-0.2,0-0.4-0.1-0.6
			c-0.2-0.9-1-1.7-2.1-1.7c-1.5,0-2.5,1.3-2.5,3.2c0,1.6,0.8,3.1,2.4,3.1c1,0,1.8-0.6,2.1-1.6c0.1-0.2,0.1-0.5,0.1-0.7v-1.7H358.6z"
			/>
		<path class="st1" d="M369.4,374.6c0,0.9,0,1.6,0.1,2.2h-1.3l-0.1-1.3l0,0c-0.4,0.7-1.3,1.5-2.7,1.5c-1.3,0-2.8-0.7-2.8-3.6v-4.8
			h1.5v4.6c0,1.6,0.5,2.6,1.8,2.6c1,0,1.7-0.7,2-1.4c0.1-0.2,0.1-0.5,0.1-0.8v-5h1.5v6H369.4z"/>
		<path class="st1" d="M371.9,371.1c0-1,0-1.8-0.1-2.6h1.3l0.1,1.6h0.1c0.4-1.1,1.3-1.8,2.3-1.8c0.2,0,0.3,0,0.4,0.1v1.4
			c-0.2,0-0.3-0.1-0.5-0.1c-1.1,0-1.8,0.8-2,1.9c0,0.2-0.1,0.4-0.1,0.7v4.4h-1.5L371.9,371.1L371.9,371.1z"/>
		<path class="st1" d="M381.9,376.8l-0.1-1h-0.1c-0.5,0.6-1.3,1.2-2.5,1.2c-1.7,0-2.5-1.2-2.5-2.4c0-2,1.8-3.1,4.9-3.1v-0.2
			c0-0.7-0.2-1.9-1.9-1.9c-0.8,0-1.6,0.2-2.1,0.6l-0.3-1c0.7-0.4,1.7-0.7,2.7-0.7c2.5,0,3.1,1.7,3.1,3.4v3.1c0,0.7,0,1.4,0.1,2
			H381.9z M381.7,372.6c-1.6,0-3.5,0.3-3.5,1.9c0,1,0.6,1.4,1.4,1.4c1.1,0,1.8-0.7,2-1.4c0.1-0.2,0.1-0.3,0.1-0.5V372.6z"/>
		<path class="st1" d="M385.6,370.8c0-0.9,0-1.5-0.1-2.2h1.3l0.1,1.4l0,0c0.4-0.8,1.4-1.5,2.7-1.5c1.1,0,2.9,0.7,2.9,3.5v4.9H391
			v-4.7c0-1.3-0.5-2.4-1.9-2.4c-1,0-1.8,0.7-2,1.5c-0.1,0.2-0.1,0.4-0.1,0.7v4.9h-1.5v-6.1H385.6z"/>
		<path class="st1" d="M394.6,375.9c0-0.6,0.4-1.1,1-1.1s1,0.4,1,1.1c0,0.6-0.4,1.1-1,1.1S394.6,376.5,394.6,375.9z"/>
		<path class="st1" d="M404.4,376.5c-0.4,0.2-1.3,0.5-2.4,0.5c-2.5,0-4.1-1.7-4.1-4.2s1.7-4.4,4.4-4.4c0.9,0,1.7,0.2,2.1,0.4
			l-0.3,1.2c-0.4-0.2-0.9-0.4-1.7-0.4c-1.9,0-2.9,1.4-2.9,3.1c0,1.9,1.2,3.1,2.9,3.1c0.8,0,1.4-0.2,1.8-0.4L404.4,376.5z"/>
		<path class="st1" d="M413.5,372.6c0,3-2.1,4.4-4.1,4.4c-2.2,0-3.9-1.6-3.9-4.2c0-2.8,1.8-4.4,4.1-4.4
			C411.9,368.4,413.5,370.1,413.5,372.6z M406.9,372.7c0,1.8,1,3.2,2.5,3.2c1.4,0,2.5-1.3,2.5-3.2c0-1.4-0.7-3.2-2.5-3.2
			S406.9,371.1,406.9,372.7z"/>
		<path class="st1" d="M415.4,370.8c0-0.9,0-1.5-0.1-2.2h1.3l0.1,1.3h0.1c0.5-0.8,1.2-1.5,2.6-1.5c1.1,0,2,0.7,2.3,1.6l0,0
			c0.3-0.5,0.6-0.8,0.9-1.1c0.5-0.4,1-0.6,1.8-0.6c1.1,0,2.7,0.7,2.7,3.6v4.8h-1.5V372c0-1.6-0.6-2.5-1.8-2.5
			c-0.9,0-1.5,0.6-1.8,1.4c-0.1,0.2-0.1,0.5-0.1,0.7v5.1h-1.5v-4.9c0-1.3-0.6-2.3-1.7-2.3c-0.9,0-1.6,0.7-1.9,1.5
			c-0.1,0.2-0.1,0.5-0.1,0.7v5h-1.5v-5.9H415.4z"/>
	</g>
	<path class="st1" d="M320.2,101.2h2.7c1.2,4.2,5,12.9,11.2,25.9l1.3,6l-0.6,1.9h-1.3c-3-3.1-5-4.6-6-4.6v0.6l11.3,93
		c0,14.3-3.8,22.8-11.3,25.2c-6.6,2.7-12.1,4-16.6,4c-11.1,0-17.7-8.4-19.9-25.2h-2c-10.6,3.1-15.9,7.7-15.9,14
		c0,9.1-7.7,19-23.2,29.8c-7.3,7-16.1,12.3-26.6,15.9l-12.7,2.7c-9.4,0-17.4-5.8-23.9-17.3l-1.3-12.6v-1.3c0-5.5,0.7-10.8,2-15.9
		l-1.3-2c-11.4,2.2-19.6,3.4-24.6,3.4c-13,0-24.6-8.4-34.5-25.2l-3.3-0.7c-5.4,0-11.9,4.7-19.3,14c-7.4,18.6-12.9,31-16.6,37.2
		l-7.3,3.3c-9,0-15.7-9.5-19.9-28.5l-1.3-11.3l2-18.6h1.9v12c0,17.1,5.5,28.4,16.6,33.9h0.6c6.8,0,12.4-8.9,16.6-26.6
		c4.4-12.1,12-21.2,22.6-27.3l5.9-1.3c2.8,0,7.9,5.3,15.3,15.9c8.3,6.7,15.8,10,22.6,10c18.7,0,34.1-5.3,46.5-15.9v-0.7
		c0-2.5-2.2-7.2-6.6-13.9l-0.7-2.7c0.9-5.8,2-8.7,3.4-8.7h0.6c5.8,6.1,8.7,12.1,8.7,18c0,13.3-3.5,21.5-10.6,24.5
		c-9.3,4-14,8.4-14,13.3l-0.6,8v4c0,11,7.7,17.7,23.2,19.9c13.3,0,30.8-10.6,52.5-31.9l1.9-2.7v-3.3l-1.3-1.3h-0.6l-17.3,1.9
		c-8.4-1.5-12.7-5.5-12.7-12c2.8-13.3,6.3-19.9,10.6-19.9c0-0.9,2-1.6,6-1.9v-0.7c5.7,0,11.9,5.5,18.6,16.6l1.9,0.6l22.6-10.6l2,3.4
		l-0.7,0.6v8.7c0,8.6,5.8,13.6,17.3,15.2c12-1.8,18-4.4,18-8l-15.3-120.1L320.2,101.2z M354,101.8h2c0,1.5,2.2,7.1,6.6,16.6
		c2.5,4.5,4.9,10.2,7.3,17.3l-1.3,2.7l-6.6-4.7l-0.6,0.7c8.4,62.9,12.6,98.8,12.6,107.6c-1.5,15.5-3.2,23.2-5.3,23.2l-1.3-1.3v-2.7
		c0-12-4.4-52.9-13.3-122.8c-1.3-13.9-2.6-22.1-4-24.6L354,101.8z M303.5,103.9l1.3,1.9c0,4.9-5.5,8.9-16.6,12
		c-0.5,0.9-10.9,5.5-31.3,14l-45.8,22.6l-1.3-1.3c0-5.8,5.3-10.7,15.9-14.6c21-11.1,46.6-22.6,77-34.5L303.5,103.9L303.5,103.9z
		 M416.4,105.2c3.1,1.5,4.7,4.3,4.7,8.6l-0.7,11.3c4.4,2.5,6.6,5.3,6.6,8.6c-0.3,2.2-0.9,3.4-1.9,3.4l-8-5.3
		c-14.8,14.2-27.4,22.4-37.9,24.5l-0.6-0.6c0-0.8,4.6-4.2,13.9-10c12.5-8.6,18.9-14.1,19.3-16.6c-3.1-4-4.7-7.3-4.7-10
		C407.1,111.9,410.2,107.3,416.4,105.2z M563.8,105.8h3.4c3.1,2.2,4.6,4.9,4.6,8c-0.9,2.7-1.8,4-2.7,4c-2.7-2.7-4.9-4-6.6-4
		c-2.7,0-4,2.2-4,6.6v2.7c-0.7,17.7-2,26.6-4,26.6h-1.3c-5.4-13.3-11.3-19.9-17.9-19.9c-3.5-1.9-5.3-4.5-5.3-8h-0.7
		c0-3.5,1.6-5.3,4.7-5.3c3.9,0,10.1,6.2,18.6,18.6h1.9v-5.9C554.5,117.1,557.6,109.3,563.8,105.8z M230.5,106.5l0.7,2.7
		c0,3.8-7.5,8.4-22.6,13.9l-42.5,20.6c-14.1,7.4-22.3,13.2-24.6,17.3v0.6c4.9,4.5,7.3,7.4,7.3,8.7c-0.6,2.1-1.5,3.2-2.7,3.3
		c-5.3-2-8-5.1-8-9.3c0-10.7,8-19.1,23.9-25.2c14-8.6,36.4-19.4,67-32.5h1.5V106.5z M615.6,107.1c2,0,4,2.9,6,8.7l-0.7,1.9
		c0,6.8,1.8,12.3,5.3,16.6v1.3l-0.6,2.7l-7.3-3.4c-22.8,20.7-40.8,31.8-53.7,33.2v-0.6c22.8-14.4,38.5-25,47.1-31.9l1.3-2.7
		c-4.8-5.3-7.3-9.3-7.3-12C607.8,111.8,611.1,107.1,615.6,107.1z M507.4,108.5l0.6,2c0,3.9-8,9.7-23.9,17.3
		c-24.6,15.1-37.6,22.6-39.1,22.6l-0.7-2c0-4.4,15.5-14.5,46.5-30.5C497.9,113.1,503.4,110,507.4,108.5z M110.3,109.2
		c1.4,0,3.4,2,5.9,5.9v2c0,2.3-0.6,3.6-1.9,4h-0.7l-4.6-3.4h-1.3l-2,2V133c-0.6,11.5-1.7,17.3-3.3,17.3h-0.7
		C96.5,137.4,90.3,131,83.1,131c-4.4-3-6.6-5.6-6.6-8c0.7-4,1.6-5.9,2.7-5.9h1.3c4.1,0,11.2,6.4,21.2,19.2h0.7v-11.2
		C103.5,114.5,106.2,109.2,110.3,109.2z M411.1,115.8v1.3l4,4l2-0.7v-2.7c0-2.2-0.7-3.6-2-4h-1.9L411.1,115.8z M610.3,117.8v2
		c1,1.7,2.8,3.2,5.3,4.6h2v-4c0-2.4-1.1-4.1-3.4-5.3H613L610.3,117.8z M138.2,116.4h0.6l-1.9,12c0,5.8,1.8,8.7,5.3,8.7l0.6-0.7
		c0.9,0,1.3-1.1,1.3-3.3l0.7-0.7h0.6l0.7,0.7v0.6c-1.5,8-3.5,12-6,12c-3.1,0-5.3-3.5-6.6-10.6v-1.9
		C135.1,122,136.6,116.4,138.2,116.4z M287.6,136.4l4.7,14.6c-1.2,6.7-3.9,10-8,10c-1.6,0-3.6-1.1-6-3.4h-0.6
		c-4.1,4.9-7.2,7.3-9.3,7.3c-3.3,0-5.5-2.4-6.6-7.3l1.9-14.6h1.3l0.7,2.7l-0.7,6.6c0,2.7,1.8,4.2,5.3,4.7h0.7
		c2.6-1.8,4.1-3.3,4.6-4.7v-8l-0.6-0.6c0.8-4,1.7-6,2.7-6c1.1,7.9,2.8,12.7,5.3,14.6h4l-1.3-12C286,137.7,286.7,136.4,287.6,136.4z
		 M515.4,149.6h0.6c-2.2,5.6-3.3,9.4-3.3,11.3v5.3c0,2.5,1.5,4.9,4.6,7.3h1.3c1.1,0,2.2-1.8,3.4-5.3h0.6l0.7,0.7v0.6
		c0,6.7-2.4,10.7-7.3,12h-0.6c-4-2.5-6-6.9-6-13.3C509.4,161.8,511.4,155.6,515.4,149.6z M63.1,154.3h1.3l0.7,1.9
		c-3.5,12-5.3,20.4-5.3,25.2c0.6,12,3,18,7.3,18h1.3c1.2,0,2.3-2.7,3.4-8h1.9v2.7c-1.7,11-4.5,16.6-8.6,16.6c-6.7-3.1-10-11-10-23.9
		C56.4,177.4,59.1,166.6,63.1,154.3z M425.1,155h0.6c7.6,3.6,11.3,7,11.3,10s-1.8,5.9-5.3,8.5h-2c-4.3-4-7.4-5.9-9.3-5.9l-5.3,7.3
		l-1.9,0.7c-6.5-3.4-10-6.1-10.6-8v-0.7c2.1-6.6,4-9.9,5.9-9.9l8.7,5.3h1.9L425.1,155z M617.6,156.3h0.6l-3.3,9.3v6
		c0.9,4,2,5.9,3.3,5.9h1.3l4-3.3v0.6c-1.2,6.7-3.4,10-6.6,10c-3,0-4.7-3.5-5.3-10.6C611.6,167.6,613.6,161.7,617.6,156.3z
		 M174.7,166.3v1.3l-1.9,13.9c0,3.8,1.3,6.4,4,8h1.3c1.1,0,2-1.5,2.7-4.6h1.3v1.3h0.6c-1.9,8-4.2,12-6.6,12c-4.4-1.7-6.6-5.7-6.6-12
		C169.4,178.1,171.2,171.4,174.7,166.3z M238.4,168.2c7.6,0,11.3,1.4,11.3,4.1s-3.1,6.5-9.3,11.2c-3.2,1.8-5.7,2.7-7.3,2.7v-1.3
		l7.3-6.6V177h-7.3l-8.6,2.7v-1.3C224.5,172.7,229.2,169.4,238.4,168.2z M466.9,169.6c9.7,8.6,14.6,14.1,14.6,16.6l-0.6,0.6h-0.7
		l-3.3-0.6l-0.7,1.9c7.6,12.8,11.3,22.3,11.3,28.6c0,11.6-5.8,21.5-17.3,29.8c-2.2,2.7-3.4,5.5-3.4,8.7v1.9c0,12.6,6,20.1,18,22.6
		h7.3c13.8,0,31.8-11.7,53.8-35.1c1.8-1.9,2.7-3.7,2.7-5.4s-0.4-2.6-1.3-2.6l-20.6,2.7c-9.3-1.3-13.9-6-13.9-14V224
		c3.1-13.7,8.6-20.5,16.6-20.5c6.6,0,13.6,5.3,21.2,15.9c3.8,0,12-4.9,24.6-14.6c2.2,0,3.3,4.4,3.3,13.3c4.4,4.8,8.9,7.3,13.3,7.3h2
		c9.7,0,17.6-7.1,23.9-21.2l1.9-1.3h0.7l0.6,0.7h0.7c-2.2,4.2-3.4,7.3-3.4,9.3c0,2.4,3.8,4.8,11.3,7.3h5.3l3.3-0.6v-4l-3.3-6
		c1.6-6.6,2.9-9.9,4-9.9c4,5,5.9,10.3,5.9,15.9c-1.2,12.4-5.2,18.6-12,18.6h-3.3c-5.3,0-10.6-3.1-15.9-9.3H613
		c-7.5,9.3-15.3,13.9-23.3,13.9c-8.1,0-14-5.8-17.8-17.3l-0.6-0.6c-11.5,6.4-17.3,12.1-17.3,17.3c0,10.6-5.3,19.9-15.9,27.9
		c-17.4,18.6-34.7,27.9-51.8,27.9c-6,0-12.4-4-19.3-12c-3.1-6.3-4.6-12-4.6-17.3l0.6-10.6h-0.6c-30.9,19.5-51.7,29.2-62.4,29.2
		l-31.3,6.6l-0.6-0.7v-0.6c3.1-2.7,13.5-7.1,31.2-13.3c31.1-14.6,54.8-29,71.1-43.2c4.2-2.1,8-5.6,11.2-10.6V220c0-2.6-4-11-12-25.2
		l-5.9-15.2C464.6,172.9,465.7,169.6,466.9,169.6z M122.9,172.9h2c4,2.4,7.1,5.1,9.3,8v1.3c-1.5,5.7-4,8.6-7.3,8.6l-8-6.6h-1.3
		l-7.3,8.7h-2c-5.3-3.4-8.6-6.1-9.9-8c2.1-5.5,3.8-8.6,5.3-9.3h1.9l9.3,5.9h1.3L122.9,172.9z M294.9,174.3c6.6,4.6,9.9,7.9,9.9,9.9
		c-2.7,5.5-5.1,8.4-7.3,8.7c-5.1-4-8.5-6-10-6c-3.5,4.4-6,6.6-7.3,6.6H279c-5.3-2.8-8.4-5.5-9.3-8c1.7-4.2,3.7-7.1,5.9-8.6
		c2.8,0,5.7,1.3,8.7,4h2.7C291,176.5,293.6,174.3,294.9,174.3z M439,178.9h0.7v0.7c0,6.4-4,14.6-12,24.5v1.3
		c9.3,7.1,13.9,13.3,13.9,18.6c0,13.9-7.3,23-21.9,27.3l-4.7,1.3c-5.8,0-9.1-4.2-9.9-12.7c0-6.8,2.2-15.4,6.6-25.9v-1.3
		c-11.5-10.8-17.3-17.2-17.3-19.3l-0.7-4.6l1.3-5.3h0.7c11.8,4.2,17.8,6.9,17.9,8v0.6l-3.3,2.7c3.1,4.4,6.4,6.6,9.9,6.6L439,178.9z
		 M410.5,232v0.7c0,3,1.5,5,4.6,5.9c6.1,0,12.7-3.3,19.9-9.9v-1.3c-2.8-3.7-7.4-7.1-13.9-10h-0.7C416.5,217.4,413.2,222.2,410.5,232
		z M521.3,222.1v0.6c0,1.5,2.9,2.4,8.7,2.7l8-1.3v-0.6c-2.8-3.5-5.5-5.3-8-5.3h-2.7C524.9,218.1,522.9,219.4,521.3,222.1z
		 M244.5,224c1.4,1.4,4.2,2.2,8.6,2.7c3.1-0.4,4.7-1.1,4.7-1.9c-1.6-2.7-3.6-4-6-4h-3.3C245.8,220.7,244.5,221.8,244.5,224z
		 M209.2,244.6c7.1,4,10.6,7.1,10.6,9.3c-3,5.7-5.2,8.6-6.6,8.6c-7.1-3.5-10.6-6.4-10.6-8.6C204.5,247.7,206.7,244.6,209.2,244.6z
		 M626.9,250.6h1.3v1.3h0.6c-2.1,10.2-5.4,15.3-9.9,15.3l-5.3-1.3c-5.4,2.7-9,4-10.6,4l-6.6-2.7h-2.7c-3.1,0-11.5,4.9-25.2,14.6
		l-11.3,3.3l-0.6-0.6v-0.7c1,0,12.7-7.5,35.1-22.6l6-1.3l9.3,2.7h1.3c1.5,0,3.7-2.2,6.6-6.6h1.3l4,3.4h2.7
		C623.8,259.3,625.2,256.4,626.9,250.6z M348.1,253.9c2.7,0.8,4,2.7,4,5.9c0,7.8-4.4,14.9-13.3,21.2l-2.7,1.3l-0.7-0.6V281
		c8.4-8.2,12.7-13.7,12.7-16.6l-2-2h-1.3l-4,3.4h-0.6C340.1,260.1,342.7,256.1,348.1,253.9z M156.8,254.6l0.6,0.7v0.6
		c0,4.6-4,8.1-12,10.6l-49.8,23.9l-1.3-1.3c0-4.5,6.8-9.4,20.5-14.6C140.3,261.2,154.3,254.6,156.8,254.6z M289.6,260.6h1.9
		c2.2,1.3,3.4,3.1,3.4,5.3c0,5.8-3.5,12.9-10.6,21.2h-0.7l7.3-14.6v-2.7l-1.3-1.3c-1.7,0-3.4,0.9-5.3,2.7l-0.7-0.7v-0.6
		C283.6,266.7,285.6,263.6,289.6,260.6z"/>
</g>
</svg>
