<?xml version="1.0" encoding="utf-8"?>
<!-- Generator: Adobe Illustrator 25.2.3, SVG Export Plug-In . SVG Version: 6.00 Build 0)  -->
<svg version="1.1" xmlns="http://www.w3.org/2000/svg" xmlns:xlink="http://www.w3.org/1999/xlink" x="0px" y="0px"
	 viewBox="0 0 700 395" style="enable-background:new 0 0 700 395;" xml:space="preserve">
<style type="text/css">
	.st0{fill:#000222;}
	.st1{fill:#FFFFFF;}
</style>
<g id="Layer_1">
	<rect class="st0" width="700" height="395"/>
</g>
<g id="Layer_3">
	<g>
		<path class="st1" d="M273.5,368.6l1.1,4.2c0.2,0.9,0.5,1.8,0.6,2.6h0.1c0.2-0.8,0.5-1.7,0.7-2.6l1.3-4.2h1.3l1.3,4.1
			c0.3,1,0.5,1.9,0.7,2.7h0.1c0.1-0.8,0.4-1.7,0.6-2.7l1.2-4.1h1.5l-2.7,8.2H280l-1.3-3.9c-0.3-0.9-0.5-1.7-0.7-2.7h0
			c-0.2,1-0.5,1.8-0.7,2.7l-1.3,3.9h-1.4l-2.5-8.2H273.5z"/>
		<path class="st1" d="M286.3,368.6l1.1,4.2c0.2,0.9,0.5,1.8,0.6,2.6h0.1c0.2-0.8,0.5-1.7,0.7-2.6l1.3-4.2h1.3l1.3,4.1
			c0.3,1,0.5,1.9,0.7,2.7h0.1c0.1-0.8,0.4-1.7,0.6-2.7l1.2-4.1h1.5l-2.7,8.2h-1.4l-1.3-3.9c-0.3-0.9-0.5-1.7-0.7-2.7h0
			c-0.2,1-0.5,1.8-0.7,2.7l-1.3,3.9h-1.4l-2.5-8.2H286.3z"/>
		<path class="st1" d="M299,368.6l1.1,4.2c0.2,0.9,0.5,1.8,0.6,2.6h0.1c0.2-0.8,0.5-1.7,0.7-2.6l1.3-4.2h1.3l1.3,4.1
			c0.3,1,0.5,1.9,0.7,2.7h0.1c0.1-0.8,0.4-1.7,0.6-2.7l1.2-4.1h1.5l-2.7,8.2h-1.4l-1.3-3.9c-0.3-0.9-0.5-1.7-0.7-2.7h0
			c-0.2,1-0.5,1.8-0.7,2.7l-1.3,3.9h-1.4l-2.5-8.2H299z"/>
		<path class="st1" d="M309.9,375.9c0-0.6,0.4-1.1,1-1.1c0.6,0,1,0.4,1,1.1c0,0.6-0.4,1.1-1,1.1C310.3,377,309.9,376.5,309.9,375.9z
			"/>
		<path class="st1" d="M313.5,375.3c0.4,0.3,1.2,0.6,2,0.6c1.1,0,1.6-0.5,1.6-1.2c0-0.7-0.4-1.1-1.5-1.5c-1.5-0.5-2.2-1.3-2.2-2.3
			c0-1.3,1.1-2.4,2.8-2.4c0.8,0,1.6,0.2,2,0.5l-0.4,1.1c-0.3-0.2-0.9-0.5-1.7-0.5c-0.9,0-1.4,0.5-1.4,1.1c0,0.7,0.5,1,1.6,1.4
			c1.4,0.5,2.2,1.3,2.2,2.5c0,1.4-1.1,2.5-3.1,2.5c-0.9,0-1.7-0.2-2.3-0.6L313.5,375.3z"/>
		<path class="st1" d="M327.4,374.6c0,0.9,0,1.6,0.1,2.2h-1.3l-0.1-1.3h0c-0.4,0.7-1.3,1.5-2.7,1.5c-1.3,0-2.8-0.7-2.8-3.6v-4.8h1.5
			v4.6c0,1.6,0.5,2.6,1.8,2.6c1,0,1.7-0.7,2-1.4c0.1-0.2,0.1-0.5,0.1-0.8v-5h1.5V374.6z"/>
		<path class="st1" d="M329.8,371.1c0-1,0-1.8-0.1-2.6h1.3l0.1,1.6h0.1c0.4-1.1,1.3-1.8,2.3-1.8c0.2,0,0.3,0,0.4,0.1v1.4
			c-0.2,0-0.3-0.1-0.5-0.1c-1.1,0-1.8,0.8-2,1.9c0,0.2-0.1,0.4-0.1,0.7v4.4h-1.5V371.1z"/>
		<path class="st1" d="M339.9,376.8l-0.1-1h-0.1c-0.5,0.6-1.3,1.2-2.5,1.2c-1.7,0-2.5-1.2-2.5-2.4c0-2,1.8-3.1,4.9-3.1v-0.2
			c0-0.7-0.2-1.9-1.9-1.9c-0.8,0-1.6,0.2-2.1,0.6l-0.3-1c0.7-0.4,1.7-0.7,2.7-0.7c2.5,0,3.1,1.7,3.1,3.4v3.1c0,0.7,0,1.4,0.1,2
			H339.9z M339.7,372.6c-1.6,0-3.5,0.3-3.5,1.9c0,1,0.6,1.4,1.4,1.4c1.1,0,1.8-0.7,2-1.4c0.1-0.2,0.1-0.3,0.1-0.5V372.6z"/>
		<path class="st1" d="M343.5,364.7h1.5v5.1h0c0.2-0.4,0.6-0.8,1.1-1.1c0.4-0.3,1-0.4,1.5-0.4c1.1,0,2.9,0.7,2.9,3.5v4.9H349v-4.7
			c0-1.3-0.5-2.4-1.9-2.4c-1,0-1.7,0.7-2,1.5c-0.1,0.2-0.1,0.4-0.1,0.7v5h-1.5V364.7z"/>
		<path class="st1" d="M358.6,375.5L358.6,375.5c-0.5,0.8-1.4,1.5-2.7,1.5c-1.9,0-3.5-1.7-3.5-4.2c0-3.1,2-4.4,3.7-4.4
			c1.3,0,2.1,0.6,2.5,1.4h0l0.1-1.2h1.4c0,0.7-0.1,1.4-0.1,2.3v9.3h-1.5V375.5z M358.6,371.9c0-0.2,0-0.4-0.1-0.6
			c-0.2-0.9-1-1.7-2.1-1.7c-1.5,0-2.5,1.3-2.5,3.2c0,1.6,0.8,3.1,2.4,3.1c1,0,1.8-0.6,2.1-1.6c0.1-0.2,0.1-0.5,0.1-0.7V371.9z"/>
		<path class="st1" d="M369.4,374.6c0,0.9,0,1.6,0.1,2.2h-1.3l-0.1-1.3h0c-0.4,0.7-1.3,1.5-2.7,1.5c-1.3,0-2.8-0.7-2.8-3.6v-4.8h1.5
			v4.6c0,1.6,0.5,2.6,1.8,2.6c1,0,1.7-0.7,2-1.4c0.1-0.2,0.1-0.5,0.1-0.8v-5h1.5V374.6z"/>
		<path class="st1" d="M371.9,371.1c0-1,0-1.8-0.1-2.6h1.3l0.1,1.6h0.1c0.4-1.1,1.3-1.8,2.3-1.8c0.2,0,0.3,0,0.4,0.1v1.4
			c-0.2,0-0.3-0.1-0.5-0.1c-1.1,0-1.8,0.8-2,1.9c0,0.2-0.1,0.4-0.1,0.7v4.4h-1.5V371.1z"/>
		<path class="st1" d="M381.9,376.8l-0.1-1h-0.1c-0.5,0.6-1.3,1.2-2.5,1.2c-1.7,0-2.5-1.2-2.5-2.4c0-2,1.8-3.1,4.9-3.1v-0.2
			c0-0.7-0.2-1.9-1.9-1.9c-0.8,0-1.6,0.2-2.1,0.6l-0.3-1c0.7-0.4,1.7-0.7,2.7-0.7c2.5,0,3.1,1.7,3.1,3.4v3.1c0,0.7,0,1.4,0.1,2
			H381.9z M381.7,372.6c-1.6,0-3.5,0.3-3.5,1.9c0,1,0.6,1.4,1.4,1.4c1.1,0,1.8-0.7,2-1.4c0.1-0.2,0.1-0.3,0.1-0.5V372.6z"/>
		<path class="st1" d="M385.6,370.8c0-0.9,0-1.5-0.1-2.2h1.3l0.1,1.4h0c0.4-0.8,1.4-1.5,2.7-1.5c1.1,0,2.9,0.7,2.9,3.5v4.9h-1.5
			v-4.7c0-1.3-0.5-2.4-1.9-2.4c-1,0-1.8,0.7-2,1.5c-0.1,0.2-0.1,0.4-0.1,0.7v4.9h-1.5V370.8z"/>
		<path class="st1" d="M394.6,375.9c0-0.6,0.4-1.1,1-1.1c0.6,0,1,0.4,1,1.1c0,0.6-0.4,1.1-1,1.1C395,377,394.6,376.5,394.6,375.9z"
			/>
		<path class="st1" d="M404.4,376.5c-0.4,0.2-1.3,0.5-2.4,0.5c-2.5,0-4.1-1.7-4.1-4.2c0-2.5,1.7-4.4,4.4-4.4c0.9,0,1.7,0.2,2.1,0.4
			l-0.3,1.2c-0.4-0.2-0.9-0.4-1.7-0.4c-1.9,0-2.9,1.4-2.9,3.1c0,1.9,1.2,3.1,2.9,3.1c0.8,0,1.4-0.2,1.8-0.4L404.4,376.5z"/>
		<path class="st1" d="M413.5,372.6c0,3-2.1,4.4-4.1,4.4c-2.2,0-3.9-1.6-3.9-4.2c0-2.8,1.8-4.4,4.1-4.4
			C411.9,368.4,413.5,370.1,413.5,372.6z M406.9,372.7c0,1.8,1,3.2,2.5,3.2c1.4,0,2.5-1.3,2.5-3.2c0-1.4-0.7-3.2-2.5-3.2
			S406.9,371.1,406.9,372.7z"/>
		<path class="st1" d="M415.4,370.8c0-0.9,0-1.5-0.1-2.2h1.3l0.1,1.3h0.1c0.5-0.8,1.2-1.5,2.6-1.5c1.1,0,2,0.7,2.3,1.6h0
			c0.3-0.5,0.6-0.8,0.9-1.1c0.5-0.4,1-0.6,1.8-0.6c1.1,0,2.7,0.7,2.7,3.6v4.8h-1.5v-4.7c0-1.6-0.6-2.5-1.8-2.5
			c-0.9,0-1.5,0.6-1.8,1.4c-0.1,0.2-0.1,0.5-0.1,0.7v5.1h-1.5v-4.9c0-1.3-0.6-2.3-1.7-2.3c-0.9,0-1.6,0.7-1.9,1.5
			c-0.1,0.2-0.1,0.5-0.1,0.7v5h-1.5V370.8z"/>
	</g>
</g>
<g id="Layer_4">
	<path class="st1" d="M238,110.5l1.1,1.7c0,3.1-10,8.1-30.1,15c-19.7,8.3-29.6,13.7-29.6,16.2v1.1l6.2,6.1v1.7l-1.7,1.6
		c-2.7,0-5.1-2.4-7.2-7.2c0-9.4,8.7-16.7,26.2-21.8C204.9,123.5,216.6,118.7,238,110.5z M356.7,121.2c3.1,4,7,12.7,11.7,26.2v1.7
		h-1.7l-2.2-1.7h-1.1v0.6l10.6,73l0.5,10v4.5c-0.7,10.8-2,16.2-3.9,16.2c-3.7-37.1-8.2-68.1-13.4-93.1c-1.7-18.9-3.2-28.4-4.5-28.4
		C354.6,124.1,355.8,121.2,356.7,121.2z M521.7,121.7h0.6c2.6,1.5,3.9,3.8,3.9,6.7l-0.5,2.8h-1.7c-1.9-1.9-3.6-2.8-5-2.8
		c-1.9,1.1-2.8,2.5-2.8,3.9c-0.4,17.1-1.6,25.6-3.3,25.6c-5.5-10.8-10.7-16.2-15.6-16.2c-3-2.1-4.5-4.1-4.5-6.1v-0.6
		c0-2,0.7-3.3,2.2-3.9h0.6c3.6,0,9,4.8,16.1,14.5h1.1v-11.2C514.6,126,517.5,121.7,521.7,121.7z M561.9,122.3
		c2.8,0,4.5,3.7,5.1,11.2v5l3.9,6.2l-0.5,2.8h-1.7l-4.5-2.2c-17.7,16.7-31.3,25.8-40.7,27.4l-1.7,0.5h-0.5v-1.6
		c16.1-8.9,28.9-18,38.4-27.4v-1.6c-3.7-2.8-5.6-5.6-5.6-8.4C555.6,126.2,558.2,122.3,561.9,122.3z M329.4,122.8h1.1
		c1.3,0.8,5.2,9.2,11.7,25.1l-0.5,2.2h-1.1l-3.3-1.7v0.6l12.8,78.6l-0.5,0.6v1.6l0.5,1.7c0,9.9-4.6,16.8-13.9,20.6l-7.3,1.7
		c-6.7,0-11.7-5.4-15-16.2c-20.8,14.5-38.9,21.8-54.1,21.8h-3.9c-12.1,0-21.4-5-27.9-15.1h-1.7c-2.7,10.8-9.7,16.2-21.2,16.2
		c-12.8,0-20.8-8.7-23.9-26.2H180c-5,11.7-17.6,23.1-37.9,34c-5.2,2.6-10.2,3.9-15.1,3.9c-6.1,0-10.6-5.6-13.4-16.7
		c0-11.6,2.8-24.5,8.4-38.4c-2.6-5.1-3.9-8.8-3.9-11.2v-5.6c1.5-11.2,3.9-19.7,7.3-25.6h0.5v0.5c-2.6,9.2-3.9,17.3-3.9,24.5v3.3
		c2,4.9,4.1,7.3,6.1,7.3c1.2,0,2.6-2.2,3.9-6.7h1.1v1.1c0,8.4-3.2,13.8-9.5,16.1c-3.7,10.7-5.6,18.7-5.6,24v3.3
		c0,8.5,3.9,12.8,11.7,12.8c10.1,0,25.3-9.7,45.7-29l2.8-6.7v-1.1c-0.8-9.3-6.4-24.7-16.7-46.2c-1.8-1.7-2.8-4.5-2.8-8.4v-3.3
		l0.5-2.8h1.1c10.8,11,18.4,27.9,22.9,50.7c2.2,17.3,5,27,8.3,29c3.4,3.7,7.7,5.6,12.9,5.6h1.6c8.1,0,13.5-2.8,16.2-8.3
		c-5.2-43.5-9.7-76.6-13.4-99.2c1.5-6.3,2.8-9.5,3.9-9.5h1.1c3.4,18.1,8.2,49.9,14.5,95.4c1.9,6.9,4.7,11.8,8.4,14.5
		c0,1.8,6.5,4.1,19.5,6.7h1.7c19.2,0,39.1-8.2,59.6-24.5h1.1l1.1,1.6l-0.5,2.8v3.3c0.9,7,4.5,10.6,10.6,10.6h2.8
		c7.8-1.9,11.7-4.2,11.7-6.8c0-2.7-5.7-37.2-17.2-103.5L329.4,122.8z M400.8,123.4c2.3,0,3.8,2.2,4.5,6.7l-0.6,9.4
		c3.7,3,5.6,5.5,5.6,7.3c-0.5,1.5-1.1,2.2-1.6,2.2c-3.9-2.6-6.5-3.9-7.8-3.9c-10.3,11.9-19.4,18.4-27.4,19.5v-1.1
		c15.2-10.9,23.2-17.7,24-20.7c-2.6-3.6-3.9-6.2-3.9-7.8C393.5,130.1,395.9,126.2,400.8,123.4z M259.7,138.4
		c0.8-8.9,2.6-13.4,5.2-13.4c2.6,0,4.8,1.9,6.6,5.6c-0.5,2.2-1.5,3.3-2.8,3.3l-4.5-1.6l-1.1,1.1l0.6,14.5
		c-0.6,8.2-1.6,12.3-2.8,12.3c-6-10.4-11.6-15.6-16.7-15.6l-2.8-4.5c0.4-3.4,1.4-5.1,2.8-5.1c3.3,0,8.1,4.5,14.5,13.4h1.7V139
		L259.7,138.4z M474.9,125v1.7c0,2.8-5.2,6.9-15.6,12.3l-32.9,20.6h-1.1l-1.1-1.1c0-3.5,7.2-9.1,21.7-16.7
		C461.4,131.5,471,126,474.9,125z M151,126.1h1.6c3.4,1.9,5.1,4.1,5.1,6.7v1.1l-1.7,1.7h-0.5l-3.9-2.8h-1.1l-1.6,1.7v11.7
		c0,7.6-0.9,12.1-2.8,13.4c-5.9-11.9-11.2-17.8-15.6-17.8c-3.7-1.5-5.6-3.9-5.6-7.2c0.4-2.2,1-3.3,1.7-3.3h1.1
		c2.8,0,8.5,5.2,17.2,15.6h0.6l0.5-3.9l-0.5-1.6C146.8,131.2,148.6,126.1,151,126.1z M296,127.8h1.1v0.5l-1.7,8.4
		c0.6,5.9,2,8.9,3.9,8.9h0.5l3.3-3.9l0.6,0.6v0.5c-1.7,5.9-3.4,8.9-5.1,8.9h-1.1c-3.3-1.8-5-5.7-5-11.7L296,127.8z M557.4,131.7v0.6
		c0.8,1.4,2.3,2.7,4.5,3.9h1.7v-4.5l-2.8-2.8C559.2,129.5,558.1,130.4,557.4,131.7z M397.4,132.3c0,2.6,1.3,3.9,3.9,3.9l0.6-0.5
		v-1.7c0-1.9-0.6-3-1.7-3.3h-1.1L397.4,132.3z M325.5,156.2h1.7v1.1c0,4.6-4.7,8.3-14,11.2c-34.4,16.3-59.5,29.1-75.2,38.5l-0.6-0.6
		v-0.5c0-5.1,4.3-9.4,12.9-12.9C273,180.2,298.1,167.9,325.5,156.2z M481.6,158l0.6,0.5c-1.9,4.1-2.8,8.4-2.8,12.9
		c0,2.3,1.3,4.3,3.9,6.1h1.1c0.8,0,1.5-1.5,2.2-4.5h1.1l0.5,1.7c-1.3,6.7-3.2,10-5.6,10c-2.8,0-5-3.7-6.7-11.2
		C477.6,165.4,479.4,160.2,481.6,158z M563,162.4h1.7l-2.8,7.8v0.5c0,5.6,0.9,8.4,2.8,8.4h1.1l2.8-2.8h0.6v0.6
		c0,4.5-1.7,7.4-5.1,8.9c-3.3-0.9-5-4.1-5-9.5v-2.8L563,162.4z M410.8,164c4.2,2.7,6.8,5.2,7.8,7.3v1.6c-2.1,3.7-3.6,5.8-4.5,6.2
		H413l-7.3-5.1c-0.8,0-2.5,2.2-5,6.7h-2.2c-5.6-3.3-8.4-5.9-8.4-7.8c1.5-3.4,3-5.6,4.5-6.7h0.6l7.8,3.9h0.5c0.6,0,2.1-1.9,4.5-5.6
		l0.6-0.6H410.8z M197.8,166.9l0.5,0.5v0.6l-2.8,10.6c0,5.3,1.3,8.6,3.9,10h1.1c0.7,0,1.5-1.1,2.2-3.3h1.1c0,4.7-1.5,8-4.5,10h-1.1
		c-3.7-2.4-5.6-6.1-5.6-11.2c0.7-7.1,2.2-12.8,4.5-17.2H197.8z M441.4,175.2h1.1c7.8,6.8,11.7,11.3,11.7,13.4h-2.8l-1.1,1.1
		l7.8,16.2c0.7,2,1.1,4.6,1.1,7.8c0,9.1-5,17.8-15,26.2l-1.1,7.3c0,8.4,4.3,14.2,12.8,17.2h6.2c12.9,0,28.3-10.4,46.2-31.2l0.6-2.8
		v-0.6l-2.2-1.6c-1.6,1.1-6.4,2-14.5,2.8c-8.2,0-12.3-4.3-12.3-12.8c2.3-11.2,7-16.7,13.9-16.7c4.3,0,9.8,4.3,16.7,12.8
		c3.1,0,8.8-3.5,17.3-10.6l3.3-1.1h0.5c0,10.8,3.9,16.1,11.7,16.1c9.5,0,16.3-5.9,20.6-17.8l1.7-1.1h1.1v1.7l-1.7,5.6v1.6
		c2.6,3.7,7.1,5.6,13.4,5.6c1.9-0.4,2.8-1,2.8-1.6l-2.8-7.8l1.7-7.3h1.6c3,3,4.5,8,4.5,15.1c-1.5,8.5-5,12.8-10.6,12.8h-0.6
		c-4.8,0-9.4-2.4-13.9-7.2c-6.5,6.4-10.6,9.7-12.3,10l-6.7,1.1h-1.7c-5.9,0-10.4-4.7-13.4-14h-0.5c-8.6,5.8-12.9,9.8-12.9,11.7
		c0,12.2-8.2,24.1-24.5,35.7c-9.9,8.9-19.9,13.4-30.1,13.4c-6.1,0-11.9-3.9-17.2-11.7c-1.5-4-2.2-7.7-2.2-11.2v-9.4h-1.1
		c-22.2,15.2-35.9,22.8-41.3,22.8l-31.2,7.8l-1.7-0.5v-1.1l31.8-14.5c19.4-10.1,36.8-21.6,52.4-34.6c3.7-3.6,5.6-6.3,5.6-8.1
		c0-1.8-2.4-6.9-7.3-15.3l-7.2-17.3L441.4,175.2z M420.2,183h0.6c0,6.4-3.2,13.5-9.5,21.2v0.6c0.3,1,2.4,2.5,6.2,4.5
		c3.7,4.8,5.6,8.5,5.6,11.2c0,10.7-6.3,18.3-19,22.8h-2.8c-4.5,0-7.2-3.1-8.3-9.4l0.5-0.6v-1.6c0-6.9,1.7-13.1,5.1-18.4v-2.2
		L384,196.4v-5.6c0.2-2.2,0.7-3.3,1.6-3.3h1.1l12.9,5.6v1.7c0,0.7-0.6,1.1-1.7,1.1v1.6c0,0.6,1.7,2,5.1,3.9h2.2L420.2,183z
		 M318.3,187.5v2.8l-1.1,6.7c0.5,5.5,1.6,8.4,3.3,8.9h0.5c1.5-0.7,2.2-1.9,2.2-3.3h0.6l0.5,0.5h0.6c-1,6.3-3.2,9.5-6.7,9.5
		c-2.6-2.8-3.9-5.6-3.9-8.4v-2.8C315.5,192.1,316.8,187.5,318.3,187.5z M152.6,194.7h1.1l-2.8,13.4c0.6,5.6,1.7,8.3,3.3,8.3h1.6
		c0.7,0,1.1-0.7,1.1-2.2l0.6-0.5h0.5c0.7,0,1.1,0.5,1.1,1.6c-1.5,5.2-3.4,7.8-5.7,7.8s-4.1-3.1-5.4-9.4
		C148.2,209.5,149.7,203.2,152.6,194.7z M273.7,196.4h0.5v0.6l-2.8,15.6v2.8c1.1,4.9,3,7.3,5.6,7.3h0.5l0.6-0.6
		c0.7,0,1.1-0.9,1.1-2.8l0.5-0.6h0.6l0.5,0.6h0.6c-1.2,6.7-3.5,10-6.7,10c-4.5-2.2-6.7-5.6-6.7-10v-3.3
		C268.1,207.8,269.9,201.3,273.7,196.4z M486.6,217c0,1.5,2.2,2.2,6.7,2.2h2.2c2.7,0,4.2-0.6,4.5-1.7c-1.4-2.6-4.2-3.9-8.4-3.9
		C489.7,213.7,488,214.8,486.6,217z M397.4,227.1v0.5c0,2,0.9,3.5,2.8,4.5h5.1c5.9-3.3,9.8-6,11.7-8.3V222
		c-3.5-3.7-7.6-6.1-12.3-7.2C399.8,219.3,397.4,223.4,397.4,227.1z M573.6,238.8l0.5,2.2c-1.5,7.4-4.3,11.2-8.3,11.2l-5.1-1.1
		c-2.6,2.6-5,3.9-7.2,3.9l-5.1-2.2h-3.3c-1.2,0-8.6,4.5-22.3,13.4l-6.7,1.6v-1.6c1,0,10.7-6.3,29-19l4.5-0.6l5.1,2.2
		c3.9,0,6.7-2,8.3-6.1h0.6c1.6,2.2,3.3,3.3,5,3.3c1.3,0,2.4-2.2,3.3-6.7l0.6-0.6H573.6z M353.9,248.8h1.6c2.2,1.7,3.3,3.7,3.3,6.2
		c-1,5.5-4.2,10.7-9.4,15.6l-1.7,0.5v-1.6l7.3-9.5v-2.8c0-0.9-0.7-1.5-2.2-1.7l-2.8,1.7l-0.5-0.6
		C350.8,251.4,352.3,248.8,353.9,248.8z M305.4,256.6c2.3,0.9,5.5,3.7,9.5,8.4v1.1c-1.5,4.8-2.8,7.2-3.9,7.2h-1.1
		c-5.4-3.6-8.5-6.4-9.4-8.3v-1.1C301.7,259,303.3,256.6,305.4,256.6z M235.2,261.1c1.5,1.6,2.2,3.1,2.2,4.5
		c0,7.4-3.7,12.8-11.2,16.2v-0.6c3.7-4.2,6.5-7.9,8.4-11.2v-1.1l-1.1-1.6l-3.9,1.6v-1.6C230.3,263.1,232.2,261.1,235.2,261.1z
		 M186.1,262.2h1.7l0.5,1.7c0,2.7-9.3,8.5-27.9,17.2c-0.1,0.7-1.8,1.8-5,3.3h-1.7c0-3.6,3-6.6,8.9-8.9L186.1,262.2z"/>
</g>
</svg>
