<?xml version="1.0" encoding="utf-8"?>
<!-- Generator: Adobe Illustrator 25.2.3, SVG Export Plug-In . SVG Version: 6.00 Build 0)  -->
<svg version="1.1" xmlns="http://www.w3.org/2000/svg" xmlns:xlink="http://www.w3.org/1999/xlink" x="0px" y="0px"
	 viewBox="0 0 700 395" style="enable-background:new 0 0 700 395;" xml:space="preserve">
<style type="text/css">
	.st0{fill:#000222;}
	.st1{fill:#FFFFFF;}
</style>
<g id="Layer_1">
	<rect class="st0" width="700" height="395"/>
</g>
<g id="Layer_3">
	<g>
		<path class="st1" d="M273.5,368.6l1.1,4.2c0.2,0.9,0.5,1.8,0.6,2.6h0.1c0.2-0.8,0.5-1.7,0.7-2.6l1.3-4.2h1.3l1.3,4.1
			c0.3,1,0.5,1.9,0.7,2.7h0.1c0.1-0.8,0.4-1.7,0.6-2.7l1.2-4.1h1.5l-2.7,8.2H280l-1.3-3.9c-0.3-0.9-0.5-1.7-0.7-2.7h0
			c-0.2,1-0.5,1.8-0.7,2.7l-1.3,3.9h-1.4l-2.5-8.2H273.5z"/>
		<path class="st1" d="M286.3,368.6l1.1,4.2c0.2,0.9,0.5,1.8,0.6,2.6h0.1c0.2-0.8,0.5-1.7,0.7-2.6l1.3-4.2h1.3l1.3,4.1
			c0.3,1,0.5,1.9,0.7,2.7h0.1c0.1-0.8,0.4-1.7,0.6-2.7l1.2-4.1h1.5l-2.7,8.2h-1.4l-1.3-3.9c-0.3-0.9-0.5-1.7-0.7-2.7h0
			c-0.2,1-0.5,1.8-0.7,2.7l-1.3,3.9h-1.4l-2.5-8.2H286.3z"/>
		<path class="st1" d="M299,368.6l1.1,4.2c0.2,0.9,0.5,1.8,0.6,2.6h0.1c0.2-0.8,0.5-1.7,0.7-2.6l1.3-4.2h1.3l1.3,4.1
			c0.3,1,0.5,1.9,0.7,2.7h0.1c0.1-0.8,0.4-1.7,0.6-2.7l1.2-4.1h1.5l-2.7,8.2h-1.4l-1.3-3.9c-0.3-0.9-0.5-1.7-0.7-2.7h0
			c-0.2,1-0.5,1.8-0.7,2.7l-1.3,3.9h-1.4l-2.5-8.2H299z"/>
		<path class="st1" d="M309.9,375.9c0-0.6,0.4-1.1,1-1.1c0.6,0,1,0.4,1,1.1c0,0.6-0.4,1.1-1,1.1C310.3,377,309.9,376.5,309.9,375.9z
			"/>
		<path class="st1" d="M313.5,375.3c0.4,0.3,1.2,0.6,2,0.6c1.1,0,1.6-0.5,1.6-1.2c0-0.7-0.4-1.1-1.5-1.5c-1.5-0.5-2.2-1.3-2.2-2.3
			c0-1.3,1.1-2.4,2.8-2.4c0.8,0,1.6,0.2,2,0.5l-0.4,1.1c-0.3-0.2-0.9-0.5-1.7-0.5c-0.9,0-1.4,0.5-1.4,1.1c0,0.7,0.5,1,1.6,1.4
			c1.4,0.5,2.2,1.3,2.2,2.5c0,1.4-1.1,2.5-3.1,2.5c-0.9,0-1.7-0.2-2.3-0.6L313.5,375.3z"/>
		<path class="st1" d="M327.4,374.6c0,0.9,0,1.6,0.1,2.2h-1.3l-0.1-1.3h0c-0.4,0.7-1.3,1.5-2.7,1.5c-1.3,0-2.8-0.7-2.8-3.6v-4.8h1.5
			v4.6c0,1.6,0.5,2.6,1.8,2.6c1,0,1.7-0.7,2-1.4c0.1-0.2,0.1-0.5,0.1-0.8v-5h1.5V374.6z"/>
		<path class="st1" d="M329.8,371.1c0-1,0-1.8-0.1-2.6h1.3l0.1,1.6h0.1c0.4-1.1,1.3-1.8,2.3-1.8c0.2,0,0.3,0,0.4,0.1v1.4
			c-0.2,0-0.3-0.1-0.5-0.1c-1.1,0-1.8,0.8-2,1.9c0,0.2-0.1,0.4-0.1,0.7v4.4h-1.5V371.1z"/>
		<path class="st1" d="M339.9,376.8l-0.1-1h-0.1c-0.5,0.6-1.3,1.2-2.5,1.2c-1.7,0-2.5-1.2-2.5-2.4c0-2,1.8-3.1,4.9-3.1v-0.2
			c0-0.7-0.2-1.9-1.9-1.9c-0.8,0-1.6,0.2-2.1,0.6l-0.3-1c0.7-0.4,1.7-0.7,2.7-0.7c2.5,0,3.1,1.7,3.1,3.4v3.1c0,0.7,0,1.4,0.1,2
			H339.9z M339.7,372.6c-1.6,0-3.5,0.3-3.5,1.9c0,1,0.6,1.4,1.4,1.4c1.1,0,1.8-0.7,2-1.4c0.1-0.2,0.1-0.3,0.1-0.5V372.6z"/>
		<path class="st1" d="M343.5,364.7h1.5v5.1h0c0.2-0.4,0.6-0.8,1.1-1.1c0.4-0.3,1-0.4,1.5-0.4c1.1,0,2.9,0.7,2.9,3.5v4.9H349v-4.7
			c0-1.3-0.5-2.4-1.9-2.4c-1,0-1.7,0.7-2,1.5c-0.1,0.2-0.1,0.4-0.1,0.7v5h-1.5V364.7z"/>
		<path class="st1" d="M358.6,375.5L358.6,375.5c-0.5,0.8-1.4,1.5-2.7,1.5c-1.9,0-3.5-1.7-3.5-4.2c0-3.1,2-4.4,3.7-4.4
			c1.3,0,2.1,0.6,2.5,1.4h0l0.1-1.2h1.4c0,0.7-0.1,1.4-0.1,2.3v9.3h-1.5V375.5z M358.6,371.9c0-0.2,0-0.4-0.1-0.6
			c-0.2-0.9-1-1.7-2.1-1.7c-1.5,0-2.5,1.3-2.5,3.2c0,1.6,0.8,3.1,2.4,3.1c1,0,1.8-0.6,2.1-1.6c0.1-0.2,0.1-0.5,0.1-0.7V371.9z"/>
		<path class="st1" d="M369.4,374.6c0,0.9,0,1.6,0.1,2.2h-1.3l-0.1-1.3h0c-0.4,0.7-1.3,1.5-2.7,1.5c-1.3,0-2.8-0.7-2.8-3.6v-4.8h1.5
			v4.6c0,1.6,0.5,2.6,1.8,2.6c1,0,1.7-0.7,2-1.4c0.1-0.2,0.1-0.5,0.1-0.8v-5h1.5V374.6z"/>
		<path class="st1" d="M371.9,371.1c0-1,0-1.8-0.1-2.6h1.3l0.1,1.6h0.1c0.4-1.1,1.3-1.8,2.3-1.8c0.2,0,0.3,0,0.4,0.1v1.4
			c-0.2,0-0.3-0.1-0.5-0.1c-1.1,0-1.8,0.8-2,1.9c0,0.2-0.1,0.4-0.1,0.7v4.4h-1.5V371.1z"/>
		<path class="st1" d="M381.9,376.8l-0.1-1h-0.1c-0.5,0.6-1.3,1.2-2.5,1.2c-1.7,0-2.5-1.2-2.5-2.4c0-2,1.8-3.1,4.9-3.1v-0.2
			c0-0.7-0.2-1.9-1.9-1.9c-0.8,0-1.6,0.2-2.1,0.6l-0.3-1c0.7-0.4,1.7-0.7,2.7-0.7c2.5,0,3.1,1.7,3.1,3.4v3.1c0,0.7,0,1.4,0.1,2
			H381.9z M381.7,372.6c-1.6,0-3.5,0.3-3.5,1.9c0,1,0.6,1.4,1.4,1.4c1.1,0,1.8-0.7,2-1.4c0.1-0.2,0.1-0.3,0.1-0.5V372.6z"/>
		<path class="st1" d="M385.6,370.8c0-0.9,0-1.5-0.1-2.2h1.3l0.1,1.4h0c0.4-0.8,1.4-1.5,2.7-1.5c1.1,0,2.9,0.7,2.9,3.5v4.9h-1.5
			v-4.7c0-1.3-0.5-2.4-1.9-2.4c-1,0-1.8,0.7-2,1.5c-0.1,0.2-0.1,0.4-0.1,0.7v4.9h-1.5V370.8z"/>
		<path class="st1" d="M394.6,375.9c0-0.6,0.4-1.1,1-1.1c0.6,0,1,0.4,1,1.1c0,0.6-0.4,1.1-1,1.1C395,377,394.6,376.5,394.6,375.9z"
			/>
		<path class="st1" d="M404.4,376.5c-0.4,0.2-1.3,0.5-2.4,0.5c-2.5,0-4.1-1.7-4.1-4.2c0-2.5,1.7-4.4,4.4-4.4c0.9,0,1.7,0.2,2.1,0.4
			l-0.3,1.2c-0.4-0.2-0.9-0.4-1.7-0.4c-1.9,0-2.9,1.4-2.9,3.1c0,1.9,1.2,3.1,2.9,3.1c0.8,0,1.4-0.2,1.8-0.4L404.4,376.5z"/>
		<path class="st1" d="M413.5,372.6c0,3-2.1,4.4-4.1,4.4c-2.2,0-3.9-1.6-3.9-4.2c0-2.8,1.8-4.4,4.1-4.4
			C411.9,368.4,413.5,370.1,413.5,372.6z M406.9,372.7c0,1.8,1,3.2,2.5,3.2c1.4,0,2.5-1.3,2.5-3.2c0-1.4-0.7-3.2-2.5-3.2
			S406.9,371.1,406.9,372.7z"/>
		<path class="st1" d="M415.4,370.8c0-0.9,0-1.5-0.1-2.2h1.3l0.1,1.3h0.1c0.5-0.8,1.2-1.5,2.6-1.5c1.1,0,2,0.7,2.3,1.6h0
			c0.3-0.5,0.6-0.8,0.9-1.1c0.5-0.4,1-0.6,1.8-0.6c1.1,0,2.7,0.7,2.7,3.6v4.8h-1.5v-4.7c0-1.6-0.6-2.5-1.8-2.5
			c-0.9,0-1.5,0.6-1.8,1.4c-0.1,0.2-0.1,0.5-0.1,0.7v5.1h-1.5v-4.9c0-1.3-0.6-2.3-1.7-2.3c-0.9,0-1.6,0.7-1.9,1.5
			c-0.1,0.2-0.1,0.5-0.1,0.7v5h-1.5V370.8z"/>
	</g>
</g>
<g id="Layer_4">
	<path class="st1" d="M290.2,105.3h1.6v1.7c-1.3,2-16.6,9.4-46.1,22c-7.5,3.5-12.6,6.8-15.4,9.9v0.5l3.9,5v2.2l-1.1,1.1h-0.6
		c-2.6,0-4.6-2.2-6-6.6c0-7.1,14.3-16.1,42.8-26.9C281.4,108.2,288.3,105.3,290.2,105.3z M285.2,119.5h0.6c1.8,5.2,2.7,8.8,2.7,11
		c-1.2,4.4-3,6.6-5.5,6.6l-4.4-0.5c-3,2.5-5.7,3.8-8.2,3.8c-1.3,0-2.6-1.6-3.9-4.9c0.4-4.1,1-6.1,1.7-6.1h0.5c0,2.9,0.7,4.5,2.2,5
		h2.2c1.9,0,3.1-0.9,3.9-2.8l-0.6-8.8l0.6-2.2h0.5c1,0,1.9,2.9,2.8,8.8l2.2,1.7h2.2v-0.6l-1.1-7.7
		C283.8,120.6,284.3,119.5,285.2,119.5z M190.3,130.5c3.3,1.9,4.9,4.1,4.9,6.6l-0.5,1.7h-1.1l-3.3-2.2h-1.7c-0.9,0-1.5,0.7-1.6,2.2
		l0.5,9.9L187,152l0.5,0.5c-0.3,4.9-1.4,11.2-3.3,18.7v1.7c0.4,5.5,1.7,8.2,3.9,8.2c1.5-1.6,2.2-2.9,2.2-3.8h0.5l0.6,0.5h0.5
		c0,3.6-1.5,6.7-4.4,9.4c-4-2.3-6-5.4-6-9.4l2.2-15.4c-1.3-5-4.6-9.8-9.9-14.3l-3.3,0.6h-0.6c-2.5-1.8-3.8-3.8-3.8-6.1
		c0.2-3.3,1.1-4.9,2.7-4.9c5.3,2.1,9.5,5.6,12.7,10.4l1.6,3.9h0.6l0.5-0.6h0.6l-0.6-3.3C184.2,136.4,186.2,130.5,190.3,130.5z
		 M486.2,132.2h0.6c2.5,1.6,3.8,3.4,3.8,5.4c0,2-0.5,3.1-1.6,3.4h-0.6c-1.9-1.9-3.5-2.8-4.9-2.8l-2.2,2.2v4.4c0,7-0.7,13.9-2.2,20.9
		h-1.7c-4.7-9.9-9.5-14.8-14.3-14.8c-2.5-1.9-3.8-3.7-3.8-5.5v-1.1c0-1.9,0.9-3.2,2.7-3.9c3,0.5,8,5.1,14.9,13.8h1.1v-7.7
		C479.1,137,481.9,132.2,486.2,132.2z M523.5,132.7c4.1,0,6.1,5.7,6.1,17.1c1.8,0.9,2.7,2.4,2.7,4.4v1.1l-1.1,1.1
		c-1.2,0-2.5-0.6-3.8-1.7c-1.5,0-6.1,3.7-13.8,11c-12.4,9.2-21.6,13.9-27.4,14.3v-0.5c14.9-9.5,25.7-17,32.4-22.5
		c2.2-1.5,3.3-3.1,3.3-4.9c-3.3-2.5-5-5.2-5-8.3C518.2,136.4,520.4,132.7,523.5,132.7z M372.5,133.3c1.4,0.2,2.8,1.9,4.4,4.9
		l-0.6,0.6v9.9c3.3,2.5,5,4.7,5,6.6c-0.6,1.5-1.1,2.2-1.7,2.2l-4.4-2.8h-1.1c-1.7,0-6.3,3.9-13.7,11.6l-12.1,6h-0.6l-0.5-0.5h-0.6
		c0-0.9,2-2.5,6.1-5c8.5-6,14-10.6,16.5-13.7v-1.7c-2.2-2.4-3.3-4.8-3.3-7.1v-0.6C366,139.4,368.2,135.9,372.5,133.3z M442.2,134.9
		v1.7c0,2.9-7,8.1-20.9,15.4l-25.3,15.9H395l-0.5-2.2c2.2-3.4,8.6-8.2,19.2-14.3l28-16.5H442.2z M334.1,136.6
		c5.7,10.6,9.4,19,11,25.3l-0.6,1.6h-1.1c-1.7-1.5-2.9-2.2-3.8-2.2v0.6c6.2,42.4,9.3,68,9.3,76.9v3.8c-0.9,8.8-2.4,13.2-4.4,13.2
		l-0.5-0.5v-5.5c0-12.1-4.4-46.9-13.2-104.3h-0.6C331.7,139.5,333,136.6,334.1,136.6z M308.9,137.1h1.1c6.6,14.2,9.9,22.9,9.9,26.4
		l-3.9-1.1l-0.5,1.7c7.3,42.2,11,67.6,11,76.3s-2.8,14.6-8.3,17.5c-1.8,1.1-4.2,1.7-7.1,1.7c-5.9,0-11.3-3.1-16.5-9.4h-1.1
		c-1.9,9.2-8.1,13.8-18.7,13.8c-3.6,0-7.4-2.9-11.6-8.8c-6,8.1-13,12.1-20.9,12.1c-6.4,0-12.1-5.1-17-15.4c-1.6-5.9-2.7-8.8-3.3-8.8
		c-3.4,6.5-8,12.2-13.8,17c-12.2,9.9-20.7,14.9-25.8,14.9l-6.1,1.1c-10.6-1.7-15.9-3.7-15.9-6.1c-5.1-4.8-7.7-10.4-7.7-17h-0.6
		l0.6-0.6v-0.5c0-7.5,1.5-16.4,4.4-26.9c-2.2-6.2-3.3-11-3.3-14.3c0-8.8,2.7-19.2,8.2-31.3l0.6-0.6h1.1v0.6
		c-4.1,13.7-6.1,22.3-6.1,25.8c0,9.2,2.2,13.8,6.6,13.8c1.5,0,2.8-2.4,3.9-7.2h1.1l0.5,1.7c-0.9,9.1-3.3,13.7-7.1,13.7
		c-4.4,2-6.6,8.4-6.6,19.3c0,9.9,5.7,16.1,17,18.7l5,0.5c10.6,0,23.6-8.2,38.9-24.7c1.5-2,2.2-3.6,2.2-5v-2.7
		c0-6.8-4-35.2-12.1-85.1c1.2-5.1,2.3-7.7,3.3-7.7h1.1c4.8,20.6,10.3,54.1,16.5,100.5c2.3,7.2,6.4,12.3,12.1,15.4h7.7
		c5.1,0,10.6-5.3,16.5-16l1.7-1.1h1.1l0.5,2.2l-0.5,3.9c0,4.1,3.1,6.8,9.3,8.2h3.9c3.7,0,7-1.8,9.9-5.5l-12.1-93.3v-0.5
		c0-2.3,1.1-5.1,3.3-8.3h0.5c2.6,13,6.8,41.2,12.7,84.5c3.2,12.1,8,18.2,14.3,18.2h2.7c6.6-0.4,9.9-1.7,9.9-3.9v-0.5
		c0-5.1-5.1-38.3-15.4-99.4C306.7,139.7,307.6,137.1,308.9,137.1z M520.2,141v1.1c1.3,2.2,2.9,3.3,5,3.3h0.5v-3.9l-2.2-2.2h-1.6
		L520.2,141z M369.3,142.1c0.5,1.8,1.8,2.7,3.8,2.7l0.6-1.6c0-2.2-0.7-3.3-2.2-3.3C370,140.2,369.3,141,369.3,142.1z M260,158
		c1.9,0,3.7,2.2,5.5,6.6c-0.5,1.9-1,2.8-1.6,2.8h-0.6l-4.4-3.3l-2.2,1.1l0.6,7.1c-0.6,9.5-1.7,14.8-3.3,16h-1.1
		c-3.1-9.2-7.7-13.8-13.8-13.8l-2.7-4.4c0.3-3.7,1.4-5.5,3.3-5.5c2.4,0,7,4.4,13.7,13.2h0.6v-8.2l-0.6-0.6
		C254.5,161.6,256.6,158,260,158z M448.8,166.8v0.6l-1.1,1.1v-0.6L448.8,166.8z M447.2,170.1v0.6l-0.6,6.6c0,4.7,1.7,7.1,5,7.1
		l0.5-0.5c0.7,0,1.1-0.9,1.1-2.8l0.6-0.5h0.5l0.6,0.5v0.6c-0.7,6.2-2.6,9.3-5.5,9.3c-3.7-1.6-5.5-5-5.5-10.4
		C445,173.5,446.1,170.1,447.2,170.1z M380.7,171.1c5.5,2.9,8.3,5.7,8.3,8.3c0,2.2-1.5,4.4-4.4,6.6H384l-6.6-5h-0.5
		c-1,0.4-2.3,2.5-3.9,6.1l-0.5,0.5H372c-2.3,0-5.3-2-8.8-6v-1.1c0-2.3,1.3-4.7,3.9-7.2l8.8,3.9C378.5,173.2,380.1,171.1,380.7,171.1
		z M526.3,171.1v0.6c-1.5,3.2-2.2,5.5-2.2,7.1v2.2c0.7,3.3,1.6,5,2.7,5h1.7l2.2-1.7h0.5v0.6c-1.5,4.7-2.9,7.1-4.4,7.1h-1.6
		c-1.5,0-2.8-2.6-3.9-7.7C523,175.5,524.7,171.1,526.3,171.1z M412.1,182.1c7,6.6,10.7,10.4,11,11.6v1.1l-3.9,0.5l7.2,14.3l1.6,6.1
		c0,11.4-4.2,19.4-12.6,24.2c-1.9,3.1-2.8,6.2-2.8,9.3c0,9.6,5.7,15.1,17.1,16.5c12.4,0,27-9.7,43.9-29.1l0.5-2.2v-1.7h-0.5
		l-13.8,1.7h-1.6c-7.3,0-11-3.7-11-11.2c0-7.4,4-12.9,12.1-16.3c4.9,0,10.5,4.2,17,12.6h0.6c3.8-2,9.2-5.6,16.5-11h2.7l0.6,2.8
		l-0.6,3.8c2.1,5.1,5.6,7.7,10.5,7.7l2.7,0.6c6.6,0,12.3-5.5,17.1-16.5l1.6-1.1h1.1v1.1l-1.6,6.6v0.5c0.5,1.5,2.9,3.1,7.1,5h6.6
		c1.1,0,1.7-0.7,1.7-2.2l-2.8-5c0.4-5.5,1.3-8.2,2.8-8.2h0.5c2.9,3.9,4.4,8.2,4.4,13.2c-1.2,8.8-5.4,13.2-12.6,13.2
		c-4.4-1.4-8.3-3.8-11.6-7.2l-7.1,7.2c-3.8,2.2-7.4,3.3-11,3.3c-6.5,0-11.1-4.2-13.8-12.7h-1.1c-7.7,4.9-11.5,8.8-11.5,11.6
		c0,13.2-12.4,26.9-37.3,41.1c-6.7,2.2-11.5,3.3-14.3,3.3c-12.1-3.9-18.2-11.2-18.2-22l0.6-6.6l-0.6-1.6h-1.6
		c-23.1,16.1-41.1,24.2-53.8,24.2c-7.4,2.2-12.4,3.3-14.9,3.3l-0.5-0.6v-0.5l28.5-12.7l35.1-20.3c11.6-8.3,18.5-14.8,20.9-19.3V220
		c0-1.1-3.5-8.6-10.5-22.5c-1.8-4-2.7-7.1-2.7-9.3C410.2,184.2,411,182.1,412.1,182.1z M390.6,189.8h0.6v1.1h0.5
		c-0.5,4.5-3.5,10.5-8.8,18.2v1.1c7,5.5,10.5,9.7,10.5,12.6c0,7.5-1.8,12.6-5.5,15.4c-6,4.8-11,7.2-14.9,7.2c-4.3,0-6.9-3.7-7.7-11
		c1.1-6.4,2.8-12.5,5-18.2v-0.5c-9.2-8.5-13.8-14-13.8-16.5v-1.1c0-2.9,0.7-4.4,2.2-4.4c8.8,2.9,13.2,4.9,13.2,6v0.6l-1.6,2.2v1.1
		l6.6,3.3L390.6,189.8z M261.1,203.6c5.2,0,8.7,1.1,10.5,3.3c0,6.3-6.2,10.9-18.7,13.7l-0.6-0.5c0-0.8,2.8-2.8,8.3-6.1l1.1-1.6v-0.6
		h-7.2c-2.3,0-4.5,1.1-6.6,3.3h-1.1v-0.5c2-7.3,6-11,12.1-11H261.1z M194.1,205.2l0.6,0.6h0.5c-2.9,7.5-4.4,13-4.4,16.5v1.1
		c0,4.6,2,7.4,6.1,8.2l2.7-4.4l1.1,1.1c0,4.3-1.6,7.6-4.9,9.9h-1.1c-3.8,0-6.4-3.7-7.7-11c1.2-7.7,3.4-15,6.6-22H194.1z
		 M453.8,221.7c1.2,1.2,3.2,2,6,2.2c4.1-0.2,6.1-0.7,6.1-1.5c0-0.8-1.3-1.9-3.9-3.4h-6C455.2,219.1,454.5,220,453.8,221.7z
		 M369.8,228.2v2.2c0,2.9,1.5,4.4,4.4,4.4h1.1c6.1-1.5,10.3-4,12.7-7.7V226c-3.4-3.7-7.1-5.9-11-6.6h-1.1
		C374.8,219.6,372.8,222.5,369.8,228.2z M533.9,242h1.1v1.1h0.5c0,4.8-2.2,8.4-6.6,11l-6-0.6c-2.7,1.9-4.7,2.8-6.1,2.8h-1.1
		l-5.5-1.7h-1.6c-2.1,0-8.6,3.9-19.3,11.6l-7.7,2.2v-0.6c16.5-12.1,26.2-18.5,29.1-19.2l7.1,2.2h1.7c2-0.8,4.1-2.7,6-5.5l2.8,2.7
		h2.7C531.8,248,532.7,246,533.9,242z M227.6,267.3l0.5,0.5v0.6c0,2.4-5.5,6.2-16.5,11.5c-10.3,6.3-16.7,9.6-19.2,9.9v-1.1
		c0-2.7,5.7-6.8,17-12.1C219.4,270.4,225.5,267.3,227.6,267.3z M272,273.8h2.2l6.6,6.6v2.2c-2.3,3.6-3.9,5.4-4.9,5.5l-7.2-5h-1.1
		l-5.5,5h-1.1c-5-2.7-7.5-4.8-7.7-6.1l3.3-7.7h2.8c3.8,3.3,6.1,5,7.1,5L272,273.8z"/>
</g>
</svg>
