<?xml version="1.0" encoding="utf-8"?>
<!-- Generator: Adobe Illustrator 25.2.3, SVG Export Plug-In . SVG Version: 6.00 Build 0)  -->
<svg version="1.1" xmlns="http://www.w3.org/2000/svg" xmlns:xlink="http://www.w3.org/1999/xlink" x="0px" y="0px"
	 viewBox="0 0 700 395" style="enable-background:new 0 0 700 395;" xml:space="preserve">
<style type="text/css">
	.st0{fill:#000222;}
	.st1{fill:#FFFFFF;}
</style>
<g id="Layer_1">
	<rect class="st0" width="700" height="395"/>
</g>
<g id="Layer_3">
	<g>
		<path class="st1" d="M273.5,368.6l1.1,4.2c0.2,0.9,0.5,1.8,0.6,2.6h0.1c0.2-0.8,0.5-1.7,0.7-2.6l1.3-4.2h1.3l1.3,4.1
			c0.3,1,0.5,1.9,0.7,2.7h0.1c0.1-0.8,0.4-1.7,0.6-2.7l1.2-4.1h1.5l-2.7,8.2H280l-1.3-3.9c-0.3-0.9-0.5-1.7-0.7-2.7h0
			c-0.2,1-0.5,1.8-0.7,2.7l-1.3,3.9h-1.4l-2.5-8.2H273.5z"/>
		<path class="st1" d="M286.3,368.6l1.1,4.2c0.2,0.9,0.5,1.8,0.6,2.6h0.1c0.2-0.8,0.5-1.7,0.7-2.6l1.3-4.2h1.3l1.3,4.1
			c0.3,1,0.5,1.9,0.7,2.7h0.1c0.1-0.8,0.4-1.7,0.6-2.7l1.2-4.1h1.5l-2.7,8.2h-1.4l-1.3-3.9c-0.3-0.9-0.5-1.7-0.7-2.7h0
			c-0.2,1-0.5,1.8-0.7,2.7l-1.3,3.9h-1.4l-2.5-8.2H286.3z"/>
		<path class="st1" d="M299,368.6l1.1,4.2c0.2,0.9,0.5,1.8,0.6,2.6h0.1c0.2-0.8,0.5-1.7,0.7-2.6l1.3-4.2h1.3l1.3,4.1
			c0.3,1,0.5,1.9,0.7,2.7h0.1c0.1-0.8,0.4-1.7,0.6-2.7l1.2-4.1h1.5l-2.7,8.2h-1.4l-1.3-3.9c-0.3-0.9-0.5-1.7-0.7-2.7h0
			c-0.2,1-0.5,1.8-0.7,2.7l-1.3,3.9h-1.4l-2.5-8.2H299z"/>
		<path class="st1" d="M309.9,375.9c0-0.6,0.4-1.1,1-1.1c0.6,0,1,0.4,1,1.1c0,0.6-0.4,1.1-1,1.1C310.3,377,309.9,376.5,309.9,375.9z
			"/>
		<path class="st1" d="M313.5,375.3c0.4,0.3,1.2,0.6,2,0.6c1.1,0,1.6-0.5,1.6-1.2c0-0.7-0.4-1.1-1.5-1.5c-1.5-0.5-2.2-1.3-2.2-2.3
			c0-1.3,1.1-2.4,2.8-2.4c0.8,0,1.6,0.2,2,0.5l-0.4,1.1c-0.3-0.2-0.9-0.5-1.7-0.5c-0.9,0-1.4,0.5-1.4,1.1c0,0.7,0.5,1,1.6,1.4
			c1.4,0.5,2.2,1.3,2.2,2.5c0,1.4-1.1,2.5-3.1,2.5c-0.9,0-1.7-0.2-2.3-0.6L313.5,375.3z"/>
		<path class="st1" d="M327.4,374.6c0,0.9,0,1.6,0.1,2.2h-1.3l-0.1-1.3h0c-0.4,0.7-1.3,1.5-2.7,1.5c-1.3,0-2.8-0.7-2.8-3.6v-4.8h1.5
			v4.6c0,1.6,0.5,2.6,1.8,2.6c1,0,1.7-0.7,2-1.4c0.1-0.2,0.1-0.5,0.1-0.8v-5h1.5V374.6z"/>
		<path class="st1" d="M329.8,371.1c0-1,0-1.8-0.1-2.6h1.3l0.1,1.6h0.1c0.4-1.1,1.3-1.8,2.3-1.8c0.2,0,0.3,0,0.4,0.1v1.4
			c-0.2,0-0.3-0.1-0.5-0.1c-1.1,0-1.8,0.8-2,1.9c0,0.2-0.1,0.4-0.1,0.7v4.4h-1.5V371.1z"/>
		<path class="st1" d="M339.9,376.8l-0.1-1h-0.1c-0.5,0.6-1.3,1.2-2.5,1.2c-1.7,0-2.5-1.2-2.5-2.4c0-2,1.8-3.1,4.9-3.1v-0.2
			c0-0.7-0.2-1.9-1.9-1.9c-0.8,0-1.6,0.2-2.1,0.6l-0.3-1c0.7-0.4,1.7-0.7,2.7-0.7c2.5,0,3.1,1.7,3.1,3.4v3.1c0,0.7,0,1.4,0.1,2
			H339.9z M339.7,372.6c-1.6,0-3.5,0.3-3.5,1.9c0,1,0.6,1.4,1.4,1.4c1.1,0,1.8-0.7,2-1.4c0.1-0.2,0.1-0.3,0.1-0.5V372.6z"/>
		<path class="st1" d="M343.5,364.7h1.5v5.1h0c0.2-0.4,0.6-0.8,1.1-1.1c0.4-0.3,1-0.4,1.5-0.4c1.1,0,2.9,0.7,2.9,3.5v4.9H349v-4.7
			c0-1.3-0.5-2.4-1.9-2.4c-1,0-1.7,0.7-2,1.5c-0.1,0.2-0.1,0.4-0.1,0.7v5h-1.5V364.7z"/>
		<path class="st1" d="M358.6,375.5L358.6,375.5c-0.5,0.8-1.4,1.5-2.7,1.5c-1.9,0-3.5-1.7-3.5-4.2c0-3.1,2-4.4,3.7-4.4
			c1.3,0,2.1,0.6,2.5,1.4h0l0.1-1.2h1.4c0,0.7-0.1,1.4-0.1,2.3v9.3h-1.5V375.5z M358.6,371.9c0-0.2,0-0.4-0.1-0.6
			c-0.2-0.9-1-1.7-2.1-1.7c-1.5,0-2.5,1.3-2.5,3.2c0,1.6,0.8,3.1,2.4,3.1c1,0,1.8-0.6,2.1-1.6c0.1-0.2,0.1-0.5,0.1-0.7V371.9z"/>
		<path class="st1" d="M369.4,374.6c0,0.9,0,1.6,0.1,2.2h-1.3l-0.1-1.3h0c-0.4,0.7-1.3,1.5-2.7,1.5c-1.3,0-2.8-0.7-2.8-3.6v-4.8h1.5
			v4.6c0,1.6,0.5,2.6,1.8,2.6c1,0,1.7-0.7,2-1.4c0.1-0.2,0.1-0.5,0.1-0.8v-5h1.5V374.6z"/>
		<path class="st1" d="M371.9,371.1c0-1,0-1.8-0.1-2.6h1.3l0.1,1.6h0.1c0.4-1.1,1.3-1.8,2.3-1.8c0.2,0,0.3,0,0.4,0.1v1.4
			c-0.2,0-0.3-0.1-0.5-0.1c-1.1,0-1.8,0.8-2,1.9c0,0.2-0.1,0.4-0.1,0.7v4.4h-1.5V371.1z"/>
		<path class="st1" d="M381.9,376.8l-0.1-1h-0.1c-0.5,0.6-1.3,1.2-2.5,1.2c-1.7,0-2.5-1.2-2.5-2.4c0-2,1.8-3.1,4.9-3.1v-0.2
			c0-0.7-0.2-1.9-1.9-1.9c-0.8,0-1.6,0.2-2.1,0.6l-0.3-1c0.7-0.4,1.7-0.7,2.7-0.7c2.5,0,3.1,1.7,3.1,3.4v3.1c0,0.7,0,1.4,0.1,2
			H381.9z M381.7,372.6c-1.6,0-3.5,0.3-3.5,1.9c0,1,0.6,1.4,1.4,1.4c1.1,0,1.8-0.7,2-1.4c0.1-0.2,0.1-0.3,0.1-0.5V372.6z"/>
		<path class="st1" d="M385.6,370.8c0-0.9,0-1.5-0.1-2.2h1.3l0.1,1.4h0c0.4-0.8,1.4-1.5,2.7-1.5c1.1,0,2.9,0.7,2.9,3.5v4.9h-1.5
			v-4.7c0-1.3-0.5-2.4-1.9-2.4c-1,0-1.8,0.7-2,1.5c-0.1,0.2-0.1,0.4-0.1,0.7v4.9h-1.5V370.8z"/>
		<path class="st1" d="M394.6,375.9c0-0.6,0.4-1.1,1-1.1c0.6,0,1,0.4,1,1.1c0,0.6-0.4,1.1-1,1.1C395,377,394.6,376.5,394.6,375.9z"
			/>
		<path class="st1" d="M404.4,376.5c-0.4,0.2-1.3,0.5-2.4,0.5c-2.5,0-4.1-1.7-4.1-4.2c0-2.5,1.7-4.4,4.4-4.4c0.9,0,1.7,0.2,2.1,0.4
			l-0.3,1.2c-0.4-0.2-0.9-0.4-1.7-0.4c-1.9,0-2.9,1.4-2.9,3.1c0,1.9,1.2,3.1,2.9,3.1c0.8,0,1.4-0.2,1.8-0.4L404.4,376.5z"/>
		<path class="st1" d="M413.5,372.6c0,3-2.1,4.4-4.1,4.4c-2.2,0-3.9-1.6-3.9-4.2c0-2.8,1.8-4.4,4.1-4.4
			C411.9,368.4,413.5,370.1,413.5,372.6z M406.9,372.7c0,1.8,1,3.2,2.5,3.2c1.4,0,2.5-1.3,2.5-3.2c0-1.4-0.7-3.2-2.5-3.2
			S406.9,371.1,406.9,372.7z"/>
		<path class="st1" d="M415.4,370.8c0-0.9,0-1.5-0.1-2.2h1.3l0.1,1.3h0.1c0.5-0.8,1.2-1.5,2.6-1.5c1.1,0,2,0.7,2.3,1.6h0
			c0.3-0.5,0.6-0.8,0.9-1.1c0.5-0.4,1-0.6,1.8-0.6c1.1,0,2.7,0.7,2.7,3.6v4.8h-1.5v-4.7c0-1.6-0.6-2.5-1.8-2.5
			c-0.9,0-1.5,0.6-1.8,1.4c-0.1,0.2-0.1,0.5-0.1,0.7v5.1h-1.5v-4.9c0-1.3-0.6-2.3-1.7-2.3c-0.9,0-1.6,0.7-1.9,1.5
			c-0.1,0.2-0.1,0.5-0.1,0.7v5h-1.5V370.8z"/>
	</g>
</g>
<g id="Layer_4">
	<path class="st1" d="M539.4,107.9c2.6,0,4.8,2.2,6.5,6.6l-1.2,4.1h-1.2c-2.1-2-3.8-2.9-5.3-2.9H537c-1.7,0-2.8,3.2-3,9.5l0.6,1.7
		c-0.8,12.4-2,18.9-3.6,19.7c-6.5-10.7-11.1-16.1-13.7-16.1c-4.1-1.3-6.9-3.4-8.3-6.5c0-4,1.4-6,4.2-6c3.1,0.1,8.4,5,16,14.8h1.2
		l0.6-2.9v-7.8C531,117,533.8,112.2,539.4,107.9z M582.2,108.5c4.3,1.3,6.5,4.6,6.5,10.1v7.8c2.8,3,4.2,5.3,4.2,7.1l-0.6,2.4
		c-1.4,0-3.4-1-6-3h-0.6c-19.8,18.4-34.5,28.3-44.1,29.8h-1.2v-0.6l31.5-21.4l9-9v-1.2c-4-3.5-6-6.7-6-9.5
		C576.5,114.4,578.9,110.2,582.2,108.5z M361.9,109.1h1.2c8,12.8,12.4,22.3,13.1,28.6l-1.8,0.6l-2.9-1.8h-1.2l11.9,87.6l0.6,7.7
		l-0.6,5.4h0.6l-3.6,16h-1.7l-0.6-2.9c0-17.2-3-41.4-8.9-72.6l0.6-0.6v-0.6l-7.7-53.6l-0.6-0.6l-1.2-2.4L361.9,109.1z M280.3,109.7
		c1.5,0,2.9,2,4.2,6l-1.2,9.5c2.4,2.1,3.6,4,3.6,6v0.6l-1.8,1.8l-4.1-2.4c-0.7,0-3.7,3.2-9,9.5c-13.8,11.1-22.5,16.7-26.2,16.7v-1.2
		c0-0.6,8.2-7.2,24.5-19.7l6.5-7.7v-0.6c-2.6-2.6-4.4-5.2-5.3-7.7C272.8,113.3,275.8,109.7,280.3,109.7z M134.5,270l0.6-4.3v-3.6
		c0-13.3-4.8-27.2-14.3-41.7l-0.6-1.8c1.3-3.5,2.2-5.3,2.9-5.3h0.6c10.3,12.9,15.5,26.9,15.5,42.2c-0.3,5.8-1.2,10.2-2.7,13.2
		S134.4,272.1,134.5,270z M170.2,260.3l17.2-11.9l0.6-2.4c-1.9-2.3-11.8-5.1-29.8-8.3l-8.3-3.6l-0.6-2.9c0-6.2,5.8-11.6,17.3-16.1
		l8.3-6c0-0.7-6.2-6.1-18.5-16l-2.4-7.8c0.4-4.2,3.4-8.5,9-13.1c7.5-2.8,17-4.1,28.6-4.1h4.8c36.5,1.1,54.8,3.1,54.8,6v0.6
		c0,7.7-6.6,13.6-19.7,17.9c-11.9,5.3-18,8.9-18.4,10.7c-2,7.1-3,13-3,17.9c0,9.5,3.6,16,10.7,19.7c0.5,1.6,2.3,2.4,5.4,2.4h1.2
		c9.7,0,16.4-4.2,20.2-12.5c2.5-5.6,4.7-8.3,6.5-8.3c0,5.6,3.8,10.3,11.4,14.3h1.2c18.6-25.8,33.7-38.7,45.2-38.7
		c10.4,0,17.7,5.2,22,15.5v0.6L331,230c9.5-2.5,14.3-5.7,14.3-9.5l-15.5-101.2c1.3-6,2.5-9,3.6-9c3.7,5.5,7.8,14.8,12.5,28l-1.7,2.4
		l-3.6-3h-1.2l11.3,70.3v7.1c0,13.4-8.5,23.2-25.6,29.2c-14.3,4.8-26.8,7.1-37.5,7.1h-11.3l-11.9-0.6c-2.7,5.8-4.9,9.4-6.6,10.7
		h-0.6v-1.7l2.9-10.7c-5.1-5.2-7.7-8.6-7.7-10.2l-0.6-0.6h-0.6c-1.2,0.6-3,3.6-5.4,8.9c-5.9,5.2-11.7,7.8-17.2,7.8v0.6
		c-9.3,0-16.1-5.3-20.2-16c-1.6-4.4-2.4-9.4-2.4-14.9l1.7-19.1l-0.6-0.6H206c-11.9,4.9-17.9,9.3-17.9,13.1l-1.2,1.2h-1.2l-2.4-1.2
		c-3.4,0.4-7.8,2.9-13.1,7.7v1.2h0.6c15.9,2,23.8,5.9,23.8,11.9l0.6,1.8c0,10.6-5.8,19.2-17.3,25.6c-20.2,13.9-38,20.9-53.6,20.9
		h-1.7c-16.2,0-26.5-7.5-31-22.6l-1.8-9c0-9.9,2.6-21.6,7.8-35.1c-3.6-4.9-5.4-10.6-5.4-17.2c0-6.6,2.8-18.1,8.3-34.7h1.2v1.2h0.6
		c-4,13.5-6,23.3-6,29.5s1.8,10.4,5.3,12.8h1.8c1.2-0.2,2.4-2.1,3.6-6h1.2l0.6,4.8c-1.6,7.9-4.6,11.9-8.9,11.9
		c-3.2,8.8-4.8,15.4-4.8,19.6v9.5c0.5,5.6,3.3,10.9,8.2,15.8s13,7.5,24.1,7.7c2.6,0.2,6.6-0.3,12-1.3
		C145,273.1,155.2,268.5,170.2,260.3z M411.3,110.3h1.2c1.1,0,2.1,2,3,6l-0.6,10.7c4,3.2,6,5.6,6,7.1c-0.5,2-1.1,3-1.7,3h-0.6
		c-2.8-2.4-5-3.6-6.5-3.6h-0.6c-8,9-17.4,15.8-27.9,20.2l-0.6,0.6h-2.4v-0.6c0.7-1.4,5.3-4.8,13.7-10.2c8.7-6.9,13.1-10.8,13.1-11.9
		v-1.7c-2.4-3.2-3.6-5.6-3.6-7.1C404.5,114.4,407,110.3,411.3,110.3z M235.1,112.1l1.8,0.6c0,5.3-5,8.9-14.9,10.7
		c-24.7,10.1-52.7,23.6-83.9,40.5l-4.2,1.8l-0.6-0.6v-0.6c0-5.3,7.1-10.7,21.4-16.1C173.1,137.2,199.8,125.2,235.1,112.1z
		 M488.7,112.1h1.8c0,4-4.2,7.9-12.5,11.9l-39.9,24.4h-1.8v-1.2h-0.6c0-3.2,8.3-9.6,25-19.1L488.7,112.1z M278,116.2l-1.7,1.8
		c0.5,2,1.9,2.9,4.1,2.9l0.6-0.6V118C281,117.1,280,116.5,278,116.2z M578.7,118c0,2.1,1.6,3.8,4.8,5.3h1.7v-2.9
		c0-2.2-0.8-3.6-2.4-4.2h-2.4L578.7,118z M407.2,119.8c0.5,1.6,1.5,2.8,2.9,3.6h1.8v-2.9l-0.6-3h-2.4
		C407.9,117.4,407.4,118.2,407.2,119.8z M132.1,119.8c4,1.3,6,4,6,8.3l-1.8,1.8h-0.6l-4.8-3.6h-1.2c-1.5,0-2.5,7.9-3,23.8l-2.4,3.6
		h-0.6c-1.2-5.5-4.4-10.8-9.5-16.1l-0.6-0.6h-0.6l-3.6,0.6c-2.9-1.1-5.1-3.2-6.6-6.5c0.7-4,1.7-6,3-6c4.6,0,10.1,4.9,16.7,14.8
		l0.6,1.8h1.8C125,127.1,127.4,119.8,132.1,119.8z M223.2,126.9l1.2,1.2c-1.5,6.2-2.3,11-2.4,14.3c0.5,5.6,2.3,8.3,5.4,8.3
		c1.6-1.9,2.4-3.5,2.4-4.8h1.2v1.2h0.6c-1.7,6.8-3.5,10.2-5.3,10.2c-4.8-1-7.1-5-7.1-11.9C219.1,138.4,220.4,132.3,223.2,126.9z
		 M316.1,142.4h1.2l-2.4,11.4c0.5,5.8,1.7,9,3.6,9.5h1.8c0.9,0,1.5-1,1.7-3h1.2v0.6c-1.1,6.4-2.9,9.5-5.3,9.5
		c-3.6-1.3-5.4-4.9-5.4-10.7v-1.2C312.5,154.6,313.7,149.2,316.1,142.4z M292.2,144.2h0.6c3.1,3.9,5.2,8,6.5,12.5
		c-1.1,6.4-3.9,9.5-8.3,9.5l-4.1-1.7h-2.4c-3.1,3.2-5.8,4.8-8,4.8c-2.2,0-4.1-1.8-5.8-5.4c0.4-7.5,1.2-11.3,2.4-11.3l0.6,2.9v4.2
		l2.4,2.4h4.1c2.4-1.1,3.6-3.1,3.6-6l-1.2-5.4c0.4-2.8,1-4.1,1.8-4.1h1.2c0,8.3,2.6,12.5,7.7,12.5h1.2v-1.7c-2-2.9-2.9-5.1-2.9-6.6
		v-3.6L292.2,144.2z M495.9,149h0.6v0.6l-1.8,8.3c0,6,1.8,9.2,5.4,9.5h0.6c0.8,0,1.6-1.4,2.4-4.1h1.2c0,5.5-1.6,9.3-4.8,11.3h-1.7
		c-4-2.1-6-5.9-6-11.3C492.7,157.2,494.1,152.4,495.9,149z M420.3,152.6c1.9,0,5,3,9.5,8.9c0,2.9-2,5.5-6,7.8l-7.8-5.4
		c-1.2,0-2.8,2.2-4.8,6.6l-1.7,0.6c-2.9,0-6-2.6-9.5-7.7c2-5.2,3.3-7.8,4.1-7.8h1.8l6.5,4.2h1.2l6-7.1H420.3z M584.6,152.6h1.2
		l-2.4,7.1v5.3c0,2.2,1,3.8,2.9,4.8h1.2c1.6-0.8,2.4-1.8,2.4-2.9h1.2v1.2c-1.5,5.6-3.1,8.3-4.8,8.3h-1.7c-2.8-2.2-4.2-5.3-4.2-9.5
		C581,162,582.4,157.2,584.6,152.6z M454.8,165h1.2c8.3,8.3,12.5,12.8,12.5,13.7l-4.8,2.4c6.8,11.2,10.2,18.9,10.2,23.2
		c0,11.7-5.2,20.8-15.5,27.4l-1.8,6.6v6.5c0,7.8,5.4,13.2,16.1,16.1h1.7c14.9,0,32-11.1,51.2-33.3l0.6-3v-1.2l-1.2-1.2
		c-7.7,1.6-13.7,2.4-17.9,2.4h-0.6c-6,0-9.7-4.2-11.3-12.5c0-8.4,4.4-14.6,13.1-18.5h2.4c5,0,10.9,4.6,17.9,13.7
		c3.3-0.2,10-4.5,20.2-13.1c2.4,0,3.6,3.8,3.6,11.3c2.7,3.5,5.9,5.5,9.5,6h4.8c7.8,0,14.2-6.1,19.1-18.4l1.7-1.2h1.2v0.6l-1.7,8.3
		v0.6c1,2.1,4.2,3.9,9.5,5.3h6.5l1.2-1.2V205l-2.9-7.8c0.9-5.1,1.9-7.7,2.9-7.7h0.6c3.5,3.4,5.3,8.2,5.3,14.3
		c0,8.5-4.2,13.7-12.5,15.5c-5.2-0.6-10.4-3.2-15.5-7.8h-0.6c-5.5,7.9-11.8,11.9-19.1,11.9c-10.3-2.1-15.5-7.1-15.5-14.8h-1.7
		c-8.7,5.8-13.1,10-13.1,12.5c0,13.7-11.9,28.6-35.7,44.7c-7.7,4.3-14,6.5-19.1,6.5h-4.2c-11.9,0-18.8-8.3-20.8-25v-0.6l0.6-8.3
		c-1.1,0-9.2,4.9-24.4,14.8c-11,6.5-22.3,10.8-34,13.1l-22,4.2h-1.2v-0.6c2.1-2.2,10.8-6.1,26.2-11.9c15.9-7.5,34.2-18.6,54.8-33.3
		c6.4-4.6,11.7-9.4,16-14.3v-1.2c0-2.4-3.4-9.6-10.1-21.4l-5.4-14.3L454.8,165z M130.9,171.6h0.6l-1.7,11.3v6.6c0.5,4,2.3,6,5.3,6
		c0.8-1.8,1.6-2.8,2.4-3l0.6,0.6v0.6c0,5.6-2,8.3-6,8.3c-2.8,0-4.6-4-5.4-11.9v-2.4C128.4,177,129.8,171.6,130.9,171.6z M431.6,174
		h0.6v0.6c0,5.7-3.4,12.6-10.2,20.9c0,2.1,2.4,4.5,7.1,7.1c3.6,4.6,5.4,8,5.4,10.1c0,12.4-7.5,20.8-22.6,25c-6,0-9-4-9-11.9
		c0-6.6,1.8-13.8,5.4-21.4v-1.2c-10.3-9.6-15.5-15.5-15.5-17.9v-0.6c0-4.4,0.6-6.6,1.7-6.6c9.8,3.2,14.8,5.6,14.9,7.1v0.6
		c0,0.8-0.8,1.2-2.4,1.2v0.6c3.6,4,6.4,6,8.3,6C420.3,186.8,425.6,180.2,431.6,174z M281,176.9h1.7c4.6,2.6,7.6,5.2,9,7.8
		c0,2.5-1.8,5.3-5.4,8.3c-2.6,0-6-2.4-10.1-7.1v-2.4C278.2,179.6,279.8,177.4,281,176.9z M161.3,184.7v0.6
		c13.9,12.3,21.7,18.5,23.3,18.5h1.7l42.3-21.4v-0.6c-4.4-1.1-16.2-2-35.2-2.9C172,179.6,161.3,181.5,161.3,184.7z M503,210.9
		l4.8,1.7h1.2c5.2,0,7.8-0.6,7.8-1.7v-0.6c-2.3-2.8-4.5-4.1-6.6-4.1C505.4,206.4,503,208,503,210.9z M407.2,221.6
		c0.5,1.6,1.5,2.8,2.9,3.6h4.2c6.8-1.7,11.5-4.7,14.3-9V215c-6.1-5.1-10.8-7.7-14.3-7.7C409.6,212.6,407.2,217.3,407.2,221.6z
		 M273.2,237.1v1.2h8.3c14.7,0,29.4-4.8,44.1-14.3l1.8-2.4v-1.2c-6-7.6-11.9-11.4-17.9-11.4C299.4,209.1,287.3,218.4,273.2,237.1z
		 M595.9,233.5v1.2h0.6c-2.1,8.7-5.1,13.1-9,13.1l-5.3-1.8c-2.1,2.8-5.1,4.2-9,4.2c-2.7-1.6-5.1-2.4-7.1-2.4c-2.1,0-9,4.2-20.8,12.5
		c-3.5,2.1-7.3,3.5-11.4,4.2v-1.8c6.7-3.2,15.1-8.8,25-16.7c4.4-3.2,7.8-4.8,10.2-4.8h1.7l5.4,3c2.9,0,5.9-2.6,8.9-7.8
		c1.7,2.8,3.5,4.2,5.4,4.2c1.2-0.3,2.5-2.7,4.1-7.1H595.9z M351.2,248.4h1.2c1.6,0.6,2.4,2,2.4,4.2v3.6c-2.3,7.9-6.5,13.7-12.5,17.2
		h-1.7v-1.2c6.2-6.5,9.9-11,11.3-13.7v-1.2l-1.7-1.8h-1.2l-3.6,3l-0.6-0.6v-0.6C346,251.4,348.2,248.4,351.2,248.4z M206.5,259.7
		h1.8c1.6,0,2.6,2.4,2.9,7.1c-1,5.8-4.4,11.4-10.1,16.7l-4.2,1.2v-0.6l11.4-14.3v-1.2l-1.8-1.7H206c-1.4,0-2.8,0.6-4.2,1.7h-0.6
		C201.2,265.1,203,262.1,206.5,259.7z M276.2,260.3c0.7,0,1.5,1.8,2.4,5.4c0,6.2-4.4,12-13.1,17.2h-1.2v-0.6
		c7.5-8.3,11.3-13,11.3-14.3l-1.7-1.2l-4.2,2.9l-0.6-1.7C270.5,262.9,272.9,260.3,276.2,260.3z"/>
</g>
</svg>
