<?xml version="1.0" encoding="utf-8"?>
<!-- Generator: Adobe Illustrator 25.2.3, SVG Export Plug-In . SVG Version: 6.00 Build 0)  -->
<svg version="1.1" xmlns="http://www.w3.org/2000/svg" xmlns:xlink="http://www.w3.org/1999/xlink" x="0px" y="0px"
	 viewBox="0 0 700 395" style="enable-background:new 0 0 700 395;" xml:space="preserve">
<style type="text/css">
	.st0{fill:#000222;}
	.st1{fill:#FFFFFF;}
</style>
<g id="Layer_1">
	<rect class="st0" width="700" height="395"/>
</g>
<g id="Layer_3">
	<g>
		<path class="st1" d="M273.5,368.6l1.1,4.2c0.2,0.9,0.5,1.8,0.6,2.6h0.1c0.2-0.8,0.5-1.7,0.7-2.6l1.3-4.2h1.3l1.3,4.1
			c0.3,1,0.5,1.9,0.7,2.7h0.1c0.1-0.8,0.4-1.7,0.6-2.7l1.2-4.1h1.5l-2.7,8.2H280l-1.3-3.9c-0.3-0.9-0.5-1.7-0.7-2.7h0
			c-0.2,1-0.5,1.8-0.7,2.7l-1.3,3.9h-1.4l-2.5-8.2H273.5z"/>
		<path class="st1" d="M286.3,368.6l1.1,4.2c0.2,0.9,0.5,1.8,0.6,2.6h0.1c0.2-0.8,0.5-1.7,0.7-2.6l1.3-4.2h1.3l1.3,4.1
			c0.3,1,0.5,1.9,0.7,2.7h0.1c0.1-0.8,0.4-1.7,0.6-2.7l1.2-4.1h1.5l-2.7,8.2h-1.4l-1.3-3.9c-0.3-0.9-0.5-1.7-0.7-2.7h0
			c-0.2,1-0.5,1.8-0.7,2.7l-1.3,3.9h-1.4l-2.5-8.2H286.3z"/>
		<path class="st1" d="M299,368.6l1.1,4.2c0.2,0.9,0.5,1.8,0.6,2.6h0.1c0.2-0.8,0.5-1.7,0.7-2.6l1.3-4.2h1.3l1.3,4.1
			c0.3,1,0.5,1.9,0.7,2.7h0.1c0.1-0.8,0.4-1.7,0.6-2.7l1.2-4.1h1.5l-2.7,8.2h-1.4l-1.3-3.9c-0.3-0.9-0.5-1.7-0.7-2.7h0
			c-0.2,1-0.5,1.8-0.7,2.7l-1.3,3.9h-1.4l-2.5-8.2H299z"/>
		<path class="st1" d="M309.9,375.9c0-0.6,0.4-1.1,1-1.1c0.6,0,1,0.4,1,1.1c0,0.6-0.4,1.1-1,1.1C310.3,377,309.9,376.5,309.9,375.9z
			"/>
		<path class="st1" d="M313.5,375.3c0.4,0.3,1.2,0.6,2,0.6c1.1,0,1.6-0.5,1.6-1.2c0-0.7-0.4-1.1-1.5-1.5c-1.5-0.5-2.2-1.3-2.2-2.3
			c0-1.3,1.1-2.4,2.8-2.4c0.8,0,1.6,0.2,2,0.5l-0.4,1.1c-0.3-0.2-0.9-0.5-1.7-0.5c-0.9,0-1.4,0.5-1.4,1.1c0,0.7,0.5,1,1.6,1.4
			c1.4,0.5,2.2,1.3,2.2,2.5c0,1.4-1.1,2.5-3.1,2.5c-0.9,0-1.7-0.2-2.3-0.6L313.5,375.3z"/>
		<path class="st1" d="M327.4,374.6c0,0.9,0,1.6,0.1,2.2h-1.3l-0.1-1.3h0c-0.4,0.7-1.3,1.5-2.7,1.5c-1.3,0-2.8-0.7-2.8-3.6v-4.8h1.5
			v4.6c0,1.6,0.5,2.6,1.8,2.6c1,0,1.7-0.7,2-1.4c0.1-0.2,0.1-0.5,0.1-0.8v-5h1.5V374.6z"/>
		<path class="st1" d="M329.8,371.1c0-1,0-1.8-0.1-2.6h1.3l0.1,1.6h0.1c0.4-1.1,1.3-1.8,2.3-1.8c0.2,0,0.3,0,0.4,0.1v1.4
			c-0.2,0-0.3-0.1-0.5-0.1c-1.1,0-1.8,0.8-2,1.9c0,0.2-0.1,0.4-0.1,0.7v4.4h-1.5V371.1z"/>
		<path class="st1" d="M339.9,376.8l-0.1-1h-0.1c-0.5,0.6-1.3,1.2-2.5,1.2c-1.7,0-2.5-1.2-2.5-2.4c0-2,1.8-3.1,4.9-3.1v-0.2
			c0-0.7-0.2-1.9-1.9-1.9c-0.8,0-1.6,0.2-2.1,0.6l-0.3-1c0.7-0.4,1.7-0.7,2.7-0.7c2.5,0,3.1,1.7,3.1,3.4v3.1c0,0.7,0,1.4,0.1,2
			H339.9z M339.7,372.6c-1.6,0-3.5,0.3-3.5,1.9c0,1,0.6,1.4,1.4,1.4c1.1,0,1.8-0.7,2-1.4c0.1-0.2,0.1-0.3,0.1-0.5V372.6z"/>
		<path class="st1" d="M343.5,364.7h1.5v5.1h0c0.2-0.4,0.6-0.8,1.1-1.1c0.4-0.3,1-0.4,1.5-0.4c1.1,0,2.9,0.7,2.9,3.5v4.9H349v-4.7
			c0-1.3-0.5-2.4-1.9-2.4c-1,0-1.7,0.7-2,1.5c-0.1,0.2-0.1,0.4-0.1,0.7v5h-1.5V364.7z"/>
		<path class="st1" d="M358.6,375.5L358.6,375.5c-0.5,0.8-1.4,1.5-2.7,1.5c-1.9,0-3.5-1.7-3.5-4.2c0-3.1,2-4.4,3.7-4.4
			c1.3,0,2.1,0.6,2.5,1.4h0l0.1-1.2h1.4c0,0.7-0.1,1.4-0.1,2.3v9.3h-1.5V375.5z M358.6,371.9c0-0.2,0-0.4-0.1-0.6
			c-0.2-0.9-1-1.7-2.1-1.7c-1.5,0-2.5,1.3-2.5,3.2c0,1.6,0.8,3.1,2.4,3.1c1,0,1.8-0.6,2.1-1.6c0.1-0.2,0.1-0.5,0.1-0.7V371.9z"/>
		<path class="st1" d="M369.4,374.6c0,0.9,0,1.6,0.1,2.2h-1.3l-0.1-1.3h0c-0.4,0.7-1.3,1.5-2.7,1.5c-1.3,0-2.8-0.7-2.8-3.6v-4.8h1.5
			v4.6c0,1.6,0.5,2.6,1.8,2.6c1,0,1.7-0.7,2-1.4c0.1-0.2,0.1-0.5,0.1-0.8v-5h1.5V374.6z"/>
		<path class="st1" d="M371.9,371.1c0-1,0-1.8-0.1-2.6h1.3l0.1,1.6h0.1c0.4-1.1,1.3-1.8,2.3-1.8c0.2,0,0.3,0,0.4,0.1v1.4
			c-0.2,0-0.3-0.1-0.5-0.1c-1.1,0-1.8,0.8-2,1.9c0,0.2-0.1,0.4-0.1,0.7v4.4h-1.5V371.1z"/>
		<path class="st1" d="M381.9,376.8l-0.1-1h-0.1c-0.5,0.6-1.3,1.2-2.5,1.2c-1.7,0-2.5-1.2-2.5-2.4c0-2,1.8-3.1,4.9-3.1v-0.2
			c0-0.7-0.2-1.9-1.9-1.9c-0.8,0-1.6,0.2-2.1,0.6l-0.3-1c0.7-0.4,1.7-0.7,2.7-0.7c2.5,0,3.1,1.7,3.1,3.4v3.1c0,0.7,0,1.4,0.1,2
			H381.9z M381.7,372.6c-1.6,0-3.5,0.3-3.5,1.9c0,1,0.6,1.4,1.4,1.4c1.1,0,1.8-0.7,2-1.4c0.1-0.2,0.1-0.3,0.1-0.5V372.6z"/>
		<path class="st1" d="M385.6,370.8c0-0.9,0-1.5-0.1-2.2h1.3l0.1,1.4h0c0.4-0.8,1.4-1.5,2.7-1.5c1.1,0,2.9,0.7,2.9,3.5v4.9h-1.5
			v-4.7c0-1.3-0.5-2.4-1.9-2.4c-1,0-1.8,0.7-2,1.5c-0.1,0.2-0.1,0.4-0.1,0.7v4.9h-1.5V370.8z"/>
		<path class="st1" d="M394.6,375.9c0-0.6,0.4-1.1,1-1.1c0.6,0,1,0.4,1,1.1c0,0.6-0.4,1.1-1,1.1C395,377,394.6,376.5,394.6,375.9z"
			/>
		<path class="st1" d="M404.4,376.5c-0.4,0.2-1.3,0.5-2.4,0.5c-2.5,0-4.1-1.7-4.1-4.2c0-2.5,1.7-4.4,4.4-4.4c0.9,0,1.7,0.2,2.1,0.4
			l-0.3,1.2c-0.4-0.2-0.9-0.4-1.7-0.4c-1.9,0-2.9,1.4-2.9,3.1c0,1.9,1.2,3.1,2.9,3.1c0.8,0,1.4-0.2,1.8-0.4L404.4,376.5z"/>
		<path class="st1" d="M413.5,372.6c0,3-2.1,4.4-4.1,4.4c-2.2,0-3.9-1.6-3.9-4.2c0-2.8,1.8-4.4,4.1-4.4
			C411.9,368.4,413.5,370.1,413.5,372.6z M406.9,372.7c0,1.8,1,3.2,2.5,3.2c1.4,0,2.5-1.3,2.5-3.2c0-1.4-0.7-3.2-2.5-3.2
			S406.9,371.1,406.9,372.7z"/>
		<path class="st1" d="M415.4,370.8c0-0.9,0-1.5-0.1-2.2h1.3l0.1,1.3h0.1c0.5-0.8,1.2-1.5,2.6-1.5c1.1,0,2,0.7,2.3,1.6h0
			c0.3-0.5,0.6-0.8,0.9-1.1c0.5-0.4,1-0.6,1.8-0.6c1.1,0,2.7,0.7,2.7,3.6v4.8h-1.5v-4.7c0-1.6-0.6-2.5-1.8-2.5
			c-0.9,0-1.5,0.6-1.8,1.4c-0.1,0.2-0.1,0.5-0.1,0.7v5.1h-1.5v-4.9c0-1.3-0.6-2.3-1.7-2.3c-0.9,0-1.6,0.7-1.9,1.5
			c-0.1,0.2-0.1,0.5-0.1,0.7v5h-1.5V370.8z"/>
	</g>
</g>
<g id="Layer_4">
	<path class="st1" d="M564.6,122.3c1.6-10.1,4.4-15.1,8.2-15.1c3.9,0,6.2,6.1,6.9,18.2c0,0.8,1.3,2.5,3.8,5l0.6,1.9
		c-0.6,2.1-1.2,3.1-1.8,3.1l-3.2-1.8h-3.1c-8.3,8.2-15.4,14.7-21.4,19.5l0.6,0.7v4.4h-1.3l-1.3-3.1h-1.3c-8.7,5.6-16,9.2-22,10.7
		v-0.6l32-23.9c3.7-1.8,7-4.9,10.1-9.5v-1.3C567.6,126.9,565.3,124.2,564.6,122.3z M527.4,107.8c3.8,2,5.7,4.5,5.7,7.6
		c-0.4,2.5-1.1,3.8-1.9,3.8c-2.2-2.1-4.1-3.1-5.6-3.1h-1.3c-1.7,0.6-2.5,2.4-2.5,5.6v5c0,15.1-1.1,22.7-3.2,22.7H518
		c0-3.4-4.2-9.1-12.6-16.9l-3.2,0.6c-4.6-3.2-6.9-5.9-6.9-8.1v-2.5l2.5-2.5h0.6c4.3,0,10.5,5.2,18.9,15.7h0.7v-3.1l0.6-7.6H518
		c0-5.4,2.3-10.6,6.9-15.8L527.4,107.8z M314.8,109.1c5.5,10.3,9.3,19.9,11.3,28.9v1.3l-1.3,1.3l-3.8-3.1h-0.6v0.6l10.1,80.5v7
		c-2.3,11.3-6.5,16.9-12.6,16.9c-5,0-9.8-2.1-14.5-6.3h-0.6c-5.4,7.2-9.8,10.7-13.3,10.7c-5.4,0-9.8-2.5-13.2-7.6h-1.9
		c-5.6,7.1-10.8,10.7-15.7,10.7h-2.5c-3.1,0-8.5-2.5-16.4-7.6l-9.5-1.8c-8.4,0-20.2,6.9-35.2,20.7c-15.7,17.6-27.2,26.4-34.5,26.4
		s-12.6-4.2-15.8-12.6l-0.6-8.1v-3.8c0-1-3.8-1.8-11.3-2.5c-10.1-2.9-17.6-7.7-22.7-14.5c-5.9-8.1-8.8-20.3-8.8-36.5
		c0-4.3,1.3-12.5,3.8-24.5v-1.9l-3.8-4.4v-0.7h1.3v-0.6l3.1,0.6c2,0,5.5-5,10.7-15.1l1.8-1.8v-2.5c-0.3-1-6.4-5.6-18.2-13.8
		c-3-3-4.4-7.2-4.4-12.6c0-8.7,6.7-14.2,20.1-16.4c2.1-0.8,5.9-1.3,11.3-1.3h3.2c37.3,0,56,1.9,56,5.6c-2.6,8.8-5.9,13.3-10.1,13.3
		l-44,28.3v0.7l0.7,5l-0.7,1.8H131c-1.9-1.7-3.4-2.5-4.4-2.5c-3.6,1.2-7.4,4.8-11.3,10.7v0.6l1.3,1.3l10.7,0.7l42.8-3.8
		c13.5,0,22.8,5.5,27.7,16.4l1.3,8.1c0,20.3-10.7,38.1-32,53.5c-11.5,4.6-17.6,7.8-18.3,9.4l-0.6,3.2c0,7.6,2.9,11.3,8.8,11.3
		c7.3,0,18.4-8.2,33.3-24.6c17.8-17.2,31.6-25.8,41.5-25.8c6.2,0,13.8,2.9,22.7,8.8l3.8,1.3h1.9c6.9,0,14.3-5.5,22-16.4h1.3
		l-0.6,6.3v2.5c1.7,2.9,4.2,4.4,7.6,4.4h2.5c4.2-2,7.1-5.7,8.8-11.3c1-3.4,1.9-5,2.6-5s1.1,1.9,1.1,5.7c4.1,3.6,8.1,5.5,11.9,5.6h5
		l2.5-2.5l-13.8-107l-0.6-2.5C310.4,115.1,311.9,112.2,314.8,109.1z M343.7,109.7c1.9,0.9,6.1,10.3,12.6,28.3v2.5l-0.6,0.7H355
		l-4.4-3.2H350v0.7c0,4.6,3.8,34,11.3,88.1l0.7,12.6c0,5.1-1.3,11-3.8,17.6H357l-1.3-1.3l0.6-5.7l-16.4-132.7
		C341.2,113.5,342.4,111,343.7,109.7z M305.4,110.3v1.3c0,5.1-5.9,9.1-17.6,12c-24.7,9.6-54.9,23.5-90.6,41.5l-0.7-1.9
		c0-6.3,14.9-15.3,44.7-27c15.3-7.8,32.9-15.3,52.9-22.7C298.2,111.4,302,110.3,305.4,110.3z M215.4,111h1.3v0.6
		c-1.2,3.6-1.8,8.5-1.8,14.5c1.1,2.8,2.4,4.5,3.8,5h1.3l3.8-3.8l0.6,0.6c0,4.4-2.1,7.9-6.3,10.7c-3.4,0-5.5-4-6.3-12
		C211.6,124.5,212.8,119.3,215.4,111z M474.6,113.5l0.7,1.8c0,3.7-13.8,13.8-41.5,30.2c-8.5,6.3-13.3,9.5-14.5,9.5l-0.6-0.7v-1.8
		c0-3.5,5.9-8.4,17.6-14.5C442.8,133.2,455.6,125,474.6,113.5z M570.9,114.8c-1.7,0.8-2.5,2.1-2.5,3.9s2.3,3.2,6.9,4.3l0.7-0.6v-1.9
		C575.9,116.7,574.2,114.8,570.9,114.8z M392.8,114.8c1.7,0,2.9,2.7,3.8,8.1l-0.6,8.2c4.1,3.7,6.4,6.5,6.9,8.1
		c-0.4,2.5-1,3.8-1.8,3.8l-8.2-3.8c-0.8,0-4.4,3.8-10.7,11.3c-8.9,6.5-15.5,10.1-19.5,10.7v-1.9c12.1-8.4,20.7-15.7,25.8-22
		l-3.8-7.6l-0.7-4.4C386.2,118.3,389.1,114.8,392.8,114.8z M387.8,125.4c0.3,1.5,1.6,2.7,3.8,3.8h1.3v-5.6l-1.3-1.3
		C389,122.3,387.8,123.4,387.8,125.4z M101.5,132.4c0.1,1.5,6.2,6.1,18.2,13.8c3.8,4.6,6.5,6.9,8.2,6.9c21-13.1,33.2-21.1,36.5-23.9
		c0-1.7-9.2-2.5-27.7-2.5C113.3,127.1,101.5,129,101.5,132.4z M287.8,140c3.7,5.4,5.6,10,5.6,13.8c-1,5.9-3.7,8.8-8.1,8.8
		c-3.2-1.2-5.1-2.2-5.7-3.2c-4.3,3.8-7.7,5.7-10.1,5.7h-0.6c-2.5-1.5-3.8-3.4-3.8-5.7v-4.4c0-4.6,0.6-7,1.8-7h0.7v5.7
		c0,2.9,1.5,4.4,4.4,4.4c3.8-0.5,5.7-2.4,5.7-5.6l-0.7-5.7c1-2.9,1.8-4.4,2.5-4.4h0.7c0,8.4,2.3,12.6,6.9,12.6h0.7
		c0.8,0,1.3-0.6,1.3-1.9c-2.1-4.1-3.2-7.3-3.2-9.4C286.3,141.2,286.9,140,287.8,140z M172.6,140.5h0.7l0.6,0.7h0.7
		c-1.7,4.8-2.5,9.6-2.5,14.4c0,3.1,1.5,5.5,4.4,7l3.2-3.2l0.6,0.7c-1.7,5.9-3.4,8.8-5,8.8h-1.3c-3.4-2.5-5-6-5-10.7L172.6,140.5z
		 M483.4,151.3v0.6c-1.2,3.9-1.8,7.5-1.8,10.7v2.5c1.3,5,2.8,7.6,4.4,7.6h0.7l3.8-4.4l0.6,0.7h0.7c-1.3,7.6-3.4,11.3-6.3,11.3
		c-4.6-1.5-7-5.9-7-13.3C480.1,156.5,481.8,151.3,483.4,151.3z M577.2,152.5v0.6l-2.5,8.8v1.3c0,4.8,1,7.6,3.1,8.2h1.9
		c1.2,0,1.8-0.8,1.8-2.5h0.7l0.6,0.6h0.7c0,3.5-1.7,6.4-5,8.8h-1.9c-1.8,0-3.3-2.9-4.4-8.8v-1.8
		C572.1,161.8,573.8,156.7,577.2,152.5z M402.3,160.1c2.6,0,6.2,2.7,10.7,8.1c-2,5.5-3.6,8.2-5,8.2l-10.1-5
		c-2.2,4.6-4.1,7.4-5.6,8.1c-5-2-8.6-4.5-10.7-7.6c1.8-5.8,3.5-8.8,5-8.8h0.7l9.4,4.4C399.4,162.8,401.3,160.3,402.3,160.1z
		 M440,172h0.6c9.2,7.6,13.8,12,13.8,13.3c-2.9,0.6-4.4,1.2-4.4,1.8c0,2.5,2.9,8.2,8.8,17l1.8,6.3v7.6c0,8.1-5.5,16.9-16.4,26.4
		l-0.6,7.6c1.5,13.4,8.2,20.1,20.1,20.1c13.1,0,29-10.5,47.8-31.5l5.6-7.6v-1.9l-1.8-1.8h-0.7c-5.1,1.7-11.2,2.9-18.2,3.8
		c-8.4,0-12.6-4.8-12.6-14.5c2.2-12.1,7.2-18.2,15.1-18.2c5.3,0,11.7,4.6,19.5,13.8h0.7c3.6-1.3,10.3-6.2,20.1-14.5h2.5
		c0,2.1,0.4,3.2,1.3,3.2l-0.7,3.1c2.1,7.6,5.9,11.3,11.3,11.3h1.9c10.1,0,17.8-7.1,23.2-21.4l1.9-1.3l1.3,1.9l-2.5,6.9
		c2.6,5,6.4,7.6,11.3,7.6h3.1c2.2,0,3.4-0.6,3.8-1.8v-1.3l-3.1-7.6c1.2-5.5,2.2-8.2,3.1-8.2c2,0,4.1,5,6.3,15.1
		c0,9.5-4,14.9-11.9,16.4H591c-5.5,0-10.6-2.5-15.1-7.6h-0.7c-6.8,8.8-12.8,13.3-18.2,13.3h-4.4c-7,0-11.9-4.8-14.4-14.5h-0.7
		c-2.5,0-7.3,3.8-14.4,11.3c0,11.9-4.4,21.7-13.3,29.6c-17.7,19.3-33.2,28.9-46.6,28.9c-6.5,0-13-3.6-19.5-10.7l-4.4-13.8l0.7-11.3
		h-1.3c-27.2,20.6-49,31.5-65.4,32.7c-9.5,3-15.7,4.4-18.9,4.4v-0.7c1.2-1.6,12.1-7,32.7-16.4c24.9-14.1,42.9-26.1,54.1-35.8
		c9.6-6.9,14.4-12.3,14.4-16.4c-8.3-14.3-14.3-26.4-18.2-36.5C438.1,174.7,439,172,440,172z M287.8,172.7h1.8c5.5,4,8.2,7.1,8.2,9.5
		c0,2.3-1.9,5.1-5.7,8.1h-0.6c-1.7,0-4.9-2.9-9.5-8.8C283.2,177.8,285.1,174.9,287.8,172.7z M414.8,181.5l1.3,1.3
		c0,4.6-3.4,12.3-10.1,23.2v0.7c0.1,0.9,2.8,3,8.1,6.3c3.4,3.9,5,7.5,5,10.7c0,11.7-5.5,19.7-16.4,23.9L396,250
		c-4.8,0-7.7-3.6-8.8-10.7v-4.4c0-4.1,1.7-10.8,5-20.1c0-1.3-5.5-6.4-16.4-15.1l-1.3-9.4c0.4-2.1,1.2-3.2,2.5-3.2
		c10.5,4.4,15.7,6.9,15.7,7.6v0.7c0,0.8-0.6,1.3-1.8,1.3l-0.7,0.6v0.7c4,3.7,6.7,5.6,8.2,5.6c2.6-1.8,7.9-9.1,15.7-22H414.8z
		 M227.9,185.8c10.9,0.9,16.4,3,16.4,6.3c-5.3,9.2-11,13.8-16.9,13.8c0,0.8-1.1,1.3-3.2,1.3l-1.3-1.3l10.7-8.1c0-1.3-2.3-1.9-7-1.9
		h-5.6c-1.4,0-3.5,1.1-6.3,3.2v-1.3C214.8,192.4,219.2,188.4,227.9,185.8z M105.9,213.5c0,9.2,3.8,17.8,11.3,25.8
		c6.5,6.3,15.9,9.4,28.4,9.4c14.3,0,28.8-9.2,43.4-27.7c3.4-5.8,5-10,5-12.6v-0.6c0-7.8-5-13.3-15.1-16.4l-11.9-1.3l-30.9,1.8h-3.8
		c-5.8,0-12.5-1.7-20.1-5C109,187.1,106.9,195.9,105.9,213.5z M299.7,187.8h0.7c4.4,3.6,7.5,7,9.4,10.1c-2.7,5.4-5,8.1-6.9,8.1
		l-8.2-6.3h-1.3l-6.3,6.3h-1.8c-4.9-3-7.9-5.3-8.8-6.9v-0.7c1.4-5.9,3.7-8.8,6.9-8.8l8.8,5L299.7,187.8z M172.6,202.2h0.7v3.2
		c-1.5,1.9-17.6,10.1-48.5,24.5v-3.1C132.5,220.2,148.5,212,172.6,202.2z M492.2,216.7v1.3c0.3,1.2,2,1.8,5,1.8h4.4
		c2.1,0,3.4-0.6,3.8-1.8V216c-3.1-1.7-5.8-2.5-8.1-2.5C495.1,213.5,493.4,214.6,492.2,216.7z M391.5,233.7c1.5,2.5,2.9,3.8,4.4,3.8
		c6.2,0,12-3.6,17.6-10.7c-1.2-2.7-5.4-5.6-12.6-8.8h-0.7C395.6,219,392.6,224.3,391.5,233.7z M589.8,238.7l0.6,0.7h0.7
		c-2.2,9.6-4.5,14.4-7,14.4l-6.9-0.6l-8.8,4.4l-5-2.5h-3.2l-3.8,1.3l-3.1-0.6c-1.3,0-3.8,2.7-7.6,8.1c-9.5,6.3-15.6,9.5-18.3,9.5
		l-0.6-0.7v-1.3c2.8-0.7,12.9-7.9,30.2-21.4l5.6-1.8l8.8,2.5c2.1,0,4.8-2.5,8.2-7.6h0.6c0,2.5,1.9,3.8,5.7,3.8
		C587.7,241.8,589,239,589.8,238.7z M330.5,250h1.3c2.1,1,3.1,3,3.1,6.3c0,6-4,12.1-11.9,18.3h-1.9v-0.7l10.1-12.6v-2.5l-1.8-1.8
		h-0.7l-2.5,1.8l-0.6-0.6h-0.7C326.1,254.3,328,251.5,330.5,250z M281.5,255.7h0.6c-1.5,7.6-3.6,11.3-6.3,11.3h-4.4l-7,2.5l-7.6-1.9
		h-0.6c-3.2,0-11,4.6-23.3,13.8l-8.8,3.8l-0.6-0.6V284c13.9-11.4,24.8-18.7,32.7-22l2.5-0.7l6.3,1.9h0.6c2.1,0,4.6-1.7,7.6-5
		c0.8,0,1.3,0.6,1.3,1.8h3.2L281.5,255.7z"/>
</g>
</svg>
