<?xml version="1.0" encoding="utf-8"?>
<!-- Generator: Adobe Illustrator 25.2.3, SVG Export Plug-In . SVG Version: 6.00 Build 0)  -->
<svg version="1.1" xmlns="http://www.w3.org/2000/svg" xmlns:xlink="http://www.w3.org/1999/xlink" x="0px" y="0px"
	 viewBox="0 0 700 395" style="enable-background:new 0 0 700 395;" xml:space="preserve">
<style type="text/css">
	.st0{fill:#000222;}
	.st1{fill:#FFFFFF;}
</style>
<g id="Layer_1">
	<rect class="st0" width="700" height="395"/>
</g>
<g id="Layer_3">
	<g>
		<path class="st1" d="M273.5,368.6l1.1,4.2c0.2,0.9,0.5,1.8,0.6,2.6h0.1c0.2-0.8,0.5-1.7,0.7-2.6l1.3-4.2h1.3l1.3,4.1
			c0.3,1,0.5,1.9,0.7,2.7h0.1c0.1-0.8,0.4-1.7,0.6-2.7l1.2-4.1h1.5l-2.7,8.2H280l-1.3-3.9c-0.3-0.9-0.5-1.7-0.7-2.7h0
			c-0.2,1-0.5,1.8-0.7,2.7l-1.3,3.9h-1.4l-2.5-8.2H273.5z"/>
		<path class="st1" d="M286.3,368.6l1.1,4.2c0.2,0.9,0.5,1.8,0.6,2.6h0.1c0.2-0.8,0.5-1.7,0.7-2.6l1.3-4.2h1.3l1.3,4.1
			c0.3,1,0.5,1.9,0.7,2.7h0.1c0.1-0.8,0.4-1.7,0.6-2.7l1.2-4.1h1.5l-2.7,8.2h-1.4l-1.3-3.9c-0.3-0.9-0.5-1.7-0.7-2.7h0
			c-0.2,1-0.5,1.8-0.7,2.7l-1.3,3.9h-1.4l-2.5-8.2H286.3z"/>
		<path class="st1" d="M299,368.6l1.1,4.2c0.2,0.9,0.5,1.8,0.6,2.6h0.1c0.2-0.8,0.5-1.7,0.7-2.6l1.3-4.2h1.3l1.3,4.1
			c0.3,1,0.5,1.9,0.7,2.7h0.1c0.1-0.8,0.4-1.7,0.6-2.7l1.2-4.1h1.5l-2.7,8.2h-1.4l-1.3-3.9c-0.3-0.9-0.5-1.7-0.7-2.7h0
			c-0.2,1-0.5,1.8-0.7,2.7l-1.3,3.9h-1.4l-2.5-8.2H299z"/>
		<path class="st1" d="M309.9,375.9c0-0.6,0.4-1.1,1-1.1c0.6,0,1,0.4,1,1.1c0,0.6-0.4,1.1-1,1.1C310.3,377,309.9,376.5,309.9,375.9z
			"/>
		<path class="st1" d="M313.5,375.3c0.4,0.3,1.2,0.6,2,0.6c1.1,0,1.6-0.5,1.6-1.2c0-0.7-0.4-1.1-1.5-1.5c-1.5-0.5-2.2-1.3-2.2-2.3
			c0-1.3,1.1-2.4,2.8-2.4c0.8,0,1.6,0.2,2,0.5l-0.4,1.1c-0.3-0.2-0.9-0.5-1.7-0.5c-0.9,0-1.4,0.5-1.4,1.1c0,0.7,0.5,1,1.6,1.4
			c1.4,0.5,2.2,1.3,2.2,2.5c0,1.4-1.1,2.5-3.1,2.5c-0.9,0-1.7-0.2-2.3-0.6L313.5,375.3z"/>
		<path class="st1" d="M327.4,374.6c0,0.9,0,1.6,0.1,2.2h-1.3l-0.1-1.3h0c-0.4,0.7-1.3,1.5-2.7,1.5c-1.3,0-2.8-0.7-2.8-3.6v-4.8h1.5
			v4.6c0,1.6,0.5,2.6,1.8,2.6c1,0,1.7-0.7,2-1.4c0.1-0.2,0.1-0.5,0.1-0.8v-5h1.5V374.6z"/>
		<path class="st1" d="M329.8,371.1c0-1,0-1.8-0.1-2.6h1.3l0.1,1.6h0.1c0.4-1.1,1.3-1.8,2.3-1.8c0.2,0,0.3,0,0.4,0.1v1.4
			c-0.2,0-0.3-0.1-0.5-0.1c-1.1,0-1.8,0.8-2,1.9c0,0.2-0.1,0.4-0.1,0.7v4.4h-1.5V371.1z"/>
		<path class="st1" d="M339.9,376.8l-0.1-1h-0.1c-0.5,0.6-1.3,1.2-2.5,1.2c-1.7,0-2.5-1.2-2.5-2.4c0-2,1.8-3.1,4.9-3.1v-0.2
			c0-0.7-0.2-1.9-1.9-1.9c-0.8,0-1.6,0.2-2.1,0.6l-0.3-1c0.7-0.4,1.7-0.7,2.7-0.7c2.5,0,3.1,1.7,3.1,3.4v3.1c0,0.7,0,1.4,0.1,2
			H339.9z M339.7,372.6c-1.6,0-3.5,0.3-3.5,1.9c0,1,0.6,1.4,1.4,1.4c1.1,0,1.8-0.7,2-1.4c0.1-0.2,0.1-0.3,0.1-0.5V372.6z"/>
		<path class="st1" d="M343.5,364.7h1.5v5.1h0c0.2-0.4,0.6-0.8,1.1-1.1c0.4-0.3,1-0.4,1.5-0.4c1.1,0,2.9,0.7,2.9,3.5v4.9H349v-4.7
			c0-1.3-0.5-2.4-1.9-2.4c-1,0-1.7,0.7-2,1.5c-0.1,0.2-0.1,0.4-0.1,0.7v5h-1.5V364.7z"/>
		<path class="st1" d="M358.6,375.5L358.6,375.5c-0.5,0.8-1.4,1.5-2.7,1.5c-1.9,0-3.5-1.7-3.5-4.2c0-3.1,2-4.4,3.7-4.4
			c1.3,0,2.1,0.6,2.5,1.4h0l0.1-1.2h1.4c0,0.7-0.1,1.4-0.1,2.3v9.3h-1.5V375.5z M358.6,371.9c0-0.2,0-0.4-0.1-0.6
			c-0.2-0.9-1-1.7-2.1-1.7c-1.5,0-2.5,1.3-2.5,3.2c0,1.6,0.8,3.1,2.4,3.1c1,0,1.8-0.6,2.1-1.6c0.1-0.2,0.1-0.5,0.1-0.7V371.9z"/>
		<path class="st1" d="M369.4,374.6c0,0.9,0,1.6,0.1,2.2h-1.3l-0.1-1.3h0c-0.4,0.7-1.3,1.5-2.7,1.5c-1.3,0-2.8-0.7-2.8-3.6v-4.8h1.5
			v4.6c0,1.6,0.5,2.6,1.8,2.6c1,0,1.7-0.7,2-1.4c0.1-0.2,0.1-0.5,0.1-0.8v-5h1.5V374.6z"/>
		<path class="st1" d="M371.9,371.1c0-1,0-1.8-0.1-2.6h1.3l0.1,1.6h0.1c0.4-1.1,1.3-1.8,2.3-1.8c0.2,0,0.3,0,0.4,0.1v1.4
			c-0.2,0-0.3-0.1-0.5-0.1c-1.1,0-1.8,0.8-2,1.9c0,0.2-0.1,0.4-0.1,0.7v4.4h-1.5V371.1z"/>
		<path class="st1" d="M381.9,376.8l-0.1-1h-0.1c-0.5,0.6-1.3,1.2-2.5,1.2c-1.7,0-2.5-1.2-2.5-2.4c0-2,1.8-3.1,4.9-3.1v-0.2
			c0-0.7-0.2-1.9-1.9-1.9c-0.8,0-1.6,0.2-2.1,0.6l-0.3-1c0.7-0.4,1.7-0.7,2.7-0.7c2.5,0,3.1,1.7,3.1,3.4v3.1c0,0.7,0,1.4,0.1,2
			H381.9z M381.7,372.6c-1.6,0-3.5,0.3-3.5,1.9c0,1,0.6,1.4,1.4,1.4c1.1,0,1.8-0.7,2-1.4c0.1-0.2,0.1-0.3,0.1-0.5V372.6z"/>
		<path class="st1" d="M385.6,370.8c0-0.9,0-1.5-0.1-2.2h1.3l0.1,1.4h0c0.4-0.8,1.4-1.5,2.7-1.5c1.1,0,2.9,0.7,2.9,3.5v4.9h-1.5
			v-4.7c0-1.3-0.5-2.4-1.9-2.4c-1,0-1.8,0.7-2,1.5c-0.1,0.2-0.1,0.4-0.1,0.7v4.9h-1.5V370.8z"/>
		<path class="st1" d="M394.6,375.9c0-0.6,0.4-1.1,1-1.1c0.6,0,1,0.4,1,1.1c0,0.6-0.4,1.1-1,1.1C395,377,394.6,376.5,394.6,375.9z"
			/>
		<path class="st1" d="M404.4,376.5c-0.4,0.2-1.3,0.5-2.4,0.5c-2.5,0-4.1-1.7-4.1-4.2c0-2.5,1.7-4.4,4.4-4.4c0.9,0,1.7,0.2,2.1,0.4
			l-0.3,1.2c-0.4-0.2-0.9-0.4-1.7-0.4c-1.9,0-2.9,1.4-2.9,3.1c0,1.9,1.2,3.1,2.9,3.1c0.8,0,1.4-0.2,1.8-0.4L404.4,376.5z"/>
		<path class="st1" d="M413.5,372.6c0,3-2.1,4.4-4.1,4.4c-2.2,0-3.9-1.6-3.9-4.2c0-2.8,1.8-4.4,4.1-4.4
			C411.9,368.4,413.5,370.1,413.5,372.6z M406.9,372.7c0,1.8,1,3.2,2.5,3.2c1.4,0,2.5-1.3,2.5-3.2c0-1.4-0.7-3.2-2.5-3.2
			S406.9,371.1,406.9,372.7z"/>
		<path class="st1" d="M415.4,370.8c0-0.9,0-1.5-0.1-2.2h1.3l0.1,1.3h0.1c0.5-0.8,1.2-1.5,2.6-1.5c1.1,0,2,0.7,2.3,1.6h0
			c0.3-0.5,0.6-0.8,0.9-1.1c0.5-0.4,1-0.6,1.8-0.6c1.1,0,2.7,0.7,2.7,3.6v4.8h-1.5v-4.7c0-1.6-0.6-2.5-1.8-2.5
			c-0.9,0-1.5,0.6-1.8,1.4c-0.1,0.2-0.1,0.5-0.1,0.7v5.1h-1.5v-4.9c0-1.3-0.6-2.3-1.7-2.3c-0.9,0-1.6,0.7-1.9,1.5
			c-0.1,0.2-0.1,0.5-0.1,0.7v5h-1.5V370.8z"/>
	</g>
</g>
<g id="Layer_4">
	<path class="st1" d="M294.3,107.1c1.4,0.4,5.6,10.2,12.7,29.6c0,0.8-0.6,1.2-1.9,1.2l-3.6-2.4l-0.6,0.6h-0.6
		c8.1,52.3,12.1,82.6,12.1,90.7c0,11.6-4.8,19.9-14.5,24.8l-3.6,0.6c-7.7,0-14.4-4-19.9-12.1c-7.1,9.7-15.2,14.5-24.2,14.5
		c-7.3-1.9-12.4-5.5-15.2-10.9c-2.8-7.2-5.4-19.7-7.8-37.5l-0.6-0.6H226c-3.8,11.7-8.5,17.6-14,17.6c-1.5,0-2.9,5.6-4.2,16.9
		c-0.9,6.8-10.9,15.6-30.2,26.6c-10.3,4.4-20.8,6.6-31.5,6.6c-15.8-3.7-23.6-8.7-23.6-15.1c-3.2-5.1-4.8-10.8-4.8-17
		c0-6.2,2.2-15.1,6.7-26.5l-4.3-16.4l0.6-0.6v-2.4l-0.6-0.6l0.6-0.6V193c0-7.4,2.8-19.1,8.5-35.1h0.6c0.8,0,1.2,0.6,1.2,1.8
		c-4,15.1-6,26.2-6,33.2s1.8,11.7,5.5,14h1.2c1.1,0,2.5-2.6,4.2-7.8h0.6l1.2,1.2c0,8.7-3.6,14.8-10.9,18.1
		c-2.4,5.5-3.6,9.3-3.6,11.5v6c0,11.7,5.8,19.6,17.5,23.6l6.7,1.2h6.6c16.3,0,33-8.1,50.2-24.2l0.6-3.1v-3c0-1.7-2.6-8.7-7.8-21.2
		l1.8-7.3h1.2c3.4,5.5,6.1,8.7,7.9,9.7h4.2c5.1,0,9.5-6.2,13.3-18.7l0.6-0.6h1.8c3.1,0,5.9,11.9,8.5,35.7
		c3.4,9.7,8.9,14.5,16.4,14.5h3c4.7,0,10.2-3.4,16.4-10.3c0.4-2.7,2.6-5.7,6.6-9h0.6c0,10.9,4.6,16.3,13.9,16.3h3.1
		c5.4,0,8.8-1.4,10.2-4.2v-7.9c-7.3-47.4-12.5-84.1-15.7-110.1C292.3,110.5,293.5,107.1,294.3,107.1z M325.8,108.3h1.2
		c1.4,1.2,5.8,11.9,13.3,32l-0.6,1.9c-1.6,0-3.4-1-5.5-3.1h-0.6v5.5c6.5,52.6,9.7,82.8,9.7,90.7c-1.6,12.1-3.4,18.1-5.5,18.1
		l-0.6-0.6v-3c0-12.2-3.6-46.9-10.9-104c-1.3-14.1-2.6-23.2-3.6-27.3L325.8,108.3z M265.3,108.9c2.8,1.8,4.3,3.8,4.3,6v1.9l-1.2,1.2
		l-4.3-1.9h-1.8c-1.4,0-2.4,7.7-3.1,23c-0.5,0-0.9,1.2-1.2,3.6h-1.8c-3.8-11.7-9.1-17.5-15.7-17.5c-1.6-1.1-2.4-2.6-2.4-4.3v-1.2
		c0-2.2,0.8-3.5,2.4-4.2h0.6c3.7,0,8.8,4.8,15.2,14.5h1.2v-0.6C257.5,115.7,260.1,108.9,265.3,108.9z M508.5,111.9h3.1
		c2.8,1.8,4.2,3.8,4.2,6v1.2c0,2.1-0.6,3.3-1.8,3.6h-0.6l-4.2-3.6h-1.9c-2,0-3,3-3,9v3.6l0.6,0.6l-0.6,0.6v2.4
		c0,9.6-1.2,14.9-3.6,15.7c-5.3-11.3-10.7-16.9-16.4-16.9l-5.4-5.4v-1.2c0-2.6,0.8-4.5,2.4-5.5c4.5,0,10.3,5.1,17.5,15.2h1.9
		C500.7,123.3,503.3,114.8,508.5,111.9z M168,112.5c3.6,1.9,5.4,4.1,5.4,6.7v1.2l-1.8,1.8l-6-1.8c-1.2,0-1.9,2.2-1.9,6.6v4.8
		l0.6,0.6l-4.8,29.6c0.5,7.7,2.7,11.5,6.6,11.5c1-2.4,1.8-3.6,2.4-3.6h0.6v1.2c0,4.2-1.6,7.4-4.8,9.7h-1.2
		c-4.5-2.6-6.7-7.5-6.7-14.5l2.4-16.9c0-4.5-3.4-10.4-10.2-17.6c-7.3,0-10.9-2.4-10.9-7.3c0.8-4,2-6,3.6-6
		c5.3,2.2,11.6,8.2,18.7,18.1h0.6V127C162.3,117.3,164.7,112.5,168,112.5z M552.7,112.5h3c2.8,1.8,4.3,6,4.3,12.7v4.8l4.2,5.4v3.1
		c0,0.8-0.6,1.2-1.8,1.2l-5.5-2.4c-17.6,17.2-32.3,27.1-44.1,29.6h-1.9c0.5-1.1,7.6-6,21.2-14.5c5.5-3,12.4-8.6,20.6-16.9
		c-4.5-4.6-6.7-7.8-6.7-9.7C546,120.5,548.2,116,552.7,112.5z M379.7,114.3c2.4,1.1,3.6,3.5,3.6,7.3l-0.6,9c4,4.2,6,7.3,6,9.1
		l-0.6,2.4h-1.9c-2.8-2.4-5.1-3.6-6.6-3.6H379c-10.6,10.9-17.4,16.3-20.6,16.3c-0.2,1.1-4.2,3.1-12.1,6h-0.6v-0.6
		c0.5-1.1,7.9-6.6,22.3-16.4l7.3-7.8c-2.6-3.4-4.2-6.4-4.8-9.1C372.4,118.6,375.4,114.3,379.7,114.3z M210.9,115.6l0.6,0.6h0.6
		c-2.4,6.2-4.8,15.5-7.3,27.8c0.7,10.5,3.1,15.7,7.3,15.7l3.6-6h1.2v1.2h0.6c-2.2,9.3-5,14-8.5,14c-5.6-3.1-8.5-8.7-8.5-16.9v-1.2
		c0-7.1,3.2-18.8,9.7-35.1H210.9z M458.9,115.6l0.6,0.6v0.6c0,3.9-4,7.7-12.1,11.5l-42.3,25.4h-0.6v-2.4c0-2.5,3.8-5.8,11.5-9.7
		L458.9,115.6z M549.6,121.6v1.8c1.8,2.8,3.8,4.3,6,4.3h0.6l0.6-3.1c0-1.6-1.2-3.4-3.6-5.4H552L549.6,121.6z M374.8,124v1.2
		c1,1.7,2.4,2.9,4.2,3.6l0.6-0.6V124c0-1-0.8-1.6-2.4-1.9C375.6,122.8,374.8,123.4,374.8,124z M271.4,151.2h1.2l4.3,14v1.2
		c-0.9,5.2-3.5,7.8-7.9,7.8l-6-1.8c-1.7,2.3-3.5,3.9-5.4,4.8h-4.3c-1.6,0-3-2.6-4.2-7.9c0.8-6.8,1.6-10.2,2.4-10.2h0.6v6.6
		c0,2.2,1,3.8,3.1,4.8h0.6c4,0,6-1.8,6-5.4l-0.6-8.5l1.8-2.4c0.6,0,1.7,3.6,3.1,10.9c2.4,1.6,4.4,2.4,6,2.4l0.6-0.6v-1.2
		c-2-3.8-2.9-7.2-2.8-10.1S270.4,151.2,271.4,151.2z M466.1,154.3v0.6l-1.2,7.9v3.6c0.8,4.4,2.8,6.6,6,6.6c1-2.8,1.8-4.2,2.4-4.2
		h0.6c0,7.6-2,11.5-6,11.5c-4-1.8-6-6-6-12.7C461.9,162.8,463.3,158.4,466.1,154.3z M556.9,157.3v1.2c-1.2,2.1-1.8,4.1-1.8,6v5.5
		c1.3,2.8,2.3,4.2,3,4.2h1.9c0.9,0,1.5-1,1.8-3h1.2v0.6c-0.7,6.5-2.7,9.7-6,9.7c-2.6,0-4.2-3.8-4.8-11.5
		C553.8,161.5,555.4,157.3,556.9,157.3z M388.7,157.9c2.3,1,5.4,3.6,9.1,7.8v1.2c0,2.6-1.6,5.2-4.8,7.9h-1.2l-7.3-5.5
		c-1.1,0-2.9,2.4-5.5,7.3l-1.8,0.6c-3.4-1.1-6.6-4-9.7-8.5c0-2.8,2-5.4,6-7.9l7.3,4.3h1.2L388.7,157.9z M424.4,170.6h1.8
		c0,0.8,3.6,4.7,10.9,11.5l0.6,0.6v2.4h-4.3v0.6c0,1.3,3,7.3,9.1,18.1l1.2,8.5c0,9.7-5.2,18.6-15.7,26.6c-1.2,1.5-1.9,3.3-1.9,5.4
		v4.3c1.7,12.5,7.8,18.7,18.1,18.7h0.6c11.1,0,22.6-5.6,34.4-16.9c7.2-5.5,13.2-11.7,18.1-18.7v-1.9c0-1-0.8-1.6-2.4-1.8
		c-8.4,1.6-14.4,2.4-18.1,2.4c-7.3-1.6-10.9-5.2-10.9-10.9v-1.2c0-10.1,4.7-16.6,14-19.4c5.3,0,11.5,4.4,18.7,13.3l1.9,0.6
		c3-0.9,9.2-5.1,18.7-12.7h1.2v-0.6c2,0,3.1,3.6,3.1,10.9c3.1,4.5,7.7,6.7,13.9,6.7h0.6c7.9,0,14.5-6.5,19.9-19.4l1.9-1.2h1.2v0.6
		l-2.4,7.9v0.6c0,2.7,4.2,5,12.7,6.7c3.7-0.4,5.5-1.2,5.5-2.4l-3.1-7.9l1.9-7.8h1.8c1.5,0,3.1,4,4.8,12.1v1.8
		c-1,10.9-5.1,16.4-12.1,16.4h-0.6c-4.5,0-9.6-2.6-15.2-7.9h-1.2c-5,8.1-11,12.1-18.1,12.1h-1.2c-7.4,0-12.4-4.2-15.1-12.7
		c0-1.2-0.4-1.9-1.2-1.9h-1.2c-8.9,5.8-13.3,10.1-13.3,12.7c0,14.8-13.3,30.8-39.9,47.7c-7.4,3.2-13.5,4.8-18.1,4.8
		c-9.6,0-16.6-5.2-21.2-15.7l-1.8-10.9l0.6-8.5H422c-1.2,0-6.8,3.4-16.9,10.3c-14.3,9.8-26.4,15.6-36.3,17.5l-27.8,5.5h-0.6V277
		c0.9-1.9,9.9-5.9,27.3-12.1c0.2-0.7,9.7-6.1,28.4-16.3c16.1-9.2,30.2-20.1,42.3-32.7v-1.9c0-1.4-4-9.2-12.1-23.6
		c-2.8-6.6-4.2-10.9-4.2-12.7C422.5,173,423.3,170.6,424.4,170.6z M399,179h0.6l0.6,0.6h0.6c0,4.7-3.2,12.1-9.7,22.3v1.9
		c8.1,4,12.1,9.6,12.1,16.9c0,11.3-7.4,19-22.3,23h-1.2c-4.1,0-6.7-2.8-7.9-8.5c0-9,1.8-17.5,5.5-25.4
		c-10.9-9.9-16.4-15.9-16.4-18.1v-6c0-1,0.8-1.6,2.4-1.9c10.1,4.1,15.2,6.6,15.2,7.3v1.2l-2.4,0.6v1.8c2.7,2.8,5.1,4.3,7.3,4.3h0.6
		C388.1,195.4,393.2,188.7,399,179z M281.7,190.6h1.2c1,0,3.8,2.6,8.5,7.8v0.6c-1.8,5.2-4,7.8-6.7,7.8l-7.3-5.4
		c-2.2,0-4.4,2.2-6.6,6.6h-1.9c-5.5-2.9-8.7-5.5-9.7-7.8c2.4-5.6,4.7-8.5,6.7-8.5l7.8,5.4h1.9L281.7,190.6z M163.1,194.8
		c2.2,0.8,5.4,3.6,9.7,8.5v0.6c0,3.4-1.4,6.2-4.3,8.5h-1.2c-6-4.1-9-7.7-9-10.9C159.6,198.7,161.2,196.5,163.1,194.8z M477,211.7
		l-3.6,3.6v0.6c0.4,1.2,1.6,1.8,3.6,1.8h7.3l3.1-0.6C487.4,213.5,483.9,211.7,477,211.7z M376.1,226.2v0.6c0,2.7,1.4,4.5,4.2,5.4
		c5.8,0,11.5-3.2,16.9-9.7c0-2.6-4.4-5.6-13.3-9h-0.6C378.9,218.1,376.5,222.3,376.1,226.2z M161.9,220.8h1.2l-1.9,10.2
		c0.9,5.6,2.7,8.5,5.5,8.5c1.2-0.4,1.8-1.6,1.8-3.6h0.6l0.6,0.6h0.6c-1.9,6.3-3.5,9.6-4.8,9.7h-1.9c-3.6-2.2-5.4-6.4-5.4-12.7
		L161.9,220.8z M567.8,239.5h0.6v1.2c-1.4,8.1-4,12.1-7.9,12.1l-5.4-1.2c-2.2,2-5,3.5-8.5,4.3l-6.7-2.4h-3.6
		c-6.3,3.4-12.7,7.9-19.4,13.3l-9.7,3.6h-1.2v-0.6L537,248c2.8,0,4.2-0.4,4.2-1.2l5.5,2.4h3c2.6,0,5.5-2.2,8.5-6.6
		c0.8,2.4,2.4,3.6,4.8,3.6h0.6c1.2,0,2-1.8,2.4-5.5L567.8,239.5z M320.4,249.2h1.8c1.6,0.8,2.4,2,2.4,3.6
		c-2.4,12.1-6.5,18.1-12.1,18.1v-0.6l8.5-11.5v-1.2l-1.8-1.8l-2.4,1.2v-1.2C318,251.4,319.2,249.2,320.4,249.2z M301,260.1v1.2
		c0,3.7-6,6.9-18.1,9.7c-3.1,1.6-11.5,4.4-25.4,8.5v-1.2h-0.6c0-3.7,7.3-7.1,21.8-10.2C290.6,262.7,298.1,260.1,301,260.1z
		 M233.3,267.3c1.8,0.4,4.8,3,9,7.9c-0.8,3-2.6,5.4-5.4,7.3l-9.7-4.8h-0.6c-0.7,0-2.5,2.2-5.4,6.6h-1.9c-6-3.9-9-6.9-9-9v-0.6
		c2.3-4,3.9-6.2,4.8-6.6c1.3,0,4.4,1.8,9,5.4l1.9,0.6l5.4-6L233.3,267.3z M198.8,269.8h0.6l0.6,0.6h0.6c0,3.7-9.1,8.3-27.3,13.9
		c0,1.1-3,2.3-9,3.6v-1.2h-0.6c0-3,8.9-7.4,26.6-13.3C194.6,271,197.4,269.8,198.8,269.8z"/>
</g>
</svg>
