<?xml version="1.0" encoding="utf-8"?>
<!-- Generator: Adobe Illustrator 25.2.3, SVG Export Plug-In . SVG Version: 6.00 Build 0)  -->
<svg version="1.1" xmlns="http://www.w3.org/2000/svg" xmlns:xlink="http://www.w3.org/1999/xlink" x="0px" y="0px"
	 viewBox="0 0 700 395" style="enable-background:new 0 0 700 395;" xml:space="preserve">
<style type="text/css">
	.st0{fill:#000222;}
	.st1{fill:#FFFFFF;}
</style>
<g id="Layer_1">
	<rect class="st0" width="700" height="395"/>
</g>
<g id="Layer_3">
	<g>
		<path class="st1" d="M273.5,368.6l1.1,4.2c0.2,0.9,0.5,1.8,0.6,2.6h0.1c0.2-0.8,0.5-1.7,0.7-2.6l1.3-4.2h1.3l1.3,4.1
			c0.3,1,0.5,1.9,0.7,2.7h0.1c0.1-0.8,0.4-1.7,0.6-2.7l1.2-4.1h1.5l-2.7,8.2H280l-1.3-3.9c-0.3-0.9-0.5-1.7-0.7-2.7h0
			c-0.2,1-0.5,1.8-0.7,2.7l-1.3,3.9h-1.4l-2.5-8.2H273.5z"/>
		<path class="st1" d="M286.3,368.6l1.1,4.2c0.2,0.9,0.5,1.8,0.6,2.6h0.1c0.2-0.8,0.5-1.7,0.7-2.6l1.3-4.2h1.3l1.3,4.1
			c0.3,1,0.5,1.9,0.7,2.7h0.1c0.1-0.8,0.4-1.7,0.6-2.7l1.2-4.1h1.5l-2.7,8.2h-1.4l-1.3-3.9c-0.3-0.9-0.5-1.7-0.7-2.7h0
			c-0.2,1-0.5,1.8-0.7,2.7l-1.3,3.9h-1.4l-2.5-8.2H286.3z"/>
		<path class="st1" d="M299,368.6l1.1,4.2c0.2,0.9,0.5,1.8,0.6,2.6h0.1c0.2-0.8,0.5-1.7,0.7-2.6l1.3-4.2h1.3l1.3,4.1
			c0.3,1,0.5,1.9,0.7,2.7h0.1c0.1-0.8,0.4-1.7,0.6-2.7l1.2-4.1h1.5l-2.7,8.2h-1.4l-1.3-3.9c-0.3-0.9-0.5-1.7-0.7-2.7h0
			c-0.2,1-0.5,1.8-0.7,2.7l-1.3,3.9h-1.4l-2.5-8.2H299z"/>
		<path class="st1" d="M309.9,375.9c0-0.6,0.4-1.1,1-1.1c0.6,0,1,0.4,1,1.1c0,0.6-0.4,1.1-1,1.1C310.3,377,309.9,376.5,309.9,375.9z
			"/>
		<path class="st1" d="M313.5,375.3c0.4,0.3,1.2,0.6,2,0.6c1.1,0,1.6-0.5,1.6-1.2c0-0.7-0.4-1.1-1.5-1.5c-1.5-0.5-2.2-1.3-2.2-2.3
			c0-1.3,1.1-2.4,2.8-2.4c0.8,0,1.6,0.2,2,0.5l-0.4,1.1c-0.3-0.2-0.9-0.5-1.7-0.5c-0.9,0-1.4,0.5-1.4,1.1c0,0.7,0.5,1,1.6,1.4
			c1.4,0.5,2.2,1.3,2.2,2.5c0,1.4-1.1,2.5-3.1,2.5c-0.9,0-1.7-0.2-2.3-0.6L313.5,375.3z"/>
		<path class="st1" d="M327.4,374.6c0,0.9,0,1.6,0.1,2.2h-1.3l-0.1-1.3h0c-0.4,0.7-1.3,1.5-2.7,1.5c-1.3,0-2.8-0.7-2.8-3.6v-4.8h1.5
			v4.6c0,1.6,0.5,2.6,1.8,2.6c1,0,1.7-0.7,2-1.4c0.1-0.2,0.1-0.5,0.1-0.8v-5h1.5V374.6z"/>
		<path class="st1" d="M329.8,371.1c0-1,0-1.8-0.1-2.6h1.3l0.1,1.6h0.1c0.4-1.1,1.3-1.8,2.3-1.8c0.2,0,0.3,0,0.4,0.1v1.4
			c-0.2,0-0.3-0.1-0.5-0.1c-1.1,0-1.8,0.8-2,1.9c0,0.2-0.1,0.4-0.1,0.7v4.4h-1.5V371.1z"/>
		<path class="st1" d="M339.9,376.8l-0.1-1h-0.1c-0.5,0.6-1.3,1.2-2.5,1.2c-1.7,0-2.5-1.2-2.5-2.4c0-2,1.8-3.1,4.9-3.1v-0.2
			c0-0.7-0.2-1.9-1.9-1.9c-0.8,0-1.6,0.2-2.1,0.6l-0.3-1c0.7-0.4,1.7-0.7,2.7-0.7c2.5,0,3.1,1.7,3.1,3.4v3.1c0,0.7,0,1.4,0.1,2
			H339.9z M339.7,372.6c-1.6,0-3.5,0.3-3.5,1.9c0,1,0.6,1.4,1.4,1.4c1.1,0,1.8-0.7,2-1.4c0.1-0.2,0.1-0.3,0.1-0.5V372.6z"/>
		<path class="st1" d="M343.5,364.7h1.5v5.1h0c0.2-0.4,0.6-0.8,1.1-1.1c0.4-0.3,1-0.4,1.5-0.4c1.1,0,2.9,0.7,2.9,3.5v4.9H349v-4.7
			c0-1.3-0.5-2.4-1.9-2.4c-1,0-1.7,0.7-2,1.5c-0.1,0.2-0.1,0.4-0.1,0.7v5h-1.5V364.7z"/>
		<path class="st1" d="M358.6,375.5L358.6,375.5c-0.5,0.8-1.4,1.5-2.7,1.5c-1.9,0-3.5-1.7-3.5-4.2c0-3.1,2-4.4,3.7-4.4
			c1.3,0,2.1,0.6,2.5,1.4h0l0.1-1.2h1.4c0,0.7-0.1,1.4-0.1,2.3v9.3h-1.5V375.5z M358.6,371.9c0-0.2,0-0.4-0.1-0.6
			c-0.2-0.9-1-1.7-2.1-1.7c-1.5,0-2.5,1.3-2.5,3.2c0,1.6,0.8,3.1,2.4,3.1c1,0,1.8-0.6,2.1-1.6c0.1-0.2,0.1-0.5,0.1-0.7V371.9z"/>
		<path class="st1" d="M369.4,374.6c0,0.9,0,1.6,0.1,2.2h-1.3l-0.1-1.3h0c-0.4,0.7-1.3,1.5-2.7,1.5c-1.3,0-2.8-0.7-2.8-3.6v-4.8h1.5
			v4.6c0,1.6,0.5,2.6,1.8,2.6c1,0,1.7-0.7,2-1.4c0.1-0.2,0.1-0.5,0.1-0.8v-5h1.5V374.6z"/>
		<path class="st1" d="M371.9,371.1c0-1,0-1.8-0.1-2.6h1.3l0.1,1.6h0.1c0.4-1.1,1.3-1.8,2.3-1.8c0.2,0,0.3,0,0.4,0.1v1.4
			c-0.2,0-0.3-0.1-0.5-0.1c-1.1,0-1.8,0.8-2,1.9c0,0.2-0.1,0.4-0.1,0.7v4.4h-1.5V371.1z"/>
		<path class="st1" d="M381.9,376.8l-0.1-1h-0.1c-0.5,0.6-1.3,1.2-2.5,1.2c-1.7,0-2.5-1.2-2.5-2.4c0-2,1.8-3.1,4.9-3.1v-0.2
			c0-0.7-0.2-1.9-1.9-1.9c-0.8,0-1.6,0.2-2.1,0.6l-0.3-1c0.7-0.4,1.7-0.7,2.7-0.7c2.5,0,3.1,1.7,3.1,3.4v3.1c0,0.7,0,1.4,0.1,2
			H381.9z M381.7,372.6c-1.6,0-3.5,0.3-3.5,1.9c0,1,0.6,1.4,1.4,1.4c1.1,0,1.8-0.7,2-1.4c0.1-0.2,0.1-0.3,0.1-0.5V372.6z"/>
		<path class="st1" d="M385.6,370.8c0-0.9,0-1.5-0.1-2.2h1.3l0.1,1.4h0c0.4-0.8,1.4-1.5,2.7-1.5c1.1,0,2.9,0.7,2.9,3.5v4.9h-1.5
			v-4.7c0-1.3-0.5-2.4-1.9-2.4c-1,0-1.8,0.7-2,1.5c-0.1,0.2-0.1,0.4-0.1,0.7v4.9h-1.5V370.8z"/>
		<path class="st1" d="M394.6,375.9c0-0.6,0.4-1.1,1-1.1c0.6,0,1,0.4,1,1.1c0,0.6-0.4,1.1-1,1.1C395,377,394.6,376.5,394.6,375.9z"
			/>
		<path class="st1" d="M404.4,376.5c-0.4,0.2-1.3,0.5-2.4,0.5c-2.5,0-4.1-1.7-4.1-4.2c0-2.5,1.7-4.4,4.4-4.4c0.9,0,1.7,0.2,2.1,0.4
			l-0.3,1.2c-0.4-0.2-0.9-0.4-1.7-0.4c-1.9,0-2.9,1.4-2.9,3.1c0,1.9,1.2,3.1,2.9,3.1c0.8,0,1.4-0.2,1.8-0.4L404.4,376.5z"/>
		<path class="st1" d="M413.5,372.6c0,3-2.1,4.4-4.1,4.4c-2.2,0-3.9-1.6-3.9-4.2c0-2.8,1.8-4.4,4.1-4.4
			C411.9,368.4,413.5,370.1,413.5,372.6z M406.9,372.7c0,1.8,1,3.2,2.5,3.2c1.4,0,2.5-1.3,2.5-3.2c0-1.4-0.7-3.2-2.5-3.2
			S406.9,371.1,406.9,372.7z"/>
		<path class="st1" d="M415.4,370.8c0-0.9,0-1.5-0.1-2.2h1.3l0.1,1.3h0.1c0.5-0.8,1.2-1.5,2.6-1.5c1.1,0,2,0.7,2.3,1.6h0
			c0.3-0.5,0.6-0.8,0.9-1.1c0.5-0.4,1-0.6,1.8-0.6c1.1,0,2.7,0.7,2.7,3.6v4.8h-1.5v-4.7c0-1.6-0.6-2.5-1.8-2.5
			c-0.9,0-1.5,0.6-1.8,1.4c-0.1,0.2-0.1,0.5-0.1,0.7v5.1h-1.5v-4.9c0-1.3-0.6-2.3-1.7-2.3c-0.9,0-1.6,0.7-1.9,1.5
			c-0.1,0.2-0.1,0.5-0.1,0.7v5h-1.5V370.8z"/>
	</g>
</g>
<g id="Layer_4">
	<path class="st1" d="M219,106.6v1.2c0,3.4-4.8,6.4-14.3,8.9l-41.6,19.6l-1.2,2.4l5.9,7.7v1.8l-1.7,1.7h-0.6c-4-2.6-6.4-5.6-7.1-8.9
		c0.4-4.6,2.6-8.6,6.6-11.9C198,114.1,216,106.6,219,106.6z M525.6,113.7c4,1.2,5.9,3.3,5.9,6.5v2.4l-1.7,1.8c-2.7-2-4.7-3-5.9-3
		h-0.6c-1.1,0-1.8,1.6-2.4,4.8v10.1c0,6-0.6,11.4-1.7,16h-1.2c-6.5-10.7-11.5-16-14.9-16c-4.8-1.1-7.1-3.3-7.1-6.6v-1.2
		c0-2.1,0.8-3.5,2.4-4.1h1.8c7.6,4.6,12.8,9.5,15.4,14.8h1.7v-4.8c0.7-13.5,3.5-20.2,8.3-20.2V113.7z M568.3,113.7h2.4
		c3.2,1,4.8,6.7,4.8,17.2c0.7,0,2.3,1.8,4.8,5.4c-0.3,2.7-1.1,4.1-2.4,4.1c-2.4-1.6-4.1-2.4-5.3-2.4c-15.7,15.7-28.8,25.2-39.2,28.5
		l-5.4,1.8h-0.6v-0.6c0.5-1.1,3.9-3.5,10.1-7.1c13-8.3,23.1-16.2,30.3-23.8v-1.2c-4-3.6-5.9-6.6-5.9-8.9
		C561.8,121,564,116.7,568.3,113.7z M319.4,116.1c9.9,15.6,14.8,24.5,14.8,26.7v1.2l-1.2,1.2l-4.8-3.6h-1.2l12.5,68.9l1.2,10.7v3.6
		c0,14.4-6.9,23.3-20.8,26.8l-5.3,0.6h-1.2c-6,0-13.1-4.1-21.4-12.4h-1.8c-15.8,8-27.3,13.2-34.5,15.4c-4.3,1.2-8.4,1.7-12.4,1.7
		h-4.2c-17,0-27.9-12.3-32.6-36.8h-0.6c-3.5,4.4-8.2,9-14.3,13.7c-0.7,0.8-1.3,5.7-1.7,14.8c-3,6.9-9.9,14.3-20.8,22
		c-12.9,9.5-25.7,14.3-38.2,14.3s-21.6-7.1-27.2-21.4l-1.7-7.8c0-4.3,1.4-13.6,4.1-27.9c-3.2-6.3-4.8-10.7-4.8-13.1v-8.3
		c2.7-19,5.1-28.5,7.1-28.5l0.6,0.6h0.6c-2.4,7.4-4,15.5-4.8,24.4c0,9.3,2.4,14.9,7.1,16.6h0.6c1.2,0,2.1-2.2,2.9-6.6l0.6-0.6h1.2
		l0.6,1.7c-1.6,10.3-4.5,15.4-8.9,15.4c-1.6,6-2.4,11.3-2.4,16.1v5.3c0,9.2,6.1,16.1,18.4,20.8l7.8,1.2c12.6,0,26.6-6.2,42.1-18.5
		c7.6-6.7,11.3-11.1,11.3-13.1c-0.5-3.2-1.3-4.8-2.4-4.8l-14.9,1.8h-0.6c-7.9-2-11.9-6-11.9-11.9c0-9.9,4.5-16.3,13.6-19
		c5,0,10.9,4.8,17.8,14.3h1.8c9.1-5.3,13.6-9.8,13.6-13.7l-10.7-71.9c1.5-5.8,2.9-9,4.2-9.5h0.6c6.3,30.6,11.3,60.5,14.9,89.7
		c2.3,9.6,5.4,16.5,9.5,20.8c6.2,4.8,12.1,7.1,17.8,7.1h7.1c9.8,0,21.4-4.4,35-13.1c0-3.2-3.7-6.3-11.2-9.5h-2.4l-7.8,2.4h-1.7
		l-0.6-2.4c0-7.1,5.8-11.9,17.3-14.3c3.6-1.6,9.5-2.4,17.8-2.4h5.3c15.3,0.8,23.6,3.2,25,7.1c-1.3,7.9-4,11.9-8.3,11.9
		c-6,3.1-10.3,6.1-13.1,8.9v1.2c4.1,4,8.5,5.9,13.1,5.9c13.5-2,20.2-5.8,20.2-11.2l-19-104C317.5,119.1,318.5,116.1,319.4,116.1z
		 M350.9,116.7c6.1,9.6,11.3,19.9,15.4,30.9v0.6l-0.6,0.6h-1.8c-2.1-2-3.8-2.9-5.3-2.9l15.4,85.6l0.6,10.7c-0.4,7-1.3,12.5-2.9,16.6
		h-0.6c-1.3,0-2.3-6.7-2.9-20.2C363,215.2,356,177.4,347.3,125C348.9,119.4,350.1,116.7,350.9,116.7z M475.6,118.5l0.6,0.6v1.2
		c0,3.4-9.1,10.3-27.3,20.8l-25,16h-0.6l-0.6-2.9c0-2.6,8.3-8.8,25-18.5L475.6,118.5z M396,119h2.4c1.4,0,2.4,2.2,3,6.6v8.9
		c4,4.2,5.9,6.9,5.9,8s-0.6,2.2-1.8,3.4c-3.6-2.4-6-3.6-7.1-3.6l-13.1,12.4l-13.6,7.8h-1.8v-1.2c15.1-11.8,22.6-18.2,22.6-19
		c0.8,0,1.2-1,1.2-3c-2.1-2.7-3.5-5.3-4.1-7.7C389.5,125.9,391.7,121.7,396,119z M248.1,119.7c3.5,1.8,5.3,4.2,5.3,7.1v0.6
		c0,2.1-0.6,3.2-1.7,3.6c-2.4-2.4-4.4-3.6-5.9-3.6l-0.6,0.6v1.2l0.6,11.2c-1,9.1-2.2,13.7-3.6,13.7c-6.1-9.5-11.1-14.3-14.9-14.3
		c-4.3-0.8-6.5-2.8-6.5-5.9v-0.6c0-2.5,1.2-4.3,3.6-5.3c3.2,0,8.9,4.9,17.2,14.8l0.6-0.6v-7.1l-0.6-0.6
		C242.9,124.6,245.1,119.7,248.1,119.7z M565.4,122.6v1.8c1.4,2.4,3.1,3.6,5.3,3.6h1.2v-1.2c0-3.1-1-5-2.9-5.9h-1.8L565.4,122.6z
		 M280.8,120.9h0.6l-1.2,10.7c0,2.5,1.2,4.6,3.6,6.5h2.4c0.3-2,0.8-2.9,1.7-2.9h0.6v1.2c0,3.7-1.6,6.7-4.8,8.9h-1.8
		c-1.6,0-3.2-2.6-4.8-7.7C277.6,127.4,278.8,121.9,280.8,120.9z M393.1,128v0.6c0.8,1.6,2,2.8,3.6,3.6h1.2V128l-1.8-1.8h-1.2
		L393.1,128z M135.8,127.3c3.4,0,5.8,2.6,7.1,7.8v1.2l-1.2,1.2H140c-1.5-1.2-2.9-1.8-4.2-1.8l-1.2,1.2c0,13.1-1.2,20.2-3.6,21.4
		h-1.2c-5-10.7-10.5-16-16.6-16c-1.6-1.1-2.4-2.5-2.4-4.2v-1.7c0.3-2.4,0.9-3.6,1.8-3.6h1.2c3.6,0,9.1,5.1,16.6,15.4h0.6l0.6-3v-2.9
		C131.7,133.7,133,128.7,135.8,127.3z M311.7,142.2c1.3,0.4,2.1,1.2,2.4,2.4c0,4.3-6.1,8.5-18.4,12.4c-12.3,6-22.8,10.5-31.5,13.7
		c-8.2,4.8-16.9,9.1-26.1,13.1l-16.6,8.9h-1.2v-2.4c0-4.8,11.3-12.1,33.9-21.9L311.7,142.2z M484,154.1l0.6,0.6
		c-1.6,2.9-2.4,7.3-2.4,13.1c0,3.6,1.8,5.8,5.3,6.6c1,0,2-1.6,3-4.8h1.2v0.6c-0.6,7.6-2.4,11.3-5.4,11.3c-4.8-1.6-7.1-5.3-7.1-11
		S480.8,159.2,484,154.1z M573.1,156.5h0.6c-2,5.3-3,9-3,11.2c0.7,4.4,2.5,6.6,5.4,6.6l2.4-3l0.6,0.6v0.6c-1.4,6-3.2,9-5.3,9
		c-3.6-1.4-5.4-4.8-5.4-10.1v-1.2C568.3,165.1,569.9,160.6,573.1,156.5z M407.4,161.3c6.3,3.2,9.5,6.1,9.5,8.8
		c0,2.7-1.8,5.3-5.4,7.8l-7.1-4.8h-1.7c-0.8,0.1-2,2-3.6,5.9l-2.4,1.2c-6.3-3.5-9.5-6.1-9.5-7.8c1.6-5.5,3.4-8.3,5.3-8.3l7.8,4.2
		h0.6c1.5-0.7,3.1-2.9,4.8-6.6L407.4,161.3z M305.2,168.4h1.2l-1.2,7.1c0.5,6.3,1.7,9.5,3.6,9.5h0.6c1.2,0,1.8-0.8,1.8-2.4h1.2v1.2
		h0.6c-1.2,5.5-3.2,8.3-5.9,8.3h-0.6c-2.8-2-4.2-4.8-4.2-8.5S303.2,174.9,305.2,168.4z M128.1,168.9h0.6l1.2,1.2l-2.4,10.7
		c0,6.3,1.4,10.1,4.2,11.3h0.6l3-2.4h0.6l0.6,1.7c-0.8,5.5-2.6,8.3-5.4,8.3h-1.2c-3.5-3.2-5.3-7-5.3-11.2L128.1,168.9z M443,172.5
		l13.1,12.5v1.7l-4.2,0.6l10.1,20.8l0.6,3c0,12.5-4.1,21.4-12.4,26.7c-2.8,2.7-4.2,5.5-4.2,8.3v0.6c0,10.3,4,17,11.9,20.2l3.6,0.6
		h4.8c13,0,29.1-10.9,48.2-32.6l1.2-4.2v-0.6l-1.2-1.2h-0.6l-17.2,2.4c-8.3,0-12.5-5.1-12.5-15.4c3-10.3,8.4-15.4,16.1-15.4
		c4.1,0,10.1,4.4,17.8,13.1c1.7,0,8.4-4.4,20.2-13.1h1.2l1.2,1.7v7.1c3.2,5.2,6.7,7.8,10.7,7.8h4.8c6.8,0,13.1-6.5,19-19.6l1.7-1.7
		l1.2,1.2v0.6l-2.4,7.1v0.6c3,4.3,6.7,6.5,11.3,6.5c4-0.3,5.9-0.8,5.9-1.7v-2.4l-3-4.8c0-5.7,1.2-9.1,3.6-10.1c3.2,5,5,9.8,5.4,14.3
		c0,11.1-4,16.6-11.9,16.6h-1.2c-3.9,0-8.7-2.4-14.3-7.1h-0.6c-5.8,8.3-12.2,12.5-19.3,12.5s-12.3-4.4-15.7-13.1v-1.2h-0.6
		c-2.5,0-7.1,3.7-13.6,11.2c0,12.3-6.7,23.7-20.2,34.5c-13.2,12.7-25,19-35.7,19h-3c-13.5-3.1-20.2-10.8-20.2-23.1v-3.6l-0.6-0.6
		l0.6-0.6v-4.2l-1.2-1.2h-0.6c-22.9,16.8-40.4,26.2-52.3,28c-15.7,4-24.8,5.9-27.3,5.9v-0.6c0.4-1.4,9.3-5.6,26.7-12.4l36.8-22
		c14.7-9.3,25.6-18.5,32.7-27.3v-1.2L444.2,191l-3.6-9.5C441,175.5,441.8,172.5,443,172.5z M418.6,182l1.2,1.2
		c-0.3,5.6-3.4,12.7-9.5,21.4v1.2c8.3,6.5,12.5,11.5,12.5,14.9v2.9c0,10.5-6.5,18-19.6,22.6l-2.4,0.6c-4.5,0-7.5-3.4-8.9-10.1v-1.7
		c0-5.4,1.6-12.7,4.8-22c-10.7-9.7-16.1-15.7-16.1-17.8v-2.9c0-3,0.8-4.8,2.4-5.4c8.7,3.4,13.8,5.8,15.4,7.1c-0.7,2-1.7,3-2.9,3v0.6
		c0,1.6,2.6,3.2,7.7,4.8c0.8,0,5.1-5.7,13.1-17.2L418.6,182z M170.9,183.2h0.6c5,2.7,7.9,5.3,9,7.8c-0.8,3.4-2.6,6.3-5.4,8.9
		l-8.3-4.8h-1.2c-3.4,4-5.6,5.9-6.5,5.9c-7.6-2.5-11.3-4.9-11.3-7.1c1.6-5.5,3.2-8.3,4.8-8.3h1.2l10.1,3.6h0.6
		c0.7-0.1,1.9-1.8,3.6-5.3L170.9,183.2z M238,202.2h0.6l0.6,0.6h0.6c-1.2,2.1-1.8,5-1.8,8.6s1.2,6.1,3.6,7.4h0.6
		c0.6,0,1.4-1.2,2.4-3.6h0.6l0.6,0.6v1.2c-1.6,5.9-3.2,8.9-4.8,8.9c-4-1.7-5.9-5.4-5.9-11.2L238,202.2z M491.7,216.5v0.6
		c0,1.3,2.6,2.1,7.7,2.4c4.4-0.5,6.6-1.3,6.6-2.5c0-1.2-2.2-2.3-6.6-3.5h-4.8L491.7,216.5z M396,229.5c0.8,2.7,2.2,4.5,4.2,5.4h0.6
		c4.5,0,9.8-3.2,16.1-9.5v-1.2c-2.3-3.3-6.9-5.9-13.7-7.8C400.1,219,397.8,223.4,396,229.5z M287.3,217.7v0.6c0,3.3,2.2,5.4,6.5,6.5
		h0.6c6.3-2.5,9.5-4.9,9.5-7.1h-0.6l-8.3-0.6h-3.6L287.3,217.7z M164.9,223v0.6c0,1.1,2,1.9,5.9,2.4h1.2l4.1-0.6v-1.8
		c-1.6-2-3.4-2.9-5.3-2.9h-3.6L164.9,223z M136.4,223h1.7l-1.7,12.4v3c0,4.3,1.6,6.5,4.8,6.5c1.6-0.8,2.4-1.8,2.4-2.9h1.2v1.2h0.6
		c-1.1,5.9-3.1,8.9-5.9,8.9c-4-1.4-5.9-5-5.9-10.7C133.4,238.2,134.4,232,136.4,223z M583.8,237.9h1.8v2.4
		c-1.4,7.9-4.1,11.9-8.3,11.9l-4.2-1.2c-4.5,2.8-7.4,4.2-8.9,4.2l-8.3-2.4c-3.7,1.4-10.3,5.6-19.6,12.4c-2.9,2.1-6.9,3.7-11.9,4.8
		v-0.6c18.1-14,29.4-21.7,33.9-23.2h0.6l7.1,2.4h0.6c2.3,0,5.1-2.2,8.3-6.5c1.7,2,3.3,2.9,4.8,2.9h1.2
		C581.8,245,582.8,242.6,583.8,237.9z M348.5,248.6h1.2c2,0.8,3,3,3,6.6c-2.4,8.3-5.1,13.6-8.3,16h-0.6l5.4-12.4v-1.2l-1.2-1.2h-1.2
		c-0.8,0-1.2,0.6-1.2,1.7l-0.6,0.6h-0.6l-0.6-0.6C343.7,253.7,345.3,250.6,348.5,248.6z M279.6,261.1c1.3-4.8,3.3-7.1,5.8-7.1
		s4,2.6,4.3,7.7c0,5.2-4,10.7-11.9,16.6H276v-1.2c6.8-7,10.1-11.3,10.1-13.1v-1.2l-1.8-1.7l-4.8,1.2V261.1z M210.1,264l1.2,1.2
		c0,3.3-5.4,6.7-16.1,10.1c-12.5,6.7-21.6,11.1-27.3,13.1v-0.6c0-3.7,2.4-6.3,7.1-7.7C196.4,269.4,208.1,264,210.1,264z"/>
</g>
</svg>
