<?xml version="1.0" encoding="utf-8"?>
<!-- Generator: Adobe Illustrator 25.2.3, SVG Export Plug-In . SVG Version: 6.00 Build 0)  -->
<svg version="1.1" xmlns="http://www.w3.org/2000/svg" xmlns:xlink="http://www.w3.org/1999/xlink" x="0px" y="0px"
	 viewBox="0 0 700 395" style="enable-background:new 0 0 700 395;" xml:space="preserve">
<style type="text/css">
	.st0{fill:#000222;}
	.st1{fill:#FFFFFF;}
</style>
<g id="Layer_1">
	<rect class="st0" width="700" height="395"/>
</g>
<g id="Layer_3">
	<g>
		<path class="st1" d="M273.5,368.6l1.1,4.2c0.2,0.9,0.5,1.8,0.6,2.6h0.1c0.2-0.8,0.5-1.7,0.7-2.6l1.3-4.2h1.3l1.3,4.1
			c0.3,1,0.5,1.9,0.7,2.7h0.1c0.1-0.8,0.4-1.7,0.6-2.7l1.2-4.1h1.5l-2.7,8.2H280l-1.3-3.9c-0.3-0.9-0.5-1.7-0.7-2.7h0
			c-0.2,1-0.5,1.8-0.7,2.7l-1.3,3.9h-1.4l-2.5-8.2H273.5z"/>
		<path class="st1" d="M286.3,368.6l1.1,4.2c0.2,0.9,0.5,1.8,0.6,2.6h0.1c0.2-0.8,0.5-1.7,0.7-2.6l1.3-4.2h1.3l1.3,4.1
			c0.3,1,0.5,1.9,0.7,2.7h0.1c0.1-0.8,0.4-1.7,0.6-2.7l1.2-4.1h1.5l-2.7,8.2h-1.4l-1.3-3.9c-0.3-0.9-0.5-1.7-0.7-2.7h0
			c-0.2,1-0.5,1.8-0.7,2.7l-1.3,3.9h-1.4l-2.5-8.2H286.3z"/>
		<path class="st1" d="M299,368.6l1.1,4.2c0.2,0.9,0.5,1.8,0.6,2.6h0.1c0.2-0.8,0.5-1.7,0.7-2.6l1.3-4.2h1.3l1.3,4.1
			c0.3,1,0.5,1.9,0.7,2.7h0.1c0.1-0.8,0.4-1.7,0.6-2.7l1.2-4.1h1.5l-2.7,8.2h-1.4l-1.3-3.9c-0.3-0.9-0.5-1.7-0.7-2.7h0
			c-0.2,1-0.5,1.8-0.7,2.7l-1.3,3.9h-1.4l-2.5-8.2H299z"/>
		<path class="st1" d="M309.9,375.9c0-0.6,0.4-1.1,1-1.1c0.6,0,1,0.4,1,1.1c0,0.6-0.4,1.1-1,1.1C310.3,377,309.9,376.5,309.9,375.9z
			"/>
		<path class="st1" d="M313.5,375.3c0.4,0.3,1.2,0.6,2,0.6c1.1,0,1.6-0.5,1.6-1.2c0-0.7-0.4-1.1-1.5-1.5c-1.5-0.5-2.2-1.3-2.2-2.3
			c0-1.3,1.1-2.4,2.8-2.4c0.8,0,1.6,0.2,2,0.5l-0.4,1.1c-0.3-0.2-0.9-0.5-1.7-0.5c-0.9,0-1.4,0.5-1.4,1.1c0,0.7,0.5,1,1.6,1.4
			c1.4,0.5,2.2,1.3,2.2,2.5c0,1.4-1.1,2.5-3.1,2.5c-0.9,0-1.7-0.2-2.3-0.6L313.5,375.3z"/>
		<path class="st1" d="M327.4,374.6c0,0.9,0,1.6,0.1,2.2h-1.3l-0.1-1.3h0c-0.4,0.7-1.3,1.5-2.7,1.5c-1.3,0-2.8-0.7-2.8-3.6v-4.8h1.5
			v4.6c0,1.6,0.5,2.6,1.8,2.6c1,0,1.7-0.7,2-1.4c0.1-0.2,0.1-0.5,0.1-0.8v-5h1.5V374.6z"/>
		<path class="st1" d="M329.8,371.1c0-1,0-1.8-0.1-2.6h1.3l0.1,1.6h0.1c0.4-1.1,1.3-1.8,2.3-1.8c0.2,0,0.3,0,0.4,0.1v1.4
			c-0.2,0-0.3-0.1-0.5-0.1c-1.1,0-1.8,0.8-2,1.9c0,0.2-0.1,0.4-0.1,0.7v4.4h-1.5V371.1z"/>
		<path class="st1" d="M339.9,376.8l-0.1-1h-0.1c-0.5,0.6-1.3,1.2-2.5,1.2c-1.7,0-2.5-1.2-2.5-2.4c0-2,1.8-3.1,4.9-3.1v-0.2
			c0-0.7-0.2-1.9-1.9-1.9c-0.8,0-1.6,0.2-2.1,0.6l-0.3-1c0.7-0.4,1.7-0.7,2.7-0.7c2.5,0,3.1,1.7,3.1,3.4v3.1c0,0.7,0,1.4,0.1,2
			H339.9z M339.7,372.6c-1.6,0-3.5,0.3-3.5,1.9c0,1,0.6,1.4,1.4,1.4c1.1,0,1.8-0.7,2-1.4c0.1-0.2,0.1-0.3,0.1-0.5V372.6z"/>
		<path class="st1" d="M343.5,364.7h1.5v5.1h0c0.2-0.4,0.6-0.8,1.1-1.1c0.4-0.3,1-0.4,1.5-0.4c1.1,0,2.9,0.7,2.9,3.5v4.9H349v-4.7
			c0-1.3-0.5-2.4-1.9-2.4c-1,0-1.7,0.7-2,1.5c-0.1,0.2-0.1,0.4-0.1,0.7v5h-1.5V364.7z"/>
		<path class="st1" d="M358.6,375.5L358.6,375.5c-0.5,0.8-1.4,1.5-2.7,1.5c-1.9,0-3.5-1.7-3.5-4.2c0-3.1,2-4.4,3.7-4.4
			c1.3,0,2.1,0.6,2.5,1.4h0l0.1-1.2h1.4c0,0.7-0.1,1.4-0.1,2.3v9.3h-1.5V375.5z M358.6,371.9c0-0.2,0-0.4-0.1-0.6
			c-0.2-0.9-1-1.7-2.1-1.7c-1.5,0-2.5,1.3-2.5,3.2c0,1.6,0.8,3.1,2.4,3.1c1,0,1.8-0.6,2.1-1.6c0.1-0.2,0.1-0.5,0.1-0.7V371.9z"/>
		<path class="st1" d="M369.4,374.6c0,0.9,0,1.6,0.1,2.2h-1.3l-0.1-1.3h0c-0.4,0.7-1.3,1.5-2.7,1.5c-1.3,0-2.8-0.7-2.8-3.6v-4.8h1.5
			v4.6c0,1.6,0.5,2.6,1.8,2.6c1,0,1.7-0.7,2-1.4c0.1-0.2,0.1-0.5,0.1-0.8v-5h1.5V374.6z"/>
		<path class="st1" d="M371.9,371.1c0-1,0-1.8-0.1-2.6h1.3l0.1,1.6h0.1c0.4-1.1,1.3-1.8,2.3-1.8c0.2,0,0.3,0,0.4,0.1v1.4
			c-0.2,0-0.3-0.1-0.5-0.1c-1.1,0-1.8,0.8-2,1.9c0,0.2-0.1,0.4-0.1,0.7v4.4h-1.5V371.1z"/>
		<path class="st1" d="M381.9,376.8l-0.1-1h-0.1c-0.5,0.6-1.3,1.2-2.5,1.2c-1.7,0-2.5-1.2-2.5-2.4c0-2,1.8-3.1,4.9-3.1v-0.2
			c0-0.7-0.2-1.9-1.9-1.9c-0.8,0-1.6,0.2-2.1,0.6l-0.3-1c0.7-0.4,1.7-0.7,2.7-0.7c2.5,0,3.1,1.7,3.1,3.4v3.1c0,0.7,0,1.4,0.1,2
			H381.9z M381.7,372.6c-1.6,0-3.5,0.3-3.5,1.9c0,1,0.6,1.4,1.4,1.4c1.1,0,1.8-0.7,2-1.4c0.1-0.2,0.1-0.3,0.1-0.5V372.6z"/>
		<path class="st1" d="M385.6,370.8c0-0.9,0-1.5-0.1-2.2h1.3l0.1,1.4h0c0.4-0.8,1.4-1.5,2.7-1.5c1.1,0,2.9,0.7,2.9,3.5v4.9h-1.5
			v-4.7c0-1.3-0.5-2.4-1.9-2.4c-1,0-1.8,0.7-2,1.5c-0.1,0.2-0.1,0.4-0.1,0.7v4.9h-1.5V370.8z"/>
		<path class="st1" d="M394.6,375.9c0-0.6,0.4-1.1,1-1.1c0.6,0,1,0.4,1,1.1c0,0.6-0.4,1.1-1,1.1C395,377,394.6,376.5,394.6,375.9z"
			/>
		<path class="st1" d="M404.4,376.5c-0.4,0.2-1.3,0.5-2.4,0.5c-2.5,0-4.1-1.7-4.1-4.2c0-2.5,1.7-4.4,4.4-4.4c0.9,0,1.7,0.2,2.1,0.4
			l-0.3,1.2c-0.4-0.2-0.9-0.4-1.7-0.4c-1.9,0-2.9,1.4-2.9,3.1c0,1.9,1.2,3.1,2.9,3.1c0.8,0,1.4-0.2,1.8-0.4L404.4,376.5z"/>
		<path class="st1" d="M413.5,372.6c0,3-2.1,4.4-4.1,4.4c-2.2,0-3.9-1.6-3.9-4.2c0-2.8,1.8-4.4,4.1-4.4
			C411.9,368.4,413.5,370.1,413.5,372.6z M406.9,372.7c0,1.8,1,3.2,2.5,3.2c1.4,0,2.5-1.3,2.5-3.2c0-1.4-0.7-3.2-2.5-3.2
			S406.9,371.1,406.9,372.7z"/>
		<path class="st1" d="M415.4,370.8c0-0.9,0-1.5-0.1-2.2h1.3l0.1,1.3h0.1c0.5-0.8,1.2-1.5,2.6-1.5c1.1,0,2,0.7,2.3,1.6h0
			c0.3-0.5,0.6-0.8,0.9-1.1c0.5-0.4,1-0.6,1.8-0.6c1.1,0,2.7,0.7,2.7,3.6v4.8h-1.5v-4.7c0-1.6-0.6-2.5-1.8-2.5
			c-0.9,0-1.5,0.6-1.8,1.4c-0.1,0.2-0.1,0.5-0.1,0.7v5.1h-1.5v-4.9c0-1.3-0.6-2.3-1.7-2.3c-0.9,0-1.6,0.7-1.9,1.5
			c-0.1,0.2-0.1,0.5-0.1,0.7v5h-1.5V370.8z"/>
	</g>
</g>
<g id="Layer_4">
	<path class="st1" d="M561.5,110c1.6,0.4,3.4,2.5,5.5,6.1c0,3-0.6,4.6-1.8,4.9h-0.7l-4.9-3.7c-2.8,0-4.2,3.3-4.2,9.8
		c-0.4,14-1.7,21.5-3.7,22.5H551c-5.6-11.4-11.3-17.1-17.1-17.1c-2.8-2.2-4.2-4.3-4.2-6.1v-1.2c0-3,0.6-4.6,1.8-4.9h1.2
		c3.3,0,8.9,5.1,17.1,15.3h1.2l1.2-12.2h-0.6C554.6,114.4,557.9,110,561.5,110z M429,110.5c2.9,1.2,4.3,3.3,4.3,6.1v1.2l-0.7,10.4
		c4.1,2.9,6.1,5.8,6.1,8.5c-0.4,1.6-1.2,2.4-2.4,2.4c-3.6-2.4-6-3.7-7.3-3.7h-0.6c-9.3,9.9-18.7,16.6-28.1,20.1
		c-0.2,0.8-1.4,1.4-3.7,1.9l-0.7-0.7v-1.2l15.3-10.3c8.9-6.6,13.4-11,13.4-13.4l-4.3-7.3C420.5,118.8,423.3,114.1,429,110.5z
		 M606,111.2c2.6,0,4.2,3.7,4.9,11v2.4l0.7,0.6l-0.7,0.7v0.6c0,2.4,1.6,5.5,4.9,9.2v1.2c-0.3,2-0.9,3-1.8,3l-6.1-2.4h-0.7
		C586,156.5,571,166.1,562,166.1h-0.6c1.6-2.2,11.4-8.7,29.3-19.5c7.6-6.2,11.7-9.8,12.2-11v-1.2c-3.7-3.3-5.5-6.3-5.5-9.2v-2.4
		C599.3,115,602.1,111.2,606,111.2z M348.5,113c1.3,0,3.6,4.5,6.8,13.4c4.9,8.2,7.3,14.2,7.3,17.7l-0.7,0.6h-0.6l-5.5-3v0.6
		c1.6,14.5,5.7,40.2,12.2,76.9l1.2,17.1c0,11.8-3.9,19.6-11.6,23.2c-6.7,3.3-12.4,4.9-17.1,4.9c-6.5,0-12.4-4.5-17.7-13.4l-1.8-0.6
		c-21.7,11-35.5,16.4-41.5,16.4c-1.1,1-7.1,1.8-17.7,2.4c-20.7,0-34.1-7.1-40.3-21.3c-1.6-6.9-2.8-10.4-3.7-10.4
		c-6.7,9.9-16.2,19.3-28.6,28.1c-8.6,6.3-15.9,9.8-22,10.4h-3.7c-7.6,0-12.5-5.9-14.6-17.7v-4.9l1.2-14.6l-0.7-0.6H149
		c-9.7,6.7-21.1,13.2-34.2,19.5c-3.3,2.7-18.5,6.5-45.8,11.6h-1.2V268c0.5-1.3,7.1-4.3,19.5-9.1c0.3-0.8,9-5.1,26.3-12.9
		c16.4-7.8,33.5-19.2,51.3-34.2c3.3-4.8,4.9-7.9,4.9-9.1v-1.2l-10.4-20.7c-1.7-5.2-3.8-9.5-6.1-12.9v-1.8c0.5-6.1,1.6-9.2,3.1-9.2
		c8.5,7.8,12.8,12.4,12.8,14.1l-4.2,1.2c6.5,12.9,9.8,21.6,9.8,26.2v1.2h0.6c0,10.6-6.3,21.6-18.9,33c-2.1,5.8-3.1,10.5-3.1,14.1
		v5.5c1.3,8.1,6.4,12.2,15.3,12.2c11.8-3.5,26.7-13.8,44.5-31.1c2.1-3.4,3.1-5.8,3.1-7.3c0-9.3-5.7-27.9-17.1-55.6v-0.6
		c0.3-5.7,1.1-8.5,2.4-8.5c7.9,9.5,14.2,23.7,18.9,42.7c3.3,28.5,7.3,42.7,12.2,42.7c5.3,6.1,14.8,9.1,28.7,9.1h3
		c19,0,36.7-5.5,53.1-16.4v-1.9c-1.6-6.8-2.4-12.5-2.4-17.1c1.6-14.2,5.7-21.3,12.2-21.3c6.8,0,11.7,6.9,14.6,20.7v0.6
		c-1.5,9.8-4.2,16.3-8,19.5c-2.4,1.4-3.7,3.2-3.7,5.4c0,2.2,3.7,4.1,11,5.6h3.7c12.2-2.3,18.3-5.6,18.3-9.8v-3.7
		c-7.3-43.5-13-80.3-17.1-110.4c-0.5,0-1.1-1.4-1.8-4.3C345.6,116.4,347,113.1,348.5,113z M379.6,113.6h1.2
		c8.1,16.8,12.2,27,12.2,30.5l-0.7,0.6h-1.2l-4.2-3.7h-0.7v0.7c8.6,54.9,12.9,84.8,12.9,89.7l0.6,6.8c0,5.7-1.2,11.2-3.7,16.4h-1.2
		c-2.4-23.8-8.7-67.9-18.9-132.4C377.1,116.5,378.4,113.6,379.6,113.6z M509.5,113.6l0.7,0.6v0.7c0,3.1-4.3,6.9-12.9,11.6
		l-42.1,25.1h-0.7l-0.6-3.1c3.9-5,12.6-11.1,26.2-18.3l16.5-10.3L509.5,113.6z M269.1,114.8c2.3,0,4.1,2.8,5.5,8.5
		c-0.4,1.6-1.2,2.4-2.4,2.4l-4.3-3.1h-1.8c-0.8,0-1.2,0.6-1.2,1.9c0,11.4-1,19.3-3.1,23.8H260c-4.9-11.4-10.4-17.1-16.5-17.1
		c-1.6-1.1-2.6-2.5-3-4.2c0.4-4.5,1.4-6.8,3-6.8c4.5,2,10,7.3,16.5,15.9h1.2v-6.1c0-8,2.4-13.1,7.3-15.2H269.1z M147.7,117.3
		c4.4,2.8,6.7,5.5,6.7,7.9c-0.7,2.1-1.7,3.1-3,3.1l-4.3-3.1h-1.8l-1.2,10.4h0.6l-0.6,0.6v4.9c-0.9,8.1-2.1,12.2-3.7,12.2h-0.7
		c-4.7-12.6-10.4-18.9-17.1-18.9c-2.8,0-4.2-2.3-4.2-6.8c1-2.6,2-4,3-4.2c4.3,0,10.4,5.5,18.3,16.4h1.2v-1.2
		C141,124.4,143.2,117.3,147.7,117.3z M424.8,120.3v1.9c1.2,2,2.6,3,4.2,3l0.7-0.6v-4.3l-1.9-1.8h-1.2L424.8,120.3z M600.5,121.5
		c0,1,1.6,2.9,4.9,5.5h1.8l0.7-4.3c-0.6-1.7-1.6-2.9-3.1-3.7h-0.6C602.1,119.1,600.9,119.9,600.5,121.5z M202,119.1
		c8.6,0.3,12.9,1.3,12.9,3.1v2.4c-5.7,9.3-12.1,14-19,14c0-0.8,2.8-3.7,8.5-8.5v-1.2l-3-0.6h-5.5c-3,0-6,1.4-9.1,4.2l-0.7-0.6
		c2.8-8.6,7.5-12.9,14.1-12.9H202z M338.1,130.1l0.6,0.7v0.6c0,4.1-7.7,8.8-23.2,14.1c-6,3.3-13.5,6.6-22.5,9.8
		c-16.4,7.3-37.6,17.9-63.5,31.7l-0.7-0.7c0-6.6,10.4-14.1,31.2-22.5c2.7-2.3,21.4-11.1,56.1-26.3c12.1-5.3,19.4-7.9,22-7.9V130.1z
		 M515.6,151.5h1.2v0.6c-0.6,1.6-1.2,2.4-1.8,2.4v-1.2L515.6,151.5z M514.4,154.5h0.7v0.7l-0.7,8.5v0.6c0,2.2,1.4,4.7,4.3,7.3h1.2
		l3.7-4.9l0.6,2.4c-1.8,6.5-4,9.8-6.7,9.8c-4.1-1.6-6.1-5.7-6.1-12.2C511.4,164.3,512.4,160.3,514.4,154.5z M437.5,155.7h1.9
		c5.7,3.7,8.5,6.8,8.5,9.2c-2.4,4.9-4.4,7.3-6.1,7.3l-8.5-5.5l-6.1,7.3c-3.3,0-6.8-2.6-10.4-7.9c1.2-5.3,3.2-8,6.1-8l8,4.3h0.6
		L437.5,155.7z M607.2,156.3h0.7l-2.4,7.9v3.7c0.5,4.1,1.3,6.1,2.4,6.1h1.8l3.1-2.4l0.6,0.7c-1,6.1-3.1,9.1-6.1,9.1
		c-3.3-1.5-4.9-4.4-4.9-8.5V171C602.3,165.7,603.9,160.8,607.2,156.3z M473.6,167.9h0.6c8.6,7.9,12.9,12.8,12.9,14.6l-0.7,0.7h-4.2
		c0.5,2.9,3.2,8.4,7.9,16.4c1.2,2.3,2.1,5.6,2.4,9.8c0,10.8-5.5,20-16.4,27.5c-1.6,4.1-2.4,7.5-2.4,10.3
		c2.9,12.2,8.4,18.3,16.4,18.3h7.3c8.4-0.9,18.1-5.8,29.3-14.6c12.6-10.4,19-17.3,19-20.7v-1.2c0-0.8-0.6-1.2-1.9-1.2l-15.9,1.9
		l-0.6,0.6c-8.6-1.2-12.9-5.5-12.9-12.8v-1.9c2.7-11.8,7.8-17.7,15.3-17.7c5.1,0,11.4,4.7,18.9,14h1.9c5-2.8,11.1-6.8,18.3-12.2h1.2
		V199c1.7,0,2.7,3.7,3,11c3.6,4.4,6.7,6.7,9.2,6.7h8.5c5.5-2,10-6.1,13.4-12.2c0.4-2.6,2.3-5.2,5.5-7.9h0.7v1.2h0.6
		c-1.6,3.2-2.4,5.8-2.4,7.9c3.9,4.5,8.1,6.8,12.9,6.8c3.3-0.4,4.9-1.1,4.9-1.9l-3.1-7.3c1-6.1,2.2-9.1,3.7-9.1
		c3.7,4.2,5.5,9.1,5.5,14.6c-1.5,10.6-5.3,15.9-11.6,15.9h-4.2c-2.4,0-6.7-2.7-12.9-8h-0.6c-6.2,8.1-12.1,12.2-17.7,12.2
		c-8.8,0-14.7-4.3-17.7-12.8c0-1.6-0.4-2.4-1.2-2.4h-0.7c-9.3,5.3-14,10.2-14,14.6c0,10.7-9.4,22.9-28.1,36.6
		c0,3.6-8.8,8.1-26.3,13.4h-5.5c-12.2,0-19.7-8.1-22.6-24.4l0.7-3.1v-7.3h-0.7c-1.4,0-6.8,3.3-16.4,9.8
		c-18.7,11.8-33.4,17.7-43.9,17.7l-20.7,4.2l-1.2-1.2l44.5-20.7c13.8-7.6,26.8-15.8,39.1-24.4c10.6-7.8,15.9-13.1,15.9-15.9v-1.2
		c0-1.3-2.6-6.8-7.9-16.4c-2.1-2.9-4.5-9.2-7.3-19C471.6,170.7,472.4,167.9,473.6,167.9z M121.5,171.5h0.7
		c-3.3,14.7-4.9,24.1-4.9,28.1v3.1c0.8,7.3,3,11,6.7,11c1.4-1.4,2.4-3.8,3.1-7.3h1.8v1.2c-0.9,10.6-3,15.9-6.1,15.9
		c-6.5-1-9.8-6.1-9.8-15.3v-1.8C112.9,193.3,115.8,181.7,121.5,171.5z M327.1,174c3.5,0,7.1,3.3,11,9.8c0,2.7-2,5.3-6.1,8l-9.2-6.8
		h-1.2l-6.1,6.1c-2.8,0-6.3-2.4-10.3-7.3c2-5.3,3.6-7.9,4.9-7.9h0.6c1.2,0,4.3,1.4,9.2,4.2h1.2L327.1,174z M449.2,177.1h0.6v0.6
		c0,5.9-3.3,13-9.8,21.4v1.2c7.8,6.1,11.6,11.8,11.6,17.1c0,10.6-4.7,17.7-14.1,21.3c0,0.9-3,2.1-9.1,3.7c-4.6,0-7.7-3.3-9.2-9.8
		c0-7.5,2-15.9,6.1-25l-15.9-16.5v-6.7c0.3-2.4,0.9-3.7,1.9-3.7c10.5,4.3,15.8,6.7,15.9,7.3v0.6c0,1.2-0.8,1.9-2.4,1.9v1.8
		c2.4,2.9,5.3,4.3,8.5,4.3L449.2,177.1z M277.7,198.4c2.8,0,5.1,2.8,6.8,8.5c-0.8,1.8-1.6,2.9-2.4,3.1l-5.5-4.3h-0.6
		c-0.8,0-1.6,1.2-2.4,3.7l0.6,10.4c-0.7,7.5-1.7,12.4-3,14.6h-1.2l-5.5-10.4c-2-3-5.7-5.3-11-6.7c-1.6-1.8-2.4-3.7-2.4-5.5
		c0.4-3.3,1.5-4.9,3.1-4.9c2.6,0,7.7,4.3,15.2,12.9l1.2-1.2v-7.3C271.8,202.7,274.3,198.4,277.7,198.4z M424.1,223.5
		c0,4.1,1.6,6.1,4.9,6.1h1.9c7.1-2.1,12-5,14.6-8.5c0-3.8-4.7-7.1-14.1-9.8C427.3,215,424.9,219.1,424.1,223.5z M522.4,215.5
		c0.8,0.8,3.3,1.4,7.3,1.9c4.4-0.3,6.7-0.9,6.7-1.9c0-1.5-2.6-2.9-7.9-4.2C524.4,211.2,522.4,212.7,522.4,215.5z M319.8,217.9v0.7
		c0,4.1,1.6,9.4,4.9,15.9h1.2c4.6-2.2,7.9-5.1,9.8-8.5v-2.4c0-3.3-2.7-7.2-8-11.6h-1.8C321.8,212.4,319.8,214.4,319.8,217.9z
		 M616.9,239.3l0.7,0.6v0.7c-1.5,8.9-4.5,13.4-9.2,13.4l-3.7-1.2l-9.8,3.7l-7.9-2.4h-0.7c-5.3,1.6-13.9,6.7-25.6,15.2l-6.1,1.2
		l-0.6-0.6v-0.7c20.4-14.6,31.8-22,34.2-22h1.8l6.8,2.4c5.7-0.9,8.5-3.1,8.5-6.7h1.8c0,2.4,1.4,3.7,4.3,3.7h0.6
		c1.2,0,1.9-1.2,1.9-3.7L616.9,239.3z M139.2,261.3h0.6v0.6c0,3.9-7.3,8.5-22,14.1c-5.6,3.5-10.7,5.9-15.2,7.3l-1.2-1.9
		c0-2,9.4-7.1,28.1-15.2C132,263.6,135.2,262,139.2,261.3z M217.9,263.1c1.4,0.3,2.6,1.5,3.7,3.7c0,8-3.7,14.1-11,18.3v-0.6l8-11
		v-1.9l-1.2-1.2h-1.2L213,271v-2.4C213.6,267.2,215.2,265.4,217.9,263.1z"/>
</g>
</svg>
