<?xml version="1.0" encoding="utf-8"?>
<!-- Generator: Adobe Illustrator 25.2.3, SVG Export Plug-In . SVG Version: 6.00 Build 0)  -->
<svg version="1.1" xmlns="http://www.w3.org/2000/svg" xmlns:xlink="http://www.w3.org/1999/xlink" x="0px" y="0px"
	 viewBox="0 0 700 395" style="enable-background:new 0 0 700 395;" xml:space="preserve">
<style type="text/css">
	.st0{fill:#000222;}
	.st1{fill:#FFFFFF;}
</style>
<g id="Layer_1">
	<rect class="st0" width="700" height="395"/>
</g>
<g id="Layer_3">
	<g>
		<path class="st1" d="M273.5,368.6l1.1,4.2c0.2,0.9,0.5,1.8,0.6,2.6h0.1c0.2-0.8,0.5-1.7,0.7-2.6l1.3-4.2h1.3l1.3,4.1
			c0.3,1,0.5,1.9,0.7,2.7h0.1c0.1-0.8,0.4-1.7,0.6-2.7l1.2-4.1h1.5l-2.7,8.2H280l-1.3-3.9c-0.3-0.9-0.5-1.7-0.7-2.7h0
			c-0.2,1-0.5,1.8-0.7,2.7l-1.3,3.9h-1.4l-2.5-8.2H273.5z"/>
		<path class="st1" d="M286.3,368.6l1.1,4.2c0.2,0.9,0.5,1.8,0.6,2.6h0.1c0.2-0.8,0.5-1.7,0.7-2.6l1.3-4.2h1.3l1.3,4.1
			c0.3,1,0.5,1.9,0.7,2.7h0.1c0.1-0.8,0.4-1.7,0.6-2.7l1.2-4.1h1.5l-2.7,8.2h-1.4l-1.3-3.9c-0.3-0.9-0.5-1.7-0.7-2.7h0
			c-0.2,1-0.5,1.8-0.7,2.7l-1.3,3.9h-1.4l-2.5-8.2H286.3z"/>
		<path class="st1" d="M299,368.6l1.1,4.2c0.2,0.9,0.5,1.8,0.6,2.6h0.1c0.2-0.8,0.5-1.7,0.7-2.6l1.3-4.2h1.3l1.3,4.1
			c0.3,1,0.5,1.9,0.7,2.7h0.1c0.1-0.8,0.4-1.7,0.6-2.7l1.2-4.1h1.5l-2.7,8.2h-1.4l-1.3-3.9c-0.3-0.9-0.5-1.7-0.7-2.7h0
			c-0.2,1-0.5,1.8-0.7,2.7l-1.3,3.9h-1.4l-2.5-8.2H299z"/>
		<path class="st1" d="M309.9,375.9c0-0.6,0.4-1.1,1-1.1c0.6,0,1,0.4,1,1.1c0,0.6-0.4,1.1-1,1.1C310.3,377,309.9,376.5,309.9,375.9z
			"/>
		<path class="st1" d="M313.5,375.3c0.4,0.3,1.2,0.6,2,0.6c1.1,0,1.6-0.5,1.6-1.2c0-0.7-0.4-1.1-1.5-1.5c-1.5-0.5-2.2-1.3-2.2-2.3
			c0-1.3,1.1-2.4,2.8-2.4c0.8,0,1.6,0.2,2,0.5l-0.4,1.1c-0.3-0.2-0.9-0.5-1.7-0.5c-0.9,0-1.4,0.5-1.4,1.1c0,0.7,0.5,1,1.6,1.4
			c1.4,0.5,2.2,1.3,2.2,2.5c0,1.4-1.1,2.5-3.1,2.5c-0.9,0-1.7-0.2-2.3-0.6L313.5,375.3z"/>
		<path class="st1" d="M327.4,374.6c0,0.9,0,1.6,0.1,2.2h-1.3l-0.1-1.3h0c-0.4,0.7-1.3,1.5-2.7,1.5c-1.3,0-2.8-0.7-2.8-3.6v-4.8h1.5
			v4.6c0,1.6,0.5,2.6,1.8,2.6c1,0,1.7-0.7,2-1.4c0.1-0.2,0.1-0.5,0.1-0.8v-5h1.5V374.6z"/>
		<path class="st1" d="M329.8,371.1c0-1,0-1.8-0.1-2.6h1.3l0.1,1.6h0.1c0.4-1.1,1.3-1.8,2.3-1.8c0.2,0,0.3,0,0.4,0.1v1.4
			c-0.2,0-0.3-0.1-0.5-0.1c-1.1,0-1.8,0.8-2,1.9c0,0.2-0.1,0.4-0.1,0.7v4.4h-1.5V371.1z"/>
		<path class="st1" d="M339.9,376.8l-0.1-1h-0.1c-0.5,0.6-1.3,1.2-2.5,1.2c-1.7,0-2.5-1.2-2.5-2.4c0-2,1.8-3.1,4.9-3.1v-0.2
			c0-0.7-0.2-1.9-1.9-1.9c-0.8,0-1.6,0.2-2.1,0.6l-0.3-1c0.7-0.4,1.7-0.7,2.7-0.7c2.5,0,3.1,1.7,3.1,3.4v3.1c0,0.7,0,1.4,0.1,2
			H339.9z M339.7,372.6c-1.6,0-3.5,0.3-3.5,1.9c0,1,0.6,1.4,1.4,1.4c1.1,0,1.8-0.7,2-1.4c0.1-0.2,0.1-0.3,0.1-0.5V372.6z"/>
		<path class="st1" d="M343.5,364.7h1.5v5.1h0c0.2-0.4,0.6-0.8,1.1-1.1c0.4-0.3,1-0.4,1.5-0.4c1.1,0,2.9,0.7,2.9,3.5v4.9H349v-4.7
			c0-1.3-0.5-2.4-1.9-2.4c-1,0-1.7,0.7-2,1.5c-0.1,0.2-0.1,0.4-0.1,0.7v5h-1.5V364.7z"/>
		<path class="st1" d="M358.6,375.5L358.6,375.5c-0.5,0.8-1.4,1.5-2.7,1.5c-1.9,0-3.5-1.7-3.5-4.2c0-3.1,2-4.4,3.7-4.4
			c1.3,0,2.1,0.6,2.5,1.4h0l0.1-1.2h1.4c0,0.7-0.1,1.4-0.1,2.3v9.3h-1.5V375.5z M358.6,371.9c0-0.2,0-0.4-0.1-0.6
			c-0.2-0.9-1-1.7-2.1-1.7c-1.5,0-2.5,1.3-2.5,3.2c0,1.6,0.8,3.1,2.4,3.1c1,0,1.8-0.6,2.1-1.6c0.1-0.2,0.1-0.5,0.1-0.7V371.9z"/>
		<path class="st1" d="M369.4,374.6c0,0.9,0,1.6,0.1,2.2h-1.3l-0.1-1.3h0c-0.4,0.7-1.3,1.5-2.7,1.5c-1.3,0-2.8-0.7-2.8-3.6v-4.8h1.5
			v4.6c0,1.6,0.5,2.6,1.8,2.6c1,0,1.7-0.7,2-1.4c0.1-0.2,0.1-0.5,0.1-0.8v-5h1.5V374.6z"/>
		<path class="st1" d="M371.9,371.1c0-1,0-1.8-0.1-2.6h1.3l0.1,1.6h0.1c0.4-1.1,1.3-1.8,2.3-1.8c0.2,0,0.3,0,0.4,0.1v1.4
			c-0.2,0-0.3-0.1-0.5-0.1c-1.1,0-1.8,0.8-2,1.9c0,0.2-0.1,0.4-0.1,0.7v4.4h-1.5V371.1z"/>
		<path class="st1" d="M381.9,376.8l-0.1-1h-0.1c-0.5,0.6-1.3,1.2-2.5,1.2c-1.7,0-2.5-1.2-2.5-2.4c0-2,1.8-3.1,4.9-3.1v-0.2
			c0-0.7-0.2-1.9-1.9-1.9c-0.8,0-1.6,0.2-2.1,0.6l-0.3-1c0.7-0.4,1.7-0.7,2.7-0.7c2.5,0,3.1,1.7,3.1,3.4v3.1c0,0.7,0,1.4,0.1,2
			H381.9z M381.7,372.6c-1.6,0-3.5,0.3-3.5,1.9c0,1,0.6,1.4,1.4,1.4c1.1,0,1.8-0.7,2-1.4c0.1-0.2,0.1-0.3,0.1-0.5V372.6z"/>
		<path class="st1" d="M385.6,370.8c0-0.9,0-1.5-0.1-2.2h1.3l0.1,1.4h0c0.4-0.8,1.4-1.5,2.7-1.5c1.1,0,2.9,0.7,2.9,3.5v4.9h-1.5
			v-4.7c0-1.3-0.5-2.4-1.9-2.4c-1,0-1.8,0.7-2,1.5c-0.1,0.2-0.1,0.4-0.1,0.7v4.9h-1.5V370.8z"/>
		<path class="st1" d="M394.6,375.9c0-0.6,0.4-1.1,1-1.1c0.6,0,1,0.4,1,1.1c0,0.6-0.4,1.1-1,1.1C395,377,394.6,376.5,394.6,375.9z"
			/>
		<path class="st1" d="M404.4,376.5c-0.4,0.2-1.3,0.5-2.4,0.5c-2.5,0-4.1-1.7-4.1-4.2c0-2.5,1.7-4.4,4.4-4.4c0.9,0,1.7,0.2,2.1,0.4
			l-0.3,1.2c-0.4-0.2-0.9-0.4-1.7-0.4c-1.9,0-2.9,1.4-2.9,3.1c0,1.9,1.2,3.1,2.9,3.1c0.8,0,1.4-0.2,1.8-0.4L404.4,376.5z"/>
		<path class="st1" d="M413.5,372.6c0,3-2.1,4.4-4.1,4.4c-2.2,0-3.9-1.6-3.9-4.2c0-2.8,1.8-4.4,4.1-4.4
			C411.9,368.4,413.5,370.1,413.5,372.6z M406.9,372.7c0,1.8,1,3.2,2.5,3.2c1.4,0,2.5-1.3,2.5-3.2c0-1.4-0.7-3.2-2.5-3.2
			S406.9,371.1,406.9,372.7z"/>
		<path class="st1" d="M415.4,370.8c0-0.9,0-1.5-0.1-2.2h1.3l0.1,1.3h0.1c0.5-0.8,1.2-1.5,2.6-1.5c1.1,0,2,0.7,2.3,1.6h0
			c0.3-0.5,0.6-0.8,0.9-1.1c0.5-0.4,1-0.6,1.8-0.6c1.1,0,2.7,0.7,2.7,3.6v4.8h-1.5v-4.7c0-1.6-0.6-2.5-1.8-2.5
			c-0.9,0-1.5,0.6-1.8,1.4c-0.1,0.2-0.1,0.5-0.1,0.7v5.1h-1.5v-4.9c0-1.3-0.6-2.3-1.7-2.3c-0.9,0-1.6,0.7-1.9,1.5
			c-0.1,0.2-0.1,0.5-0.1,0.7v5h-1.5V370.8z"/>
	</g>
</g>
<g id="Layer_4">
	<path class="st1" d="M326.8,113.3c1,0.4,4.8,10,11.2,28.7v2.3l-0.6,0.6h-0.5l-3-2.3h-1.2v2.3l7.7,72.2l0.5,11.2
		c0,10.4-2.7,17.2-8.2,20.5c-4,2.8-7.9,4.1-11.7,4.1c-7.4,0-12.6-4.1-15.8-12.4h-0.6c-6.7,9.4-15.3,14.1-25.8,14.1h-0.5
		c-7.4,0-14.6-5.1-21.8-15.3h-0.5c-5.2,9-12.5,13.5-21.8,13.5c-7.2,0-12.1-4.9-14.6-14.7h-1.2c-7.3,10.2-14.5,15.3-21.8,15.3H193
		c-12.4,0-21.2-9-26.4-27c-1.5-1.1-2.8-1.7-4.1-1.7c-8.9,3.2-15.7,9.2-20.5,18.2c-5.6,17.2-11.5,25.8-17.6,25.8
		c-8.2,0-13.9-8.2-17.1-24.7l-1.7-11.7l0.5-0.5v-5.3l1.2-7.6h1.8v2.9c0,19.4,3.9,30.7,11.7,34l0.5,0.6h6.5
		c2.5-0.5,6.9-8.9,13.5-25.3c5.3-9,12.6-15,21.8-18.2h0.5c4.4,0,7.6,3.9,9.4,11.7c4.6,11.3,13.1,17,25.3,17c7,0,14.7-6.3,22.9-18.8
		l2.3-0.5l0.6,0.5v5.9c0.8,7.8,4.4,11.7,10.6,11.7h2.3c7.3,0,12.5-2.7,15.8-8.2v-2.9l-0.5-0.6l0.5-0.5v-0.6
		c-1.6-11.2-3.5-21.8-5.9-31.7c1.5-5.8,2.6-8.8,3.5-8.8h1.2c3.5,9.8,6.5,22.9,8.8,39.3c4.6,10.6,10.5,15.9,17.6,15.9l1.7,0.5h3
		c8.5,0,16.5-5.7,24-17l1.8-0.6c1.6,10.2,5.9,15.3,12.9,15.3h2.3c5,0,8.7-1.6,11.1-4.7l-12.3-113.9
		C324.1,116.2,325.5,113.3,326.8,113.3z M357.3,113.3h0.6c6.6,17.2,9.9,26.7,9.9,28.7l-0.5,1.8h-1.2l-3-2.3H362v1.7l8.2,91
		c0,11.2-1.7,18.8-5.2,22.9h-1.2l0.5-4.1v-8.8c-6.6-74.1-10.5-114.6-11.7-121.5C354.7,116.4,356.2,113.3,357.3,113.3z M402.6,114.5
		c2,0,3.2,2,3.5,5.9v2.3l-0.6,8.2l5.9,7.6c-0.3,2.3-1,3.5-2.3,3.5c-3.8-2.7-6.3-4.1-7.6-4.1c-9.1,9.7-16.8,15.3-22.9,17
		c0,0.6-1.6,1.2-4.7,1.8l-0.5-0.6v-0.5c0-0.6,7.8-6.5,23.5-17.6l1.2-3l-4.1-7C395.7,119,398.6,114.5,402.6,114.5z M151.9,116.8
		c3.1,2.2,4.7,4.5,4.7,7c-0.8,1.8-1.6,2.7-2.3,2.9c-2-1.9-3.8-2.9-5.2-2.9h-0.6l-1.7,1.7v3.5l-0.6,7h0.6l-0.6,0.6v4.7l-1.7,9.4h-1.2
		c-6-11.4-10.7-17.1-14.1-17.1l-0.6,0.6c-2.1,0-4.2-2.2-6.4-6.5c0.6-4.3,1.8-6.4,3.5-6.4c4.2,1.3,9.7,6.6,16.4,15.8h1.2
		c1.6-13.7,3.9-20.5,7-20.5H151.9z M529.3,116.8c3.5,1.8,5.2,4.2,5.2,7v1.2l-1.2,2.3h-1.7l-3.5-3h-2.3c-2.3,0-3.5,7.4-3.5,22.3
		c-1.4,5.9-2.5,8.8-3.5,8.8c-5.4-11.4-10.3-17.1-14.7-17.1c-3.7-2.6-5.7-5-5.9-7c0-2.2,1-4.2,3-5.9c3.7,0,9.3,5.5,17,16.4
		c0.8,0,1.6-5.3,2.3-15.8C523.6,120.2,526.6,117.1,529.3,116.8z M173.6,118l0.5,0.5v0.6c-1.6,5.6-2.3,10.1-2.3,13.5v0.6
		c0,3.4,1.4,5.9,4.1,7.6h0.5l3.5-3.5h0.6v0.6c0,4.5-2,7.8-5.9,9.9c-3.9-1.4-5.9-5.5-5.9-12.3C170.5,123.9,172.1,118,173.6,118z
		 M479.4,118.5l0.6,0.6v0.5c0,3.7-3.1,6.7-9.4,8.8c-1.9,1.8-16.7,10.4-44.6,25.8l-0.6-0.6v-0.5c0-4.2,4.1-7.9,12.4-11.2
		c6.1-4.1,18-11,35.8-20.5C474,120.5,476,119.5,479.4,118.5z M290.4,119.2l-0.5,7v4.7l2.9,3.5h1.2l3-2.3v1.2c0,3.3-1.8,6-5.3,8.2
		c-2.7,0-4.5-3.7-5.2-11.2C287.9,122.9,289.3,119.2,290.4,119.2z M571.6,119.2c3.5,1.5,5.2,5,5.2,10.6l-0.5,1.7
		c0,3.5,1.4,7.5,4.1,11.7v1.8c0,0.8-0.6,1.2-1.7,1.2l-5.3-2.3c-17.8,16.7-33.3,25.9-46.3,27.5c0.6-1.1,11.5-8.2,32.9-21.1
		c5.8-4,8.8-7.1,8.8-9.4c-3.5-3.4-5.2-6.2-5.2-8.2C564.7,123.6,567.5,119.2,571.6,119.2z M398.4,123.2c0,2.8,1.4,4.1,4.1,4.1V125
		c0-2-0.6-3.2-1.8-3.5C399.2,122.1,398.4,122.7,398.4,123.2z M257,123.9c1.6,0.4,2.3,1.3,2.3,2.9c0,4.1-6.1,7.6-18.2,10.6l-71,29.3
		l-5.3,3h-0.5l-1.2-1.2c0-6.1,11.3-13,34-20.6L257,123.9z M566.9,128.6v1.2c2.3,3.1,4.3,4.7,5.9,4.7l0.5-0.6v-2.9
		c0-2.1-1-3.7-2.9-4.7h-1.2L566.9,128.6z M318.6,143.2l0.6,1.8c0,3.1-8.2,6.8-24.7,11.1l-26.5,9.4l-0.5-1.7c0-3.3,10.6-8,31.7-14.1
		L318.6,143.2z M252.8,150.9c1.1,0.6,2.9,4.5,5.3,11.7c-1.5,5.5-3.9,8.2-7,8.2l-5.9-1.8c-4,3.1-6.5,4.7-7.7,4.7s-2.7-1.6-4.6-4.7
		l1.2-11.7h0.6l1.2,1.2v4.7c0.2,2.3,0.8,3.5,1.7,3.5h3c2.3-1.2,3.5-3.3,3.5-6.4v-1.2l-0.6-2.3l1.2-4.1h1.8
		c0.8,7.5,2.1,11.2,4.1,11.2h1.2l1.2-1.2l-1.7-8.8C251.4,151.8,252,150.9,252.8,150.9z M485.9,154.4v0.5c-2,5.5-3,9.6-3,12.4
		c1,5.1,2.2,7.6,3.5,7.6h1.8c1.1,0,1.9-1.6,2.3-4.7h1.2v3c0,3.5-1.6,6.4-4.7,8.8h-0.6c-4.3-1-6.4-4.1-6.4-9.4v-2.9
		C481.2,162.4,483.1,157.3,485.9,154.4z M410.1,157.3c5.9,3.3,8.8,6.6,8.8,10c-1.2,2.5-3,4.6-5.3,6.4c-1.5,0-4.3-1.7-8.2-5.2h-0.5
		l-5.9,7h-1.8c-1.3,0-4-2.7-8.2-8.2c1.6-4.2,3.4-6.9,5.3-8.2c1.6,0.4,4.1,1.9,7.6,4.7h1.8C407.2,159.4,409.4,157.3,410.1,157.3z
		 M572.8,161.4l0.5,0.5c-2.3,4.9-3.5,9-3.5,12.4c0.9,3.5,1.9,5.2,3,5.2h1.2l2.9-2.3h0.6v0.6c0,4.1-2,7-5.9,8.8
		c-3.1-1.4-4.7-3.9-4.7-7.6v-1.2C566.9,171.8,568.9,166.3,572.8,161.4z M304.5,164.3l0.6,0.6h0.5c-3.9,11-5.9,20.2-5.9,27.5
		c1.1,5.9,3.1,8.8,5.9,8.8c0.7,0,1.7-1.8,3-5.3h1.2v1.2h0.5c0,4.9-2,9.4-5.9,13.5h-2.3c-4.7-2.5-7-7.7-7-15.6s2.9-18.2,8.8-30.8
		H304.5z M115.5,166.1l0.6,0.5c-4.7,13.6-7,23.4-7,29.3c1.1,7,2.7,10.6,4.7,10.6h0.5l4.7-5.9h0.6v1.2h0.5
		c-1.7,9.4-4.5,14.1-8.2,14.1c-4.7-2.3-7-6.8-7-13.5c0-9,3.1-20.9,9.4-35.8l0.6-0.5H115.5z M443,170.8h2.3c0,0.8,3.5,5.1,10.6,12.9
		v1.7H453l-1.2,1.2v1.8c5.8,9.5,8.8,16.5,8.8,21.1c0,11.9-5.7,21.3-17,28.2l-1.8,9.4c1.9,12.1,7.2,18.2,15.9,18.2h7.6
		c10,0,25.1-10,45.2-29.9l1.2-2.3v-1.8c0-0.8-0.6-1.2-1.8-1.2l-13.5,1.8h-0.6c-9.4,0-14.1-4.1-14.1-12.4v-1.2
		c0-7.3,4.3-13.2,12.9-17.6h0.6c5.9,0,12.2,4.5,18.8,13.5l2.3,0.5c5.4-2.8,11.5-6.7,18.2-11.7h1.8l1.7,2.3l-0.5,6.5
		c2.8,5.8,7.1,8.8,12.9,8.8c8,0,14.3-4.9,18.8-14.6l4.1-4.7c0.8,0,1.2,0.6,1.2,1.7l-2.3,7.7c2.7,4.3,7.8,6.4,15.3,6.4l1.8-2.9
		l-3-5.9c0.9-5.9,2.1-8.8,3.5-8.8c2,0,3.8,4.7,5.3,14.1c-1.7,10.6-6.2,15.9-13.5,15.9c-5-0.9-9.7-3.6-14.1-8.2
		c-6,5.8-9.7,8.8-11.1,8.8c-3,1.2-5.8,1.8-8.2,1.8h-2.3c-6.1,0-10.6-4.9-13.5-14.7h-1.7c-9,5.9-13.5,10.2-13.5,12.9
		c0,12.6-12.1,26.5-36.4,41.7c-3.9,2.7-9.3,4.7-16.4,5.9h-6.4c-8.5,0-14.8-5.7-18.8-17.1l-1.2-7l1.2-10.6h-1.8
		c-21,13.9-37.6,21.9-49.9,24.1c-15.7,3.5-25.4,5.2-29.3,5.2v-0.5c0.3-1.5,9.8-5.8,28.7-12.9c23.3-10.4,44.7-23.2,64-38.2
		c2.7-2.7,4.1-4.8,4.1-6.4v-0.6c0-1.5-3.7-10.1-11.1-25.8l-3-8.2L443,170.8z M420.2,178.4h0.5v1.2c0,4.4-3.5,11.4-10.6,21.1
		c0,0.7,2.6,3,7.7,7l4.1,8.2c0,11.4-5.9,19.2-17.6,23.5l-5.2,1.2h-1.8c-4.7,0-7-3.4-7-10.1c0-6.8,2-14.1,5.9-22.1v-1.2
		c-9.8-9.9-14.6-15.5-14.6-17.1v-3.5c0-3,0.8-4.7,2.3-5.2l14.6,6.4v1.8c0,0.8-0.6,1.2-1.7,1.2l-0.6,0.5v1.2c2.2,3.1,4.9,4.7,8.2,4.7
		L420.2,178.4z M158.9,181.4c6.7,3.8,10,7.3,10,10.6c-1.7,3.9-3.7,5.9-5.9,5.9h-1.2l-6.5-4.7h-1.2l-5.9,5.9c-1.6,0-5.3-2.2-11.1-6.5
		c0-3.5,1.6-6.6,4.7-9.4h0.5l8.8,4.1h1.2C155.8,183.3,158,181.4,158.9,181.4z M211.2,189c3.2,1.1,6.2,3.7,8.8,7.7
		c-2,5.1-4.4,7.6-7,7.6c-4-2.1-6.8-4.7-8.2-7.6C206.9,191.5,209.1,189,211.2,189z M394.9,223v1.8c0,2.1,0.8,3.4,2.3,4.1h4.7
		c4.6-0.9,9.1-3.4,13.5-7.6v-1.8c-1.9-3.1-6.2-5.9-12.9-8.2h-0.6C398.4,214.8,396,218.7,394.9,223z M490,216.6v1.7l5.9,1.2h2.3
		l4.1-0.5v-1.8c-1.4-2.3-3.8-3.5-7-3.5h-0.6C492.5,213.6,491,214.6,490,216.6z M579.8,243v1.2h0.5c-2.2,8.6-4.9,12.9-8.2,12.9
		l-4.7-1.2h-2.3c-2.7,2-5.2,3-7.6,3l-6.5-3c-2.1,0-11.1,4.9-27,14.7l-5.9,1.2l-0.5-0.6v-0.5l29.3-18.8l5.2-2.3l8.2,2.9
		c2.8,0,5.7-2.1,8.8-6.4c0.6,0,1.4,1.2,2.3,3.5h3.5c0.5,0,1.7-2.2,3.5-6.5H579.8z M175.4,257.7l0.6,1.7c0,3.3-3.7,6.3-11.2,8.8
		l-27,13.5l-0.5-0.5v-0.6c0-3.2,6.7-7.7,20-13.5C165.8,261.4,171.8,258.3,175.4,257.7z M217.6,257.7c1.5,0,2.6,2,3.5,5.9
		c0,3.8-3.1,8.7-9.4,14.6h-1.2V277l6.5-8.8v-2.3h-1.2l-4.1,1.2v-0.6C211.8,262.1,213.7,259.1,217.6,257.7z M303.3,261.2h1.8
		c2,0,5,2.9,8.8,8.8c-2.8,5.1-5,7.7-6.4,7.7c-1,0-3.9-2.7-8.8-8.2C300.1,263.9,301.6,261.2,303.3,261.2z M265.8,263.6
		c6.4,4.9,9.8,8.2,10,9.9c-0.9,3.2-2.9,5.5-5.9,7h-0.6c-1.4,0-3.9-1.6-7.6-4.7h-1.2l-5.9,5.9c-5.6-2.6-9-5.5-10-8.8
		c2.1-5.1,4.3-7.7,6.5-7.7l7.6,4.7l5.9-5.9h1.2V263.6z"/>
</g>
</svg>
