<?xml version="1.0" encoding="utf-8"?>
<!-- Generator: Adobe Illustrator 25.2.3, SVG Export Plug-In . SVG Version: 6.00 Build 0)  -->
<svg version="1.1" xmlns="http://www.w3.org/2000/svg" xmlns:xlink="http://www.w3.org/1999/xlink" x="0px" y="0px"
	 viewBox="0 0 700 395" style="enable-background:new 0 0 700 395;" xml:space="preserve">
<style type="text/css">
	.st0{fill:#000222;}
	.st1{fill:#FFFFFF;}
</style>
<g id="Layer_1">
	<rect class="st0" width="700" height="395"/>
</g>
<g id="Layer_3">
	<g>
		<path class="st1" d="M273.5,368.6l1.1,4.2c0.2,0.9,0.5,1.8,0.6,2.6h0.1c0.2-0.8,0.5-1.7,0.7-2.6l1.3-4.2h1.3l1.3,4.1
			c0.3,1,0.5,1.9,0.7,2.7h0.1c0.1-0.8,0.4-1.7,0.6-2.7l1.2-4.1h1.5l-2.7,8.2H280l-1.3-3.9c-0.3-0.9-0.5-1.7-0.7-2.7h0
			c-0.2,1-0.5,1.8-0.7,2.7l-1.3,3.9h-1.4l-2.5-8.2H273.5z"/>
		<path class="st1" d="M286.3,368.6l1.1,4.2c0.2,0.9,0.5,1.8,0.6,2.6h0.1c0.2-0.8,0.5-1.7,0.7-2.6l1.3-4.2h1.3l1.3,4.1
			c0.3,1,0.5,1.9,0.7,2.7h0.1c0.1-0.8,0.4-1.7,0.6-2.7l1.2-4.1h1.5l-2.7,8.2h-1.4l-1.3-3.9c-0.3-0.9-0.5-1.7-0.7-2.7h0
			c-0.2,1-0.5,1.8-0.7,2.7l-1.3,3.9h-1.4l-2.5-8.2H286.3z"/>
		<path class="st1" d="M299,368.6l1.1,4.2c0.2,0.9,0.5,1.8,0.6,2.6h0.1c0.2-0.8,0.5-1.7,0.7-2.6l1.3-4.2h1.3l1.3,4.1
			c0.3,1,0.5,1.9,0.7,2.7h0.1c0.1-0.8,0.4-1.7,0.6-2.7l1.2-4.1h1.5l-2.7,8.2h-1.4l-1.3-3.9c-0.3-0.9-0.5-1.7-0.7-2.7h0
			c-0.2,1-0.5,1.8-0.7,2.7l-1.3,3.9h-1.4l-2.5-8.2H299z"/>
		<path class="st1" d="M309.9,375.9c0-0.6,0.4-1.1,1-1.1c0.6,0,1,0.4,1,1.1c0,0.6-0.4,1.1-1,1.1C310.3,377,309.9,376.5,309.9,375.9z
			"/>
		<path class="st1" d="M313.5,375.3c0.4,0.3,1.2,0.6,2,0.6c1.1,0,1.6-0.5,1.6-1.2c0-0.7-0.4-1.1-1.5-1.5c-1.5-0.5-2.2-1.3-2.2-2.3
			c0-1.3,1.1-2.4,2.8-2.4c0.8,0,1.6,0.2,2,0.5l-0.4,1.1c-0.3-0.2-0.9-0.5-1.7-0.5c-0.9,0-1.4,0.5-1.4,1.1c0,0.7,0.5,1,1.6,1.4
			c1.4,0.5,2.2,1.3,2.2,2.5c0,1.4-1.1,2.5-3.1,2.5c-0.9,0-1.7-0.2-2.3-0.6L313.5,375.3z"/>
		<path class="st1" d="M327.4,374.6c0,0.9,0,1.6,0.1,2.2h-1.3l-0.1-1.3h0c-0.4,0.7-1.3,1.5-2.7,1.5c-1.3,0-2.8-0.7-2.8-3.6v-4.8h1.5
			v4.6c0,1.6,0.5,2.6,1.8,2.6c1,0,1.7-0.7,2-1.4c0.1-0.2,0.1-0.5,0.1-0.8v-5h1.5V374.6z"/>
		<path class="st1" d="M329.8,371.1c0-1,0-1.8-0.1-2.6h1.3l0.1,1.6h0.1c0.4-1.1,1.3-1.8,2.3-1.8c0.2,0,0.3,0,0.4,0.1v1.4
			c-0.2,0-0.3-0.1-0.5-0.1c-1.1,0-1.8,0.8-2,1.9c0,0.2-0.1,0.4-0.1,0.7v4.4h-1.5V371.1z"/>
		<path class="st1" d="M339.9,376.8l-0.1-1h-0.1c-0.5,0.6-1.3,1.2-2.5,1.2c-1.7,0-2.5-1.2-2.5-2.4c0-2,1.8-3.1,4.9-3.1v-0.2
			c0-0.7-0.2-1.9-1.9-1.9c-0.8,0-1.6,0.2-2.1,0.6l-0.3-1c0.7-0.4,1.7-0.7,2.7-0.7c2.5,0,3.1,1.7,3.1,3.4v3.1c0,0.7,0,1.4,0.1,2
			H339.9z M339.7,372.6c-1.6,0-3.5,0.3-3.5,1.9c0,1,0.6,1.4,1.4,1.4c1.1,0,1.8-0.7,2-1.4c0.1-0.2,0.1-0.3,0.1-0.5V372.6z"/>
		<path class="st1" d="M343.5,364.7h1.5v5.1h0c0.2-0.4,0.6-0.8,1.1-1.1c0.4-0.3,1-0.4,1.5-0.4c1.1,0,2.9,0.7,2.9,3.5v4.9H349v-4.7
			c0-1.3-0.5-2.4-1.9-2.4c-1,0-1.7,0.7-2,1.5c-0.1,0.2-0.1,0.4-0.1,0.7v5h-1.5V364.7z"/>
		<path class="st1" d="M358.6,375.5L358.6,375.5c-0.5,0.8-1.4,1.5-2.7,1.5c-1.9,0-3.5-1.7-3.5-4.2c0-3.1,2-4.4,3.7-4.4
			c1.3,0,2.1,0.6,2.5,1.4h0l0.1-1.2h1.4c0,0.7-0.1,1.4-0.1,2.3v9.3h-1.5V375.5z M358.6,371.9c0-0.2,0-0.4-0.1-0.6
			c-0.2-0.9-1-1.7-2.1-1.7c-1.5,0-2.5,1.3-2.5,3.2c0,1.6,0.8,3.1,2.4,3.1c1,0,1.8-0.6,2.1-1.6c0.1-0.2,0.1-0.5,0.1-0.7V371.9z"/>
		<path class="st1" d="M369.4,374.6c0,0.9,0,1.6,0.1,2.2h-1.3l-0.1-1.3h0c-0.4,0.7-1.3,1.5-2.7,1.5c-1.3,0-2.8-0.7-2.8-3.6v-4.8h1.5
			v4.6c0,1.6,0.5,2.6,1.8,2.6c1,0,1.7-0.7,2-1.4c0.1-0.2,0.1-0.5,0.1-0.8v-5h1.5V374.6z"/>
		<path class="st1" d="M371.9,371.1c0-1,0-1.8-0.1-2.6h1.3l0.1,1.6h0.1c0.4-1.1,1.3-1.8,2.3-1.8c0.2,0,0.3,0,0.4,0.1v1.4
			c-0.2,0-0.3-0.1-0.5-0.1c-1.1,0-1.8,0.8-2,1.9c0,0.2-0.1,0.4-0.1,0.7v4.4h-1.5V371.1z"/>
		<path class="st1" d="M381.9,376.8l-0.1-1h-0.1c-0.5,0.6-1.3,1.2-2.5,1.2c-1.7,0-2.5-1.2-2.5-2.4c0-2,1.8-3.1,4.9-3.1v-0.2
			c0-0.7-0.2-1.9-1.9-1.9c-0.8,0-1.6,0.2-2.1,0.6l-0.3-1c0.7-0.4,1.7-0.7,2.7-0.7c2.5,0,3.1,1.7,3.1,3.4v3.1c0,0.7,0,1.4,0.1,2
			H381.9z M381.7,372.6c-1.6,0-3.5,0.3-3.5,1.9c0,1,0.6,1.4,1.4,1.4c1.1,0,1.8-0.7,2-1.4c0.1-0.2,0.1-0.3,0.1-0.5V372.6z"/>
		<path class="st1" d="M385.6,370.8c0-0.9,0-1.5-0.1-2.2h1.3l0.1,1.4h0c0.4-0.8,1.4-1.5,2.7-1.5c1.1,0,2.9,0.7,2.9,3.5v4.9h-1.5
			v-4.7c0-1.3-0.5-2.4-1.9-2.4c-1,0-1.8,0.7-2,1.5c-0.1,0.2-0.1,0.4-0.1,0.7v4.9h-1.5V370.8z"/>
		<path class="st1" d="M394.6,375.9c0-0.6,0.4-1.1,1-1.1c0.6,0,1,0.4,1,1.1c0,0.6-0.4,1.1-1,1.1C395,377,394.6,376.5,394.6,375.9z"
			/>
		<path class="st1" d="M404.4,376.5c-0.4,0.2-1.3,0.5-2.4,0.5c-2.5,0-4.1-1.7-4.1-4.2c0-2.5,1.7-4.4,4.4-4.4c0.9,0,1.7,0.2,2.1,0.4
			l-0.3,1.2c-0.4-0.2-0.9-0.4-1.7-0.4c-1.9,0-2.9,1.4-2.9,3.1c0,1.9,1.2,3.1,2.9,3.1c0.8,0,1.4-0.2,1.8-0.4L404.4,376.5z"/>
		<path class="st1" d="M413.5,372.6c0,3-2.1,4.4-4.1,4.4c-2.2,0-3.9-1.6-3.9-4.2c0-2.8,1.8-4.4,4.1-4.4
			C411.9,368.4,413.5,370.1,413.5,372.6z M406.9,372.7c0,1.8,1,3.2,2.5,3.2c1.4,0,2.5-1.3,2.5-3.2c0-1.4-0.7-3.2-2.5-3.2
			S406.9,371.1,406.9,372.7z"/>
		<path class="st1" d="M415.4,370.8c0-0.9,0-1.5-0.1-2.2h1.3l0.1,1.3h0.1c0.5-0.8,1.2-1.5,2.6-1.5c1.1,0,2,0.7,2.3,1.6h0
			c0.3-0.5,0.6-0.8,0.9-1.1c0.5-0.4,1-0.6,1.8-0.6c1.1,0,2.7,0.7,2.7,3.6v4.8h-1.5v-4.7c0-1.6-0.6-2.5-1.8-2.5
			c-0.9,0-1.5,0.6-1.8,1.4c-0.1,0.2-0.1,0.5-0.1,0.7v5.1h-1.5v-4.9c0-1.3-0.6-2.3-1.7-2.3c-0.9,0-1.6,0.7-1.9,1.5
			c-0.1,0.2-0.1,0.5-0.1,0.7v5h-1.5V370.8z"/>
	</g>
</g>
<g id="Layer_4">
	<path class="st1" d="M258.8,97.2c5.4,0,8.5,1.6,9.2,4.9c-1.4,3.5-5.7,6.8-12.9,9.8l-1.8-0.6v-0.7l5.5-5.5l-1.2-1.2h-4.9
		c-1.4,0-2.8,0.6-4.2,1.8h-0.7v-0.6C247.8,99.8,251.5,97.2,258.8,97.2z M211.8,102.1h0.6v1.2c0,3.7-8.6,8.6-25.7,14.7l-31.2,15.9
		l-1.2,3.7l4.9,4.9v2.4l-2.4,0.7c-3.7-1.5-5.5-3.6-5.5-6.1c0-8.3,7.6-15.1,22.7-20.2C182.3,114.2,194.9,108.5,211.8,102.1z
		 M333.5,116.2c7.5,11.5,11.7,20.9,12.9,28.1l-1.2,1.2h-0.7l-2.4-1.9l-1.2,1.2c6.5,40,9.8,63.4,9.8,70.4c0,12-5.3,20.4-15.9,25
		c-21.9,8.4-34.8,14.3-38.5,17.8c-2.9,0.9-12.1,10-27.6,27.5c-5.4,4.1-9.5,6.1-12.2,6.1h-1.2c-8.6,0-13.9-6.7-15.9-20.1l2.4-14.7
		h-0.6c-15.7,3.4-31,14.2-45.9,32.4c-4.5,5.7-9.8,8.6-15.9,8.6h-0.6c-7.1,0-12.4-5.7-15.9-17.1c0-6,2.4-13.6,7.3-22.6v-2.4
		c-9.3-7.5-15-14.4-17.1-20.8l-0.7-0.7h-0.6c-9.8,0-18.2,11-25.1,33c-3.2,8.1-7,13-11.6,14.7c-5.5,0-11-5.5-16.6-16.5l-3-17.1
		c1-9.8,2.2-14.7,3.7-14.7l0.6,0.6v6.8c0,14.7,4.1,24.3,12.2,28.7h4.3c2.7-0.4,7.6-10.6,14.7-30.6c8.2-11.8,15.3-17.7,21.4-17.7
		c2.4,0,5.9,4.7,10.4,14c5.3,5.3,9.8,8,13.5,8h6.7c11.4-2.9,17.1-6.4,17.1-10.4c-2.4-19.7-7.7-52.6-15.9-98.5l2.4-8h1.9
		c7.7,11.4,11.6,19.3,11.6,23.9l-1.8,0.6l-3.1-1.8H194v0.6c7.8,44.2,11.7,69.4,11.7,75.9v2.4c0,13.9-5.9,22.7-17.8,26.3
		c-9.4,1.7-14,3.4-14,4.9c-4.2,5.8-6.6,12.3-7.3,19.6c0.8,6.9,3.3,10.4,7.3,10.4h4.9c4.6,0,14.6-9,29.9-26.9
		c10-7.9,21.2-14,33.7-18.4c21.2-7.7,31.8-14.4,31.8-20.1c-9.8-57.2-15.7-89.2-17.8-96.1l3.1-9.8h0.6c9,15.6,13.5,24.7,13.5,27.6
		v1.8h-1.8l-2.4-1.8h-1.2v0.6l10.4,62.4l0.7,4.9c0,16.1-4.7,26.7-14.1,31.8c-12.6,5.2-18.9,10.1-18.9,14.7c-1.6,2.7-2.4,7-2.4,12.9
		v1.8c0,5.7,3.1,8.6,9.2,8.6c6.1,0,17.1-9.4,33-28.1c7.2-7.8,22.1-15.8,44.7-23.8c9.8-3.6,14.7-7.7,14.7-12.2
		c-0.8-8.5-5.7-39.3-14.7-92.4h-0.7C331.3,119.6,332.5,116.2,333.5,116.2z M362.3,116.2c4.7,5.8,9.6,15.6,14.7,29.4l-0.7,1.8h-1.2
		l-4.9-4.2h-0.6v0.6c1.6,15.4,5.5,42.4,11.6,80.8v8.6l0.7,4.9c0,7.5-1.4,13.2-4.3,17.1H377c-2.4-24.9-8.2-67.1-17.1-126.6l-0.7-0.7
		l-0.6-2.4C360,119.2,361.2,116.2,362.3,116.2z M537.3,116.7c3.3,1.5,4.9,4.1,4.9,8l-1.9,1.8H539l-4.2-3c-1.4,0.3-2.6,1.5-3.7,3.7
		l0.6,7.9c-0.7,13.1-1.9,19.6-3.7,19.6c-6.1-11.4-12-17.1-17.7-17.1c-2.4-1.8-3.7-3.9-3.7-6.4s0.8-4,2.4-4.6
		c3.4,0,9.3,4.9,17.7,14.7h0.7l0.6-3v-5.5C529.1,122,532.2,116.7,537.3,116.7z M577,117.4h1.2c3.1,0,5.1,3,6.1,9.1
		c0,6.1,1.4,10.2,4.3,12.2v2.4l-1.9,1.9l-4.2-2.4h-1.2c-16.6,16.9-31.1,26.7-43.5,29.4h-0.6v-0.7c17.3-11.5,30.2-20.9,38.5-28.1
		l1.2-1.8v-0.7c-4.1-3.8-6.1-6.9-6.1-9.1C570.9,125.4,572.9,121.4,577,117.4z M234.4,119.8c3.7,2.1,5.5,4.7,5.5,7.9
		c0,1.3-0.8,1.9-2.4,1.9l-3.7-2.4h-1.2l-1.2,1.2v14l-1.9,9.2h-1.2l-8.6-12.2c-6.9-1.1-10.4-3.6-10.4-7.3c0.7-3.7,1.5-5.5,2.4-5.5
		h0.6c2.8,0,7.5,4.1,14.1,12.2h1.2C228.2,126.2,230.4,119.8,234.4,119.8z M410.6,120.4c2.9,1,4.3,3.4,4.3,7.3v7.3
		c0,1.5,1.8,4,5.5,7.3v1.9l-0.6,2.4h-0.7c-1.4,0-3.5-1-6.1-3.1h-0.6c-1.6,0-6.3,4.1-14.1,12.2c-5.1,3.4-10.4,6.3-15.9,8.6l-1.2-1.2
		c0-0.8,3.1-3,9.2-6.7c10.7-8.1,16.2-13.4,16.5-15.9l-3.7-6.1v-1.9C403.2,127.4,405.7,123.3,410.6,120.4z M486.4,121.1h1.2v1.2h0.7
		c0,3.3-9.8,10.6-29.4,22c-13.9,9-21.6,13.5-23.2,13.5l-0.7-0.7v-1.2c0-3.1,8.6-9.4,25.7-18.9L486.4,121.1z M129.1,122.9h1.9
		c3.6,3,5.5,5.5,5.5,7.3l-0.6,1.9h-0.7l-6.1-2.4l-1.2,1.2l0.7,10.4v4.3c0,13.6-4.5,23.8-13.5,30.6h-1.2v-0.7c7.3-10,11-16.5,11-19.6
		c-4.3-11.8-10.6-17.7-19-17.7c-1.6-1.7-2.4-3.7-2.4-6.1c0.8-1.8,1.6-2.9,2.4-3.1c4.4,0,10.7,4.7,19,14.1h0.6l-0.6-10.4
		C126,126.1,127.4,122.9,129.1,122.9z M574.5,126.5c1.7,3.3,3.8,4.9,6.1,4.9l0.7-1.8c-0.9-3.7-2-5.5-3.1-5.5h-1.8
		C575.4,124.1,574.7,124.9,574.5,126.5z M406.9,129.6c0,2,1,3.4,3.1,4.2l1.2-1.2V129l-1.2-1.2h-1.2L406.9,129.6z M324.3,127.8
		l1.2,1.2c0,2.7-7.2,7.4-21.5,14.1l-26.3,13.5v-0.7l-0.7-0.6c0-2.9,7.3-7.8,22-14.7L324.3,127.8z M495,155.9h0.7l-2.4,8.6
		c0.5,7.3,2.1,11,4.9,11l3.7-4.2l0.6,0.6h0.7c-1.3,7.3-3.5,11-6.8,11c-2.4,0-4.5-3.9-6.1-11.6C491.8,161,493.5,155.9,495,155.9z
		 M581.9,158.3h0.7l-2.4,8.6v4.3c0,2.2,1,3.9,3,4.9h0.7l3.7-3.1l0.6,0.7v0.6c-1.5,5.7-3.8,8.6-6.7,8.6c-2.9-1.3-4.3-4.9-4.3-11
		C577.4,166.8,579,162.3,581.9,158.3z M256.4,160.2h0.7l0.6,1.8c-0.2,2.6-6.9,6.4-20.1,11.7l-27.6,13.5v-1.9
		c0-3.2,6.7-7.4,20.2-12.8C244.8,164.3,253.6,160.2,256.4,160.2z M313.9,162c3.7,6.3,5.5,10.6,5.5,12.9v1.8c0,2.7-1.8,5.2-5.5,7.3
		l-8.6-2.4c0,3-2.4,4.8-7.3,5.5c-3.6-2.1-5.5-4.3-5.5-6.8l0.6-0.6v-6.1c0-3,0.6-4.6,1.9-4.9l1.2,3.7l-0.7,4.2
		c0.7,2.4,1.9,3.7,3.9,3.7s3.5-1,4.7-3v-8c0-3,0.6-4.6,1.9-4.9h0.6c1.4,8.2,3.3,12.2,5.5,12.2h2.4v-0.6l-2.4-9.2v-1.2
		C312.3,163.2,312.9,162,313.9,162z M419.8,162.7h0.6c6.1,2.6,9.2,5.4,9.2,8.6c0,2.7-1.8,5.2-5.5,7.3l-7.3-4.9h-0.6l-5.5,6.7h-1.8
		c-3.6-2.2-6.3-4.4-8-6.7c0-3.9,1.6-7,4.9-9.2l6.8,4.3h1.8L419.8,162.7z M170.2,168.1l0.6,0.7h0.7l-1.2,7.9c0,2.6,1.2,5.3,3.7,8h1.2
		c0.8,0,1.6-1.2,2.4-3.7h1.2v0.6c-1.1,6.5-2.6,9.8-4.3,9.8h-1.8c-3.3-3-4.9-5.9-4.9-8.6v-2.4L170.2,168.1z M101.7,173.7h1.2l0.6,3
		L98,201.8v4.2c0.4,7.3,2.5,11,6.1,11l4.2-4.9c0.8,0,1.2,0.6,1.2,1.9c0,5.4-2,9.7-6.1,12.8h-1.2c-4.8,0-7.6-5.7-8.6-17.1
		C93.7,202.1,96.3,190.1,101.7,173.7z M455.3,173.7c5.5,4.6,9.6,8.6,12.2,12.2v0.6c0,0.7-1.4,1.3-4.3,1.9v0.6
		c7,9.8,10.4,18.6,10.4,26.3c0,9.1-4.9,17.2-14.7,24.5l-1.9,6.7v3.1c0,8.6,5.3,14.4,15.9,17.1h0.7c15.8,0,33-11.2,51.4-33.7v-4.2
		h-0.7l-16.5,3c-9-1.4-13.5-5.4-13.5-12.2c2-12.6,6.7-18.9,14-18.9c5.3,0,11.4,4.3,18.4,12.8c3.3,0,9.7-4.1,19-12.2h3
		c0.3,2.9,0.7,4.3,1.2,4.3l-0.6,0.6v1.9c0,4.1,3.5,7.3,10.4,9.8h4.9c6.4,0,12.3-6.1,17.8-18.4l2.4-1.9h0.6v1.9l-1.8,6.1
		c2,4.5,6.5,6.7,13.5,6.7c2.4,0,3.7-0.8,3.7-2.4l-3.1-6.1c0.5-5.7,1.6-8.6,3.1-8.6h1.2c2.8,5.3,4.2,10,4.2,14.1v1.2
		c-1.5,9.4-4.8,14-9.8,14h-3.7c-3,0-7.3-2.2-12.8-6.7h-1.2c-5.6,7.7-11.7,11.6-18.4,11.6c-6.6,0-11.3-3-14.1-9.1l-1.2-4.9h-0.6
		c-5.4,2-10.1,5.9-14.1,11.6c0,11.3-5.3,21.1-15.9,29.4c-11.1,11.3-21.3,18.2-30.6,20.8l-4.2,0.7H473c-7.8,0-13.9-5.1-18.4-15.3
		c-0.8-1.6-1.2-3.8-1.2-6.7v-10.4h-0.6c-26.9,18.8-46.5,28.1-58.7,28.1c-10.1,2.9-16.5,4.3-19,4.3l-0.6-0.7v-0.6l33.6-15.9
		c17.5-8.8,35.8-21,55.1-36.7c3.7-3.5,5.5-6,5.5-7.4s-4.1-9.1-12.2-23.2l-4.3-10.4C452.7,176.7,453.7,173.7,455.3,173.7z
		 M249.7,179.8h1.2l-1.2,10.4c1,2.8,2.4,4.8,4.2,6.1c1.6-0.4,2.4-1.2,2.4-2.4h0.7l0.6,0.7h0.7c-1.4,5.7-3.3,8.6-5.5,8.6
		c-3.6-1.4-5.5-4.9-5.5-10.4V192L249.7,179.8z M430.8,182.8h1.2v0.7c0,6-2.7,12.3-8,18.9l-0.6,3.1c7.7,5.2,11.6,11.1,11.6,17.7
		c0,10.2-6.7,17.5-20.1,22H413c-5.1,0-8-3.5-8.6-10.4c0-6.5,1.6-13.9,4.9-22c0-1.2-4.5-5.7-13.5-13.5c-1.2-1.6-1.8-3.4-1.8-5.5v-3
		c0-2.4,0.8-3.7,2.4-3.7c9.4,3.5,14,5.8,14,6.7v1.9c-1.2,0-1.8,0.4-1.8,1.2v0.6c2.6,2.9,5.2,4.3,7.9,4.3L430.8,182.8z M144.5,190.8
		h2.4c4.3,2.7,6.9,4.9,7.9,6.7c-2.2,5.3-4.2,8-6.1,8l-7.3-3.7h-1.2l-4.2,4.2H134c-4.9-2.6-7.6-4.4-7.9-5.5v-1.2c0-3.3,1.6-5.9,4.9-8
		l7.9,4.3h1.2L144.5,190.8z M307.2,199.4c4.4,2,7.9,5,10.4,9.1v2.4c-2.4,3.7-4.5,5.7-6.1,6.1c-1.1,0-4.4-3-9.8-9.1
		C302.1,205,304,202.1,307.2,199.4z M231.9,205.5h1.9c5.7,3.6,8.6,6.7,8.6,9.1c-2.3,4.1-4.2,6.6-5.5,7.3c-2.6,0-5.8-2.9-9.8-8.6
		C227,211.4,228.7,208.8,231.9,205.5z M503,215.9v2.4l5.5,1.2h1.9c2.2,0,3.9-0.6,4.9-1.8c-1.3-2.9-3.3-4.3-6.1-4.3h-1.9
		C505.1,213.4,503.6,214.2,503,215.9z M414.9,216.5c-3.7,6-5.5,9.7-5.5,11v1.8c0,2.9,1.4,4.3,4.3,4.3c4.6,0,9.7-2.9,15.3-8.6v-0.7
		c-4.9-5.7-9.6-8.6-14-8.6V216.5z M591.7,238.5h1.9v2.4c0,5.2-2.7,9.1-8,11.6l-4.9-1.2c-2.2,1.6-4.6,2.9-7.3,3.7l-7.9-2.4
		c-2.6,0.3-10.7,5.2-24.5,14.7l-7.3,1.9v-0.7c19.4-14.7,30.8-22,34.3-22l6.1,1.9h1.2c2.4,0,5-2,7.9-6.1h1.2c0.3,2,0.9,3,1.9,3h2.4
		C589.5,245.2,590.5,243,591.7,238.5z M335.9,247.7h0.7v0.7l-1.9,7.3v4.2c0,4.5,1.6,6.8,4.9,6.8l2.4-2.4h1.2v0.6
		c-0.1,2.6-1.9,5.4-5.5,8.6c-4.5-1.6-6.8-5.2-6.8-10.6C331,257.3,332.7,252.3,335.9,247.7z M154.3,272.1h1.2l1.2,1.2
		c0,3.3-6.3,7.4-19,12.2c-9,5.3-14.7,8-17.1,8l-0.6-0.7C120,290.4,131.4,283.5,154.3,272.1z"/>
</g>
</svg>
